<svg preserveAspectRatio="none" width="100%" height="100%" overflow="visible" style="display: block;" viewBox="0 0 14.3329 14.3333" fill="none" xmlns="http://www.w3.org/2000/svg">
<g id="Group">
<path id="Vector" d="M6.2 1.16661C3.632 1.17127 2.28667 1.23461 1.42733 2.09327C0.5 3.02194 0.5 4.51461 0.5 7.49994C0.5 10.4853 0.5 11.9779 1.42733 12.9059C2.35533 13.8333 3.84733 13.8333 6.834 13.8333C9.81933 13.8333 11.312 13.8333 12.2393 12.9059C13.0993 12.0459 13.162 10.7013 13.1667 8.13261" stroke="var(--stroke-0, #717684)" stroke-linecap="round" stroke-linejoin="round"/>
<path id="Vector_2" d="M6.53733 7.83327C6.05467 1.74394 10.368 0.0172733 13.82 0.609273C13.9593 2.62727 12.9713 3.38261 11.0913 3.73194C11.4547 4.11194 12.096 4.58927 12.0267 5.18527C11.9773 5.61061 11.6893 5.81861 11.112 6.23594C9.848 7.14927 8.384 7.72527 6.53733 7.83327Z" stroke="var(--stroke-0, #717684)" stroke-linecap="round" stroke-linejoin="round"/>
<path id="Vector_3" d="M5.16667 10.4999C6.5 6.83327 7.80667 5.59061 9.16667 4.49994" stroke="var(--stroke-0, #717684)" stroke-linecap="round" stroke-linejoin="round"/>
</g>
</svg>
