<svg width="100%" height="100%" overflow="visible" style="display: block;" viewBox="0 0 23.3936 28.5783" fill="none" xmlns="http://www.w3.org/2000/svg">
<g id="Box">
<path id="Combined-Shape" d="M16.2159 22.0145L16.1853 25.6721L11.3195 28.5783L7.15731 25.915L7.12146 22.1891L11.3709 24.9082L16.2159 22.0145ZM5.8035 3.60304L5.77256 7.34479L2.97387 9.17008V19.5355L5.65748 21.2524L5.62691 24.9358L0 21.3355V7.3878L5.8035 3.60304ZM17.5105 3.86262L23.3936 7.53814V21.3671L17.7108 24.7608L17.6761 21.1421L20.4193 19.5041V9.35986L17.5459 7.56428L17.5105 3.86262ZM11.3288 0.000209521L16.3721 3.15134L16.3419 6.81212L11.3616 3.70051L6.97167 6.56286L6.9362 2.86437L11.3288 0.000209521Z" fill="var(--fill-0, #3E3E3E)"/>
</g>
</svg>
