<svg preserveAspectRatio="none" width="100%" height="100%" overflow="visible" style="display: block;" viewBox="0 0 13 14.3333" fill="none" xmlns="http://www.w3.org/2000/svg">
<g id="Group">
<path id="Vector" d="M9.16667 0.5V3.16667M3.83333 0.5V3.16667M12.5 7.16667C12.5 4.65267 12.5 3.39533 11.7187 2.61467C10.9373 1.834 9.68067 1.83333 7.16667 1.83333H5.83333C3.31933 1.83333 2.062 1.83333 1.28133 2.61467C0.500667 3.396 0.5 4.65267 0.5 7.16667V8.5C0.5 11.014 0.5 12.2713 1.28133 13.052C2.06267 13.8327 3.31933 13.8333 5.83333 13.8333M0.5 5.83333H12.5" stroke="var(--stroke-0, #717684)" stroke-linecap="round" stroke-linejoin="round"/>
<path id="Vector_2" d="M10.678 11.634L9.83333 11.1667V10.0113M12.5 11.1667C12.5 11.8739 12.219 12.5522 11.719 13.0523C11.2189 13.5524 10.5406 13.8333 9.83333 13.8333C9.12609 13.8333 8.44781 13.5524 7.94772 13.0523C7.44762 12.5522 7.16667 11.8739 7.16667 11.1667C7.16667 10.4594 7.44762 9.78115 7.94772 9.28105C8.44781 8.78095 9.12609 8.5 9.83333 8.5C10.5406 8.5 11.2189 8.78095 11.719 9.28105C12.219 9.78115 12.5 10.4594 12.5 11.1667Z" stroke="var(--stroke-0, #717684)" stroke-linecap="round" stroke-linejoin="round"/>
</g>
</svg>
