<svg preserveAspectRatio="none" width="100%" height="100%" overflow="visible" style="display: block;" viewBox="0 0 40 40" fill="none" xmlns="http://www.w3.org/2000/svg">
<g id="lineicons:message-3-text">
<path id="Vector" d="M11.9974 17.0668C11.9974 16.8016 12.1073 16.5472 12.303 16.3597C12.4987 16.1722 12.7641 16.0668 13.0409 16.0668H26.9539C27.2307 16.0668 27.4961 16.1722 27.6918 16.3597C27.8875 16.5472 27.9974 16.8016 27.9974 17.0668C27.9974 17.332 27.8875 17.5864 27.6918 17.7739C27.4961 17.9615 27.2307 18.0668 26.9539 18.0668H13.0409C12.7641 18.0668 12.4987 17.9615 12.303 17.7739C12.1073 17.5864 11.9974 17.332 11.9974 17.0668ZM13.0409 20.0668C12.7641 20.0668 12.4987 20.1722 12.303 20.3597C12.1073 20.5472 11.9974 20.8016 11.9974 21.0668C11.9974 21.332 12.1073 21.5864 12.303 21.7739C12.4987 21.9615 12.7641 22.0668 13.0409 22.0668H19.9974C20.2741 22.0668 20.5396 21.9615 20.7352 21.7739C20.9309 21.5864 21.0409 21.332 21.0409 21.0668C21.0409 20.8016 20.9309 20.5472 20.7352 20.3597C20.5396 20.1722 20.2741 20.0668 19.9974 20.0668H13.0409Z" fill="var(--fill-0, #EA4A35)"/>
<path id="Vector_2" fill-rule="evenodd" clip-rule="evenodd" d="M5.9974 11.1922C5.9974 10.3633 6.34674 9.56835 6.96857 8.98222C7.5904 8.3961 8.43378 8.06682 9.31319 8.06682H30.6816C31.561 8.06682 32.4044 8.3961 33.0262 8.98222C33.6481 9.56835 33.9974 10.3633 33.9974 11.1922V25.8454C33.9974 26.6743 33.6481 27.4693 33.0262 28.0554C32.4044 28.6415 31.561 28.9708 30.6816 28.9708H24.5673L20.8846 33.6464C20.7817 33.7768 20.6479 33.8828 20.4939 33.9558C20.3398 34.0288 20.1698 34.0668 19.9974 34.0668C19.825 34.0668 19.6549 34.0288 19.5009 33.9558C19.3469 33.8828 19.2131 33.7768 19.1102 33.6464L15.429 28.9708H9.31319C8.43378 28.9708 7.5904 28.6415 6.96857 28.0554C6.34674 27.4693 5.9974 26.6743 5.9974 25.8454V11.1922ZM9.31319 10.1504C9.02005 10.1504 8.73892 10.2602 8.53165 10.4555C8.32437 10.6509 8.20792 10.9159 8.20792 11.1922V25.8454C8.20792 26.4205 8.70308 26.8872 9.31319 26.8872H15.9846C16.157 26.8873 16.3271 26.9253 16.4811 26.9984C16.6352 27.0715 16.7689 27.1776 16.8717 27.3081L19.9974 31.2766L23.1246 27.3081C23.2273 27.1776 23.3611 27.0715 23.5152 26.9984C23.6692 26.9253 23.8393 26.8873 24.0117 26.8872H30.6816C30.9747 26.8872 31.2559 26.7774 31.4631 26.5821C31.6704 26.3867 31.7869 26.1217 31.7869 25.8454V11.1908C31.7869 10.9145 31.6704 10.6495 31.4631 10.4542C31.2559 10.2588 30.9747 10.149 30.6816 10.149L9.31319 10.1504Z" fill="var(--fill-0, #EA4A35)"/>
</g>
</svg>
