<svg preserveAspectRatio="none" width="100%" height="100%" overflow="visible" style="display: block;" viewBox="0 0 40 40" fill="none" xmlns="http://www.w3.org/2000/svg">
<g id="mynaui:filter-solid">
<path id="Vector" d="M6.25 11.6667C6.25 11.3351 6.3817 11.0172 6.61612 10.7828C6.85054 10.5484 7.16848 10.4167 7.5 10.4167H32.5C32.8315 10.4167 33.1495 10.5484 33.3839 10.7828C33.6183 11.0172 33.75 11.3351 33.75 11.6667C33.75 11.9982 33.6183 12.3161 33.3839 12.5505C33.1495 12.785 32.8315 12.9167 32.5 12.9167H7.5C7.16848 12.9167 6.85054 12.785 6.61612 12.5505C6.3817 12.3161 6.25 11.9982 6.25 11.6667ZM10.4167 20C10.4167 19.6685 10.5484 19.3505 10.7828 19.1161C11.0172 18.8817 11.3351 18.75 11.6667 18.75H28.3333C28.6649 18.75 28.9828 18.8817 29.2172 19.1161C29.4516 19.3505 29.5833 19.6685 29.5833 20C29.5833 20.3315 29.4516 20.6495 29.2172 20.8839C28.9828 21.1183 28.6649 21.25 28.3333 21.25H11.6667C11.3351 21.25 11.0172 21.1183 10.7828 20.8839C10.5484 20.6495 10.4167 20.3315 10.4167 20ZM15.4167 28.3333C15.4167 28.0018 15.5484 27.6839 15.7828 27.4494C16.0172 27.215 16.3351 27.0833 16.6667 27.0833H23.3333C23.6649 27.0833 23.9828 27.215 24.2172 27.4494C24.4516 27.6839 24.5833 28.0018 24.5833 28.3333C24.5833 28.6649 24.4516 28.9828 24.2172 29.2172C23.9828 29.4516 23.6649 29.5833 23.3333 29.5833H16.6667C16.3351 29.5833 16.0172 29.4516 15.7828 29.2172C15.5484 28.9828 15.4167 28.6649 15.4167 28.3333Z" fill="var(--fill-0, #EA4A35)"/>
</g>
</svg>
