<svg preserveAspectRatio="none" width="100%" height="100%" overflow="visible" style="display: block;" viewBox="0 0 40 40" fill="none" xmlns="http://www.w3.org/2000/svg">
<g id="fluent:link-24-regular">
<path id="Vector" d="M15.4167 11.6667C15.7325 11.6664 16.0367 11.7856 16.2682 12.0004C16.4997 12.2153 16.6413 12.5098 16.6645 12.8248C16.6878 13.1397 16.5909 13.4518 16.3934 13.6983C16.1959 13.9448 15.9125 14.1073 15.6 14.1533L15.4167 14.1667H11.6667C10.149 14.1662 8.69084 14.7572 7.60182 15.8143C6.51279 16.8713 5.87862 18.3112 5.83394 19.8283C5.78926 21.3453 6.33758 22.82 7.3625 23.9394C8.38743 25.0587 9.80824 25.7345 11.3233 25.8233L11.6667 25.8333H15.4167C15.7325 25.833 16.0367 25.9523 16.2682 26.1671C16.4997 26.3819 16.6413 26.6765 16.6645 26.9914C16.6878 27.3064 16.5909 27.6185 16.3934 27.8649C16.1959 28.1114 15.9125 28.274 15.6 28.32L15.4167 28.3333H11.6667C9.49112 28.3356 7.40096 27.487 5.84271 25.9688C4.28447 24.4506 3.38171 22.3833 3.32731 20.2084C3.2729 18.0335 4.07117 15.9236 5.55155 14.3294C7.03194 12.7352 9.07707 11.7832 11.25 11.6767L11.6667 11.6667H15.4167ZM28.3333 11.6667C30.5089 11.6644 32.599 12.513 34.1573 14.0312C35.7155 15.5494 36.6183 17.6167 36.6727 19.7916C36.7271 21.9665 35.9288 24.0764 34.4484 25.6706C32.9681 27.2648 30.9229 28.2168 28.75 28.3233L28.3333 28.3333H24.5833C24.2675 28.3336 23.9633 28.2144 23.7318 27.9996C23.5003 27.7847 23.3587 27.4902 23.3355 27.1752C23.3122 26.8603 23.4091 26.5482 23.6066 26.3017C23.8041 26.0552 24.0875 25.8927 24.4 25.8467L24.5833 25.8333H28.3333C29.851 25.8338 31.3092 25.2428 32.3982 24.1857C33.4872 23.1287 34.1214 21.6888 34.1661 20.1717C34.2107 18.6547 33.6624 17.18 32.6375 16.0606C31.6126 14.9413 30.1918 14.2655 28.6767 14.1767L28.3333 14.1667H24.5833C24.2675 14.167 23.9633 14.0477 23.7318 13.8329C23.5003 13.6181 23.3587 13.3235 23.3355 13.0086C23.3122 12.6936 23.4091 12.3815 23.6066 12.135C23.8041 11.8886 24.0875 11.726 24.4 11.68L24.5833 11.6667H28.3333ZM11.6667 18.75H28.3333C28.65 18.7501 28.9549 18.8704 29.1863 19.0866C29.4177 19.3028 29.5585 19.5988 29.58 19.9148C29.6016 20.2308 29.5025 20.5432 29.3026 20.7888C29.1028 21.0345 28.8171 21.1952 28.5033 21.2383L28.3333 21.25H11.6667C11.35 21.2499 11.0451 21.1296 10.8137 20.9134C10.5823 20.6972 10.4415 20.4012 10.42 20.0852C10.3984 19.7692 10.4975 19.4568 10.6974 19.2112C10.8972 18.9655 11.1829 18.8048 11.4967 18.7617L11.6667 18.75Z" fill="var(--fill-0, #EA4A35)"/>
</g>
</svg>
