<svg width="128" height="128" viewBox="0 0 128 128" fill="none" xmlns="http://www.w3.org/2000/svg">
<rect x="63.6396" width="90" height="90" rx="20" transform="rotate(45 63.6396 0)" fill="#F4F8FB"/>
<path fill-rule="evenodd" clip-rule="evenodd" d="M62.596 42.7662C63.0459 42.5975 63.5417 42.5975 63.9917 42.7662L81.6583 49.3912C82.4341 49.6821 82.948 50.4237 82.948 51.2521V66.7105C82.948 74.2228 77.9713 80.2482 73.4359 84.2167C71.1265 86.2374 68.8264 87.8177 67.1076 88.892C66.2461 89.4304 65.5254 89.845 65.0155 90.1272C64.7604 90.2684 64.5577 90.3768 64.4161 90.4511C64.3701 90.4752 64.3306 90.4958 64.2977 90.5128C64.28 90.5219 64.2642 90.5301 64.2504 90.5371L64.2039 90.5608L64.1901 90.5678L64.1855 90.57L64.1839 90.5709C64.1832 90.5712 64.1827 90.5715 63.2938 88.7938C62.405 90.5715 62.4044 90.5712 62.4037 90.5709L62.4021 90.57L62.3976 90.5678L62.3837 90.5608L62.3372 90.5371C62.298 90.517 62.2424 90.4883 62.1716 90.4511C62.0299 90.3768 61.8272 90.2684 61.5721 90.1272C61.0622 89.845 60.3415 89.4304 59.48 88.892C57.7612 87.8177 55.4612 86.2374 53.1517 84.2167C48.6163 80.2482 43.6396 74.2228 43.6396 66.7105V51.2521C43.6396 50.4237 44.1536 49.6821 44.9293 49.3912L62.596 42.7662ZM63.2938 88.7938L62.405 90.5715C62.9645 90.8513 63.6231 90.8513 64.1827 90.5715L63.2938 88.7938ZM63.2938 86.536C63.7339 86.2885 64.3174 85.9484 65.0009 85.5212C66.5946 84.5251 68.7112 83.069 70.8184 81.2252C75.1163 77.4645 78.973 72.4482 78.973 66.7105V52.6295L63.2938 46.7498L47.6146 52.6295V66.7105C47.6146 72.4482 51.4713 77.4645 55.7693 81.2252C57.8765 83.069 59.993 84.5251 61.5868 85.5212C62.2702 85.9484 62.8537 86.2885 63.2938 86.536Z" fill="#59607C" fill-opacity="0.9"/>
<path fill-rule="evenodd" clip-rule="evenodd" d="M71.324 60.8885C72.1002 61.6647 72.1002 62.9231 71.324 63.6993L62.4907 72.5326C61.7145 73.3088 60.4561 73.3088 59.6799 72.5326L55.2633 68.1159C54.4871 67.3398 54.4871 66.0814 55.2633 65.3052C56.0394 64.529 57.2979 64.529 58.074 65.3052L61.0853 68.3165L68.5133 60.8885C69.2894 60.1124 70.5479 60.1124 71.324 60.8885Z" fill="#59607C" fill-opacity="0.9"/>
</svg>
