<svg width="128" height="128" viewBox="0 0 128 128" fill="none" xmlns="http://www.w3.org/2000/svg">
<rect y="63.6396" width="90" height="90" rx="20" transform="rotate(-45 0 63.6396)" fill="#F4F8FB"/>
<path fill-rule="evenodd" clip-rule="evenodd" d="M56.3708 41.6993C59.2866 41.4699 62.2166 41.9041 64.9383 42.969C67.66 44.034 70.1019 45.7016 72.0785 47.8453C73.6803 49.5824 74.9423 51.5952 75.8058 53.7799H78.6588C81.448 53.8173 84.153 54.7353 86.3835 56.401C88.6139 58.0667 90.2542 60.3941 91.0677 63.0473C91.8812 65.7004 91.8257 68.5419 90.9092 71.1616C89.9927 73.7813 88.2627 76.0437 85.9689 77.622C84.973 78.3073 83.6068 78.06 82.9176 77.0697C82.2284 76.0793 82.4771 74.7209 83.4731 74.0356C85.0023 72.9834 86.1556 71.4752 86.7666 69.7287C87.3776 67.9822 87.4146 66.0879 86.8723 64.3191C86.33 62.5504 85.2364 60.9988 83.7494 59.8883C82.2662 58.7806 80.4682 58.169 78.6137 58.1412H74.2432C73.2721 58.1412 72.4166 57.5062 72.1406 56.5803C71.4987 54.4273 70.3719 52.4479 68.8456 50.7927C67.3194 49.1374 65.4338 47.8497 63.3323 47.0274C61.2307 46.2052 58.9683 45.8699 56.7169 46.047C54.4655 46.2242 52.2843 46.9092 50.339 48.05C48.3937 49.1908 46.7353 50.7573 45.4899 52.6307C44.2445 54.5041 43.4449 56.635 43.1516 58.8617C42.8583 61.0884 43.0792 63.3522 43.7974 65.4813C44.5156 67.6104 45.7123 69.5488 47.2966 71.1492C48.1463 72.0075 48.1353 73.3882 47.2721 74.233C46.409 75.0779 45.0204 75.067 44.1708 74.2087C42.119 72.136 40.5692 69.6257 39.639 66.8683C38.7089 64.111 38.4228 61.1791 38.8026 58.2954C39.1825 55.4116 40.2181 52.6519 41.831 50.2257C43.4439 47.7995 45.5916 45.7707 48.1109 44.2933C50.6303 42.8159 53.4551 41.9288 56.3708 41.6993Z" fill="#59607C" fill-opacity="0.9"/>
<path fill-rule="evenodd" clip-rule="evenodd" d="M65.2274 72.679C62.4013 72.679 60.1103 74.957 60.1103 77.7672C60.1103 80.5773 62.4013 82.8554 65.2274 82.8554C68.0534 82.8554 70.3444 80.5773 70.3444 77.7672C70.3444 74.957 68.0534 72.679 65.2274 72.679ZM55.7242 77.7672C55.7242 72.5483 59.9789 68.3176 65.2274 68.3176C70.4758 68.3176 74.7305 72.5483 74.7305 77.7672C74.7305 82.986 70.4758 87.2167 65.2274 87.2167C59.9789 87.2167 55.7242 82.986 55.7242 77.7672Z" fill="#59607C" fill-opacity="0.9"/>
<path fill-rule="evenodd" clip-rule="evenodd" d="M65.2274 65.8947C66.4385 65.8947 67.4204 66.871 67.4204 68.0753V70.4983C67.4204 71.7026 66.4385 72.679 65.2274 72.679C64.0162 72.679 63.0343 71.7026 63.0343 70.4983V68.0753C63.0343 66.871 64.0162 65.8947 65.2274 65.8947Z" fill="#59607C" fill-opacity="0.9"/>
<path fill-rule="evenodd" clip-rule="evenodd" d="M65.2274 82.8554C66.4385 82.8554 67.4204 83.8317 67.4204 85.036V87.459C67.4204 88.6633 66.4385 89.6396 65.2274 89.6396C64.0162 89.6396 63.0343 88.6633 63.0343 87.459V85.036C63.0343 83.8317 64.0162 82.8554 65.2274 82.8554Z" fill="#59607C" fill-opacity="0.9"/>
<path fill-rule="evenodd" clip-rule="evenodd" d="M70.3444 77.7672C70.3444 76.5628 71.3263 75.5865 72.5375 75.5865H74.9742C76.1854 75.5865 77.1672 76.5628 77.1672 77.7672C77.1672 78.9715 76.1854 79.9478 74.9742 79.9478H72.5375C71.3263 79.9478 70.3444 78.9715 70.3444 77.7672Z" fill="#59607C" fill-opacity="0.9"/>
<path fill-rule="evenodd" clip-rule="evenodd" d="M53.2875 77.7672C53.2875 76.5628 54.2693 75.5865 55.4805 75.5865H57.9172C59.1284 75.5865 60.1103 76.5628 60.1103 77.7672C60.1103 78.9715 59.1284 79.9478 57.9172 79.9478H55.4805C54.2693 79.9478 53.2875 78.9715 53.2875 77.7672Z" fill="#59607C" fill-opacity="0.9"/>
<path fill-rule="evenodd" clip-rule="evenodd" d="M74.0882 68.9563C74.9446 69.8079 74.9446 71.1887 74.0882 72.0403L71.9439 74.1725C71.0874 75.0241 69.6989 75.0241 68.8425 74.1725C67.986 73.3209 67.986 71.9401 68.8425 71.0885L70.9868 68.9563C71.8432 68.1047 73.2317 68.1047 74.0882 68.9563Z" fill="#59607C" fill-opacity="0.9"/>
<path fill-rule="evenodd" clip-rule="evenodd" d="M61.6123 81.3619C62.4687 82.2135 62.4687 83.5942 61.6122 84.4458L59.4679 86.578C58.6115 87.4296 57.223 87.4296 56.3665 86.578C55.5101 85.7264 55.5101 84.3457 56.3665 83.4941L58.5108 81.3619C59.3673 80.5103 60.7558 80.5103 61.6123 81.3619Z" fill="#59607C" fill-opacity="0.9"/>
<path fill-rule="evenodd" clip-rule="evenodd" d="M68.8425 81.3619C69.6989 80.5103 71.0874 80.5103 71.9439 81.3619L74.0882 83.4941C74.9446 84.3457 74.9446 85.7264 74.0882 86.578C73.2317 87.4296 71.8432 87.4296 70.9868 86.578L68.8425 84.4458C67.986 83.5942 67.986 82.2135 68.8425 81.3619Z" fill="#59607C" fill-opacity="0.9"/>
<path fill-rule="evenodd" clip-rule="evenodd" d="M56.3665 68.9563C57.223 68.1047 58.6115 68.1047 59.4679 68.9563L61.6122 71.0885C62.4687 71.9401 62.4687 73.3209 61.6122 74.1725C60.7558 75.0241 59.3673 75.0241 58.5108 74.1725L56.3665 72.0403C55.5101 71.1887 55.5101 69.8079 56.3665 68.9563Z" fill="#59607C" fill-opacity="0.9"/>
</svg>
