<svg width="128" height="128" viewBox="0 0 128 128" fill="none" xmlns="http://www.w3.org/2000/svg">
<rect x="63.6396" width="90" height="90" rx="20" transform="rotate(45 63.6396 0)" fill="#F4F8FB"/>
<path fill-rule="evenodd" clip-rule="evenodd" d="M77.0539 50.2254C77.8349 51.0065 77.8349 52.2728 77.0539 53.0539L55.0539 75.0539C54.2728 75.8349 53.0065 75.8349 52.2254 75.0539L42.2254 65.0539C41.4444 64.2728 41.4444 63.0065 42.2254 62.2254C43.0065 61.4444 44.2728 61.4444 45.0539 62.2254L53.6396 70.8112L74.2254 50.2254C75.0065 49.4444 76.2728 49.4444 77.0539 50.2254Z" fill="#696E87"/>
<path fill-rule="evenodd" clip-rule="evenodd" d="M85.0539 58.2254C85.8349 59.0065 85.8349 60.2728 85.0539 61.0539L70.0539 76.0539C69.2728 76.8349 68.0065 76.8349 67.2254 76.0539L64.2254 73.0539C63.4444 72.2728 63.4444 71.0065 64.2254 70.2254C65.0065 69.4444 66.2728 69.4444 67.0539 70.2254L68.6396 71.8112L82.2254 58.2254C83.0065 57.4444 84.2728 57.4444 85.0539 58.2254Z" fill="#696E87"/>
</svg>
