<?xml version="1.0" encoding="UTF-8"?>
<svg width="200px" height="200px" viewBox="0 0 200 200" version="1.1" xmlns="http://www.w3.org/2000/svg" xmlns:xlink="http://www.w3.org/1999/xlink">
    <!-- Generator: Sketch 51.2 (57519) - http://www.bohemiancoding.com/sketch -->
    <title>fbase-logo</title>
    <desc>Created with Sketch.</desc>
    <defs></defs>
    <g id="fbase-logo" stroke="none" stroke-width="1" fill="none" fill-rule="evenodd">
        <g id="Group-5" transform="translate(51.000000, 19.000000)" fill="#EA4A35" fill-rule="nonzero">
            <g id="fhirbase">
                <path d="M98.3899963,63.2576813 C97.9061625,59.9810832 97.2250883,56.6702273 96.1037678,53.5693388 C94.628288,49.4937593 92.7790355,45.5353194 90.8208117,41.6652869 C89.4760994,39.0042252 87.7728699,36.5067172 86.046755,34.0699891 C84.355512,31.6796748 82.5117072,29.387714 80.5927138,27.1808449 C78.813203,25.1364246 76.8419022,23.2632935 74.8793198,21.2343445 C75.3925778,23.5583532 75.9526927,25.6690791 76.305761,27.8129576 C76.8277374,30.984572 76.7035087,34.1517659 75.6312256,37.2128709 C75.0035465,39.0064353 74.1045301,40.6530226 72.6148855,42.0001299 C71.2254937,36.6150161 69.4165601,31.5293824 67.0584098,26.6515059 C64.8364735,22.0554279 62.2200588,17.6969447 58.9596228,13.7882339 C57.1485091,11.6156229 55.0987491,9.64966411 53.127448,7.61960991 C52.5172054,6.98639215 51.838311,6.41284939 51.1441599,5.87245934 C48.1670501,3.54292522 44.9545597,1.59906825 41.5437412,0 L40.8768317,0 C40.8790115,3.03900323 41.0958658,6.10010831 40.8201668,9.11148424 C40.5553649,12.0112459 39.991982,14.9253738 39.1888589,17.7223618 C37.1074957,24.9883422 33.7729583,31.6973564 29.6527322,37.9786997 C26.9088212,42.1592632 23.9480559,46.1961645 21.0646596,50.2805849 C20.6211438,50.9093823 20.0599387,51.4519825 19.417005,52.1901839 C19.1467556,45.4734343 18.2117764,39.2031418 14.6985244,33.3583097 C14.6200646,33.8268688 14.5710272,34.0987215 14.529618,34.3705741 C14.3454555,35.6403249 14.243022,36.9299673 13.9640541,38.1798264 C12.9974738,42.530574 11.1569392,46.5520042 9.30114843,50.5623833 C7.30260479,54.8810832 5.01855468,59.0859587 3.31968344,63.5217983 C0.989865262,69.6064349 -0.153249403,75.9518744 0.545260211,82.5647452 C0.896149572,85.8954929 1.74286073,89.0461101 3.12680334,92.0442248 C5.58738786,97.3729791 9.42864549,101.617638 13.8191215,105.344008 C17.9589614,108.857096 22.4540515,111.877313 27.1812505,114.532849 C27.4711162,114.696403 27.7577122,114.866587 28.2916738,115.177118 C28.0323213,114.484225 27.9048229,114.081972 27.7370061,113.6974 C25.390843,108.385222 23.7290218,102.944853 24.2400994,97.0005631 C24.4504163,94.5594147 24.9887355,92.2232498 25.8507032,89.9611265 C27.3730411,85.9617978 29.8783037,82.5172262 32.0555602,78.8847882 C34.3112775,75.1175295 36.1420053,71.149144 37.3526835,66.9000648 C37.5335771,66.2690571 37.7929296,65.6601513 37.9847201,65.031354 C38.1699713,64.4213432 38.3149041,63.8002815 38.5491929,62.9106823 C41.5622655,68.259328 42.4035292,73.6477567 41.5372018,79.4572265 C43.1227419,77.4260666 44.663604,75.4147993 45.820885,73.1979844 C49.9378414,65.3175729 51.617099,56.8868253 50.8782701,47.8184398 C61.1663025,55.7563161 67.7046132,66.0425134 70.8353754,78.5455253 C73.9606875,91.0297502 73.1390401,103.214496 67.4561577,115.061083 C67.8157651,114.939523 67.9988365,114.914106 68.1415895,114.823488 C72.0406036,112.364659 75.9189121,109.890357 79.5367772,106.979545 C83.003171,104.186977 86.1491896,101.083878 88.9693797,97.6768795 C92.1197554,93.8720471 94.6119436,89.6063918 96.3293393,84.9152761 C97.8124471,80.8617983 98.8171661,76.6922858 98.8574864,72.3647455 C98.8879976,69.326847 98.8324228,66.2513757 98.3899963,63.2576813 Z M86.0195132,127.798375 C84.2759634,123.211137 82.2588946,121.589967 77.1829853,121.509295 C65.7616455,121.588862 54.339216,121.487193 42.9156967,121.509295 C39.8492289,121.514821 36.9799993,122.120411 36.1267487,125.630184 C34.7831267,131.151224 33.5659111,136.716468 32.6145874,142.319285 C32.134021,145.154951 32.9872696,146.900996 36.6923134,146.88 C54.5353642,146.7717 72.3773254,146.76065 90.2192881,146.88 C93.1898603,146.525265 92.8389703,145.126218 92.039117,142.927085 C90.1931347,137.855818 87.9799152,132.951419 86.0195132,127.798375 Z M85.5792649,151.841863 C73.5749264,151.841863 45.9571007,151.861754 35.7518868,151.841863 C34.6599878,151.839653 34.6109503,153.352524 34.8288945,153.866392 C38.1318307,161.690443 38.6657943,161.810899 47.3432229,161.837421 C55.067148,161.858418 62.7888933,161.879414 70.5128184,161.837421 C73.1662813,161.821949 74.2451039,161.703705 76.4354367,160.354387 C79.8582443,158.248082 82.9606725,156.652329 86.3279033,154.103986 C87.6050535,153.137031 88.1161312,151.841863 85.5792649,151.841863 Z M26.547034,151.904854 C20.4108289,151.904854 15.4449815,151.910379 9.47542704,151.904854 C9.45152958,155.191397 20.6985148,160.349967 22.172903,160.87157 C25.5695568,162.0717 28.9989016,161.821949 33.1191257,161.373282 C32.0490228,157.947497 31.1783378,151.904854 26.547034,151.904854 Z M23.2669817,147.180585 C24.7424598,147.067865 26.8303603,147.150747 27.7620698,143.980238 C29.3051118,138.73105 30.8503315,132.560216 31.7547995,127.722123 C32.861953,121.797724 32.0119721,121.808775 28.8964668,121.808775 C27.1387503,121.808775 25.0780934,121.839718 23.0217939,121.808775 C18.4253611,121.740259 13.8125832,121.791094 12.3469119,124.042166 C8.19399455,130.416338 0.972429847,143.933824 7.5063821,146.246782 C10.5543247,147.455753 22.2012364,147.261256 23.2669817,147.180585 Z"></path>
            </g>
        </g>
    </g>
</svg>