<?xml version="1.0" encoding="UTF-8"?>
<svg width="200px" height="200px" viewBox="0 0 200 200" version="1.1" xmlns="http://www.w3.org/2000/svg" xmlns:xlink="http://www.w3.org/1999/xlink">
    <!-- Generator: Sketch 51.2 (57519) - http://www.bohemiancoding.com/sketch -->
    <title>meetupeu</title>
    <desc>Created with Sketch.</desc>
    <defs></defs>
    <g id="meetupeu" stroke="none" stroke-width="1" fill="none" fill-rule="evenodd">
        <g id="Group-14" transform="translate(40.000000, 7.000000)" fill="#EA4A35" fill-rule="nonzero">
            <g id="Group-13">
                <g id="Group-Copy">
                    <path d="M69.2799551,0 C69.2799551,0 88.4546198,31.028315 85.2749015,61.573323 C81.9024731,92.3116533 61.2824822,106.230898 51.0688414,129.719622 C40.951556,153.305008 46.8292171,177.760346 55.3084658,184.14 C44.1312743,176.117103 14.7429692,161.134582 16.8627814,121.503402 C17.9226874,109.227401 25.4383852,87.1885981 43.5531437,65.826425 C61.7642576,44.464252 73.5195793,35.8613858 69.2799551,0 Z" id="Shape"></path>
                    <path d="M28.9496874,169.26 C28.9496874,169.26 1.18073132,150.043466 0.105173158,120.784121 C-0.970385002,107.940911 6.16741007,88.3381148 23.1807846,73.3704632 C42.7363875,56.1818051 48.1141783,52.7054473 52.1230769,48.36 C40.8786052,61.5894728 16.3363236,87.2758944 12.327425,109.389393 C8.4163044,131.502892 16.3363236,154.292348 28.9496874,169.26 Z" id="Shape"></path>
                    <path d="M63.1780372,186 C63.1780372,186 46.0635095,161.015675 58.5368091,134.005595 C62.7912683,125.806107 77.7785659,107.96016 84.933792,91.657648 C92.0890186,75.2586707 93.539402,65.3228196 93.1526331,53.94 C104.175549,69.2778668 122.063615,114.90561 101.758243,150.115179 C108.139931,146.160131 117.422387,137.285391 121,127.638933 C119.259539,147.221242 110.363853,183.87778 63.1780372,186 Z" id="Shape"></path>
                    <path d="M64.0941128,182.28 C64.0941128,182.28 52.9922229,162.91299 65.5678153,143.641856 C75.6872371,128.109897 86.2978929,124.850103 92.3891955,107.88 C93.4699103,125.617114 92.7821827,148.915052 77.1609391,168.761443 C83.6452288,167.706804 87.6733481,165.597526 93.0769231,162.050103 C89.441791,169.62433 82.5645141,179.116083 64.0941128,182.28 Z" id="Shape"></path>
                    <path d="M46.7561698,174.84 C46.7561698,174.84 15.7538717,139.480255 37.5523625,103.146412 C52.5691007,76.8457747 71.9455367,75.2872185 76.2083531,37.2 C76.2083531,64.6695539 79.1148185,78.1121018 55.6693305,108.698768 C40.2650636,128.76518 36.7773051,155.747686 46.7561698,174.84 Z" id="Shape"></path>
                    <path d="M86.0820921,3.72 C86.0820921,3.72 94.8568111,28.9456717 68.6301497,65.2861027 C49.5207609,91.5749257 11.8869642,130.718209 51.860686,178.56 C35.6762035,161.936186 19.9792054,133.037811 37.4311474,98.8236818 C53.4206362,67.6057047 92.0294014,47.5024876 86.0820921,3.72 Z" id="Shape"></path>
                </g>
            </g>
        </g>
        <rect id="Rectangle-9" stroke="#EA4A35" stroke-width="6" fill="#FFFFFF" fill-rule="nonzero" x="11" y="117" width="178" height="51" rx="8"></rect>
        <text id="MEETUP" font-family="GothamPro-Medium, Gotham Pro" font-size="37" font-weight="400" fill="#EA4A35">
            <tspan x="21" y="155">MEETUP</tspan>
        </text>
        <text id="Eastern-Europe" stroke="#FFFFFF" stroke-width="2" font-family="GothamPro-Black, Gotham Pro" font-size="22" font-weight="700" fill="#EA4A35">
            <tspan x="14" y="105">Eastern Europe</tspan>
        </text>
    </g>
</svg>