<svg width="554" height="412" viewBox="0 0 554 412" fill="none" xmlns="http://www.w3.org/2000/svg">
<g filter="url(#filter0_d_1394_143399)">
<mask id="path-1-outside-1_1394_143399" maskUnits="userSpaceOnUse" x="6" y="6" width="244" height="224" fill="black">
<rect fill="white" x="6" y="6" width="244" height="224"/>
<path d="M8 12C8 9.79086 9.79086 8 12 8H244C246.209 8 248 9.79086 248 12V224C248 226.209 246.209 228 244 228H12C9.79086 228 8 226.209 8 224V12Z"/>
</mask>
<path d="M8 12C8 9.79086 9.79086 8 12 8H244C246.209 8 248 9.79086 248 12V224C248 226.209 246.209 228 244 228H12C9.79086 228 8 226.209 8 224V12Z" fill="#FCF6F5"/>
<path d="M12 8V10H244V8V6H12V8ZM248 12H246V224H248H250V12H248ZM244 228V226H12V228V230H244V228ZM8 224H10V12H8H6V224H8ZM12 228V226C10.8954 226 10 225.105 10 224H8H6C6 227.314 8.68629 230 12 230V228ZM248 224H246C246 225.105 245.105 226 244 226V228V230C247.314 230 250 227.314 250 224H248ZM244 8V10C245.105 10 246 10.8954 246 12H248H250C250 8.68629 247.314 6 244 6V8ZM12 8V6C8.68629 6 6 8.68629 6 12H8H10C10 10.8954 10.8954 10 12 10V8Z" fill="#EA4A35" mask="url(#path-1-outside-1_1394_143399)"/>
<path d="M105.986 105.619H104.239L108.164 94.71H110.066L113.992 105.619H112.245L109.161 96.6916H109.075L105.986 105.619ZM106.279 101.347H111.946V102.732H106.279V101.347ZM115.213 105.619V97.4373H116.805V105.619H115.213ZM116.017 96.1749C115.74 96.1749 115.502 96.0826 115.303 95.8979C115.108 95.7097 115.01 95.486 115.01 95.2267C115.01 94.964 115.108 94.7402 115.303 94.5556C115.502 94.3674 115.74 94.2733 116.017 94.2733C116.294 94.2733 116.53 94.3674 116.725 94.5556C116.924 94.7402 117.024 94.964 117.024 95.2267C117.024 95.486 116.924 95.7097 116.725 95.8979C116.53 96.0826 116.294 96.1749 116.017 96.1749ZM121.711 105.779C121.05 105.779 120.461 105.61 119.942 105.273C119.427 104.932 119.023 104.447 118.728 103.819C118.437 103.187 118.291 102.428 118.291 101.544C118.291 100.66 118.438 99.9036 118.733 99.275C119.032 98.6465 119.44 98.1653 119.958 97.8315C120.477 97.4977 121.065 97.3308 121.722 97.3308C122.229 97.3308 122.638 97.416 122.947 97.5865C123.259 97.7534 123.501 97.9487 123.671 98.1724C123.845 98.3961 123.98 98.5932 124.076 98.7637H124.172V94.71H125.764V105.619H124.209V104.346H124.076C123.98 104.52 123.842 104.719 123.66 104.943C123.483 105.166 123.238 105.362 122.925 105.529C122.613 105.695 122.208 105.779 121.711 105.779ZM122.062 104.421C122.521 104.421 122.908 104.3 123.224 104.058C123.543 103.813 123.785 103.474 123.948 103.041C124.115 102.608 124.198 102.104 124.198 101.528C124.198 100.96 124.117 100.463 123.953 100.037C123.79 99.6106 123.55 99.2786 123.234 99.0407C122.918 98.8027 122.528 98.6838 122.062 98.6838C121.583 98.6838 121.184 98.8081 120.864 99.0566C120.544 99.3052 120.303 99.6444 120.139 100.074C119.98 100.504 119.9 100.988 119.9 101.528C119.9 102.075 119.981 102.567 120.145 103.004C120.308 103.441 120.55 103.787 120.869 104.042C121.192 104.295 121.59 104.421 122.062 104.421ZM127.866 105.619V94.71H129.458V98.7637H129.554C129.646 98.5932 129.78 98.3961 129.954 98.1724C130.128 97.9487 130.369 97.7534 130.678 97.5865C130.987 97.416 131.395 97.3308 131.903 97.3308C132.564 97.3308 133.153 97.4977 133.672 97.8315C134.19 98.1653 134.597 98.6465 134.891 99.275C135.19 99.9036 135.339 100.66 135.339 101.544C135.339 102.428 135.191 103.187 134.897 103.819C134.602 104.447 134.197 104.932 133.682 105.273C133.167 105.61 132.58 105.779 131.919 105.779C131.422 105.779 131.015 105.695 130.699 105.529C130.387 105.362 130.142 105.166 129.964 104.943C129.787 104.719 129.65 104.52 129.554 104.346H129.421V105.619H127.866ZM129.426 101.528C129.426 102.104 129.51 102.608 129.677 103.041C129.843 103.474 130.085 103.813 130.401 104.058C130.717 104.3 131.104 104.421 131.562 104.421C132.038 104.421 132.436 104.295 132.755 104.042C133.075 103.787 133.316 103.441 133.48 103.004C133.647 102.567 133.73 102.075 133.73 101.528C133.73 100.988 133.649 100.504 133.485 100.074C133.325 99.6444 133.084 99.3052 132.761 99.0566C132.441 98.8081 132.042 98.6838 131.562 98.6838C131.101 98.6838 130.71 98.8027 130.39 99.0407C130.074 99.2786 129.835 99.6106 129.671 100.037C129.508 100.463 129.426 100.96 129.426 101.528ZM140.274 105.784C139.507 105.784 138.837 105.608 138.266 105.257C137.694 104.905 137.25 104.414 136.934 103.781C136.618 103.149 136.46 102.411 136.46 101.566C136.46 100.717 136.618 99.9746 136.934 99.339C137.25 98.7033 137.694 98.2097 138.266 97.8581C138.837 97.5066 139.507 97.3308 140.274 97.3308C141.041 97.3308 141.71 97.5066 142.282 97.8581C142.854 98.2097 143.297 98.7033 143.614 99.339C143.93 99.9746 144.088 100.717 144.088 101.566C144.088 102.411 143.93 103.149 143.614 103.781C143.297 104.414 142.854 104.905 142.282 105.257C141.71 105.608 141.041 105.784 140.274 105.784ZM140.279 104.447C140.776 104.447 141.188 104.316 141.515 104.053C141.842 103.79 142.083 103.441 142.239 103.004C142.399 102.567 142.479 102.086 142.479 101.56C142.479 101.038 142.399 100.559 142.239 100.122C142.083 99.6816 141.842 99.3283 141.515 99.062C141.188 98.7956 140.776 98.6625 140.279 98.6625C139.778 98.6625 139.363 98.7956 139.033 99.062C138.706 99.3283 138.463 99.6816 138.303 100.122C138.147 100.559 138.068 101.038 138.068 101.56C138.068 102.086 138.147 102.567 138.303 103.004C138.463 103.441 138.706 103.79 139.033 104.053C139.363 104.316 139.778 104.447 140.279 104.447ZM146.5 97.4373L148.306 100.623L150.128 97.4373H151.87L149.318 101.528L151.891 105.619H150.149L148.306 102.562L146.468 105.619H144.721L147.267 101.528L144.753 97.4373H146.5Z" fill="#363636"/>
<path d="M140.463 132.779C139.878 132.373 138.536 132.22 137.487 132.424C137.365 131.408 136.804 130.519 135.828 129.732L135.267 129.326L134.877 129.91C134.389 130.672 134.145 131.738 134.218 132.754C134.243 133.109 134.365 133.744 134.731 134.302C134.389 134.506 133.682 134.759 132.755 134.759H115.117L115.068 134.963C114.898 135.978 114.898 139.152 116.898 141.589C118.411 143.443 120.655 144.382 123.607 144.382C129.998 144.382 134.731 141.31 136.95 135.75C137.829 135.775 139.707 135.75 140.658 133.845C140.683 133.795 140.732 133.693 140.902 133.312L141 133.109L140.463 132.779ZM129.217 125.619H126.534V128.158H129.217V125.619ZM129.217 128.666H126.534V131.205H129.217V128.666ZM126.046 128.666H123.363V131.205H126.046V128.666ZM122.875 128.666H120.191V131.205H122.875V128.666ZM119.703 131.713H117.02V134.252H119.703V131.713ZM122.875 131.713H120.191V134.252H122.875V131.713ZM126.046 131.713H123.363V134.252H126.046V131.713ZM129.217 131.713H126.534V134.252H129.217V131.713ZM132.389 131.713H129.705V134.252H132.389V131.713Z" fill="#1078E7"/>
</g>
<g filter="url(#filter1_d_1394_143399)">
<mask id="path-5-outside-2_1394_143399" maskUnits="userSpaceOnUse" x="304" y="6" width="244" height="224" fill="black">
<rect fill="white" x="304" y="6" width="244" height="224"/>
<path d="M306 12C306 9.79086 307.791 8 310 8H542C544.209 8 546 9.79086 546 12V224C546 226.209 544.209 228 542 228H310C307.791 228 306 226.209 306 224V12Z"/>
</mask>
<path d="M306 12C306 9.79086 307.791 8 310 8H542C544.209 8 546 9.79086 546 12V224C546 226.209 544.209 228 542 228H310C307.791 228 306 226.209 306 224V12Z" fill="#FCF6F5"/>
<path d="M310 8V10H542V8V6H310V8ZM546 12H544V224H546H548V12H546ZM542 228V226H310V228V230H542V228ZM306 224H308V12H306H304V224H306ZM310 228V226C308.895 226 308 225.105 308 224H306H304C304 227.314 306.686 230 310 230V228ZM546 224H544C544 225.105 543.105 226 542 226V228V230C545.314 230 548 227.314 548 224H546ZM542 8V10C543.105 10 544 10.8954 544 12H546H548C548 8.68629 545.314 6 542 6V8ZM310 8V6C306.686 6 304 8.68629 304 12H306H308C308 10.8954 308.895 10 310 10V8Z" fill="#EA4A35" mask="url(#path-5-outside-2_1394_143399)"/>
<path d="M385.929 102.631V91.7218H389.817C390.666 91.7218 391.369 91.8762 391.927 92.1852C392.484 92.4941 392.902 92.9167 393.179 93.4529C393.456 93.9856 393.594 94.5858 393.594 95.2534C393.594 95.9245 393.454 96.5282 393.173 97.0645C392.896 97.5971 392.477 98.0197 391.916 98.3322C391.359 98.6412 390.657 98.7956 389.812 98.7956H387.138V97.4H389.663C390.199 97.4 390.634 97.3077 390.968 97.123C391.302 96.9348 391.547 96.6792 391.703 96.356C391.859 96.0328 391.937 95.6653 391.937 95.2534C391.937 94.8414 391.859 94.4757 391.703 94.1561C391.547 93.8365 391.3 93.5861 390.963 93.405C390.629 93.2239 390.188 93.1333 389.642 93.1333H387.575V102.631H385.929ZM398.44 102.796C397.673 102.796 397.003 102.62 396.431 102.269C395.86 101.917 395.416 101.425 395.1 100.793C394.784 100.161 394.626 99.4224 394.626 98.5772C394.626 97.7285 394.784 96.9863 395.1 96.3507C395.416 95.715 395.86 95.2214 396.431 94.8699C397.003 94.5183 397.673 94.3425 398.44 94.3425C399.207 94.3425 399.876 94.5183 400.448 94.8699C401.02 95.2214 401.463 95.715 401.779 96.3507C402.095 96.9863 402.254 97.7285 402.254 98.5772C402.254 99.4224 402.095 100.161 401.779 100.793C401.463 101.425 401.02 101.917 400.448 102.269C399.876 102.62 399.207 102.796 398.44 102.796ZM398.445 101.459C398.942 101.459 399.354 101.328 399.681 101.065C400.007 100.802 400.249 100.452 400.405 100.015C400.565 99.5787 400.645 99.0975 400.645 98.5719C400.645 98.0499 400.565 97.5705 400.405 97.1337C400.249 96.6934 400.007 96.34 399.681 96.0737C399.354 95.8074 398.942 95.6742 398.445 95.6742C397.944 95.6742 397.529 95.8074 397.198 96.0737C396.872 96.34 396.629 96.6934 396.469 97.1337C396.312 97.5705 396.234 98.0499 396.234 98.5719C396.234 99.0975 396.312 99.5787 396.469 100.015C396.629 100.452 396.872 100.802 397.198 101.065C397.529 101.328 397.944 101.459 398.445 101.459ZM409.862 96.4466L408.419 96.7022C408.358 96.5176 408.263 96.3418 408.131 96.1749C408.003 96.008 407.829 95.8713 407.609 95.7647C407.389 95.6582 407.114 95.6049 406.784 95.6049C406.333 95.6049 405.956 95.7061 405.654 95.9086C405.352 96.1074 405.201 96.3649 405.201 96.6809C405.201 96.9544 405.303 97.1745 405.505 97.3414C405.708 97.5083 406.034 97.6451 406.485 97.7516L407.785 98.0499C408.538 98.2239 409.099 98.492 409.468 98.8542C409.837 99.2164 410.022 99.687 410.022 100.266C410.022 100.756 409.88 101.193 409.596 101.576C409.315 101.956 408.923 102.254 408.419 102.471C407.918 102.688 407.337 102.796 406.677 102.796C405.761 102.796 405.013 102.601 404.434 102.21C403.856 101.816 403.5 101.257 403.369 100.532L404.909 100.298C405.004 100.699 405.201 101.003 405.5 101.209C405.798 101.411 406.187 101.512 406.666 101.512C407.188 101.512 407.606 101.404 407.918 101.187C408.231 100.967 408.387 100.699 408.387 100.383C408.387 100.127 408.291 99.9125 408.099 99.7385C407.911 99.5645 407.622 99.4331 407.231 99.3443L405.846 99.0407C405.083 98.8667 404.518 98.5897 404.152 98.2097C403.79 97.8297 403.609 97.3485 403.609 96.7662C403.609 96.2832 403.744 95.8606 404.014 95.4984C404.284 95.1362 404.656 94.8539 405.132 94.6515C405.608 94.4455 406.153 94.3425 406.768 94.3425C407.652 94.3425 408.348 94.5343 408.856 94.9178C409.363 95.2978 409.699 95.8074 409.862 96.4466ZM415.293 94.449V95.7275H410.823V94.449H415.293ZM412.022 92.4888H413.615V100.229C413.615 100.537 413.661 100.77 413.753 100.926C413.845 101.079 413.964 101.184 414.11 101.241C414.259 101.294 414.421 101.32 414.595 101.32C414.723 101.32 414.834 101.312 414.93 101.294C415.026 101.276 415.101 101.262 415.154 101.251L415.442 102.567C415.349 102.602 415.218 102.638 415.048 102.673C414.877 102.713 414.664 102.734 414.408 102.737C413.989 102.744 413.599 102.67 413.236 102.514C412.874 102.357 412.581 102.116 412.358 101.789C412.134 101.463 412.022 101.052 412.022 100.559V92.4888ZM420.097 105.869C419.447 105.869 418.888 105.784 418.419 105.614C417.954 105.443 417.574 105.218 417.279 104.937C416.984 104.657 416.764 104.35 416.619 104.016L417.987 103.451C418.083 103.607 418.211 103.773 418.371 103.947C418.534 104.124 418.755 104.275 419.032 104.399C419.312 104.524 419.673 104.586 420.113 104.586C420.717 104.586 421.215 104.438 421.61 104.144C422.004 103.852 422.201 103.387 422.201 102.748V101.139H422.1C422.004 101.313 421.865 101.507 421.684 101.72C421.507 101.933 421.262 102.118 420.949 102.274C420.637 102.43 420.23 102.508 419.729 102.508C419.083 102.508 418.501 102.357 417.982 102.056C417.467 101.75 417.059 101.301 416.757 100.708C416.459 100.111 416.31 99.378 416.31 98.508C416.31 97.638 416.457 96.8922 416.752 96.2708C417.05 95.6493 417.458 95.1735 417.977 94.8432C418.495 94.5094 419.083 94.3425 419.74 94.3425C420.248 94.3425 420.658 94.4277 420.97 94.5982C421.283 94.7651 421.526 94.9604 421.7 95.1841C421.878 95.4078 422.014 95.6049 422.11 95.7754H422.228V94.449H423.788V102.812C423.788 103.515 423.625 104.092 423.298 104.543C422.972 104.994 422.529 105.328 421.972 105.545C421.418 105.761 420.793 105.869 420.097 105.869ZM420.081 101.187C420.539 101.187 420.926 101.081 421.242 100.868C421.562 100.651 421.803 100.342 421.967 99.9409C422.133 99.536 422.217 99.0513 422.217 98.4867C422.217 97.9363 422.135 97.4515 421.972 97.0325C421.809 96.6135 421.569 96.2868 421.253 96.0524C420.937 95.8145 420.546 95.6955 420.081 95.6955C419.601 95.6955 419.202 95.8198 418.882 96.0684C418.563 96.3134 418.321 96.6472 418.158 97.0698C417.998 97.4924 417.918 97.9647 417.918 98.4867C417.918 99.0229 418 99.4934 418.163 99.8983C418.327 100.303 418.568 100.619 418.888 100.846C419.211 101.074 419.609 101.187 420.081 101.187ZM425.624 102.631V94.449H427.164V95.7488H427.249C427.398 95.3084 427.661 94.9622 428.037 94.71C428.417 94.4544 428.847 94.3265 429.326 94.3265C429.426 94.3265 429.543 94.3301 429.678 94.3372C429.816 94.3443 429.925 94.3532 430.003 94.3638V95.8873C429.939 95.8695 429.825 95.85 429.662 95.8287C429.499 95.8038 429.335 95.7914 429.172 95.7914C428.795 95.7914 428.46 95.8713 428.165 96.0311C427.874 96.1873 427.643 96.4057 427.473 96.6863C427.302 96.9632 427.217 97.2793 427.217 97.6344V102.631H425.624ZM434.314 102.796C433.508 102.796 432.814 102.624 432.232 102.279C431.653 101.931 431.205 101.443 430.889 100.814C430.577 100.182 430.421 99.4419 430.421 98.5932C430.421 97.7551 430.577 97.0165 430.889 96.3773C431.205 95.7381 431.646 95.2392 432.21 94.8805C432.779 94.5218 433.443 94.3425 434.203 94.3425C434.664 94.3425 435.112 94.4189 435.545 94.5716C435.978 94.7243 436.367 94.964 436.711 95.2907C437.056 95.6174 437.328 96.0417 437.526 96.5637C437.725 97.0822 437.825 97.7125 437.825 98.4547V99.0194H431.321V97.8262H436.264C436.264 97.4071 436.179 97.036 436.008 96.7129C435.838 96.3862 435.598 96.1287 435.289 95.9405C434.984 95.7523 434.625 95.6582 434.213 95.6582C433.766 95.6582 433.375 95.7683 433.041 95.9885C432.711 96.2051 432.455 96.4892 432.274 96.8407C432.097 97.1887 432.008 97.5669 432.008 97.9753V98.9075C432.008 99.4544 432.104 99.9196 432.296 100.303C432.491 100.687 432.763 100.98 433.111 101.182C433.459 101.381 433.865 101.48 434.33 101.48C434.632 101.48 434.907 101.438 435.156 101.352C435.405 101.264 435.619 101.132 435.801 100.958C435.982 100.784 436.12 100.569 436.216 100.314L437.724 100.585C437.603 101.029 437.386 101.418 437.074 101.752C436.765 102.082 436.376 102.34 435.907 102.524C435.442 102.705 434.911 102.796 434.314 102.796ZM445.37 94.5875C445.313 94.0833 445.078 93.6926 444.667 93.4157C444.255 93.1351 443.736 92.9949 443.111 92.9949C442.664 92.9949 442.277 93.0659 441.95 93.2079C441.623 93.3464 441.369 93.5382 441.188 93.7832C441.011 94.0247 440.922 94.2999 440.922 94.6088C440.922 94.8681 440.982 95.0918 441.103 95.28C441.227 95.4682 441.389 95.6262 441.588 95.7541C441.79 95.8784 442.007 95.9831 442.238 96.0684C442.468 96.15 442.69 96.2175 442.903 96.2708L443.969 96.5478C444.317 96.633 444.674 96.7484 445.039 96.894C445.405 97.0396 445.744 97.2314 446.057 97.4693C446.369 97.7072 446.621 98.002 446.813 98.3535C447.008 98.7051 447.106 99.1259 447.106 99.6159C447.106 100.234 446.946 100.782 446.627 101.262C446.311 101.741 445.851 102.119 445.247 102.396C444.647 102.673 443.921 102.812 443.068 102.812C442.252 102.812 441.545 102.682 440.948 102.423C440.352 102.164 439.885 101.796 439.548 101.32C439.21 100.841 439.024 100.273 438.988 99.6159H440.64C440.671 100.01 440.799 100.339 441.023 100.601C441.25 100.861 441.54 101.054 441.891 101.182C442.246 101.306 442.635 101.368 443.058 101.368C443.523 101.368 443.937 101.296 444.299 101.15C444.665 101.001 444.952 100.795 445.162 100.532C445.371 100.266 445.476 99.9551 445.476 99.6C445.476 99.2768 445.384 99.0123 445.199 98.8063C445.018 98.6003 444.771 98.4299 444.459 98.2949C444.15 98.16 443.8 98.041 443.409 97.938L442.12 97.5865C441.247 97.3485 440.554 96.9988 440.043 96.5371C439.535 96.0755 439.281 95.4647 439.281 94.7047C439.281 94.0762 439.452 93.5275 439.793 93.0588C440.133 92.59 440.595 92.226 441.178 91.9668C441.76 91.704 442.417 91.5726 443.148 91.5726C443.887 91.5726 444.539 91.7022 445.103 91.9615C445.671 92.2207 446.119 92.5776 446.446 93.0321C446.772 93.4831 446.943 94.0016 446.957 94.5875H445.37ZM452.784 99.0939H454.403L455.543 100.58L456.081 101.241L457.898 103.611H456.214L455 102.029L454.584 101.454L452.784 99.0939ZM458.249 97.1763C458.249 98.3411 458.036 99.3425 457.61 100.181C457.184 101.015 456.6 101.658 455.858 102.109C455.119 102.556 454.279 102.78 453.338 102.78C452.393 102.78 451.55 102.556 450.808 102.109C450.069 101.658 449.487 101.013 449.061 100.175C448.635 99.3372 448.421 98.3375 448.421 97.1763C448.421 96.0115 448.635 95.0119 449.061 94.1774C449.487 93.3393 450.069 92.6966 450.808 92.2491C451.55 91.7981 452.393 91.5726 453.338 91.5726C454.279 91.5726 455.119 91.7981 455.858 92.2491C456.6 92.6966 457.184 93.3393 457.61 94.1774C458.036 95.0119 458.249 96.0115 458.249 97.1763ZM456.619 97.1763C456.619 96.2885 456.475 95.541 456.188 94.9338C455.904 94.323 455.513 93.8613 455.016 93.5488C454.522 93.2328 453.963 93.0748 453.338 93.0748C452.709 93.0748 452.148 93.2328 451.655 93.5488C451.161 93.8613 450.771 94.323 450.483 94.9338C450.199 95.541 450.057 96.2885 450.057 97.1763C450.057 98.0641 450.199 98.8134 450.483 99.4242C450.771 100.031 451.161 100.493 451.655 100.809C452.148 101.122 452.709 101.278 453.338 101.278C453.963 101.278 454.522 101.122 455.016 100.809C455.513 100.493 455.904 100.031 456.188 99.4242C456.475 98.8134 456.619 98.0641 456.619 97.1763ZM460.001 102.631V91.7218H461.647V101.214H466.59V102.631H460.001Z" fill="#363636"/>
<g clip-path="url(#clip0_1394_143399)">
<path d="M431.957 140.641C432.114 139.33 432.067 139.138 433.043 139.35L433.291 139.372C434.042 139.406 435.024 139.251 435.601 138.983C436.843 138.407 437.58 137.444 436.355 137.697C433.561 138.274 433.369 137.328 433.369 137.328C436.319 132.95 437.553 127.394 436.488 126.034C433.585 122.324 428.559 124.078 428.475 124.124L428.448 124.129C427.896 124.014 427.278 123.946 426.584 123.935C425.32 123.914 424.361 124.266 423.633 124.818C423.633 124.818 414.667 121.124 415.084 129.463C415.173 131.237 417.627 142.886 420.554 139.368C421.624 138.081 422.658 136.993 422.658 136.993C423.171 137.334 423.786 137.508 424.43 137.446L424.48 137.403C424.465 137.563 424.471 137.719 424.5 137.904C423.746 138.747 423.968 138.895 422.46 139.205C420.935 139.519 421.831 140.079 422.416 140.225C423.125 140.402 424.766 140.654 425.875 139.102L425.831 139.279C426.126 139.515 426.106 140.98 426.148 142.026C426.19 143.072 426.26 144.048 426.474 144.624C426.687 145.199 426.938 146.682 428.92 146.257C430.575 145.902 431.841 145.392 431.957 140.641Z" fill="black" stroke="black" stroke-width="3.11576"/>
<path d="M436.356 137.697C433.562 138.274 433.37 137.328 433.37 137.328C436.32 132.95 437.553 127.394 436.489 126.034C433.585 122.324 428.559 124.078 428.475 124.124L428.448 124.129C427.896 124.014 427.279 123.946 426.584 123.935C425.32 123.914 424.361 124.266 423.633 124.818C423.633 124.818 414.667 121.124 415.084 129.463C415.173 131.237 417.627 142.886 420.554 139.368C421.624 138.081 422.658 136.993 422.658 136.993C423.171 137.334 423.786 137.508 424.43 137.446L424.48 137.403C424.464 137.563 424.472 137.719 424.5 137.904C423.746 138.747 423.968 138.895 422.46 139.205C420.935 139.519 421.831 140.079 422.416 140.225C423.125 140.403 424.766 140.654 425.875 139.102L425.83 139.279C426.126 139.516 426.333 140.818 426.299 141.999C426.264 143.18 426.241 143.991 426.473 144.624C426.706 145.257 426.938 146.682 428.92 146.257C430.576 145.902 431.434 144.983 431.553 143.449C431.638 142.359 431.829 142.52 431.841 141.545L431.995 141.083C432.173 139.605 432.023 139.128 433.044 139.35L433.291 139.372C434.042 139.406 435.025 139.251 435.602 138.983C436.844 138.407 437.58 137.444 436.356 137.697H436.356Z" fill="#336791"/>
<path d="M425.994 138.545C425.917 141.295 426.014 144.065 426.283 144.738C426.552 145.411 427.128 146.72 429.11 146.296C430.766 145.941 431.368 145.254 431.63 143.738C431.822 142.622 432.193 139.524 432.241 138.89" stroke="white" stroke-width="1.03859" stroke-linecap="round" stroke-linejoin="round"/>
<path d="M423.616 124.758C423.616 124.758 414.644 121.091 415.061 129.43C415.15 131.204 417.604 142.854 420.531 139.335C421.6 138.048 422.568 137.039 422.568 137.039" stroke="white" stroke-width="1.03859" stroke-linecap="round" stroke-linejoin="round"/>
<path d="M428.458 124.086C428.148 124.184 433.449 122.148 436.462 125.998C437.526 127.358 436.293 132.915 433.343 137.292" stroke="white" stroke-width="1.03859" stroke-linecap="round" stroke-linejoin="round"/>
<path d="M433.346 137.293C433.346 137.293 433.538 138.239 436.333 137.662C437.557 137.409 436.82 138.372 435.578 138.948C434.559 139.421 432.275 139.543 432.238 138.889C432.142 137.203 433.44 137.715 433.346 137.293ZM433.346 137.293C433.262 136.912 432.681 136.539 432.297 135.607C431.961 134.795 427.698 128.561 433.479 129.487C433.691 129.443 431.971 123.988 426.561 123.899C421.151 123.811 421.329 130.552 421.329 130.552" stroke="white" stroke-width="1.03859" stroke-linecap="round" stroke-linejoin="bevel"/>
<path d="M424.477 137.87C423.723 138.712 423.945 138.86 422.437 139.171C420.912 139.485 421.808 140.045 422.393 140.191C423.102 140.368 424.743 140.62 425.851 139.067C426.189 138.595 425.849 137.84 425.386 137.648C425.162 137.555 424.862 137.439 424.477 137.87Z" stroke="white" stroke-width="1.03859" stroke-linecap="round" stroke-linejoin="round"/>
<path d="M424.426 137.856C424.35 137.36 424.589 136.771 424.844 136.081C425.229 135.047 426.116 134.012 425.406 130.73C424.877 128.284 421.329 130.221 421.327 130.553C421.325 130.884 421.488 132.233 421.268 133.805C420.981 135.855 422.573 137.589 424.405 137.412" stroke="white" stroke-width="1.03859" stroke-linecap="round" stroke-linejoin="round"/>
<path d="M423.579 130.504C423.563 130.617 423.786 130.919 424.078 130.96C424.368 131 424.617 130.764 424.633 130.651C424.649 130.538 424.426 130.413 424.134 130.372C423.843 130.332 423.594 130.391 423.579 130.504H423.579Z" fill="white" stroke="white" stroke-width="0.346193"/>
<path d="M432.438 130.271C432.454 130.384 432.231 130.687 431.939 130.727C431.648 130.768 431.4 130.531 431.384 130.418C431.368 130.305 431.591 130.18 431.882 130.14C432.173 130.099 432.422 130.158 432.438 130.271V130.271Z" fill="white" stroke="white" stroke-width="0.173097"/>
<path d="M433.48 129.486C433.528 130.375 433.289 130.98 433.259 131.926C433.214 133.3 433.914 134.874 432.859 136.449" stroke="white" stroke-width="1.03859" stroke-linecap="round" stroke-linejoin="round"/>
</g>
</g>
<path d="M250.646 117.646C250.451 117.842 250.451 118.158 250.646 118.354L253.828 121.536C254.024 121.731 254.34 121.731 254.536 121.536C254.731 121.34 254.731 121.024 254.536 120.828L251.707 118L254.536 115.172C254.731 114.976 254.731 114.66 254.536 114.464C254.34 114.269 254.024 114.269 253.828 114.464L250.646 117.646ZM303.354 118.354C303.549 118.158 303.549 117.842 303.354 117.646L300.172 114.464C299.976 114.269 299.66 114.269 299.464 114.464C299.269 114.66 299.269 114.976 299.464 115.172L302.293 118L299.464 120.828C299.269 121.024 299.269 121.34 299.464 121.536C299.66 121.731 299.976 121.731 300.172 121.536L303.354 118.354ZM251 118V118.5H303V118V117.5H251V118Z" fill="#EA4A35"/>
<mask id="path-20-outside-3_1394_143399" maskUnits="userSpaceOnUse" x="2" y="273" width="252" height="139" fill="black">
<rect fill="white" x="2" y="273" width="252" height="139"/>
<path d="M8 285C8 281.686 10.6863 279 14 279H242C245.314 279 248 281.686 248 285V400C248 403.314 245.314 406 242 406H14C10.6863 406 8 403.314 8 400V285Z"/>
</mask>
<path d="M8 285C8 281.686 10.6863 279 14 279H242C245.314 279 248 281.686 248 285V400C248 403.314 245.314 406 242 406H14C10.6863 406 8 403.314 8 400V285Z" fill="white"/>
<path d="M14 279V285H242V279V273H14V279ZM248 285H242V400H248H254V285H248ZM242 406V400H14V406V412H242V406ZM8 400H14V285H8H2V400H8ZM14 406V400H14H8H2C2 406.627 7.37257 412 14 412V406ZM248 400H242V406V412C248.627 412 254 406.627 254 400H248ZM242 279V285H248H254C254 278.373 248.627 273 242 273V279ZM14 279V273C7.37259 273 2 278.373 2 285H8H14V285V279Z" fill="#EDEDED" mask="url(#path-20-outside-3_1394_143399)"/>
<mask id="path-22-outside-4_1394_143399" maskUnits="userSpaceOnUse" x="8" y="279" width="240" height="127" fill="black">
<rect fill="white" x="8" y="279" width="240" height="127"/>
<path d="M10 285C10 282.791 11.7909 281 14 281H242C244.209 281 246 282.791 246 285V400C246 402.209 244.209 404 242 404H14C11.7909 404 10 402.209 10 400V285Z"/>
</mask>
<path d="M14 281V283H242V281V279H14V281ZM246 285H244V400H246H248V285H246ZM242 404V402H14V404V406H242V404ZM10 400H12V285H10H8V400H10ZM14 404V402C12.8954 402 12 401.105 12 400H10H8C8 403.314 10.6863 406 14 406V404ZM246 400H244C244 401.105 243.105 402 242 402V404V406C245.314 406 248 403.314 248 400H246ZM242 281V283C243.105 283 244 283.895 244 285H246H248C248 281.686 245.314 279 242 279V281ZM14 281V279C10.6863 279 8 281.686 8 285H10H12C12 283.895 12.8954 283 14 283V281Z" fill="#CBCDD2" mask="url(#path-22-outside-4_1394_143399)"/>
<path d="M92.8526 319.545C92.8526 320.71 92.6396 321.712 92.2134 322.55C91.7873 323.384 91.2031 324.027 90.461 324.478C89.7223 324.925 88.8825 325.149 87.9414 325.149C86.9968 325.149 86.1534 324.925 85.4112 324.478C84.6726 324.027 84.0902 323.382 83.6641 322.544C83.2379 321.706 83.0249 320.707 83.0249 319.545C83.0249 318.381 83.2379 317.381 83.6641 316.547C84.0902 315.708 84.6726 315.066 85.4112 314.618C86.1534 314.167 86.9968 313.942 87.9414 313.942C88.8825 313.942 89.7223 314.167 90.461 314.618C91.2031 315.066 91.7873 315.708 92.2134 316.547C92.6396 317.381 92.8526 318.381 92.8526 319.545ZM91.2227 319.545C91.2227 318.658 91.0789 317.91 90.7912 317.303C90.5071 316.692 90.1165 316.23 89.6193 315.918C89.1257 315.602 88.5664 315.444 87.9414 315.444C87.3129 315.444 86.7518 315.602 86.2582 315.918C85.7646 316.23 85.374 316.692 85.0863 317.303C84.8022 317.91 84.6602 318.658 84.6602 319.545C84.6602 320.433 84.8022 321.183 85.0863 321.793C85.374 322.401 85.7646 322.862 86.2582 323.178C86.7518 323.491 87.3129 323.647 87.9414 323.647C88.5664 323.647 89.1257 323.491 89.6193 323.178C90.1165 322.862 90.5071 322.401 90.7912 321.793C91.0789 321.183 91.2227 320.433 91.2227 319.545ZM94.6048 325V314.091H96.1974V318.145H96.2933C96.3857 317.974 96.5188 317.777 96.6928 317.553C96.8668 317.33 97.1083 317.134 97.4173 316.967C97.7262 316.797 98.1346 316.712 98.6424 316.712C99.3029 316.712 99.8924 316.879 100.411 317.212C100.929 317.546 101.336 318.027 101.631 318.656C101.929 319.284 102.078 320.041 102.078 320.925C102.078 321.809 101.931 322.567 101.636 323.2C101.341 323.828 100.936 324.313 100.422 324.654C99.9066 324.991 99.3189 325.16 98.6584 325.16C98.1612 325.16 97.7546 325.076 97.4386 324.909C97.1261 324.743 96.881 324.547 96.7035 324.324C96.5259 324.1 96.3892 323.901 96.2933 323.727H96.1602V325H94.6048ZM96.1655 320.909C96.1655 321.484 96.2489 321.989 96.4158 322.422C96.5827 322.855 96.8242 323.194 97.1403 323.439C97.4563 323.681 97.8434 323.801 98.3015 323.801C98.7773 323.801 99.1751 323.675 99.4947 323.423C99.8143 323.168 100.056 322.821 100.219 322.385C100.386 321.948 100.469 321.456 100.469 320.909C100.469 320.369 100.388 319.885 100.224 319.455C100.065 319.025 99.8232 318.686 99.5 318.438C99.1804 318.189 98.7809 318.065 98.3015 318.065C97.8398 318.065 97.4492 318.184 97.1296 318.422C96.8136 318.659 96.5739 318.991 96.4105 319.418C96.2472 319.844 96.1655 320.341 96.1655 320.909ZM109.698 318.816L108.254 319.071C108.194 318.887 108.098 318.711 107.966 318.544C107.839 318.377 107.665 318.24 107.444 318.134C107.224 318.027 106.949 317.974 106.619 317.974C106.168 317.974 105.791 318.075 105.49 318.278C105.188 318.477 105.037 318.734 105.037 319.05C105.037 319.324 105.138 319.544 105.34 319.711C105.543 319.877 105.869 320.014 106.32 320.121L107.62 320.419C108.373 320.593 108.934 320.861 109.303 321.223C109.673 321.586 109.857 322.056 109.857 322.635C109.857 323.125 109.715 323.562 109.431 323.945C109.151 324.325 108.758 324.624 108.254 324.84C107.753 325.057 107.173 325.165 106.512 325.165C105.596 325.165 104.849 324.97 104.27 324.579C103.691 324.185 103.336 323.626 103.204 322.901L104.744 322.667C104.84 323.068 105.037 323.372 105.335 323.578C105.633 323.78 106.022 323.881 106.502 323.881C107.024 323.881 107.441 323.773 107.753 323.556C108.066 323.336 108.222 323.068 108.222 322.752C108.222 322.496 108.126 322.282 107.934 322.108C107.746 321.934 107.457 321.802 107.066 321.713L105.681 321.41C104.918 321.236 104.353 320.959 103.987 320.579C103.625 320.199 103.444 319.718 103.444 319.135C103.444 318.652 103.579 318.23 103.849 317.868C104.119 317.505 104.492 317.223 104.967 317.021C105.443 316.815 105.988 316.712 106.603 316.712C107.487 316.712 108.183 316.903 108.691 317.287C109.199 317.667 109.534 318.176 109.698 318.816ZM114.835 325.165C114.029 325.165 113.334 324.993 112.752 324.648C112.173 324.3 111.726 323.812 111.41 323.184C111.097 322.551 110.941 321.811 110.941 320.962C110.941 320.124 111.097 319.386 111.41 318.746C111.726 318.107 112.166 317.608 112.731 317.25C113.299 316.891 113.963 316.712 114.723 316.712C115.185 316.712 115.632 316.788 116.065 316.941C116.499 317.093 116.887 317.333 117.232 317.66C117.576 317.987 117.848 318.411 118.047 318.933C118.246 319.451 118.345 320.082 118.345 320.824V321.388H111.841V320.195H116.784C116.784 319.776 116.699 319.405 116.529 319.082C116.358 318.755 116.119 318.498 115.81 318.31C115.504 318.121 115.146 318.027 114.734 318.027C114.286 318.027 113.896 318.137 113.562 318.358C113.231 318.574 112.976 318.858 112.795 319.21C112.617 319.558 112.528 319.936 112.528 320.344V321.277C112.528 321.824 112.624 322.289 112.816 322.672C113.011 323.056 113.283 323.349 113.631 323.551C113.979 323.75 114.386 323.849 114.851 323.849C115.153 323.849 115.428 323.807 115.676 323.722C115.925 323.633 116.14 323.501 116.321 323.327C116.502 323.153 116.641 322.939 116.736 322.683L118.244 322.955C118.123 323.398 117.907 323.787 117.594 324.121C117.285 324.451 116.896 324.709 116.428 324.893C115.962 325.075 115.431 325.165 114.835 325.165ZM119.812 325V316.818H121.352V318.118H121.437C121.586 317.678 121.849 317.331 122.225 317.079C122.605 316.824 123.035 316.696 123.514 316.696C123.614 316.696 123.731 316.699 123.866 316.706C124.004 316.713 124.113 316.722 124.191 316.733V318.256C124.127 318.239 124.013 318.219 123.85 318.198C123.687 318.173 123.523 318.161 123.36 318.161C122.983 318.161 122.648 318.24 122.353 318.4C122.062 318.556 121.831 318.775 121.661 319.055C121.49 319.332 121.405 319.648 121.405 320.004V325H119.812ZM132.517 316.818L129.55 325H127.846L124.874 316.818H126.583L128.656 323.114H128.741L130.808 316.818H132.517ZM135.861 325.181C135.342 325.181 134.874 325.085 134.455 324.893C134.036 324.698 133.704 324.416 133.459 324.047C133.217 323.677 133.096 323.224 133.096 322.688C133.096 322.227 133.185 321.847 133.363 321.548C133.54 321.25 133.78 321.014 134.082 320.84C134.384 320.666 134.721 320.534 135.094 320.446C135.467 320.357 135.847 320.289 136.234 320.243C136.724 320.186 137.122 320.14 137.427 320.105C137.732 320.066 137.954 320.004 138.093 319.918C138.231 319.833 138.301 319.695 138.301 319.503V319.466C138.301 319 138.169 318.64 137.906 318.384C137.647 318.129 137.26 318.001 136.745 318.001C136.209 318.001 135.786 318.12 135.477 318.358C135.172 318.592 134.961 318.853 134.843 319.141L133.347 318.8C133.524 318.303 133.783 317.901 134.124 317.596C134.469 317.287 134.865 317.063 135.312 316.925C135.76 316.783 136.23 316.712 136.724 316.712C137.051 316.712 137.397 316.751 137.763 316.829C138.132 316.903 138.476 317.042 138.796 317.244C139.119 317.447 139.384 317.736 139.59 318.113C139.796 318.485 139.899 318.97 139.899 319.567V325H138.343V323.881H138.279C138.176 324.087 138.022 324.29 137.816 324.489C137.61 324.687 137.345 324.853 137.022 324.984C136.699 325.115 136.312 325.181 135.861 325.181ZM136.207 323.903C136.647 323.903 137.024 323.816 137.336 323.642C137.652 323.468 137.892 323.24 138.055 322.96C138.222 322.676 138.306 322.372 138.306 322.049V320.994C138.249 321.051 138.139 321.104 137.976 321.154C137.816 321.2 137.633 321.241 137.427 321.277C137.221 321.309 137.02 321.339 136.825 321.367C136.63 321.392 136.466 321.413 136.335 321.431C136.026 321.47 135.744 321.536 135.488 321.628C135.236 321.721 135.033 321.854 134.881 322.028C134.732 322.198 134.657 322.425 134.657 322.71C134.657 323.104 134.803 323.402 135.094 323.604C135.385 323.803 135.756 323.903 136.207 323.903ZM141.848 325V314.091H143.44V318.145H143.536C143.629 317.974 143.762 317.777 143.936 317.553C144.11 317.33 144.351 317.134 144.66 316.967C144.969 316.797 145.378 316.712 145.885 316.712C146.546 316.712 147.135 316.879 147.654 317.212C148.172 317.546 148.579 318.027 148.874 318.656C149.172 319.284 149.321 320.041 149.321 320.925C149.321 321.809 149.174 322.567 148.879 323.2C148.584 323.828 148.179 324.313 147.664 324.654C147.15 324.991 146.562 325.16 145.901 325.16C145.404 325.16 144.998 325.076 144.682 324.909C144.369 324.743 144.124 324.547 143.946 324.324C143.769 324.1 143.632 323.901 143.536 323.727H143.403V325H141.848ZM143.408 320.909C143.408 321.484 143.492 321.989 143.659 322.422C143.826 322.855 144.067 323.194 144.383 323.439C144.699 323.681 145.086 323.801 145.544 323.801C146.02 323.801 146.418 323.675 146.738 323.423C147.057 323.168 147.299 322.821 147.462 322.385C147.629 321.948 147.712 321.456 147.712 320.909C147.712 320.369 147.631 319.885 147.467 319.455C147.308 319.025 147.066 318.686 146.743 318.438C146.423 318.189 146.024 318.065 145.544 318.065C145.083 318.065 144.692 318.184 144.373 318.422C144.057 318.659 143.817 318.991 143.653 319.418C143.49 319.844 143.408 320.341 143.408 320.909ZM150.81 325V316.818H152.402V325H150.81ZM151.614 315.556C151.337 315.556 151.099 315.463 150.9 315.279C150.705 315.091 150.607 314.867 150.607 314.608C150.607 314.345 150.705 314.121 150.9 313.936C151.099 313.748 151.337 313.654 151.614 313.654C151.891 313.654 152.127 313.748 152.322 313.936C152.521 314.121 152.621 314.345 152.621 314.608C152.621 314.867 152.521 315.091 152.322 315.279C152.127 315.463 151.891 315.556 151.614 315.556ZM155.838 314.091V325H154.245V314.091H155.838ZM157.68 325V316.818H159.273V325H157.68ZM158.485 315.556C158.208 315.556 157.97 315.463 157.771 315.279C157.575 315.091 157.478 314.867 157.478 314.608C157.478 314.345 157.575 314.121 157.771 313.936C157.97 313.748 158.208 313.654 158.485 313.654C158.762 313.654 158.998 313.748 159.193 313.936C159.392 314.121 159.491 314.345 159.491 314.608C159.491 314.867 159.392 315.091 159.193 315.279C158.998 315.463 158.762 315.556 158.485 315.556ZM164.935 316.818V318.097H160.466V316.818H164.935ZM161.664 314.858H163.257V322.598C163.257 322.907 163.303 323.139 163.395 323.295C163.488 323.448 163.607 323.553 163.752 323.61C163.901 323.663 164.063 323.69 164.237 323.69C164.365 323.69 164.477 323.681 164.573 323.663C164.669 323.645 164.743 323.631 164.796 323.62L165.084 324.936C164.992 324.972 164.86 325.007 164.69 325.043C164.519 325.082 164.306 325.103 164.051 325.107C163.632 325.114 163.241 325.039 162.879 324.883C162.517 324.727 162.224 324.485 162 324.158C161.776 323.832 161.664 323.422 161.664 322.928V314.858ZM167.403 328.068C167.165 328.068 166.949 328.049 166.754 328.01C166.558 327.974 166.413 327.935 166.317 327.892L166.7 326.587C166.991 326.665 167.251 326.699 167.478 326.689C167.705 326.678 167.906 326.593 168.08 326.433C168.257 326.273 168.414 326.012 168.549 325.65L168.746 325.107L165.752 316.818H167.457L169.529 323.168H169.614L171.686 316.818H173.396L170.024 326.092C169.868 326.518 169.669 326.879 169.428 327.173C169.186 327.472 168.898 327.695 168.565 327.844C168.231 327.994 167.844 328.068 167.403 328.068Z" fill="#363636"/>
<path d="M91.8053 356.888C91.759 356.433 91.6896 355.906 91.5507 355.331C91.4118 354.756 91.1804 354.133 90.8795 353.462C90.5555 352.816 90.1621 352.121 89.6298 351.474C89.4215 351.21 89.19 350.971 88.9586 350.707C89.3289 349.198 88.5189 347.88 88.5189 347.88C87.1071 347.785 86.2276 348.336 85.9036 348.575C85.8573 348.551 85.7879 348.527 85.7416 348.503C85.5102 348.407 85.2556 348.312 85.001 348.216C84.7465 348.144 84.4919 348.048 84.2373 348C83.9827 347.928 83.705 347.88 83.4273 347.832C83.381 347.832 83.3347 347.808 83.2884 347.808C82.6867 345.796 80.9277 344.934 80.9277 344.934C78.9142 346.275 78.5208 348.072 78.5208 348.072C78.5208 348.072 78.5208 348.12 78.4977 348.168C78.3819 348.192 78.2894 348.24 78.1736 348.264C78.0348 348.312 77.8728 348.36 77.7339 348.431C77.5951 348.503 77.433 348.551 77.2942 348.623C76.9933 348.767 76.7156 348.911 76.4147 349.078C76.137 349.246 75.8593 349.414 75.6047 349.605C75.5584 349.581 75.5353 349.557 75.5353 349.557C72.8275 348.479 70.4205 349.773 70.4205 349.773C70.2122 352.768 71.5083 354.636 71.7628 354.972C71.6934 355.163 71.6471 355.331 71.5777 355.523C71.3694 356.194 71.2305 356.888 71.138 357.607C71.1148 357.703 71.1148 357.823 71.0917 357.919C68.5922 359.188 67.8516 361.824 67.8516 361.824C69.9345 364.315 72.3877 364.459 72.3877 364.459C72.6886 365.034 73.0589 365.585 73.4523 366.088C73.6143 366.304 73.7995 366.495 73.9846 366.711C73.2209 368.963 74.1004 370.856 74.1004 370.856C76.4379 370.951 77.9654 369.801 78.2894 369.538C78.5208 369.61 78.7522 369.682 78.9837 369.753C79.7011 369.945 80.4417 370.065 81.1592 370.089C81.3443 370.089 81.5295 370.089 81.7146 370.089H81.8072H81.8766H81.9924H82.1081C83.1958 371.718 85.1399 371.934 85.1399 371.934C86.5054 370.424 86.5979 368.963 86.5979 368.627C86.5979 368.627 86.5979 368.627 86.5979 368.604C86.5979 368.58 86.5979 368.556 86.5979 368.556C86.5979 368.532 86.5979 368.508 86.5979 368.484C86.8757 368.268 87.1534 368.052 87.4311 367.813C87.9866 367.31 88.4494 366.711 88.866 366.088C88.9123 366.04 88.9355 365.968 88.9817 365.92C90.5324 366.016 91.6201 364.914 91.6201 364.914C91.3655 363.237 90.4398 362.423 90.2546 362.279C90.2546 362.279 90.2546 362.279 90.2315 362.255L90.2084 362.231L90.1852 362.207C90.1852 362.111 90.2084 362.015 90.2084 361.895C90.2315 361.704 90.2315 361.536 90.2315 361.344V361.201V361.129V361.105C90.2315 361.057 90.2315 361.081 90.2315 361.057V360.937V360.793C90.2315 360.745 90.2315 360.698 90.2315 360.65C90.2315 360.602 90.2315 360.554 90.2084 360.506L90.1852 360.362L90.1621 360.218C90.1389 360.027 90.0926 359.859 90.0695 359.667C89.9075 358.949 89.6298 358.254 89.2826 357.655C88.9123 357.032 88.4726 356.505 87.9634 356.026C87.4543 355.571 86.8988 355.187 86.2971 354.924C85.6953 354.636 85.0936 354.469 84.4687 354.397C84.1679 354.349 83.8438 354.349 83.543 354.349H83.4273H83.4041H83.3578H83.3115H83.1958C83.1495 354.349 83.1032 354.349 83.0801 354.349C82.9181 354.373 82.7561 354.397 82.6172 354.421C81.9924 354.541 81.4138 354.78 80.9046 355.092C80.3954 355.403 79.9557 355.81 79.5854 356.265C79.2151 356.721 78.9374 357.2 78.7522 357.727C78.5671 358.23 78.4514 358.781 78.4282 359.284C78.4282 359.404 78.4282 359.548 78.4282 359.667C78.4282 359.691 78.4282 359.739 78.4282 359.763V359.859C78.4282 359.931 78.4282 359.979 78.4514 360.051C78.4745 360.314 78.5208 360.554 78.5902 360.793C78.7291 361.273 78.9374 361.704 79.2151 362.087C79.4928 362.47 79.7937 362.758 80.1409 362.997C80.488 363.237 80.8352 363.405 81.2055 363.525C81.5758 363.644 81.9229 363.692 82.2469 363.668C82.2932 363.668 82.3395 363.668 82.3627 363.668C82.3858 363.668 82.4089 363.668 82.4321 363.668C82.4552 363.668 82.4784 363.668 82.5015 363.668C82.5478 363.668 82.5709 363.668 82.6172 363.668H82.6404H82.6635C82.6867 363.668 82.7098 363.668 82.733 363.668C82.7792 363.668 82.8255 363.644 82.8487 363.644C82.895 363.644 82.9181 363.62 82.9644 363.62C83.0338 363.596 83.1264 363.572 83.1958 363.549C83.3347 363.501 83.4735 363.429 83.6124 363.381C83.7513 363.309 83.867 363.237 83.9596 363.165C83.9827 363.141 84.029 363.117 84.0521 363.093C84.1679 362.997 84.191 362.83 84.0984 362.71C84.0059 362.614 83.867 362.59 83.7513 362.638C83.7281 362.662 83.705 362.662 83.6587 362.686C83.5661 362.734 83.4504 362.782 83.3578 362.806C83.2421 362.83 83.1264 362.878 83.0107 362.902C82.9412 362.902 82.895 362.926 82.8255 362.926C82.8024 362.926 82.7561 362.926 82.733 362.926C82.7098 362.926 82.6635 362.926 82.6404 362.926C82.6172 362.926 82.5709 362.926 82.5478 362.926C82.5015 362.926 82.4784 362.926 82.4321 362.926H82.4089H82.3858C82.3627 362.926 82.3627 362.926 82.3395 362.926C82.3164 362.926 82.2701 362.926 82.2469 362.902C81.9924 362.854 81.7146 362.782 81.46 362.662C81.2055 362.542 80.9509 362.375 80.7426 362.159C80.5112 361.943 80.326 361.704 80.164 361.416C80.002 361.129 79.9094 360.817 79.8631 360.506C79.84 360.338 79.8168 360.171 79.84 360.003C79.84 359.955 79.84 359.907 79.84 359.859V359.835V359.811C79.84 359.787 79.84 359.763 79.84 359.739C79.84 359.643 79.8631 359.572 79.8863 359.476C80.002 358.757 80.3492 358.062 80.8815 357.535C81.0203 357.391 81.1592 357.272 81.3212 357.176C81.4832 357.056 81.6452 356.96 81.8072 356.888C81.9692 356.816 82.1544 356.745 82.3395 356.697C82.5247 356.649 82.7098 356.601 82.895 356.601C82.9875 356.601 83.0801 356.577 83.1727 356.577C83.1958 356.577 83.219 356.577 83.2421 356.577H83.3115H83.3578H83.381H83.4504C83.6587 356.601 83.867 356.625 84.0521 356.673C84.4456 356.769 84.839 356.912 85.2093 357.128C85.9499 357.559 86.5748 358.206 86.9451 358.997C87.1303 359.38 87.2691 359.811 87.3385 360.266C87.3617 360.386 87.3617 360.482 87.3848 360.602V360.674V360.745C87.3848 360.769 87.3848 360.793 87.3848 360.817C87.3848 360.841 87.3848 360.865 87.3848 360.889V360.961V361.033C87.3848 361.081 87.3848 361.177 87.3848 361.225C87.3848 361.344 87.3617 361.464 87.3617 361.584C87.3385 361.704 87.3385 361.824 87.3154 361.943C87.2923 362.063 87.2691 362.183 87.246 362.303C87.1997 362.542 87.1071 362.758 87.0377 362.997C86.8757 363.453 86.6442 363.884 86.3665 364.267C85.8111 365.058 85.0473 365.705 84.191 366.112C83.7513 366.304 83.3115 366.471 82.8487 366.543C82.6172 366.591 82.3858 366.615 82.1544 366.615H82.1081H82.0618H81.9924H81.8766H81.8072H81.7841C81.6683 366.615 81.5295 366.615 81.4138 366.591C80.9046 366.543 80.4186 366.447 79.9326 366.304C79.4465 366.16 78.9837 365.968 78.5439 365.729C77.6645 365.249 76.8776 364.555 76.2527 363.764C75.9519 363.357 75.6741 362.926 75.4427 362.47C75.2113 362.015 75.0492 361.536 74.9104 361.057C74.7715 360.578 74.7021 360.075 74.6789 359.572V359.476V359.452V359.428V359.38V359.308V359.284V359.26V359.212V359.092V359.068V359.021C74.6789 358.949 74.6789 358.901 74.6789 358.829C74.6789 358.589 74.7021 358.326 74.7484 358.062C74.7715 357.799 74.8178 357.559 74.8641 357.296C74.9104 357.032 74.9798 356.793 75.0492 356.529C75.1881 356.026 75.3501 355.547 75.5584 355.092C75.975 354.181 76.5073 353.367 77.1322 352.72C77.2942 352.552 77.4562 352.408 77.6413 352.265C77.7108 352.193 77.8728 352.049 78.0579 351.929C78.2431 351.809 78.4282 351.69 78.6365 351.594C78.7291 351.546 78.8217 351.498 78.9374 351.45C78.9837 351.426 79.03 351.402 79.0994 351.378C79.1457 351.354 79.192 351.33 79.2614 351.306C79.4697 351.21 79.678 351.139 79.8863 351.067C79.9326 351.043 80.002 351.043 80.0483 351.019C80.0946 350.995 80.164 350.995 80.2103 350.971C80.326 350.947 80.4186 350.923 80.5343 350.875C80.5806 350.851 80.65 350.851 80.6963 350.827C80.7426 350.827 80.812 350.803 80.8583 350.803C80.9046 350.803 80.974 350.779 81.0203 350.779L81.1129 350.755L81.2055 350.731C81.2518 350.731 81.3212 350.707 81.3675 350.707C81.4369 350.707 81.4832 350.683 81.5526 350.683C81.5989 350.683 81.6915 350.659 81.7378 350.659C81.7841 350.659 81.8072 350.659 81.8535 350.635H81.9229H81.9692H82.0155C82.0849 350.635 82.1312 350.635 82.2006 350.611H82.2932H82.3164H82.3627C82.4089 350.611 82.4784 350.611 82.5247 350.611C82.733 350.611 82.9412 350.611 83.1495 350.611C83.5661 350.635 83.9827 350.683 84.3762 350.755C85.163 350.899 85.9268 351.163 86.5979 351.522C87.2691 351.857 87.894 352.289 88.4032 352.744C88.4263 352.768 88.4726 352.792 88.4957 352.84C88.5189 352.863 88.5652 352.887 88.5883 352.935C88.6577 352.983 88.704 353.055 88.7735 353.103C88.8429 353.151 88.8892 353.223 88.9586 353.271C89.0049 353.343 89.0743 353.391 89.1206 353.462C89.352 353.702 89.5603 353.966 89.7455 354.205C90.1158 354.708 90.4167 355.211 90.6481 355.69C90.6712 355.714 90.6712 355.738 90.6944 355.786C90.7175 355.81 90.7175 355.834 90.7407 355.882C90.7638 355.93 90.787 356.002 90.8332 356.05C90.8564 356.098 90.8795 356.17 90.9027 356.218C90.9258 356.265 90.949 356.337 90.9721 356.385C91.0647 356.601 91.1341 356.816 91.2035 357.032C91.3193 357.367 91.3887 357.655 91.4581 357.895C91.4813 357.99 91.5738 358.062 91.6664 358.062C91.7821 358.062 91.8516 357.966 91.8516 357.847C91.8284 357.559 91.8284 357.248 91.8053 356.888Z" fill="url(#paint0_linear_1394_143399)"/>
<path d="M118.516 368.008V370.395H119.637L129.485 358.59C128.803 358.146 128.091 357.747 127.356 357.396L118.516 368.008Z" fill="#009B90"/>
<path d="M129.486 358.59L119.633 370.4H136.45C136.45 365.588 133.72 361.311 129.486 358.59Z" fill="#40BEB0"/>
<path d="M118.516 346.469V368.044L136.481 346.469H118.516Z" fill="#EF5098"/>
<path d="M118.52 368.036L127.375 357.405C124.599 356.109 121.579 355.437 118.516 355.451L118.52 368.036Z" fill="#353535"/>
<path d="M175.178 346.434C181.759 346.434 187.16 351.843 187.148 358.418C187.142 365.103 181.759 370.434 175.035 370.434C168.466 370.428 163.148 365.012 163.148 358.327C163.166 351.789 168.58 346.434 175.178 346.434ZM171.544 350.641C171.693 351.388 171.544 352.086 171.322 352.778C171.172 353.252 170.951 353.713 170.825 354.193C170.615 354.994 170.376 355.79 170.286 356.597C170.16 357.763 170.615 358.795 171.394 359.821C170.13 359.554 168.981 359.311 167.807 359.056C167.813 359.171 167.807 359.22 167.813 359.256C168.148 360.264 168.753 361.102 169.424 361.909C169.496 361.988 169.651 362.037 169.777 362.037C173.352 362.043 176.921 362.043 180.496 362.037C180.61 362.037 180.753 362.019 180.825 361.946C181.598 361.138 182.178 360.216 182.544 359.05C181.232 359.311 179.987 359.554 178.747 359.797C178.993 359.305 179.286 358.862 179.448 358.388C180.005 356.755 179.777 355.176 178.969 353.689C178.322 352.493 177.723 351.303 178.047 349.864C177.364 350.544 177.101 351.406 176.933 352.305C176.765 353.185 176.675 354.071 176.544 354.97C176.526 354.946 176.502 354.927 176.502 354.897C176.484 354.806 176.478 354.709 176.466 354.618C176.388 353.155 176.101 351.746 175.508 350.41C175.154 349.621 174.765 348.814 175.124 347.873C174.879 348.006 174.657 348.134 174.496 348.322C174.017 348.88 173.825 349.536 173.777 350.259C173.735 350.878 173.669 351.503 173.568 352.116C173.442 352.754 173.256 353.379 172.831 353.974C172.675 352.687 172.657 351.442 171.544 350.641ZM180.753 363.142H169.556V365.109H180.759V363.142H180.753ZM171.771 366.111C171.765 367.744 173.418 368.964 175.454 368.873C177.142 368.8 178.639 367.459 178.514 366.111C178.52 366.111 171.771 366.111 171.771 366.111Z" fill="#E75225"/>
<mask id="path-31-outside-5_1394_143399" maskUnits="userSpaceOnUse" x="300" y="275" width="252" height="137" fill="black">
<rect fill="white" x="300" y="275" width="252" height="137"/>
<path d="M306 287C306 283.686 308.686 281 312 281H540C543.314 281 546 283.686 546 287V400C546 403.314 543.314 406 540 406H312C308.686 406 306 403.314 306 400V287Z"/>
</mask>
<path d="M306 287C306 283.686 308.686 281 312 281H540C543.314 281 546 283.686 546 287V400C546 403.314 543.314 406 540 406H312C308.686 406 306 403.314 306 400V287Z" fill="white"/>
<path d="M312 281V287H540V281V275H312V281ZM546 287H540V400H546H552V287H546ZM540 406V400H312V406V412H540V406ZM306 400H312V287H306H300V400H306ZM312 406V400H312H306H300C300 406.627 305.373 412 312 412V406ZM546 400H540V406V412C546.627 412 552 406.627 552 400H546ZM540 281V287H546H552C552 280.373 546.627 275 540 275V281ZM312 281V275C305.373 275 300 280.373 300 287H306H312V287V281Z" fill="#EDEDED" mask="url(#path-31-outside-5_1394_143399)"/>
<mask id="path-33-outside-6_1394_143399" maskUnits="userSpaceOnUse" x="306" y="281" width="240" height="125" fill="black">
<rect fill="white" x="306" y="281" width="240" height="125"/>
<path d="M308 287C308 284.791 309.791 283 312 283H540C542.209 283 544 284.791 544 287V400C544 402.209 542.209 404 540 404H312C309.791 404 308 402.209 308 400V287Z"/>
</mask>
<path d="M312 283V285H540V283V281H312V283ZM544 287H542V400H544H546V287H544ZM540 404V402H312V404V406H540V404ZM308 400H310V287H308H306V400H308ZM312 404V402C310.895 402 310 401.105 310 400H308H306C306 403.314 308.686 406 312 406V404ZM544 400H542C542 401.105 541.105 402 540 402V404V406C543.314 406 546 403.314 546 400H544ZM540 283V285C541.105 285 542 285.895 542 287H544H546C546 283.686 543.314 281 540 281V283ZM312 283V281C308.686 281 306 283.686 306 287H308H310C310 285.895 310.895 285 312 285V283Z" fill="#CBCDD2" mask="url(#path-33-outside-6_1394_143399)"/>
<path d="M389.493 313V302.091H396.332V303.508H391.139V306.832H395.975V308.243H391.139V311.583H396.396V313H389.493ZM399.36 304.818L401.166 308.004L402.987 304.818H404.729L402.178 308.909L404.751 313H403.009L401.166 309.942L399.328 313H397.581L400.127 308.909L397.613 304.818H399.36ZM409.884 304.818V306.097H405.415V304.818H409.884ZM406.613 302.858H408.206V310.598C408.206 310.907 408.252 311.139 408.344 311.295C408.437 311.448 408.556 311.553 408.701 311.61C408.85 311.663 409.012 311.69 409.186 311.69C409.314 311.69 409.426 311.681 409.522 311.663C409.618 311.645 409.692 311.631 409.745 311.62L410.033 312.936C409.941 312.972 409.809 313.007 409.639 313.043C409.468 313.082 409.255 313.103 409 313.107C408.581 313.114 408.19 313.039 407.828 312.883C407.466 312.727 407.173 312.485 406.949 312.158C406.725 311.832 406.613 311.422 406.613 310.928V302.858ZM414.784 313.165C413.978 313.165 413.284 312.993 412.701 312.648C412.122 312.3 411.675 311.812 411.359 311.184C411.046 310.551 410.89 309.811 410.89 308.962C410.89 308.124 411.046 307.386 411.359 306.746C411.675 306.107 412.115 305.608 412.68 305.25C413.248 304.891 413.912 304.712 414.672 304.712C415.134 304.712 415.581 304.788 416.015 304.941C416.448 305.093 416.837 305.333 417.181 305.66C417.526 305.987 417.797 306.411 417.996 306.933C418.195 307.451 418.294 308.082 418.294 308.824V309.388H411.79V308.195H416.734C416.734 307.776 416.648 307.405 416.478 307.082C416.307 306.755 416.068 306.498 415.759 306.31C415.453 306.121 415.095 306.027 414.683 306.027C414.235 306.027 413.845 306.137 413.511 306.358C413.181 306.574 412.925 306.858 412.744 307.21C412.566 307.558 412.478 307.936 412.478 308.344V309.277C412.478 309.824 412.573 310.289 412.765 310.672C412.961 311.056 413.232 311.349 413.58 311.551C413.928 311.75 414.335 311.849 414.8 311.849C415.102 311.849 415.377 311.807 415.626 311.722C415.874 311.633 416.089 311.501 416.27 311.327C416.451 311.153 416.59 310.939 416.686 310.683L418.193 310.955C418.072 311.398 417.856 311.787 417.543 312.121C417.234 312.451 416.845 312.709 416.377 312.893C415.912 313.075 415.381 313.165 414.784 313.165ZM421.354 308.142V313H419.761V304.818H421.29V306.15H421.391C421.58 305.717 421.874 305.369 422.276 305.106C422.681 304.843 423.19 304.712 423.804 304.712C424.362 304.712 424.85 304.829 425.269 305.063C425.688 305.294 426.013 305.638 426.244 306.097C426.475 306.555 426.59 307.121 426.59 307.796V313H424.998V307.988C424.998 307.395 424.843 306.931 424.534 306.597C424.225 306.26 423.801 306.091 423.261 306.091C422.892 306.091 422.563 306.171 422.276 306.331C421.992 306.491 421.766 306.725 421.599 307.034C421.436 307.339 421.354 307.709 421.354 308.142ZM434.557 306.816L433.114 307.071C433.053 306.887 432.958 306.711 432.826 306.544C432.698 306.377 432.524 306.24 432.304 306.134C432.084 306.027 431.809 305.974 431.479 305.974C431.028 305.974 430.651 306.075 430.349 306.278C430.047 306.477 429.897 306.734 429.897 307.05C429.897 307.324 429.998 307.544 430.2 307.711C430.403 307.877 430.729 308.014 431.18 308.121L432.48 308.419C433.233 308.593 433.794 308.861 434.163 309.223C434.533 309.586 434.717 310.056 434.717 310.635C434.717 311.125 434.575 311.562 434.291 311.945C434.01 312.325 433.618 312.624 433.114 312.84C432.613 313.057 432.033 313.165 431.372 313.165C430.456 313.165 429.708 312.97 429.129 312.579C428.551 312.185 428.196 311.626 428.064 310.901L429.604 310.667C429.699 311.068 429.897 311.372 430.195 311.578C430.493 311.78 430.882 311.881 431.361 311.881C431.883 311.881 432.301 311.773 432.613 311.556C432.926 311.336 433.082 311.068 433.082 310.752C433.082 310.496 432.986 310.282 432.794 310.108C432.606 309.934 432.317 309.802 431.926 309.713L430.541 309.41C429.778 309.236 429.213 308.959 428.847 308.579C428.485 308.199 428.304 307.718 428.304 307.135C428.304 306.652 428.439 306.23 428.709 305.868C428.979 305.505 429.351 305.223 429.827 305.021C430.303 304.815 430.848 304.712 431.463 304.712C432.347 304.712 433.043 304.903 433.551 305.287C434.058 305.667 434.394 306.176 434.557 306.816ZM436.168 313V304.818H437.761V313H436.168ZM436.973 303.556C436.696 303.556 436.458 303.463 436.259 303.279C436.064 303.091 435.966 302.867 435.966 302.608C435.966 302.345 436.064 302.121 436.259 301.936C436.458 301.748 436.696 301.654 436.973 301.654C437.25 301.654 437.486 301.748 437.681 301.936C437.88 302.121 437.979 302.345 437.979 302.608C437.979 302.867 437.88 303.091 437.681 303.279C437.486 303.463 437.25 303.556 436.973 303.556ZM439.732 313V302.091H441.324V306.145H441.42C441.512 305.974 441.646 305.777 441.82 305.553C441.994 305.33 442.235 305.134 442.544 304.967C442.853 304.797 443.261 304.712 443.769 304.712C444.43 304.712 445.019 304.879 445.538 305.212C446.056 305.546 446.463 306.027 446.757 306.656C447.056 307.284 447.205 308.041 447.205 308.925C447.205 309.809 447.058 310.567 446.763 311.2C446.468 311.828 446.063 312.313 445.548 312.654C445.033 312.991 444.446 313.16 443.785 313.16C443.288 313.16 442.881 313.076 442.565 312.909C442.253 312.743 442.008 312.547 441.83 312.324C441.653 312.1 441.516 311.901 441.42 311.727H441.287V313H439.732ZM441.292 308.909C441.292 309.484 441.376 309.989 441.543 310.422C441.709 310.855 441.951 311.194 442.267 311.439C442.583 311.681 442.97 311.801 443.428 311.801C443.904 311.801 444.302 311.675 444.621 311.423C444.941 311.168 445.183 310.821 445.346 310.385C445.513 309.948 445.596 309.456 445.596 308.909C445.596 308.369 445.515 307.885 445.351 307.455C445.191 307.025 444.95 306.686 444.627 306.438C444.307 306.189 443.908 306.065 443.428 306.065C442.967 306.065 442.576 306.184 442.256 306.422C441.94 306.659 441.701 306.991 441.537 307.418C441.374 307.844 441.292 308.341 441.292 308.909ZM448.693 313V304.818H450.286V313H448.693ZM449.498 303.556C449.221 303.556 448.983 303.463 448.784 303.279C448.589 303.091 448.491 302.867 448.491 302.608C448.491 302.345 448.589 302.121 448.784 301.936C448.983 301.748 449.221 301.654 449.498 301.654C449.775 301.654 450.011 301.748 450.206 301.936C450.405 302.121 450.504 302.345 450.504 302.608C450.504 302.867 450.405 303.091 450.206 303.279C450.011 303.463 449.775 303.556 449.498 303.556ZM453.721 302.091V313H452.129V302.091H453.721ZM455.564 313V304.818H457.157V313H455.564ZM456.368 303.556C456.091 303.556 455.853 303.463 455.655 303.279C455.459 303.091 455.362 302.867 455.362 302.608C455.362 302.345 455.459 302.121 455.655 301.936C455.853 301.748 456.091 301.654 456.368 301.654C456.645 301.654 456.882 301.748 457.077 301.936C457.276 302.121 457.375 302.345 457.375 302.608C457.375 302.867 457.276 303.091 457.077 303.279C456.882 303.463 456.645 303.556 456.368 303.556ZM462.819 304.818V306.097H458.35V304.818H462.819ZM459.548 302.858H461.141V310.598C461.141 310.907 461.187 311.139 461.279 311.295C461.372 311.448 461.491 311.553 461.636 311.61C461.785 311.663 461.947 311.69 462.121 311.69C462.249 311.69 462.361 311.681 462.456 311.663C462.552 311.645 462.627 311.631 462.68 311.62L462.968 312.936C462.875 312.972 462.744 313.007 462.574 313.043C462.403 313.082 462.19 313.103 461.934 313.107C461.515 313.114 461.125 313.039 460.763 312.883C460.4 312.727 460.107 312.485 459.884 312.158C459.66 311.832 459.548 311.422 459.548 310.928V302.858ZM465.287 316.068C465.049 316.068 464.833 316.049 464.637 316.01C464.442 315.974 464.296 315.935 464.201 315.892L464.584 314.587C464.875 314.665 465.134 314.699 465.362 314.689C465.589 314.678 465.79 314.593 465.964 314.433C466.141 314.273 466.297 314.012 466.432 313.65L466.63 313.107L463.636 304.818H465.34L467.413 311.168H467.498L469.57 304.818H471.28L467.908 314.092C467.752 314.518 467.553 314.879 467.311 315.173C467.07 315.472 466.782 315.695 466.448 315.844C466.115 315.994 465.728 316.068 465.287 316.068Z" fill="#363636"/>
<g clip-path="url(#clip1_1394_143399)">
<path d="M358.609 355C365.237 355 370.609 349.627 370.609 343C370.609 336.373 365.237 331 358.609 331C351.982 331 346.609 336.373 346.609 343C346.609 349.627 351.982 355 358.609 355Z" fill="#008AAA"/>
<path d="M365.034 340.269H363.145C363.11 340.269 363.075 340.25 363.058 340.22L361.542 337.59C361.523 337.56 361.49 337.541 361.453 337.541H355.265C355.23 337.541 355.195 337.56 355.179 337.59L353.601 340.318L352.083 342.948C352.066 342.979 352.066 343.016 352.083 343.049L353.601 345.679L355.176 348.409C355.193 348.439 355.228 348.461 355.263 348.458H361.453C361.488 348.458 361.523 348.439 361.542 348.409L363.061 345.779C363.077 345.749 363.112 345.728 363.147 345.73H365.037C365.1 345.73 365.149 345.679 365.149 345.618V340.384C365.147 340.321 365.095 340.269 365.034 340.269ZM357.799 345.779L357.323 346.6C357.316 346.611 357.304 346.623 357.293 346.63C357.279 346.637 357.265 346.642 357.248 346.642H356.304C356.271 346.642 356.24 346.625 356.226 346.595L354.818 344.15L354.679 343.909L354.173 343.044C354.166 343.032 354.162 343.018 354.164 343.002C354.164 342.988 354.169 342.971 354.176 342.96L354.684 342.079L356.229 339.407C356.245 339.379 356.276 339.36 356.306 339.36H357.248C357.265 339.36 357.281 339.364 357.297 339.371C357.309 339.379 357.321 339.388 357.328 339.402L357.804 340.227C357.818 340.255 357.815 340.29 357.799 340.316L356.273 342.96C356.266 342.971 356.264 342.986 356.264 342.997C356.264 343.011 356.269 343.023 356.273 343.035L357.799 345.676C357.82 345.711 357.818 345.749 357.799 345.779ZM362.536 343.044L362.029 343.909L361.891 344.15L360.483 346.595C360.466 346.623 360.438 346.642 360.405 346.642H359.461C359.444 346.642 359.43 346.637 359.416 346.63C359.404 346.623 359.393 346.614 359.386 346.6L358.91 345.779C358.889 345.749 358.889 345.711 358.908 345.681L360.433 343.039C360.44 343.028 360.443 343.014 360.443 343.002C360.443 342.988 360.438 342.976 360.433 342.964L358.908 340.321C358.891 340.293 358.889 340.26 358.903 340.232L359.379 339.407C359.386 339.395 359.397 339.383 359.409 339.376C359.423 339.367 359.44 339.364 359.458 339.364H360.405C360.438 339.364 360.469 339.381 360.483 339.411L362.027 342.083L362.536 342.964C362.543 342.979 362.547 342.993 362.547 343.007C362.547 343.016 362.543 343.03 362.536 343.044Z" fill="white"/>
</g>
<g clip-path="url(#clip2_1394_143399)">
<path d="M396.263 344.293C395.328 344.293 394.49 344.707 393.916 345.359L392.446 344.318C392.602 343.888 392.692 343.427 392.692 342.944C392.692 342.469 392.605 342.016 392.454 341.592L393.921 340.563C394.495 341.211 395.331 341.623 396.263 341.623C397.988 341.623 399.391 340.22 399.391 338.494C399.391 336.769 397.988 335.366 396.263 335.366C394.537 335.366 393.134 336.769 393.134 338.494C393.134 338.803 393.181 339.101 393.264 339.383L391.796 340.413C391.183 339.653 390.3 339.121 389.294 338.959V337.19C390.711 336.892 391.779 335.633 391.779 334.129C391.779 332.403 390.376 331 388.651 331C386.925 331 385.522 332.403 385.522 334.129C385.522 335.613 386.562 336.857 387.951 337.176V338.968C386.055 339.301 384.609 340.955 384.609 342.944C384.609 344.943 386.07 346.603 387.979 346.925V348.817C386.576 349.126 385.522 350.377 385.522 351.871C385.522 353.597 386.925 355 388.651 355C390.376 355 391.779 353.597 391.779 351.871C391.779 350.377 390.725 349.126 389.322 348.817V346.925C390.288 346.762 391.163 346.253 391.782 345.494L393.262 346.542C393.18 346.821 393.134 347.116 393.134 347.422C393.134 349.147 394.537 350.55 396.263 350.55C397.988 350.55 399.391 349.147 399.391 347.422C399.391 345.696 397.988 344.293 396.263 344.293ZM396.263 336.977C397.099 336.977 397.779 337.658 397.779 338.494C397.779 339.331 397.099 340.011 396.263 340.011C395.426 340.011 394.746 339.331 394.746 338.494C394.746 337.658 395.426 336.977 396.263 336.977ZM387.134 334.129C387.134 333.292 387.814 332.612 388.651 332.612C389.487 332.612 390.167 333.292 390.167 334.129C390.167 334.965 389.487 335.646 388.651 335.646C387.814 335.646 387.134 334.965 387.134 334.129ZM390.167 351.871C390.167 352.708 389.487 353.388 388.651 353.388C387.814 353.388 387.134 352.708 387.134 351.871C387.134 351.035 387.814 350.354 388.651 350.354C389.487 350.354 390.167 351.035 390.167 351.871ZM388.65 345.06C387.484 345.06 386.535 344.111 386.535 342.944C386.535 341.777 387.484 340.828 388.65 340.828C389.817 340.828 390.766 341.777 390.766 342.944C390.766 344.111 389.817 345.06 388.65 345.06ZM396.263 348.939C395.426 348.939 394.746 348.258 394.746 347.422C394.746 346.585 395.426 345.905 396.263 345.905C397.099 345.905 397.779 346.585 397.779 347.422C397.779 348.258 397.099 348.939 396.263 348.939Z" fill="black"/>
</g>
<g clip-path="url(#clip3_1394_143399)">
<path fill-rule="evenodd" clip-rule="evenodd" d="M413.391 331H437.391V355H413.391V331Z" fill="white"/>
<path fill-rule="evenodd" clip-rule="evenodd" d="M433.375 346.092C433.055 346.126 432.736 346.16 432.417 346.16C428.098 346.16 424.602 342.966 424.602 339.033C424.602 335.588 427.375 332.681 430.871 332.059H433.375V346.092Z" fill="#28539C"/>
<path fill-rule="evenodd" clip-rule="evenodd" d="M433.373 346.916V353.941H417.406V332.059H421.154C420.095 333.605 419.473 335.47 419.473 337.47C419.473 342.966 424.196 347.437 430.011 347.437C431.152 347.437 432.286 347.262 433.373 346.916ZM418.734 351.437H419.473V349.924L421.07 351.437H421.995L422.062 349.453H421.339L421.272 350.966L421.238 350.949L419.692 349.453H418.734V351.437ZM424.448 349.823L425.087 350.697H424.129L423.944 350.966H425.289L425.641 351.437H426.448L424.919 349.453H424.028L422.465 351.437H423.272L424.448 349.823ZM427.289 351.437H428.011V349.756H429.154V349.453H426.146V349.756H427.289V351.437H427.289ZM431.944 349.487C431.641 349.437 431.322 349.42 430.969 349.42C430.263 349.42 429.557 349.571 429.557 350.008C429.557 350.664 431.339 350.512 431.339 350.882C431.339 351.067 430.919 351.151 430.616 351.151C430.303 351.15 429.992 351.105 429.692 351.017L429.625 351.386C430.028 351.42 430.213 351.454 430.667 351.454C431.473 351.454 432.179 351.286 432.179 350.865C432.179 350.193 430.398 350.344 430.398 349.991C430.398 349.79 430.767 349.722 431.036 349.722C431.322 349.722 431.608 349.756 431.86 349.807L431.944 349.487Z" fill="#28539C"/>
</g>
<g clip-path="url(#clip4_1394_143399)">
<path fill-rule="evenodd" clip-rule="evenodd" d="M460.833 331C458.95 331 457.423 332.478 457.423 334.302V336.587H463.325V337.222H454.8C452.917 337.222 451.391 338.7 451.391 340.524V345.476C451.391 347.3 452.917 348.778 454.8 348.778H456.768V345.984C456.768 344.161 458.294 342.683 460.178 342.683H466.473C468.066 342.683 469.358 341.432 469.358 339.889V334.302C469.358 332.478 467.831 331 465.948 331H460.833ZM460.046 335.063C460.698 335.063 461.227 334.552 461.227 333.921C461.227 333.289 460.698 332.778 460.046 332.778C459.394 332.778 458.866 333.289 458.866 333.921C458.866 334.552 459.394 335.063 460.046 335.063Z" fill="url(#paint1_linear_1394_143399)"/>
<path fill-rule="evenodd" clip-rule="evenodd" d="M465.946 355C467.83 355 469.356 353.522 469.356 351.699V349.413H463.455V348.778H471.979C473.862 348.778 475.389 347.3 475.389 345.477V340.524C475.389 338.701 473.862 337.223 471.979 337.223H470.012V340.016C470.012 341.84 468.485 343.318 466.602 343.318H460.307C458.714 343.318 457.422 344.569 457.422 346.111V351.699C457.422 353.522 458.949 355 460.832 355H465.946ZM466.733 350.937C466.081 350.937 465.553 351.449 465.553 352.08C465.553 352.711 466.081 353.223 466.733 353.223C467.385 353.223 467.914 352.711 467.914 352.08C467.914 351.449 467.385 350.937 466.733 350.937Z" fill="url(#paint2_linear_1394_143399)"/>
</g>
<g clip-path="url(#clip5_1394_143399)">
<path d="M513.391 331H489.391V355H513.391V331Z" fill="#FFCA28"/>
<path d="M503.961 350.962L505.728 349.793C505.866 350.228 506.743 351.261 507.851 351.261C508.959 351.261 509.473 350.656 509.473 350.255C509.473 349.162 508.342 348.776 507.799 348.591C507.71 348.561 507.637 348.536 507.587 348.515C507.562 348.504 507.523 348.489 507.473 348.47C506.869 348.239 504.64 347.387 504.64 344.919C504.64 342.199 507.264 341.887 507.858 341.887C508.246 341.887 510.113 341.934 511.042 343.681L509.328 344.878C508.952 344.116 508.328 343.865 507.943 343.865C506.994 343.865 506.796 344.561 506.796 344.878C506.796 345.767 507.828 346.165 508.699 346.502C508.927 346.59 509.143 346.674 509.328 346.761C510.277 347.209 511.675 347.944 511.675 350.255C511.675 351.412 510.704 353.287 508.26 353.287C504.976 353.287 504.106 351.315 503.961 350.962Z" fill="#3E3E3E"/>
<path d="M495.391 351.193L497.232 350.024C497.377 350.459 497.937 351.261 498.751 351.261C499.565 351.261 499.981 350.425 499.981 350.024V342.143H502.246V350.024C502.283 351.111 501.68 353.285 499.019 353.285C496.573 353.285 495.556 351.831 495.391 351.193Z" fill="#3E3E3E"/>
</g>
<g clip-path="url(#clip6_1394_143399)">
<path d="M373.112 363.035C378.416 362.667 381.933 365.263 383.944 368.425C384.952 370.011 385.941 372.419 385.946 374.893C385.951 377.582 385.08 379.91 383.944 381.618C382.776 383.374 381.266 384.824 379.375 385.776C376.214 387.368 371.796 387.412 368.902 385.879C365.68 384.172 363.202 381.736 362.28 377.511C361.911 375.821 361.869 373.636 362.383 371.762C362.503 371.322 362.723 370.859 362.896 370.427C363.73 368.35 365.15 366.543 366.9 365.294C367.604 364.791 368.457 364.292 369.21 363.959C370.147 363.544 371.725 363.131 373.112 363.035Z" fill="white"/>
<path d="M383.176 375.192C383.176 380.205 379.113 384.268 374.1 384.268C369.087 384.268 365.023 380.205 365.023 375.192C365.023 370.179 369.087 366.115 374.1 366.115C379.113 366.115 383.176 370.179 383.176 375.192Z" fill="black"/>
<path d="M373.112 363.035C378.416 362.667 381.933 365.263 383.944 368.425C384.952 370.011 385.941 372.419 385.946 374.893C385.951 377.582 385.08 379.91 383.944 381.618C382.776 383.374 381.266 384.824 379.375 385.776C376.214 387.368 371.796 387.412 368.902 385.879C365.68 384.172 363.202 381.736 362.28 377.511C361.911 375.821 361.869 373.636 362.383 371.762C362.503 371.322 362.723 370.859 362.896 370.427C363.73 368.35 365.15 366.543 366.9 365.294C367.604 364.791 368.457 364.292 369.21 363.959C370.147 363.544 371.725 363.131 373.112 363.035ZM371.315 363.908C369.345 364.418 367.901 365.333 366.644 366.32C364.831 367.743 363.676 369.729 362.999 372.121C362.246 374.782 362.73 378.002 363.769 380.027C364.847 382.126 366.294 383.756 368.338 384.904C370.326 386.02 373.123 386.737 376.038 386.187C378.628 385.698 380.596 384.57 382.198 382.902C384.343 380.67 386.066 376.559 384.919 372.224C384.613 371.065 384.212 369.858 383.584 368.836C383.245 368.283 382.748 367.74 382.25 367.193C380.369 365.128 377.329 363.348 373.42 363.599C372.676 363.647 372.022 363.724 371.315 363.908Z" fill="black"/>
<path d="M374.682 386.105L385.17 375.617L385.113 375.561L374.625 386.049L374.682 386.105Z" fill="white"/>
<path d="M373.76 385.276L384.294 374.742L384.237 374.686L373.703 385.219L373.76 385.276Z" fill="white"/>
<path d="M372.846 384.445L383.426 373.865L383.369 373.809L372.789 384.388L372.846 384.445Z" fill="white"/>
<path d="M371.932 383.614L382.557 372.988L382.501 372.932L371.875 383.557L371.932 383.614Z" fill="white"/>
<path d="M371.01 382.784L381.681 372.113L381.625 372.057L370.953 382.728L371.01 382.784Z" fill="white"/>
<path d="M370.096 381.953L380.813 371.236L380.756 371.18L370.039 381.897L370.096 381.953Z" fill="white"/>
<path d="M369.174 381.122L379.937 370.359L379.88 370.303L369.117 381.066L369.174 381.122Z" fill="white"/>
<path d="M368.26 380.291L379.068 369.482L379.012 369.426L368.203 380.234L368.26 380.291Z" fill="white"/>
<path d="M367.346 379.462L378.2 368.607L378.143 368.551L367.289 379.405L367.346 379.462Z" fill="white"/>
<path d="M366.424 378.631L377.324 367.73L377.267 367.674L366.367 378.574L366.424 378.631Z" fill="white"/>
<path d="M365.51 377.799L376.456 366.853L376.399 366.797L365.453 377.743L365.51 377.799Z" fill="white"/>
<path d="M364.596 376.97L375.587 365.978L375.531 365.922L364.539 376.914L364.596 376.97Z" fill="white"/>
<path d="M363.674 376.139L374.711 365.102L374.655 365.045L363.617 376.082L363.674 376.139Z" fill="white"/>
<path d="M362.76 375.308L373.843 364.225L373.786 364.168L362.703 375.251L362.76 375.308Z" fill="white"/>
<path d="M362.695 375.414L373.393 386.112L373.45 386.056L362.752 375.357L362.695 375.414Z" fill="white"/>
<path d="M363.562 374.535L374.281 385.254L374.338 385.198L363.619 374.479L363.562 374.535Z" fill="white"/>
<path d="M364.43 373.654L375.169 384.394L375.226 384.338L364.486 373.598L364.43 373.654Z" fill="white"/>
<path d="M365.297 372.775L376.057 383.536L376.114 383.48L365.353 372.719L365.297 372.775Z" fill="white"/>
<path d="M366.164 371.894L376.945 382.676L377.002 382.619L366.221 371.838L366.164 371.894Z" fill="white"/>
<path d="M367.031 371.016L377.833 381.818L377.89 381.761L367.088 370.959L367.031 371.016Z" fill="white"/>
<path d="M367.898 370.135L378.721 380.958L378.778 380.901L367.955 370.078L367.898 370.135Z" fill="white"/>
<path d="M368.766 369.254L379.609 380.098L379.666 380.041L368.822 369.197L368.766 369.254Z" fill="white"/>
<path d="M369.633 368.375L380.497 379.24L380.554 379.183L369.689 368.318L369.633 368.375Z" fill="white"/>
<path d="M370.5 367.494L381.385 378.38L381.442 378.323L370.557 367.438L370.5 367.494Z" fill="white"/>
<path d="M371.367 366.615L382.273 377.522L382.33 377.465L371.424 366.559L371.367 366.615Z" fill="white"/>
<path d="M372.234 365.734L383.161 376.661L383.218 376.605L372.291 365.678L372.234 365.734Z" fill="white"/>
<path d="M373.109 364.855L384.057 375.803L384.114 375.747L373.166 364.799L373.109 364.855Z" fill="white"/>
<path d="M373.977 363.975L384.945 374.943L385.002 374.887L374.033 363.918L373.977 363.975Z" fill="white"/>
<path d="M381.64 367.244C380.696 366.3 379.536 365.449 378.15 364.933C376.713 364.399 375.087 363.949 373.17 364.112C370.116 364.372 367.972 365.743 366.342 367.346C365.201 368.469 364.342 369.846 363.776 371.453C362.943 373.813 362.994 376.598 363.93 378.999C364.728 381.047 366.034 382.699 367.882 383.979C369.62 385.182 372.114 386.115 374.915 385.878C378.327 385.59 380.824 383.84 382.462 381.823C382.881 381.307 383.298 380.724 383.54 380.026C383.777 379.524 383.893 379.182 384.002 378.999C384.457 377.98 384.698 376.904 384.772 375.714C384.999 372.053 383.591 369.194 381.64 367.244ZM380.635 378.396C380.628 378.41 380.623 378.423 380.616 378.438C380.446 378.922 380.155 379.327 379.862 379.685C378.716 381.086 376.971 382.301 374.585 382.502C372.626 382.666 370.882 382.018 369.666 381.183C368.61 380.457 367.808 379.558 367.245 378.478C367.211 378.413 366.884 377.66 366.883 377.627C366.437 376.244 366.398 374.02 366.856 372.685C367.161 371.794 367.67 370.831 368.345 370.067C369.275 369.013 370.207 368.337 371.681 367.86C372.354 367.642 372.957 367.42 373.786 367.398C375.807 367.344 377.866 368.251 378.971 369.246C379.987 370.159 381.144 371.939 381.435 373.609C381.735 375.328 381.415 377.006 380.635 378.396Z" fill="black"/>
<path d="M377.114 380.045C376.616 380.045 376.179 379.73 376.027 379.261L375.473 377.572H372.699L372.184 379.245C372.029 379.724 371.589 380.044 371.088 380.044C370.968 380.044 370.849 380.025 370.734 379.987C370.136 379.808 369.796 379.164 369.979 378.553L372.32 371.139C372.472 370.667 372.92 370.338 373.409 370.338H374.653C375.145 370.338 375.592 370.661 375.741 371.124L378.203 378.537C378.4 379.143 378.074 379.793 377.477 379.987C377.359 380.026 377.237 380.045 377.114 380.045Z" fill="white"/>
<path d="M377.117 379.885C376.671 379.885 376.28 379.603 376.144 379.184L375.589 377.494L375.562 377.411H375.475H372.702H372.613L372.587 377.496L372.072 379.17C371.933 379.597 371.539 379.884 371.091 379.884C370.983 379.884 370.877 379.867 370.773 379.833C370.236 379.672 369.933 379.095 370.097 378.548L372.437 371.135C372.573 370.713 372.975 370.418 373.411 370.418H374.656C375.095 370.418 375.497 370.708 375.63 371.121L378.092 378.534C378.268 379.077 377.976 379.659 377.442 379.833C377.336 379.868 377.227 379.885 377.117 379.885ZM377.117 380.125C377.252 380.125 377.387 380.104 377.517 380.061C378.177 379.846 378.537 379.128 378.32 378.459L375.858 371.046C375.693 370.535 375.199 370.178 374.656 370.178H373.411C372.87 370.178 372.376 370.541 372.209 371.062L369.867 378.477C369.665 379.152 370.039 379.863 370.702 380.062C370.826 380.103 370.958 380.124 371.091 380.124C371.643 380.124 372.129 379.77 372.301 379.242L372.817 377.567L372.702 377.652H375.475L375.361 377.569L375.916 379.258C376.084 379.777 376.567 380.125 377.117 380.125Z" fill="black"/>
<path d="M367.924 367.975L367.921 367.971C367.629 367.571 367.715 367.011 368.145 366.697C368.575 366.384 369.127 366.472 369.419 366.872L369.422 366.876C369.714 367.276 369.628 367.835 369.198 368.149C368.768 368.463 368.216 368.375 367.924 367.975ZM369.031 367.167L369.028 367.163C368.881 366.962 368.608 366.893 368.395 367.048C368.184 367.202 368.168 367.477 368.314 367.678L368.317 367.682C368.464 367.883 368.737 367.952 368.948 367.798C369.161 367.643 369.177 367.368 369.031 367.167Z" fill="white"/>
<path d="M370.739 365.354L371.177 365.213L372.407 366.643L371.919 366.799L371.706 366.544L371.072 366.748L371.049 367.079L370.57 367.232L370.739 365.354ZM371.461 366.232L371.128 365.824L371.092 366.35L371.461 366.232Z" fill="white"/>
<path d="M373.195 365.783L373.199 364.814L373.685 364.816L373.681 365.775C373.68 366.024 373.805 366.143 373.997 366.143C374.189 366.144 374.316 366.031 374.316 365.79L374.32 364.819L374.806 364.821L374.802 365.777C374.8 366.334 374.481 366.577 373.991 366.575C373.5 366.573 373.193 366.322 373.195 365.783Z" fill="white"/>
<path d="M376.557 365.614L376.062 365.463L376.185 365.062L377.632 365.504L377.509 365.905L377.015 365.754L376.633 367.003L376.176 366.863L376.557 365.614Z" fill="white"/>
<path d="M378.924 366.062L379.322 366.327L378.965 366.865L379.475 367.205L379.833 366.667L380.231 366.932L379.275 368.368L378.877 368.103L379.241 367.557L378.73 367.218L378.367 367.763L377.969 367.498L378.924 366.062Z" fill="white"/>
<path d="M380.334 381.761L380.337 381.765C380.644 382.153 380.58 382.716 380.162 383.046C379.745 383.376 379.189 383.309 378.882 382.92L378.879 382.916C378.572 382.528 378.636 381.965 379.054 381.635C379.472 381.305 380.027 381.372 380.334 381.761ZM379.259 382.61L379.262 382.614C379.416 382.809 379.692 382.868 379.899 382.705C380.104 382.543 380.11 382.268 379.955 382.073L379.952 382.069C379.798 381.873 379.522 381.815 379.317 381.977C379.111 382.14 379.105 382.415 379.259 382.61Z" fill="white"/>
<path d="M377.638 384.493L377.206 384.653L375.914 383.279L376.395 383.101L376.619 383.346L377.243 383.115L377.252 382.784L377.723 382.609L377.638 384.493ZM376.878 383.647L377.228 384.041L377.241 383.513L376.878 383.647Z" fill="white"/>
<path d="M375.161 384.166L375.203 385.133L374.718 385.155L374.676 384.197C374.665 383.949 374.534 383.836 374.342 383.844C374.15 383.853 374.03 383.972 374.04 384.213L374.083 385.183L373.598 385.204L373.556 384.249C373.531 383.693 373.838 383.435 374.328 383.413C374.818 383.392 375.137 383.627 375.161 384.166Z" fill="white"/>
<path d="M371.789 384.481L372.289 384.616L372.18 385.021L370.719 384.626L370.828 384.222L371.328 384.357L371.668 383.096L372.129 383.22L371.789 384.481Z" fill="white"/>
<path d="M369.432 384.13L369.022 383.884L369.354 383.331L368.828 383.015L368.496 383.569L368.086 383.323L368.973 381.844L369.383 382.09L369.046 382.652L369.572 382.967L369.909 382.405L370.319 382.651L369.432 384.13Z" fill="white"/>
</g>
<g clip-path="url(#clip7_1394_143399)">
<path d="M405.946 386.261C406.312 386.738 406.87 387 407.444 387H416.446C417.02 387 417.577 386.717 417.946 386.256L423.531 379.094C423.898 378.617 424.024 378.009 423.898 377.417L421.9 368.491C421.839 368.205 421.714 367.936 421.534 367.705C421.354 367.475 421.124 367.288 420.862 367.159L412.78 363.199C412.523 363.068 412.238 362.999 411.949 363C411.661 363 411.375 363.065 411.118 363.197L403.035 367.174C402.772 367.304 402.543 367.491 402.363 367.721C402.184 367.952 402.059 368.22 401.998 368.506L400 377.434C399.856 378.026 400 378.634 400.367 379.111L405.946 386.259V386.261Z" fill="#326DE6"/>
<path fill-rule="evenodd" clip-rule="evenodd" d="M420.077 376.933C420.245 376.936 420.413 376.95 420.579 376.974L420.679 376.996L420.732 377.01C420.804 377.02 420.874 377.044 420.936 377.082C420.998 377.12 421.052 377.171 421.094 377.23C421.136 377.29 421.165 377.358 421.179 377.429C421.194 377.501 421.193 377.575 421.177 377.646C421.161 377.718 421.13 377.785 421.086 377.844C421.043 377.903 420.987 377.952 420.923 377.988C420.859 378.024 420.788 378.046 420.715 378.053C420.642 378.06 420.568 378.052 420.499 378.028H420.492L420.487 378.027L420.481 378.023C420.464 378.02 420.447 378.016 420.43 378.013L420.344 377.996C420.184 377.944 420.027 377.884 419.875 377.814C419.579 377.695 419.273 377.605 418.961 377.545C418.852 377.542 418.747 377.581 418.668 377.655C418.593 377.64 418.518 377.627 418.443 377.615C417.935 379.208 416.858 380.557 415.419 381.407C415.445 381.479 415.474 381.549 415.507 381.618C415.453 381.712 415.439 381.823 415.467 381.927C415.594 382.218 415.75 382.496 415.932 382.756C416.035 382.89 416.127 383.031 416.213 383.175L416.261 383.272L416.281 383.315C416.339 383.41 416.364 383.521 416.355 383.631C416.345 383.741 416.301 383.846 416.229 383.93C416.156 384.013 416.059 384.072 415.951 384.097C415.843 384.122 415.73 384.113 415.628 384.069C415.56 384.041 415.499 383.999 415.448 383.946C415.397 383.893 415.358 383.83 415.333 383.761L415.316 383.727C415.3 383.694 415.284 383.661 415.268 383.627C415.208 383.47 415.157 383.31 415.116 383.147C415.025 382.844 414.904 382.55 414.756 382.269C414.691 382.182 414.595 382.124 414.488 382.107L414.437 382.016L414.377 381.906C412.817 382.495 411.095 382.491 409.537 381.894L409.417 382.108C409.333 382.121 409.254 382.16 409.191 382.218C409.012 382.511 408.875 382.827 408.785 383.157C408.744 383.32 408.694 383.48 408.634 383.637C408.62 383.666 408.606 383.695 408.591 383.723L408.569 383.769C408.544 383.839 408.505 383.904 408.454 383.957C408.404 384.01 408.342 384.052 408.274 384.08C408.206 384.108 408.133 384.122 408.059 384.119C407.986 384.117 407.913 384.1 407.847 384.068C407.748 384.02 407.666 383.943 407.612 383.846C407.559 383.75 407.538 383.639 407.551 383.529C407.559 383.457 407.583 383.387 407.621 383.324L407.645 383.272L407.689 383.183C407.775 383.037 407.868 382.899 407.971 382.765C408.156 382.497 408.313 382.213 408.445 381.915C408.459 381.813 408.442 381.71 408.397 381.618L408.493 381.39C407.059 380.547 405.984 379.208 405.469 377.625L405.24 377.665C405.151 377.602 405.046 377.565 404.938 377.559C404.625 377.618 404.319 377.708 404.024 377.826C403.87 377.895 403.714 377.955 403.555 378.006C403.526 378.013 403.498 378.019 403.469 378.025L403.417 378.037H403.412L403.409 378.04H403.4C403.313 378.068 403.221 378.073 403.131 378.054C403.042 378.036 402.959 377.994 402.89 377.934C402.822 377.874 402.77 377.797 402.74 377.711C402.71 377.624 402.703 377.532 402.72 377.442C402.741 377.334 402.795 377.235 402.876 377.16C402.956 377.084 403.058 377.036 403.167 377.022L403.176 377.02H403.179L403.189 377.017C403.231 377.007 403.282 376.993 403.32 376.986C403.486 376.964 403.654 376.95 403.822 376.947C404.141 376.924 404.456 376.873 404.763 376.792C404.854 376.734 404.931 376.656 404.988 376.564L405.207 376.501C404.969 374.85 405.351 373.169 406.279 371.783L406.111 371.634C406.104 371.525 406.067 371.421 406.004 371.332C405.763 371.125 405.501 370.942 405.224 370.785C405.074 370.709 404.929 370.625 404.789 370.532L404.707 370.467L404.681 370.444L404.674 370.439C404.554 370.354 404.474 370.225 404.449 370.08C404.425 369.936 404.459 369.787 404.544 369.668C404.594 369.606 404.658 369.558 404.731 369.526C404.804 369.494 404.883 369.48 404.962 369.484C405.095 369.49 405.223 369.538 405.327 369.621L405.365 369.651C405.392 369.673 405.423 369.695 405.444 369.714C405.567 369.829 405.682 369.952 405.79 370.079C406.004 370.314 406.241 370.528 406.496 370.717C406.592 370.768 406.704 370.779 406.808 370.748L406.997 370.881C408.145 369.664 409.704 368.916 411.372 368.783L411.385 368.562C411.467 368.49 411.526 368.396 411.555 368.291C411.567 367.974 411.547 367.656 411.497 367.343C411.463 367.179 411.439 367.013 411.425 366.846V366.705V366.697C411.417 366.624 411.425 366.55 411.448 366.48C411.471 366.41 411.509 366.346 411.558 366.291C411.608 366.237 411.668 366.193 411.736 366.164C411.803 366.134 411.876 366.119 411.949 366.119C412.023 366.119 412.095 366.135 412.163 366.165C412.23 366.194 412.29 366.238 412.339 366.292C412.389 366.347 412.426 366.411 412.449 366.48C412.472 366.55 412.481 366.624 412.474 366.697V366.846C412.46 367.013 412.437 367.179 412.404 367.343C412.353 367.656 412.333 367.974 412.344 368.291C412.364 368.398 412.426 368.492 412.515 368.553V368.565L412.527 368.787C414.185 368.937 415.733 369.681 416.881 370.883L417.08 370.743C417.188 370.761 417.298 370.749 417.399 370.708C417.655 370.52 417.891 370.304 418.105 370.069C418.213 369.94 418.328 369.819 418.452 369.704L418.539 369.635L418.568 369.611C418.621 369.559 418.683 369.519 418.753 369.493C418.822 369.467 418.895 369.455 418.969 369.459C419.043 369.464 419.115 369.484 419.181 369.517C419.246 369.551 419.304 369.599 419.35 369.656C419.396 369.714 419.429 369.781 419.448 369.852C419.467 369.924 419.47 369.998 419.458 370.071C419.446 370.144 419.418 370.214 419.378 370.275C419.337 370.337 419.284 370.389 419.221 370.429L419.18 370.463C419.155 370.484 419.129 370.506 419.107 370.521C418.966 370.614 418.821 370.699 418.671 370.775C418.394 370.932 418.133 371.116 417.891 371.324C417.821 371.405 417.785 371.511 417.792 371.619L417.706 371.694L417.607 371.785C418.536 373.167 418.927 374.841 418.699 376.491L418.909 376.552C418.963 376.647 419.041 376.725 419.137 376.779C419.444 376.861 419.76 376.912 420.077 376.933ZM410.734 370.268C410.917 370.227 411.104 370.194 411.293 370.172L411.139 372.915L411.125 372.921C411.122 372.984 411.107 373.045 411.08 373.101C411.053 373.158 411.015 373.208 410.968 373.249C410.921 373.29 410.866 373.321 410.807 373.34C410.747 373.359 410.685 373.366 410.623 373.36C410.539 373.353 410.459 373.324 410.391 373.275L410.388 373.276L408.132 371.682C408.85 370.979 409.752 370.489 410.734 370.268ZM413.508 373.268L415.75 371.684C414.896 370.849 413.792 370.318 412.608 370.172L412.762 372.911H412.765C412.768 372.974 412.783 373.035 412.81 373.091C412.837 373.148 412.876 373.198 412.923 373.239C412.97 373.28 413.025 373.311 413.085 373.33C413.144 373.349 413.207 373.356 413.269 373.35C413.353 373.343 413.433 373.313 413.501 373.264L413.508 373.268ZM417.361 376.107L414.708 375.342L414.704 375.332C414.644 375.315 414.588 375.286 414.539 375.248C414.49 375.209 414.45 375.16 414.42 375.105C414.391 375.05 414.372 374.99 414.367 374.928C414.361 374.866 414.368 374.803 414.387 374.744C414.413 374.664 414.461 374.593 414.524 374.538L414.521 374.536L416.569 372.707C417.197 373.725 417.473 374.919 417.358 376.107H417.361ZM413.828 377.571L414.888 380.125C415.901 379.48 416.67 378.516 417.073 377.385L414.343 376.924L414.339 376.929C414.242 376.911 414.142 376.925 414.055 376.969C413.948 377.021 413.866 377.112 413.824 377.223C413.783 377.334 413.785 377.456 413.832 377.565L413.828 377.571ZM413.168 380.836C412.186 381.059 411.163 381.008 410.208 380.685L411.54 378.285C411.579 378.212 411.64 378.151 411.711 378.108C411.783 378.065 411.865 378.042 411.948 378.042C412.031 378.042 412.113 378.064 412.185 378.107C412.257 378.149 412.316 378.21 412.356 378.284H412.366L413.701 380.687C413.526 380.746 413.348 380.795 413.168 380.836ZM409.023 380.113L410.071 377.586L410.064 377.576C410.097 377.499 410.109 377.414 410.098 377.331C410.087 377.248 410.053 377.17 410.001 377.105C409.948 377.039 409.879 376.99 409.8 376.961C409.722 376.932 409.637 376.925 409.555 376.941L409.549 376.936L406.843 377.394C407.25 378.516 408.017 379.472 409.023 380.113ZM407.314 372.707L409.373 374.543L409.371 374.555C409.434 374.61 409.481 374.681 409.506 374.76C409.532 374.839 409.536 374.924 409.517 375.005C409.498 375.087 409.458 375.161 409.4 375.222C409.343 375.282 409.27 375.325 409.189 375.347L409.188 375.356L406.548 376.115C406.416 374.926 406.686 373.726 407.314 372.707ZM412.371 374.685H411.528L411.001 375.337L411.19 376.153L411.949 376.518L412.707 376.155L412.896 375.339L412.371 374.685Z" fill="white"/>
</g>
<g clip-path="url(#clip8_1394_143399)">
<path d="M449.945 363C443.333 363 437.945 368.349 437.945 375C437.945 381.651 443.296 387 449.945 387C456.595 387 461.945 381.65 461.945 375C461.945 368.35 456.557 363 449.945 363ZM449.945 381C446.62 381 443.945 378.326 443.945 375C443.945 371.674 446.62 369 449.945 369C453.271 369 455.945 371.674 455.945 375C455.945 378.326 453.271 381 449.945 381Z" fill="#007DC1"/>
</g>
<g clip-path="url(#clip9_1394_143399)">
<path d="M482.154 375.79C482.147 376.01 482.176 376.23 482.235 376.443C482.301 376.626 482.382 376.802 482.47 376.971C482.499 377.022 482.521 377.081 482.521 377.14C482.514 377.228 482.462 377.316 482.382 377.36L481.92 377.668C481.861 377.705 481.795 377.734 481.729 377.734C481.648 377.727 481.568 377.69 481.509 377.631C481.414 377.529 481.318 377.411 481.245 377.286C481.172 377.162 481.098 377.022 481.018 376.854C480.445 377.529 479.727 377.866 478.861 377.866C478.245 377.866 477.754 377.69 477.394 377.338C477.035 376.986 476.852 376.516 476.852 375.93C476.852 375.306 477.072 374.8 477.519 374.419C477.966 374.037 478.561 373.847 479.316 373.847C479.573 373.847 479.837 373.869 480.093 373.905C480.365 373.942 480.644 374.001 480.937 374.067V373.531C480.937 372.974 480.82 372.585 480.592 372.358C480.365 372.13 479.961 372.02 479.397 372.02C479.133 372.02 478.861 372.05 478.605 372.116C478.333 372.182 478.069 372.262 477.812 372.365C477.732 372.402 477.644 372.431 477.556 372.46C477.519 372.475 477.475 372.482 477.438 372.482C477.336 372.482 477.284 372.409 477.284 372.255V371.896C477.277 371.808 477.299 371.72 477.336 371.639C477.394 371.573 477.46 371.522 477.541 371.485C477.834 371.338 478.142 371.228 478.465 371.155C478.839 371.059 479.228 371.015 479.609 371.015C480.482 371.015 481.12 371.213 481.531 371.61C481.942 372.006 482.14 372.607 482.14 373.414V375.79H482.154ZM479.177 376.905C479.433 376.905 479.69 376.861 479.932 376.773C480.203 376.678 480.438 376.516 480.629 376.304C480.746 376.172 480.834 376.01 480.878 375.834C480.93 375.629 480.952 375.409 480.952 375.196V374.888C480.732 374.837 480.504 374.793 480.277 374.763C480.049 374.734 479.815 374.719 479.587 374.719C479.096 374.719 478.737 374.815 478.494 375.013C478.252 375.211 478.135 375.49 478.135 375.856C478.135 376.201 478.223 376.458 478.406 376.634C478.59 376.81 478.839 376.905 479.177 376.905ZM485.066 377.697C484.971 377.705 484.868 377.683 484.788 377.624C484.714 377.543 484.656 377.448 484.634 377.338L482.91 371.668C482.873 371.573 482.851 371.478 482.844 371.375C482.837 371.287 482.895 371.206 482.983 371.191H483.746C483.885 371.191 483.981 371.213 484.032 371.265C484.083 371.316 484.135 371.412 484.179 371.551L485.404 376.406L486.548 371.551C486.584 371.404 486.629 371.309 486.687 371.265C486.775 371.213 486.878 371.184 486.981 371.191H487.567C487.707 371.191 487.802 371.213 487.861 371.265C487.934 371.346 487.985 371.441 488 371.551L489.159 376.465L490.428 371.551C490.45 371.441 490.501 371.346 490.574 371.265C490.663 371.213 490.758 371.184 490.861 371.191H491.543C491.631 371.177 491.711 371.243 491.726 371.331V371.375C491.726 371.412 491.719 371.456 491.711 371.492C491.697 371.558 491.682 371.617 491.66 371.676L489.892 377.345C489.848 377.492 489.797 377.587 489.738 377.631C489.658 377.683 489.555 377.712 489.46 377.705H488.829C488.69 377.705 488.594 377.683 488.535 377.631C488.462 377.551 488.411 377.448 488.396 377.338L487.259 372.607L486.13 377.33C486.115 377.441 486.064 377.543 485.99 377.624C485.902 377.683 485.8 377.705 485.697 377.697H485.066ZM494.491 377.895C494.11 377.895 493.728 377.851 493.362 377.763C492.995 377.675 492.709 377.58 492.518 377.47C492.423 377.426 492.342 377.353 492.291 377.264C492.261 377.198 492.247 377.132 492.247 377.059V376.685C492.247 376.531 492.305 376.458 492.415 376.458C492.459 376.458 492.503 376.465 492.547 376.48C492.591 376.494 492.657 376.524 492.731 376.553C492.988 376.67 493.259 376.751 493.538 376.81C493.824 376.868 494.117 376.898 494.41 376.898C494.873 376.898 495.232 376.817 495.481 376.656C495.723 376.509 495.87 376.245 495.863 375.959C495.87 375.768 495.797 375.585 495.665 375.446C495.533 375.306 495.283 375.181 494.924 375.064L493.86 374.734C493.325 374.565 492.929 374.316 492.687 373.986C492.452 373.678 492.32 373.311 492.32 372.922C492.313 372.636 492.379 372.358 492.518 372.108C492.65 371.874 492.826 371.668 493.046 371.507C493.274 371.331 493.53 371.206 493.809 371.125C494.11 371.037 494.418 370.993 494.733 371.001C494.895 371.001 495.063 371.008 495.225 371.03C495.393 371.052 495.547 371.081 495.701 371.111C495.855 371.14 495.987 371.184 496.119 371.228C496.229 371.265 496.332 371.309 496.427 371.36C496.515 371.404 496.589 371.463 496.647 371.544C496.699 371.617 496.721 371.698 496.714 371.786V372.13C496.714 372.284 496.655 372.365 496.545 372.365C496.449 372.35 496.354 372.321 496.266 372.277C495.826 372.079 495.342 371.984 494.858 371.991C494.44 371.991 494.11 372.057 493.882 372.196C493.655 372.336 493.538 372.548 493.538 372.849C493.53 373.047 493.611 373.238 493.758 373.37C493.904 373.509 494.176 373.649 494.564 373.773L495.606 374.103C496.134 374.272 496.515 374.507 496.743 374.807C496.97 375.101 497.088 375.468 497.08 375.834C497.088 376.128 497.022 376.421 496.89 376.685C496.758 376.934 496.574 377.154 496.354 377.33C496.112 377.521 495.833 377.661 495.54 377.741C495.203 377.844 494.851 377.895 494.491 377.895Z" fill="#252F3E"/>
<path d="M495.883 381.461C493.47 383.244 489.964 384.19 486.949 384.19C482.725 384.19 478.918 382.627 476.043 380.031C475.816 379.826 476.021 379.547 476.292 379.708C479.402 381.513 483.238 382.605 487.206 382.605C490.067 382.591 492.898 382.011 495.531 380.904C495.934 380.721 496.279 381.168 495.883 381.461Z" fill="#FF9900"/>
<path d="M496.89 380.318C496.582 379.922 494.851 380.127 494.066 380.223C493.831 380.252 493.795 380.047 494.008 379.893C495.386 378.924 497.653 379.203 497.917 379.526C498.181 379.849 497.843 382.122 496.553 383.208C496.355 383.377 496.164 383.289 496.252 383.068C496.545 382.342 497.198 380.707 496.89 380.318Z" fill="#FF9900"/>
</g>
<path d="M128.354 230.646C128.158 230.451 127.842 230.451 127.646 230.646L124.464 233.828C124.269 234.024 124.269 234.34 124.464 234.536C124.66 234.731 124.976 234.731 125.172 234.536L128 231.707L130.828 234.536C131.024 234.731 131.34 234.731 131.536 234.536C131.731 234.34 131.731 234.024 131.536 233.828L128.354 230.646ZM425.646 280.354C425.842 280.549 426.158 280.549 426.354 280.354L429.536 277.172C429.731 276.976 429.731 276.66 429.536 276.464C429.34 276.269 429.024 276.269 428.828 276.464L426 279.293L423.172 276.464C422.976 276.269 422.66 276.269 422.464 276.464C422.269 276.66 422.269 276.976 422.464 277.172L425.646 280.354ZM128 231H127.5V231.5H128H128.5V231H128ZM152 255.5V256H402V255.5V255H152V255.5ZM426 279.5H425.5V280H426H426.5V279.5H426ZM402 255.5V256C414.979 256 425.5 266.521 425.5 279.5H426H426.5C426.5 265.969 415.531 255 402 255V255.5ZM128 231.5H127.5C127.5 245.031 138.469 256 152 256V255.5V255C139.021 255 128.5 244.479 128.5 231.5H128Z" fill="#EA4A35"/>
<path d="M128.354 230.646C128.158 230.451 127.842 230.451 127.646 230.646L124.464 233.828C124.269 234.024 124.269 234.34 124.464 234.536C124.66 234.731 124.976 234.731 125.172 234.536L128 231.707L130.828 234.536C131.024 234.731 131.34 234.731 131.536 234.536C131.731 234.34 131.731 234.024 131.536 233.828L128.354 230.646ZM127.646 278.354C127.842 278.549 128.158 278.549 128.354 278.354L131.536 275.172C131.731 274.976 131.731 274.66 131.536 274.464C131.34 274.269 131.024 274.269 130.828 274.464L128 277.293L125.172 274.464C124.976 274.269 124.66 274.269 124.464 274.464C124.269 274.66 124.269 274.976 124.464 275.172L127.646 278.354ZM128 231H127.5V278H128H128.5V231H128Z" fill="#EA4A35"/>
<defs>
<filter id="filter0_d_1394_143399" x="0" y="0" width="256" height="236" filterUnits="userSpaceOnUse" color-interpolation-filters="sRGB">
<feFlood flood-opacity="0" result="BackgroundImageFix"/>
<feColorMatrix in="SourceAlpha" type="matrix" values="0 0 0 0 0 0 0 0 0 0 0 0 0 0 0 0 0 0 127 0" result="hardAlpha"/>
<feMorphology radius="6" operator="dilate" in="SourceAlpha" result="effect1_dropShadow_1394_143399"/>
<feOffset/>
<feComposite in2="hardAlpha" operator="out"/>
<feColorMatrix type="matrix" values="0 0 0 0 0.976471 0 0 0 0 0.921569 0 0 0 0 0.913725 0 0 0 1 0"/>
<feBlend mode="normal" in2="BackgroundImageFix" result="effect1_dropShadow_1394_143399"/>
<feBlend mode="normal" in="SourceGraphic" in2="effect1_dropShadow_1394_143399" result="shape"/>
</filter>
<filter id="filter1_d_1394_143399" x="298" y="0" width="256" height="236" filterUnits="userSpaceOnUse" color-interpolation-filters="sRGB">
<feFlood flood-opacity="0" result="BackgroundImageFix"/>
<feColorMatrix in="SourceAlpha" type="matrix" values="0 0 0 0 0 0 0 0 0 0 0 0 0 0 0 0 0 0 127 0" result="hardAlpha"/>
<feMorphology radius="6" operator="dilate" in="SourceAlpha" result="effect1_dropShadow_1394_143399"/>
<feOffset/>
<feComposite in2="hardAlpha" operator="out"/>
<feColorMatrix type="matrix" values="0 0 0 0 0.976471 0 0 0 0 0.921569 0 0 0 0 0.913725 0 0 0 1 0"/>
<feBlend mode="normal" in2="BackgroundImageFix" result="effect1_dropShadow_1394_143399"/>
<feBlend mode="normal" in="SourceGraphic" in2="effect1_dropShadow_1394_143399" result="shape"/>
</filter>
<linearGradient id="paint0_linear_1394_143399" x1="79.8516" y1="378.021" x2="79.8516" y2="353.381" gradientUnits="userSpaceOnUse">
<stop stop-color="#FCEE1F"/>
<stop offset="1" stop-color="#F15B2A"/>
</linearGradient>
<linearGradient id="paint1_linear_1394_143399" x1="460.374" y1="331" x2="460.374" y2="348.778" gradientUnits="userSpaceOnUse">
<stop stop-color="#327EBD"/>
<stop offset="1" stop-color="#1565A7"/>
</linearGradient>
<linearGradient id="paint2_linear_1394_143399" x1="466.406" y1="337.223" x2="466.406" y2="355" gradientUnits="userSpaceOnUse">
<stop stop-color="#FFDA4B"/>
<stop offset="1" stop-color="#F9C600"/>
</linearGradient>
<clipPath id="clip0_1394_143399">
<rect width="24" height="24.7394" fill="white" transform="translate(414 122.631)"/>
</clipPath>
<clipPath id="clip1_1394_143399">
<rect width="24" height="32" fill="white" transform="translate(346.609 327)"/>
</clipPath>
<clipPath id="clip2_1394_143399">
<rect width="14.7818" height="32" fill="white" transform="translate(384.609 327)"/>
</clipPath>
<clipPath id="clip3_1394_143399">
<rect width="24" height="32" fill="white" transform="translate(413.391 327)"/>
</clipPath>
<clipPath id="clip4_1394_143399">
<rect width="23.9984" height="32.0004" fill="white" transform="translate(451.391 327)"/>
</clipPath>
<clipPath id="clip5_1394_143399">
<rect width="24" height="32" fill="white" transform="translate(489.391 327)"/>
</clipPath>
<clipPath id="clip6_1394_143399">
<rect width="23.9458" height="32" fill="white" transform="translate(362 359)"/>
</clipPath>
<clipPath id="clip7_1394_143399">
<rect width="24" height="32" fill="white" transform="translate(399.945 359)"/>
</clipPath>
<clipPath id="clip8_1394_143399">
<rect width="24" height="32" fill="white" transform="translate(437.945 359)"/>
</clipPath>
<clipPath id="clip9_1394_143399">
<rect width="22.0551" height="37.1898" fill="white" transform="translate(475.945 359)"/>
</clipPath>
</defs>
</svg>
