<svg width="97" height="97" viewBox="0 0 97 97" fill="none" xmlns="http://www.w3.org/2000/svg">
<path d="M46.3554 61.0942V55.1673C46.4076 54.9795 63.698 45.1499 63.698 45.1499V51.0769L46.3554 61.0942Z" fill="#FFB8B6"/>
<path d="M71.6597 43.6162C71.6597 44.8788 70.7728 46.4127 69.6771 47.0388C68.5815 47.6649 67.6945 47.164 67.6945 45.9119C67.6945 44.6493 68.5815 43.1154 69.6771 42.4893C70.7728 41.8632 71.6597 42.364 71.6597 43.6162Z" fill="#FFB8B6"/>
<path d="M77.618 39.9849C77.618 41.2475 76.731 42.7814 75.6354 43.4075C74.5397 44.0336 73.6528 43.5327 73.6528 42.2805C73.6528 41.0179 74.5397 39.484 75.6354 38.8579C76.731 38.2318 77.618 38.7327 77.618 39.9849Z" fill="#FFB8B6"/>
<path d="M83.4406 36.6353C83.4406 37.8979 82.5536 39.4318 81.458 40.0579C80.3623 40.684 79.4754 40.1831 79.4754 38.9309C79.4754 37.6683 80.3623 36.1344 81.458 35.5083C82.5536 34.8822 83.4406 35.3831 83.4406 36.6353Z" fill="#FFB8B6"/>
<path d="M46.3554 81.0664V75.1395C46.4076 74.9516 63.698 65.1221 63.698 65.1221V71.049L46.3554 81.0664Z" fill="#FFB8B6"/>
<path d="M71.6597 63.5781C71.6597 64.8407 70.7728 66.3747 69.6771 67.0007C68.5815 67.6268 67.6945 67.126 67.6945 65.8738C67.6945 64.6112 68.5815 63.0773 69.6771 62.4512C70.7728 61.8251 71.6597 62.326 71.6597 63.5781Z" fill="#FFB8B6"/>
<path d="M77.618 59.9468C77.618 61.2094 76.731 62.7433 75.6354 63.3694C74.5397 63.9955 73.6528 63.4946 73.6528 62.2424C73.6528 60.9798 74.5397 59.4459 75.6354 58.8198C76.731 58.1937 77.618 58.6946 77.618 59.9468Z" fill="#FFB8B6"/>
<path d="M83.4406 56.5972C83.4406 57.8598 82.5536 59.3937 81.458 60.0198C80.3623 60.6459 79.4754 60.145 79.4754 58.8928C79.4754 57.6302 80.3623 56.0963 81.458 55.4702C82.5536 54.8441 83.4406 55.345 83.4406 56.5972Z" fill="#FFB8B6"/>
<path d="M59.858 24.176C65.6806 27.536 65.6493 33.0038 59.785 36.3951C53.9206 39.7864 44.4458 39.7968 38.6232 36.4368C32.8006 33.0768 32.8319 27.609 38.6963 24.2177C44.5606 20.8368 54.0354 20.816 59.858 24.176Z" fill="white"/>
<path d="M15.1971 51.5676L10.6997 54.1658L42.651 72.6041L86.811 47.1119L82.3136 44.5137L42.651 67.418L15.1971 51.5676Z" fill="#FFB8B6"/>
<path d="M42.651 52.3291V67.4178" stroke="#414042" stroke-width="0.75" stroke-linecap="round" stroke-linejoin="round"/>
<path d="M82.3136 44.5137L86.811 47.1119L42.651 72.6041L10.6997 54.1658L15.1971 51.5676" stroke="#EF4136" stroke-width="0.75" stroke-linecap="round" stroke-linejoin="round"/>
<path d="M74.8736 69.0873L42.651 87.6925L10.6997 69.2542V54.1655" stroke="#EF4136" stroke-width="0.75" stroke-linecap="round" stroke-linejoin="round"/>
<path d="M86.811 47.1118V62.2005L81.1762 65.4562" stroke="#EF4136" stroke-width="0.75" stroke-linecap="round" stroke-linejoin="round"/>
<path d="M42.651 72.604V87.6927" stroke="#EF4136" stroke-width="0.75" stroke-linecap="round" stroke-linejoin="round"/>
<path d="M46.3554 81.0664V75.1395C46.4076 74.9516 63.698 65.1221 63.698 65.1221V71.049L46.3554 81.0664Z" stroke="#EF4136" stroke-width="0.75" stroke-linecap="round" stroke-linejoin="round"/>
<path d="M71.6597 63.5781C71.6597 64.8407 70.7728 66.3747 69.6771 67.0007C68.5815 67.6268 67.6945 67.126 67.6945 65.8738C67.6945 64.6112 68.5815 63.0773 69.6771 62.4512C70.7728 61.8251 71.6597 62.326 71.6597 63.5781Z" stroke="#EF4136" stroke-width="0.75" stroke-linecap="round" stroke-linejoin="round"/>
<path d="M77.618 59.9468C77.618 61.2094 76.731 62.7433 75.6354 63.3694C74.5397 63.9955 73.6528 63.4946 73.6528 62.2424C73.6528 60.9798 74.5397 59.4459 75.6354 58.8198C76.731 58.1937 77.618 58.6946 77.618 59.9468Z" stroke="#EF4136" stroke-width="0.75" stroke-linecap="round" stroke-linejoin="round"/>
<path d="M83.4406 56.5972C83.4406 57.8598 82.5536 59.3937 81.458 60.0198C80.3623 60.6459 79.4754 60.145 79.4754 58.8928C79.4754 57.6302 80.3623 56.0963 81.458 55.4702C82.5536 54.8441 83.4406 55.345 83.4406 56.5972Z" stroke="#EF4136" stroke-width="0.75" stroke-linecap="round" stroke-linejoin="round"/>
<path d="M46.3554 61.0942V55.1673C46.4076 54.9795 63.698 45.1499 63.698 45.1499V51.0769L46.3554 61.0942Z" stroke="#EF4136" stroke-width="0.75" stroke-linecap="round" stroke-linejoin="round"/>
<path d="M71.6597 43.6162C71.6597 44.8788 70.7728 46.4127 69.6771 47.0388C68.5815 47.6649 67.6945 47.164 67.6945 45.9119C67.6945 44.6493 68.5815 43.1154 69.6771 42.4893C70.7728 41.8632 71.6597 42.364 71.6597 43.6162Z" stroke="#EF4136" stroke-width="0.75" stroke-linecap="round" stroke-linejoin="round"/>
<path d="M77.618 39.9849C77.618 41.2475 76.731 42.7814 75.6354 43.4075C74.5397 44.0336 73.6528 43.5327 73.6528 42.2805C73.6528 41.0179 74.5397 39.484 75.6354 38.8579C76.731 38.2318 77.618 38.7327 77.618 39.9849Z" stroke="#EF4136" stroke-width="0.75" stroke-linecap="round" stroke-linejoin="round"/>
<path d="M83.4406 36.6353C83.4406 37.8979 82.5536 39.4318 81.458 40.0579C80.3623 40.684 79.4754 40.1831 79.4754 38.9309C79.4754 37.6683 80.3623 36.1344 81.458 35.5083C82.5536 34.8822 83.4406 35.3831 83.4406 36.6353Z" stroke="#EF4136" stroke-width="0.75" stroke-linecap="round" stroke-linejoin="round"/>
<path d="M65.1901 14.3464L86.811 26.8264L42.651 52.3291L10.6997 33.8804L54.8597 8.38818L59.5032 11.0699" stroke="#414042" stroke-width="0.75" stroke-linecap="round" stroke-linejoin="round"/>
<path d="M86.811 26.8267V41.9154L42.651 67.418L10.6997 48.9693V33.8806" stroke="#414042" stroke-width="0.75" stroke-linecap="round" stroke-linejoin="round"/>
<path d="M59.858 24.176C65.6806 27.536 65.6493 33.0038 59.7849 36.3951C53.9206 39.7864 44.4458 39.7968 38.6232 36.4368C32.8006 33.0768 32.8319 27.609 38.6963 24.2177C44.5606 20.8368 54.0354 20.816 59.858 24.176Z" stroke="#EF4136" stroke-width="0.75" stroke-linecap="round" stroke-linejoin="round"/>
<path d="M43.2562 30.2598L41.6284 34.6424L49.2249 33.7032" stroke="#EF4136" stroke-width="0.75" stroke-linecap="round" stroke-linejoin="round"/>
<path d="M55.1206 30.3016L56.7484 25.9189L49.1519 26.8476" stroke="#EF4136" stroke-width="0.75" stroke-linecap="round" stroke-linejoin="round"/>
<path d="M46.8771 27.2129L51.5936 33.4007" stroke="#EF4136" stroke-width="0.75" stroke-linecap="round" stroke-linejoin="round"/>
</svg>
