<svg width="93" height="93" viewBox="0 0 93 93" fill="none" xmlns="http://www.w3.org/2000/svg">
<path d="M60.1904 22.9302C61.9804 25.3202 63.0004 28.7302 63.0004 33.0102C63.0004 34.9302 62.7904 36.9202 62.4004 38.9302" stroke="#414042" stroke-width="0.75" stroke-linecap="round" stroke-linejoin="round"/>
<path d="M48.3104 63.5205C46.6504 64.9905 44.9004 66.2805 43.1004 67.3205C39.4504 69.4305 36.0304 70.2805 33.0904 70.0105" stroke="#414042" stroke-width="0.75" stroke-linecap="round" stroke-linejoin="round"/>
<path d="M37.4504 18.5502C39.3604 16.9502 41.3504 15.5302 43.4004 14.3502C50.5504 10.2202 57.0504 9.70017 61.8304 12.2002L67.9704 15.3602" stroke="#414042" stroke-width="0.75" stroke-linecap="round" stroke-linejoin="round"/>
<path d="M31.7704 81.0704L25.6304 77.9105C20.1804 75.4605 16.7504 69.3204 16.7504 60.2704C16.7504 48.0204 23.0404 33.8204 32.1204 23.7104" stroke="#414042" stroke-width="0.75" stroke-linecap="round" stroke-linejoin="round"/>
<path d="M49.8304 25.6706V17.9406L43.4004 14.3506" stroke="#414042" stroke-width="0.75" stroke-linecap="round" stroke-linejoin="round"/>
<path d="M26.1804 31.5405L32.6704 35.3005L36.9604 38.7805" stroke="#414042" stroke-width="0.75" stroke-linecap="round" stroke-linejoin="round"/>
<path d="M30.2004 59.8203L23.4604 63.9203L16.7604 59.9603" stroke="#414042" stroke-width="0.75" stroke-linecap="round" stroke-linejoin="round"/>
<path d="M36.0904 72.6201L31.4504 80.9101" stroke="#414042" stroke-width="0.75" stroke-linecap="round" stroke-linejoin="round"/>
<path d="M62.6004 58.8603C59.1804 64.0003 54.8304 68.4003 50.1004 71.1403C39.1104 77.4903 30.2004 72.4203 30.2004 59.8203C30.2004 47.2203 39.1104 31.8603 50.1004 25.5103C61.0904 19.1603 70.0004 24.2303 70.0004 36.8303C70.0004 41.8803 68.5704 47.3703 66.1504 52.5403" stroke="#414042" stroke-width="0.75" stroke-linecap="round" stroke-linejoin="round"/>
<path d="M76.7404 32.9502C76.7404 49.8202 64.8104 70.3801 50.1004 78.8801C35.3904 87.3801 23.4604 80.5902 23.4604 63.7202C23.4604 46.8502 35.3904 26.2902 50.1004 17.7902C64.8104 9.29015 76.7404 16.0802 76.7404 32.9502Z" stroke="#414042" stroke-width="0.75" stroke-linecap="round" stroke-linejoin="round"/>
<path d="M63.9003 39.78L63.8503 39.75L60.3803 37.79L60.1003 37.89C60.6303 38.69 61.0103 39.67 61.2003 40.84L63.4403 39.78C63.5903 39.71 63.7303 39.7 63.8303 39.75L63.9003 39.78Z" fill="#FFB8B6"/>
<path d="M53.3104 40.71L53.3904 40.81C54.0204 41.57 54.3804 42.7 54.3804 44.13C54.3804 48.13 51.5504 53.01 48.0604 55.02C47.2704 55.48 46.5304 55.75 45.8304 55.84C46.9504 57.12 48.8804 57.28 51.0604 56.02C54.5504 54.01 57.3804 49.13 57.3804 45.13C57.3804 42.04 55.6904 40.37 53.3104 40.71Z" fill="#FFB8B6"/>
<path d="M56.0804 30.5202C55.8204 30.3702 55.4104 30.5902 55.1204 31.0202L53.7504 33.1302L52.4404 33.2602H52.4704C52.5604 33.3202 52.6304 33.4102 52.6604 33.5502C52.6704 33.5802 52.6804 33.6202 52.6804 33.6602L52.8804 36.1102C54.3704 35.5502 55.7504 35.4202 56.9504 35.6902L58.6704 33.0402C58.8104 32.8302 58.9704 32.6802 59.1404 32.5902L59.6304 32.5402L56.0804 30.5202Z" fill="#FFB8B6"/>
<path d="M48.4204 31.3003L46.6104 32.3503C46.2404 32.5603 45.9304 33.0603 45.9004 33.5003L45.7004 36.1803C44.2004 37.3503 42.8204 38.8203 41.6304 40.4603L39.9004 39.8103C39.6204 39.7003 39.2004 39.9603 38.9504 40.4103L37.6604 42.6203C37.4004 43.0703 37.3804 43.5603 37.6204 43.7503L39.0604 44.8903C38.2204 46.7503 37.6404 48.6703 37.3704 50.5303L35.1304 52.0503C34.7704 52.3003 34.4904 52.8203 34.4904 53.2403V55.3203C34.4904 55.5303 34.5604 55.6803 34.6704 55.7603H34.6804L38.2404 57.7903C38.1204 57.7203 38.0404 57.5603 38.0404 57.3403V55.2603C38.0404 54.8403 38.3204 54.3203 38.6904 54.0703L40.9204 52.5503C41.1904 50.6903 41.7704 48.7703 42.6104 46.9103L41.1704 45.7703C40.9304 45.5803 40.9504 45.0903 41.2104 44.6403L42.5004 42.4303C42.7604 41.9903 43.1704 41.7203 43.4504 41.8303L45.1804 42.4803C46.3704 40.8403 47.7504 39.3703 49.2504 38.2003L49.4504 35.5203C49.4804 35.0803 49.7904 34.5803 50.1604 34.3703L51.9704 33.3203C52.1504 33.2203 52.3104 33.2003 52.4404 33.2603L48.8904 31.2403C48.7604 31.1803 48.6004 31.2003 48.4204 31.3003Z" fill="#FFB8B6"/>
<path d="M42.6104 60.4102C41.7704 59.5202 41.1904 58.2702 40.9204 56.7202L38.6904 57.7802C38.6904 57.7802 38.6304 57.8102 38.6004 57.8202L38.9404 58.6502L37.6304 61.2002C37.3904 61.6602 37.4104 62.1202 37.6704 62.2702L41.2204 64.2902L41.0204 63.8002C41.0204 63.6202 41.0704 63.4202 41.1804 63.2202L42.6204 60.4102H42.6104Z" fill="#FFB8B6"/>
<path d="M49.4503 63.9002L49.2503 61.4502C48.0503 61.9002 46.9203 62.0702 45.9103 61.9802C45.9503 62.1202 46.0103 62.2202 46.1103 62.2702L49.6703 64.2902C49.5403 64.2302 49.4603 64.0902 49.4503 63.9002Z" fill="#FFB8B6"/>
<path d="M60.3904 37.7801C60.2904 37.6901 60.1504 37.6701 59.9904 37.7201" stroke="#EF4136" stroke-width="0.75" stroke-linecap="round" stroke-linejoin="round"/>
<path d="M48.8904 31.2402L52.4704 33.2702" stroke="#EF4136" stroke-width="0.75" stroke-linecap="round" stroke-linejoin="round"/>
<path d="M34.6804 55.7603L38.2404 57.7903" stroke="#EF4136" stroke-width="0.75" stroke-linecap="round" stroke-linejoin="round"/>
<path d="M64.0904 42.3002V40.2202C64.0904 39.8002 63.8104 39.6102 63.4404 39.7802L61.2004 40.8402C60.9304 39.2802 60.3504 38.0402 59.5204 37.1502L60.9604 34.3402C61.2004 33.8802 61.1804 33.4202 60.9204 33.2702L59.6404 32.5402C59.3804 32.3902 58.9704 32.6102 58.6804 33.0402L56.9604 35.6802C55.7604 35.4102 54.3804 35.5402 52.8904 36.1002L52.6904 33.6502C52.6604 33.2502 52.3504 33.1102 51.9804 33.3202L50.1704 34.3702C49.8004 34.5802 49.5004 35.0802 49.4604 35.5202L49.2604 38.2002C47.7704 39.3702 46.3904 40.8302 45.1904 42.4802L43.4704 41.8302C43.1904 41.7202 42.7704 41.9802 42.5104 42.4302L41.2304 44.6402C40.9704 45.0902 40.9504 45.5702 41.1904 45.7602L42.6304 46.9102C41.8004 48.7602 41.2104 50.6802 40.9504 52.5502L38.7104 54.0702C38.3404 54.3202 38.0604 54.8302 38.0604 55.2502V57.3302C38.0604 57.7502 38.3404 57.9402 38.7104 57.7702L40.9504 56.7102C41.2204 58.2702 41.8004 59.5102 42.6304 60.4002L41.1904 63.2102C40.9504 63.6702 40.9704 64.1302 41.2304 64.2802L42.5104 65.0102C42.7704 65.1602 43.1804 64.9402 43.4704 64.5102L45.1904 61.8702C46.3904 62.1402 47.7704 62.0102 49.2604 61.4502L49.4604 63.9002C49.4904 64.3002 49.8004 64.4402 50.1704 64.2302L51.9804 63.1802C52.3504 62.9702 52.6504 62.4702 52.6904 62.0302L52.8904 59.3502C54.3804 58.1802 55.7604 56.7202 56.9604 55.0702L58.6804 55.7202C58.9604 55.8302 59.3804 55.5702 59.6404 55.1202L60.9204 52.9102C61.1804 52.4602 61.2004 51.9802 60.9604 51.7902L59.5204 50.6402C60.3504 48.7902 60.9404 46.8702 61.2004 45.0002L63.4404 43.4802C63.8104 43.2302 64.0904 42.7202 64.0904 42.3002Z" stroke="#EF4136" stroke-width="0.75" stroke-linecap="round" stroke-linejoin="round"/>
<path d="M57.3804 45.13C57.3804 49.13 54.5504 54 51.0604 56.02C47.5704 58.04 44.7404 56.42 44.7404 52.43C44.7404 48.43 47.5704 43.56 51.0604 41.54C54.5504 39.53 57.3804 41.14 57.3804 45.13Z" stroke="#EF4136" stroke-width="0.75" stroke-linecap="round" stroke-linejoin="round"/>
<path d="M45.8203 55.8402C46.5203 55.7402 47.2703 55.4702 48.0703 55.0102C51.5603 53.0002 54.3903 48.1202 54.3903 44.1202C54.3903 42.6902 54.0303 41.5602 53.4003 40.8002L53.3203 40.7002" stroke="#EF4136" stroke-width="0.75" stroke-linecap="round" stroke-linejoin="round"/>
<path d="M45.7003 36.1802L49.2503 38.2002" stroke="#EF4136" stroke-width="0.75" stroke-linecap="round" stroke-linejoin="round"/>
<path d="M41.6304 40.46L45.1804 42.48" stroke="#EF4136" stroke-width="0.75" stroke-linecap="round" stroke-linejoin="round"/>
<path d="M39.0604 44.8901L42.6104 46.9101" stroke="#EF4136" stroke-width="0.75" stroke-linecap="round" stroke-linejoin="round"/>
<path d="M37.3704 50.5303L40.9204 52.5503" stroke="#EF4136" stroke-width="0.75" stroke-linecap="round" stroke-linejoin="round"/>
<path d="M39.0604 58.3901L42.6104 60.4101" stroke="#EF4136" stroke-width="0.75" stroke-linecap="round" stroke-linejoin="round"/>
<path d="M53.4004 33.6602L56.9504 35.6902" stroke="#EF4136" stroke-width="0.75" stroke-linecap="round" stroke-linejoin="round"/>
<path d="M63.9003 39.78L60.3803 37.79L60.1003 37.89" stroke="#EF4136" stroke-width="0.75" stroke-linecap="round" stroke-linejoin="round"/>
<path d="M59.6303 32.5402L56.0803 30.5202C55.8203 30.3702 55.4103 30.5902 55.1203 31.0202L53.4003 33.6602C53.1603 33.6102 52.9103 33.5702 52.6603 33.5502" stroke="#EF4136" stroke-width="0.75" stroke-linecap="round" stroke-linejoin="round"/>
<path d="M38.2404 57.7904L34.6804 55.7604C34.5604 55.6804 34.4904 55.5304 34.4904 55.3204V53.2404C34.4904 52.8204 34.7704 52.3104 35.1404 52.0604L37.3804 50.5404C37.6504 48.6704 38.2304 46.7604 39.0604 44.9004L37.6204 43.7504C37.3804 43.5604 37.4004 43.0804 37.6604 42.6304L38.9404 40.4204C39.2004 39.9704 39.6104 39.7104 39.9004 39.8204L41.6204 40.4704C42.8204 38.8204 44.2004 37.3604 45.6904 36.1904L45.8904 33.5104C45.9204 33.0704 46.2304 32.5704 46.6004 32.3604L48.4104 31.3104C48.5904 31.2004 48.7604 31.1904 48.8904 31.2504L52.4604 33.2804" stroke="#EF4136" stroke-width="0.75" stroke-linecap="round" stroke-linejoin="round"/>
<path d="M38.5904 57.8101C38.7404 58.0201 38.8904 58.2101 39.0604 58.3901L37.6204 61.2001C37.3804 61.6601 37.4004 62.1201 37.6604 62.2701L41.2104 64.2901" stroke="#EF4136" stroke-width="0.75" stroke-linecap="round" stroke-linejoin="round"/>
<path d="M49.6703 64.2902L46.1104 62.2702C46.0204 62.2202 45.9503 62.1202 45.9203 61.9902" stroke="#EF4136" stroke-width="0.75" stroke-linecap="round" stroke-linejoin="round"/>
</svg>
