<svg id="Edited_Outlined_Selected" data-name="Edited Outlined Selected" xmlns="http://www.w3.org/2000/svg" viewBox="0 0 614.39 98.43"><defs><style>.cls-1{fill:#00d38d;}.cls-2{fill:#7f7eff;}</style></defs><title>Artboard 20 copy 10</title><path class="cls-1" d="M12.42,62.21a41.31,41.31,0,0,0,3.9,3.65,34.08,34.08,0,0,0,5,3.39,29.48,29.48,0,0,0,6,2.49,24.56,24.56,0,0,0,7,1,15.34,15.34,0,0,0,4.36-.64,13.83,13.83,0,0,0,4-1.85,9.74,9.74,0,0,0,2.88-2.95,7.12,7.12,0,0,0,1.09-3.9c0-3.16-1.53-5.61-4.61-7.36s-7.93-3.48-14.59-5.18a38.63,38.63,0,0,1-9-3.33,28,28,0,0,1-7.17-5.25,22.2,22.2,0,0,1-4.67-7,22.6,22.6,0,0,1-1.67-8.83A26.6,26.6,0,0,1,6.78,16.26a23.34,23.34,0,0,1,5.83-8.39,28,28,0,0,1,9.73-5.76A40.29,40.29,0,0,1,36.1,0,44.78,44.78,0,0,1,47.62,1.34a42.31,42.31,0,0,1,8.51,3.2,30,30,0,0,1,5.76,3.84c1.49,1.33,2.62,2.37,3.39,3.14L54.14,23.81c-.94-.77-2-1.6-3.26-2.5a29.52,29.52,0,0,0-4.16-2.49,28,28,0,0,0-5.06-1.92,21.2,21.2,0,0,0-5.82-.77,12.91,12.91,0,0,0-4,.64,13.88,13.88,0,0,0-3.59,1.73,9.17,9.17,0,0,0-2.56,2.56,5.62,5.62,0,0,0-1,3.13q0,4.35,4.61,7A44.89,44.89,0,0,0,42,35.71a57,57,0,0,1,9.28,3.14A30.35,30.35,0,0,1,59.39,44a24.06,24.06,0,0,1,5.76,7.87,26.75,26.75,0,0,1,2.18,11.33,22.58,22.58,0,0,1-2.56,10.63,26.87,26.87,0,0,1-7,8.44,32.55,32.55,0,0,1-10.37,5.57,40.45,40.45,0,0,1-12.86,2,51.7,51.7,0,0,1-11.65-1.22,47.59,47.59,0,0,1-9.47-3.2A42.87,42.87,0,0,1,5.82,80.9,42,42,0,0,1,0,75.65Z"/><path class="cls-1" d="M274.09,62.21A41.5,41.5,0,0,0,278,65.86a33.55,33.55,0,0,0,5,3.39,29.39,29.39,0,0,0,6,2.49,24.63,24.63,0,0,0,7,1,15.23,15.23,0,0,0,4.35-.64,13.89,13.89,0,0,0,4-1.85,9.74,9.74,0,0,0,2.88-2.95,7.12,7.12,0,0,0,1.09-3.9q0-4.74-4.61-7.36t-14.59-5.18a38.87,38.87,0,0,1-9-3.33,28.14,28.14,0,0,1-7.16-5.25,22,22,0,0,1-4.67-7,22.42,22.42,0,0,1-1.67-8.83,26.6,26.6,0,0,1,1.92-10.11,23.34,23.34,0,0,1,5.83-8.39A28.06,28.06,0,0,1,284,2.11,40.37,40.37,0,0,1,297.77,0a44.78,44.78,0,0,1,11.52,1.34,41.85,41.85,0,0,1,8.51,3.2,29.74,29.74,0,0,1,5.77,3.84c1.49,1.33,2.62,2.37,3.39,3.14L315.82,23.81c-.94-.77-2-1.6-3.26-2.5a30.1,30.1,0,0,0-4.16-2.49,28.27,28.27,0,0,0-5.06-1.92,21.25,21.25,0,0,0-5.82-.77,12.91,12.91,0,0,0-4,.64,13.88,13.88,0,0,0-3.59,1.73,9,9,0,0,0-2.56,2.56,5.62,5.62,0,0,0-1,3.13q0,4.35,4.61,7a44.89,44.89,0,0,0,12.67,4.48,57,57,0,0,1,9.28,3.14A30.35,30.35,0,0,1,321.07,44a24.06,24.06,0,0,1,5.76,7.87A26.75,26.75,0,0,1,329,63.23a22.58,22.58,0,0,1-2.55,10.63,27,27,0,0,1-7,8.44,32.55,32.55,0,0,1-10.37,5.57,40.53,40.53,0,0,1-12.86,2,51.7,51.7,0,0,1-11.65-1.22,47.38,47.38,0,0,1-9.47-3.2,42.87,42.87,0,0,1-7.62-4.54,42,42,0,0,1-5.82-5.25Z"/><path class="cls-1" d="M368,19.33H340.4V2.3H415v17H387.5V87.68H368Z"/><path class="cls-1" d="M432.43,2.3H490.8V19.2h-39V35.84h30.33V52.22H451.76V70.66h39.33v17H432.43Z"/><polygon class="cls-2" points="111.74 19.18 111.74 19.2 145.43 19.2 145.43 2.3 87.06 2.3 87.06 19.18 111.74 19.18"/><polygon class="cls-1" points="106.39 70.66 106.39 52.22 136.73 52.22 136.73 35.84 106.39 35.84 106.39 35.83 87.06 35.83 87.06 87.68 145.81 87.68 145.81 70.66 106.39 70.66"/><path class="cls-1" d="M571.81,53.5a26.82,26.82,0,0,0,10.31-9.92,28.13,28.13,0,0,0,3.64-14.52,29,29,0,0,0-1.85-10.37,23.33,23.33,0,0,0-5.63-8.51,26.79,26.79,0,0,0-9.41-5.76A37.07,37.07,0,0,0,555.81,2.3H513.07V87.68h18.81V18.18h22.91q5.37,0,8.45,3.07a11.27,11.27,0,0,1,3.07,8.32,11.2,11.2,0,0,1-3.07,8.06c-2,2.14-4.87,3.2-8.45,3.2H548.5V57.69h5.84l.71,1.43h0l14.46,28.56h21.24Z"/><path class="cls-1" d="M251,86.13,237.86,73.75a44.32,44.32,0,1,0-13.14,10.84l14.7,13.84ZM178.11,45.52A25.46,25.46,0,1,1,224,60.7L208.51,46.11,196.94,58.4l12.6,11.87a25.46,25.46,0,0,1-31.43-24.75Z"/><path class="cls-1" d="M595.07,4.27h-3.46v-2h9.07v2h-3.46v9.26h-2.15Zm8-2h2.29l3.39,5.32,3.39-5.32h2.23V13.53h-2.08v-8l-3.46,5.39h-.22l-3.46-5.39v8h-2.08Z"/></svg>