<svg id="Layer_1" data-name="Layer 1" xmlns="http://www.w3.org/2000/svg" viewBox="0 0 622.4 177.7"><title>blue full </title><path d="M203.2,0V46.6c0,3.3.1,8.4,4,12.2a14.61,14.61,0,0,0,19.2.4c4.7-4.1,4.6-9.9,4.6-14.3V0h20.5V45.2c0,8.3-.4,16.9-8.9,25.5-6.6,6.7-14.9,9.8-26.1,9.8-12.5,0-21.3-4.2-26.2-9.4-6.9-7.4-7.7-17.5-7.7-25.8V0Z" transform="translate(-1.1)" style="fill:#1f497d"/><polygon points="267 78.7 267 0 287.5 0 325.3 48.1 325.3 0 345.9 0 345.9 78.7 325.4 78.7 287.6 30.6 287.6 78.7 267 78.7" style="fill:#1f497d"/><rect x="362.5" width="20.5" height="78.7" style="fill:#1f497d"/><polygon points="444.9 17.3 420.1 17.3 420.1 30.4 442.6 30.4 442.6 47.7 420.1 47.7 420.1 78.6 399.6 78.6 399.6 0 444.9 0 444.9 17.3" style="fill:#1f497d"/><rect x="457.1" width="20.5" height="78.7" style="fill:#1f497d"/><polygon points="539.2 17.3 514.8 17.3 514.8 30.4 537.9 30.4 537.9 47.7 514.8 47.7 514.8 61.3 539.2 61.3 539.2 78.6 494.3 78.6 494.3 0 539.2 0 539.2 17.3 539.2 17.3" style="fill:#1f497d"/><path d="M553.3,78.7V0h26.9c7.9,0,21.2,1.1,31.4,10.9,9.3,8.8,11,20.2,11,28.7,0,10.4-2.6,19.6-10.3,27.3-6.3,6.3-16.8,11.9-30.4,11.9l-28.6-.1Zm20.6-17.3h4.2c5,0,12-.5,17.3-5.7,2.6-2.5,6-7.4,6-16.2,0-7.3-2.3-13.6-6.2-17.2-4.9-4.5-11.3-5-16.4-5h-5V61.4Z" transform="translate(-1.1)" style="fill:#1f497d"/><polygon points="201.9 128.3 231.4 128.3 231.4 98.9 251.9 98.9 251.9 177.6 231.4 177.6 231.4 145.7 201.9 145.7 201.9 177.6 181.5 177.6 181.5 98.9 201.9 98.9 201.9 128.3" style="fill:#1f497d"/><polygon points="320.8 116.3 296.5 116.3 296.5 129.4 319.5 129.4 319.5 146.7 296.5 146.7 296.5 160.3 320.8 160.3 320.8 177.6 276.1 177.6 276.1 98.9 320.8 98.9 320.8 116.3" style="fill:#1f497d"/><path d="M390.6,164.4H362l-5.3,13.2H335.1l30.2-78.7h22.3l29.6,78.7H395.4Zm-5.4-15.5-8.8-25.5-8.6,25.5Z" transform="translate(-1.1)" style="fill:#1f497d"/><polygon points="453.4 98.9 453.4 160.3 477.9 160.3 477.9 177.6 432.9 177.6 432.9 98.9 453.4 98.9" style="fill:#1f497d"/><polygon points="518.5 116.3 518.5 177.7 498.1 177.7 498.1 116.3 481.3 116.3 481.3 98.9 535.2 98.9 535.2 116.2 518.5 116.2 518.5 116.3" style="fill:#1f497d"/><polygon points="572.4 128.3 601.9 128.3 601.9 98.9 622.4 98.9 622.4 177.6 601.9 177.6 601.9 145.7 572.4 145.7 572.4 177.6 552 177.6 552 98.9 572.4 98.9 572.4 128.3" style="fill:#1f497d"/><path d="M134.2.7V77H54.7V.7H30.1V112.9c0,1.4,0,2.8.1,4.2h.1c.5,6.2,1.7,10.7,6.4,17.3,4.3,5.9,9.7,10,18,13.1V101.6h79.5v4.5c0,3.7.1,7.3-.2,11.1h.1c-.5,12.9-3.8,28-16.1,41.2-6.1,6.5-14.3,14.4-26.1,19h2.5c23.7,0,39.1-10.3,48.2-20,13.3-14.4,16.1-30.8,16.1-44.4V.7Z" transform="translate(-1.1)" style="fill:#1f497d"/><path d="M105.2,106.3c0,9.1.5,18-6.5,29.2-5.4,8.6-17.9,17.7-33.3,17.7s-27.9-9.1-33.3-17.7c-6.7-10.6-6.5-20.3-6.5-29.5V.7H1.1V112.9c0,13.6,2.9,30.1,16.1,44.4,9.1,9.8,24.5,20,48.2,20s39.1-10.3,48.2-20c13.3-14.4,16.1-30.8,16.1-44.4v-6.6Z" transform="translate(-1.1)" style="fill:#1f497d"/><rect x="104.1" y="0.7" width="24.6" height="72" style="fill:#1f497d"/></svg>