<svg width="81" height="81" viewBox="0 0 81 81" fill="none" xmlns="http://www.w3.org/2000/svg">
<path d="M25.3516 68.0375L30.995 64.7766V53.707" stroke="#414042" stroke-linecap="round" stroke-linejoin="round"/>
<path d="M61.0263 47.4374L55.3828 50.6983V39.6113" stroke="#414042" stroke-linecap="round" stroke-linejoin="round"/>
<path d="M43.1875 55.4373V48.7852" stroke="#414042" stroke-linecap="round" stroke-linejoin="round"/>
<path d="M25.3516 68.0362C25.3516 69.3057 24.4559 70.8536 23.3516 71.4883C22.2472 72.1231 21.3516 71.6188 21.3516 70.3492C21.3516 69.0797 22.2472 67.5318 23.3516 66.897C24.4559 66.2623 25.3516 66.7666 25.3516 68.0362Z" fill="#FFB8B6"/>
<path d="M45.1953 56.5752C45.1953 57.8448 44.2997 59.3926 43.1953 60.0274C42.091 60.6622 41.1953 60.1578 41.1953 58.8883C41.1953 57.6187 42.091 56.0709 43.1953 55.4361C44.2997 54.8013 45.1953 55.3057 45.1953 56.5752Z" fill="#FFB8B6"/>
<path d="M65.0391 45.1241C65.0391 46.3936 64.1434 47.9415 63.0391 48.5762C61.9347 49.211 61.0391 48.7067 61.0391 47.4371C61.0391 46.1675 61.9347 44.6197 63.0391 43.9849C64.1434 43.3502 65.0391 43.8545 65.0391 45.1241Z" fill="#FFB8B6"/>
<path d="M19.9806 47.3662C19.7546 48.2532 19.6328 49.1401 19.6328 49.9923C19.6328 54.1575 22.5806 55.8271 26.2067 53.7314C26.8328 53.3749 27.4328 52.9227 27.998 52.401C28.998 53.914 30.9372 54.2097 33.1545 52.9227C34.4415 52.1749 35.6328 51.0097 36.6067 49.6445C38.3459 50.4532 40.6502 50.2445 43.1893 48.7749C45.7285 47.3053 48.0154 44.8792 49.7545 42.0705C50.7198 42.3053 51.9024 42.1053 53.1806 41.3662C55.4067 40.0792 57.3372 37.5488 58.3372 34.8792C58.9111 34.7314 59.5111 34.4966 60.1285 34.1314C63.7632 32.0358 66.7024 26.9575 66.7024 22.7923C66.7024 18.6271 63.7545 16.9575 60.1285 19.0532C59.7545 19.2706 59.398 19.514 59.0415 19.7923C59.0415 19.6879 59.0589 19.5749 59.0589 19.4706C59.0589 15.7488 56.4241 14.2445 53.1719 16.1227C52.9458 16.2532 52.7198 16.401 52.5024 16.5575C51.2415 12.7575 47.5458 11.6184 43.1806 14.1314C38.8154 16.6532 35.1198 22.0705 33.8589 27.3227C33.6241 27.4271 33.3893 27.5401 33.1545 27.6792C29.9024 29.5575 27.2676 34.0966 27.2676 37.8271C27.2676 37.9314 27.2763 38.0358 27.285 38.1314C26.9285 38.2706 26.5719 38.4358 26.198 38.6445C24.3806 39.6966 22.7372 41.4879 21.5459 43.5401" stroke="#414042" stroke-linecap="round" stroke-linejoin="round"/>
<path d="M57.2505 15.654L51.2592 12.2279C50.381 11.7236 49.2245 11.6975 47.9375 12.2279" stroke="#414042" stroke-linecap="round" stroke-linejoin="round"/>
<path d="M64.6977 18.5418L58.6977 15.107C57.9151 14.6635 56.9325 14.5505 55.8281 14.8375" stroke="#414042" stroke-linecap="round" stroke-linejoin="round"/>
<path d="M27.7734 23.8535L33.8604 27.3318" stroke="#414042" stroke-linecap="round" stroke-linejoin="round"/>
<path d="M21.1953 34.6621L27.2823 38.1404" stroke="#414042" stroke-linecap="round" stroke-linejoin="round"/>
<path d="M32.9999 14.0547C30.5217 16.7938 28.6086 20.359 27.7738 23.8547C27.5391 23.959 27.3043 24.0721 27.0695 24.2112C23.8173 26.0895 21.1825 30.6286 21.1825 34.359C21.1825 34.4634 21.1912 34.5677 21.1999 34.6634C20.8434 34.8025 20.4869 34.9677 20.113 35.1764C16.4782 37.2721 13.5391 42.3503 13.5391 46.5156C13.5391 48.5938 14.2695 50.0547 15.4608 50.7329L21.6434 54.2634" stroke="#414042" stroke-linecap="round" stroke-linejoin="round"/>
<path d="M49.5573 13.1677L43.7051 9.7938C41.966 8.96771 39.6442 9.1938 37.0964 10.6634C36.7486 10.8634 36.4094 11.0808 36.0703 11.3155" stroke="#414042" stroke-linecap="round" stroke-linejoin="round"/>
<path d="M52.3607 30.6286L50.6216 30.3155C50.7433 29.6808 50.8129 29.0547 50.8129 28.4547C50.8129 27.846 50.7433 27.2981 50.6216 26.8112L52.3607 24.4895C52.5955 24.1764 52.6651 23.7851 52.526 23.5851L51.3607 21.9503C51.2216 21.7503 50.9173 21.8199 50.6651 22.1068L48.7955 24.2547C48.0564 23.8721 47.152 23.7851 46.152 24.0286L46.0216 21.7155C46.0042 21.4025 45.7694 21.2894 45.4912 21.4547L43.1607 22.8025C42.8825 22.9677 42.6477 23.3503 42.6303 23.6721L42.4999 26.1329C41.4999 27.0547 40.5955 28.1764 39.8564 29.4112H37.9868C37.7346 29.4112 37.4303 29.7068 37.2912 30.0634L36.126 33.046C35.9868 33.4025 36.0564 33.7155 36.2912 33.7503L38.0303 34.0634C37.9086 34.6981 37.839 35.3242 37.839 35.9242C37.839 36.5242 37.9086 37.0721 38.0303 37.559L36.2912 39.8808C36.0564 40.1938 35.9868 40.5938 36.126 40.7851L37.2912 42.4286C37.4303 42.6199 37.7346 42.5503 37.9868 42.2634L39.8564 40.1155C40.5955 40.4981 41.4999 40.5851 42.4999 40.3416L42.6303 42.6547C42.6477 42.9677 42.8825 43.0808 43.1607 42.9155L45.4912 41.5677C45.7694 41.4025 46.0042 41.0199 46.0216 40.6981L46.152 38.2373C47.152 37.3155 48.0564 36.1938 48.7955 34.959H50.6651C50.9173 34.959 51.2129 34.6721 51.3607 34.3155L52.526 31.3242C52.6651 30.9764 52.5868 30.6547 52.3607 30.6199V30.6286ZM44.3346 35.5938C42.6999 36.5416 41.3694 35.7851 41.3694 33.9068C41.3694 32.0286 42.6999 29.7329 44.3346 28.7851C45.9694 27.8373 47.2999 28.5938 47.2999 30.4808C47.2999 32.359 45.9781 34.646 44.3346 35.5938Z" fill="#FFB8B6"/>
<path d="M25.3516 68.0362C25.3516 69.3057 24.4559 70.8536 23.3516 71.4883C22.2472 72.1231 21.3516 71.6188 21.3516 70.3492C21.3516 69.0797 22.2472 67.5318 23.3516 66.897C24.4559 66.2623 25.3516 66.7666 25.3516 68.0362Z" stroke="#EF4136" stroke-linecap="round" stroke-linejoin="round"/>
<path d="M45.1953 56.5752C45.1953 57.8448 44.2997 59.3926 43.1953 60.0274C42.091 60.6622 41.1953 60.1578 41.1953 58.8883C41.1953 57.6187 42.091 56.0709 43.1953 55.4361C44.2997 54.8013 45.1953 55.3057 45.1953 56.5752Z" stroke="#EF4136" stroke-linecap="round" stroke-linejoin="round"/>
<path d="M65.0391 45.1241C65.0391 46.3936 64.1434 47.9415 63.0391 48.5762C61.9347 49.211 61.0391 48.7067 61.0391 47.4371C61.0391 46.1675 61.9347 44.6197 63.0391 43.9849C64.1434 43.3502 65.0391 43.8545 65.0391 45.1241Z" stroke="#EF4136" stroke-linecap="round" stroke-linejoin="round"/>
<path d="M52.3607 30.6286L50.6216 30.3155C50.7433 29.6808 50.8129 29.0547 50.8129 28.4547C50.8129 27.846 50.7433 27.2981 50.6216 26.8112L52.3607 24.4895C52.5955 24.1764 52.6651 23.7851 52.526 23.5851L51.3607 21.9503C51.2216 21.7503 50.9173 21.8199 50.6651 22.1068L48.7955 24.2547C48.0564 23.8721 47.152 23.7851 46.152 24.0286L46.0216 21.7155C46.0042 21.4025 45.7694 21.2894 45.4912 21.4547L43.1607 22.8025C42.8825 22.9677 42.6477 23.3503 42.6303 23.6721L42.4999 26.1329C41.4999 27.0547 40.5955 28.1764 39.8564 29.4112H37.9868C37.7346 29.4112 37.4303 29.7068 37.2912 30.0634L36.126 33.046C35.9868 33.4025 36.0564 33.7155 36.2912 33.7503L38.0303 34.0634C37.9086 34.6981 37.839 35.3242 37.839 35.9242C37.839 36.5242 37.9086 37.0721 38.0303 37.559L36.2912 39.8808C36.0564 40.1938 35.9868 40.5938 36.126 40.7851L37.2912 42.4286C37.4303 42.6199 37.7346 42.5503 37.9868 42.2634L39.8564 40.1155C40.5955 40.4981 41.4999 40.5851 42.4999 40.3416L42.6303 42.6547C42.6477 42.9677 42.8825 43.0808 43.1607 42.9155L45.4912 41.5677C45.7694 41.4025 46.0042 41.0199 46.0216 40.6981L46.152 38.2373C47.152 37.3155 48.0564 36.1938 48.7955 34.959H50.6651C50.9173 34.959 51.2129 34.6721 51.3607 34.3155L52.526 31.3242C52.6651 30.9764 52.5868 30.6547 52.3607 30.6199V30.6286ZM44.3346 35.5938C42.6999 36.5416 41.3694 35.7851 41.3694 33.9068C41.3694 32.0286 42.6999 29.7329 44.3346 28.7851C45.9694 27.8373 47.2999 28.5938 47.2999 30.4808C47.2999 32.359 45.9781 34.646 44.3346 35.5938Z" stroke="#EF4136" stroke-linecap="round" stroke-linejoin="round"/>
</svg>
