<svg width="81" height="81" viewBox="0 0 81 81" fill="none" xmlns="http://www.w3.org/2000/svg">
<path d="M55.5058 29.7845C55.6884 30.6975 55.7753 31.6888 55.7753 32.741C55.7753 33.7932 55.6797 34.9932 55.4797 36.2106C54.8449 40.1236 53.1666 44.3932 50.758 48.2367C49.2362 50.6714 47.4362 52.9149 45.5232 54.741C44.0536 56.1497 42.5232 57.3149 40.984 58.2019C39.5319 59.0367 38.1406 59.5932 36.8536 59.8454C36.3058 59.9497 35.7927 60.0106 35.3058 60.0106C34.5145 60.0106 33.7927 59.8714 33.1666 59.5845C31.1145 58.6801 30.2884 56.4714 29.9493 54.7671C29.7666 53.8541 29.6797 52.8627 29.6797 51.8106C29.6797 50.7584 29.7753 49.5584 29.9753 48.341C30.6101 44.428 32.2884 40.1584 34.6971 36.3149C36.2188 33.8801 38.0275 31.6367 39.9319 29.8106C41.4014 28.4019 42.9232 27.2367 44.471 26.3497C45.9232 25.5149 47.3145 24.9584 48.6014 24.7062C49.1493 24.6019 49.6623 24.541 50.1493 24.541C50.9406 24.541 51.6623 24.6801 52.2884 24.9584C52.9058 25.228 53.4188 25.628 53.8362 26.0888" stroke="#EF4136" stroke-linecap="round" stroke-linejoin="round"/>
<path d="M31.7565 34.4724L26.5391 30.9941" stroke="#414042" stroke-linecap="round" stroke-linejoin="round"/>
<path d="M23.7266 39.2897L24.944 36.1767C25.2657 35.3419 25.9787 34.6897 26.5613 34.6637L31.7613 34.481C33.4222 31.8289 35.3787 29.3767 37.5353 27.3158L38.0135 20.481C38.0657 19.7071 38.6135 18.8202 39.2657 18.4376L46.2135 14.4202C46.8657 14.0463 47.4048 14.3071 47.4657 15.0202L47.944 21.3071C50.1005 20.881 52.0657 21.0637 53.7179 21.8028L58.9179 15.9854C59.5092 15.3332 60.2135 15.1767 60.5353 15.6289L64.0135 20.5332C64.3353 20.9941 64.1787 21.9071 63.6483 22.6376L58.9266 29.1158C59.144 30.2289 59.2657 31.4376 59.2657 32.7506C59.2657 34.0637 59.144 35.4028 58.9266 36.768L63.6483 37.7941C64.1874 37.9071 64.344 38.6376 64.0135 39.4724L60.5353 48.3854C60.2135 49.2202 59.5005 49.8723 58.9179 49.8984L53.7179 50.081" stroke="#414042" stroke-linecap="round" stroke-linejoin="round"/>
<path d="M53.7059 50.0884C52.045 52.7406 50.0885 55.1928 47.932 57.2537L47.4537 64.0884C47.4016 64.8624 46.8537 65.7493 46.2016 66.1319L39.2537 70.1493C38.6016 70.5232 38.0624 70.2624 38.0016 69.5493L37.5233 63.2623C35.3668 63.6884 33.4016 63.5058 31.7494 62.7667L26.5494 68.5841C25.9581 69.2363 25.2537 69.3928 24.932 68.9406L21.4537 64.0363C21.132 63.5754 21.2885 62.6623 21.819 61.9319L26.5407 55.4537C26.3233 54.3406 26.2016 53.1319 26.2016 51.8189C26.2016 50.5058 26.3233 49.1667 26.5407 47.8015L21.819 46.7754C21.2798 46.6623 21.1233 45.9319 21.4537 45.0971L21.9668 43.7754" stroke="#414042" stroke-linecap="round" stroke-linejoin="round"/>
<path d="M32.3125 23.8281L37.5299 27.3064" stroke="#414042" stroke-linecap="round" stroke-linejoin="round"/>
<path d="M47.6875 18.0098C47.9658 18.0967 48.2353 18.2011 48.4962 18.3228" stroke="#414042" stroke-linecap="round" stroke-linejoin="round"/>
<path d="M26.5391 30.9929C28.1565 28.4016 30.0695 26.0016 32.1651 23.9668" stroke="#414042" stroke-linecap="round" stroke-linejoin="round"/>
<path d="M21.3313 51.9764C21.1139 50.8634 20.9922 49.6547 20.9922 48.3416C20.9922 47.672 21.027 47.0025 21.0791 46.3242" stroke="#414042" stroke-linecap="round" stroke-linejoin="round"/>
<path d="M55.127 11.967C54.7618 11.7497 54.1878 11.9497 53.6922 12.4975L48.4922 18.3149L53.7096 21.7931" stroke="#414042" stroke-linecap="round" stroke-linejoin="round"/>
<path d="M55.125 11.9668L60.3772 15.4711" stroke="#414042" stroke-linecap="round" stroke-linejoin="round"/>
<path d="M39.3438 11.8796L40.9872 10.9318C41.3438 10.7231 41.6742 10.7144 41.9003 10.8622L47.1003 14.3318" stroke="#414042" stroke-linecap="round" stroke-linejoin="round"/>
<path d="M32.3125 23.8288L32.7908 16.994C32.8429 16.2201 33.3908 15.3332 34.0429 14.9505L34.9299 14.4375" stroke="#414042" stroke-linecap="round" stroke-linejoin="round"/>
<path d="M21.5824 46.6541L16.4172 43.2107C16.0346 42.9759 15.9563 42.3324 16.2433 41.6107L19.7216 32.6976C20.0433 31.8628 20.7563 31.2107 21.3389 31.1846L26.5389 31.002" stroke="#414042" stroke-linecap="round" stroke-linejoin="round"/>
<path d="M25.0803 69.0896L19.9151 65.6461C19.8369 65.6027 19.7673 65.5418 19.7151 65.4635L16.2369 60.5592C15.9151 60.0983 16.0716 59.1853 16.6021 58.4548L21.3238 51.9766L26.5412 55.4548" stroke="#414042" stroke-linecap="round" stroke-linejoin="round"/>
<path d="M38.406 70.254L33.1538 66.767C32.9538 66.6453 32.8147 66.4105 32.7886 66.0801L32.5625 63.0801" stroke="#414042" stroke-linecap="round" stroke-linejoin="round"/>
<path d="M59.1719 34.7578L63.7632 37.8187" stroke="#414042" stroke-linecap="round" stroke-linejoin="round"/>
<path d="M44.2969 31.3232C44.2969 31.3232 44.5143 33.1405 43.9143 35.2884C42.9926 38.5753 40.7317 40.9058 40.0621 43.8275C40.0621 43.8275 40.0969 41.6101 41.8969 38.3231C41.8969 38.3231 38.2882 42.5145 38.0882 46.4797C37.9143 49.9492 40.0099 51.7231 42.8273 50.4623C42.8273 50.4623 44.9926 49.584 46.7056 47.2536C48.4186 44.9231 48.6273 41.4449 48.6273 41.4449C48.6273 41.4449 48.0882 43.0797 46.9143 44.3058C46.9143 44.3058 47.7839 42.5666 47.636 39.4449C47.4882 36.3232 46.1056 35.4188 46.1056 35.4188C46.1056 35.4188 46.1317 38.4449 44.7491 40.984C44.7491 40.984 45.5578 38.1492 45.4969 35.5666C45.436 32.984 44.2795 31.3145 44.2795 31.3145L44.2969 31.3232Z" fill="#EF4136"/>
<path d="M43.6779 49.4794C43.6779 49.4794 43.2431 48.6272 43.704 46.5316C44.1388 44.575 45.2779 43.4272 45.9649 41.1055C45.9649 41.1055 46.6084 44.4098 44.8779 47.5663C44.8779 47.5663 45.4518 47.2446 46.0779 46.5142C46.0779 46.5142 45.2171 48.6359 43.6779 49.4794Z" fill="#FFB8B6"/>
<path d="M42.1252 50.0449C42.1252 50.0449 40.0644 49.0536 40.5078 45.497C40.9861 41.6536 43.6383 39.3927 45.0122 34.584C45.0122 34.584 45.1339 36.497 44.4209 38.9144C43.7078 41.3318 42.6035 43.0362 42.047 45.2796C41.4905 47.5231 42.1252 50.0449 42.1252 50.0449Z" fill="#FFB8B6"/>
</svg>
