<svg width="81" height="81" viewBox="0 0 81 81" fill="none" xmlns="http://www.w3.org/2000/svg">
<path d="M42.2188 17.8275L45.3231 16.0362C46.6274 15.2796 48.9144 15.3753 50.4274 16.2449L69.0448 26.9927C70.5579 27.8622 70.7231 29.184 69.4101 29.9405L42.8709 45.2622" stroke="#414042" stroke-linecap="round" stroke-linejoin="round"/>
<path d="M38.1866 47.966L34.9344 49.8443C33.63 50.6008 31.3431 50.5052 29.83 49.6356L11.2126 38.8878C9.69961 38.0182 9.53439 36.6965 10.8474 35.9399L38.1605 20.166" stroke="#414042" stroke-linecap="round" stroke-linejoin="round"/>
<path d="M20.1875 51.3835L29.831 56.9487C31.344 57.8183 33.6223 57.914 34.9353 57.1574L69.4049 37.2531C69.9701 36.9314 70.2571 36.4966 70.2832 36.0444V28.7227" stroke="#414042" stroke-linecap="round" stroke-linejoin="round"/>
<path d="M9.95894 37.2441V44.4181C9.89807 45.0354 10.3155 45.6963 11.2024 46.2094L14.2459 47.9659" stroke="#414042" stroke-linecap="round" stroke-linejoin="round"/>
<path d="M41.2689 25.3836C45.5733 22.8967 52.5124 22.888 56.782 25.3488C58.5037 26.3401 59.5124 27.5923 59.8429 28.888C60.3211 26.9836 59.3124 24.9836 56.782 23.5314C52.5124 21.0706 45.5646 21.0793 41.2689 23.5662C38.7037 25.0445 37.6689 27.0706 38.1559 28.9836C38.4863 27.6706 39.5124 26.401 41.2689 25.3836Z" fill="#FFB8B6"/>
<path d="M38.1562 28.9843C38.478 30.28 39.4954 31.5321 41.2171 32.5235C45.4867 34.9843 52.4345 34.9756 56.7302 32.4887C58.4867 31.4713 59.5128 30.2017 59.8432 28.8887" stroke="#EF4136" stroke-linecap="round" stroke-linejoin="round"/>
<path d="M23.0189 35.9227C27.3233 33.4357 34.2624 33.427 38.532 35.8879C40.2537 36.8792 41.2624 38.1314 41.5929 39.427C42.0711 37.5227 41.0624 35.5227 38.532 34.0705C34.2624 31.6096 27.3146 31.6183 23.0189 34.1053C20.4537 35.5835 19.4189 37.6096 19.9059 39.5227C20.2363 38.2096 21.2624 36.9401 23.0189 35.9227Z" fill="#FFB8B6"/>
<path d="M41.2689 25.3836C45.5733 22.8967 52.5124 22.888 56.782 25.3488C58.5037 26.3401 59.5124 27.5923 59.8429 28.888C60.3211 26.9836 59.3124 24.9836 56.782 23.5314C52.5124 21.0706 45.5646 21.0793 41.2689 23.5662C38.7037 25.0445 37.6689 27.0706 38.1559 28.9836C38.4863 27.6706 39.5124 26.401 41.2689 25.3836Z" stroke="#EF4136" stroke-linecap="round" stroke-linejoin="round"/>
<path d="M23.0189 35.9227C27.3233 33.4357 34.2624 33.427 38.532 35.8879C40.2537 36.8792 41.2624 38.1314 41.5929 39.427C42.0711 37.5227 41.0624 35.5227 38.532 34.0705C34.2624 31.6096 27.3146 31.6183 23.0189 34.1053C20.4537 35.5835 19.4189 37.6096 19.9059 39.5227C20.2363 38.2096 21.2624 36.9401 23.0189 35.9227Z" stroke="#EF4136" stroke-linecap="round" stroke-linejoin="round"/>
<path d="M19.9062 39.5234C20.228 40.819 21.2454 42.0712 22.9671 43.0625C27.2367 45.5234 34.1845 45.5147 38.4802 43.0277C40.2367 42.0103 41.2628 40.7408 41.5932 39.4277" stroke="#EF4136" stroke-linecap="round" stroke-linejoin="round"/>
<path d="M34.9578 36.5053C35.9144 37.0618 35.9057 37.9575 34.9491 38.514C33.9926 39.0705 32.4274 39.0705 31.4709 38.514C30.5143 37.9575 30.523 37.0618 31.4796 36.5053C32.4361 35.9488 34.0013 35.9488 34.9578 36.5053Z" fill="#FFB8B6" stroke="#EF4136" stroke-linecap="round" stroke-linejoin="round"/>
<path d="M28.7938 40.1147C29.7503 40.6712 29.7416 41.5668 28.7851 42.1234C27.8285 42.6799 26.2633 42.6799 25.3068 42.1234C24.3503 41.5668 24.359 40.6712 25.3155 40.1147C26.272 39.5581 27.8372 39.5581 28.7938 40.1147Z" fill="#FFB8B6" stroke="#EF4136" stroke-linecap="round" stroke-linejoin="round"/>
<path d="M53.2313 25.9233C54.1878 26.4798 54.1791 27.3754 53.2226 27.9319C52.266 28.4885 50.7008 28.4885 49.7443 27.9319C48.7878 27.3754 48.7965 26.4798 49.753 25.9233C50.7095 25.3667 52.2747 25.3667 53.2313 25.9233Z" fill="#FFB8B6" stroke="#EF4136" stroke-linecap="round" stroke-linejoin="round"/>
<path d="M47.0594 29.5326C48.0159 30.0891 48.0072 30.9848 47.0507 31.5413C46.0942 32.0978 44.529 32.0978 43.5724 31.5413C42.6159 30.9848 42.6246 30.0891 43.5811 29.5326C44.5377 28.9761 46.1029 28.9761 47.0594 29.5326Z" fill="#FFB8B6" stroke="#EF4136" stroke-linecap="round" stroke-linejoin="round"/>
<path d="M17.9509 51.6804C17.9509 53.0108 17.0118 53.5499 15.8465 52.8803C14.6813 52.2108 13.7422 50.5847 13.7422 49.2456C13.7422 47.9151 14.6813 47.376 15.8465 48.0456C17.0118 48.7151 17.9509 50.3412 17.9509 51.6804Z" stroke="#414042" stroke-linecap="round" stroke-linejoin="round"/>
<path d="M17.6641 45.9833C18.038 45.792 18.551 45.8354 19.1162 46.1572C20.2815 46.8267 21.2206 48.4528 21.2206 49.792C21.2206 50.4267 21.0119 50.8789 20.6641 51.105" stroke="#414042" stroke-linecap="round" stroke-linejoin="round"/>
<path d="M14.3047 47.9235L17.6612 45.9844" stroke="#414042" stroke-linecap="round" stroke-linejoin="round"/>
<path d="M17.375 53.0098L20.662 51.1055" stroke="#414042" stroke-linecap="round" stroke-linejoin="round"/>
<path d="M15.8435 50.4629C15.8435 50.4629 8.90441 60.4977 22.0088 64.7412C37.3305 69.7064 56.8348 49.7064 64.974 60.0281" stroke="#414042" stroke-linecap="round" stroke-linejoin="round"/>
</svg>
