<svg width="97" height="97" viewBox="0 0 97 97" fill="none" xmlns="http://www.w3.org/2000/svg">
<path d="M55.3188 75.9431L49.1623 72.3848L65.6075 62.8892L71.6388 66.3744L55.3188 75.9431Z" fill="#FFB8B6"/>
<path d="M71.5136 55.6055L57.0197 47.2368L22.5328 67.1464L37.0371 75.5151L41.8371 72.7394L37.2145 70.0681L57.1136 58.642L61.6841 61.282L71.5136 55.6055Z" fill="#FFB8B6"/>
<path d="M56.6128 44.0127L17.6493 66.5101C16.1884 67.3554 14.9989 66.458 14.9989 64.5067V38.0023C14.9989 36.051 16.1884 33.7867 17.6493 32.9414L56.6128 10.444C58.0736 9.59883 59.2632 10.4962 59.2632 12.4475V38.9519C59.2632 40.9032 58.0736 43.1675 56.6128 44.0127Z" stroke="#414042" stroke-width="0.75" stroke-linecap="round" stroke-linejoin="round"/>
<path d="M17.9415 38.0128C17.9415 36.8128 18.7449 35.3937 19.4128 35.0076L55.131 14.378C55.6632 14.065 56.331 14.4511 56.331 15.0772V38.9311C56.331 40.1311 55.5275 41.5502 54.8597 41.9363L19.1415 62.5554C18.6093 62.8685 17.9415 62.4824 17.9415 61.8563V38.0024V38.0128Z" stroke="#EF4136" stroke-width="0.75" stroke-linecap="round" stroke-linejoin="round"/>
<path d="M56.5919 44.023C58.0528 43.1778 60.6093 43.2821 62.2997 44.263L85.2458 57.5047C86.9362 58.4752 87.1136 59.9569 85.6528 60.8021L46.7102 83.2891C45.2493 84.1343 42.6928 84.03 41.0023 83.0491L18.0562 69.8074C16.3658 68.8369 16.1884 67.3552 17.6493 66.51" stroke="#414042" stroke-width="0.75" stroke-linecap="round" stroke-linejoin="round"/>
<path d="M48.0458 10.6111L52.4806 8.04418C53.1797 7.63723 53.8162 7.63723 54.2858 7.95027L58.3345 10.2877" stroke="#414042" stroke-width="0.75" stroke-linecap="round" stroke-linejoin="round"/>
<path d="M15.9171 66.6353L11.8684 64.2979C11.2632 63.9953 10.8771 63.2231 10.8771 62.117V35.6127C10.8771 33.6614 12.0667 31.397 13.5275 30.5518L42.3171 13.9292" stroke="#414042" stroke-width="0.75" stroke-linecap="round" stroke-linejoin="round"/>
<path d="M37.0371 75.5151L22.5328 67.1464L57.0197 47.2368L71.5136 55.6055L37.0371 75.5151Z" stroke="#EF4136" stroke-width="0.75" stroke-linecap="round" stroke-linejoin="round"/>
<path d="M55.3188 75.9431L49.1623 72.3848L65.6075 62.8892L71.6388 66.3744L55.3188 75.9431Z" stroke="#EF4136" stroke-width="0.75" stroke-linecap="round" stroke-linejoin="round"/>
<path d="M66.891 52.9346L32.4041 72.8441" stroke="#EF4136" stroke-width="0.75" stroke-linecap="round" stroke-linejoin="round"/>
<path d="M62.091 50.1694L27.6145 70.079" stroke="#EF4136" stroke-width="0.75" stroke-linecap="round" stroke-linejoin="round"/>
<path d="M52.0215 50.1377L66.4632 58.4751" stroke="#EF4136" stroke-width="0.75" stroke-linecap="round" stroke-linejoin="round"/>
<path d="M47.1902 52.9136L61.6841 61.2823" stroke="#EF4136" stroke-width="0.75" stroke-linecap="round" stroke-linejoin="round"/>
<path d="M42.2023 55.7935L52.0736 61.4908" stroke="#EF4136" stroke-width="0.75" stroke-linecap="round" stroke-linejoin="round"/>
<path d="M37.3815 58.6108L47.2215 64.2874" stroke="#EF4136" stroke-width="0.75" stroke-linecap="round" stroke-linejoin="round"/>
<path d="M27.3432 64.3711L41.8371 72.7398" stroke="#EF4136" stroke-width="0.75" stroke-linecap="round" stroke-linejoin="round"/>
<path d="M32.2893 61.5117L42.1606 67.2091" stroke="#EF4136" stroke-width="0.75" stroke-linecap="round" stroke-linejoin="round"/>
<path d="M80.9884 67.9816L85.6528 65.2894C86.3206 64.9033 86.6441 64.3816 86.6441 63.839V59.3833" stroke="#414042" stroke-width="0.75" stroke-linecap="round" stroke-linejoin="round"/>
<path d="M16.6684 68.0127V72.3431C16.6267 73.011 17.0962 73.731 18.0667 74.284L41.0128 87.5257C42.7032 88.4962 45.2597 88.611 46.7206 87.7657L75.3849 71.2162" stroke="#414042" stroke-width="0.75" stroke-linecap="round" stroke-linejoin="round"/>
</svg>
