<svg width="44" height="44" viewBox="0 0 44 44" fill="none" xmlns="http://www.w3.org/2000/svg">
<path d="M16 0L32 9V27L16 36L0 27V9L16 0Z" fill="url(#paint0_linear_316_17556)" fill-opacity="0.4"/>
<path d="M41.7513 12.8848C41.7513 12.8848 40.0886 9.69476 37.2064 7.83791C34.3241 5.98107 30.3374 6.32722 30.3374 6.32722" stroke="#444854" stroke-width="1.7" stroke-linecap="round" stroke-linejoin="round"/>
<path d="M32.837 9.31074L29.7584 6.41267L32.6564 3.33403" stroke="#444854" stroke-width="1.7" stroke-linecap="round" stroke-linejoin="round"/>
<path d="M2.47382 29.1239C2.47382 29.1239 2.94102 32.6907 5.0112 35.4237C7.08138 38.1568 10.9449 39.1996 10.9449 39.1996" stroke="#444854" stroke-width="1.7" stroke-linecap="round" stroke-linejoin="round"/>
<path d="M9.62066 35.5395L11.5181 39.318L7.73959 41.2154" stroke="#444854" stroke-width="1.7" stroke-linecap="round" stroke-linejoin="round"/>
<path d="M35.1 12H11.9C10.2984 12 9 13.3431 9 15V30C9 31.6568 10.2984 33 11.9 33H35.1C36.7016 33 38 31.6568 38 30V15C38 13.3431 36.7016 12 35.1 12Z" stroke="#444854" stroke-width="1.7" stroke-linecap="round" stroke-linejoin="round"/>
<path d="M17.0001 39H29.0001" stroke="#444854" stroke-width="1.7" stroke-linecap="round" stroke-linejoin="round"/>
<path d="M23.0001 33V39" stroke="#444854" stroke-width="1.7" stroke-linecap="round" stroke-linejoin="round"/>
<path d="M23.6587 15.5H23.3415C22.9592 15.5 22.5925 15.6475 22.3222 15.91C22.0518 16.1726 21.8999 16.5287 21.8999 16.9V17.026C21.8997 17.2715 21.8329 17.5126 21.7064 17.7252C21.5799 17.9377 21.398 18.1142 21.1791 18.237L20.8692 18.412C20.65 18.5349 20.4014 18.5996 20.1483 18.5996C19.8953 18.5996 19.6467 18.5349 19.4275 18.412L19.3194 18.356C18.9886 18.1707 18.5956 18.1204 18.2266 18.2162C17.8577 18.312 17.543 18.5461 17.3516 18.867L17.193 19.133C17.0022 19.4542 16.9504 19.8359 17.0491 20.1942C17.1477 20.5525 17.3887 20.8581 17.7192 21.044L17.8273 21.114C18.0452 21.2361 18.2264 21.4116 18.3528 21.6228C18.4793 21.834 18.5466 22.0737 18.5481 22.318V22.675C18.5491 22.9217 18.483 23.1643 18.3564 23.3781C18.2298 23.592 18.0473 23.7696 17.8273 23.893L17.7192 23.956C17.3887 24.1419 17.1477 24.4475 17.0491 24.8058C16.9504 25.1641 17.0022 25.5457 17.193 25.867L17.3516 26.133C17.543 26.4539 17.8577 26.688 18.2266 26.7838C18.5956 26.8796 18.9886 26.8293 19.3194 26.644L19.4275 26.588C19.6467 26.4651 19.8953 26.4004 20.1483 26.4004C20.4014 26.4004 20.65 26.4651 20.8692 26.588L21.1791 26.763C21.398 26.8857 21.5799 27.0623 21.7064 27.2748C21.8329 27.4874 21.8997 27.7285 21.8999 27.974V28.1C21.8999 28.4713 22.0518 28.8274 22.3222 29.0899C22.5925 29.3525 22.9592 29.5 23.3415 29.5H23.6587C24.041 29.5 24.4077 29.3525 24.6781 29.0899C24.9484 28.8274 25.1003 28.4713 25.1003 28.1V27.974C25.1006 27.7285 25.1673 27.4874 25.2938 27.2748C25.4204 27.0623 25.6022 26.8857 25.8211 26.763L26.1311 26.588C26.3502 26.4651 26.5988 26.4004 26.8519 26.4004C27.105 26.4004 27.3536 26.4651 27.5727 26.588L27.6808 26.644C28.0117 26.8293 28.4047 26.8796 28.7736 26.7838C29.1425 26.688 29.4573 26.4539 29.6487 26.133L29.8072 25.86C29.9981 25.5387 30.0498 25.1571 29.9512 24.7988C29.8525 24.4405 29.6115 24.1349 29.2811 23.949L29.1729 23.893C28.9529 23.7696 28.7704 23.592 28.6438 23.3781C28.5172 23.1643 28.4511 22.9217 28.4521 22.675V22.325C28.4511 22.0783 28.5172 21.8357 28.6438 21.6218C28.7704 21.4079 28.9529 21.2303 29.1729 21.107L29.2811 21.044C29.6115 20.8581 29.8525 20.5525 29.9512 20.1942C30.0498 19.8359 29.9981 19.4542 29.8072 19.133L29.6487 18.867C29.4573 18.5461 29.1425 18.312 28.7736 18.2162C28.4047 18.1204 28.0117 18.1707 27.6808 18.356L27.5727 18.412C27.3536 18.5349 27.105 18.5996 26.8519 18.5996C26.5988 18.5996 26.3502 18.5349 26.1311 18.412L25.8211 18.237C25.6022 18.1142 25.4204 17.9377 25.2938 17.7252C25.1673 17.5126 25.1006 17.2715 25.1003 17.026V16.9C25.1003 16.5287 24.9484 16.1726 24.6781 15.91C24.4077 15.6475 24.041 15.5 23.6587 15.5Z" stroke="#444854" stroke-width="1.7" stroke-linecap="round" stroke-linejoin="round"/>
<path d="M23.5001 24.5C24.6047 24.5 25.5001 23.6046 25.5001 22.5C25.5001 21.3954 24.6047 20.5 23.5001 20.5C22.3956 20.5 21.5001 21.3954 21.5001 22.5C21.5001 23.6046 22.3956 24.5 23.5001 24.5Z" stroke="#444854" stroke-width="1.7" stroke-linecap="round" stroke-linejoin="round"/>
<defs>
<linearGradient id="paint0_linear_316_17556" x1="-2.4752" y1="3.27815" x2="21.7742" y2="36.606" gradientUnits="userSpaceOnUse">
<stop stop-color="#F56451"/>
<stop offset="1" stop-color="#F56451" stop-opacity="0"/>
</linearGradient>
</defs>
</svg>
