<svg width="44" height="44" viewBox="0 0 44 44" fill="none" xmlns="http://www.w3.org/2000/svg">
<path d="M16 0L32 9V27L16 36L0 27V9L16 0Z" fill="url(#paint0_linear_316_17662)" fill-opacity="0.4"/>
<path d="M3 15V43H36" stroke="#444854" stroke-width="1.7" stroke-linecap="round" stroke-linejoin="round"/>
<path d="M39.5 32L29.3207 25.1147L18.5 27.5L15.8123 18.5608L7.83265 20.8819" stroke="#444854" stroke-width="1.7" stroke-linecap="round" stroke-linejoin="round"/>
<path d="M33 5V18" stroke="#444854" stroke-width="1.7" stroke-linecap="round" stroke-linejoin="round"/>
<path d="M36.3333 7H31.3333C30.7145 7 30.121 7.23705 29.6834 7.65901C29.2458 8.08097 29 8.65326 29 9.25C29 9.84674 29.2458 10.419 29.6834 10.841C30.121 11.2629 30.7145 11.5 31.3333 11.5H34.6667C35.2855 11.5 35.879 11.7371 36.3166 12.159C36.7542 12.581 37 13.1533 37 13.75C37 14.3467 36.7542 14.919 36.3166 15.341C35.879 15.7629 35.2855 16 34.6667 16H29" stroke="#444854" stroke-width="1.7" stroke-linecap="round" stroke-linejoin="round"/>
<defs>
<linearGradient id="paint0_linear_316_17662" x1="-2.4752" y1="3.27815" x2="21.7742" y2="36.606" gradientUnits="userSpaceOnUse">
<stop stop-color="#F56451"/>
<stop offset="1" stop-color="#F56451" stop-opacity="0"/>
</linearGradient>
</defs>
</svg>
