<svg width="48" height="48" viewBox="0 0 48 48" fill="none" xmlns="http://www.w3.org/2000/svg">
<path fill-rule="evenodd" clip-rule="evenodd" d="M23.195 2.39004C23.7018 2.13667 24.2982 2.13667 24.805 2.39004L44.805 12.39C45.4148 12.6949 45.8 13.3182 45.8 14C45.8 14.6818 45.4148 15.3051 44.805 15.61L24.805 25.61C24.2982 25.8634 23.7018 25.8634 23.195 25.61L3.19501 15.61C2.5852 15.3051 2.19999 14.6818 2.19999 14C2.19999 13.3182 2.5852 12.6949 3.19501 12.39L23.195 2.39004ZM8.02492 14L24 21.9875L39.9751 14L24 6.01247L8.02492 14Z" fill="#91B1E5"/>
<path fill-rule="evenodd" clip-rule="evenodd" d="M2.39003 33.195C2.83461 32.3059 3.91582 31.9455 4.80498 32.39L24 41.9876L43.195 32.39C44.0842 31.9455 45.1654 32.3059 45.61 33.195C46.0545 34.0842 45.6941 35.1654 44.805 35.61L24.805 45.61C24.2982 45.8634 23.7018 45.8634 23.195 45.61L3.19501 35.61C2.30585 35.1654 1.94544 34.0842 2.39003 33.195Z" fill="#91B1E5"/>
<path fill-rule="evenodd" clip-rule="evenodd" d="M2.39003 23.195C2.83461 22.3059 3.91582 21.9455 4.80498 22.39L24 31.9875L43.195 22.39C44.0842 21.9455 45.1654 22.3059 45.61 23.195C46.0545 24.0842 45.6941 25.1654 44.805 25.61L24.805 35.61C24.2982 35.8634 23.7018 35.8634 23.195 35.61L3.19501 25.61C2.30585 25.1654 1.94544 24.0842 2.39003 23.195Z" fill="#91B1E5"/>
</svg>
