<svg width="45" height="45" viewBox="0 0 45 45" fill="none" xmlns="http://www.w3.org/2000/svg">
<path d="M0.0297576 9.02509L16.0298 0L32 8.97492L31.9702 26.9749L15.9702 36L0 27.0251L0.0297576 9.02509Z" fill="url(#paint0_linear_316_17679)" fill-opacity="0.4"/>
<path d="M37 44C37 44 44 40.4 44 35V28.7L37 26L30 28.7V35C30 40.4 37 44 37 44Z" stroke="#444854" stroke-width="1.7" stroke-linecap="round" stroke-linejoin="round"/>
<path d="M34.3334 34.7857L36.1746 36.8572L39.8572 32.7143" stroke="#444854" stroke-width="1.7" stroke-linecap="round" stroke-linejoin="round"/>
<path d="M30.8935 39.619H16.7619C16.0294 39.619 15.3269 39.3281 14.8089 38.8101C14.291 38.2921 14 37.5896 14 36.8571V14.7619C14 14.0294 14.291 13.3269 14.8089 12.8089C15.3269 12.291 16.0294 12 16.7619 12H28.5L36.0952 19.5952V25.8095" stroke="#444854" stroke-width="1.5" stroke-linecap="round" stroke-linejoin="round"/>
<path d="M30.8935 39.619H16.7619C16.0294 39.619 15.3269 39.3281 14.8089 38.8101C14.291 38.2921 14 37.5896 14 36.8571V14.7619C14 14.0294 14.291 13.3269 14.8089 12.8089C15.3269 12.291 16.0294 12 16.7619 12H28.5L36.0952 19.5952V25.8095" stroke="#444854" stroke-width="1.7" stroke-linecap="round" stroke-linejoin="round"/>
<path d="M27.8096 12V20.2857H36.0953" stroke="#444854" stroke-width="1.7" stroke-linecap="round" stroke-linejoin="round"/>
<path d="M14 33.619H8.7619C8.0294 33.619 7.3269 33.3281 6.80894 32.8101C6.29099 32.2921 6 31.5896 6 30.8571V8.7619C6 8.0294 6.29099 7.3269 6.80894 6.80894C7.3269 6.29099 8.0294 6 8.7619 6H20.5L26.5 12" stroke="#444854" stroke-width="1.7" stroke-linecap="round" stroke-linejoin="round"/>
<path d="M20 6L20 11.5" stroke="#444854" stroke-width="1.7" stroke-linecap="round" stroke-linejoin="round"/>
<path d="M26.4286 29H19.5238" stroke="#444854" stroke-width="1.7" stroke-linecap="round" stroke-linejoin="round"/>
<path d="M26.4286 25H19.5238" stroke="#444854" stroke-width="1.7" stroke-linecap="round" stroke-linejoin="round"/>
<path d="M26.4286 32.7143H19.5238" stroke="#444854" stroke-width="1.7" stroke-linecap="round" stroke-linejoin="round"/>
<path d="M22.2857 21.6667H19.5238" stroke="#444854" stroke-width="1.7" stroke-linecap="round" stroke-linejoin="round"/>
<path d="M22.2857 18H19.5238" stroke="#444854" stroke-width="1.7" stroke-linecap="round" stroke-linejoin="round"/>
<defs>
<linearGradient id="paint0_linear_316_17679" x1="-6.31654" y1="26.2625" x2="35.2663" y2="21.2813" gradientUnits="userSpaceOnUse">
<stop stop-color="#F56451"/>
<stop offset="1" stop-color="#F56451" stop-opacity="0"/>
</linearGradient>
</defs>
</svg>
