<svg width="48" height="48" viewBox="0 0 48 48" fill="none" xmlns="http://www.w3.org/2000/svg">
<path fill-rule="evenodd" clip-rule="evenodd" d="M12 5.80001C11.4165 5.80001 10.857 6.0318 10.4444 6.44438C10.0318 6.85696 9.80001 7.41654 9.80001 8.00001V12C9.80001 12.9941 8.99412 13.8 8.00001 13.8C7.0059 13.8 6.20001 12.9941 6.20001 12V8.00001C6.20001 6.46176 6.81108 4.9865 7.89879 3.89879C8.9865 2.81108 10.4618 2.20001 12 2.20001H29C29.4774 2.20001 29.9352 2.38965 30.2728 2.72722L41.2728 13.7272C41.6104 14.0648 41.8 14.5226 41.8 15V40C41.8 41.5383 41.1889 43.0135 40.1012 44.1012C39.0135 45.1889 37.5383 45.8 36 45.8H8.00001C7.0059 45.8 6.20001 44.9941 6.20001 44C6.20001 43.0059 7.0059 42.2 8.00001 42.2H36C36.5835 42.2 37.1431 41.9682 37.5556 41.5556C37.9682 41.1431 38.2 40.5835 38.2 40V15.7456L28.2544 5.80001H12Z" fill="#91B1E5"/>
<path fill-rule="evenodd" clip-rule="evenodd" d="M28 2.20001C28.9941 2.20001 29.8 3.0059 29.8 4.00001V14.2H40C40.9941 14.2 41.8 15.0059 41.8 16C41.8 16.9941 40.9941 17.8 40 17.8H28C27.0059 17.8 26.2 16.9941 26.2 16V4.00001C26.2 3.0059 27.0059 2.20001 28 2.20001Z" fill="#91B1E5"/>
<path fill-rule="evenodd" clip-rule="evenodd" d="M12 23.8C9.68042 23.8 7.80001 25.6804 7.80001 28C7.80001 30.3196 9.68042 32.2 12 32.2C14.3196 32.2 16.2 30.3196 16.2 28C16.2 25.6804 14.3196 23.8 12 23.8ZM4.20001 28C4.20001 23.6922 7.69219 20.2 12 20.2C16.3078 20.2 19.8 23.6922 19.8 28C19.8 32.3078 16.3078 35.8 12 35.8C7.69219 35.8 4.20001 32.3078 4.20001 28Z" fill="#91B1E5"/>
<path fill-rule="evenodd" clip-rule="evenodd" d="M12 18.2C12.9941 18.2 13.8 19.0059 13.8 20V22C13.8 22.9941 12.9941 23.8 12 23.8C11.0059 23.8 10.2 22.9941 10.2 22V20C10.2 19.0059 11.0059 18.2 12 18.2Z" fill="#91B1E5"/>
<path fill-rule="evenodd" clip-rule="evenodd" d="M12 32.2C12.9941 32.2 13.8 33.0059 13.8 34V36C13.8 36.9941 12.9941 37.8 12 37.8C11.0059 37.8 10.2 36.9941 10.2 36V34C10.2 33.0059 11.0059 32.2 12 32.2Z" fill="#91B1E5"/>
<path fill-rule="evenodd" clip-rule="evenodd" d="M16.2 28C16.2 27.0059 17.0059 26.2 18 26.2H20C20.9941 26.2 21.8 27.0059 21.8 28C21.8 28.9941 20.9941 29.8 20 29.8H18C17.0059 29.8 16.2 28.9941 16.2 28Z" fill="#91B1E5"/>
<path fill-rule="evenodd" clip-rule="evenodd" d="M2.20001 28C2.20001 27.0059 3.0059 26.2 4.00001 26.2H6.00001C6.99412 26.2 7.80001 27.0059 7.80001 28C7.80001 28.9941 6.99412 29.8 6.00001 29.8H4.00001C3.0059 29.8 2.20001 28.9941 2.20001 28Z" fill="#91B1E5"/>
<path fill-rule="evenodd" clip-rule="evenodd" d="M19.2728 20.7272C19.9757 21.4302 19.9757 22.5699 19.2728 23.2728L17.5128 25.0328C16.8099 25.7357 15.6702 25.7357 14.9672 25.0328C14.2643 24.3299 14.2643 23.1902 14.9672 22.4872L16.7272 20.7272C17.4302 20.0243 18.5699 20.0243 19.2728 20.7272Z" fill="#91B1E5"/>
<path fill-rule="evenodd" clip-rule="evenodd" d="M9.03281 30.9672C9.73575 31.6702 9.73575 32.8099 9.0328 33.5128L7.2728 35.2728C6.56986 35.9757 5.43016 35.9757 4.72722 35.2728C4.02428 34.5699 4.02428 33.4302 4.72722 32.7272L6.48722 30.9672C7.19017 30.2643 8.32986 30.2643 9.03281 30.9672Z" fill="#91B1E5"/>
<path fill-rule="evenodd" clip-rule="evenodd" d="M14.9672 30.9672C15.6702 30.2643 16.8099 30.2643 17.5128 30.9672L19.2728 32.7272C19.9757 33.4302 19.9757 34.5699 19.2728 35.2728C18.5699 35.9757 17.4302 35.9757 16.7272 35.2728L14.9672 33.5128C14.2643 32.8099 14.2643 31.6702 14.9672 30.9672Z" fill="#91B1E5"/>
<path fill-rule="evenodd" clip-rule="evenodd" d="M4.72722 20.7272C5.43016 20.0243 6.56986 20.0243 7.2728 20.7272L9.0328 22.4872C9.73575 23.1902 9.73575 24.3299 9.03281 25.0328C8.32986 25.7357 7.19016 25.7357 6.48722 25.0328L4.72722 23.2728C4.02428 22.5699 4.02428 21.4302 4.72722 20.7272Z" fill="#91B1E5"/>
</svg>
