<svg width="44" height="44" viewBox="0 0 44 44" fill="none" xmlns="http://www.w3.org/2000/svg">
<path d="M16 0L32 9V27L16 36L0 27V9L16 0Z" fill="url(#paint0_linear_316_17284)" fill-opacity="0.4"/>
<path d="M13.313 18.7314C13.3065 19.1609 13.3811 19.87 13.2441 20.2278C13.0814 20.6551 12.5573 20.8056 12.1866 20.5482C11.9292 20.369 11.8768 20.1353 11.8761 19.8105C11.8747 19.1628 11.8737 18.5154 11.8733 17.8682C11.8732 17.8566 11.8703 17.8452 11.8646 17.8352C11.859 17.8251 11.8508 17.8167 11.841 17.8108L9.78542 16.5704C9.7751 16.5642 9.76296 16.5615 9.75082 16.5628C9.73867 16.5641 9.72717 16.5693 9.71802 16.5776C7.41939 18.6741 3.9994 16.1144 5.27777 13.3333C6.2335 11.2548 9.23048 11.2218 10.2852 13.2645C10.6016 13.8772 10.6738 14.5514 10.5017 15.2871C10.499 15.2984 10.4999 15.3102 10.5043 15.3209C10.5087 15.3316 10.5163 15.3406 10.5261 15.3466L12.5565 16.5676C12.5669 16.5738 12.5788 16.5771 12.591 16.5771C12.6031 16.5771 12.615 16.5738 12.6254 16.5676L21.6299 11.1436C21.6395 11.138 21.6475 11.1298 21.653 11.12C21.6586 11.1102 21.6615 11.0991 21.6615 11.0877V7.50639C21.6615 7.46385 21.6464 7.45764 21.6163 7.48775C21.232 7.87683 20.842 8.26711 20.4462 8.65858C19.7486 9.34903 18.6896 8.39258 19.522 7.56016C20.2519 6.83028 20.9815 6.10039 21.7109 5.37051C22.1196 4.96183 22.5025 4.83923 22.9384 5.27013C23.6831 6.00671 24.4249 6.74615 25.1639 7.48847C25.346 7.67153 25.46 7.82306 25.5059 7.94303C25.7941 8.69299 24.8535 9.19416 24.282 8.62631C23.9006 8.24727 23.5173 7.8699 23.132 7.4942C23.1076 7.4703 23.0954 7.47556 23.0954 7.50997V11.0791C23.0954 11.0924 23.0988 11.1054 23.1054 11.117C23.1119 11.1286 23.1213 11.1382 23.1327 11.1451L32.1315 16.5669C32.1419 16.5733 32.1538 16.5767 32.1659 16.5767C32.1781 16.5767 32.19 16.5733 32.2004 16.5669L34.2301 15.3473C34.2397 15.3415 34.2471 15.3328 34.2514 15.3225C34.2556 15.3122 34.2565 15.3008 34.2538 15.2899C33.6429 12.9067 36.0986 10.9027 38.294 12.0958C40.0513 13.0508 40.2542 15.5151 38.6682 16.7411C37.5505 17.605 36.0993 17.5126 35.0317 16.5733C35.024 16.5665 35.0142 16.5623 35.0038 16.5614C34.9933 16.5605 34.9828 16.5629 34.9736 16.5683L32.9145 17.8123C32.9046 17.8182 32.8965 17.8265 32.8908 17.8364C32.8852 17.8463 32.8822 17.8575 32.8822 17.8689V28.5067C32.8822 28.5177 32.885 28.5284 32.8905 28.5378C32.8959 28.5473 32.9037 28.5551 32.913 28.5605L34.9772 29.8073C34.986 29.8125 34.9962 29.8147 35.0063 29.8137C35.0165 29.8126 35.0261 29.8084 35.0339 29.8016C37.0758 27.9661 40.3065 29.7514 39.672 32.4587C39.2863 34.1056 37.5849 35.037 35.9659 34.449C34.6116 33.9572 33.8967 32.4809 34.2581 31.0886C34.2608 31.0779 34.26 31.0667 34.2558 31.0567C34.2517 31.0466 34.2444 31.0382 34.2351 31.0326L32.2047 29.8088C32.1941 29.8025 32.182 29.7992 32.1698 29.7992C32.1575 29.7992 32.1455 29.8025 32.1351 29.8088L23.1334 35.2284C23.1218 35.2354 23.1123 35.2453 23.1056 35.2571C23.0989 35.2689 23.0954 35.2822 23.0954 35.2958V39.227C23.0954 39.2519 23.1043 39.2554 23.122 39.2378C23.4441 38.9127 23.7665 38.5894 24.0892 38.2677C24.2923 38.0655 24.4453 37.9395 24.548 37.8898C25.2736 37.5378 25.8959 38.4749 25.3059 39.0714C24.5229 39.862 23.7366 40.649 22.947 41.4324C22.5089 41.8669 22.1067 41.7357 21.7124 41.3399C20.9983 40.6234 20.2834 39.9081 19.5679 39.194C19.3805 39.0066 19.2656 38.8448 19.223 38.7086C19.0725 38.2261 19.5908 37.6905 20.082 37.8382C20.5179 37.9694 21.2901 38.8843 21.6263 39.2349C21.6498 39.2593 21.6615 39.2545 21.6615 39.2205V35.2901C21.6615 35.2787 21.6585 35.2675 21.6529 35.2574C21.6473 35.2474 21.6391 35.2389 21.6292 35.2327L12.6247 29.808C12.6142 29.8018 12.6022 29.7984 12.59 29.7984C12.5777 29.7984 12.5657 29.8018 12.5551 29.808L10.5311 31.0276C10.522 31.0331 10.5148 31.0412 10.5105 31.051C10.5061 31.0607 10.5048 31.0716 10.5067 31.0821C10.7409 32.3029 10.4352 33.2665 9.58968 33.973C8.05535 35.2542 5.7646 34.5645 5.15302 32.7018C4.7766 31.5553 5.16879 30.3099 6.13384 29.5972C7.25233 28.7706 8.67482 28.8752 9.72376 29.8016C9.73149 29.8082 9.74111 29.8123 9.75127 29.8132C9.76143 29.8141 9.77162 29.8118 9.7804 29.8066L11.8396 28.5684C11.8495 28.5622 11.8576 28.5537 11.8634 28.5437C11.8692 28.5337 11.8723 28.5225 11.8725 28.511C11.8759 27.8963 11.8761 27.2824 11.8733 26.6691C11.8723 26.4067 11.9039 26.2105 11.9679 26.0805C12.2877 25.433 13.3079 25.6754 13.3072 26.3866C13.3067 27.095 13.3087 27.8031 13.313 28.511C13.3129 28.5224 13.3159 28.5336 13.3215 28.5436C13.3272 28.5537 13.3353 28.5622 13.3452 28.5684L21.6242 33.555C21.649 33.5698 21.6615 33.5626 21.6615 33.5335V23.7689C21.6615 23.7554 21.658 23.742 21.6513 23.7302C21.6446 23.7184 21.6351 23.7085 21.6235 23.7015L13.3438 18.7142C13.3237 18.7023 13.3134 18.708 13.313 18.7314ZM14.0407 17.4617L22.3648 22.4733C22.3698 22.4766 22.3756 22.4783 22.3816 22.4783C22.3875 22.4783 22.3934 22.4766 22.3985 22.4733L30.7478 17.443C30.7506 17.4414 30.753 17.439 30.7547 17.4361C30.7564 17.4332 30.7572 17.4299 30.7572 17.4265C30.7572 17.4231 30.7564 17.4198 30.7547 17.4167C30.753 17.4137 30.7506 17.4112 30.7478 17.4093L23.1277 12.8156C23.1062 12.8022 23.0954 12.8082 23.0954 12.8335C23.0954 14.3406 23.0954 15.8518 23.0954 17.367C23.0954 18.3873 21.6564 18.3823 21.6608 17.367C21.667 15.8637 21.6641 14.3617 21.6521 12.8608C21.6521 12.8221 21.6357 12.8128 21.6027 12.8328L14.0407 17.3907C14.0346 17.3944 14.0296 17.3996 14.0261 17.4058C14.0226 17.412 14.0208 17.419 14.0208 17.4262C14.0208 17.4333 14.0226 17.4403 14.0261 17.4465C14.0296 17.4527 14.0346 17.4579 14.0407 17.4617ZM38.3133 14.5407C38.3133 14.18 38.17 13.834 37.915 13.5789C37.6599 13.3239 37.3139 13.1806 36.9532 13.1806C36.5925 13.1806 36.2465 13.3239 35.9915 13.5789C35.7364 13.834 35.5931 14.18 35.5931 14.5407C35.5931 14.9014 35.7364 15.2473 35.9915 15.5024C36.2465 15.7575 36.5925 15.9008 36.9532 15.9008C37.3139 15.9008 37.6599 15.7575 37.915 15.5024C38.17 15.2473 38.3133 14.9014 38.3133 14.5407ZM9.16165 14.5407C9.16165 14.18 9.01835 13.834 8.76328 13.5789C8.50821 13.3239 8.16226 13.1806 7.80154 13.1806C7.44081 13.1806 7.09487 13.3239 6.83979 13.5789C6.58472 13.834 6.44143 14.18 6.44143 14.5407C6.44143 14.9014 6.58472 15.2473 6.83979 15.5024C7.09487 15.7575 7.44081 15.9008 7.80154 15.9008C8.16226 15.9008 8.50821 15.7575 8.76328 15.5024C9.01835 15.2473 9.16165 14.9014 9.16165 14.5407ZM23.0954 33.5356C23.0955 33.5398 23.0966 33.5439 23.0987 33.5475C23.1009 33.5511 23.1039 33.554 23.1075 33.5561C23.1112 33.5581 23.1153 33.5591 23.1195 33.5591C23.1236 33.559 23.1277 33.5578 23.1313 33.5557L31.4368 28.5548C31.4403 28.5526 31.4433 28.5496 31.4453 28.5459C31.4473 28.5423 31.4483 28.5381 31.4482 28.534V18.7379C31.4482 18.7337 31.4471 18.7296 31.4449 18.726C31.4428 18.7224 31.4398 18.7195 31.4361 18.7174C31.4325 18.7154 31.4284 18.7144 31.4242 18.7144C31.42 18.7145 31.416 18.7156 31.4124 18.7178L23.1069 23.7194C23.1033 23.7216 23.1004 23.7247 23.0984 23.7283C23.0964 23.732 23.0953 23.7361 23.0954 23.7402V33.5356ZM9.16093 31.8342C9.16093 31.6557 9.12577 31.4789 9.05745 31.314C8.98914 31.1491 8.88901 30.9992 8.76277 30.873C8.63654 30.7468 8.48668 30.6466 8.32176 30.5783C8.15683 30.51 7.98006 30.4748 7.80154 30.4748C7.441 30.4748 7.09524 30.6181 6.8403 30.873C6.58537 31.1279 6.44214 31.4737 6.44214 31.8342C6.44214 32.1948 6.58537 32.5405 6.8403 32.7955C7.09524 33.0504 7.441 33.1936 7.80154 33.1936C7.98006 33.1936 8.15683 33.1585 8.32176 33.0901C8.48668 33.0218 8.63654 32.9217 8.76277 32.7955C8.88901 32.6692 8.98914 32.5194 9.05745 32.3544C9.12577 32.1895 9.16093 32.0127 9.16093 31.8342ZM38.3126 31.8342C38.3126 31.6556 38.2774 31.4787 38.2091 31.3137C38.1407 31.1487 38.0405 30.9988 37.9142 30.8725C37.7879 30.7462 37.638 30.646 37.473 30.5776C37.308 30.5093 37.1311 30.4741 36.9525 30.4741C36.5918 30.4741 36.2458 30.6174 35.9907 30.8725C35.7357 31.1275 35.5924 31.4735 35.5924 31.8342C35.5924 32.1949 35.7357 32.5409 35.9907 32.796C36.2458 33.051 36.5918 33.1943 36.9525 33.1943C37.1311 33.1943 37.308 33.1592 37.473 33.0908C37.638 33.0224 37.7879 32.9223 37.9142 32.796C38.0405 32.6697 38.1407 32.5197 38.2091 32.3547C38.2774 32.1897 38.3126 32.0128 38.3126 31.8342Z" fill="#444854" stroke="#444854" stroke-width="0.1"/>
<path d="M12.5903 23.8972C12.9823 23.8972 13.3001 23.5794 13.3001 23.1874C13.3001 22.7954 12.9823 22.4776 12.5903 22.4776C12.1983 22.4776 11.8805 22.7954 11.8805 23.1874C11.8805 23.5794 12.1983 23.8972 12.5903 23.8972Z" fill="#444854"/>
<defs>
<linearGradient id="paint0_linear_316_17284" x1="-2.4752" y1="3.27815" x2="21.7742" y2="36.606" gradientUnits="userSpaceOnUse">
<stop stop-color="#F56451"/>
<stop offset="1" stop-color="#F56451" stop-opacity="0"/>
</linearGradient>
</defs>
</svg>
