<svg width="48" height="48" viewBox="0 0 48 48" fill="none" xmlns="http://www.w3.org/2000/svg">
<path fill-rule="evenodd" clip-rule="evenodd" d="M8.52869 9.07828C7.823 9.63444 7.80001 9.9595 7.80001 10C7.80001 10.0405 7.823 10.3656 8.52869 10.9217C9.2141 11.4619 10.3174 12.0271 11.8413 12.535C14.8702 13.5447 19.1691 14.2 24 14.2C28.8309 14.2 33.1298 13.5447 36.1587 12.535C37.6826 12.0271 38.7859 11.4619 39.4713 10.9217C40.177 10.3656 40.2 10.0405 40.2 10C40.2 9.9595 40.177 9.63443 39.4713 9.07828C38.7859 8.53812 37.6826 7.97295 36.1587 7.465C33.1298 6.45537 28.8309 5.80001 24 5.80001C19.1691 5.80001 14.8702 6.45537 11.8413 7.465C10.3174 7.97295 9.2141 8.53812 8.52869 9.07828ZM40.2 14.7219C39.3366 15.1898 38.3542 15.5979 37.2971 15.9503C33.8113 17.1122 29.1102 17.8 24 17.8C18.8898 17.8 14.1887 17.1122 10.7029 15.9503C9.6458 15.5979 8.6634 15.1898 7.80001 14.7219V24C7.80001 24.0263 7.81451 24.3432 8.49868 24.8938C9.16622 25.431 10.2646 26.0095 11.8413 26.535C14.9828 27.5822 19.3578 28.2 24 28.2C28.6422 28.2 33.0172 27.5822 36.1587 26.535C37.7354 26.0095 38.8338 25.431 39.5013 24.8938C40.1855 24.3432 40.2 24.0263 40.2 24V14.7219ZM43.8 10C43.8 8.38367 42.8156 7.13031 41.6996 6.2508C40.5633 5.3553 39.0306 4.62758 37.2971 4.04974C33.8113 2.8878 29.1102 2.20001 24 2.20001C18.8898 2.20001 14.1887 2.8878 10.7029 4.04974C8.96938 4.62758 7.43668 5.3553 6.30039 6.2508C5.18439 7.13031 4.20001 8.38367 4.20001 10V38C4.20001 39.565 5.13373 40.8068 6.24168 41.6984C7.36626 42.6034 8.90391 43.3506 10.7029 43.9503C14.3127 45.1536 19.0944 45.8 24 45.8C28.9056 45.8 33.6873 45.1536 37.2971 43.9503C39.0961 43.3506 40.6338 42.6034 41.7583 41.6984C42.8663 40.8068 43.8 39.565 43.8 38V10ZM40.2 28.7204C39.3463 29.1841 38.368 29.5933 37.2971 29.9503C33.6873 31.1536 28.9056 31.8 24 31.8C19.0944 31.8 14.3127 31.1536 10.7029 29.9503C9.63198 29.5933 8.65369 29.1841 7.80001 28.7204V38C7.80001 38.0263 7.81451 38.3432 8.49868 38.8938C9.16622 39.431 10.2646 40.0095 11.8413 40.535C14.9828 41.5822 19.3578 42.2 24 42.2C28.6422 42.2 33.0172 41.5822 36.1587 40.535C37.7354 40.0095 38.8338 39.431 39.5013 38.8938C40.1855 38.3432 40.2 38.0263 40.2 38V28.7204Z" fill="#91B1E5"/>
</svg>
