<svg width="24" height="24" viewBox="0 0 24 24" fill="none" xmlns="http://www.w3.org/2000/svg">
<path fill-rule="evenodd" clip-rule="evenodd" d="M11.2413 18.749V13.8458H12.7413V18.749H11.2413Z" fill="#91B1E5"/>
<path fill-rule="evenodd" clip-rule="evenodd" d="M11.235 4.33298C10.0297 3.42902 8.75366 2.8193 7.42364 3.48442L7.42363 3.48442C6.22268 4.08499 5.69303 5.45118 5.69303 6.49104C5.69303 6.86428 5.41859 7.18072 5.0491 7.23351C3.35261 7.47587 2.68823 8.93277 2.62544 9.62346C2.48949 11.1188 2.91932 11.9 3.38883 12.3424C3.87368 12.7993 4.50922 12.9981 5.01284 13.0959H18.6268C19.0865 12.954 19.7376 12.635 20.2507 12.126C20.7792 11.6016 21.1475 10.8955 21.0516 9.93663C20.9503 8.92353 20.5225 8.33694 20.049 7.95702C19.5467 7.55388 18.9649 7.35877 18.4962 7.20257C18.2722 7.12792 18.0965 6.95218 18.0218 6.72822C18.0005 6.66431 17.9796 6.60033 17.9586 6.53633C17.6708 5.6579 17.3825 4.77776 16.2023 4.06966C14.9913 3.34306 13.4629 3.5408 12.0709 4.37609C11.8094 4.53299 11.4789 4.51595 11.235 4.33298ZM11.7369 2.84652C10.4915 1.99039 8.70962 1.16421 6.75272 2.14283C5.14744 2.94559 4.4084 4.54423 4.2344 5.87436C2.08506 6.47373 1.22746 8.43314 1.1316 9.48765C0.961088 11.3632 1.50169 12.6251 2.36013 13.4341C3.18234 14.2088 4.19813 14.4727 4.80887 14.5838C4.85314 14.5918 4.89804 14.5959 4.94303 14.5959H18.7333C18.8 14.5959 18.8664 14.587 18.9307 14.5694C19.5929 14.3888 20.5424 13.9496 21.3072 13.1908C22.0913 12.4128 22.6934 11.2801 22.5441 9.78738C22.4003 8.34887 21.7555 7.40318 20.9878 6.78713C20.4167 6.32879 19.7922 6.06667 19.33 5.90191C19.0338 4.99923 18.5537 3.73117 16.9741 2.78342C15.2788 1.76626 13.336 2.02669 11.7369 2.84652Z" fill="#91B1E5"/>
<path fill-rule="evenodd" clip-rule="evenodd" d="M3.41092 16.7339C2.97889 16.7339 2.62866 17.0841 2.62866 17.5161C2.62866 17.9481 2.97889 18.2984 3.41092 18.2984C3.84295 18.2984 4.19318 17.9481 4.19318 17.5161C4.19318 17.0841 3.84295 16.7339 3.41092 16.7339ZM1.12866 17.5161C1.12866 16.2557 2.15046 15.2339 3.41092 15.2339C4.67138 15.2339 5.69318 16.2557 5.69318 17.5161C5.69318 18.7766 4.67138 19.7984 3.41092 19.7984C2.15046 19.7984 1.12866 18.7766 1.12866 17.5161Z" fill="#91B1E5"/>
<path fill-rule="evenodd" clip-rule="evenodd" d="M20.5721 16.7339C20.14 16.7339 19.7898 17.0841 19.7898 17.5161C19.7898 17.9481 20.14 18.2984 20.5721 18.2984C21.0041 18.2984 21.3543 17.9481 21.3543 17.5161C21.3543 17.0841 21.0041 16.7339 20.5721 16.7339ZM18.2898 17.5161C18.2898 16.2557 19.3116 15.2339 20.5721 15.2339C21.8325 15.2339 22.8543 16.2557 22.8543 17.5161C22.8543 18.7766 21.8325 19.7984 20.5721 19.7984C19.3116 19.7984 18.2898 18.7766 18.2898 17.5161Z" fill="#91B1E5"/>
<path fill-rule="evenodd" clip-rule="evenodd" d="M11.9915 19.1855C11.5595 19.1855 11.2092 19.5357 11.2092 19.9677C11.2092 20.3997 11.5595 20.75 11.9915 20.75C12.4235 20.75 12.7737 20.3997 12.7737 19.9677C12.7737 19.5357 12.4235 19.1855 11.9915 19.1855ZM9.70923 19.9677C9.70923 18.7073 10.731 17.6855 11.9915 17.6855C13.2519 17.6855 14.2737 18.7073 14.2737 19.9677C14.2737 21.2282 13.2519 22.25 11.9915 22.25C10.731 22.25 9.70923 21.2282 9.70923 19.9677Z" fill="#91B1E5"/>
<path fill-rule="evenodd" clip-rule="evenodd" d="M9.37029 13.8458V17.5232C9.37029 17.9375 9.0345 18.2732 8.62029 18.2732H4.94287V16.7732H7.87029V13.8458H9.37029Z" fill="#91B1E5"/>
<path fill-rule="evenodd" clip-rule="evenodd" d="M19.0398 18.2732L15.3624 18.2732C14.9482 18.2732 14.6124 17.9375 14.6124 17.5232L14.6124 13.8458L16.1124 13.8458L16.1124 16.7732L19.0398 16.7732L19.0398 18.2732Z" fill="#91B1E5"/>
</svg>
