<svg width="48" height="48" viewBox="0 0 48 48" fill="none" xmlns="http://www.w3.org/2000/svg">
<path fill-rule="evenodd" clip-rule="evenodd" d="M21.2662 30.1895C22.2264 29.9322 23.2134 30.5021 23.4707 31.4623L25.9331 40.6519L35.1226 38.1895C36.0828 37.9322 37.0698 38.5021 37.3271 39.4623C37.5844 40.4226 37.0146 41.4096 36.0543 41.6669L25.1261 44.5951C24.1659 44.8524 23.1789 44.2825 22.9216 43.3223L19.9934 32.3941C19.7361 31.4338 20.306 30.4468 21.2662 30.1895Z" fill="#91B1E5"/>
<path fill-rule="evenodd" clip-rule="evenodd" d="M41.5603 13.5847C42.4212 14.0818 42.7162 15.1827 42.2191 16.0436L26.2191 43.7564C25.7221 44.6173 24.6212 44.9123 23.7603 44.4152C22.8993 43.9182 22.6044 42.8173 23.1014 41.9564L39.1014 14.2436C39.5985 13.3827 40.6993 13.0877 41.5603 13.5847Z" fill="#91B1E5"/>
<path fill-rule="evenodd" clip-rule="evenodd" d="M22.8739 3.40492C23.8341 3.14762 24.8211 3.71747 25.0784 4.67771L28.0066 15.6059C28.2639 16.5662 27.6941 17.5532 26.7338 17.8105C25.7736 18.0678 24.7866 17.4979 24.5293 16.5377L22.067 7.34813L12.8774 9.81046C11.9172 10.0678 10.9302 9.4979 10.6729 8.53766C10.4156 7.57743 10.9854 6.59042 11.9457 6.33312L22.8739 3.40492Z" fill="#91B1E5"/>
<path fill-rule="evenodd" clip-rule="evenodd" d="M24.2398 3.58474C25.1007 4.0818 25.3957 5.18266 24.8986 6.04359L8.89861 33.7564C8.40155 34.6173 7.30069 34.9123 6.43976 34.4152C5.57883 33.9182 5.28386 32.8173 5.78091 31.9564L21.7809 4.24359C22.278 3.38266 23.3788 3.08768 24.2398 3.58474Z" fill="#91B1E5"/>
</svg>
