<svg width="44" height="44" viewBox="0 0 44 44" fill="none" xmlns="http://www.w3.org/2000/svg">
<path d="M16 0L32 9V27L16 36L0 27V9L16 0Z" fill="url(#paint0_linear_316_17396)" fill-opacity="0.4"/>
<path d="M19.534 23.9095C19.2687 25.8861 21.4211 29.0485 21.4211 29.0485C21.4211 29.0485 23.8656 26.1122 23.7904 24.1189C23.7515 22.9996 22.8734 22.0337 21.7593 21.9861C21.2197 21.9723 20.6942 22.161 20.2835 22.516C19.8728 22.871 19.6059 23.3672 19.534 23.9095Z" stroke="#444854" stroke-width="1.7" stroke-linecap="round" stroke-linejoin="round"/>
<path d="M24.0639 18.6462L19.8075 18.4368C19.2715 17.0316 18.8767 15.5751 18.629 14.0896C18.2383 11.8874 18.4097 9.62042 19.1271 7.50436C19.8445 5.38831 21.084 3.49351 22.7277 2.00019C24.5636 4.05133 27.2098 8.18964 25.6893 14.4009C25.2889 15.8676 24.7444 17.2898 24.0639 18.6462Z" stroke="#444854" stroke-width="1.7" stroke-linecap="round" stroke-linejoin="round"/>
<path d="M19.7092 18.4368L15.99 21.8582C15.99 21.8582 14.3539 19.1969 14.7778 17.4733C15.2538 15.5503 18.497 14.0519 18.497 14.0519" stroke="#444854" stroke-width="1.7" stroke-linecap="round" stroke-linejoin="round"/>
<path d="M23.9465 18.4803L27.0889 22.4519C27.0889 22.4519 29.1173 20.0845 28.966 18.3147C28.7941 16.3398 25.8237 14.3431 25.8237 14.3431" stroke="#444854" stroke-width="1.7" stroke-linecap="round" stroke-linejoin="round"/>
<path d="M40.7494 40.1359V18.752C40.7494 17.4917 40.2555 16.283 39.3765 15.3918C38.4974 14.5007 37.3052 14 36.062 14H26.1152M40.7494 40.1359H3.25063M40.7494 40.1359L42.7493 40.085L42.6476 41.4073C42.4359 41.7531 42.14 42.038 41.7885 42.2346C41.4369 42.4313 41.0415 42.533 40.64 42.5302H3.36004C2.95854 42.533 2.56306 42.4313 2.21151 42.2346C1.85996 42.038 1.56413 41.7531 1.35239 41.4073L1.25073 40.085L3.25063 40.1359M3.25063 40.1359V18.752C3.25063 17.4917 3.74447 16.283 4.62352 15.3918C5.50257 14.5007 6.69481 14 7.93797 14H18.0797" stroke="#444854" stroke-width="1.7" stroke-linecap="round" stroke-linejoin="round"/>
<path d="M6.5 40.2818C7 37.7818 10.22 36.6704 12.5389 36.8663C13.0411 35.3389 15.05 32.7932 18.5655 34.8297C18.9645 33.2957 22.4645 32.2957 24.0898 34.8297C25.5965 34.3206 27.1031 33.3023 29.112 36.3572C30.9367 35.9726 35.5 36.8663 37 40.2818" stroke="#444854" stroke-width="1.7" stroke-linejoin="round"/>
<mask id="path-8-inside-1_316_17396" fill="white">
<ellipse cx="22.3066" cy="10.5274" rx="1.50665" ry="1.52742"/>
</mask>
<path d="M22.1133 10.5274C22.1133 10.4541 22.178 10.3548 22.3066 10.3548V13.7548C24.0995 13.7548 25.5133 12.2879 25.5133 10.5274H22.1133ZM22.3066 10.3548C22.4353 10.3548 22.5 10.4541 22.5 10.5274H19.1C19.1 12.2879 20.5138 13.7548 22.3066 13.7548V10.3548ZM22.5 10.5274C22.5 10.6007 22.4353 10.7 22.3066 10.7V7.3C20.5138 7.3 19.1 8.76699 19.1 10.5274H22.5ZM22.3066 10.7C22.178 10.7 22.1133 10.6007 22.1133 10.5274H25.5133C25.5133 8.76699 24.0995 7.3 22.3066 7.3V10.7Z" fill="#444854" mask="url(#path-8-inside-1_316_17396)"/>
<defs>
<linearGradient id="paint0_linear_316_17396" x1="-2.4752" y1="3.27815" x2="21.7742" y2="36.606" gradientUnits="userSpaceOnUse">
<stop stop-color="#F56451"/>
<stop offset="1" stop-color="#F56451" stop-opacity="0"/>
</linearGradient>
</defs>
</svg>
