<svg width="48" height="48" viewBox="0 0 48 48" fill="none" xmlns="http://www.w3.org/2000/svg">
<path fill-rule="evenodd" clip-rule="evenodd" d="M10 23.8C8.78497 23.8 7.8 24.785 7.8 26V40C7.8 41.215 8.78497 42.2 10 42.2H38C39.215 42.2 40.2 41.215 40.2 40V26C40.2 24.785 39.215 23.8 38 23.8H10ZM4.2 26C4.2 22.7968 6.79675 20.2 10 20.2H38C41.2033 20.2 43.8 22.7968 43.8 26V40C43.8 43.2033 41.2033 45.8 38 45.8H10C6.79675 45.8 4.2 43.2033 4.2 40V26Z" fill="#91B1E5"/>
<path fill-rule="evenodd" clip-rule="evenodd" d="M24 5.80001C21.8252 5.80001 19.7395 6.66394 18.2017 8.20174C16.6639 9.73954 15.8 11.8252 15.8 14V22C15.8 22.9941 14.9941 23.8 14 23.8C13.0059 23.8 12.2 22.9941 12.2 22V14C12.2 10.8705 13.4432 7.86908 15.6561 5.65615C17.8691 3.44322 20.8704 2.20001 24 2.20001C27.1295 2.20001 30.1309 3.44322 32.3439 5.65615C34.5568 7.86908 35.8 10.8705 35.8 14V22C35.8 22.9941 34.9941 23.8 34 23.8C33.0059 23.8 32.2 22.9941 32.2 22V14C32.2 11.8252 31.3361 9.73954 29.7983 8.20174C28.2605 6.66394 26.1748 5.80001 24 5.80001Z" fill="#91B1E5"/>
</svg>
