<svg width="88" height="88" viewBox="0 0 88 88" fill="none" xmlns="http://www.w3.org/2000/svg">
<path fill-rule="evenodd" clip-rule="evenodd" d="M15 15V73H32.6667V15H15ZM7 14.6667C7 10.4325 10.4325 7 14.6667 7H33C37.2342 7 40.6667 10.4325 40.6667 14.6667V73.3333C40.6667 77.5675 37.2342 81 33 81H14.6667C10.4325 81 7 77.5675 7 73.3333V14.6667Z" fill="#B0B6C5"/>
<path fill-rule="evenodd" clip-rule="evenodd" d="M55.334 15V32.6667H73.0007V15H55.334ZM47.334 14.6667C47.334 10.4325 50.7665 7 55.0007 7H73.334C77.5682 7 81.0006 10.4325 81.0006 14.6667V33C81.0006 37.2342 77.5682 40.6667 73.334 40.6667H55.0007C50.7665 40.6667 47.334 37.2342 47.334 33V14.6667Z" fill="#B0B6C5"/>
<path fill-rule="evenodd" clip-rule="evenodd" d="M55.334 55.334V73.0007H73.0007V55.334H55.334ZM47.334 55.0007C47.334 50.7665 50.7665 47.334 55.0007 47.334H73.334C77.5682 47.334 81.0006 50.7665 81.0006 55.0007V73.334C81.0006 77.5682 77.5682 81.0006 73.334 81.0006H55.0007C50.7665 81.0006 47.334 77.5682 47.334 73.334V55.0007Z" fill="#B0B6C5"/>
</svg>
