<svg width="88" height="88" viewBox="0 0 88 88" fill="none" xmlns="http://www.w3.org/2000/svg">
<path fill-rule="evenodd" clip-rule="evenodd" d="M62.375 25.6248C63.4464 26.6962 63.8204 28.281 63.3412 29.7184L56.7267 49.5583C56.7266 49.5585 56.7267 49.5582 56.7267 49.5583C56.1703 51.2275 55.2328 52.7446 53.9887 53.9887C52.7446 55.2328 51.2279 56.1702 49.5587 56.7266C49.5586 56.7266 49.5588 56.7265 49.5587 56.7266L29.7184 63.3412C28.281 63.8204 26.6962 63.4464 25.6248 62.375C24.5534 61.3036 24.1794 59.7188 24.6586 58.2814L31.2731 38.4415C31.2731 38.4416 31.2732 38.4413 31.2731 38.4415C31.8295 36.7723 32.767 35.2552 34.0111 34.0111C35.2552 32.767 36.7719 31.8296 38.4411 31.2732C38.441 31.2733 38.4412 31.2732 38.4411 31.2732L58.2814 24.6586C59.7188 24.1794 61.3036 24.5534 62.375 25.6248ZM53.2213 34.7785L40.9714 38.8626C40.4804 39.0262 40.0339 39.302 39.668 39.668C39.302 40.0339 39.0263 40.48 38.8627 40.971L34.7785 53.2213L47.0284 49.1372C47.5194 48.9736 47.9659 48.6978 48.3318 48.3318C48.6978 47.9659 48.9735 47.5198 49.1371 47.0288L53.2213 34.7785Z" fill="#B0B6C5"/>
<path fill-rule="evenodd" clip-rule="evenodd" d="M44.0007 11.334C25.9593 11.334 11.334 25.9593 11.334 44.0007C11.334 62.042 25.9593 76.6673 44.0007 76.6673C62.042 76.6673 76.6673 62.042 76.6673 44.0007C76.6673 25.9593 62.042 11.334 44.0007 11.334ZM3.33398 44.0007C3.33398 21.5411 21.5411 3.33398 44.0007 3.33398C66.4602 3.33398 84.6673 21.5411 84.6673 44.0007C84.6673 66.4602 66.4602 84.6673 44.0007 84.6673C21.5411 84.6673 3.33398 66.4602 3.33398 44.0007Z" fill="#B0B6C5"/>
</svg>
