<svg width="88" height="88" viewBox="0 0 88 88" fill="none" xmlns="http://www.w3.org/2000/svg">
<path fill-rule="evenodd" clip-rule="evenodd" d="M40 73.334C40 71.1248 41.7909 69.334 44 69.334H44.0367C46.2458 69.334 48.0367 71.1248 48.0367 73.334C48.0367 75.5431 46.2458 77.334 44.0367 77.334H44C41.7909 77.334 40 75.5431 40 73.334Z" fill="#B0B6C5"/>
<path fill-rule="evenodd" clip-rule="evenodd" d="M43.9993 58.998C40.2476 58.998 36.6453 60.4691 33.966 63.0953C32.3884 64.6417 29.8558 64.6164 28.3094 63.0388C26.763 61.4611 26.7884 58.9286 28.366 57.3822C32.5408 53.2901 38.1535 50.998 43.9993 50.998C49.8452 50.998 55.4579 53.2901 59.6327 57.3822C61.2103 58.9286 61.2356 61.4611 59.6893 63.0388C58.1429 64.6164 55.6103 64.6417 54.0327 63.0953C51.3534 60.4691 47.7511 58.998 43.9993 58.998Z" fill="#B0B6C5"/>
<path fill-rule="evenodd" clip-rule="evenodd" d="M41.2231 36.5537C41.6274 38.7255 40.1946 40.8139 38.0228 41.2183C31.6456 42.4056 25.7664 45.4647 21.1341 50.0056C19.5566 51.5521 17.024 51.5269 15.4776 49.9494C13.9311 48.3718 13.9563 45.8393 15.5338 44.2928C21.3005 38.6397 28.6196 34.8315 36.5585 33.3534C38.7303 32.9491 40.8187 34.3819 41.2231 36.5537Z" fill="#B0B6C5"/>
<path fill-rule="evenodd" clip-rule="evenodd" d="M58.8417 39.5678C59.9448 37.6538 62.3906 36.9964 64.3046 38.0995C67.2755 39.8117 70.0178 41.8927 72.4664 44.293C74.044 45.8395 74.0692 48.372 72.5227 49.9496C70.9763 51.5272 68.4437 51.5524 66.8662 50.0059C64.8993 48.0777 62.6964 46.4061 60.31 45.0308C58.396 43.9277 57.7386 41.4818 58.8417 39.5678Z" fill="#B0B6C5"/>
<path fill-rule="evenodd" clip-rule="evenodd" d="M26.3361 21.0968C27.1936 23.1328 26.2383 25.4783 24.2023 26.3358C19.004 28.5253 14.205 31.5619 10.0005 35.322C8.35385 36.7947 5.82512 36.6537 4.35245 35.007C2.87978 33.3603 3.02084 30.8316 4.66752 29.3589C9.53146 25.0089 15.0833 21.496 21.0971 18.9631C23.133 18.1056 25.4786 19.0609 26.3361 21.0968Z" fill="#B0B6C5"/>
<path fill-rule="evenodd" clip-rule="evenodd" d="M38.934 14.5539C46.9532 13.8627 55.029 14.8195 62.6646 17.3656C70.3002 19.9117 77.3341 23.9932 83.3335 29.359C84.9801 30.8317 85.1211 33.3605 83.6484 35.0071C82.1757 36.6537 79.6469 36.7947 78.0003 35.322C72.8144 30.6838 66.7342 27.1557 60.134 24.9548C53.5337 22.7539 46.5529 21.9268 39.6211 22.5244C37.4201 22.7141 35.4821 21.0837 35.2924 18.8827C35.1026 16.6817 36.7331 14.7437 38.934 14.5539Z" fill="#B0B6C5"/>
<path fill-rule="evenodd" clip-rule="evenodd" d="M4.50556 4.50556C6.06765 2.94346 8.60031 2.94346 10.1624 4.50556L83.4957 77.8389C85.0578 79.401 85.0578 81.9336 83.4957 83.4957C81.9336 85.0578 79.401 85.0578 77.8389 83.4957L4.50556 10.1624C2.94346 8.60031 2.94346 6.06765 4.50556 4.50556Z" fill="#B0B6C5"/>
</svg>
