<svg width="88" height="88" viewBox="0 0 88 88" fill="none" xmlns="http://www.w3.org/2000/svg">
<path fill-rule="evenodd" clip-rule="evenodd" d="M29.334 3.33398C31.5431 3.33398 33.334 5.12485 33.334 7.33398V22.0007C33.334 24.2098 31.5431 26.0007 29.334 26.0007C27.1248 26.0007 25.334 24.2098 25.334 22.0007V7.33398C25.334 5.12485 27.1248 3.33398 29.334 3.33398Z" fill="#B0B6C5"/>
<path fill-rule="evenodd" clip-rule="evenodd" d="M44 3.33398C46.2091 3.33398 48 5.12485 48 7.33398V22.0007C48 24.2098 46.2091 26.0007 44 26.0007C41.7909 26.0007 40 24.2098 40 22.0007V7.33398C40 5.12485 41.7909 3.33398 44 3.33398Z" fill="#B0B6C5"/>
<path fill-rule="evenodd" clip-rule="evenodd" d="M58.666 3.33398C60.8752 3.33398 62.666 5.12485 62.666 7.33398V22.0007C62.666 24.2098 60.8752 26.0007 58.666 26.0007C56.4569 26.0007 54.666 24.2098 54.666 22.0007V7.33398C54.666 5.12485 56.4569 3.33398 58.666 3.33398Z" fill="#B0B6C5"/>
<path fill-rule="evenodd" clip-rule="evenodd" d="M54.666 14.666C54.666 12.4569 56.4569 10.666 58.666 10.666H65.9993C69.0051 10.666 71.8878 11.8601 74.0132 13.9855C76.1386 16.1109 77.3327 18.9936 77.3327 21.9993V29.3327C77.3327 31.5418 75.5418 33.3327 73.3327 33.3327C71.1235 33.3327 69.3327 31.5418 69.3327 29.3327V21.9993C69.3327 21.1153 68.9815 20.2674 68.3564 19.6423C67.7312 19.0172 66.8834 18.666 65.9993 18.666H58.666C56.4569 18.666 54.666 16.8752 54.666 14.666Z" fill="#B0B6C5"/>
<path fill-rule="evenodd" clip-rule="evenodd" d="M73.334 40C75.5431 40 77.334 41.7909 77.334 44V51.3333C77.334 53.5425 75.5431 55.3333 73.334 55.3333C71.1248 55.3333 69.334 53.5425 69.334 51.3333V44C69.334 41.7909 71.1248 40 73.334 40Z" fill="#B0B6C5"/>
<path fill-rule="evenodd" clip-rule="evenodd" d="M73.334 62C75.5431 62 77.334 63.7909 77.334 66V73.3333C77.334 76.3391 76.1399 79.2218 74.0145 81.3472C71.8891 83.4726 69.0064 84.6667 66.0007 84.6667H62.334C60.1248 84.6667 58.334 82.8758 58.334 80.6667C58.334 78.4575 60.1248 76.6667 62.334 76.6667H66.0007C66.8847 76.6667 67.7325 76.3155 68.3577 75.6904C68.9828 75.0652 69.334 74.2174 69.334 73.3333V66C69.334 63.7909 71.1248 62 73.334 62Z" fill="#B0B6C5"/>
<path fill-rule="evenodd" clip-rule="evenodd" d="M36.334 80.666C36.334 78.4569 38.1248 76.666 40.334 76.666H47.6673C49.8765 76.666 51.6673 78.4569 51.6673 80.666C51.6673 82.8752 49.8765 84.666 47.6673 84.666H40.334C38.1248 84.666 36.334 82.8752 36.334 80.666Z" fill="#B0B6C5"/>
<path fill-rule="evenodd" clip-rule="evenodd" d="M14.666 62C16.8752 62 18.666 63.7909 18.666 66V73.3333C18.666 74.2174 19.0172 75.0652 19.6423 75.6904C20.2674 76.3155 21.1153 76.6667 21.9993 76.6667H25.666C27.8752 76.6667 29.666 78.4575 29.666 80.6667C29.666 82.8758 27.8752 84.6667 25.666 84.6667H21.9993C18.9936 84.6667 16.1109 83.4726 13.9855 81.3472C11.8601 79.2218 10.666 76.3391 10.666 73.3333V66C10.666 63.7909 12.4569 62 14.666 62Z" fill="#B0B6C5"/>
<path fill-rule="evenodd" clip-rule="evenodd" d="M14.666 40C16.8752 40 18.666 41.7909 18.666 44V51.3333C18.666 53.5425 16.8752 55.3333 14.666 55.3333C12.4569 55.3333 10.666 53.5425 10.666 51.3333V44C10.666 41.7909 12.4569 40 14.666 40Z" fill="#B0B6C5"/>
<path fill-rule="evenodd" clip-rule="evenodd" d="M21.9993 18.666C21.1153 18.666 20.2674 19.0172 19.6423 19.6423C19.0172 20.2674 18.666 21.1153 18.666 21.9993V29.3327C18.666 31.5418 16.8752 33.3327 14.666 33.3327C12.4569 33.3327 10.666 31.5418 10.666 29.3327V21.9993C10.666 18.9936 11.8601 16.1109 13.9855 13.9855C16.1109 11.8601 18.9936 10.666 21.9993 10.666H29.3327C31.5418 10.666 33.3327 12.4569 33.3327 14.666C33.3327 16.8752 31.5418 18.666 29.3327 18.666H21.9993Z" fill="#B0B6C5"/>
<path fill-rule="evenodd" clip-rule="evenodd" d="M25.334 36.666C25.334 34.4569 27.1248 32.666 29.334 32.666H51.334C53.5431 32.666 55.334 34.4569 55.334 36.666C55.334 38.8752 53.5431 40.666 51.334 40.666H29.334C27.1248 40.666 25.334 38.8752 25.334 36.666Z" fill="#B0B6C5"/>
<path fill-rule="evenodd" clip-rule="evenodd" d="M25.334 51.334C25.334 49.1248 27.1248 47.334 29.334 47.334H58.6673C60.8765 47.334 62.6673 49.1248 62.6673 51.334C62.6673 53.5431 60.8765 55.334 58.6673 55.334H29.334C27.1248 55.334 25.334 53.5431 25.334 51.334Z" fill="#B0B6C5"/>
<path fill-rule="evenodd" clip-rule="evenodd" d="M25.334 66C25.334 63.7909 27.1248 62 29.334 62H47.6673C49.8765 62 51.6673 63.7909 51.6673 66C51.6673 68.2091 49.8765 70 47.6673 70H29.334C27.1248 70 25.334 68.2091 25.334 66Z" fill="#B0B6C5"/>
</svg>
