<svg width="88" height="88" viewBox="0 0 88 88" fill="none" xmlns="http://www.w3.org/2000/svg">
<path fill-rule="evenodd" clip-rule="evenodd" d="M66.8389 11.8376C68.401 10.2755 70.9336 10.2755 72.4957 11.8376L80.9291 20.2709L80.9572 20.2993C82.3619 21.7325 83.1488 23.6592 83.1488 25.666C83.1488 27.6728 82.3619 29.5996 80.9572 31.0327L80.9291 31.0611L73.2291 38.7611L73.2007 38.7893C71.7675 40.194 69.8408 40.9808 67.834 40.9808C65.8272 40.9808 63.9004 40.194 62.4673 38.7893L62.4389 38.7611L54.0056 30.3278C52.4435 28.7657 52.4435 26.233 54.0056 24.6709C55.5677 23.1088 58.1003 23.1088 59.6624 24.6709L67.834 32.8425L75.0105 25.666L66.8389 17.4944C65.2768 15.9323 65.2768 13.3997 66.8389 11.8376Z" fill="#B0B6C5"/>
<path fill-rule="evenodd" clip-rule="evenodd" d="M79.8292 4.50556C81.3913 6.06765 81.3913 8.60031 79.8292 10.1624L44.6292 45.3624C43.0671 46.9245 40.5345 46.9245 38.9724 45.3624C37.4103 43.8003 37.4103 41.2677 38.9724 39.7056L74.1724 4.50556C75.7345 2.94346 78.2671 2.94346 79.8292 4.50556Z" fill="#B0B6C5"/>
<path fill-rule="evenodd" clip-rule="evenodd" d="M27.5007 40.666C18.572 40.666 11.334 47.9041 11.334 56.8327C11.334 65.7613 18.572 72.9993 27.5007 72.9993C36.4293 72.9993 43.6673 65.7613 43.6673 56.8327C43.6673 47.9041 36.4293 40.666 27.5007 40.666ZM3.33398 56.8327C3.33398 43.4858 14.1538 32.666 27.5007 32.666C40.8475 32.666 51.6673 43.4858 51.6673 56.8327C51.6673 70.1796 40.8475 80.9993 27.5007 80.9993C14.1538 80.9993 3.33398 70.1796 3.33398 56.8327Z" fill="#B0B6C5"/>
</svg>
