<svg width="88" height="88" viewBox="0 0 88 88" fill="none" xmlns="http://www.w3.org/2000/svg">
<path fill-rule="evenodd" clip-rule="evenodd" d="M21.3201 6.65344C23.4455 4.52803 26.3282 3.33398 29.334 3.33398H73.334C76.3398 3.33398 79.2225 4.52803 81.3479 6.65344C83.4733 8.77885 84.6673 11.6615 84.6673 14.6673V73.334C84.6673 76.3398 83.4733 79.2225 81.3479 81.3479C79.2225 83.4733 76.3398 84.6673 73.334 84.6673H14.6673C11.6615 84.6673 8.77885 83.4733 6.65344 81.3479C4.52803 79.2225 3.33398 76.3398 3.33398 73.334V40.334C3.33398 34.0915 8.42485 29.0007 14.6673 29.0007H18.0007V14.6673C18.0007 11.6615 19.1947 8.77885 21.3201 6.65344ZM18.0007 37.0007H14.6673C12.8431 37.0007 11.334 38.5098 11.334 40.334V73.334C11.334 74.218 11.6852 75.0659 12.3103 75.691C12.9354 76.3161 13.7833 76.6673 14.6673 76.6673C15.5514 76.6673 16.3992 76.3161 17.0243 75.691C17.6495 75.0659 18.0007 74.218 18.0007 73.334V37.0007ZM25.4994 76.6673C25.8288 75.597 26.0007 74.4744 26.0007 73.334V14.6673C26.0007 13.7833 26.3518 12.9354 26.977 12.3103C27.6021 11.6852 28.4499 11.334 29.334 11.334H73.334C74.218 11.334 75.0659 11.6852 75.691 12.3103C76.3161 12.9354 76.6673 13.7833 76.6673 14.6673V73.334C76.6673 74.218 76.3161 75.0659 75.691 75.691C75.0659 76.3161 74.218 76.6673 73.334 76.6673H25.4994Z" fill="#B0B6C5"/>
<path fill-rule="evenodd" clip-rule="evenodd" d="M32.666 51.334C32.666 49.1248 34.4569 47.334 36.666 47.334H65.9994C68.2085 47.334 69.9994 49.1248 69.9994 51.334C69.9994 53.5431 68.2085 55.334 65.9994 55.334H36.666C34.4569 55.334 32.666 53.5431 32.666 51.334Z" fill="#B0B6C5"/>
<path fill-rule="evenodd" clip-rule="evenodd" d="M32.666 66C32.666 63.7909 34.4569 62 36.666 62H54.9993C57.2085 62 58.9993 63.7909 58.9993 66C58.9993 68.2091 57.2085 70 54.9993 70H36.666C34.4569 70 32.666 68.2091 32.666 66Z" fill="#B0B6C5"/>
<path fill-rule="evenodd" clip-rule="evenodd" d="M32.666 22C32.666 19.7909 34.4569 18 36.666 18H65.9994C68.2085 18 69.9994 19.7909 69.9994 22V36.6667C69.9994 38.8758 68.2085 40.6667 65.9994 40.6667H36.666C34.4569 40.6667 32.666 38.8758 32.666 36.6667V22ZM40.666 26V32.6667H61.9993V26H40.666Z" fill="#B0B6C5"/>
</svg>
