<svg width="88" height="88" viewBox="0 0 88 88" fill="none" xmlns="http://www.w3.org/2000/svg">
<path fill-rule="evenodd" clip-rule="evenodd" d="M57.5682 18.153C59.6923 17.5461 61.9062 18.7761 62.5131 20.9002L77.1798 72.2335C77.7867 74.3577 76.5567 76.5716 74.4326 77.1785C72.3085 77.7854 70.0945 76.5554 69.4876 74.4313L54.8209 23.098C54.2141 20.9738 55.444 18.7599 57.5682 18.153Z" fill="#B0B6C5"/>
<path fill-rule="evenodd" clip-rule="evenodd" d="M44 18C46.2091 18 48 19.7909 48 22V73.3333C48 75.5425 46.2091 77.3333 44 77.3333C41.7909 77.3333 40 75.5425 40 73.3333V22C40 19.7909 41.7909 18 44 18Z" fill="#B0B6C5"/>
<path fill-rule="evenodd" clip-rule="evenodd" d="M29.334 25.334C31.5431 25.334 33.334 27.1248 33.334 29.334V73.334C33.334 75.5431 31.5431 77.334 29.334 77.334C27.1248 77.334 25.334 75.5431 25.334 73.334V29.334C25.334 27.1248 27.1248 25.334 29.334 25.334Z" fill="#B0B6C5"/>
<path fill-rule="evenodd" clip-rule="evenodd" d="M14.666 10.666C16.8752 10.666 18.666 12.4569 18.666 14.666V73.3327C18.666 75.5418 16.8752 77.3327 14.666 77.3327C12.4569 77.3327 10.666 75.5418 10.666 73.3327V14.666C10.666 12.4569 12.4569 10.666 14.666 10.666Z" fill="#B0B6C5"/>
</svg>
