<svg width="100%" height="100%" overflow="visible" style="display: block;" viewBox="0 0 81.6225 15.0695" fill="none" xmlns="http://www.w3.org/2000/svg">
<path id="AIDBOX" d="M4.01422 14.7797L4.9981 12.1922H10.311L11.3146 14.7797H15.4075L9.54361 0.186299H5.86391L0 14.7797H4.01422ZM9.2091 9.06653H6.11972L7.67425 4.94726L9.2091 9.06653ZM20.6614 14.7797V0.289798H16.8243V14.7797H20.6614ZM28.4144 14.7797C33.3731 14.7797 36.2657 11.6747 36.2657 7.49335C36.2657 3.27058 33.4125 0.289798 28.4931 0.289798H23.1802V14.7797H28.4144ZM28.5521 11.2193H26.9976V3.80877H28.5521C30.8347 3.80877 32.3499 5.19566 32.3499 7.51405C32.3499 9.89453 30.8347 11.2193 28.5521 11.2193ZM45.3371 14.7797C48.6232 14.7797 50.5516 13.2686 50.5516 10.7846C50.5516 8.77673 49.4891 7.78314 47.8165 7.20355C49.0365 6.64465 49.9416 5.65106 49.9416 3.97437C49.9416 2.93938 49.6071 2.17348 49.0562 1.59389C48.2494 0.745194 47.0294 0.289798 45.2977 0.289798H38.2335V14.7797H45.3371ZM44.3532 6.06506H41.9526V3.51897H44.4319C45.5732 3.51897 46.1636 3.97437 46.1636 4.76097C46.1636 5.65106 45.5142 6.06506 44.3532 6.06506ZM44.9042 11.5505H41.9526V8.88023H44.8648C46.1439 8.88023 46.7342 9.39773 46.7342 10.1843C46.7342 11.0744 46.0652 11.5505 44.9042 11.5505ZM59.2294 15.0695C63.4798 15.0695 66.6676 11.6954 66.6676 7.53474C66.6676 3.33268 63.5192 0 59.2688 0C55.0184 0 51.8307 3.37408 51.8307 7.53474C51.8307 11.7368 54.9791 15.0695 59.2294 15.0695ZM59.2688 11.447C57.183 11.447 55.7465 9.62543 55.7465 7.53474C55.7465 5.40266 57.1436 3.62247 59.2294 3.62247C61.3349 3.62247 62.7714 5.44406 62.7714 7.53474C62.7714 9.66683 61.3743 11.447 59.2688 11.447ZM71.9411 14.7797L74.5976 10.412L77.2344 14.7797H81.6225L76.8999 7.36915L81.4257 0.289798H77.136L74.6763 4.36767L72.2363 0.289798H67.8482L72.3741 7.41054L67.6514 14.7797H71.9411Z" fill="var(--fill-0, #3E3E3E)"/>
</svg>
