<svg preserveAspectRatio="none" width="100%" height="100%" overflow="visible" style="display: block;" viewBox="0 0 24 24" fill="none" xmlns="http://www.w3.org/2000/svg">
<g id="prime:search">
<path id="Vector" d="M10.7694 18.3006C9.28015 18.3006 7.8243 17.859 6.586 17.0316C5.3477 16.2042 4.38256 15.0282 3.81263 13.6522C3.24271 12.2763 3.09359 10.7623 3.38413 9.30161C3.67468 7.84094 4.39184 6.49922 5.44493 5.44613C6.49802 4.39304 7.83974 3.67588 9.30042 3.38533C10.7611 3.09478 12.2751 3.2439 13.6511 3.81383C15.027 4.38376 16.203 5.3489 17.0304 6.5872C17.8578 7.8255 18.2994 9.28135 18.2994 10.7706C18.2994 11.7595 18.1047 12.7387 17.7263 13.6522C17.3478 14.5658 16.7932 15.3959 16.094 16.0952C15.3947 16.7944 14.5646 17.349 13.6511 17.7275C12.7375 18.1059 11.7583 18.3006 10.7694 18.3006ZM10.7694 4.75064C9.58276 4.75064 8.42272 5.10254 7.43602 5.76182C6.44933 6.42111 5.68029 7.35818 5.22617 8.45454C4.77204 9.5509 4.65322 10.7573 4.88473 11.9212C5.11625 13.0851 5.68769 14.1542 6.52681 14.9933C7.36592 15.8324 8.43502 16.4038 9.5989 16.6354C10.7628 16.8669 11.9692 16.748 13.0655 16.2939C14.1619 15.8398 15.099 15.0708 15.7583 14.0841C16.4176 13.0974 16.7694 11.9373 16.7694 10.7506C16.7694 9.15934 16.1373 7.63322 15.0121 6.508C13.8869 5.38278 12.3607 4.75064 10.7694 4.75064Z" fill="var(--fill-0, #98A1AE)"/>
<path id="Vector_2" d="M19.9986 20.7498C19.9001 20.7503 19.8024 20.7311 19.7114 20.6933C19.6204 20.6555 19.5379 20.5999 19.4686 20.5298L15.3386 16.3998C15.2062 16.2577 15.134 16.0696 15.1375 15.8753C15.1409 15.681 15.2196 15.4956 15.357 15.3582C15.4944 15.2208 15.6798 15.1421 15.8741 15.1387C16.0684 15.1352 16.2565 15.2073 16.3986 15.3398L20.5286 19.4698C20.6691 19.6105 20.748 19.8011 20.748 19.9998C20.748 20.1986 20.6691 20.3892 20.5286 20.5298C20.4594 20.5999 20.3768 20.6555 20.2858 20.6933C20.1948 20.7311 20.0972 20.7503 19.9986 20.7498Z" fill="var(--fill-0, #98A1AE)"/>
</g>
</svg>
