<svg width="81" height="81" viewBox="0 0 81 81" fill="none" xmlns="http://www.w3.org/2000/svg">
<path d="M34.0357 25.7319C41.2394 25.7319 47.0791 23.0339 47.0791 19.7058C47.0791 16.3777 41.2394 13.6797 34.0357 13.6797C26.832 13.6797 20.9922 16.3777 20.9922 19.7058C20.9922 23.0339 26.832 25.7319 34.0357 25.7319Z" fill="#FFB8B6"/>
<path d="M52.2996 38.2793C51.3344 39.8184 50.1083 41.5402 48.5692 43.3141C46.5431 45.6445 44.5083 47.4532 42.7344 48.8184V59.1228C42.7344 66.3663 48.5344 72.2793 55.7779 72.4184C50.4126 72.1315 46.2126 67.7054 46.2126 62.3402V50.8271C47.9865 49.4619 50.0213 47.6532 52.0474 45.3228C53.5865 43.5489 54.8126 41.8271 55.7779 40.288L52.2996 38.2793Z" fill="#FFB8B6"/>
<path d="M18.3828 35.7676C18.3828 39.6458 25.3915 42.7937 34.035 42.7937C42.6785 42.7937 49.6872 39.6458 49.6872 35.7676C47.148 37.1589 41.5741 39.785 34.035 39.785C31.1393 39.785 24.9915 39.3937 18.3828 35.7676Z" fill="#FFB8B6"/>
<path d="M18.3837 51.8359C18.3837 55.7142 25.3924 58.862 34.0359 58.862C37.2533 58.862 40.2446 58.4272 42.7315 57.6794L42.375 54.8446C40.0533 55.5577 36.6707 56.2794 32.5924 56.1229C25.8793 55.862 20.8793 53.3403 18.375 51.8359H18.3837Z" fill="#FFB8B6"/>
<path d="M34.0357 25.7319C41.2394 25.7319 47.0791 23.0339 47.0791 19.7058C47.0791 16.3777 41.2394 13.6797 34.0357 13.6797C26.832 13.6797 20.9922 16.3777 20.9922 19.7058C20.9922 23.0339 26.832 25.7319 34.0357 25.7319Z" stroke="#EF4136" stroke-linecap="round" stroke-linejoin="round"/>
<path d="M49.6872 35.7676C49.6872 39.6458 42.6785 42.7937 34.035 42.7937C25.3915 42.7937 18.3828 39.6458 18.3828 35.7676" stroke="#EF4136" stroke-linecap="round" stroke-linejoin="round"/>
<path d="M42.7306 57.6794C40.2437 58.4272 37.2524 58.862 34.035 58.862C25.3915 58.862 18.3828 55.7142 18.3828 51.8359" stroke="#EF4136" stroke-linecap="round" stroke-linejoin="round"/>
<path d="M51.4842 14.2969C53.1103 15.8969 54.0407 17.7404 54.0407 19.7056C54.0407 25.8012 45.0842 30.7491 34.0407 30.7491C30.0059 30.7491 26.2494 30.0882 23.1016 28.949" stroke="#414042" stroke-linecap="round" stroke-linejoin="round"/>
<path d="M18.3869 26.5838C15.6651 24.6969 14.0391 22.3056 14.0391 19.7056C14.0391 13.6099 22.9956 8.66211 34.0391 8.66211C39.4043 8.66211 44.2739 9.82733 47.8652 11.723" stroke="#414042" stroke-linecap="round" stroke-linejoin="round"/>
<path d="M18.3869 42.6452C15.6651 40.7583 14.0391 38.3669 14.0391 35.7669C14.0391 34.5409 14.4043 33.3583 15.0738 32.2539" stroke="#414042" stroke-linecap="round" stroke-linejoin="round"/>
<path d="M48.5016 43.4023C44.8581 45.5067 39.7277 46.811 34.0407 46.811C30.0059 46.811 26.2494 46.1502 23.1016 45.011" stroke="#414042" stroke-linecap="round" stroke-linejoin="round"/>
<path d="M53 32.2539C53.6696 33.3583 54.0348 34.5409 54.0348 35.7669C54.0348 36.6626 53.8435 37.5409 53.4696 38.3756" stroke="#414042" stroke-linecap="round" stroke-linejoin="round"/>
<path d="M54.0391 19.707V28.7418C54.0391 34.8375 45.0825 39.7853 34.0391 39.7853C22.9956 39.7853 14.0391 34.8375 14.0391 28.7418V19.707" stroke="#414042" stroke-linecap="round" stroke-linejoin="round"/>
<path d="M42.7347 54.758C40.1086 55.4623 37.1521 55.8537 34.0391 55.8537C22.9956 55.8537 14.0391 50.9058 14.0391 44.8102V35.7754" stroke="#414042" stroke-linecap="round" stroke-linejoin="round"/>
<path d="M54.0391 35.7676V38.4111" stroke="#414042" stroke-linecap="round" stroke-linejoin="round"/>
<path d="M18.3869 58.7155C15.6651 56.8286 14.0391 54.4373 14.0391 51.8373C14.0391 50.6112 14.4043 49.4286 15.0738 48.3242" stroke="#414042" stroke-linecap="round" stroke-linejoin="round"/>
<path d="M42.9711 61.7236C40.2842 62.4627 37.2494 62.8801 34.0407 62.8801C30.0059 62.8801 26.2494 62.2192 23.1016 61.0801" stroke="#414042" stroke-linecap="round" stroke-linejoin="round"/>
<path d="M47.2652 69.1577C43.7434 70.8794 39.1086 71.9142 34.0391 71.9142C22.9956 71.9142 14.0391 66.9664 14.0391 60.8707V51.8359" stroke="#414042" stroke-linecap="round" stroke-linejoin="round"/>
<path d="M55.7762 40.2889C54.8109 41.8367 53.5848 43.5497 52.0457 45.3237C50.0196 47.6541 47.9849 49.4628 46.2109 50.828V62.3324C46.2109 67.6976 50.4109 72.1324 55.7762 72.4106C62.4022 66.6715 66.2109 58.3411 66.2109 49.5671V39.2715C64.8109 39.7063 63.0196 40.1237 60.924 40.315C58.9327 40.4976 57.1849 40.428 55.7762 40.2715V40.2889Z" stroke="#EF4136" stroke-linecap="round" stroke-linejoin="round"/>
<path d="M66.2126 39.288L62.7344 37.2793C61.3344 37.7141 59.5431 38.1315 57.4474 38.3228C55.4561 38.5054 53.7083 38.4358 52.2996 38.2793C51.3344 39.8271 50.1083 41.5402 48.5692 43.3141C46.5431 45.6445 44.5083 47.4532 42.7344 48.8184V59.1141C42.7344 66.3576 48.5344 72.2706 55.7779 72.4097" stroke="#EF4136" stroke-linecap="round" stroke-linejoin="round"/>
<path d="M48.8203 55.7851V52.0894C50.6899 50.5503 52.4377 48.8546 54.0203 47.0372C55.1247 45.759 56.1681 44.4111 57.116 43.0111C57.5942 43.0372 58.0812 43.0459 58.5594 43.0459C59.429 43.0459 60.2986 43.0024 61.1594 42.9242C61.9768 42.8459 62.7942 42.7416 63.6029 42.5938V49.5764C63.6029 57.2198 60.4464 64.4807 54.9073 69.6894C51.4203 69.0285 48.8203 65.9764 48.8203 62.3329V60.2285" stroke="#EF4136" stroke-linecap="round" stroke-linejoin="round"/>
<path d="M42.7344 48.8281L46.2126 50.8368" stroke="#EF4136" stroke-linecap="round" stroke-linejoin="round"/>
<path d="M52.2969 38.2793L55.7751 40.288" stroke="#EF4136" stroke-linecap="round" stroke-linejoin="round"/>
<path d="M56.9289 47.3496C56.9289 47.3496 57.0941 48.7409 56.6333 50.3931C55.9289 52.9148 54.1898 54.7061 53.6767 56.9409C53.6767 56.9409 53.7028 55.2453 55.0854 52.7235C55.0854 52.7235 52.3202 55.9409 52.1637 58.9844C52.0333 61.6453 53.6332 63.0018 55.7985 62.0366C55.7985 62.0366 57.4593 61.367 58.7724 59.5757C60.0854 57.7844 60.2506 55.1235 60.2506 55.1235C60.2506 55.1235 59.8332 56.3757 58.9376 57.3148C58.9376 57.3148 59.6072 55.9844 59.4941 53.5844C59.3811 51.1844 58.3202 50.4974 58.3202 50.4974C58.3202 50.4974 58.3463 52.8192 57.2854 54.767C57.2854 54.767 57.9115 52.5931 57.8593 50.6105C57.8072 48.6279 56.9289 47.3496 56.9289 47.3496Z" fill="#EF4136"/>
<path d="M56.4558 61.2796C56.4558 61.2796 56.1167 60.6274 56.4819 59.0187C56.8123 57.5144 57.6906 56.6361 58.2123 54.8535C58.2123 54.8535 58.708 57.384 57.3775 59.81C57.3775 59.81 57.821 59.5666 58.2993 59.0013C58.2993 59.0013 57.6384 60.6274 56.4558 61.2796Z" fill="#FFB8B6"/>
<path d="M55.2521 61.7155C55.2521 61.7155 53.6694 60.9502 54.0086 58.2285C54.3738 55.2807 56.4086 53.5415 57.4608 49.8633C57.4608 49.8633 57.5564 51.3328 57.0086 53.185C56.4607 55.0372 55.6173 56.3502 55.1912 58.0633C54.7651 59.7763 55.2521 61.7155 55.2521 61.7155Z" fill="#FFB8B6"/>
</svg>
