<svg width="81" height="81" viewBox="0 0 81 81" fill="none" xmlns="http://www.w3.org/2000/svg">
<path d="M36.0465 69.9938C40.3072 67.5236 57.4449 57.5477 57.5396 57.4527C58.013 57.1677 58.2971 56.7877 58.2971 56.3126C58.2971 37.311 58.3917 15.8393 58.3917 16.2193C58.3917 14.8892 56.1193 14.3191 54.7938 15.0792L51.8586 16.7893L46.4616 13.6541L48.9234 12.229C49.8702 11.6589 49.8702 10.6138 48.9234 10.0438C48.0713 9.56874 46.8404 9.56874 46.0829 10.0438L24.4951 22.5848C22.8855 23.5349 22.0334 24.77 21.9387 26.1951C21.7493 54.5075 21.844 47.4769 21.844 66.3835C21.844 71.0388 30.9336 72.939 36.0465 69.9938ZM24.5898 29.8054C27.6197 31.5156 32.4485 31.6106 35.4784 30.1855V43.1065C30.7442 45.5767 22.9802 43.6766 23.0749 40.1613C23.0749 40.0663 23.0749 28.5703 23.0749 28.4753C23.4536 29.0454 24.0217 29.5204 24.5898 29.8054ZM22.8855 42.5365C25.3473 45.3867 31.407 46.0518 35.3837 44.2466C35.289 57.5477 35.289 52.9873 35.289 53.9374C31.0283 56.2176 23.5483 54.8875 22.8855 51.3722C22.8855 51.2772 22.8855 41.9664 22.8855 42.5365ZM22.7908 66.3835V53.3674C25.2526 56.2176 31.3123 56.7877 35.289 54.9825V69.4237C30.5548 71.8939 22.7908 69.8037 22.7908 66.3835ZM57.2555 56.4076C57.2555 56.5026 57.1609 56.5976 56.9715 56.6927L36.2358 68.7587C36.2358 68.6636 36.4252 40.3513 36.3305 29.6154L57.3502 17.3594L57.2555 56.4076ZM50.9118 17.3594L33.0166 27.6202C31.407 28.5703 28.8505 28.3803 27.4303 27.6202C26.01 26.7652 26.01 25.6251 27.4303 24.77L45.5148 14.2241L50.9118 17.3594ZM24.9685 23.3449L46.4616 10.8038C46.9351 10.5188 47.8819 10.5188 48.3553 10.8038C48.734 10.9939 48.734 11.1839 48.3553 11.3739C18.5301 28.5703 28.8505 22.6798 26.5781 23.9149C24.5898 25.055 24.4951 27.1452 26.5781 28.3803C28.6612 29.6154 31.8804 29.3304 33.6794 28.3803L55.1725 15.9343C55.6459 15.6492 56.5928 15.6492 57.0662 15.9343C57.4449 16.1243 57.4449 16.3143 57.0662 16.5043L35.6677 29.0454C32.7326 30.7555 27.9984 30.7555 25.0632 29.0454C22.3174 27.4302 22.2227 24.96 24.9685 23.3449Z" fill="#353B50"/>
<path d="M22.8855 42.5365C25.3473 45.3867 31.407 46.0518 35.3837 44.2466C35.289 57.5477 35.289 52.9873 35.289 53.9374C31.0283 56.2176 23.5483 54.8875 22.8855 51.3722V42.5365Z" fill="#FFB8B6"/>
<g clip-path="url(#clip0_1015_194749)">
<path d="M47.847 33.7055C47.847 33.7055 48.0531 35.428 47.4844 37.4636C46.6108 40.5788 44.4681 42.7875 43.8335 45.5566C43.8335 45.5566 43.8664 43.455 45.5724 40.3398C45.5724 40.3398 42.1522 44.3122 41.9627 48.0702C41.7979 51.3585 43.784 53.0398 46.4542 51.8448C46.4542 51.8448 48.5063 51.0124 50.1299 48.8037C51.7534 46.595 51.9512 43.2985 51.9512 43.2985C51.9512 43.2985 51.4403 44.8478 50.3277 46.0099C50.3277 46.0099 51.1518 44.3616 51.0117 41.4029C50.8716 38.4443 49.5612 37.5872 49.5612 37.5872C49.5612 37.5872 49.5859 40.4552 48.2756 42.8617C48.2756 42.8617 49.042 40.175 48.9843 37.7273C48.9266 35.2796 47.8305 33.6973 47.8305 33.6973L47.847 33.7055Z" fill="#EF4136"/>
<path d="M47.262 50.913C47.262 50.913 46.8499 50.1053 47.2867 48.1192C47.6988 46.2649 48.7784 45.177 49.4295 42.9766C49.4295 42.9766 50.0393 46.1083 48.3993 49.0999C48.3993 49.0999 48.9432 48.795 49.5366 48.1027C49.5366 48.1027 48.7207 50.1136 47.262 50.913Z" fill="#FFB8B6"/>
<path d="M45.7875 51.45C45.7875 51.45 43.8343 50.5105 44.2546 47.1398C44.7078 43.4971 47.2215 41.3544 48.5236 36.7969C48.5236 36.7969 48.639 38.61 47.9632 40.9011C47.2874 43.1922 46.2407 44.8075 45.7133 46.9338C45.1858 49.06 45.7875 51.45 45.7875 51.45Z" fill="#FFB8B6"/>
</g>
<defs>
<clipPath id="clip0_1015_194749">
<rect width="22.7462" height="22.7462" fill="white" transform="matrix(0.866025 -0.5 0 1 37.2578 36.7559)"/>
</clipPath>
</defs>
</svg>
