<svg width="81" height="81" viewBox="0 0 81 81" fill="none" xmlns="http://www.w3.org/2000/svg">
<path d="M43.9365 42.0176L32.093 48.8611C30.9452 49.5219 30.0234 51.2958 30.0234 52.8176C30.0234 54.3393 30.9539 55.0437 32.093 54.3828L43.9365 47.5393V42.0176Z" fill="#FFB8B6"/>
<path d="M19.625 57.932V40.7233C19.625 37.8972 21.3467 34.6189 23.4598 33.3928L55.8772 14.6798C57.9989 13.4537 59.712 14.7581 59.712 17.5842V40.0711" stroke="#414042" stroke-linecap="round" stroke-linejoin="round"/>
<path d="M52.2076 50.6875L23.4598 67.2875C21.338 68.5136 19.625 67.2092 19.625 64.3832V62.2875" stroke="#414042" stroke-linecap="round" stroke-linejoin="round"/>
<path d="M52.2071 46.3669L24.9376 62.1148C24.0941 62.6017 23.3984 62.0887 23.3984 60.9583V39.8191C23.3984 38.6887 24.0854 37.3756 24.9376 36.8887L54.4071 19.8713C55.2506 19.3843 55.9463 19.8974 55.9463 21.0278V42.1669" stroke="#414042" stroke-linecap="round" stroke-linejoin="round"/>
<path d="M33.1316 44.401L26.8359 48.0271V40.8184L33.1316 37.1836V44.401Z" fill="#FFB8B6"/>
<path d="M42.8026 38.8103L36.5156 42.445V35.2363L42.8026 31.6016V38.8103Z" fill="#FFB8B6"/>
<path d="M52.4832 33.2263L46.1875 36.8611V29.6437L52.4832 26.0176V33.2263Z" fill="#FFB8B6"/>
<path d="M47.2417 45.6353L32.0852 54.3831C30.9374 55.044 30.0156 54.3396 30.0156 52.8179C30.0156 51.2962 30.9461 49.5223 32.0852 48.8614L47.2417 40.1136C48.3895 39.4527 49.3113 40.157 49.3113 41.6788C49.3113 43.2005 48.3808 44.9744 47.2417 45.6353Z" stroke="#EF4136" stroke-linecap="round" stroke-linejoin="round"/>
<path d="M43.9375 42.0176V47.548" stroke="#EF4136" stroke-linecap="round" stroke-linejoin="round"/>
<path d="M46.7891 14.9836L51.5891 12.2097C52.5195 11.6706 53.363 11.6184 54.0325 11.9663L58.4499 14.5141" stroke="#414042" stroke-linecap="round" stroke-linejoin="round"/>
<path d="M20.9872 67.5146L16.6046 64.9842C15.8307 64.4973 15.3438 63.4277 15.3438 61.9233V38.2625C15.3438 35.4364 17.0655 32.1581 19.1785 30.932L42.1003 17.6973" stroke="#414042" stroke-linecap="round" stroke-linejoin="round"/>
<path d="M63.7953 47.9667L53.3084 54.0189C52.691 54.3754 52.1953 53.9928 52.1953 53.1754V45.8885C52.1953 45.0711 52.691 44.1146 53.3084 43.758L63.7953 37.7059C64.4127 37.3493 64.9084 37.732 64.9084 38.5493V45.8363C64.9084 46.6537 64.4127 47.6102 63.7953 47.9667Z" fill="#FFB8B6"/>
<path d="M33.1316 44.401L26.8359 48.0271V40.8184L33.1316 37.1836V44.401Z" stroke="#EF4136" stroke-linecap="round" stroke-linejoin="round"/>
<path d="M42.8026 38.8103L36.5156 42.445V35.2363L42.8026 31.6016V38.8103Z" stroke="#EF4136" stroke-linecap="round" stroke-linejoin="round"/>
<path d="M52.4832 33.2263L46.1875 36.8611V29.6437L52.4832 26.0176V33.2263Z" stroke="#EF4136" stroke-linecap="round" stroke-linejoin="round"/>
<path d="M63.7953 47.9667L53.3084 54.0189C52.691 54.3754 52.1953 53.9928 52.1953 53.1754V45.8885C52.1953 45.0711 52.691 44.1146 53.3084 43.758L63.7953 37.7059C64.4127 37.3493 64.9084 37.732 64.9084 38.5493V45.8363C64.9084 46.6537 64.4127 47.6102 63.7953 47.9667Z" stroke="#EF4136" stroke-linecap="round" stroke-linejoin="round"/>
<path d="M56.133 49.0451L54.0547 48.4277L56.133 45.4277" stroke="#EF4136" stroke-linecap="round" stroke-linejoin="round"/>
<path d="M60.9766 42.627L63.0548 43.2356L60.9766 46.2443" stroke="#EF4136" stroke-linecap="round" stroke-linejoin="round"/>
<path d="M57.5625 48.5756L59.5538 43.1582" stroke="#EF4136" stroke-linecap="round" stroke-linejoin="round"/>
<path d="M44.6046 61.6532C44.9524 61.7924 45.2829 61.9489 45.5959 62.1315C48.4307 63.7663 48.4133 66.4358 45.5611 68.088C42.7089 69.7402 38.0829 69.7489 35.2481 68.1054C32.4133 66.4619 32.4307 63.8011 35.2829 62.1489C35.6133 61.9576 35.9611 61.7924 36.3263 61.6445" stroke="#414042" stroke-linecap="round" stroke-linejoin="round"/>
<path d="M44.5194 55.123V64.7144C44.5194 65.3144 44.1107 65.9144 43.3107 66.3839C41.702 67.3144 39.1107 67.3144 37.5194 66.3926C36.7194 65.9317 36.3281 65.3317 36.3281 64.723V59.9144" stroke="#414042" stroke-linecap="round" stroke-linejoin="round"/>
</svg>
