<svg width="88" height="88" viewBox="0 0 88 88" fill="none" xmlns="http://www.w3.org/2000/svg">
<path fill-rule="evenodd" clip-rule="evenodd" d="M8.80132 56.4673C12.302 52.9667 17.0499 51 22.0007 51H44.0006C48.9514 51 53.6993 52.9667 57.2 56.4673C60.7007 59.968 62.6673 64.716 62.6673 69.6667V77C62.6673 79.2091 60.8765 81 58.6673 81C56.4582 81 54.6673 79.2091 54.6673 77V69.6667C54.6673 66.8377 53.5435 64.1246 51.5431 62.1242C49.5427 60.1238 46.8296 59 44.0006 59H22.0007C19.1717 59 16.4586 60.1238 14.4582 62.1242C12.4578 64.1246 11.334 66.8377 11.334 69.6667V77C11.334 79.2091 9.54312 81 7.33398 81C5.12485 81 3.33398 79.2091 3.33398 77V69.6667C3.33398 64.716 5.30065 59.968 8.80132 56.4673Z" fill="#B0B6C5"/>
<path fill-rule="evenodd" clip-rule="evenodd" d="M33.0007 15C27.1096 15 22.334 19.7756 22.334 25.6667C22.334 31.5577 27.1096 36.3333 33.0007 36.3333C38.8917 36.3333 43.6673 31.5577 43.6673 25.6667C43.6673 19.7756 38.8917 15 33.0007 15ZM14.334 25.6667C14.334 15.3574 22.6913 7 33.0007 7C43.31 7 51.6673 15.3574 51.6673 25.6667C51.6673 35.976 43.31 44.3333 33.0007 44.3333C22.6913 44.3333 14.334 35.976 14.334 25.6667Z" fill="#B0B6C5"/>
<path fill-rule="evenodd" clip-rule="evenodd" d="M65.794 54.4775C66.3463 52.3385 68.528 51.0523 70.667 51.6045C74.6716 52.6385 78.2194 54.9732 80.7534 58.242C83.2873 61.5108 84.6639 65.5286 84.667 69.6645L84.667 77.0009C84.667 79.21 82.8761 81.0009 80.667 81.0009C78.4578 81.0009 76.667 79.21 76.667 77.0009V69.6688C76.6648 67.306 75.8782 65.0108 74.4306 63.1434C72.9827 61.2755 70.9553 59.9414 68.667 59.3505C66.528 58.7982 65.2417 56.6165 65.794 54.4775Z" fill="#B0B6C5"/>
<path fill-rule="evenodd" clip-rule="evenodd" d="M54.792 10.4854C55.3399 8.34527 57.519 7.05457 59.6591 7.60253C63.6744 8.6306 67.2333 10.9658 69.7748 14.24C72.3163 17.5141 73.6957 21.5411 73.6957 25.6859C73.6957 29.8307 72.3163 33.8576 69.7748 37.1317C67.2333 40.4059 63.6744 42.7411 59.6591 43.7692C57.519 44.3171 55.3399 43.0265 54.792 40.8863C54.244 38.7462 55.5347 36.5671 57.6748 36.0192C59.9693 35.4317 62.0029 34.0973 63.4552 32.2264C64.9075 30.3554 65.6957 28.0543 65.6957 25.6859C65.6957 23.3174 64.9075 21.0163 63.4552 19.1454C62.0029 17.2744 59.9693 15.94 57.6748 15.3525C55.5347 14.8046 54.244 12.6255 54.792 10.4854Z" fill="#B0B6C5"/>
</svg>
