<svg width="88" height="88" viewBox="0 0 88 88" fill="none" xmlns="http://www.w3.org/2000/svg">
<path fill-rule="evenodd" clip-rule="evenodd" d="M18.3333 15C17.4493 15 16.6014 15.3512 15.9763 15.9763C15.3512 16.6014 15 17.4493 15 18.3333V40H40V15H18.3333ZM18.3333 7C15.3275 7 12.4449 8.19404 10.3195 10.3195C8.19404 12.4449 7 15.3275 7 18.3333V69.6667C7 72.6725 8.19404 75.5551 10.3195 77.6805C12.4449 79.806 15.3275 81 18.3333 81H40.3333C42.3667 81 44.3167 80.1923 45.7545 78.7545C47.1923 77.3167 48 75.3667 48 73.3333V48H73.3333C75.3667 48 77.3167 47.1923 78.7545 45.7545C80.1923 44.3167 81 42.3667 81 40.3333V18.3333C81 15.3275 79.806 12.4449 77.6805 10.3195C75.5551 8.19404 72.6725 7 69.6667 7H18.3333ZM48 15V40H73V18.3333C73 17.4493 72.6488 16.6014 72.0237 15.9763C71.3986 15.3512 70.5507 15 69.6667 15H48ZM40 48H15V69.6667C15 70.5507 15.3512 71.3986 15.9763 72.0237C16.6014 72.6488 17.4493 73 18.3333 73H40V48Z" fill="#B0B6C5"/>
<path fill-rule="evenodd" clip-rule="evenodd" d="M54.666 69.666C54.666 67.4569 56.4569 65.666 58.666 65.666H80.666C82.8752 65.666 84.666 67.4569 84.666 69.666C84.666 71.8752 82.8752 73.666 80.666 73.666H58.666C56.4569 73.666 54.666 71.8752 54.666 69.666Z" fill="#B0B6C5"/>
<path fill-rule="evenodd" clip-rule="evenodd" d="M69.666 54.666C71.8752 54.666 73.666 56.4569 73.666 58.666V80.666C73.666 82.8752 71.8752 84.666 69.666 84.666C67.4569 84.666 65.666 82.8752 65.666 80.666V58.666C65.666 56.4569 67.4569 54.666 69.666 54.666Z" fill="#B0B6C5"/>
</svg>
