<svg width="88" height="88" viewBox="0 0 88 88" fill="none" xmlns="http://www.w3.org/2000/svg">
<path fill-rule="evenodd" clip-rule="evenodd" d="M15 33.334V69.334H73V33.334H15ZM7 33.0007C7 28.7665 10.4325 25.334 14.6667 25.334H73.3333C77.5675 25.334 81 28.7665 81 33.0007V69.6673C81 73.9015 77.5675 77.334 73.3333 77.334H14.6667C10.4325 77.334 7 73.9015 7 69.6673V33.0007Z" fill="#B0B6C5"/>
<path fill-rule="evenodd" clip-rule="evenodd" d="M16.5795 12.9115C18.0173 11.4738 19.9673 10.666 22.0007 10.666H33.0007C35.0096 10.666 36.9946 11.3531 38.4874 12.8459C39.9802 14.3387 40.6673 16.3237 40.6673 18.3327V29.3327C40.6673 31.5418 38.8765 33.3327 36.6673 33.3327C34.4582 33.3327 32.6673 31.5418 32.6673 29.3327V18.666H22.334V29.3327C22.334 31.5418 20.5431 33.3327 18.334 33.3327C16.1248 33.3327 14.334 31.5418 14.334 29.3327V18.3327C14.334 16.2994 15.1417 14.3493 16.5795 12.9115Z" fill="#B0B6C5"/>
<path fill-rule="evenodd" clip-rule="evenodd" d="M49.5795 12.9115C51.0173 11.4738 52.9673 10.666 55.0007 10.666H66.0007C68.0096 10.666 69.9946 11.3531 71.4874 12.8459C72.9802 14.3387 73.6673 16.3237 73.6673 18.3327V29.3327C73.6673 31.5418 71.8765 33.3327 69.6673 33.3327C67.4582 33.3327 65.6673 31.5418 65.6673 29.3327V18.666H55.334V29.3327C55.334 31.5418 53.5431 33.3327 51.334 33.3327C49.1248 33.3327 47.334 31.5418 47.334 29.3327V18.3327C47.334 16.2994 48.1417 14.3493 49.5795 12.9115Z" fill="#B0B6C5"/>
</svg>
