<svg width="88" height="88" viewBox="0 0 88 88" fill="none" xmlns="http://www.w3.org/2000/svg">
<path fill-rule="evenodd" clip-rule="evenodd" d="M51.0046 11.5632C50.2017 11.318 49.3511 11.2721 48.5265 11.4296C47.702 11.587 46.9281 11.943 46.2721 12.4667C45.616 12.9905 45.0974 13.6662 44.7612 14.4354C44.4871 15.0634 44.1346 16.264 43.7107 18.1561C43.3017 19.9821 42.8801 22.1947 42.4095 24.7134C42.3442 25.063 42.278 25.4179 42.2109 25.7778C41.3223 30.5448 40.2724 36.177 38.8944 41.6004C38.8214 41.8878 38.7472 42.1755 38.6719 42.4633C40.3931 42.9662 42.0248 43.5469 43.5433 44.2064C49.6271 46.8487 55.1573 51.3974 55.3292 58.3335H62V56.8484C61.9934 55.712 62.3189 54.5981 62.9368 53.6439C63.5595 52.6822 64.4516 51.9252 65.5018 51.4674C66.5519 51.0095 67.7137 50.8709 68.8421 51.0691C69.9327 51.2606 70.9455 51.7584 71.7627 52.5032L79.6193 59.3103C81.2889 60.7569 81.4697 63.2831 80.0231 64.9528C78.5765 66.6224 76.0503 66.8032 74.3807 65.3566L69.5726 61.1908C69.196 62.271 68.5788 63.2637 67.7545 64.088C66.3167 65.5257 64.3667 66.3335 62.3333 66.3335H55C52.9667 66.3335 51.0166 65.5257 49.5788 64.088C48.1411 62.6502 47.3333 60.7001 47.3333 58.6668C47.3333 56.4591 45.6258 53.8328 40.3564 51.5443C39.1319 51.0124 37.7829 50.534 36.3294 50.1134C35.3223 52.8936 34.1587 55.5153 32.7965 57.7907C30.1297 62.2453 26.0842 66.3335 20.1667 66.3335C16.6746 66.3335 13.3257 64.9463 10.8564 62.477C8.3872 60.0078 7 56.6588 7 53.1668C7 49.6748 8.3872 46.3258 10.8564 43.8566C13.3257 41.3873 16.6746 40.0001 20.1667 40.0001L20.1933 40.0002C23.8289 40.0244 27.4222 40.2847 30.8407 40.786C30.9421 40.404 31.0421 40.0186 31.1408 39.6303C32.4522 34.4687 33.4576 29.0775 34.3544 24.2688C34.4186 23.9241 34.4824 23.5824 34.5456 23.244C35.0129 20.7431 35.4592 18.3937 35.9042 16.4073C36.3342 14.488 36.8217 12.6261 37.4303 11.2326L37.4308 11.2315C38.2875 9.27126 39.6091 7.54927 41.281 6.21457C42.9529 4.87988 44.9249 3.97268 47.0263 3.57149C49.1277 3.17029 51.2952 3.28719 53.3412 3.91205C55.3873 4.53691 57.2502 5.65092 58.7689 7.15768C60.2876 8.66444 61.4163 10.5186 62.0573 12.5596C62.6982 14.6007 62.8322 16.7672 62.4476 18.8717C62.063 20.9761 61.1714 22.9552 59.8499 24.6376C58.5284 26.32 56.8169 27.6551 54.8634 28.5273C52.8462 29.4279 50.4809 28.5228 49.5802 26.5056C48.6795 24.4884 49.5847 22.123 51.6019 21.2223C52.3684 20.8801 53.04 20.3562 53.5586 19.696C54.0771 19.0358 54.427 18.2592 54.5779 17.4334C54.7289 16.6076 54.6763 15.7575 54.4248 14.9565C54.1732 14.1556 53.7304 13.4281 53.1344 12.8368C52.5385 12.2455 51.8074 11.8084 51.0046 11.5632ZM28.3821 48.5252C25.777 48.1997 23.0124 48.0197 20.155 48.0001C18.7889 48.0032 17.4795 48.5472 16.5133 49.5134C15.5443 50.4824 15 51.7965 15 53.1668C15 54.5371 15.5443 55.8512 16.5133 56.8202C17.4822 57.7891 18.7964 58.3335 20.1667 58.3335C21.863 58.3335 23.7992 57.2448 25.9325 53.6814C26.817 52.204 27.6305 50.4636 28.3821 48.5252Z" fill="#B0B6C5"/>
<path fill-rule="evenodd" clip-rule="evenodd" d="M7 77C7 74.7909 8.79086 73 11 73H77C79.2091 73 81 74.7909 81 77C81 79.2091 79.2091 81 77 81H11C8.79086 81 7 79.2091 7 77Z" fill="#B0B6C5"/>
</svg>
