<svg width="88" height="88" viewBox="0 0 88 88" fill="none" xmlns="http://www.w3.org/2000/svg">
<path fill-rule="evenodd" clip-rule="evenodd" d="M43.666 23.8333C43.666 20.6117 46.2777 18 49.4993 18C52.721 18 55.3327 20.6117 55.3327 23.8333C55.3327 27.055 52.721 29.6667 49.4993 29.6667C46.2777 29.6667 43.666 27.055 43.666 23.8333Z" fill="#B0B6C5"/>
<path fill-rule="evenodd" clip-rule="evenodd" d="M58.334 38.4993C58.334 35.2777 60.9457 32.666 64.1673 32.666C67.389 32.666 70.0007 35.2777 70.0007 38.4993C70.0007 41.721 67.389 44.3327 64.1673 44.3327C60.9457 44.3327 58.334 41.721 58.334 38.4993Z" fill="#B0B6C5"/>
<path fill-rule="evenodd" clip-rule="evenodd" d="M25.334 27.4993C25.334 24.2777 27.9457 21.666 31.1673 21.666C34.389 21.666 37.0007 24.2777 37.0007 27.4993C37.0007 30.721 34.389 33.3327 31.1673 33.3327C27.9457 33.3327 25.334 30.721 25.334 27.4993Z" fill="#B0B6C5"/>
<path fill-rule="evenodd" clip-rule="evenodd" d="M18 45.8333C18 42.6117 20.6117 40 23.8333 40C27.055 40 29.6667 42.6117 29.6667 45.8333C29.6667 49.055 27.055 51.6667 23.8333 51.6667C20.6117 51.6667 18 49.055 18 45.8333Z" fill="#B0B6C5"/>
<path fill-rule="evenodd" clip-rule="evenodd" d="M3.33398 44.0007C3.33398 21.6248 21.6248 3.33398 44.0006 3.33398C65.782 3.33398 84.5243 19.404 84.6379 39.7249L84.638 39.7473C84.638 53.1444 73.6648 64.112 60.2696 64.112H52.951C52.928 64.112 52.9051 64.1118 52.8821 64.1114C52.6119 64.1067 52.3436 64.1565 52.093 64.2578C51.8425 64.359 51.6149 64.5097 51.4238 64.7008C51.2327 64.8919 51.082 65.1195 50.9808 65.37C50.8795 65.6205 50.8297 65.8889 50.8344 66.1591C50.8347 66.1766 50.8349 66.1941 50.8349 66.2116C50.835 66.2171 50.835 66.2225 50.835 66.228C50.835 67.0076 51.0279 67.2839 51.2645 67.5197C51.3231 67.578 51.3798 67.6382 51.4346 67.7C52.9383 69.3968 54.0433 71.7744 54.0433 74.478C54.0433 80.04 49.7049 84.6673 44.0006 84.6673C21.6248 84.6673 3.33398 66.3765 3.33398 44.0007ZM44.0006 11.334C26.0431 11.334 11.334 26.0431 11.334 44.0007C11.334 61.9582 26.0431 76.6673 44.0006 76.6673C45.087 76.6673 46.0433 75.824 46.0433 74.478C46.0433 74.0004 45.848 73.4865 45.4998 73.0671C43.698 71.2104 42.8422 68.8804 42.835 66.2613C42.8168 64.9295 43.0645 63.6074 43.5637 62.3723C44.0673 61.1262 44.8166 59.9943 45.7669 59.0439C46.7173 58.0936 47.8492 57.3443 49.0953 56.8407C50.3293 56.3419 51.6503 56.0942 52.9809 56.112H60.2696C69.2447 56.112 76.6318 48.7304 76.638 39.7585C76.5466 24.6788 62.2621 11.334 44.0006 11.334Z" fill="#B0B6C5"/>
</svg>
