<svg width="88" height="88" viewBox="0 0 88 88" fill="none" xmlns="http://www.w3.org/2000/svg">
<path fill-rule="evenodd" clip-rule="evenodd" d="M6.65344 13.9855C8.77885 11.8601 11.6615 10.666 14.6673 10.666H58.6673C61.6731 10.666 64.5558 11.8601 66.6812 13.9855C68.8066 16.1109 70.0007 18.9936 70.0007 21.9993V29.3327C70.0007 31.5418 68.2098 33.3327 66.0007 33.3327C63.7915 33.3327 62.0007 31.5418 62.0007 29.3327V21.9993C62.0007 21.1153 61.6495 20.2674 61.0243 19.6423C60.3992 19.0172 59.5514 18.666 58.6673 18.666H14.6673C13.7833 18.666 12.9354 19.0172 12.3103 19.6423C11.6852 20.2674 11.334 21.1153 11.334 21.9993V47.666C11.334 48.5501 11.6852 49.3979 12.3103 50.023C12.9354 50.6482 13.7833 50.9993 14.6673 50.9993H44.0007C46.2098 50.9993 48.0007 52.7902 48.0007 54.9993C48.0007 57.2085 46.2098 58.9993 44.0007 58.9993H14.6673C11.6615 58.9993 8.77885 57.8053 6.65344 55.6799C4.52803 53.5545 3.33398 50.6718 3.33398 47.666V21.9993C3.33398 18.9936 4.52803 16.1109 6.65344 13.9855Z" fill="#B0B6C5"/>
<path fill-rule="evenodd" clip-rule="evenodd" d="M36.666 51.1465C38.8752 51.1465 40.666 52.9373 40.666 55.1465V69.6665C40.666 71.8756 38.8752 73.6665 36.666 73.6665C34.4569 73.6665 32.666 71.8756 32.666 69.6665V55.1465C32.666 52.9373 34.4569 51.1465 36.666 51.1465Z" fill="#B0B6C5"/>
<path fill-rule="evenodd" clip-rule="evenodd" d="M21.666 69.666C21.666 67.4569 23.4569 65.666 25.666 65.666H43.9993C46.2085 65.666 47.9993 67.4569 47.9993 69.666C47.9993 71.8752 46.2085 73.666 43.9993 73.666H25.666C23.4569 73.666 21.666 71.8752 21.666 69.666Z" fill="#B0B6C5"/>
<path fill-rule="evenodd" clip-rule="evenodd" d="M65.9993 48C64.1584 48 62.666 49.4924 62.666 51.3333V73.3333C62.666 75.1743 64.1584 76.6667 65.9993 76.6667H73.3327C75.1736 76.6667 76.666 75.1743 76.666 73.3333V51.3333C76.666 49.4924 75.1736 48 73.3327 48H65.9993ZM54.666 51.3333C54.666 45.0741 59.7401 40 65.9993 40H73.3327C79.5919 40 84.666 45.0741 84.666 51.3333V73.3333C84.666 79.5926 79.5919 84.6667 73.3327 84.6667H65.9993C59.7401 84.6667 54.666 79.5926 54.666 73.3333V51.3333Z" fill="#B0B6C5"/>
</svg>
