<svg width="88" height="88" viewBox="0 0 88 88" fill="none" xmlns="http://www.w3.org/2000/svg">
<path fill-rule="evenodd" clip-rule="evenodd" d="M41.1722 4.50556C42.7343 2.94346 45.267 2.94346 46.8291 4.50556L61.4957 19.1722C63.0578 20.7343 63.0578 23.267 61.4957 24.8291C59.9336 26.3912 57.401 26.3912 55.8389 24.8291L44.0007 12.9908L32.1624 24.8291C30.6003 26.3912 28.0677 26.3912 26.5056 24.8291C24.9435 23.267 24.9435 20.7343 26.5056 19.1722L41.1722 4.50556Z" fill="#B0B6C5"/>
<path fill-rule="evenodd" clip-rule="evenodd" d="M44 3.33398C46.2091 3.33398 48 5.12485 48 7.33398V36.6673C48 38.8765 46.2091 40.6673 44 40.6673C41.7909 40.6673 40 38.8765 40 36.6673V7.33398C40 5.12485 41.7909 3.33398 44 3.33398Z" fill="#B0B6C5"/>
<path fill-rule="evenodd" clip-rule="evenodd" d="M14.6673 55.334C12.8264 55.334 11.334 56.8264 11.334 58.6673V73.334C11.334 75.1749 12.8264 76.6673 14.6673 76.6673H73.334C75.1749 76.6673 76.6673 75.1749 76.6673 73.334V58.6673C76.6673 56.8264 75.1749 55.334 73.334 55.334H14.6673ZM3.33398 58.6673C3.33398 52.4081 8.40809 47.334 14.6673 47.334H73.334C79.5932 47.334 84.6673 52.4081 84.6673 58.6673V73.334C84.6673 79.5932 79.5932 84.6673 73.334 84.6673H14.6673C8.40809 84.6673 3.33398 79.5932 3.33398 73.334V58.6673Z" fill="#B0B6C5"/>
<path fill-rule="evenodd" clip-rule="evenodd" d="M18 66C18 63.7909 19.7909 62 22 62H22.0367C24.2458 62 26.0367 63.7909 26.0367 66C26.0367 68.2091 24.2458 70 22.0367 70H22C19.7909 70 18 68.2091 18 66Z" fill="#B0B6C5"/>
<path fill-rule="evenodd" clip-rule="evenodd" d="M32.666 66C32.666 63.7909 34.4569 62 36.666 62H36.7027C38.9118 62 40.7027 63.7909 40.7027 66C40.7027 68.2091 38.9118 70 36.7027 70H36.666C34.4569 70 32.666 68.2091 32.666 66Z" fill="#B0B6C5"/>
</svg>
