<svg width="88" height="88" viewBox="0 0 88 88" fill="none" xmlns="http://www.w3.org/2000/svg">
<path fill-rule="evenodd" clip-rule="evenodd" d="M15.5056 26.5056C17.0677 24.9435 19.6003 24.9435 21.1624 26.5056L43.1624 48.5056C44.7245 50.0677 44.7245 52.6003 43.1624 54.1624C41.6003 55.7245 39.0677 55.7245 37.5056 54.1624L15.5056 32.1624C13.9435 30.6003 13.9435 28.0677 15.5056 26.5056Z" fill="#B0B6C5"/>
<path fill-rule="evenodd" clip-rule="evenodd" d="M46.2182 15.0043C48.0563 16.2297 48.553 18.7131 47.3275 20.5513L39.9942 31.5513C39.8481 31.7704 39.6807 31.9746 39.4944 32.1609L17.4944 54.1609C15.9323 55.723 13.3997 55.723 11.8376 54.1609C10.2755 52.5988 10.2755 50.0661 11.8376 48.504L33.5575 26.7841L40.6711 16.1137C41.8966 14.2755 44.38 13.7788 46.2182 15.0043Z" fill="#B0B6C5"/>
<path fill-rule="evenodd" clip-rule="evenodd" d="M3.33398 18.334C3.33398 16.1248 5.12485 14.334 7.33398 14.334H51.334C53.5431 14.334 55.334 16.1248 55.334 18.334C55.334 20.5431 53.5431 22.334 51.334 22.334H7.33398C5.12485 22.334 3.33398 20.5431 3.33398 18.334Z" fill="#B0B6C5"/>
<path fill-rule="evenodd" clip-rule="evenodd" d="M21.666 7.33398C21.666 5.12485 23.4569 3.33398 25.666 3.33398H29.3327C31.5418 3.33398 33.3327 5.12485 33.3327 7.33398C33.3327 9.54312 31.5418 11.334 29.3327 11.334H25.666C23.4569 11.334 21.666 9.54312 21.666 7.33398Z" fill="#B0B6C5"/>
<path fill-rule="evenodd" clip-rule="evenodd" d="M62.3342 40C63.8493 40 65.2344 40.856 65.9119 42.2111L84.2453 78.8778C85.2332 80.8537 84.4323 83.2564 82.4564 84.2444C80.4805 85.2323 78.0778 84.4314 77.0898 82.4555L62.3342 52.9443L47.5786 82.4555C46.5906 84.4314 44.1879 85.2323 42.212 84.2444C40.2361 83.2564 39.4352 80.8537 40.4232 78.8778L58.7565 42.2111C59.4341 40.856 60.8191 40 62.3342 40Z" fill="#B0B6C5"/>
<path fill-rule="evenodd" clip-rule="evenodd" d="M47.334 66C47.334 63.7909 49.1248 62 51.334 62H73.334C75.5431 62 77.334 63.7909 77.334 66C77.334 68.2091 75.5431 70 73.334 70H51.334C49.1248 70 47.334 68.2091 47.334 66Z" fill="#B0B6C5"/>
</svg>
