<?xml version="1.0" encoding="UTF-8"?>
<svg width="1651px" height="1396px" viewBox="0 0 1651 1396" version="1.1" xmlns="http://www.w3.org/2000/svg" xmlns:xlink="http://www.w3.org/1999/xlink">
    <!-- Generator: Sketch 63 (92445) - https://sketch.com -->
    <title>Aidbox</title>
    <desc>Created with Sketch.</desc>
    <g id="Aidbox" stroke="none" stroke-width="1" fill="none" fill-rule="evenodd">
        <path d="M76,72 C336,72 596,72 856,72 C1111.66667,72 1367.33333,72 1623,72 C1625.20914,72 1627,73.790861 1627,76 L1627,1062 C1627,1064.20914 1625.20914,1066 1623,1066 L76,1066 C73.790861,1066 72,1064.20914 72,1062 L72,76 C72,73.790861 73.790861,72 76,72 Z" id="Rectangle" stroke="#353B50" stroke-width="4" fill="#F5F5F6"></path>
        <path d="M75.9999999,1112.00094 L849,1112.18252 L849,1112.18252 L1623,1112.00094 C1625.20914,1111.99948 1627.00042,1113.78992 1627.00094,1115.99906 C1627.00094,1115.99937 1627.00094,1115.99969 1627,1116 L1627,1320.37279 C1627,1322.5545 1625.25174,1324.33379 1623.07037,1324.37217 L848.5,1338 L848.5,1338 L75.9294535,1324.37234 C73.7481553,1324.33387 72,1322.5546 72,1320.37297 L72,1116 C71.9990605,1113.79086 73.7899215,1112 75.9990605,1112 C75.9993737,1112 75.9996869,1112 75.9999999,1112.00094 Z" id="Rectangle" stroke="#353B50" stroke-width="4" fill="#353B50"></path>
        <rect id="Rectangle" fill="#FFFFFF" x="114" y="154" width="1472" height="66" rx="4"></rect>
        <rect id="Rectangle" fill="#FFFFFF" x="114" y="239" width="1472" height="66" rx="4"></rect>
        <rect id="Rectangle" fill="#FFFFFF" x="114" y="345" width="1472" height="197" rx="4"></rect>
        <rect id="Rectangle" fill="#FFFFFF" x="114" y="582" width="1472" height="197" rx="4"></rect>
        <rect id="Rectangle" fill="#FFFFFF" x="114" y="819" width="1472" height="197" rx="4"></rect>
        <text id="Core-modules" font-family="GothamPro-Bold, Gotham Pro" font-size="21" font-weight="bold" fill="#353B50">
            <tspan x="767.214" y="1022">CORE MODULES</tspan>
        </text>
        <rect id="Rectangle" stroke="#353B50" stroke-width="4" fill="#353B50" x="155" y="381" width="215" height="121" rx="8"></rect>
        <text id="FHIR-API" font-family="GothamPro-Black, Gotham Pro" font-size="21" font-weight="700" fill="#FFFFFF">
            <tspan x="214.9665" y="437">FHIR API</tspan>
        </text>
        <text id="Search-|-CRUD" font-family="GothamPro, Gotham Pro" font-size="18" font-weight="normal" fill="#FFFFFF">
            <tspan x="197.228" y="466">Search | CRUD</tspan>
        </text>
        <rect id="Rectangle" stroke="#353B50" stroke-width="4" fill-opacity="0.05" fill="#EA4A35" x="391" y="381" width="215" height="121" rx="8"></rect>
        <text id="GraphQL" font-family="GothamPro-Black, Gotham Pro" font-size="21" font-weight="700" fill="#353B50">
            <tspan x="450.6935" y="448">GraphQL</tspan>
        </text>
        <rect id="Rectangle" stroke="#353B50" stroke-width="4" fill="#FFFFFF" x="391" y="618" width="216" height="121" rx="8"></rect>
        <text id="FHIR-Resources" font-family="GothamPro-Black, Gotham Pro" font-size="21" font-weight="700" line-spacing="24" fill="#353B50">
            <tspan x="474.2225" y="670">FHIR </tspan>
            <tspan x="444.938" y="694">Resources</tspan>
        </text>
        <rect id="Rectangle" stroke="#353B50" stroke-width="4" fill-opacity="0.05" fill="#EA4A35" x="625" y="381" width="216" height="121" rx="8"></rect>
        <text id="SQL-API" font-family="GothamPro-Black, Gotham Pro" font-size="21" font-weight="700" fill="#353B50">
            <tspan x="688.7045" y="437">SQL API</tspan>
        </text>
        <text id="Query-|-SearchQuery" font-family="GothamPro, Gotham Pro" font-size="18" font-weight="normal" fill="#353B50">
            <tspan x="639.274" y="466">Query | SearchQuery</tspan>
        </text>
        <rect id="Rectangle" stroke="#353B50" stroke-width="4" fill-opacity="0.05" fill="#EA4A35" x="861" y="381" width="215" height="121" rx="8"></rect>
        <text id="Bulk-API" font-family="GothamPro-Black, Gotham Pro" font-size="21" font-weight="700" fill="#353B50">
            <tspan x="922.598" y="437">Bulk API</tspan>
        </text>
        <text id="Import-|-Export" font-family="GothamPro, Gotham Pro" font-size="18" font-weight="normal" fill="#353B50">
            <tspan x="900.357" y="466">Import | Export</tspan>
        </text>
        <rect id="Rectangle" stroke="#353B50" stroke-width="4" fill-opacity="0.05" fill="#EA4A35" x="1096" y="381" width="215" height="121" rx="8"></rect>
        <text id="Terminology" font-family="GothamPro-Black, Gotham Pro" font-size="21" font-weight="700" fill="#353B50">
            <tspan x="1134.124" y="437">Terminology</tspan>
        </text>
        <text id="HL7-FHIR-API" font-family="GothamPro, Gotham Pro" font-size="18" font-weight="normal" fill="#353B50">
            <tspan x="1143.214" y="466">HL7 FHIR API</tspan>
        </text>
        <rect id="Rectangle" stroke="#353B50" stroke-width="4" fill-opacity="0.05" fill="#EA4A35" x="1331" y="381" width="215" height="121" rx="8"></rect>
        <text id="App-API" font-family="GothamPro-Black, Gotham Pro" font-size="21" font-weight="700" fill="#353B50">
            <tspan x="1393.2005" y="437">App API</tspan>
        </text>
        <text id="Aidbox-Extensions" font-family="GothamPro, Gotham Pro" font-size="18" font-weight="normal" fill="#353B50">
            <tspan x="1355.498" y="466">Aidbox Extensions</tspan>
        </text>
        <rect id="Rectangle" stroke="#353B50" stroke-width="4" fill="#FFFFFF" x="156" y="618" width="214" height="121" rx="8"></rect>
        <text id="HL7-/-X12" font-family="GothamPro-Black, Gotham Pro" font-size="21" font-weight="700" fill="#353B50">
            <tspan x="210.991" y="674">HL7 / X12</tspan>
        </text>
        <text id="Integration" font-family="GothamPro, Gotham Pro" font-size="21" font-weight="normal" fill="#353B50">
            <tspan x="206.46" y="703">Integration</tspan>
        </text>
        <rect id="Rectangle" stroke="#353B50" stroke-width="4" fill="#353B50" x="627" y="618" width="215" height="121" rx="8"></rect>
        <text id="Custom-Resources" font-family="GothamPro-Black, Gotham Pro" font-size="21" font-weight="700" line-spacing="24" fill="#FFFFFF">
            <tspan x="693.672" y="670">Custom </tspan>
            <tspan x="679.938" y="694">Resources</tspan>
        </text>
        <rect id="Rectangle" stroke="#353B50" stroke-width="4" fill="#FFFFFF" x="861" y="618" width="217" height="121" rx="8"></rect>
        <text id="User-|-Clients" font-family="GothamPro-Black, Gotham Pro" font-size="21" font-weight="700" fill="#353B50">
            <tspan x="897.856" y="674">User | Clients</tspan>
        </text>
        <text id="SCIM-|-Roles" font-family="GothamPro, Gotham Pro" font-size="21" font-weight="normal" fill="#353B50">
            <tspan x="906.299" y="703">SCIM | Roles</tspan>
        </text>
        <rect id="Rectangle" stroke="#353B50" stroke-width="4" fill="#FFFFFF" x="1096" y="620" width="215" height="121" rx="8"></rect>
        <text id="Jobs" font-family="GothamPro-Black, Gotham Pro" font-size="21" font-weight="700" fill="#353B50">
            <tspan x="1178.695" y="687">Jobs</tspan>
        </text>
        <rect id="Rectangle" stroke="#353B50" stroke-width="4" fill="#FFFFFF" x="1332" y="620" width="214" height="121" rx="8"></rect>
        <text id="Subscriptions" font-family="GothamPro-Black, Gotham Pro" font-size="21" font-weight="700" fill="#353B50">
            <tspan x="1365.668" y="687">Subscriptions</tspan>
        </text>
        <rect id="Rectangle" stroke="#353B50" stroke-width="4" fill="#FFFFFF" x="438" y="855" width="259" height="121" rx="8"></rect>
        <text id="Validation" font-family="GothamPro-Black, Gotham Pro" font-size="21" font-weight="700" fill="#353B50">
            <tspan x="511.8225" y="911">Validation</tspan>
        </text>
        <text id="JSON-Schema" font-family="GothamPro, Gotham Pro" font-size="18" font-weight="normal" fill="#353B50">
            <tspan x="503.762" y="940">JSON Schema</tspan>
        </text>
        <rect id="Rectangle" stroke="#353B50" stroke-width="4" fill="#FFFFFF" x="155" y="855" width="259" height="121" rx="8"></rect>
        <text id="Meta-resources" font-family="GothamPro-Black, Gotham Pro" font-size="21" font-weight="700" fill="#353B50">
            <tspan x="201.428" y="911">Meta-resources</tspan>
        </text>
        <text id="Entity-|-Atribute" font-family="GothamPro, Gotham Pro" font-size="18" font-weight="normal" fill="#353B50">
            <tspan x="213.099" y="940">Entity | Atribute</tspan>
        </text>
        <rect id="Rectangle" stroke="#353B50" stroke-width="4" fill="#FFFFFF" x="721" y="855" width="259" height="121" rx="8"></rect>
        <text id="Hooks" font-family="GothamPro-Black, Gotham Pro" font-size="21" font-weight="700" fill="#353B50">
            <tspan x="815.505" y="911">Hooks</tspan>
        </text>
        <text id="Interceptors" font-family="GothamPro, Gotham Pro" font-size="18" font-weight="normal" fill="#353B50">
            <tspan x="796.208" y="940">Interceptors</tspan>
        </text>
        <rect id="Rectangle" stroke="#FFFFFF" stroke-width="4" x="633" y="1170" width="436" height="121" rx="8"></rect>
        <text id="JSONB" font-family="GothamPro-Black, Gotham Pro" font-size="21" font-weight="700" fill="#FFFFFF">
            <tspan x="813.7565" y="1237">JSONB</tspan>
        </text>
        <rect id="Rectangle" stroke="#FFFFFF" stroke-width="4" x="156" y="1170" width="436" height="121" rx="8"></rect>
        <text id="jsonknife" font-family="GothamPro-Black, Gotham Pro" font-size="21" font-weight="700" fill="#FFFFFF">
            <tspan x="324.654" y="1226">jsonknife</tspan>
        </text>
        <text id="PostgreSQL-Extension" font-family="GothamPro, Gotham Pro" font-size="18" font-weight="normal" fill="#FFFFFF">
            <tspan x="273.515" y="1255">PostgreSQL Extension</tspan>
        </text>
        <rect id="Rectangle" stroke="#FFFFFF" stroke-width="4" x="1110" y="1170" width="436" height="121" rx="8"></rect>
        <text id="jsquery" font-family="GothamPro-Black, Gotham Pro" font-size="21" font-weight="700" fill="#FFFFFF">
            <tspan x="1285.7575" y="1226">jsquery</tspan>
        </text>
        <text id="PostgreSQL-PRO" font-family="GothamPro, Gotham Pro" font-size="18" font-weight="normal" fill="#FFFFFF">
            <tspan x="1252.257" y="1255">PostgreSQL PRO</tspan>
        </text>
        <rect id="Rectangle" stroke="#353B50" stroke-width="4" fill="#FFFFFF" x="1004" y="855" width="259" height="121" rx="8"></rect>
        <text id="Cache" font-family="GothamPro-Black, Gotham Pro" font-size="21" font-weight="700" fill="#353B50">
            <tspan x="1100.0615" y="911">Cache</tspan>
        </text>
        <text id="Replication" font-family="GothamPro, Gotham Pro" font-size="18" font-weight="normal" fill="#353B50">
            <tspan x="1083.244" y="940">Replication</tspan>
        </text>
        <rect id="Rectangle" stroke="#353B50" stroke-width="4" fill="#FFFFFF" x="1287" y="855" width="259" height="121" rx="8"></rect>
        <text id="Logging-|-Audit" font-family="GothamPro-Black, Gotham Pro" font-size="21" font-weight="700" fill="#353B50">
            <tspan x="1332.2205" y="911">Logging | Audit</tspan>
        </text>
        <text id="Structured-|-Logs" font-family="GothamPro, Gotham Pro" font-size="18" font-weight="normal" fill="#353B50">
            <tspan x="1339.177" y="940">Structured | Logs</tspan>
        </text>
        <text id="api" font-family="GothamPro-Bold, Gotham Pro" font-size="21" font-weight="bold" fill="#353B50">
            <tspan x="837.326" y="547">API</tspan>
        </text>
        <text id="REST-api" font-family="GothamPro-Bold, Gotham Pro" font-size="27" font-weight="bold" fill="#353B50">
            <tspan x="895.075" y="40">REST API</tspan>
        </text>
        <text id="modules" font-family="GothamPro-Bold, Gotham Pro" font-size="21" font-weight="bold" fill="#353B50">
            <tspan x="802.115" y="785">MODULES</tspan>
        </text>
        <text id="postgresql" font-family="GothamPro-Bold, Gotham Pro" font-size="27" font-weight="bold" fill="#353B50">
            <tspan x="143.516" y="1377">POSTGRESQL</tspan>
        </text>
        <text id="aidbox" font-family="GothamPro-Bold, Gotham Pro" font-size="27" font-weight="bold" fill="#353B50">
            <tspan x="143" y="44">AIDBOX</tspan>
        </text>
        <text id="Authentication-|-Ope" font-family="GothamPro-Black, Gotham Pro" font-size="21" font-weight="700" fill="#353B50">
            <tspan x="672.172" y="193">Authentication | OpenID Connect</tspan>
        </text>
        <text id="Authorization-|-Acce" font-family="GothamPro-Black, Gotham Pro" font-size="21" font-weight="700" fill="#353B50">
            <tspan x="686.196" y="278">Authorization | Access Control</tspan>
        </text>
        <polygon id="Polygon" stroke="#353B50" stroke-width="4" fill="#FFFFFF" transform="translate(72.000000, 72.000000) rotate(-270.000000) translate(-72.000000, -72.000000) " points="72 12 123.961524 42 123.961524 102 72 132 20.0384758 102 20.0384758 42"></polygon>
        <g id="Group-3" transform="translate(47.000000, 48.000000)">
            <g id="Group-58">
                <path d="M25.4921916,7.83941278 C27.4310806,7.83941278 29.1918104,8.97036334 29.9981071,10.733649 L29.9981071,10.733649 L38.9857047,30.3885727 C39.2645512,30.9983804 39.4088768,31.6610631 39.4088768,32.3316008 C39.4088768,34.9120789 37.316986,37.0039697 34.7365079,37.0039697 L34.7365079,37.0039697 L32.0086769,30.615543 L18.6726139,30.615543 L15.9447829,37.0039697 C15.3021842,37.0039697 14.6671133,36.8656576 14.0827142,36.5984297 C11.8337296,35.5700376 10.8442439,32.9131988 11.872636,30.6642142 L11.872636,30.6642142 L20.986276,10.733649 C21.7925728,8.97036334 23.5533025,7.83941278 25.4921916,7.83941278 Z M25.6251289,15.4043851 L20.9466552,25.6154215 L29.8922603,25.6154215 L25.6251289,15.4043851 Z" id="Combined-Shape" fill="#EA4A35"></path>
                <path d="M5.34202423,32.2025316 L0,32.2025316 L0,48 L16.5348369,48 L16.5348369,42.8962025 L5.34202423,42.8962025 L5.34202423,32.2025316 Z M45.534397,42.8962025 L34.3415843,42.8962025 L34.3415843,48 L50.8764212,48 L50.8764212,32.2025316 L45.7887791,32.2025316 L45.534397,32.2025316 L45.534397,42.8962025 Z M34.3415843,4.61772152 L45.7887791,4.61772152 L45.7887791,15.7974684 L50.8764212,15.7974684 L50.8764212,0 L34.3415843,0 L34.3415843,4.61772152 Z M16.5348369,4.61772152 L16.5348369,0 L0,0 L0,15.7974684 L5.34202423,15.7974684 L5.34202423,4.61772152 L16.5348369,4.61772152 Z" id="Shape" stroke="#353B50" fill="#353B50"></path>
            </g>
        </g>
        <polygon id="Polygon" stroke="#353B50" stroke-width="4" fill="#FFFFFF" transform="translate(72.000000, 1324.000000) rotate(-270.000000) translate(-72.000000, -1324.000000) " points="72 1264 123.961524 1294 123.961524 1354 72 1384 20.0384758 1354 20.0384758 1294"></polygon>
        <g id="postgresql" transform="translate(38.000000, 1294.000000)" fill-rule="nonzero">
            <path d="M51.7784518,51.6753313 C52.2239278,47.9155805 52.0907079,47.3639789 54.8530818,47.9727413 L55.5544245,48.0356181 C57.6788937,48.133506 60.4581843,47.6890808 62.0899515,46.9202682 C65.6044185,45.267607 67.6880054,42.5067409 64.2228791,43.2319684 C56.3177955,44.8846297 55.774343,42.1723503 55.774343,42.1723503 C64.1220831,29.6176978 67.6118798,13.6812701 64.599983,9.78004634 C56.3854627,-0.860434325 42.1654753,4.17114403 41.9272303,4.30189933 L41.8511047,4.31690404 C40.2891193,3.987515 38.541754,3.7917393 36.5779944,3.75958635 C33.0007943,3.70028204 30.2863514,4.71059896 28.2274348,6.29323828 C28.2274348,6.29323828 2.85997549,-4.30079924 4.03992289,19.6159889 C4.29085555,24.7040135 11.2345006,58.1152085 19.5159833,48.0234715 C22.5426823,44.3337426 25.4678804,41.2134781 25.4678804,41.2134781 C26.9206114,42.1916421 28.6595183,42.6903699 30.4837142,42.511028 L30.6246876,42.3895613 C30.5809858,42.8475621 30.6000172,43.2955598 30.6817818,43.8257261 C28.5481493,46.2429129 29.175481,46.6673318 24.9096257,47.5568965 C20.5944298,48.458608 23.1298365,50.0633971 24.7841594,50.4828144 C26.7916207,50.9922599 31.43317,51.7132003 34.5705332,47.2610894 L34.4457717,47.7691059 C35.2831537,48.4478903 35.2260595,52.6470647 35.3444772,55.6472915 C35.4628948,58.6475184 35.6616673,61.446968 36.2650335,63.0989147 C36.8683997,64.7494325 37.5803154,69.0014806 43.1861228,67.7839558 C47.870669,66.7650648 51.4520984,65.3003196 51.7784518,51.6753313" id="Path" fill="#000000"></path>
            <path d="M39.8132791,70 C37.3499572,70 35.7464873,69.0352251 34.7718016,68.1030823 C33.3013707,66.6977742 32.7180998,64.8866931 32.3700978,63.8048683 L32.2195537,63.3529847 C31.5179481,61.4340759 31.2805785,58.6716983 31.1398372,55.1148003 C31.1188311,54.5813366 31.1034266,54.030138 31.0873219,53.4463073 C31.0754184,53.0199619 31.0607141,52.4850793 31.0397079,51.9239492 C30.1644514,52.3488758 29.2275768,52.6489492 28.2409877,52.8206224 C26.5044788,53.1214051 24.6377317,53.0235089 22.6911613,52.5304805 C21.3180589,52.1828778 19.8910407,51.4621342 19.0781024,50.3483867 C16.7079078,52.4517379 14.4469452,52.1658524 13.2152843,51.7501479 C11.0425475,51.0159258 9.09807767,48.9537195 7.26984189,45.4436414 C5.96816041,42.9444488 4.70849125,39.6869148 3.52584467,35.7632604 C1.46724137,28.9296747 0.159258052,21.7321702 0.0430239879,19.3698905 C-0.322483128,11.9730466 1.64229267,6.6838101 5.88273538,3.64973494 C12.5731961,-1.13796046 22.7086664,1.67691217 26.4036493,2.9552389 C28.8858767,1.43926541 31.8064326,0.70078698 35.1071999,0.754700871 C36.8801195,0.783785996 38.567614,0.941980703 40.1353735,1.22431924 C41.7703526,0.703624553 45.0010994,-0.0440759889 48.6988831,0.00203457587 C55.5118797,0.0843241991 61.1576343,2.77434361 65.0248676,7.78124154 C67.7843763,11.3537462 66.4203766,18.854871 65.3609661,23.0090782 C63.8716297,28.850932 61.2605645,35.0659268 58.0536246,40.4757601 C58.9246799,40.4821446 60.1857495,40.3757357 61.9796752,40.001176 C65.5185123,39.2605694 66.5527154,41.1830252 66.8334977,42.0435193 C67.9587274,45.4961365 63.0677941,48.1045757 61.5420469,48.8217723 C59.587074,49.7418554 56.4004401,50.3015668 53.7900751,50.1802605 L53.6759417,50.1724572 L52.9904408,50.1114493 L52.9225209,50.6903143 L52.8574018,51.2571195 C52.6823505,58.1126964 51.7153671,62.4541834 49.7260841,65.3236793 C47.6415733,68.3307976 44.7434239,69.1742662 42.191176,69.7283024 C41.3222213,69.9177104 40.5309894,70 39.8132791,70 L39.8132791,70 Z M34.6303602,45.0477999 C36.2205262,46.3367676 36.359867,48.7621833 36.4838034,53.2952065 C36.4992079,53.860593 36.5139122,54.3961849 36.5335179,54.8963072 C36.5937356,56.4101525 36.7344768,59.9557002 37.2820373,61.4539389 C37.3597601,61.6653381 37.4290804,61.8809936 37.5019017,62.1079995 C38.1124807,64.0034984 38.4191705,64.953376 41.0596444,64.3801863 C43.2771942,63.8992176 44.4164281,63.4671971 45.3084895,62.1803576 C46.6052696,60.3089781 47.3306821,56.5470654 47.4637211,50.9953534 L50.1609116,51.0620364 L47.4819265,50.7364248 L47.5603495,50.0589542 C47.8173248,47.8257841 48.0021789,46.211205 49.4761109,45.1442774 C50.6580573,44.2880397 52.0059523,44.3710387 53.0793669,44.5668313 C51.9002213,43.6651924 51.5739257,42.6053588 51.4871002,42.1712101 L51.2623344,41.0489499 L51.8939195,40.0983629 C55.5349865,34.6246841 58.5381666,27.8975074 60.1332341,21.6413679 C61.7717142,15.2128458 61.2717677,11.7985358 60.7725214,11.1529879 C54.1583831,2.58990135 42.6869212,6.12480818 41.4895703,6.52703418 L41.2865108,6.63769954 L40.2712133,6.82994512 L39.7509608,6.72069855 C38.3176408,6.4192064 36.7253741,6.25249897 35.0175737,6.22412324 C32.3350875,6.17872207 30.1714535,6.82072301 28.3971335,8.18488633 L27.1661727,9.1305076 L25.7370539,8.53390784 C22.6855596,7.26976897 13.7201322,4.72801276 8.98954586,8.12245972 C6.36377635,10.0066083 5.16782587,13.6990005 5.43390384,19.0967741 C5.52142949,20.8787701 6.71737998,27.624391 8.68775742,34.1678349 C11.4122559,43.2097619 13.8881815,46.2126238 14.9216843,46.5623546 C15.1016371,46.6240719 15.5700744,46.2551873 16.0357108,45.6890915 C19.0647985,41.9981181 21.9454427,38.9214794 22.0665782,38.7916604 L23.628736,37.1267143 L25.5171895,38.3979471 C26.2783125,38.9108385 27.1178586,39.2009803 27.9805114,39.2556036 L32.4849314,35.363872 L31.8323402,42.1102023 C31.8176359,42.2620124 31.8106338,42.4677365 31.8694511,42.8508089 L32.0655085,44.129845 L31.2161596,45.0932011 L31.1181309,45.2045759 L33.5926561,46.3623057 L34.6303602,45.0477999 L34.6303602,45.0477999 Z" id="Shape" fill="#000000"></path>
            <path d="M64.2236681,43.227959 C56.318146,44.8804414 55.7747118,42.1677412 55.7747118,42.1677412 C64.1214658,29.6144477 67.61044,13.6790308 64.5993496,9.77894383 C56.3844012,-0.860384946 42.1648931,4.17136314 41.9273609,4.30210429 L41.850533,4.31567851 C40.2886003,3.98775399 38.5412938,3.79199949 36.5768956,3.75985003 C32.999816,3.70055213 30.2861694,4.71004525 28.2273222,6.29251323 C28.2273222,6.29251323 2.86001283,-4.299663 4.03992047,19.614536 C4.29084468,24.7020099 11.2342558,58.109588 19.5154594,48.0189433 C22.5420564,44.3296139 25.4664511,41.2096872 25.4664511,41.2096872 C26.9191331,42.1877453 28.6579814,42.6864192 30.481411,42.5070966 L30.6230845,42.3856431 C30.5793842,42.8435943 30.5991198,43.2915435 30.6794719,43.8216524 C28.5466162,46.2385776 29.172517,46.6629505 24.9082152,47.5524189 C20.5924599,48.4540327 23.1277811,50.0586481 24.783458,50.47802 C26.7901468,50.9874104 31.4322446,51.7082728 34.5687971,47.2566439 L34.443335,47.7646054 C35.2792791,48.4433162 35.8664136,52.1790838 35.7677355,55.5654938 C35.6690575,58.9519039 35.6035071,61.2766672 36.2625355,63.0927546 C36.921564,64.9081276 37.5777731,68.9946815 43.1840964,67.7772885 C47.8684848,66.7592222 50.2959651,64.1222519 50.6342898,59.7242054 C50.8739365,56.5971344 51.415961,57.0593722 51.4504983,54.2630834 L51.8860915,52.93924 C52.3872351,48.6997975 51.9657388,47.3323737 54.852072,47.9689331 L55.553391,48.0310887 C57.6777887,48.1296804 60.4576905,47.6845889 62.0894027,46.9158596 C65.6037513,45.2626628 67.6879728,42.50281 64.2236681,43.227959 L64.2236681,43.227959 Z" id="Path" fill="#353B50"></path>
            <path d="M41.1137445,67 C36.4993995,67.0007031 35.0380627,63.3086218 34.4396105,61.7990239 C33.564896,59.5870095 33.3756181,51.0005123 33.570463,43.958769 C33.5843805,43.4595541 33.9928589,43.0651039 34.4897134,43.0805726 C34.9830886,43.094635 35.3720825,43.5101787 35.3588609,44.0093936 C35.1340934,52.1311287 35.4534999,59.4906821 36.1006633,61.1275447 C37.1117692,63.6812752 38.6447811,65.9150864 42.9807762,64.9771248 C47.0968749,64.0848659 48.6382373,62.5077685 49.3243698,58.4873304 C49.8518428,55.4013382 50.8928713,46.6228894 51.0209122,44.8904026 C51.0577936,44.3925938 51.4850606,44.0185342 51.9791317,44.0565027 C52.4718109,44.093768 52.8413204,44.5275928 52.804439,45.0246984 C52.6708311,46.8274972 51.6339778,55.5897743 51.0863245,58.7945937 C50.2756305,63.5441669 48.1803518,65.6985255 43.3551568,66.7440644 C42.5361123,66.9205475 41.7908305,67 41.1137445,67 L41.1137445,67 Z M16.096354,48.968501 C15.6558653,48.9691997 15.2564333,48.8876378 14.9105835,48.7709199 C11.9134513,47.760537 9.05897339,42.8288557 6.42578362,34.1115783 C4.42166455,27.475535 3.15169327,20.5498065 3.04035332,18.2991205 C2.70981285,11.626515 4.41122643,6.90506651 8.09588284,4.26696157 C15.3858659,-0.952295599 27.6499612,4.01805722 28.1683879,4.23180559 C28.6255775,4.42094478 28.8447781,4.94828452 28.6575878,5.41023413 C28.4710934,5.87148062 27.9484915,6.09366643 27.4919977,5.90452724 L27.4919977,5.90523036 C27.373699,5.85601199 15.613417,1.09589195 9.12647324,5.74421596 C5.9755527,8.00193316 4.52882925,12.1953388 4.82596774,18.2098243 C4.91991082,20.1054348 6.10637714,26.8659303 8.13624357,33.5849417 C10.4869082,41.3663669 13.1625464,46.2776576 15.4763297,47.0567142 C15.8388804,47.1797601 16.9439293,47.5517104 18.5249566,45.6321938 C21.4977332,42.0181588 24.2290413,39.133962 24.2561804,39.1051341 C24.5978549,38.7444337 25.1642969,38.7331838 25.5205847,39.0777124 C25.8768726,39.4229441 25.8893983,39.9952835 25.5477238,40.3552808 C25.5205847,40.3834056 22.8310291,43.2247121 19.900005,46.7874194 C18.511735,48.4735003 17.1805267,48.968501 16.096354,48.968501 L16.096354,48.968501 Z M55.0096659,41.3544138 C54.8377848,41.3544138 54.6638162,41.3044923 54.5107237,41.1997275 C54.1008536,40.9212921 53.9922971,40.3594995 54.2685593,39.945362 C62.5988751,27.4551446 65.5229405,12.3640875 63.0184875,9.13114332 C59.8661752,5.06148678 55.4146649,2.93525295 49.7885182,2.81361325 C45.6223165,2.7222077 42.3106489,3.79727765 41.7699543,3.98501059 L41.6342587,4.04055705 C41.0900847,4.21352448 40.6725599,3.91188615 40.5152923,3.5596232 C40.3287978,3.14267325 40.4818903,2.64978638 40.8687966,2.41283505 L41.1095692,2.31299206 L41.0977394,2.31650766 L41.1102651,2.31228894 C42.0295155,1.97268215 45.3912861,0.953158657 49.556096,1.00167391 C55.7820868,1.06776716 60.9246006,3.49423308 64.4276337,8.01669868 C66.0852072,10.1569949 66.0886866,15.087973 64.4380719,21.5447208 C62.7554469,28.1273269 59.5892171,35.20282 55.7521642,40.955745 C55.5795872,41.2151961 55.2970621,41.3544138 55.0096659,41.3544138 L55.0096659,41.3544138 Z M55.4348453,47.1361667 C54.0124775,47.1361667 52.7376351,46.9343714 51.9742605,46.4717187 C51.1893139,45.9971129 51.0397009,45.3509459 51.0202164,45.0085267 C50.805887,41.2088681 52.8809852,40.5472325 53.9394106,40.2455941 C53.7918852,40.0205959 53.581731,39.7555197 53.365314,39.4820062 C52.7480732,38.7029496 51.9032813,37.635614 51.2519426,36.0395324 C51.1503449,35.790628 50.8302426,35.2105543 50.4600372,34.5397782 C48.4538306,30.9053527 44.2799742,23.3418946 46.9611794,19.4684084 C48.2026198,17.6761564 50.6729749,16.9709274 54.3137912,17.3646744 C53.2428401,14.0677464 48.1420787,3.75368423 36.0408181,3.55329513 C32.4006977,3.4914206 29.4153953,4.62274012 27.1725912,6.91069146 C22.1504637,12.0357306 22.3327828,21.3084726 22.3348705,21.4005812 C22.3480921,21.8997962 21.9577064,22.3146368 21.4643312,22.3272929 C20.9702602,22.3427616 20.5596942,21.9469052 20.5471684,21.4476903 C20.5360344,21.0363653 20.3481483,11.3058924 25.9019241,5.63874801 C28.501016,2.98658069 31.9219359,1.6773719 36.0700448,1.7455745 C43.8137382,1.8742454 48.7968968,5.85109015 51.6144933,9.16559619 C54.6846924,12.7768187 56.1905652,16.7606947 56.3144309,18.0895908 C56.4069822,19.078177 55.7048447,19.2764568 55.5628862,19.3052847 L55.2406963,19.313019 C51.6673798,18.7350546 49.3751686,19.1358328 48.4273873,20.5048068 C46.3877786,23.4494719 50.3361716,30.6037144 52.0222759,33.6594724 C52.4530223,34.4385289 52.7633824,35.0017278 52.9053409,35.349772 C53.4592571,36.7067929 54.181575,37.6187391 54.7619345,38.3513898 C55.2720106,38.9961505 55.7145869,39.5544275 55.8732464,40.2111413 C55.9463132,40.3412184 56.9887335,41.8979253 63.17158,40.6084039 C64.7212929,40.285672 65.6502856,40.561998 65.9342024,41.4296476 C66.4929898,43.1375253 63.3580744,45.1287601 61.6225629,45.9436758 C60.0651954,46.6742171 57.5830104,47.1361667 55.4348453,47.1361667 L55.4348453,47.1361667 Z M52.8037432,44.8594653 C52.9992839,45.0598544 53.9804672,45.404383 56.0131172,45.3164931 C57.8196078,45.2377437 59.7256086,44.8404811 60.8696265,44.3047039 C62.3323551,43.6184591 63.3079714,42.8513556 63.8138723,42.3275314 L63.5327389,42.3795623 C59.5794749,43.2043216 56.7834504,43.094635 55.2226035,42.0526116 C55.1105677,41.9787841 55.0110576,41.9014409 54.919898,41.825504 C54.7508005,41.8930035 54.5942287,41.9373 54.4828888,41.9689404 C53.5970403,42.2199541 52.6812692,42.4794053 52.8037432,44.8594653 L52.8037432,44.8594653 Z M27.2672302,49.9071613 C26.285351,49.9071613 25.2519771,49.7728654 24.1963352,49.5049768 C23.1031161,49.2286508 21.2590482,48.3968603 21.2875791,47.0306988 C21.3188934,45.4971948 23.525512,45.0373546 24.3570823,44.8643871 C27.3576939,44.2400169 27.5532347,43.9897063 28.4912737,42.7866686 C28.7647525,42.4358119 29.1050352,41.9991746 29.5684877,41.4753504 C30.2574037,40.696997 31.01034,40.3018437 31.8064207,40.3018437 C32.3603369,40.3018437 32.815439,40.4923891 33.1153609,40.6175444 C34.0728845,41.0183226 34.8717486,41.9872215 35.2002015,43.1473689 C35.4966441,44.193611 35.3553815,45.2004783 34.8021612,45.9823474 C32.98732,48.5508435 30.3819652,49.9071613 27.2672302,49.9071613 L27.2672302,49.9071613 Z M23.2193272,47.1087451 C23.4893266,47.3189778 24.0293253,47.6002257 24.6298651,47.7528027 C25.5442445,47.9834259 26.4307888,48.1008469 27.2672302,48.1008469 C29.8155232,48.1008469 31.8606989,47.0342144 33.3470872,44.9325897 C33.6567514,44.4938431 33.5642001,43.9376754 33.481391,43.6444745 C33.3074224,43.0313542 32.8759801,42.4737803 32.4313161,42.2867505 C32.1898476,42.1855013 31.9901316,42.1081581 31.8064207,42.1081581 C31.7076065,42.1081581 31.4076845,42.1081581 30.9017836,42.6797944 C30.4745165,43.1621345 30.1676358,43.5558815 29.8955488,43.9039257 C28.7278711,45.4022737 28.1927435,45.9106292 24.7175454,46.6341393 C23.86997,46.8113254 23.4350483,46.9899178 23.2193272,47.1087451 Z M30.0959607,42.9406518 C29.6617349,42.9406518 29.2810915,42.6207323 29.2128958,42.1742513 C29.1899319,42.0244869 29.1753185,41.8733161 29.1683598,41.7214423 C26.8900661,41.6778489 24.6924939,40.6906689 23.0244823,38.9314635 C20.9152861,36.7074961 19.9549791,33.6264257 20.3905966,30.4785591 C20.8637914,27.0599913 20.6870392,24.0422018 20.5917044,22.4208079 C20.5652612,21.9701082 20.5464725,21.6445638 20.5478643,21.4188624 C20.549256,21.1333958 20.554823,20.3747297 23.0634512,19.0901301 C23.9555626,18.6331023 25.7446564,17.8357646 27.6986725,17.6311568 C30.9372732,17.2936594 33.0715208,18.7505233 33.7103338,21.7345631 C35.4347112,29.7923143 33.8467252,33.3564278 32.687398,35.9586736 C32.470981,36.4424199 32.2670897,36.900854 32.104255,37.3438193 L31.960209,37.735457 C31.3478393,39.3948194 30.8182786,40.8284803 30.9811133,41.9000347 C31.0555719,42.3936247 30.7208562,42.854168 30.233048,42.9308081 L30.0959607,42.9406518 L30.0959607,42.9406518 Z M22.3418292,21.6684698 L22.3773188,22.3139337 C22.476133,23.9979052 22.6598439,27.1324126 22.1615977,30.7295728 C21.8025263,33.3254905 22.587473,35.8602369 24.3153298,37.6820199 C25.6806359,39.1220089 27.4787761,39.9165341 29.3263233,39.9165341 L29.3645964,39.9165341 C29.5719671,39.0355252 29.9150333,38.106001 30.2845428,37.1040555 L30.4278929,36.7152304 C30.6122997,36.2146092 30.8280209,35.7301597 31.0562678,35.2175855 C32.1724508,32.7116671 33.5614166,29.5926283 31.9616007,22.116357 C31.6442819,20.6362902 30.8760362,19.7791873 29.6130237,19.4965332 C27.0188029,18.9171626 23.1532191,20.8887101 22.3418292,21.6684698 L22.3418292,21.6684698 Z M27.7390332,21.2852696 C27.6944972,21.6044859 28.3186968,22.4573701 29.1314784,22.5712755 C29.9435642,22.685884 30.638743,22.0193265 30.6825831,21.7001102 C30.7264232,21.3801908 30.1029195,21.0286309 29.289442,20.9140224 C28.4773562,20.7994139 27.7821774,20.9653502 27.7390332,21.2852696 L27.7390332,21.2852696 Z M29.3186687,22.8862731 L29.0904218,22.8701013 C28.5859127,22.7990862 28.0758365,22.4777605 27.7272033,22.010186 C27.6047294,21.8463591 27.4043175,21.5271428 27.4439823,21.2430824 C27.5010441,20.8261325 28.0034656,20.5772281 28.7891081,20.5772281 C28.9651644,20.5772281 29.1474835,20.5905874 29.3318903,20.6158997 C29.7605491,20.676368 30.1592853,20.8015233 30.4536403,20.9674595 C30.9637164,21.2557386 31.0012937,21.5763612 30.9783298,21.7430005 C30.9150052,22.2021376 30.1899038,22.8862731 29.3186687,22.8862731 L29.3186687,22.8862731 Z M28.0354758,21.3387067 C28.0612232,21.5355802 28.5434643,22.1859659 29.172535,22.2738558 L29.3179728,22.2844026 C29.8983323,22.2844026 30.3325581,21.822453 30.383357,21.6712823 C30.3297746,21.5686268 29.9567858,21.3119882 29.2483854,21.2135514 C29.0918136,21.1910516 28.9366335,21.1797981 28.7884122,21.1797981 C28.3347019,21.1790986 28.0918417,21.2824571 28.0354758,21.3387067 L28.0354758,21.3387067 Z M52.4752903,20.6334777 C52.5191304,20.9533971 51.8963226,21.8062813 51.0828451,21.9201867 C50.2700635,22.034092 49.5748847,21.3682377 49.5303487,21.0483183 C49.4872045,20.729102 50.1107082,20.376839 50.9234898,20.2629336 C51.7362714,20.147622 52.4307543,20.3149645 52.4752903,20.6334777 Z M50.8956548,22.0833104 C50.1127958,22.0833104 49.4384932,21.4680807 49.3828232,21.0694119 C49.3188028,20.5905874 50.0988783,20.2263714 50.9033094,20.1138723 C51.0800616,20.08856 51.255422,20.0759038 51.4245195,20.0759038 C52.1183066,20.0759038 52.5775839,20.2819179 52.6235116,20.6130872 C52.6534342,20.8282418 52.4905996,21.1594112 52.2094662,21.4575339 C52.0243635,21.6544074 51.6346737,21.9954205 51.1044172,22.069248 L50.8956548,22.0833104 Z M51.4238237,20.376839 C51.2686436,20.376839 51.1072007,20.3887921 50.9436701,20.4112919 C50.1350638,20.5244942 49.6542144,20.852851 49.6771782,21.0286309 C49.7043173,21.2212857 50.2199605,21.7823752 50.8949589,21.7823752 L51.061273,21.7704222 C51.5024575,21.7078445 51.8336939,21.4174561 51.9916574,21.2494105 C52.2393888,20.9857406 52.338203,20.7382425 52.3263731,20.6531651 C52.3117598,20.5427753 52.0139254,20.376839 51.4238237,20.376839 L51.4238237,20.376839 Z M53.6464474,38.9764632 C53.4752622,38.9764632 53.3026853,38.9272448 53.1495929,38.8238862 C52.7390268,38.5454508 52.6290786,37.9850645 52.9039491,37.5702239 C54.8078622,34.6965739 54.459229,31.765268 54.1224257,28.9316958 C53.9783796,27.7237363 53.8301583,26.4756989 53.8691273,25.2768799 C53.9080963,24.0443111 54.0625804,23.0276001 54.2128894,22.0432326 C54.3903374,20.8781633 54.5580432,19.7763748 54.4884557,18.4699785 C54.4613166,17.9721698 54.8398725,17.5467824 55.3332476,17.5186576 C55.8280145,17.4919391 56.2476269,17.8744362 56.274766,18.372948 C56.3540958,19.8663742 56.164122,21.1123022 55.9804111,22.3181524 C55.8384526,23.2483797 55.6916231,24.2102474 55.6561335,25.3345357 C55.6220356,26.3955432 55.7563394,27.522644 55.8982978,28.715135 C56.2573692,31.7294089 56.6630641,35.1458673 54.3903374,38.5749818 C54.2177605,38.8351361 53.9345395,38.9764632 53.6464474,38.9764632 Z" id="Shape" fill="#FFFFFF"></path>
        </g>
        <line x1="789" y1="112.5" x2="923" y2="112.5" id="Path-17" stroke="#353B50" stroke-width="4" stroke-linecap="round"></line>
        <path id="Path-17" d="M856,20 C862.627417,20 868,25.372583 868,32 C868,37.94571 863.675838,42.8814578 858.000809,43.8339473 L858,112 C858,113.104569 857.104569,114 856,114 C854.945638,114 854.081835,113.184122 854.005486,112.149262 L854,112 L854.000187,43.8341145 C848.324668,42.8820355 844,37.946058 844,32 C844,25.372583 849.372583,20 856,20 Z" fill="#353B50" fill-rule="nonzero"></path>
        <line x1="939" y1="112.5" x2="971" y2="112" id="Path-17" stroke="#353B50" stroke-width="4" stroke-linecap="round"></line>
        <line x1="733" y1="112" x2="773" y2="112.5" id="Path-17" stroke="#353B50" stroke-width="4" stroke-linecap="round"></line>
    </g>
</svg>