<?xml version="1.0" encoding="UTF-8"?>
<svg width="176px" height="176px" viewBox="0 0 176 176" version="1.1" xmlns="http://www.w3.org/2000/svg" xmlns:xlink="http://www.w3.org/1999/xlink">
    <!-- Generator: Sketch 63 (92445) - https://sketch.com -->
    <title>Boilerplate</title>
    <desc>Created with Sketch.</desc>
    <g id="Boilerplate" stroke="none" stroke-width="1" fill="none" fill-rule="evenodd">
        <rect id="Rectangle" fill-opacity="0.1" fill="#FFFFFF" transform="translate(88.500000, 88.500000) rotate(-315.000000) translate(-88.500000, -88.500000) " x="27" y="27" width="123" height="123" rx="8"></rect>
        <rect id="Rectangle" stroke="#FFFFFF" stroke-width="4" fill="#353B50" x="26" y="54" width="124" height="83" rx="4"></rect>
        <circle id="Oval" fill-opacity="0.2" fill="#FFFFFF" cx="55" cy="71" r="8"></circle>
        <polygon id="Path-6" fill-opacity="0.1" fill="#FFFFFF" points="47 98.5 50.5 90 53 93.5 59 86 66 98.5 69 93.5 72 95.5 79 91.5 86 98.5 91 95.5 96 101 99 98.5 101.5 91.5 104 94.5 109 92.5 113 96.5 113 104 47 104"></polygon>
        <polyline id="Path-5" stroke="#5D6273" points="47 87 47 104 113 104"></polyline>
        <line x1="49" y1="112" x2="63" y2="112" id="Path-4" stroke-opacity="0.2" stroke="#FFFFFF" stroke-width="4" stroke-linecap="round"></line>
        <line x1="69" y1="112" x2="110" y2="112" id="Path-4" stroke-opacity="0.2" stroke="#FFFFFF" stroke-width="4" stroke-linecap="round"></line>
        <line x1="49" y1="119" x2="63" y2="119" id="Path-4" stroke-opacity="0.2" stroke="#FFFFFF" stroke-width="4" stroke-linecap="round"></line>
        <line x1="69" y1="119" x2="110" y2="119" id="Path-4" stroke-opacity="0.2" stroke="#FFFFFF" stroke-width="4" stroke-linecap="round"></line>
        <line x1="49" y1="126" x2="63" y2="126" id="Path-4" stroke-opacity="0.2" stroke="#FFFFFF" stroke-width="4" stroke-linecap="round"></line>
        <line x1="69" y1="126" x2="110" y2="126" id="Path-4" stroke-opacity="0.2" stroke="#FFFFFF" stroke-width="4" stroke-linecap="round"></line>
        <line x1="69" y1="75" x2="94" y2="75" id="Path-4" stroke-opacity="0.2" stroke="#FFFFFF" stroke-width="4" stroke-linecap="round"></line>
        <line x1="34.5" y1="46" x2="142" y2="46" id="Path-7" stroke="#FFFFFF" stroke-width="4" stroke-linecap="round"></line>
        <line x1="35" y1="65" x2="35" y2="69" id="Path-8" stroke="#FFFFFF" stroke-width="4" stroke-linecap="round"></line>
        <line x1="35" y1="75" x2="35" y2="79" id="Path-8" stroke="#FFFFFF" stroke-width="4" stroke-linecap="round"></line>
        <line x1="35" y1="85" x2="35" y2="89" id="Path-8" stroke="#FFFFFF" stroke-width="4" stroke-linecap="round"></line>
        <line x1="69" y1="67.5" x2="110" y2="67.5" id="Path-4" stroke-opacity="0.2" stroke="#FFFFFF" stroke-width="4" stroke-linecap="round"></line>
        <line x1="120" y1="65" x2="142" y2="65" id="Path-4" stroke-opacity="0.2" stroke="#FFFFFF" stroke-width="4" stroke-linecap="round"></line>
        <line x1="120" y1="72" x2="142" y2="72" id="Path-4" stroke="#FFFFFF" stroke-width="4" stroke-linecap="round"></line>
        <line x1="120" y1="79" x2="142" y2="79" id="Path-4" stroke-opacity="0.2" stroke="#FFFFFF" stroke-width="4" stroke-linecap="round"></line>
        <line x1="120" y1="86" x2="142" y2="86" id="Path-4" stroke-opacity="0.2" stroke="#FFFFFF" stroke-width="4" stroke-linecap="round"></line>
        <polygon id="Star" stroke="#EA4A35" stroke-width="2" fill-opacity="0.2" fill="#EA4A35" transform="translate(121.000000, 32.000000) rotate(-330.000000) translate(-121.000000, -32.000000) " points="121 36 116.297718 38.472136 117.195774 33.236068 113.391548 29.527864 118.648859 28.763932 121 24 123.351141 28.763932 128.608452 29.527864 124.804226 33.236068 125.702282 38.472136"></polygon>
        <polygon id="Polygon" stroke="#EA4A35" stroke-width="2" fill-opacity="0.2" fill="#EA4A35" transform="translate(65.500000, 150.500000) rotate(-30.000000) translate(-65.500000, -150.500000) " points="65.5 143 72.6329239 148.182373 69.9083894 156.567627 61.0916106 156.567627 58.3670761 148.182373"></polygon>
        <path d="M10,71 C11.6520699,72.5352958 12.9854032,73.3029437 14,73.3029437 C15.0145968,73.3029437 16.3479301,72.5352958 18,71 C16.4647042,72.7777778 15.6970563,74.1111111 15.6970563,75 C15.6970563,75.8888889 16.4647042,77.2222222 18,79 C16.1593683,77.653266 14.731754,76.979899 13.7171573,76.979899 C12.7025605,76.979899 11.4635081,77.653266 10,79 C11.346734,77.5364919 12.020101,76.2974395 12.020101,75.2828427 C12.020101,74.268246 11.346734,72.8406317 10,71 Z" id="Rectangle" fill="#EA4A35" transform="translate(14.000000, 75.000000) rotate(-315.000000) translate(-14.000000, -75.000000) "></path>
        <rect id="Rectangle" stroke="#FFFFFF" stroke-width="4" fill="#353B50" x="103" y="70" width="40" height="66" rx="4"></rect>
        <rect id="Rectangle" stroke="#FFFFFF" stroke-width="4" fill="#353B50" x="129" y="90" width="28" height="46" rx="4"></rect>
        <polyline id="Path-3" stroke="#EA4A35" stroke-width="2.2" stroke-linecap="round" stroke-linejoin="round" points="137 117 141.333333 112 145.666667 117 150 112 154.333333 117 158.666667 112 163 117"></polyline>
        <polyline id="Path-3" stroke="#EA4A35" stroke-width="2.2" stroke-linecap="round" stroke-linejoin="round" points="137 124 141.333333 119 145.666667 124 150 119 154.333333 124 158.666667 119 163 124"></polyline>
        <line x1="109" y1="127.5" x2="124" y2="127.5" id="Path-2" stroke="#FFFFFF" stroke-width="4" stroke-linecap="round"></line>
        <line x1="134" y1="127.5" x2="152" y2="127.5" id="Path-2" stroke="#FFFFFF" stroke-width="4" stroke-linecap="round"></line>
    </g>
</svg>