<?xml version="1.0" encoding="UTF-8"?>
<svg width="176px" height="176px" viewBox="0 0 176 176" version="1.1" xmlns="http://www.w3.org/2000/svg" xmlns:xlink="http://www.w3.org/1999/xlink">
    <!-- Generator: Sketch 63 (92445) - https://sketch.com -->
    <title>Backend</title>
    <desc>Created with Sketch.</desc>
    <g id="Backend" stroke="none" stroke-width="1" fill="none" fill-rule="evenodd">
        <rect id="Rectangle" fill-opacity="0.1" fill="#FFFFFF" transform="translate(88.500000, 88.500000) rotate(-315.000000) translate(-88.500000, -88.500000) " x="27" y="27" width="123" height="123" rx="8"></rect>
        <rect id="Rectangle" fill="#353B50" x="28" y="54" width="120" height="83" rx="4"></rect>
        <path d="M139,114 L146,114 C148.209139,114 150,115.790861 150,118 L150,133 C150,135.209139 148.209139,137 146,137 C118.888889,139 99.5555556,140 88,140 C76.4444444,140 57.1111111,139 30,137 C27.790861,137 26,135.209139 26,133 L26,118 C26,115.790861 27.790861,114 30,114 L36,114" id="Path" stroke="#FFFFFF" stroke-width="4" fill="#353B50" stroke-linecap="round"></path>
        <path d="M139,84 L146,84 C148.209139,84 150,85.790861 150,88 L150,103 C150,105.209139 148.209139,107 146,107 L139,107 L139,107 M36,107 L30,107 C27.790861,107 26,105.209139 26,103 L26,88 C26,85.790861 27.790861,84 30,84 L36,84 L36,84" id="Shape" stroke="#FFFFFF" stroke-width="4" fill="#353B50" stroke-linecap="round"></path>
        <path d="M36,77 L30,77 C27.790861,77 26,75.209139 26,73 L26,58 C26,55.790861 27.790861,54 30,54 C55.7777778,52.6666667 75.1111111,52 88,52 C100.888889,52 120.222222,52.6666667 146,54 C148.209139,54 150,55.790861 150,58 L150,73 C150,75.209139 148.209139,77 146,77 L139,77" id="Path" stroke="#FFFFFF" stroke-width="4" fill="#353B50" stroke-linecap="round"></path>
        <g id="Group-3" transform="translate(62.000000, 72.000000)">
            <g id="Group-58">
                <path d="M25.4921916,7.83941278 C27.4310806,7.83941278 29.1918104,8.97036334 29.9981071,10.733649 L29.9981071,10.733649 L38.9857047,30.3885727 C39.2645512,30.9983804 39.4088768,31.6610631 39.4088768,32.3316008 C39.4088768,34.9120789 37.316986,37.0039697 34.7365079,37.0039697 L34.7365079,37.0039697 L32.0086769,30.615543 L18.6726139,30.615543 L15.9447829,37.0039697 C15.3021842,37.0039697 14.6671133,36.8656576 14.0827142,36.5984297 C11.8337296,35.5700376 10.8442439,32.9131988 11.872636,30.6642142 L11.872636,30.6642142 L20.986276,10.733649 C21.7925728,8.97036334 23.5533025,7.83941278 25.4921916,7.83941278 Z M25.6251289,15.4043851 L20.9466552,25.6154215 L29.8922603,25.6154215 L25.6251289,15.4043851 Z" id="Combined-Shape" fill="#EA4A35"></path>
                <path d="M5.34202423,32.2025316 L0,32.2025316 L0,48 L16.5348369,48 L16.5348369,42.8962025 L5.34202423,42.8962025 L5.34202423,32.2025316 Z M45.534397,42.8962025 L34.3415843,42.8962025 L34.3415843,48 L50.8764212,48 L50.8764212,32.2025316 L45.7887791,32.2025316 L45.534397,32.2025316 L45.534397,42.8962025 Z M34.3415843,4.61772152 L45.7887791,4.61772152 L45.7887791,15.7974684 L50.8764212,15.7974684 L50.8764212,0 L34.3415843,0 L34.3415843,4.61772152 Z M16.5348369,4.61772152 L16.5348369,0 L0,0 L0,15.7974684 L5.34202423,15.7974684 L5.34202423,4.61772152 L16.5348369,4.61772152 Z" id="Shape" stroke="#FFFFFF" fill="#FFFFFF"></path>
            </g>
        </g>
        <g id="Group" transform="translate(87.500000, 45.000000) scale(1, -1) translate(-87.500000, -45.000000) translate(84.000000, 39.000000)" stroke="#FFFFFF" stroke-linecap="round">
            <line x1="0.5" y1="11" x2="6.5" y2="11" id="Path-9" stroke-width="6"></line>
            <line x1="3.5" y1="0" x2="3.5" y2="11" id="Path-9" stroke-width="4"></line>
        </g>
        <line x1="17" y1="40" x2="160" y2="40" id="Path-9" stroke-opacity="0.4" stroke="#FFFFFF" stroke-width="4" stroke-linecap="round"></line>
        <polygon id="Star" stroke="#EA4A35" stroke-width="2" fill-opacity="0.2" fill="#EA4A35" transform="translate(139.000000, 48.000000) rotate(-330.000000) translate(-139.000000, -48.000000) " points="139 52 134.297718 54.472136 135.195774 49.236068 131.391548 45.527864 136.648859 44.763932 139 40 141.351141 44.763932 146.608452 45.527864 142.804226 49.236068 143.702282 54.472136"></polygon>
        <polygon id="Polygon" stroke="#EA4A35" stroke-width="2" fill-opacity="0.2" fill="#EA4A35" transform="translate(65.500000, 150.500000) rotate(-30.000000) translate(-65.500000, -150.500000) " points="65.5 143 72.6329239 148.182373 69.9083894 156.567627 61.0916106 156.567627 58.3670761 148.182373"></polygon>
        <polyline id="Path-3" stroke="#EA4A35" stroke-width="2.2" stroke-linecap="round" stroke-linejoin="round" points="2 75 6.33333333 70 10.6666667 75 15 70 19.3333333 75 23.6666667 70 28 75"></polyline>
        <polyline id="Path-3" stroke="#EA4A35" stroke-width="2.2" stroke-linecap="round" stroke-linejoin="round" points="2 82 6.33333333 77 10.6666667 82 15 77 19.3333333 82 23.6666667 77 28 82"></polyline>
        <path d="M153.5,76.3786797 C155.15207,77.9139755 156.485403,78.6816234 157.5,78.6816234 C158.514597,78.6816234 159.84793,77.9139755 161.5,76.3786797 C159.964704,78.1564574 159.197056,79.4897908 159.197056,80.3786797 C159.197056,81.2675685 159.964704,82.6009019 161.5,84.3786797 C159.659368,83.0319456 158.231754,82.3585786 157.217157,82.3585786 C156.202561,82.3585786 154.963508,83.0319456 153.5,84.3786797 C154.846734,82.9151716 155.520101,81.6761191 155.520101,80.6615224 C155.520101,79.6469256 154.846734,78.2193114 153.5,76.3786797 Z" id="Rectangle" fill="#EA4A35" transform="translate(157.500000, 80.378680) rotate(-315.000000) translate(-157.500000, -80.378680) "></path>
    </g>
</svg>