<?xml version="1.0" encoding="UTF-8"?>
<svg width="176px" height="176px" viewBox="0 0 176 176" version="1.1" xmlns="http://www.w3.org/2000/svg" xmlns:xlink="http://www.w3.org/1999/xlink">
    <!-- Generator: Sketch 63 (92445) - https://sketch.com -->
    <title>Process</title>
    <desc>Created with Sketch.</desc>
    <g id="Process" stroke="none" stroke-width="1" fill="none" fill-rule="evenodd">
        <rect id="Rectangle" fill-opacity="0.1" fill="#FFFFFF" transform="translate(88.500000, 88.500000) rotate(-315.000000) translate(-88.500000, -88.500000) " x="27" y="27" width="123" height="123" rx="8"></rect>
        <path d="M104.736803,81.5956412 C106.834149,83.1095689 109.40014,84 112.171361,84 C119.256423,84 125,78.1797017 125,71 C125,63.8202983 119.256423,58 112.171361,58 C106.506943,58 101.699975,61.7202196 100,66.8810674" id="Path" stroke="#EA4A35" stroke-width="5"></path>
        <path d="M87.5,135 C103.7924,135 117,121.7924 117,105.5 C117,89.2075999 103.7924,76 87.5,76 C71.2075999,76 58,89.2075999 58,105.5 C58,112.52306 60.4541804,118.972915 64.5517211,124.038745" id="Path" stroke="#FFFFFF" stroke-width="5" stroke-linecap="round"></path>
        <path d="M109,106 C109,94.4020203 99.5979797,85 88,85" id="Path" stroke="#FFFFFF" stroke-width="2" stroke-linecap="round"></path>
        <line x1="24" y1="135" x2="153" y2="135" id="Line" stroke="#FFFFFF" stroke-width="6" stroke-linecap="round"></line>
        <polyline id="Path-12" stroke="#EA4A35" stroke-width="4" stroke-linecap="round" stroke-linejoin="round" transform="translate(100.000000, 65.500000) rotate(-345.000000) translate(-100.000000, -65.500000) " points="93 62 100 69 107 62"></polyline>
        <polyline id="Path-12" stroke="#FFFFFF" stroke-width="4" stroke-linecap="round" stroke-linejoin="round" transform="translate(65.000000, 123.500000) rotate(-45.000000) translate(-65.000000, -123.500000) " points="58 120 65 127 72 120"></polyline>
        <polyline id="Path-12" stroke="#FFFFFF" stroke-width="4" stroke-linecap="round" stroke-linejoin="round" transform="translate(153.000000, 134.500000) rotate(-90.000000) translate(-153.000000, -134.500000) " points="146 131 153 138 160 131"></polyline>
        <polygon id="Star" stroke="#EA4A35" stroke-width="2" fill="#593E4B" transform="translate(136.000000, 116.000000) rotate(-330.000000) translate(-136.000000, -116.000000) " points="136 120 131.297718 122.472136 132.195774 117.236068 128.391548 113.527864 133.648859 112.763932 136 108 138.351141 112.763932 143.608452 113.527864 139.804226 117.236068 140.702282 122.472136"></polygon>
        <polygon id="Polygon" stroke="#EA4A35" stroke-width="2" fill-opacity="0.2" fill="#EA4A35" transform="translate(122.500000, 36.500000) rotate(-30.000000) translate(-122.500000, -36.500000) " points="122.5 29 129.632924 34.1823725 126.908389 42.5676275 118.091611 42.5676275 115.367076 34.1823725"></polygon>
        <path d="M43,143 C44.6520699,144.535296 45.9854032,145.302944 47,145.302944 C48.0145968,145.302944 49.3479301,144.535296 51,143 C49.4647042,144.777778 48.6970563,146.111111 48.6970563,147 C48.6970563,147.888889 49.4647042,149.222222 51,151 C49.1593683,149.653266 47.731754,148.979899 46.7171573,148.979899 C45.7025605,148.979899 44.4635081,149.653266 43,151 C44.346734,149.536492 45.020101,148.297439 45.020101,147.282843 C45.020101,146.268246 44.346734,144.840632 43,143 Z" id="Rectangle" fill="#EA4A35" transform="translate(47.000000, 147.000000) rotate(-315.000000) translate(-47.000000, -147.000000) "></path>
        <polyline id="Path-3" stroke="#EA4A35" stroke-width="2.2" stroke-linecap="round" stroke-linejoin="round" points="29 57 33.3333333 52 37.6666667 57 42 52 46.3333333 57 50.6666667 52 55 57"></polyline>
        <polyline id="Path-3" stroke="#EA4A35" stroke-width="2.2" stroke-linecap="round" stroke-linejoin="round" points="29 64 33.3333333 59 37.6666667 64 42 59 46.3333333 64 50.6666667 59 55 64"></polyline>
        <line x1="13" y1="117" x2="32" y2="117" id="Line" stroke="#FFFFFF" stroke-width="6" stroke-linecap="round"></line>
        <line x1="40" y1="117" x2="42" y2="117" id="Line" stroke="#FFFFFF" stroke-width="6" stroke-linecap="round"></line>
        <line x1="13" y1="99" x2="32" y2="99" id="Line" stroke="#FFFFFF" stroke-width="6" stroke-linecap="round"></line>
        <line x1="40" y1="99" x2="42" y2="99" id="Line" stroke="#FFFFFF" stroke-width="6" stroke-linecap="round"></line>
        <line x1="13" y1="108" x2="32" y2="108" id="Line" stroke="#EA4A35" stroke-width="6" stroke-linecap="round"></line>
        <line x1="40" y1="108" x2="42" y2="108" id="Line" stroke="#EA4A35" stroke-width="6" stroke-linecap="round"></line>
    </g>
</svg>