<svg width="81" height="81" viewBox="0 0 81 81" fill="none" xmlns="http://www.w3.org/2000/svg">
<path d="M24.9043 60.7432H52.9043C53.9652 60.7432 54.9826 60.3217 55.7327 59.5716C56.4829 58.8214 56.9043 57.804 56.9043 56.7432V30.7432L46.9043 20.7432H28.9043C27.8434 20.7432 26.826 21.1646 26.0759 21.9147C25.3257 22.6649 24.9043 23.6823 24.9043 24.7432V32.7432" stroke="#262626" stroke-width="3" stroke-linecap="round" stroke-linejoin="round"/>
<path d="M44.9043 20.7432V28.7432C44.9043 29.804 45.3257 30.8214 46.0759 31.5716C46.826 32.3217 47.8434 32.7432 48.9043 32.7432H56.9043" stroke="#262626" stroke-width="3" stroke-linecap="round" stroke-linejoin="round"/>
<path d="M22.9043 46.7432L26.9043 50.7432L34.9043 42.7432" stroke="#262626" stroke-width="3" stroke-linecap="round" stroke-linejoin="round"/>
<path d="M51.7321 3.57735C52.3509 3.22009 53.1133 3.22008 53.7321 3.57735L71.7993 14.0084C72.4181 14.3657 72.7993 15.026 72.7993 15.7405V36.6027C72.7993 37.3172 72.4181 37.9774 71.7993 38.3347L53.7321 48.7658C53.1133 49.1231 52.3509 49.1231 51.7321 48.7658L33.665 38.3347C33.0461 37.9774 32.6649 37.3172 32.6649 36.6027V15.7405C32.6649 15.026 33.0461 14.3657 33.6649 14.0084L51.7321 3.57735Z" fill="#EA4A35" fill-opacity="0.2"/>
</svg>
