<svg width="81" height="81" viewBox="0 0 81 81" fill="none" xmlns="http://www.w3.org/2000/svg">
<path d="M38.5664 56.7431H24.5664C23.5055 56.7431 22.4881 56.3217 21.738 55.5715C20.9878 54.8214 20.5664 53.804 20.5664 52.7431V26.7431C20.5664 25.6822 20.9878 24.6648 21.738 23.9147C22.4881 23.1645 23.5055 22.7431 24.5664 22.7431H32.3664C33.0354 22.7366 33.6953 22.8979 34.2858 23.2124C34.8763 23.5268 35.3785 23.9844 35.7464 24.5431L37.3664 26.9431C37.7306 27.4962 38.2265 27.9502 38.8094 28.2643C39.3924 28.5785 40.0442 28.743 40.7064 28.7431H56.5664C57.6273 28.7431 58.6447 29.1645 59.3948 29.9147C60.145 30.6648 60.5664 31.6822 60.5664 32.7431V35.7431" stroke="#262626" stroke-width="3" stroke-linecap="round" stroke-linejoin="round"/>
<path d="M44.3673 51.6432C41.9673 49.2432 42.0873 46.0432 43.9673 44.1832C44.4187 43.7309 44.9549 43.372 45.5452 43.1272C46.1354 42.8823 46.7682 42.7563 47.4073 42.7563C48.0463 42.7563 48.6791 42.8823 49.2694 43.1272C49.8597 43.372 50.3958 43.7309 50.8473 44.1832L51.5673 44.8632L52.2473 44.1832C52.6977 43.7266 53.2341 43.3636 53.8255 43.1152C54.4169 42.8669 55.0517 42.7381 55.6931 42.7362C56.3345 42.7344 56.97 42.8595 57.5628 43.1044C58.1557 43.3493 58.6942 43.7092 59.1473 44.1632C61.0473 46.0632 61.1473 49.2232 58.7473 51.6432L51.5673 58.7432L44.3673 51.6432Z" stroke="#262626" stroke-width="3" stroke-linecap="round" stroke-linejoin="round"/>
<path d="M51.3942 3.57735C52.013 3.22009 52.7754 3.22008 53.3942 3.57735L71.4614 14.0084C72.0802 14.3657 72.4614 15.026 72.4614 15.7405V36.6027C72.4614 37.3172 72.0802 37.9774 71.4614 38.3347L53.3942 48.7658C52.7754 49.1231 52.013 49.1231 51.3942 48.7658L33.3271 38.3347C32.7083 37.9774 32.3271 37.3172 32.3271 36.6027V15.7405C32.3271 15.026 32.7083 14.3657 33.3271 14.0084L51.3942 3.57735Z" fill="#EA4A35" fill-opacity="0.2"/>
</svg>
