<?xml version="1.0" encoding="UTF-8"?>
<svg width="176px" height="176px" viewBox="0 0 176 176" version="1.1" xmlns="http://www.w3.org/2000/svg" xmlns:xlink="http://www.w3.org/1999/xlink">
    <!-- Generator: Sketch 63 (92445) - https://sketch.com -->
    <title>Team</title>
    <desc>Created with Sketch.</desc>
    <g id="Team" stroke="none" stroke-width="1" fill="none" fill-rule="evenodd">
        <rect id="Rectangle" fill-opacity="0.1" fill="#FFFFFF" transform="translate(88.500000, 88.500000) rotate(-315.000000) translate(-88.500000, -88.500000) " x="27" y="27" width="123" height="123" rx="8"></rect>
        <g id="meeting" transform="translate(33.000000, 33.000000)" fill-rule="nonzero">
            <polygon id="Path" fill="#EA4A35" transform="translate(80.448043, 89.919926) rotate(-21.280166) translate(-80.448043, -89.919926) " points="76.2891705 88.2937385 84.6069158 88.2937385 84.6069158 91.5461138 76.2891705 91.5461138"></polygon>
            <polygon id="Path" fill="#EA4A35" transform="translate(28.069641, 88.928331) rotate(-68.719834) translate(-28.069641, -88.928331) " points="26.4433445 87.3020351 29.6959366 87.3020351 29.6959366 90.5546272 26.4433445 90.5546272"></polygon>
            <polygon id="Path" fill="#EA4A35" transform="translate(72.026762, 93.200253) rotate(-21.280166) translate(-72.026762, -93.200253) " points="70.4004661 91.5740651 73.6530582 91.5740651 73.6530582 94.8264403 70.4004661 94.8264403"></polygon>
            <polygon id="Path" fill="#EA4A35" transform="translate(36.490894, 92.214756) rotate(-68.719834) translate(-36.490894, -92.214756) " points="34.8647061 88.0558838 38.1170813 88.0558838 38.1170813 96.3736291 34.8647061 96.3736291"></polygon>
            <polygon id="Path" fill="#EA4A35" transform="translate(82.957577, 22.056624) rotate(-68.719834) translate(-82.957577, -22.056624) " points="81.3313895 20.4303275 84.5837647 20.4303275 84.5837647 23.6829196 81.3313895 23.6829196"></polygon>
            <polygon id="Path" fill="#EA4A35" transform="translate(38.838761, 17.875921) rotate(-21.280166) translate(-38.838761, -17.875921) " points="37.2123564 16.2496245 40.4651653 16.2496245 40.4651653 19.5022166 37.2123564 19.5022166"></polygon>
            <polygon id="Path" fill="#EA4A35" transform="translate(30.418689, 21.151677) rotate(-21.280166) translate(-30.418689, -21.151677) " points="26.2598168 19.5254897 34.5775621 19.5254897 34.5775621 22.7778649 26.2598168 22.7778649"></polygon>
            <polygon id="Path" fill="#EA4A35" transform="translate(74.542045, 18.783154) rotate(-68.719834) translate(-74.542045, -18.783154) " points="72.9158571 14.6242817 76.1682323 14.6242817 76.1682323 22.942027 72.9158571 22.942027"></polygon>
            <polygon id="Path" fill="#FFFFFF" points="55 73 58 73 58 76 55 76"></polygon>
            <path d="M63.2078229,36 L62,38.9142742 C66.6030904,40.757121 70.2494006,44.4331639 72.0043515,49 L75,47.8878722 C72.9312457,42.5049302 68.6329929,38.1718067 63.2078229,36 Z" id="Path" fill="#EA4A35"></path>
            <path d="M76,55 C76,53.6565928 75.8849211,52.3109087 75.6580152,51 L73,51.6040157 C73.1924003,52.7164148 73.2899554,53.8590354 73.2899554,55 L76,55 Z" id="Path" fill="#EA4A35"></path>
            <path d="M99.6181641,71.0551758 C96.4436074,71.0551758 93.569748,72.3631113 91.5032402,74.4666914 L80.4403125,68.0796387 C82.3561465,64.29675 83.4375293,60.0223828 83.4375293,55.5 C83.4375293,51.0131719 82.372623,46.7708906 80.4849727,43.0101152 L91.5741328,36.6078867 C93.6350039,38.668541 96.4802461,39.9448242 99.6179473,39.9448242 C105.893783,39.9448242 111,34.8388242 111,28.5629883 C111,22.2871523 105.893783,17.1811523 99.6179473,17.1811523 C93.3421113,17.1811523 88.2361113,22.2871523 88.2361113,28.5629883 C88.2361113,30.5247832 88.7351777,32.3723262 89.6127715,33.9852949 L78.8592129,40.193707 C74.1410625,33.0172969 66.2086816,28.1348145 57.1257598,27.6110332 L57.1257598,22.6457344 C62.633918,21.8539922 66.8816191,17.105707 66.8816191,11.3818359 C66.8818359,5.106 61.7760527,0 55.5,0 C49.2239473,0 44.1181641,5.106 44.1181641,11.3818359 C44.1181641,17.105707 48.3658652,21.854209 53.8740234,22.6457344 L53.8740234,27.6105996 C49.9907578,27.8380195 46.1675449,28.876043 42.7269785,30.647707 L44.2157227,33.5389102 C47.726748,31.731041 51.5232949,30.8144238 55.4997832,30.8144238 C69.111375,30.8144238 80.1853594,41.8884082 80.1853594,55.5 C80.1853594,63.6381211 76.225998,70.8678633 70.1335723,75.3674824 L70.1335723,70.5517734 L60.5648086,63.1169414 L64.6850332,58.5227988 L64.6848164,52.0490273 C64.6848164,49.6039922 63.7272246,47.2994414 61.9882969,45.5602969 C60.2493691,43.8211523 57.9450352,42.8635605 55.4997832,42.8635605 C50.4351914,42.8635605 46.3145332,46.9842188 46.3145332,52.0490273 L46.3145332,58.5227988 L50.4347578,63.1169414 L40.8662109,70.5517734 L40.8662109,75.3674824 C34.7737852,70.8678633 30.8144238,63.6381211 30.8144238,55.5 C30.8144238,47.3378145 34.8448945,39.7117676 41.596166,35.1007148 L39.7620645,32.415252 C36.6881016,34.5147129 34.1138555,37.1676563 32.133416,40.1893711 L21.3872285,33.9850781 C22.2648223,32.3721094 22.7636719,30.5247832 22.7636719,28.5629883 C22.7636719,22.2871523 17.6578887,17.1811523 11.3818359,17.1811523 C5.1057832,17.1811523 0,22.2871523 0,28.5629883 C0,34.8388242 5.1057832,39.9448242 11.3818359,39.9448242 C14.5195371,39.9448242 17.3649961,38.668541 19.4258672,36.6076699 L30.513293,43.0090313 C28.6011445,46.8324609 27.5626875,51.0966387 27.5626875,55.5 C27.5626875,60.0223828 28.6440703,64.29675 30.5599043,68.0796387 L19.4971934,74.4669082 C17.4304688,72.3631113 14.5566094,71.0551758 11.3818359,71.0551758 C5.1057832,71.0551758 0,76.1611758 0,82.4370117 C0,88.7128477 5.1057832,93.8188477 11.3818359,93.8188477 C17.6578887,93.8188477 22.7636719,88.7128477 22.7636719,82.4370117 C22.7636719,80.5109883 22.281082,78.6959648 21.4329727,77.1040254 L32.1958535,70.8899766 C36.9207246,78.0206426 44.8266563,82.8671367 53.8740234,83.3889668 L53.8740234,88.3542656 C48.3658652,89.145791 44.1181641,93.894293 44.1181641,99.6181641 C44.1181641,105.894 49.2239473,111 55.5,111 C61.7758359,111 66.8818359,105.894 66.8818359,99.6181641 C66.8818359,93.8945098 62.6341348,89.1460078 57.1259766,88.3542656 L57.1259766,83.3889668 C66.1735605,82.8671367 74.0794922,78.0206426 78.8043633,70.8899766 L89.5672441,77.1038086 C88.7191348,78.695748 88.2363281,80.5107715 88.2363281,82.4370117 C88.2363281,88.7128477 93.3423281,93.8188477 99.6181641,93.8188477 C105.894,93.8188477 111,88.7128477 111,82.4370117 C111,76.1611758 105.894217,71.0551758 99.6181641,71.0551758 L99.6181641,71.0551758 Z M99.6181641,20.4331055 C104.10109,20.4331055 107.748047,24.0800625 107.748047,28.5629883 C107.748047,33.0459141 104.10109,36.6928711 99.6181641,36.6928711 C95.1352383,36.6928711 91.4882813,33.0459141 91.4882813,28.5629883 C91.4882813,24.0800625 95.1354551,20.4331055 99.6181641,20.4331055 Z M47.3701172,11.3818359 C47.3701172,6.89891016 51.0170742,3.25195313 55.5,3.25195313 C59.9829258,3.25195313 63.6298828,6.89891016 63.6298828,11.3818359 C63.6298828,15.8647617 59.9829258,19.5117188 55.5,19.5117188 C51.0170742,19.5117188 47.3701172,15.8647617 47.3701172,11.3818359 Z M11.3818359,36.6928711 C6.89891016,36.6928711 3.25195312,33.0459141 3.25195312,28.5629883 C3.25195312,24.0800625 6.89891016,20.4331055 11.3818359,20.4331055 C15.8647617,20.4331055 19.5117188,24.0802793 19.5117188,28.5629883 C19.5117188,33.0456973 15.8647617,36.6928711 11.3818359,36.6928711 Z M11.3818359,90.5668945 C6.89891016,90.5668945 3.25195312,86.9199375 3.25195312,82.4370117 C3.25195312,77.9540859 6.89891016,74.3071289 11.3818359,74.3071289 C15.8647617,74.3071289 19.5117188,77.9543027 19.5117188,82.4370117 C19.5117188,86.9197207 15.8647617,90.5668945 11.3818359,90.5668945 Z M49.5667031,52.0488105 C49.5667031,48.7769121 52.2283184,46.1152969 55.5,46.1152969 C57.0765469,46.1152969 58.564207,46.7346855 59.689166,47.8596445 C60.814125,48.9846035 61.4332969,50.4722637 61.4332969,52.0488105 L61.4335137,57.278168 L57.4639629,61.7040762 L53.5362539,61.7040762 L49.5667031,57.278168 L49.5667031,52.0488105 Z M44.1179473,72.1430625 L53.3675859,64.9562461 L57.6321973,64.9562461 L66.8816191,72.1430625 L66.8816191,77.4001699 C63.4737891,79.1785547 59.6024473,80.185793 55.4997832,80.185793 C51.3971191,80.185793 47.5257773,79.1785547 44.1179473,77.4001699 L44.1179473,72.1430625 L44.1179473,72.1430625 Z M63.6298828,99.6181641 C63.6298828,104.10109 59.9829258,107.748047 55.5,107.748047 C51.0170742,107.748047 47.3701172,104.10109 47.3701172,99.6181641 C47.3701172,95.1352383 51.017291,91.4882813 55.5,91.4882813 C59.982709,91.4882813 63.6298828,95.1354551 63.6298828,99.6181641 Z M99.6181641,90.5668945 C95.1352383,90.5668945 91.4882813,86.9199375 91.4882813,82.4370117 C91.4882813,77.9540859 95.1352383,74.3071289 99.6181641,74.3071289 C104.10109,74.3071289 107.748047,77.9540859 107.748047,82.4370117 C107.748047,86.9199375 104.10109,90.5668945 99.6181641,90.5668945 Z" id="Shape" fill="#FFFFFF"></path>
            <polygon id="Path" fill="#EA4A35" points="10 51 13 51 13 67 10 67"></polygon>
            <polygon id="Path" fill="#EA4A35" points="10 45 13 45 13 48 10 48"></polygon>
            <polygon id="Path" fill="#EA4A35" points="98 63 101 63 101 66 98 66"></polygon>
            <polygon id="Path" fill="#EA4A35" points="98 44 101 44 101 60 98 60"></polygon>
        </g>
        <polygon id="Star" stroke="#EA4A35" stroke-width="2" fill="#593E4B" transform="translate(150.000000, 35.000000) rotate(-330.000000) translate(-150.000000, -35.000000) " points="150 39 145.297718 41.472136 146.195774 36.236068 142.391548 32.527864 147.648859 31.763932 150 27 152.351141 31.763932 157.608452 32.527864 153.804226 36.236068 154.702282 41.472136"></polygon>
        <polyline id="Path-3" stroke="#EA4A35" stroke-width="2.2" stroke-linecap="round" stroke-linejoin="round" points="137 144 141.333333 139 145.666667 144 150 139 154.333333 144 158.666667 139 163 144"></polyline>
        <polyline id="Path-3" stroke="#EA4A35" stroke-width="2.2" stroke-linecap="round" stroke-linejoin="round" points="137 151 141.333333 146 145.666667 151 150 146 154.333333 151 158.666667 146 163 151"></polyline>
        <polygon id="Polygon" stroke="#EA4A35" stroke-width="2" fill-opacity="0.2" fill="#EA4A35" transform="translate(20.500000, 123.500000) rotate(-30.000000) translate(-20.500000, -123.500000) " points="20.5 116 27.6329239 121.182373 24.9083894 129.567627 16.0916106 129.567627 13.3670761 121.182373"></polygon>
        <path d="M44,28 C45.6520699,29.5352958 46.9854032,30.3029437 48,30.3029437 C49.0145968,30.3029437 50.3479301,29.5352958 52,28 C50.4647042,29.7777778 49.6970563,31.1111111 49.6970563,32 C49.6970563,32.8888889 50.4647042,34.2222222 52,36 C50.1593683,34.653266 48.731754,33.979899 47.7171573,33.979899 C46.7025605,33.979899 45.4635081,34.653266 44,36 C45.346734,34.5364919 46.020101,33.2974395 46.020101,32.2828427 C46.020101,31.268246 45.346734,29.8406317 44,28 Z" id="Rectangle" fill="#EA4A35" transform="translate(48.000000, 32.000000) rotate(-315.000000) translate(-48.000000, -32.000000) "></path>
    </g>
</svg>