<svg width="81" height="81" viewBox="0 0 81 81" fill="none" xmlns="http://www.w3.org/2000/svg">
<path d="M40.9551 56.7432C44.2688 56.7432 46.9551 54.0569 46.9551 50.7432C46.9551 47.4295 44.2688 44.7432 40.9551 44.7432C37.6414 44.7432 34.9551 47.4295 34.9551 50.7432C34.9551 54.0569 37.6414 56.7432 40.9551 56.7432Z" stroke="#262626" stroke-width="3" stroke-linecap="round" stroke-linejoin="round"/>
<path d="M25.3558 46.9431C23.7942 45.4694 22.5925 43.6562 21.8437 41.6438C21.0949 39.6314 20.8191 37.4737 21.0374 35.3377C21.2558 33.2016 21.9626 31.1444 23.1031 29.3251C24.2436 27.5059 25.7873 25.9734 27.6148 24.8461C29.4423 23.7188 31.5045 23.027 33.6421 22.8241C35.7797 22.6212 37.9353 22.9128 39.9422 23.6761C41.9491 24.4395 43.7535 25.6543 45.2159 27.2265C46.6783 28.7987 47.7595 30.6863 48.3758 32.7431H51.9558C53.8635 32.7688 55.7137 33.4001 57.2393 34.5459C58.7649 35.6917 59.8868 37.2927 60.4432 39.1177C60.9996 40.9426 60.9617 42.8972 60.3348 44.6992C59.708 46.5012 58.5247 48.0574 56.9558 49.1431" stroke="#262626" stroke-width="3" stroke-linecap="round" stroke-linejoin="round"/>
<path d="M48.3547 53.5431L46.5547 52.9431" stroke="#262626" stroke-width="3" stroke-linecap="round" stroke-linejoin="round"/>
<path d="M35.3547 48.5431L33.5547 47.9431" stroke="#262626" stroke-width="3" stroke-linecap="round" stroke-linejoin="round"/>
<path d="M38.1543 58.1431L38.7543 56.3431" stroke="#262626" stroke-width="3" stroke-linecap="round" stroke-linejoin="round"/>
<path d="M43.1543 45.1431L43.7543 43.3431" stroke="#262626" stroke-width="3" stroke-linecap="round" stroke-linejoin="round"/>
<path d="M44.1555 58.1432L43.3555 56.1432" stroke="#262626" stroke-width="3" stroke-linecap="round" stroke-linejoin="round"/>
<path d="M38.5559 45.3431L37.7559 43.3431" stroke="#262626" stroke-width="3" stroke-linecap="round" stroke-linejoin="round"/>
<path d="M33.5547 53.9432L35.5547 53.1432" stroke="#262626" stroke-width="3" stroke-linecap="round" stroke-linejoin="round"/>
<path d="M46.3555 48.3432L48.3555 47.5432" stroke="#262626" stroke-width="3" stroke-linecap="round" stroke-linejoin="round"/>
<path d="M51.7829 3.57735C52.4017 3.22009 53.1641 3.22008 53.7829 3.57735L71.8501 14.0084C72.4689 14.3657 72.8501 15.026 72.8501 15.7405V36.6027C72.8501 37.3172 72.4689 37.9774 71.8501 38.3347L53.7829 48.7658C53.1641 49.1231 52.4017 49.1231 51.7829 48.7658L33.7157 38.3347C33.0969 37.9774 32.7157 37.3172 32.7157 36.6027V15.7405C32.7157 15.026 33.0969 14.3657 33.7157 14.0084L51.7829 3.57735Z" fill="#EA4A35" fill-opacity="0.2"/>
</svg>
