<?xml version="1.0" encoding="UTF-8"?>
<svg width="1651px" height="1396px" viewBox="0 0 1651 1396" version="1.1" xmlns="http://www.w3.org/2000/svg" xmlns:xlink="http://www.w3.org/1999/xlink">
    <!-- Generator: Sketch 63 (92445) - https://sketch.com -->
    <title>Infra</title>
    <desc>Created with Sketch.</desc>
    <g id="Infra" stroke="none" stroke-width="1" fill="none" fill-rule="evenodd">
        <path d="M1396.49998,192.899997 L1396.49998,966.399984 C1396.49998,967.946381 1395.24637,969.199984 1393.69998,969.199984 L265.999996,969.199984" id="Path" stroke="#EBEBED" stroke-width="1.39999998" stroke-linecap="round"></path>
        <path d="M1410.49998,206.899997 L1410.49998,980.399983 C1410.49998,981.946381 1409.24637,983.199983 1407.69998,983.199983 L279.999995,983.199983" id="Path" stroke="#EBEBED" stroke-width="1.39999998" stroke-linecap="round"></path>
        <rect id="Rectangle" fill-opacity="0.05" fill="#353B50" x="249.899996" y="176.799997" width="1133.29998" height="779.099987" rx="2.79999995"></rect>
        <rect id="Rectangle" fill="#FFFFFF" x="1073.09998" y="215.299996" width="204.399997" height="321.999995" rx="5.5999999"></rect>
        <rect id="Rectangle" fill="#FFFFFF" x="776.999987" y="386.099994" width="204.399997" height="151.199997" rx="5.5999999"></rect>
        <rect id="Rectangle" fill="#FFFFFF" x="775.599987" y="556.199991" width="204.399997" height="151.199997" rx="5.5999999"></rect>
        <rect id="Rectangle" fill="#FFFFFF" x="774.199987" y="730.499988" width="204.399997" height="151.199997" rx="5.5999999"></rect>
        <rect id="Rectangle" fill="#FFFFFF" x="496.999992" y="558.299991" width="204.399997" height="151.199997" rx="5.5999999"></rect>
        <rect id="Rectangle" fill="#FFFFFF" x="282.799995" y="732.599988" width="204.399997" height="151.199997" rx="5.5999999"></rect>
        <rect id="Rectangle" fill="#FFFFFF" x="1073.09998" y="556.199991" width="204.399997" height="151.199997" rx="5.5999999"></rect>
        <rect id="Rectangle" fill="#FFFFFF" x="776.999987" y="209.699997" width="204.399997" height="151.199997" rx="5.5999999"></rect>
        <g id="Group-7" transform="translate(1100.399981, 416.899993)">
            <path d="M4.80446331,6.90269131 C36.8692601,2.3008971 60.3511053,0 75.2499987,0 C90.1488911,0 113.630735,2.30089676 145.695529,6.90269029 C148.452754,7.29838821 150.5,9.66042196 150.5,12.4458953 L150.5,79.5125765 C150.499994,82.2438525 148.529643,84.5767146 145.83686,85.0336476 C114.145949,90.4112148 90.7336617,93.0999984 75.5999987,93.0999984 C60.4582678,93.0999984 36.8165856,90.4083472 4.6749521,85.0250447 C1.97672979,84.5731217 -6.95461361e-15,82.2377819 0,79.5019752 L0,12.445903 C-6.72236926e-06,9.66042943 2.04723986,7.29839551 4.80446331,6.90269131 Z" id="Rectangle" stroke="#353B50" stroke-width="2.79999995" fill-opacity="0.1" fill="#2E7DE1"></path>
            <text id="PostgreSQL" font-family="GothamPro-Black, Gotham Pro" font-size="14.6999997" font-weight="700" fill="#353B50">
                <tspan x="30.8972995" y="41.0999995">PostgreSQL</tspan>
            </text>
            <text id="Master" font-family="GothamPro, Gotham Pro" font-size="12.5999998" font-weight="normal" fill="#353B50">
                <tspan x="55.2201991" y="60.7999991">Master</tspan>
            </text>
        </g>
        <g id="Group-6" transform="translate(1100.399981, 239.099996)">
            <path d="M4.80446331,6.90269131 C36.8692601,2.3008971 60.3511053,0 75.2499987,0 C90.1488911,0 113.630735,2.30089676 145.695529,6.90269029 C148.452754,7.29838821 150.5,9.66042196 150.5,12.4458953 L150.5,79.5125765 C150.499994,82.2438525 148.529643,84.5767146 145.83686,85.0336476 C114.145949,90.4112148 90.7336617,93.0999984 75.5999987,93.0999984 C60.4582678,93.0999984 36.8165856,90.4083472 4.6749521,85.0250447 C1.97672979,84.5731217 -6.95461361e-15,82.2377819 0,79.5019752 L0,12.445903 C-6.72236926e-06,9.66042943 2.04723986,7.29839551 4.80446331,6.90269131 Z" id="Rectangle" stroke="#353B50" stroke-width="2.79999995" fill-opacity="0.1" fill="#2E7DE1"></path>
            <text id="PostgreSQL" font-family="GothamPro-Black, Gotham Pro" font-size="14.6999997" font-weight="700" fill="#353B50">
                <tspan x="31.5972995" y="40.3999995">PostgreSQL</tspan>
            </text>
            <text id="Replica" font-family="GothamPro, Gotham Pro" font-size="12.5999998" font-weight="normal" fill="#353B50">
                <tspan x="53.9734991" y="60.0999991">Replica</tspan>
            </text>
        </g>
        <g id="Group-2" transform="translate(803.599986, 421.099993)">
            <rect id="Rectangle" stroke="#EA4A35" stroke-width="2.79999995" fill="#FFFFFF" x="0" y="0" width="150.499997" height="84.6999986" rx="5.5999999"></rect>
            <text id="Аidbox" font-family="GothamPro-Black, Gotham Pro" font-size="14.6999997" font-weight="700" fill="#353B50">
                <tspan x="47.7637992" y="39.6999995">Аidbox</tspan>
            </text>
            <text id="Clojure-|-JVM" font-family="GothamPro, Gotham Pro" font-size="12.5999998" font-weight="normal" fill="#353B50">
                <tspan x="33.6888994" y="59.3999991">Clojure | JVM</tspan>
            </text>
        </g>
        <g id="Group-3" transform="translate(803.599986, 242.599996)">
            <path d="M27.9999995,0 C55.5333324,0 96.8333317,0 151.899997,0 C154.992792,0 157.5,2.50720536 157.5,5.5999999 L157.5,79.0999987" id="Path" stroke="#00A984" stroke-width="2.79999995" stroke-linecap="round"></path>
            <rect id="Rectangle" stroke="#00A984" stroke-width="2.79999995" fill="#FFFFFF" x="0" y="6.99999988" width="150.499997" height="84.6999986" rx="5.5999999"></rect>
            <text id="AidboxApp" font-family="GothamPro-Black, Gotham Pro" font-size="14.6999997" font-weight="700" fill="#353B50">
                <tspan x="30.5833495" y="44.5999994">AidboxApp</tspan>
            </text>
            <text id="Your-Services" font-family="GothamPro, Gotham Pro" font-size="12.5999998" font-weight="normal" fill="#353B50">
                <tspan x="31.5146995" y="64.2999991">Your Services</tspan>
            </text>
        </g>
        <g id="Group-5" transform="translate(804.299986, 585.599990)">
            <g transform="translate(28.000000, 0.000000)" fill="#FAFAFA" id="Path" stroke="#F5A623" stroke-linecap="round" stroke-width="2.79999995">
                <path d="M0.349999636,0 C27.8055547,0 68.9888874,0 123.899998,0 C126.992792,0 129.499997,2.50720536 129.499997,5.5999999 L129.499997,79.0999987"></path>
            </g>
            <rect id="Rectangle" stroke="#F5A623" stroke-width="2.79999995" fill="#FAFAFA" x="0" y="6.99999988" width="150.499997" height="84.6999986" rx="5.5999999"></rect>
            <text id="Elasticsearch-&amp;-Kiba" font-family="GothamPro-Black, Gotham Pro" font-size="14.6999997" font-weight="700" line-spacing="18.8999997" fill="#353B50">
                <tspan x="26.1418496" y="41.7999995">Elasticsearch</tspan>
                <tspan x="42.4294493" y="60.6999992">&amp; Kibana</tspan>
            </text>
        </g>
        <g id="Group-5" transform="translate(804.299986, 764.099987)">
            <rect id="Rectangle" stroke="#9013FE" stroke-width="2.79999995" fill="#FAFAFA" x="0" y="0" width="150.499997" height="84.6999986" rx="5.5999999"></rect>
            <text id="Prometheus" font-family="GothamPro-Black, Gotham Pro" font-size="14.6999997" font-weight="700" fill="#353B50">
                <tspan x="30.3901495" y="47.3999994">Prometheus</tspan>
            </text>
        </g>
        <g id="pod" transform="translate(780.499987, 404.299993)">
            <polygon id="path824" fill="#EA4A35" points="0 29.7113703 4.64462575 9.15046691 23.449986 0 42.2553735 9.15046691 46.8999992 29.7113703 33.8861271 46.1999992 13.0138721 46.1999992"></polygon>
            <polygon id="path910" fill="#EEEEEE" points="13.9999998 16.799997 23.8000131 13.9999998 33.5999994 16.799997 23.8000131 19.5999997"></polygon>
            <polygon id="path912" fill="#EEEEEE" points="13.9999998 18.1999997 13.9999998 28.570095 23.0551748 33.5999994 23.0999996 20.9140205"></polygon>
            <polygon id="path914" fill="#EEEEEE" points="32.8999994 18.1999997 32.8999994 28.570095 23.8448244 33.5999994 23.7999996 20.9140205"></polygon>
            <polygon id="path916" fill-opacity="0" fill="#000000" points="9.09999985 34.2999994 38.4999993 34.2999994 38.4999993 46.1999992 9.09999985 46.1999992"></polygon>
        </g>
        <g id="pod" transform="translate(780.499987, 226.499996)">
            <polygon id="path824" fill="#00A984" points="0 29.7113703 4.64462575 9.15046691 23.449986 0 42.2553735 9.15046691 46.8999992 29.7113703 33.8861271 46.1999992 13.0138721 46.1999992"></polygon>
            <polygon id="path910" fill="#EEEEEE" points="13.9999998 16.799997 23.8000131 13.9999998 33.5999994 16.799997 23.8000131 19.5999997"></polygon>
            <polygon id="path912" fill="#EEEEEE" points="13.9999998 18.1999997 13.9999998 28.570095 23.0551748 33.5999994 23.0999996 20.9140205"></polygon>
            <polygon id="path914" fill="#EEEEEE" points="32.8999994 18.1999997 32.8999994 28.570095 23.8448244 33.5999994 23.7999996 20.9140205"></polygon>
            <polygon id="path916" fill-opacity="0" fill="#000000" points="9.09999985 34.2999994 38.4999993 34.2999994 38.4999993 46.1999992 9.09999985 46.1999992"></polygon>
        </g>
        <g id="pod" transform="translate(780.499987, 568.799990)">
            <polygon id="path824" fill="#F5A623" points="0 29.7113703 4.64462575 9.15046691 23.449986 0 42.2553735 9.15046691 46.8999992 29.7113703 33.8861271 46.1999992 13.0138721 46.1999992"></polygon>
            <polygon id="path910" fill="#EEEEEE" points="13.9999998 16.799997 23.8000131 13.9999998 33.5999994 16.799997 23.8000131 19.5999997"></polygon>
            <polygon id="path912" fill="#EEEEEE" points="13.9999998 18.1999997 13.9999998 28.570095 23.0551748 33.5999994 23.0999996 20.9140205"></polygon>
            <polygon id="path914" fill="#EEEEEE" points="32.8999994 18.1999997 32.8999994 28.570095 23.8448244 33.5999994 23.7999996 20.9140205"></polygon>
            <polygon id="path916" fill-opacity="0" fill="#000000" points="9.09999985 34.2999994 38.4999993 34.2999994 38.4999993 46.1999992 9.09999985 46.1999992"></polygon>
        </g>
        <g id="Group-5" transform="translate(1100.399981, 592.599990)">
            <rect id="Rectangle" stroke="#353B50" stroke-width="2.79999995" fill="#FAFAFA" x="0" y="0" width="150.499997" height="84.6999986" rx="5.5999999"></rect>
            <text id="Backup-Manager" font-family="GothamPro-Black, Gotham Pro" font-size="14.6999997" font-weight="700" fill="#353B50">
                <tspan x="13.2572998" y="47.3999994">Backup Manager</tspan>
            </text>
        </g>
        <g id="pod" transform="translate(1083.599982, 568.799990)">
            <polygon id="path824" fill="#353B50" points="0 29.7113703 4.64462575 9.15046691 23.449986 0 42.2553735 9.15046691 46.8999992 29.7113703 33.8861271 46.1999992 13.0138721 46.1999992"></polygon>
            <polygon id="path910" fill="#EEEEEE" points="13.9999998 16.799997 23.8000131 13.9999998 33.5999994 16.799997 23.8000131 19.5999997"></polygon>
            <polygon id="path912" fill="#EEEEEE" points="13.9999998 18.1999997 13.9999998 28.570095 23.0551748 33.5999994 23.0999996 20.9140205"></polygon>
            <polygon id="path914" fill="#EEEEEE" points="32.8999994 18.1999997 32.8999994 28.570095 23.8448244 33.5999994 23.7999996 20.9140205"></polygon>
            <polygon id="path916" fill-opacity="0" fill="#000000" points="9.09999985 34.2999994 38.4999993 34.2999994 38.4999993 46.1999992 9.09999985 46.1999992"></polygon>
        </g>
        <g id="Group-5" transform="translate(524.299991, 590.499990)">
            <rect id="Rectangle" stroke="#F5A623" stroke-width="2.79999995" fill="#FAFAFA" x="0" y="0" width="150.499997" height="84.6999986" rx="5.5999999"></rect>
            <text id="Grafana" font-family="GothamPro-Black, Gotham Pro" font-size="14.6999997" font-weight="700" fill="#353B50">
                <tspan x="45.9647992" y="47.3999994">Grafana</tspan>
            </text>
        </g>
        <g id="pod" transform="translate(501.199992, 567.399990)">
            <polygon id="path824" fill="#F5A623" points="0 29.7113703 4.64462575 9.15046691 23.449986 0 42.2553735 9.15046691 46.8999992 29.7113703 33.8861271 46.1999992 13.0138721 46.1999992"></polygon>
            <polygon id="path910" fill="#EEEEEE" points="13.9999998 16.799997 23.8000131 13.9999998 33.5999994 16.799997 23.8000131 19.5999997"></polygon>
            <polygon id="path912" fill="#EEEEEE" points="13.9999998 18.1999997 13.9999998 28.570095 23.0551748 33.5999994 23.0999996 20.9140205"></polygon>
            <polygon id="path914" fill="#EEEEEE" points="32.8999994 18.1999997 32.8999994 28.570095 23.8448244 33.5999994 23.7999996 20.9140205"></polygon>
            <polygon id="path916" fill-opacity="0" fill="#000000" points="9.09999985 34.2999994 38.4999993 34.2999994 38.4999993 46.1999992 9.09999985 46.1999992"></polygon>
        </g>
        <g id="Group-4" transform="translate(309.399995, 764.099987)">
            <rect id="Rectangle" stroke="#353B50" stroke-width="2.79999995" fill="#FAFAFA" x="0" y="0" width="150.499997" height="84.6999986" rx="5.5999999"></rect>
            <text id="SSL-Manager" font-family="GothamPro-Black, Gotham Pro" font-size="14.6999997" font-weight="700" fill="#353B50">
                <tspan x="28.0958995" y="47.3999994">SSL Manager</tspan>
            </text>
        </g>
        <g id="pod" transform="translate(286.299995, 740.999987)">
            <polygon id="path824" fill="#326CE5" points="0 29.7113703 4.64462575 9.15046691 23.449986 0 42.2553735 9.15046691 46.8999992 29.7113703 33.8861271 46.1999992 13.0138721 46.1999992"></polygon>
            <polygon id="path910" fill="#EEEEEE" points="13.9999998 16.799997 23.8000131 13.9999998 33.5999994 16.799997 23.8000131 19.5999997"></polygon>
            <polygon id="path912" fill="#EEEEEE" points="13.9999998 18.1999997 13.9999998 28.570095 23.0551748 33.5999994 23.0999996 20.9140205"></polygon>
            <polygon id="path914" fill="#EEEEEE" points="32.8999994 18.1999997 32.8999994 28.570095 23.8448244 33.5999994 23.7999996 20.9140205"></polygon>
            <polygon id="path916" fill-opacity="0" fill="#000000" points="9.09999985 34.2999994 38.4999993 34.2999994 38.4999993 46.1999992 9.09999985 46.1999992"></polygon>
        </g>
        <g id="pod" transform="translate(1083.599982, 404.299993)">
            <polygon id="path824" fill="#353B50" points="0 29.7113703 4.64462575 9.15046691 23.449986 0 42.2553735 9.15046691 46.8999992 29.7113703 33.8861271 46.1999992 13.0138721 46.1999992"></polygon>
            <polygon id="path910" fill="#EEEEEE" points="13.9999998 16.799997 23.8000131 13.9999998 33.5999994 16.799997 23.8000131 19.5999997"></polygon>
            <polygon id="path912" fill="#EEEEEE" points="13.9999998 18.1999997 13.9999998 28.570095 23.0551748 33.5999994 23.0999996 20.9140205"></polygon>
            <polygon id="path914" fill="#EEEEEE" points="32.8999994 18.1999997 32.8999994 28.570095 23.8448244 33.5999994 23.7999996 20.9140205"></polygon>
            <polygon id="path916" fill-opacity="0" fill="#000000" points="9.09999985 34.2999994 38.4999993 34.2999994 38.4999993 46.1999992 9.09999985 46.1999992"></polygon>
        </g>
        <g id="pod" transform="translate(1080.799982, 226.499996)">
            <polygon id="path824" fill="#353B50" points="0 29.7113703 4.64462575 9.15046691 23.449986 0 42.2553735 9.15046691 46.8999992 29.7113703 33.8861271 46.1999992 13.0138721 46.1999992"></polygon>
            <polygon id="path910" fill="#EEEEEE" points="13.9999998 16.799997 23.8000131 13.9999998 33.5999994 16.799997 23.8000131 19.5999997"></polygon>
            <polygon id="path912" fill="#EEEEEE" points="13.9999998 18.1999997 13.9999998 28.570095 23.0551748 33.5999994 23.0999996 20.9140205"></polygon>
            <polygon id="path914" fill="#EEEEEE" points="32.8999994 18.1999997 32.8999994 28.570095 23.8448244 33.5999994 23.7999996 20.9140205"></polygon>
            <polygon id="path916" fill-opacity="0" fill="#000000" points="9.09999985 34.2999994 38.4999993 34.2999994 38.4999993 46.1999992 9.09999985 46.1999992"></polygon>
        </g>
        <g id="pod" transform="translate(780.499987, 740.999987)">
            <polygon id="path824" fill="#9013FE" points="0 29.7113703 4.64462575 9.15046691 23.449986 0 42.2553735 9.15046691 46.8999992 29.7113703 33.8861271 46.1999992 13.0138721 46.1999992"></polygon>
            <polygon id="path910" fill="#EEEEEE" points="13.9999998 16.799997 23.8000131 13.9999998 33.5999994 16.799997 23.8000131 19.5999997"></polygon>
            <polygon id="path912" fill="#EEEEEE" points="13.9999998 18.1999997 13.9999998 28.570095 23.0551748 33.5999994 23.0999996 20.9140205"></polygon>
            <polygon id="path914" fill="#EEEEEE" points="32.8999994 18.1999997 32.8999994 28.570095 23.8448244 33.5999994 23.7999996 20.9140205"></polygon>
            <polygon id="path916" fill-opacity="0" fill="#000000" points="9.09999985 34.2999994 38.4999993 34.2999994 38.4999993 46.1999992 9.09999985 46.1999992"></polygon>
        </g>
        <g id="Group-8" transform="translate(309.399995, 243.299996)">
            <rect id="Rectangle" stroke="#353B50" stroke-width="2.79999995" fill="#FFFFFF" x="0" y="0" width="150.499997" height="84.6999986" rx="5.5999999"></rect>
            <text id="Ingress" font-family="GothamPro-Black, Gotham Pro" font-size="14.6999997" font-weight="700" fill="#353B50">
                <tspan x="48.4196992" y="47.3999994">Ingress</tspan>
            </text>
        </g>
        <g id="Group-8" transform="translate(45.499999, 243.299996)">
            <rect id="Rectangle" stroke="#353B50" stroke-width="2.79999995" fill="#353B50" x="0" y="0" width="150.499997" height="84.6999986" rx="5.5999999"></rect>
            <text id="Cloud-Load-Balancing" font-family="GothamPro-Black, Gotham Pro" font-size="14.6999997" font-weight="700" line-spacing="18.8999997" fill="#FFFFFF">
                <tspan x="32.4729994" y="34.7999996">Cloud Load</tspan>
                <tspan x="38.3088993" y="53.6999993">Balancing</tspan>
            </text>
        </g>
        <g id="Group-8" transform="translate(949.899984, 40.299999)">
            <rect id="Rectangle" stroke="#353B50" stroke-width="2.79999995" fill="#353B50" x="0" y="0" width="150.499997" height="84.6999986" rx="5.5999999"></rect>
            <text id="File-Storage" font-family="GothamPro-Black, Gotham Pro" font-size="14.6999997" font-weight="700" fill="#FFFFFF">
                <tspan x="30.1990495" y="47.3999994">File Storage</tspan>
            </text>
        </g>
        <g id="Group-8" transform="translate(45.499999, 765.499987)">
            <rect id="Rectangle" stroke="#353B50" stroke-width="2.79999995" fill="#353B50" x="0" y="0" width="150.499997" height="84.6999986" rx="5.5999999"></rect>
            <text id="Cloud-DNS" font-family="GothamPro-Black, Gotham Pro" font-size="14.6999997" font-weight="700" fill="#FFFFFF">
                <tspan x="35.3587494" y="47.3999994">Cloud DNS</tspan>
            </text>
        </g>
        <g id="ing" transform="translate(286.299995, 226.499996)">
            <polygon id="path872" fill="#326CE5" points="0 29.7113703 4.64465022 9.15046691 23.4499996 0 42.2553761 9.15046691 46.8999992 29.7113703 33.8861346 46.1999992 13.0138917 46.1999992"></polygon>
            <path d="M6.99999988,13.2999998 C15.3999862,13.2999998 19.5999929,18.724999 23.7999996,24.1499982 C27.9999793,29.5749974 32.1999859,34.9999994 40.5999993,34.9999994" id="path1340" fill-opacity="0" fill="#000000"></path>
            <path d="M7.69999987,34.9999994 C15.7499997,34.9999994 19.7749997,29.574996 23.7999996,24.1499982 C27.8249995,18.7249976 31.8499995,13.2999998 39.8999993,13.2999998" id="path1350" fill-opacity="0" fill="#000000"></path>
            <polygon id="path1358" fill-opacity="0" fill="#000000" points="9.09999985 34.2999994 38.4999993 34.2999994 38.4999993 46.1999992 9.09999985 46.1999992"></polygon>
            <path d="M31.3393943,34.1692008 L25.1088252,34.1692008 L11.6063777,17.4386135 L7.69999987,17.4386135 L7.69999987,11.9624368 L14.0513828,11.9624368 L27.55962,28.6930023 L31.3393943,28.6930023 L31.3393943,24.3622093 L39.8999993,31.4282492 L31.3393943,38.4999993 L31.3393943,34.1692008 Z M24.5450639,21.2451696 L27.55962,17.5069969 L31.3393943,17.5069969 L31.3393943,21.83779 L39.8999993,14.77175 L31.3393943,7.69999987 L31.3393943,12.0308174 L25.1088252,12.0308174 L21.1104445,16.9884402 L24.5450639,21.2451696 Z M14.6727385,24.9548513 L11.6063777,28.7613857 L7.69999987,28.7613857 L7.69999987,34.2375842 L14.0513828,34.2375842 L18.1073305,29.2115591 L14.6727385,24.9548513 Z" id="path7709" fill="#EEEEEE" fill-rule="nonzero"></path>
        </g>
        <g id="Cloud-Storage" transform="translate(911.399985, 6.000000)" fill-rule="nonzero">
            <path d="M76.0753533,30.7844209 L60.2547078,3.50663299 C59.044134,1.37831785 56.7876615,0.044258995 54.3234696,0 L22.6761632,0 C20.2116248,0.043054526 17.9545945,1.37744314 16.744925,3.50663299 L0.918264041,30.712857 C-0.306088014,32.8250339 -0.306088014,35.4231089 0.918264041,37.5352858 L16.7389095,64.9681289 C17.9361798,67.1267005 20.1872055,68.5050691 22.6701477,68.5999988 L54.3174541,68.5999988 C56.8002647,68.5155087 59.0553323,67.1428594 60.2547078,64.9860199 L76.0753533,37.708232 C77.3082138,35.5621153 77.3082138,32.9305376 76.0753533,30.7844209 Z" id="Path" fill="#353B50"></path>
            <path d="M50.9867165,25.8999996 L29.3803381,27.904101 L25.1999996,32.1169269 L28.7831469,35.7279205 L25.2298591,41.9990127 L51.6257112,68.5999988 L53.8592063,68.5999988 C56.3240452,68.5147343 58.5627898,67.1295037 59.7534837,64.9528953 L70.6999996,45.7664827 L50.9867165,25.8999996 Z" id="Path" fill="#000000" opacity="0.0700000003"></path>
            <g id="art" transform="translate(25.200000, 25.900000)" fill="#FFFFFF">
                <g id="Group">
                    <path d="M26.4934086,0.161999997 L0.781772714,0.161999997 C0.577823455,0.155524311 0.379809388,0.228951803 0.232627039,0.365633964 C0.0854446893,0.502316125 0.00156271049,0.690673832 0,0.887999985 L0,6.0299999 C0,6.43095862 0.336122218,6.75599988 0.750749987,6.75599988 L26.4934086,6.75599988 C26.906631,6.75273768 27.2407852,6.42959957 27.2441586,6.0299999 L27.2441586,0.887999985 C27.2407852,0.488400311 26.906631,0.165262198 26.4934086,0.161999997 M22.5162951,4.96199992 C21.6664795,4.96199992 20.9775678,4.29579963 20.9775678,3.47399994 C20.9775678,2.65220025 21.6664795,1.98599997 22.5162951,1.98599997 C23.3661107,1.98599997 24.0550223,2.65220025 24.0550223,3.47399994 C24.0550223,4.29579963 23.3661107,4.96199992 22.5162951,4.96199992" id="Shape"></path>
                    <path d="M26.4934086,10.0439998 L0.781772714,10.0439998 C0.572370139,10.0372442 0.369438318,10.1147224 0.22128596,10.2579906 C0.0731336025,10.4012589 -0.00698597663,10.5975006 -8.53424319e-15,10.7999998 L-8.53424319e-15,15.9419997 C0.00337341215,16.3415994 0.337527597,16.6647375 0.750749987,16.6679997 L26.4934086,16.6679997 C26.906631,16.6647375 27.2407852,16.3415994 27.2441586,15.9419997 L27.2441586,10.7699998 C27.2407852,10.3704001 26.906631,10.047262 26.4934086,10.0439998 M22.5162951,14.8439997 C21.6664795,14.8439997 20.9775678,14.1777995 20.9775678,13.3559998 C20.9775678,12.5342001 21.6664795,11.8679998 22.5162951,11.8679998 C23.3661107,11.8679998 24.0550223,12.5342001 24.0550223,13.3559998 C24.0550223,14.1777995 23.3661107,14.8439997 22.5162951,14.8439997" id="Shape"></path>
                </g>
            </g>
        </g>
        <g id="Cloud-Load-Balancing" transform="translate(7.000000, 207.599997)" fill-rule="nonzero">
            <path d="M76.0753533,30.7844209 L60.2547078,3.50663299 C59.044134,1.37831785 56.7876615,0.044258995 54.3234696,0 L22.6761632,0 C20.2116248,0.043054526 17.9545945,1.37744314 16.744925,3.50663299 L0.918264041,30.712857 C-0.306088014,32.8250339 -0.306088014,35.4231089 0.918264041,37.5352858 L16.7389095,64.9681289 C17.9361798,67.1267005 20.1872055,68.5050691 22.6701477,68.5999988 L54.3174541,68.5999988 C56.8002647,68.5155087 59.0553323,67.1428594 60.2547078,64.9860199 L76.0753533,37.708232 C77.3082138,35.5621153 77.3082138,32.9305376 76.0753533,30.7844209 Z" id="Path" fill="#353B50"></path>
            <path d="M47.7786332,21.6999996 L32.7614705,26.3644814 L29.290017,28.340655 L34.2977227,33.3374662 L27.4500871,33.7350747 L27.5989487,40.1620897 L23.7999996,44.9689983 L47.5106822,68.5999988 L54.1260936,68.5999988 C56.5837317,68.5159224 58.815936,67.1499956 60.0031513,65.003719 L71.3999988,45.2479177 L47.7786332,21.6999996 Z" id="Path" fill="#000000" opacity="0.0700000003"></path>
            <rect id="Rectangle" fill="#FFFFFF" x="37.7999994" y="27.2999995" width="2.09999996" height="13.2999998"></rect>
            <path d="M27.7882495,32.8999994 L29.3999995,32.8999994 L29.3999995,41.2999993 L27.2999995,41.2999993 L27.2999995,33.5009225 C27.2999995,33.1690419 27.5185965,32.8999994 27.7882495,32.8999994 Z" id="Path" fill="#FFFFFF"></path>
            <path d="M47.5999992,32.8999994 L49.2117492,32.8999994 C49.4814022,32.8999994 49.6999992,33.1690419 49.6999992,33.5009225 L49.6999992,33.5009225 L49.6999992,41.2999993 L47.5999992,41.2999993 L47.5999992,32.8999994 Z" id="Path" fill="#FFFFFF"></path>
            <path d="M27.8949995,32.1999995 L50.5049991,32.1999995 C50.8336086,32.1999995 51.0999991,32.43505 51.0999991,32.7249994 L51.0999991,34.2999994 L27.2999995,34.2999994 L27.2999995,32.7249994 C27.2999995,32.43505 27.5663901,32.1999995 27.8949995,32.1999995 Z" id="Path" fill="#FFFFFF"></path>
            <rect id="Rectangle" fill="#FFFFFF" x="29.3999995" y="20.9999996" width="18.8999997" height="6.99999988" rx="0.678999988"></rect>
            <rect id="Rectangle" fill="#FFFFFF" x="23.0999996" y="39.1999993" width="8.39999986" height="6.29999989" rx="0.685999988"></rect>
            <rect id="Rectangle" fill="#FFFFFF" x="45.4999992" y="39.1999993" width="8.39999986" height="6.29999989" rx="0.685999988"></rect>
            <rect id="Rectangle" fill="#FFFFFF" x="34.2999994" y="39.1999993" width="8.39999986" height="6.29999989" rx="0.706999988"></rect>
        </g>
        <g id="Cloud-DNS" transform="translate(7.000000, 729.799988)" fill-rule="nonzero">
            <path d="M76.0753533,30.7844209 L60.2547078,3.50663299 C59.044134,1.37831785 56.7876615,0.044258995 54.3234696,0 L22.6761632,0 C20.2116248,0.043054526 17.9545945,1.37744314 16.744925,3.50663299 L0.918264041,30.712857 C-0.306088014,32.8250339 -0.306088014,35.4231089 0.918264041,37.5352858 L16.7389095,64.9681289 C17.9361798,67.1267005 20.1872055,68.5050691 22.6701477,68.5999988 L54.3174541,68.5999988 C56.8002647,68.5155087 59.0553323,67.1428594 60.2547078,64.9860199 L76.0753533,37.708232 C77.3082138,35.5621153 77.3082138,32.9305376 76.0753533,30.7844209 Z" id="Path" fill="#353B50"></path>
            <path d="M51.4915654,21.6206101 L47.3725293,18.9813186 L38.8610435,10.4999998 L36.7688347,18.9220087 L38.8669873,26.3594728 L44.4303607,31.9108814 L43.3069872,33.019977 L41.7853808,31.531298 L40.1627302,33.4885254 L28.0671481,21.4189564 L24.7624092,24.692864 L31.8176701,31.7329517 L29.6363047,33.4292154 L24.2869072,28.0913225 L20.9999996,31.3889541 L38.5519672,48.885381 L38.0229712,49.4784802 L24.2869072,35.7778883 L21.0059434,39.063658 L28.2632927,46.3053994 L26.3137345,47.0467734 L47.9371879,68.5999988 L54.1840955,68.5999988 C56.6373211,68.5159715 58.8655175,67.1508417 60.0506014,65.0058176 L72.7999988,42.8832169 L51.4915654,21.6206101 Z" id="Path" fill="#000000" opacity="0.0700000003"></path>
            <path d="M23.7999996,43.263205 C28.3291005,50.5756508 37.5532518,53.6800118 45.7245751,50.6418563 C53.8958984,47.6037008 58.6814267,39.2904423 57.0991368,30.8823515 C55.5168469,22.4742606 48.0184929,16.3719028 39.276551,16.3778623 L39.276551,10.4999998 L31.1506102,18.1294653 L31.1506102,18.1294653 L39.276551,26.217404 L39.276551,20.3395415 C46.0681456,20.3386565 51.892782,25.0785181 53.1263523,31.609969 C54.3599226,38.1414199 50.6509313,44.6033774 44.3071248,46.9751906 C37.9633183,49.3470037 30.7923117,46.952844 27.2559285,41.2823654 L23.7999996,43.263205 Z" id="Path" fill="#FFFFFF"></path>
            <path d="M29.3999995,38.4999561 L29.3999995,31.5003991 L31.9857507,31.5003991 C32.6546305,31.4913558 33.3144337,31.635934 33.898679,31.919566 C34.4592707,32.1985636 34.9169003,32.6108678 35.2179398,33.1081624 C35.5414188,33.6382728 35.7069805,34.2305457 35.69947,34.830766 L35.69947,35.1523186 C35.7104832,35.7515006 35.5495048,36.3435989 35.2311324,36.8749222 C34.9294983,37.3718419 34.4720124,37.7840167 33.9118716,38.0635187 C33.3387313,38.3523006 32.6875472,38.5029317 32.0253286,38.4999561 L29.3999995,38.4999561 Z M31.3393129,32.8095778 L31.3393129,37.242411 L31.9989434,37.242411 C32.4976131,37.2657788 32.977085,37.0721512 33.2786264,36.7256299 C33.6128356,36.2695699 33.7700631,35.7321743 33.7271751,35.1925127 L33.7271751,34.8881861 C33.7700416,34.350335 33.61276,33.8147678 33.2786264,33.3608109 C32.9660736,33.0070659 32.4707987,32.8130567 31.9593655,32.8440299 L31.3393129,32.8095778 Z" id="Shape" fill="#FFFFFF"></path>
            <polygon id="Path" fill="#FFFFFF" points="41.9938107 38.4999993 40.186738 38.4999993 37.5132607 34.1472513 37.5132607 38.4999993 35.6999994 38.4999993 35.6999994 31.4999995 37.5194493 31.4999995 40.186738 35.8527475 40.186738 31.4999995 41.9999993 31.4999995"></polygon>
            <path d="M47.0448071,36.5987605 C47.0562385,36.3822474 46.9449213,36.1743801 46.7460875,36.040949 C46.4270751,35.8574254 46.0764516,35.7181309 45.7070629,35.6281685 C45.2920533,35.5116949 44.8863941,35.3719414 44.4927029,35.2098099 C43.4666661,34.7784358 42.9536476,34.1852962 42.9536476,33.4303914 C42.9463551,33.0699388 43.0814053,32.7179912 43.336788,32.4319089 C43.6202539,32.1278277 43.99534,31.8963136 44.4212699,31.7625352 C44.9309743,31.586305 45.4758307,31.4972487 46.0252642,31.5003638 C46.5498711,31.4935298 47.0701391,31.5829094 47.5513316,31.7625352 C47.9844917,31.9156397 48.3566818,32.1733394 48.6228257,32.5044244 C48.8779978,32.8345589 49.0094326,33.2238674 48.9994722,33.6200473 L47.051301,33.6200473 C47.066579,33.3788641 46.9572858,33.1441634 46.7525814,32.9785641 C46.5295893,32.818296 46.2441731,32.736574 45.9538312,32.7498614 C45.6676934,32.7368575 45.3845809,32.805499 45.1485872,32.9450955 C44.9483138,33.0448873 44.8250426,33.2287234 44.8250426,33.4276024 C44.8250426,33.6264813 44.9483138,33.8103174 45.1485872,33.9101093 C45.5011137,34.106297 45.8865647,34.2549129 46.2915142,34.3507803 C46.7579427,34.472139 47.2084383,34.6347766 47.6357523,34.8360763 C48.4264123,35.1552098 48.9321208,35.8372053 48.9345331,36.5876042 C48.9576361,37.1358095 48.666478,37.6589314 48.1552647,37.987711 C47.5247294,38.3535683 46.771996,38.5318678 46.0122764,38.4953194 C45.4144116,38.5029423 44.8213928,38.4022048 44.2719101,38.1996793 C43.7948639,38.0341876 43.3857739,37.7507388 43.0965135,37.3852746 C42.8296405,37.031963 42.6917023,36.6182342 42.7003854,36.1971362 L44.6095931,36.1971362 C44.581829,36.4931759 44.7022937,36.7853447 44.9407822,37.0003847 C45.2470497,37.195361 45.6261437,37.2866971 46.0057825,37.256978 C46.269906,37.2699803 46.5318508,37.2093269 46.7525814,37.0840564 C46.9418658,36.9771472 47.0526101,36.7932353 47.0448071,36.5987605 Z" id="Path" fill="#FFFFFF"></path>
            <circle id="Oval" fill="#FFFFFF" cx="23.0999996" cy="29.3999995" r="2.09999996"></circle>
            <circle id="Oval" fill="#FFFFFF" cx="25.8999996" cy="23.0999996" r="2.09999996"></circle>
            <circle id="Oval" fill="#FFFFFF" cx="23.0999996" cy="37.0999994" r="2.09999996"></circle>
        </g>
        <g id="vol" transform="translate(993.999983, 609.399990)">
            <polygon id="path870" fill-opacity="0.6" fill="#353B50" points="0 29.261198 4.64465022 9.01182347 23.4499996 0 42.2553761 9.01182347 46.8999992 29.261198 33.8861346 45.4999992 13.0138917 45.4999992"></polygon>
            <path d="M10.4999998,19.5999997 L10.4999998,19.5999997 C10.4999998,21.2694277 16.1412119,22.6227664 23.0999996,22.6227664 C30.0587873,22.6227664 35.6999994,21.2694277 35.6999994,19.5999997 L35.6999994,27.7772354 C35.6999994,29.4466608 30.0587873,30.7999995 23.0999996,30.7999995 C16.1412119,30.7999995 10.4999998,29.4466608 10.4999998,27.7772354 L10.4999998,19.5999997 Z" id="path1142" fill="#EEEEEE"></path>
            <path d="M10.4999998,19.9499969 L10.4999998,19.9499969 C10.4999998,18.2103039 16.1412119,16.7999997 23.0999996,16.7999997 C30.0587873,16.7999997 35.6999994,18.2103039 35.6999994,19.9499969 L35.6999994,19.9499969 C35.6999994,21.6896954 30.0587873,23.0999996 23.0999996,23.0999996 C16.1412119,23.0999996 10.4999998,21.6896954 10.4999998,19.9499969 Z" id="path1144" fill="#F4F4F4"></path>
            <path d="M35.6999994,19.9241885 L35.6999994,19.9241885 C35.6999994,21.6496335 30.0587873,23.0483829 23.0999996,23.0483829 C16.1412119,23.0483829 10.4999998,21.6496335 10.4999998,19.9241885 L10.4999998,19.9241885 C10.4999998,18.1987491 16.1412119,16.7999997 23.0999996,16.7999997 C30.0587873,16.7999997 35.6999994,18.1987491 35.6999994,19.9241885 L35.6999994,28.3758079 C35.6999994,30.1012501 30.0587873,31.4999995 23.0999996,31.4999995 C16.1412119,31.4999995 10.4999998,30.1012501 10.4999998,28.3758079 L10.4999998,19.9241885" id="path1146" fill-opacity="0" fill="#000000"></path>
            <path d="M35.6999994,19.9241885 L35.6999994,19.9241885 C35.6999994,21.6496335 30.0587873,23.0483829 23.0999996,23.0483829 C16.1412119,23.0483829 10.4999998,21.6496335 10.4999998,19.9241885 L10.4999998,19.9241885 C10.4999998,18.1987491 16.1412119,16.7999997 23.0999996,16.7999997 C30.0587873,16.7999997 35.6999994,18.1987491 35.6999994,19.9241885 L35.6999994,28.3758079 C35.6999994,30.1012501 30.0587873,31.4999995 23.0999996,31.4999995 C16.1412119,31.4999995 10.4999998,30.1012501 10.4999998,28.3758079 L10.4999998,19.9241885" id="path1148" stroke="#326CE5" stroke-width="0.5" stroke-linejoin="round"></path>
            <polygon id="path1150" fill-opacity="0" fill="#000000" points="9.09999985 34.2999994 38.4999993 34.2999994 38.4999993 46.1999992 9.09999985 46.1999992"></polygon>
        </g>
        <g id="vol" transform="translate(993.999983, 785.099987)">
            <polygon id="path870" fill-opacity="0.6" fill="#353B50" points="0 29.261198 4.64465022 9.01182347 23.4499996 0 42.2553761 9.01182347 46.8999992 29.261198 33.8861346 45.4999992 13.0138917 45.4999992"></polygon>
            <path d="M10.4999998,19.5999997 L10.4999998,19.5999997 C10.4999998,21.2694277 16.1412119,22.6227664 23.0999996,22.6227664 C30.0587873,22.6227664 35.6999994,21.2694277 35.6999994,19.5999997 L35.6999994,27.7772354 C35.6999994,29.4466608 30.0587873,30.7999995 23.0999996,30.7999995 C16.1412119,30.7999995 10.4999998,29.4466608 10.4999998,27.7772354 L10.4999998,19.5999997 Z" id="path1142" fill="#EEEEEE"></path>
            <path d="M10.4999998,19.9499969 L10.4999998,19.9499969 C10.4999998,18.2103039 16.1412119,16.7999997 23.0999996,16.7999997 C30.0587873,16.7999997 35.6999994,18.2103039 35.6999994,19.9499969 L35.6999994,19.9499969 C35.6999994,21.6896954 30.0587873,23.0999996 23.0999996,23.0999996 C16.1412119,23.0999996 10.4999998,21.6896954 10.4999998,19.9499969 Z" id="path1144" fill="#F4F4F4"></path>
            <path d="M35.6999994,19.9241885 L35.6999994,19.9241885 C35.6999994,21.6496335 30.0587873,23.0483829 23.0999996,23.0483829 C16.1412119,23.0483829 10.4999998,21.6496335 10.4999998,19.9241885 L10.4999998,19.9241885 C10.4999998,18.1987491 16.1412119,16.7999997 23.0999996,16.7999997 C30.0587873,16.7999997 35.6999994,18.1987491 35.6999994,19.9241885 L35.6999994,28.3758079 C35.6999994,30.1012501 30.0587873,31.4999995 23.0999996,31.4999995 C16.1412119,31.4999995 10.4999998,30.1012501 10.4999998,28.3758079 L10.4999998,19.9241885" id="path1146" fill-opacity="0" fill="#000000"></path>
            <path d="M35.6999994,19.9241885 L35.6999994,19.9241885 C35.6999994,21.6496335 30.0587873,23.0483829 23.0999996,23.0483829 C16.1412119,23.0483829 10.4999998,21.6496335 10.4999998,19.9241885 L10.4999998,19.9241885 C10.4999998,18.1987491 16.1412119,16.7999997 23.0999996,16.7999997 C30.0587873,16.7999997 35.6999994,18.1987491 35.6999994,19.9241885 L35.6999994,28.3758079 C35.6999994,30.1012501 30.0587873,31.4999995 23.0999996,31.4999995 C16.1412119,31.4999995 10.4999998,30.1012501 10.4999998,28.3758079 L10.4999998,19.9241885" id="path1148" stroke="#326CE5" stroke-width="0.5" stroke-linejoin="round"></path>
            <polygon id="path1150" fill-opacity="0" fill="#000000" points="9.09999985 34.2999994 38.4999993 34.2999994 38.4999993 46.1999992 9.09999985 46.1999992"></polygon>
        </g>
        <path id="Path-2" d="M1025.49998,136.201775 L1026.11592,137.342394 L1031.51592,147.342394 L1030.28405,148.007602 L1026.199,140.442 L1026.19998,376.550182 L1025.91157,376.759833 L977.432468,411.999268 L971.646,416.205 L980.165175,415.061905 L980.351408,416.449463 L969.08755,417.961256 L967.802774,418.133694 L968.363244,416.964823 L973.276979,406.717131 L974.539359,407.322438 L970.823,415.072 L976.609304,410.866837 L1024.799,375.837 L1024.799,140.445 L1020.71592,148.007602 L1019.48405,147.342394 L1024.88405,137.342394 L1025.49998,136.201775 Z" fill="#353B50" fill-rule="nonzero"></path>
        <path id="Path" d="M879.186361,519.801813 L879.809688,520.938408 L885.274508,530.903133 L884.046986,531.576326 L879.913,524.039 L879.960795,531.262438 L880.24997,575.795445 L878.85,575.804536 L878.560825,531.271529 L878.513,524.05 L874.479055,531.638455 L873.242894,530.98126 L878.577846,520.946407 L879.186361,519.801813 Z" fill="#353B50" fill-rule="nonzero"></path>
        <path id="Path-4" d="M599.899987,688.497926 L600.248,806.799 L787.454,806.799 L779.892382,802.715922 L780.557591,801.484055 L790.557591,806.884055 L791.698209,807.499988 L790.557591,808.115922 L780.557591,813.515922 L779.892382,812.284055 L787.457,808.199 L598.852694,808.199988 L598.850638,807.502051 L598.499993,688.502051 L599.899987,688.497926 Z" fill="#353B50" fill-rule="nonzero"></path>
        <path id="Path-5" d="M214.866194,801.519982 L215.526509,802.75448 L207.948,806.808 L215.172879,806.837175 L294.002773,807.149992 L293.997217,808.549981 L215.167324,808.237164 L207.941,808.208 L215.48854,812.322537 L214.818449,813.551755 L204.839956,808.112115 L203.701791,807.49166 L204.844844,806.880257 L214.866194,801.519982 Z" fill="#353B50" fill-rule="nonzero"></path>
        <path id="Path-5" d="M214.866194,279.319991 L215.526509,280.554489 L207.946,284.608 L215.172879,284.637184 L294.002773,284.950001 L293.997217,286.34999 L215.167324,286.037173 L207.941,286.008 L215.48854,290.122546 L214.818449,291.351764 L204.839956,285.912124 L203.701791,285.291669 L204.844844,284.680266 L214.866194,279.319991 Z" fill="#353B50" fill-rule="nonzero"></path>
        <path id="Path-7" d="M412.299993,344.101772 L412.915927,345.24239 L418.315927,355.24239 L417.084059,355.907598 L412.999,348.342 L412.999,633.199 L508.154,633.199 L500.592389,629.115923 L501.257597,627.884056 L511.257597,633.284056 L512.398215,633.899989 L511.257597,634.515923 L501.257597,639.915923 L500.592389,638.684055 L508.157,634.599 L411.599993,634.599989 L411.599,348.345 L407.515927,355.907598 L406.284059,355.24239 L411.684059,345.24239 L412.299993,344.101772 Z" fill="#353B50" fill-rule="nonzero"></path>
        <path id="Path-8" d="M469.479078,332.967638 L470.751339,333.216103 L481.905481,335.394434 L481.637139,336.768476 L473.201,335.121 L478.728915,339.664674 L630.599,464.499 L787.456,464.499 L779.892388,460.415926 L780.557596,459.184058 L790.557596,464.584058 L791.698214,465.199992 L790.557596,465.815926 L780.557596,471.215926 L779.892388,469.984058 L787.456,465.899 L630.099219,465.899992 L629.905494,465.740755 L477.839925,340.746199 L472.311,336.202 L475.561444,344.160031 L474.265331,344.689268 L469.969112,334.167743 L469.479078,332.967638 Z" fill="#353B50" fill-rule="nonzero"></path>
        <text id="kubernetes-cluster-/" font-family="GothamPro-Bold, Gotham Pro" font-size="18.8999997" font-weight="bold" fill="#353B50">
            <tspan x="924.408992" y="938.399984">KUBERNETES CLUSTER / PROD NAMESPACE</tspan>
        </text>
        <text id="Volume" font-family="GothamPro-Bold, Gotham Pro" font-size="12.5999998" font-weight="bold" fill="#353B50">
            <tspan x="992.867383" y="848.699986">Volume</tspan>
        </text>
        <text id="Volume" font-family="GothamPro-Bold, Gotham Pro" font-size="12.5999998" font-weight="bold" fill="#353B50">
            <tspan x="991.467383" y="672.999989">Volume</tspan>
        </text>
        <path id="Path" d="M1074.90759,457.084059 L1084.90759,462.484058 L1086.0482,463.099992 L1084.90759,463.715926 L1074.90759,469.115926 L1074.24238,467.884058 L1081.807,463.799 L971.992,463.799 L979.557588,467.884058 L978.892379,469.115926 L968.892379,463.715926 L967.751761,463.099992 L968.892379,462.484058 L978.892379,457.084059 L979.557588,458.315926 L971.995,462.399 L1081.804,462.399 L1074.24238,458.315926 L1074.90759,457.084059 Z" fill="#353B50" fill-rule="nonzero"></path>
        <path id="Path" d="M879.549985,344.101772 L880.165919,345.24239 L885.565919,355.24239 L884.334051,355.907598 L880.249,348.342 L880.249,404.257 L884.334051,396.692389 L885.565919,397.357597 L880.165919,407.357597 L879.549985,408.498216 L878.934051,407.357597 L873.534051,397.357597 L874.765919,396.692389 L878.849,404.254 L878.849,348.345 L874.765919,355.907598 L873.534051,355.24239 L878.934051,345.24239 L879.549985,344.101772 Z" fill="#353B50" fill-rule="nonzero"></path>
        <path id="Path" d="M979.46528,628.584056 L989.46528,633.984056 L990.605898,634.599989 L989.46528,635.215923 L979.46528,640.615923 L978.800071,639.384055 L986.365,635.299 L969.499984,635.299989 L969.499984,633.899989 L986.362,633.899 L978.800071,629.815923 L979.46528,628.584056 Z" fill="#353B50" fill-rule="nonzero"></path>
        <path id="Path" d="M979.46528,802.184053 L989.46528,807.584053 L990.605898,808.199986 L989.46528,808.81592 L979.46528,814.21592 L978.800071,812.984053 L986.365,808.899 L969.499984,808.899986 L969.499984,807.499986 L986.362,807.499 L978.800071,803.41592 L979.46528,802.184053 Z" fill="#353B50" fill-rule="nonzero"></path>
        <path id="Path" d="M780.907591,625.784056 L790.907591,631.184056 L792.048209,631.799989 L790.907591,632.415923 L780.907591,637.815923 L780.242382,636.584056 L787.807,632.499 L689.849988,632.499989 L689.849988,631.099989 L787.804,631.099 L780.242382,627.015923 L780.907591,625.784056 Z" fill="#353B50" fill-rule="nonzero"></path>
        <path id="Path-6" d="M358.049994,344.101772 L358.665928,345.24239 L364.065928,355.24239 L362.83406,355.907598 L358.749,348.342 L358.749,748.657 L362.83406,741.092383 L364.065928,741.757592 L358.665928,751.757592 L358.049994,752.89821 L357.43406,751.757592 L352.03406,741.757592 L353.265928,741.092383 L357.349,748.654 L357.349,348.345 L353.265928,355.907598 L352.03406,355.24239 L357.43406,345.24239 L358.049994,344.101772 Z" fill="#353B50" fill-rule="nonzero"></path>
        <path id="Path-9" d="M780.557596,281.034061 L790.557596,286.434061 L791.698214,287.049995 L790.557596,287.665929 L780.557596,293.065929 L779.892388,291.834061 L787.457,287.749 L473.243,287.749 L480.807596,291.834061 L480.142388,293.065929 L470.142388,287.665929 L469.00177,287.049995 L470.142388,286.434061 L480.142388,281.034061 L480.807596,282.265929 L473.243,286.349 L787.454,286.349 L779.892388,282.265929 L780.557596,281.034061 Z" fill="#353B50" fill-rule="nonzero"></path>
        <g id="Group-8" transform="translate(1479.099975, 243.299996)">
            <rect id="Rectangle" stroke="#353B50" stroke-width="2.79999995" fill="#353B50" x="0" y="0" width="150.499997" height="84.6999986" rx="5.5999999"></rect>
            <text id="Container-Registry" font-family="GothamPro-Black, Gotham Pro" font-size="14.6999997" font-weight="700" line-spacing="18.8999997" fill="#FFFFFF">
                <tspan x="38.7250493" y="34.7999996">Container </tspan>
                <tspan x="44.0023493" y="53.6999993">Registry</tspan>
            </text>
        </g>
        <g id="Group-8" transform="translate(1479.099975, 765.499987)">
            <rect id="Rectangle" stroke="#353B50" stroke-width="2.79999995" fill="#353B50" x="0" y="0" width="150.499997" height="84.6999986" rx="5.5999999"></rect>
            <text id="Backups-Wal-logs" font-family="GothamPro-Black, Gotham Pro" font-size="14.6999997" font-weight="700" line-spacing="18.8999997" fill="#FFFFFF">
                <tspan x="43.9214993" y="34.7999996">Backups</tspan>
                <tspan x="42.9733493" y="53.6999993">Wal logs</tspan>
            </text>
        </g>
        <g id="Cloud-Storage" transform="translate(1441.299976, 731.199988)" fill-rule="nonzero">
            <path d="M75.3837592,30.7844209 L59.7069377,3.50663299 C58.5073692,1.37831785 56.2714101,0.044258995 53.8296199,0 L22.4700162,0 C20.0278827,0.043054526 17.7913709,1.37744314 16.5926984,3.50663299 L0.909916186,30.712857 C-0.303305395,32.8250339 -0.303305395,35.4231089 0.909916186,37.5352858 L16.5867376,64.9681289 C17.7731236,67.1267005 20.0036855,68.5050691 22.4640555,68.5999988 L53.8236591,68.5999988 C56.2838986,68.5155087 58.5184657,67.1428594 59.7069377,64.9860199 L75.3837592,37.708232 C76.6054119,35.5621153 76.6054119,32.9305376 75.3837592,30.7844209 Z" id="Path" fill="#353B50"></path>
            <path d="M50.9867165,26.5999995 L29.3803381,28.5712469 L25.1999996,32.71501 L28.7831469,36.266807 L25.2298591,42.4350944 L51.6257112,68.5999995 L53.8592063,68.5999995 C56.3240452,68.516132 58.5627898,67.1536102 59.7534837,65.0126839 L70.6999996,46.1408026 L50.9867165,26.5999995 Z" id="Path" fill="#000000" opacity="0.0700000003"></path>
            <g id="art" transform="translate(25.200000, 25.900000)" fill="#FFFFFF">
                <g id="Group">
                    <path d="M25.8140905,0.161999997 L0.76172726,0.161999997 C0.563007469,0.155524311 0.370070686,0.228951803 0.226662243,0.365633964 C0.0832537998,0.502316125 0.00152264099,0.690673832 0,0.887999985 L0,6.0299999 C0,6.43095862 0.3275037,6.75599988 0.731499988,6.75599988 L25.8140905,6.75599988 C26.2167174,6.75273768 26.5423035,6.42959957 26.5455905,6.0299999 L26.5455905,0.887999985 C26.5423035,0.488400311 26.2167174,0.165262198 25.8140905,0.161999997 M21.9389542,4.96199992 C21.1109287,4.96199992 20.4396815,4.29579963 20.4396815,3.47399994 C20.4396815,2.65220025 21.1109287,1.98599997 21.9389542,1.98599997 C22.7669796,1.98599997 23.4382269,2.65220025 23.4382269,3.47399994 C23.4382269,4.29579963 22.7669796,4.96199992 21.9389542,4.96199992" id="Shape"></path>
                    <path d="M25.8140905,10.0439998 L0.76172726,10.0439998 C0.557693981,10.0372442 0.359965541,10.1147224 0.215611961,10.2579906 C0.0712583819,10.4012589 -0.00680684903,10.5975006 -6.64144304e-15,10.7999998 L-6.64144304e-15,15.9419997 C0.0032869144,16.3415994 0.328873044,16.6647375 0.731499988,16.6679997 L25.8140905,16.6679997 C26.2167174,16.6647375 26.5423035,16.3415994 26.5455905,15.9419997 L26.5455905,10.7699998 C26.5423035,10.3704001 26.2167174,10.047262 25.8140905,10.0439998 M21.9389542,14.8439997 C21.1109287,14.8439997 20.4396815,14.1777995 20.4396815,13.3559998 C20.4396815,12.5342001 21.1109287,11.8679998 21.9389542,11.8679998 C22.7669796,11.8679998 23.4382269,12.5342001 23.4382269,13.3559998 C23.4382269,14.1777995 22.7669796,14.8439997 21.9389542,14.8439997" id="Shape"></path>
                </g>
            </g>
        </g>
        <g id="Container-Registry" transform="translate(1441.299976, 208.999997)" fill-rule="nonzero">
            <path d="M75.3837592,30.7844209 L59.7069377,3.50663299 C58.5073692,1.37831785 56.2714101,0.044258995 53.8296199,0 L22.4700162,0 C20.0278827,0.043054526 17.7913709,1.37744314 16.5926984,3.50663299 L0.909916186,30.712857 C-0.303305395,32.8250339 -0.303305395,35.4231089 0.909916186,37.5352858 L16.5867376,64.9681289 C17.7731236,67.1267005 20.0036855,68.5050691 22.4640555,68.5999988 L53.8236591,68.5999988 C56.2838986,68.5155087 58.5184657,67.1428594 59.7069377,64.9860199 L75.3837592,37.708232 C76.6054119,35.5621153 76.6054119,32.9305376 75.3837592,30.7844209 Z" id="Path" fill="#353B50"></path>
            <path d="M57.3150977,23.0818632 L49.9425636,21.2848582 L48.8037169,22.4529114 L54.4799687,28.1254571 L54.539908,35.9124786 L42.8637322,24.2079863 L33.3393773,24.1900162 L27.3454472,18.1999997 L21.0518206,23.5430944 L18.8999997,45.2389343 L42.276327,68.5999988 L53.8985575,68.5999988 C56.372484,68.5151353 58.6194826,67.1364199 59.8145665,64.9700488 L74.1999987,39.9317797 L57.3150977,23.0818632 Z" id="Path" fill="#000000" opacity="0.0700000003"></path>
            <g id="art" transform="translate(18.900000, 18.200000)" fill="#FFFFFF">
                <g id="Group" transform="translate(7.820312, 3.274209)">
                    <polygon id="Path" points="6.61718739 8.4310874 11.4296873 11.1859762 16.2421872 8.4310874 16.2421872 2.91534675 11.4296873 0.154494947 6.61718739 2.91534675"></polygon>
                    <polygon id="Path" points="13.2343748 19.6831983 18.0468747 22.4440501 22.8593746 19.6831983 22.8593746 14.1674577 18.0468747 11.4125688 13.2343748 14.1674577"></polygon>
                    <polygon id="Path" points="0 19.8322724 4.81249992 22.5931242 9.62499984 19.8322724 9.62499984 14.3165317 4.81249992 11.5616429 0 14.3165317"></polygon>
                </g>
                <polygon id="Path" points="8.42187486 4.43644437 3.60937494 7.19133321 3.60937494 25.0086662 8.42187486 27.7635551 8.42187486 31.9912958 0 27.1672588 0 5.03274066 8.42187486 0.2087037"></polygon>
                <polygon id="Path" points="30.0781245 4.43644437 34.8906244 7.19133321 34.8906244 25.0086662 30.0781245 27.7635551 30.0781245 31.9912958 38.4999993 27.1672588 38.4999993 5.03274066 30.0781245 0.2087037"></polygon>
            </g>
        </g>
        <g id="vol" transform="translate(1292.899978, 439.999993)">
            <polygon id="path870" fill-opacity="0.6" fill="#353B50" points="0 29.261198 4.64465022 9.01182347 23.4499996 0 42.2553761 9.01182347 46.8999992 29.261198 33.8861346 45.4999992 13.0138917 45.4999992"></polygon>
            <path d="M10.4999998,19.5999997 L10.4999998,19.5999997 C10.4999998,21.2694277 16.1412119,22.6227664 23.0999996,22.6227664 C30.0587873,22.6227664 35.6999994,21.2694277 35.6999994,19.5999997 L35.6999994,27.7772354 C35.6999994,29.4466608 30.0587873,30.7999995 23.0999996,30.7999995 C16.1412119,30.7999995 10.4999998,29.4466608 10.4999998,27.7772354 L10.4999998,19.5999997 Z" id="path1142" fill="#EEEEEE"></path>
            <path d="M10.4999998,19.9499969 L10.4999998,19.9499969 C10.4999998,18.2103039 16.1412119,16.7999997 23.0999996,16.7999997 C30.0587873,16.7999997 35.6999994,18.2103039 35.6999994,19.9499969 L35.6999994,19.9499969 C35.6999994,21.6896954 30.0587873,23.0999996 23.0999996,23.0999996 C16.1412119,23.0999996 10.4999998,21.6896954 10.4999998,19.9499969 Z" id="path1144" fill="#F4F4F4"></path>
            <path d="M35.6999994,19.9241885 L35.6999994,19.9241885 C35.6999994,21.6496335 30.0587873,23.0483829 23.0999996,23.0483829 C16.1412119,23.0483829 10.4999998,21.6496335 10.4999998,19.9241885 L10.4999998,19.9241885 C10.4999998,18.1987491 16.1412119,16.7999997 23.0999996,16.7999997 C30.0587873,16.7999997 35.6999994,18.1987491 35.6999994,19.9241885 L35.6999994,28.3758079 C35.6999994,30.1012501 30.0587873,31.4999995 23.0999996,31.4999995 C16.1412119,31.4999995 10.4999998,30.1012501 10.4999998,28.3758079 L10.4999998,19.9241885" id="path1146" fill-opacity="0" fill="#000000"></path>
            <path d="M35.6999994,19.9241885 L35.6999994,19.9241885 C35.6999994,21.6496335 30.0587873,23.0483829 23.0999996,23.0483829 C16.1412119,23.0483829 10.4999998,21.6496335 10.4999998,19.9241885 L10.4999998,19.9241885 C10.4999998,18.1987491 16.1412119,16.7999997 23.0999996,16.7999997 C30.0587873,16.7999997 35.6999994,18.1987491 35.6999994,19.9241885 L35.6999994,28.3758079 C35.6999994,30.1012501 30.0587873,31.4999995 23.0999996,31.4999995 C16.1412119,31.4999995 10.4999998,30.1012501 10.4999998,28.3758079 L10.4999998,19.9241885" id="path1148" stroke="#326CE5" stroke-width="0.5" stroke-linejoin="round"></path>
            <polygon id="path1150" fill-opacity="0" fill="#000000" points="9.09999985 34.2999994 38.4999993 34.2999994 38.4999993 46.1999992 9.09999985 46.1999992"></polygon>
        </g>
        <g id="vol" transform="translate(1292.899978, 262.199996)">
            <polygon id="path870" fill-opacity="0.6" fill="#353B50" points="0 29.261198 4.64465022 9.01182347 23.4499996 0 42.2553761 9.01182347 46.8999992 29.261198 33.8861346 45.4999992 13.0138917 45.4999992"></polygon>
            <path d="M10.4999998,19.5999997 L10.4999998,19.5999997 C10.4999998,21.2694277 16.1412119,22.6227664 23.0999996,22.6227664 C30.0587873,22.6227664 35.6999994,21.2694277 35.6999994,19.5999997 L35.6999994,27.7772354 C35.6999994,29.4466608 30.0587873,30.7999995 23.0999996,30.7999995 C16.1412119,30.7999995 10.4999998,29.4466608 10.4999998,27.7772354 L10.4999998,19.5999997 Z" id="path1142" fill="#EEEEEE"></path>
            <path d="M10.4999998,19.9499969 L10.4999998,19.9499969 C10.4999998,18.2103039 16.1412119,16.7999997 23.0999996,16.7999997 C30.0587873,16.7999997 35.6999994,18.2103039 35.6999994,19.9499969 L35.6999994,19.9499969 C35.6999994,21.6896954 30.0587873,23.0999996 23.0999996,23.0999996 C16.1412119,23.0999996 10.4999998,21.6896954 10.4999998,19.9499969 Z" id="path1144" fill="#F4F4F4"></path>
            <path d="M35.6999994,19.9241885 L35.6999994,19.9241885 C35.6999994,21.6496335 30.0587873,23.0483829 23.0999996,23.0483829 C16.1412119,23.0483829 10.4999998,21.6496335 10.4999998,19.9241885 L10.4999998,19.9241885 C10.4999998,18.1987491 16.1412119,16.7999997 23.0999996,16.7999997 C30.0587873,16.7999997 35.6999994,18.1987491 35.6999994,19.9241885 L35.6999994,28.3758079 C35.6999994,30.1012501 30.0587873,31.4999995 23.0999996,31.4999995 C16.1412119,31.4999995 10.4999998,30.1012501 10.4999998,28.3758079 L10.4999998,19.9241885" id="path1146" fill-opacity="0" fill="#000000"></path>
            <path d="M35.6999994,19.9241885 L35.6999994,19.9241885 C35.6999994,21.6496335 30.0587873,23.0483829 23.0999996,23.0483829 C16.1412119,23.0483829 10.4999998,21.6496335 10.4999998,19.9241885 L10.4999998,19.9241885 C10.4999998,18.1987491 16.1412119,16.7999997 23.0999996,16.7999997 C30.0587873,16.7999997 35.6999994,18.1987491 35.6999994,19.9241885 L35.6999994,28.3758079 C35.6999994,30.1012501 30.0587873,31.4999995 23.0999996,31.4999995 C16.1412119,31.4999995 10.4999998,30.1012501 10.4999998,28.3758079 L10.4999998,19.9241885" id="path1148" stroke="#326CE5" stroke-width="0.5" stroke-linejoin="round"></path>
            <polygon id="path1150" fill-opacity="0" fill="#000000" points="9.09999985 34.2999994 38.4999993 34.2999994 38.4999993 46.1999992 9.09999985 46.1999992"></polygon>
        </g>
        <path id="Path-3" d="M1175.99995,688.493839 L1177.045,807.499 L1458.054,807.499 L1450.49237,803.41592 L1451.15758,802.184053 L1461.15758,807.584053 L1462.2982,808.199986 L1461.15758,808.81592 L1451.15758,814.21592 L1450.49237,812.984053 L1458.057,808.899 L1175.65767,808.899986 L1175.65158,808.206136 L1174.60001,688.506138 L1175.99995,688.493839 Z" fill="#353B50" fill-rule="nonzero"></path>
        <text id="Volume" font-family="GothamPro-Bold, Gotham Pro" font-size="12.5999998" font-weight="bold" fill="#353B50">
            <tspan x="1291.76738" y="503.599992">Volume</tspan>
        </text>
        <text id="Volume" font-family="GothamPro-Bold, Gotham Pro" font-size="12.5999998" font-weight="bold" fill="#353B50">
            <tspan x="1291.76738" y="325.799995">Volume</tspan>
        </text>
        <path id="Path-23" d="M1554.69997,336.399994 L1554.69997,549.899991 L1425.943,549.899 L1433.50758,553.984057 L1432.84237,555.215924 L1422.84237,549.815925 L1421.70175,549.199991 L1422.84237,548.584057 L1432.84237,543.184057 L1433.50758,544.415925 L1425.943,548.499 L1553.299,548.499 L1553.29997,336.399994 L1554.69997,336.399994 Z" fill="#353B50" fill-rule="nonzero"></path>
        <path id="Path" d="M1277.66527,457.084059 L1287.66527,462.484058 L1288.80589,463.099992 L1287.66527,463.715926 L1277.66527,469.115926 L1277.00007,467.884058 L1284.564,463.799 L1257.09229,463.799992 L1257.09229,462.399992 L1284.564,462.399 L1277.00007,458.315926 L1277.66527,457.084059 Z" fill="#353B50" fill-rule="nonzero"></path>
        <path id="Path" d="M1277.66527,279.284062 L1287.66527,284.684061 L1288.80589,285.299995 L1287.66527,285.915929 L1277.66527,291.315929 L1277.00007,290.084061 L1284.565,285.999 L1257.09229,285.999995 L1257.09229,284.599995 L1284.562,284.599 L1277.00007,280.515929 L1277.66527,279.284062 Z" fill="#353B50" fill-rule="nonzero"></path>
        <path id="Path" d="M1175.64998,519.801769 L1176.26591,520.942387 L1181.66591,530.942387 L1180.43405,531.607595 L1176.349,524.041 L1176.34998,582.09999 L1174.94998,582.09999 L1174.949,524.044 L1170.86591,531.607595 L1169.63405,530.942387 L1175.03405,520.942387 L1175.64998,519.801769 Z" fill="#353B50" fill-rule="nonzero"></path>
        <path id="Path" d="M1175.64998,344.101772 L1176.26591,345.24239 L1181.66591,355.24239 L1180.43405,355.907598 L1176.349,348.342 L1176.34998,406.399993 L1174.94998,406.399993 L1174.949,348.345 L1170.86591,355.907598 L1169.63405,355.24239 L1175.03405,345.24239 L1175.64998,344.101772 Z" fill="#353B50" fill-rule="nonzero"></path>
        <rect id="Rectangle" fill-opacity="0.05" fill="#353B50" x="250" y="1027" width="1133" height="343" rx="2.31999993"></rect>
        <rect id="Rectangle" fill="#FFFFFF" x="286.699997" y="1049.04" width="238" height="145.579996" rx="2.31999993"></rect>
        <rect id="Rectangle" fill="#FFFFFF" x="288.439997" y="1260.31999" width="238" height="96" rx="2.31999993"></rect>
        <rect id="Rectangle" fill="#FFFFFF" x="692.699997" y="1049.04" width="238" height="145.579996" rx="2.31999993"></rect>
        <rect id="Rectangle" fill="#FFFFFF" x="1101.7" y="1049.04" width="238" height="145.579996" rx="2.31999993"></rect>
        <text id="dev-namespace" font-family="GothamPro-Bold, Gotham Pro" font-size="10.4399997" font-weight="bold" fill="#353B50">
            <tspan x="308.739997" y="1069.22">DEV NAMESPACE</tspan>
        </text>
        <text id="CI/CD-namespace" font-family="GothamPro-Bold, Gotham Pro" font-size="10.4399997" font-weight="bold" fill="#353B50">
            <tspan x="308" y="1285">CI/CD NAMESPACE</tspan>
        </text>
        <text id="staging-namespace" font-family="GothamPro-Bold, Gotham Pro" font-size="10.4399997" font-weight="bold" fill="#353B50">
            <tspan x="725" y="1069">STAGING NAMESPACE</tspan>
        </text>
        <text id="prod-namespace" font-family="GothamPro-Bold, Gotham Pro" font-size="10.4399997" font-weight="bold" fill="#353B50">
            <tspan x="1131" y="1069">PROD NAMESPACE</tspan>
        </text>
        <g id="Group-3" transform="translate(724.699997, 1100.659998)">
            <rect id="Rectangle" stroke="#00A984" stroke-width="2.31999993" fill="#FFFFFF" x="-0.699997246" y="0.34000212" width="179" height="70" rx="4.63999987"></rect>
            <text id="Staging" font-family="GothamPro-Black, Gotham Pro" font-size="12.1799996" font-weight="700" fill="#353B50">
                <tspan x="65.1348834" y="39.3400021">Staging</tspan>
            </text>
        </g>
        <g id="pod" transform="translate(706.000000, 1083.000000)">
            <polygon id="path824" fill="#00A984" points="0 24.6179923 3.84840415 7.58181535 19.4299882 0 35.0115947 7.58181535 38.8599989 24.6179923 28.0770764 38.2799989 10.7829225 38.2799989"></polygon>
            <polygon id="path910" fill="#EEEEEE" points="11.5999997 13.9199974 19.7200106 11.5999997 27.8399992 13.9199974 19.7200106 16.2399995"></polygon>
            <polygon id="path912" fill="#EEEEEE" points="11.5999997 15.0799996 11.5999997 23.6723641 19.1028589 27.8399992 19.1399994 17.3287596"></polygon>
            <polygon id="path914" fill="#EEEEEE" points="27.2599992 15.0799996 27.2599992 23.6723641 19.75714 27.8399992 19.7199994 17.3287596"></polygon>
            <polygon id="path916" fill-opacity="0" fill="#000000" points="7.53999978 28.4199992 31.8999991 28.4199992 31.8999991 38.2799989 7.53999978 38.2799989"></polygon>
        </g>
        <g id="Group-2" transform="translate(1130.699997, 1100.659998)">
            <rect id="Rectangle" stroke="#EA4A35" stroke-width="2.31999993" fill="#FFFFFF" x="-0.699997246" y="0.34000212" width="179" height="70" rx="4.63999987"></rect>
            <text id="Production" font-family="GothamPro-Black, Gotham Pro" font-size="12.1799996" font-weight="700" fill="#353B50">
                <tspan x="54.3488737" y="39.3400021">Production</tspan>
            </text>
        </g>
        <g id="pod" transform="translate(1112.000000, 1090.000000)">
            <polygon id="path824" fill="#EA4A35" points="0 24.6179923 3.84840415 7.58181535 19.4299882 0 35.0115947 7.58181535 38.8599989 24.6179923 28.0770764 38.2799989 10.7829225 38.2799989"></polygon>
            <polygon id="path910" fill="#EEEEEE" points="11.5999997 13.9199974 19.7200106 11.5999997 27.8399992 13.9199974 19.7200106 16.2399995"></polygon>
            <polygon id="path912" fill="#EEEEEE" points="11.5999997 15.0799996 11.5999997 23.6723641 19.1028589 27.8399992 19.1399994 17.3287596"></polygon>
            <polygon id="path914" fill="#EEEEEE" points="27.2599992 15.0799996 27.2599992 23.6723641 19.75714 27.8399992 19.7199994 17.3287596"></polygon>
            <polygon id="path916" fill-opacity="0" fill="#000000" points="7.53999978 28.4199992 31.8999991 28.4199992 31.8999991 38.2799989 7.53999978 38.2799989"></polygon>
        </g>
        <g id="Group-5" transform="translate(318.699997, 1100.079998)">
            <rect id="Rectangle" stroke="#353B50" stroke-width="2.31999993" fill="#FAFAFA" x="-0.699997246" y="-0.0799978971" width="179" height="70" rx="4.63999987"></rect>
            <text id="Dev" font-family="GothamPro-Black, Gotham Pro" font-size="12.1799996" font-weight="700" fill="#353B50">
                <tspan x="77.1504531" y="38.9200021">Dev</tspan>
            </text>
        </g>
        <g id="pod" transform="translate(294.819997, 1080.359998)">
            <polygon id="path824" fill="#353B50" points="0 24.6179923 3.84840415 7.58181535 19.4299882 0 35.0115947 7.58181535 38.8599989 24.6179923 28.0770764 38.2799989 10.7829225 38.2799989"></polygon>
            <polygon id="path910" fill="#EEEEEE" points="11.5999997 13.9199974 19.7200106 11.5999997 27.8399992 13.9199974 19.7200106 16.2399995"></polygon>
            <polygon id="path912" fill="#EEEEEE" points="11.5999997 15.0799996 11.5999997 23.6723641 19.1028589 27.8399992 19.1399994 17.3287596"></polygon>
            <polygon id="path914" fill="#EEEEEE" points="27.2599992 15.0799996 27.2599992 23.6723641 19.75714 27.8399992 19.7199994 17.3287596"></polygon>
            <polygon id="path916" fill-opacity="0" fill="#000000" points="7.53999978 28.4199992 31.8999991 28.4199992 31.8999991 38.2799989 7.53999978 38.2799989"></polygon>
        </g>
        <g id="Group-8" transform="translate(309.000000, 1302.000000)">
            <rect id="Rectangle" stroke="#326CE5" stroke-width="2.31999993" fill="#FFFFFF" x="0" y="0" width="188" height="39" rx="4.63999987"></rect>
            <text id="CI/CD" font-family="GothamPro-Black, Gotham Pro" font-size="12.1799996" font-weight="700" fill="#353B50">
                <tspan x="75.7001705" y="23">CI/CD</tspan>
            </text>
        </g>
        <text id="kubernetes-cluster" font-family="GothamPro-Bold, Gotham Pro" font-size="15.6599995" font-weight="bold" fill="#353B50">
            <tspan x="1170.31043" y="1353">KUBERNETES CLUSTER</tspan>
        </text>
        <path id="Path-21" d="M369.639995,1226.25999 C372.20088,1226.25999 374.3121,1228.14673 374.605234,1230.57916 L376.379995,1230.57999 L376.379995,1231.73999 L374.605354,1231.73983 C374.312676,1234.17274 372.201229,1236.05999 369.639995,1236.05999 C366.878571,1236.05999 364.639995,1233.86619 364.639995,1231.15999 C364.639995,1228.4538 366.878571,1226.25999 369.639995,1226.25999 Z M603.739988,1230.57999 L603.739988,1231.73999 L601.419988,1231.73999 L601.419988,1230.57999 L603.739988,1230.57999 Z M608.379988,1230.57999 L608.379988,1231.73999 L606.059988,1231.73999 L606.059988,1230.57999 L608.379988,1230.57999 Z M381.019995,1230.57999 L381.019995,1231.73999 L378.699995,1231.73999 L378.699995,1230.57999 L381.019995,1230.57999 Z M385.659995,1230.57999 L385.659995,1231.73999 L383.339995,1231.73999 L383.339995,1230.57999 L385.659995,1230.57999 Z M390.299994,1230.57999 L390.299994,1231.73999 L387.979994,1231.73999 L387.979994,1230.57999 L390.299994,1230.57999 Z M394.939994,1230.57999 L394.939994,1231.73999 L392.619994,1231.73999 L392.619994,1230.57999 L394.939994,1230.57999 Z M399.579994,1230.57999 L399.579994,1231.73999 L397.259994,1231.73999 L397.259994,1230.57999 L399.579994,1230.57999 Z M404.219994,1230.57999 L404.219994,1231.73999 L401.899994,1231.73999 L401.899994,1230.57999 L404.219994,1230.57999 Z M408.859994,1230.57999 L408.859994,1231.73999 L406.539994,1231.73999 L406.539994,1230.57999 L408.859994,1230.57999 Z M413.499994,1230.57999 L413.499994,1231.73999 L411.179994,1231.73999 L411.179994,1230.57999 L413.499994,1230.57999 Z M418.139994,1230.57999 L418.139994,1231.73999 L415.819994,1231.73999 L415.819994,1230.57999 L418.139994,1230.57999 Z M422.779993,1230.57999 L422.779993,1231.73999 L420.459994,1231.73999 L420.459994,1230.57999 L422.779993,1230.57999 Z M427.419993,1230.57999 L427.419993,1231.73999 L425.099993,1231.73999 L425.099993,1230.57999 L427.419993,1230.57999 Z M432.059993,1230.57999 L432.059993,1231.73999 L429.739993,1231.73999 L429.739993,1230.57999 L432.059993,1230.57999 Z M436.699993,1230.57999 L436.699993,1231.73999 L434.379993,1231.73999 L434.379993,1230.57999 L436.699993,1230.57999 Z M441.339993,1230.57999 L441.339993,1231.73999 L439.019993,1231.73999 L439.019993,1230.57999 L441.339993,1230.57999 Z M445.979993,1230.57999 L445.979993,1231.73999 L443.659993,1231.73999 L443.659993,1230.57999 L445.979993,1230.57999 Z M450.619993,1230.57999 L450.619993,1231.73999 L448.299993,1231.73999 L448.299993,1230.57999 L450.619993,1230.57999 Z M455.259993,1230.57999 L455.259993,1231.73999 L452.939993,1231.73999 L452.939993,1230.57999 L455.259993,1230.57999 Z M459.899992,1230.57999 L459.899992,1231.73999 L457.579992,1231.73999 L457.579992,1230.57999 L459.899992,1230.57999 Z M464.539992,1230.57999 L464.539992,1231.73999 L462.219992,1231.73999 L462.219992,1230.57999 L464.539992,1230.57999 Z M469.179992,1230.57999 L469.179992,1231.73999 L466.859992,1231.73999 L466.859992,1230.57999 L469.179992,1230.57999 Z M473.819992,1230.57999 L473.819992,1231.73999 L471.499992,1231.73999 L471.499992,1230.57999 L473.819992,1230.57999 Z M478.459992,1230.57999 L478.459992,1231.73999 L476.139992,1231.73999 L476.139992,1230.57999 L478.459992,1230.57999 Z M483.099992,1230.57999 L483.099992,1231.73999 L480.779992,1231.73999 L480.779992,1230.57999 L483.099992,1230.57999 Z M487.739992,1230.57999 L487.739992,1231.73999 L485.419992,1231.73999 L485.419992,1230.57999 L487.739992,1230.57999 Z M492.379991,1230.57999 L492.379991,1231.73999 L490.059992,1231.73999 L490.059992,1230.57999 L492.379991,1230.57999 Z M497.019991,1230.57999 L497.019991,1231.73999 L494.699991,1231.73999 L494.699991,1230.57999 L497.019991,1230.57999 Z M501.659991,1230.57999 L501.659991,1231.73999 L499.339991,1231.73999 L499.339991,1230.57999 L501.659991,1230.57999 Z M506.299991,1230.57999 L506.299991,1231.73999 L503.979991,1231.73999 L503.979991,1230.57999 L506.299991,1230.57999 Z M510.939991,1230.57999 L510.939991,1231.73999 L508.619991,1231.73999 L508.619991,1230.57999 L510.939991,1230.57999 Z M515.579991,1230.57999 L515.579991,1231.73999 L513.259991,1231.73999 L513.259991,1230.57999 L515.579991,1230.57999 Z M520.219991,1230.57999 L520.219991,1231.73999 L517.899991,1231.73999 L517.899991,1230.57999 L520.219991,1230.57999 Z M524.859991,1230.57999 L524.859991,1231.73999 L522.539991,1231.73999 L522.539991,1230.57999 L524.859991,1230.57999 Z M529.49999,1230.57999 L529.49999,1231.73999 L527.17999,1231.73999 L527.17999,1230.57999 L529.49999,1230.57999 Z M534.13999,1230.57999 L534.13999,1231.73999 L531.81999,1231.73999 L531.81999,1230.57999 L534.13999,1230.57999 Z M538.77999,1230.57999 L538.77999,1231.73999 L536.45999,1231.73999 L536.45999,1230.57999 L538.77999,1230.57999 Z M543.41999,1230.57999 L543.41999,1231.73999 L541.09999,1231.73999 L541.09999,1230.57999 L543.41999,1230.57999 Z M548.05999,1230.57999 L548.05999,1231.73999 L545.73999,1231.73999 L545.73999,1230.57999 L548.05999,1230.57999 Z M552.69999,1230.57999 L552.69999,1231.73999 L550.37999,1231.73999 L550.37999,1230.57999 L552.69999,1230.57999 Z M557.33999,1230.57999 L557.33999,1231.73999 L555.01999,1231.73999 L555.01999,1230.57999 L557.33999,1230.57999 Z M561.979989,1230.57999 L561.979989,1231.73999 L559.65999,1231.73999 L559.65999,1230.57999 L561.979989,1230.57999 Z M566.619989,1230.57999 L566.619989,1231.73999 L564.299989,1231.73999 L564.299989,1230.57999 L566.619989,1230.57999 Z M571.259989,1230.57999 L571.259989,1231.73999 L568.939989,1231.73999 L568.939989,1230.57999 L571.259989,1230.57999 Z M575.899989,1230.57999 L575.899989,1231.73999 L573.579989,1231.73999 L573.579989,1230.57999 L575.899989,1230.57999 Z M580.539989,1230.57999 L580.539989,1231.73999 L578.219989,1231.73999 L578.219989,1230.57999 L580.539989,1230.57999 Z M585.179989,1230.57999 L585.179989,1231.73999 L582.859989,1231.73999 L582.859989,1230.57999 L585.179989,1230.57999 Z M589.819989,1230.57999 L589.819989,1231.73999 L587.499989,1231.73999 L587.499989,1230.57999 L589.819989,1230.57999 Z M594.459989,1230.57999 L594.459989,1231.73999 L592.139989,1231.73999 L592.139989,1230.57999 L594.459989,1230.57999 Z M599.099988,1230.57999 L599.099988,1231.73999 L596.779988,1231.73999 L596.779988,1230.57999 L599.099988,1230.57999 Z M812.219995,1230.26001 L812.219995,1231.73999 L810.219982,1231.73999 L810.219982,1230.57999 L811.059,1230.579 L811.059995,1230.26001 L812.219995,1230.26001 Z M807.899982,1230.57999 L807.899982,1231.73999 L805.579982,1231.73999 L805.579982,1230.57999 L807.899982,1230.57999 Z M613.019988,1230.57999 L613.019988,1231.73999 L610.699988,1231.73999 L610.699988,1230.57999 L613.019988,1230.57999 Z M617.659988,1230.57999 L617.659988,1231.73999 L615.339988,1231.73999 L615.339988,1230.57999 L617.659988,1230.57999 Z M622.299988,1230.57999 L622.299988,1231.73999 L619.979988,1231.73999 L619.979988,1230.57999 L622.299988,1230.57999 Z M626.939988,1230.57999 L626.939988,1231.73999 L624.619988,1231.73999 L624.619988,1230.57999 L626.939988,1230.57999 Z M631.579987,1230.57999 L631.579987,1231.73999 L629.259988,1231.73999 L629.259988,1230.57999 L631.579987,1230.57999 Z M636.219987,1230.57999 L636.219987,1231.73999 L633.899987,1231.73999 L633.899987,1230.57999 L636.219987,1230.57999 Z M640.859987,1230.57999 L640.859987,1231.73999 L638.539987,1231.73999 L638.539987,1230.57999 L640.859987,1230.57999 Z M645.499987,1230.57999 L645.499987,1231.73999 L643.179987,1231.73999 L643.179987,1230.57999 L645.499987,1230.57999 Z M650.139987,1230.57999 L650.139987,1231.73999 L647.819987,1231.73999 L647.819987,1230.57999 L650.139987,1230.57999 Z M654.779987,1230.57999 L654.779987,1231.73999 L652.459987,1231.73999 L652.459987,1230.57999 L654.779987,1230.57999 Z M659.419987,1230.57999 L659.419987,1231.73999 L657.099987,1231.73999 L657.099987,1230.57999 L659.419987,1230.57999 Z M664.059987,1230.57999 L664.059987,1231.73999 L661.739987,1231.73999 L661.739987,1230.57999 L664.059987,1230.57999 Z M668.699986,1230.57999 L668.699986,1231.73999 L666.379986,1231.73999 L666.379986,1230.57999 L668.699986,1230.57999 Z M673.339986,1230.57999 L673.339986,1231.73999 L671.019986,1231.73999 L671.019986,1230.57999 L673.339986,1230.57999 Z M677.979986,1230.57999 L677.979986,1231.73999 L675.659986,1231.73999 L675.659986,1230.57999 L677.979986,1230.57999 Z M682.619986,1230.57999 L682.619986,1231.73999 L680.299986,1231.73999 L680.299986,1230.57999 L682.619986,1230.57999 Z M687.259986,1230.57999 L687.259986,1231.73999 L684.939986,1231.73999 L684.939986,1230.57999 L687.259986,1230.57999 Z M691.899986,1230.57999 L691.899986,1231.73999 L689.579986,1231.73999 L689.579986,1230.57999 L691.899986,1230.57999 Z M696.539986,1230.57999 L696.539986,1231.73999 L694.219986,1231.73999 L694.219986,1230.57999 L696.539986,1230.57999 Z M701.179985,1230.57999 L701.179985,1231.73999 L698.859986,1231.73999 L698.859986,1230.57999 L701.179985,1230.57999 Z M705.819985,1230.57999 L705.819985,1231.73999 L703.499985,1231.73999 L703.499985,1230.57999 L705.819985,1230.57999 Z M710.459985,1230.57999 L710.459985,1231.73999 L708.139985,1231.73999 L708.139985,1230.57999 L710.459985,1230.57999 Z M715.099985,1230.57999 L715.099985,1231.73999 L712.779985,1231.73999 L712.779985,1230.57999 L715.099985,1230.57999 Z M719.739985,1230.57999 L719.739985,1231.73999 L717.419985,1231.73999 L717.419985,1230.57999 L719.739985,1230.57999 Z M724.379985,1230.57999 L724.379985,1231.73999 L722.059985,1231.73999 L722.059985,1230.57999 L724.379985,1230.57999 Z M729.019985,1230.57999 L729.019985,1231.73999 L726.699985,1231.73999 L726.699985,1230.57999 L729.019985,1230.57999 Z M733.659985,1230.57999 L733.659985,1231.73999 L731.339985,1231.73999 L731.339985,1230.57999 L733.659985,1230.57999 Z M738.299984,1230.57999 L738.299984,1231.73999 L735.979984,1231.73999 L735.979984,1230.57999 L738.299984,1230.57999 Z M742.939984,1230.57999 L742.939984,1231.73999 L740.619984,1231.73999 L740.619984,1230.57999 L742.939984,1230.57999 Z M747.579984,1230.57999 L747.579984,1231.73999 L745.259984,1231.73999 L745.259984,1230.57999 L747.579984,1230.57999 Z M752.219984,1230.57999 L752.219984,1231.73999 L749.899984,1231.73999 L749.899984,1230.57999 L752.219984,1230.57999 Z M756.859984,1230.57999 L756.859984,1231.73999 L754.539984,1231.73999 L754.539984,1230.57999 L756.859984,1230.57999 Z M761.499984,1230.57999 L761.499984,1231.73999 L759.179984,1231.73999 L759.179984,1230.57999 L761.499984,1230.57999 Z M766.139984,1230.57999 L766.139984,1231.73999 L763.819984,1231.73999 L763.819984,1230.57999 L766.139984,1230.57999 Z M770.779983,1230.57999 L770.779983,1231.73999 L768.459984,1231.73999 L768.459984,1230.57999 L770.779983,1230.57999 Z M775.419983,1230.57999 L775.419983,1231.73999 L773.099983,1231.73999 L773.099983,1230.57999 L775.419983,1230.57999 Z M780.059983,1230.57999 L780.059983,1231.73999 L777.739983,1231.73999 L777.739983,1230.57999 L780.059983,1230.57999 Z M784.699983,1230.57999 L784.699983,1231.73999 L782.379983,1231.73999 L782.379983,1230.57999 L784.699983,1230.57999 Z M789.339983,1230.57999 L789.339983,1231.73999 L787.019983,1231.73999 L787.019983,1230.57999 L789.339983,1230.57999 Z M793.979983,1230.57999 L793.979983,1231.73999 L791.659983,1231.73999 L791.659983,1230.57999 L793.979983,1230.57999 Z M798.619983,1230.57999 L798.619983,1231.73999 L796.299983,1231.73999 L796.299983,1230.57999 L798.619983,1230.57999 Z M803.259983,1230.57999 L803.259983,1231.73999 L800.939983,1231.73999 L800.939983,1230.57999 L803.259983,1230.57999 Z M812.219995,1225.62001 L812.219995,1227.94001 L811.059995,1227.94001 L811.059995,1225.62001 L812.219995,1225.62001 Z M812.219995,1220.98001 L812.219995,1223.30001 L811.059995,1223.30001 L811.059995,1220.98001 L812.219995,1220.98001 Z M812.219995,1216.34001 L812.219995,1218.66001 L811.059995,1218.66001 L811.059995,1216.34001 L812.219995,1216.34001 Z M812.219995,1211.70001 L812.219995,1214.02001 L811.059995,1214.02001 L811.059995,1211.70001 L812.219995,1211.70001 Z M811.639995,1202.69682 L812.15034,1203.64191 L817.01034,1212.64191 L815.98965,1213.19308 L811.64,1205.138 L807.29034,1213.19308 L806.26965,1212.64191 L811.12965,1203.64191 L811.639995,1202.69682 Z M812.219995,1207.06001 L812.219995,1209.38001 L811.059995,1209.38001 L811.059995,1207.06001 L812.219995,1207.06001 Z" fill="#353B50" fill-rule="nonzero"></path>
        <path id="Path-22" d="M811.419987,1226.57999 C813.980872,1226.57999 816.092092,1228.46673 816.385226,1230.89916 L818.159987,1230.89999 L818.159987,1232.05999 L816.385346,1232.05983 C816.092668,1234.49274 813.981221,1236.37999 811.419987,1236.37999 C808.658563,1236.37999 806.419987,1234.18619 806.419987,1231.47999 C806.419987,1228.7738 808.658563,1226.57999 811.419987,1226.57999 Z M1026.95998,1230.89999 L1026.95998,1232.05999 L1024.63998,1232.05999 L1024.63998,1230.89999 L1026.95998,1230.89999 Z M1031.59998,1230.89999 L1031.59998,1232.05999 L1029.27998,1232.05999 L1029.27998,1230.89999 L1031.59998,1230.89999 Z M822.799986,1230.89999 L822.799986,1232.05999 L820.479987,1232.05999 L820.479987,1230.89999 L822.799986,1230.89999 Z M827.439986,1230.89999 L827.439986,1232.05999 L825.119986,1232.05999 L825.119986,1230.89999 L827.439986,1230.89999 Z M832.079986,1230.89999 L832.079986,1232.05999 L829.759986,1232.05999 L829.759986,1230.89999 L832.079986,1230.89999 Z M836.719986,1230.89999 L836.719986,1232.05999 L834.399986,1232.05999 L834.399986,1230.89999 L836.719986,1230.89999 Z M841.359986,1230.89999 L841.359986,1232.05999 L839.039986,1232.05999 L839.039986,1230.89999 L841.359986,1230.89999 Z M845.999986,1230.89999 L845.999986,1232.05999 L843.679986,1232.05999 L843.679986,1230.89999 L845.999986,1230.89999 Z M850.639986,1230.89999 L850.639986,1232.05999 L848.319986,1232.05999 L848.319986,1230.89999 L850.639986,1230.89999 Z M855.279986,1230.89999 L855.279986,1232.05999 L852.959986,1232.05999 L852.959986,1230.89999 L855.279986,1230.89999 Z M859.919985,1230.89999 L859.919985,1232.05999 L857.599985,1232.05999 L857.599985,1230.89999 L859.919985,1230.89999 Z M864.559985,1230.89999 L864.559985,1232.05999 L862.239985,1232.05999 L862.239985,1230.89999 L864.559985,1230.89999 Z M869.199985,1230.89999 L869.199985,1232.05999 L866.879985,1232.05999 L866.879985,1230.89999 L869.199985,1230.89999 Z M873.839985,1230.89999 L873.839985,1232.05999 L871.519985,1232.05999 L871.519985,1230.89999 L873.839985,1230.89999 Z M878.479985,1230.89999 L878.479985,1232.05999 L876.159985,1232.05999 L876.159985,1230.89999 L878.479985,1230.89999 Z M883.119985,1230.89999 L883.119985,1232.05999 L880.799985,1232.05999 L880.799985,1230.89999 L883.119985,1230.89999 Z M887.759985,1230.89999 L887.759985,1232.05999 L885.439985,1232.05999 L885.439985,1230.89999 L887.759985,1230.89999 Z M892.399984,1230.89999 L892.399984,1232.05999 L890.079985,1232.05999 L890.079985,1230.89999 L892.399984,1230.89999 Z M897.039984,1230.89999 L897.039984,1232.05999 L894.719984,1232.05999 L894.719984,1230.89999 L897.039984,1230.89999 Z M901.679984,1230.89999 L901.679984,1232.05999 L899.359984,1232.05999 L899.359984,1230.89999 L901.679984,1230.89999 Z M906.319984,1230.89999 L906.319984,1232.05999 L903.999984,1232.05999 L903.999984,1230.89999 L906.319984,1230.89999 Z M910.959984,1230.89999 L910.959984,1232.05999 L908.639984,1232.05999 L908.639984,1230.89999 L910.959984,1230.89999 Z M915.599984,1230.89999 L915.599984,1232.05999 L913.279984,1232.05999 L913.279984,1230.89999 L915.599984,1230.89999 Z M920.239984,1230.89999 L920.239984,1232.05999 L917.919984,1232.05999 L917.919984,1230.89999 L920.239984,1230.89999 Z M924.879984,1230.89999 L924.879984,1232.05999 L922.559984,1232.05999 L922.559984,1230.89999 L924.879984,1230.89999 Z M929.519983,1230.89999 L929.519983,1232.05999 L927.199983,1232.05999 L927.199983,1230.89999 L929.519983,1230.89999 Z M934.159983,1230.89999 L934.159983,1232.05999 L931.839983,1232.05999 L931.839983,1230.89999 L934.159983,1230.89999 Z M938.799983,1230.89999 L938.799983,1232.05999 L936.479983,1232.05999 L936.479983,1230.89999 L938.799983,1230.89999 Z M943.439983,1230.89999 L943.439983,1232.05999 L941.119983,1232.05999 L941.119983,1230.89999 L943.439983,1230.89999 Z M948.079983,1230.89999 L948.079983,1232.05999 L945.759983,1232.05999 L945.759983,1230.89999 L948.079983,1230.89999 Z M952.719983,1230.89999 L952.719983,1232.05999 L950.399983,1232.05999 L950.399983,1230.89999 L952.719983,1230.89999 Z M957.359983,1230.89999 L957.359983,1232.05999 L955.039983,1232.05999 L955.039983,1230.89999 L957.359983,1230.89999 Z M961.999982,1230.89999 L961.999982,1232.05999 L959.679983,1232.05999 L959.679983,1230.89999 L961.999982,1230.89999 Z M966.639982,1230.89999 L966.639982,1232.05999 L964.319982,1232.05999 L964.319982,1230.89999 L966.639982,1230.89999 Z M971.279982,1230.89999 L971.279982,1232.05999 L968.959982,1232.05999 L968.959982,1230.89999 L971.279982,1230.89999 Z M975.919982,1230.89999 L975.919982,1232.05999 L973.599982,1232.05999 L973.599982,1230.89999 L975.919982,1230.89999 Z M980.559982,1230.89999 L980.559982,1232.05999 L978.239982,1232.05999 L978.239982,1230.89999 L980.559982,1230.89999 Z M985.199982,1230.89999 L985.199982,1232.05999 L982.879982,1232.05999 L982.879982,1230.89999 L985.199982,1230.89999 Z M989.839982,1230.89999 L989.839982,1232.05999 L987.519982,1232.05999 L987.519982,1230.89999 L989.839982,1230.89999 Z M994.479982,1230.89999 L994.479982,1232.05999 L992.159982,1232.05999 L992.159982,1230.89999 L994.479982,1230.89999 Z M999.119981,1230.89999 L999.119981,1232.05999 L996.799981,1232.05999 L996.799981,1230.89999 L999.119981,1230.89999 Z M1003.75998,1230.89999 L1003.75998,1232.05999 L1001.43998,1232.05999 L1001.43998,1230.89999 L1003.75998,1230.89999 Z M1008.39998,1230.89999 L1008.39998,1232.05999 L1006.07998,1232.05999 L1006.07998,1230.89999 L1008.39998,1230.89999 Z M1013.03998,1230.89999 L1013.03998,1232.05999 L1010.71998,1232.05999 L1010.71998,1230.89999 L1013.03998,1230.89999 Z M1017.67998,1230.89999 L1017.67998,1232.05999 L1015.35998,1232.05999 L1015.35998,1230.89999 L1017.67998,1230.89999 Z M1022.31998,1230.89999 L1022.31998,1232.05999 L1019.99998,1232.05999 L1019.99998,1230.89999 L1022.31998,1230.89999 Z M1220.99999,1230.06001 L1220.99999,1232.05999 L1219.51998,1232.05999 L1219.51998,1230.89999 L1219.839,1230.899 L1219.83999,1230.06001 L1220.99999,1230.06001 Z M1217.19998,1230.89999 L1217.19998,1232.05999 L1214.87998,1232.05999 L1214.87998,1230.89999 L1217.19998,1230.89999 Z M1036.23998,1230.89999 L1036.23998,1232.05999 L1033.91998,1232.05999 L1033.91998,1230.89999 L1036.23998,1230.89999 Z M1040.87998,1230.89999 L1040.87998,1232.05999 L1038.55998,1232.05999 L1038.55998,1230.89999 L1040.87998,1230.89999 Z M1045.51998,1230.89999 L1045.51998,1232.05999 L1043.19998,1232.05999 L1043.19998,1230.89999 L1045.51998,1230.89999 Z M1050.15998,1230.89999 L1050.15998,1232.05999 L1047.83998,1232.05999 L1047.83998,1230.89999 L1050.15998,1230.89999 Z M1054.79998,1230.89999 L1054.79998,1232.05999 L1052.47998,1232.05999 L1052.47998,1230.89999 L1054.79998,1230.89999 Z M1059.43998,1230.89999 L1059.43998,1232.05999 L1057.11998,1232.05999 L1057.11998,1230.89999 L1059.43998,1230.89999 Z M1064.07998,1230.89999 L1064.07998,1232.05999 L1061.75998,1232.05999 L1061.75998,1230.89999 L1064.07998,1230.89999 Z M1068.71998,1230.89999 L1068.71998,1232.05999 L1066.39998,1232.05999 L1066.39998,1230.89999 L1068.71998,1230.89999 Z M1073.35998,1230.89999 L1073.35998,1232.05999 L1071.03998,1232.05999 L1071.03998,1230.89999 L1073.35998,1230.89999 Z M1077.99998,1230.89999 L1077.99998,1232.05999 L1075.67998,1232.05999 L1075.67998,1230.89999 L1077.99998,1230.89999 Z M1082.63998,1230.89999 L1082.63998,1232.05999 L1080.31998,1232.05999 L1080.31998,1230.89999 L1082.63998,1230.89999 Z M1087.27998,1230.89999 L1087.27998,1232.05999 L1084.95998,1232.05999 L1084.95998,1230.89999 L1087.27998,1230.89999 Z M1091.91998,1230.89999 L1091.91998,1232.05999 L1089.59998,1232.05999 L1089.59998,1230.89999 L1091.91998,1230.89999 Z M1096.55998,1230.89999 L1096.55998,1232.05999 L1094.23998,1232.05999 L1094.23998,1230.89999 L1096.55998,1230.89999 Z M1101.19998,1230.89999 L1101.19998,1232.05999 L1098.87998,1232.05999 L1098.87998,1230.89999 L1101.19998,1230.89999 Z M1105.83998,1230.89999 L1105.83998,1232.05999 L1103.51998,1232.05999 L1103.51998,1230.89999 L1105.83998,1230.89999 Z M1110.47998,1230.89999 L1110.47998,1232.05999 L1108.15998,1232.05999 L1108.15998,1230.89999 L1110.47998,1230.89999 Z M1115.11998,1230.89999 L1115.11998,1232.05999 L1112.79998,1232.05999 L1112.79998,1230.89999 L1115.11998,1230.89999 Z M1119.75998,1230.89999 L1119.75998,1232.05999 L1117.43998,1232.05999 L1117.43998,1230.89999 L1119.75998,1230.89999 Z M1124.39998,1230.89999 L1124.39998,1232.05999 L1122.07998,1232.05999 L1122.07998,1230.89999 L1124.39998,1230.89999 Z M1129.03998,1230.89999 L1129.03998,1232.05999 L1126.71998,1232.05999 L1126.71998,1230.89999 L1129.03998,1230.89999 Z M1133.67998,1230.89999 L1133.67998,1232.05999 L1131.35998,1232.05999 L1131.35998,1230.89999 L1133.67998,1230.89999 Z M1138.31998,1230.89999 L1138.31998,1232.05999 L1135.99998,1232.05999 L1135.99998,1230.89999 L1138.31998,1230.89999 Z M1142.95998,1230.89999 L1142.95998,1232.05999 L1140.63998,1232.05999 L1140.63998,1230.89999 L1142.95998,1230.89999 Z M1147.59998,1230.89999 L1147.59998,1232.05999 L1145.27998,1232.05999 L1145.27998,1230.89999 L1147.59998,1230.89999 Z M1152.23998,1230.89999 L1152.23998,1232.05999 L1149.91998,1232.05999 L1149.91998,1230.89999 L1152.23998,1230.89999 Z M1156.87998,1230.89999 L1156.87998,1232.05999 L1154.55998,1232.05999 L1154.55998,1230.89999 L1156.87998,1230.89999 Z M1161.51998,1230.89999 L1161.51998,1232.05999 L1159.19998,1232.05999 L1159.19998,1230.89999 L1161.51998,1230.89999 Z M1166.15998,1230.89999 L1166.15998,1232.05999 L1163.83998,1232.05999 L1163.83998,1230.89999 L1166.15998,1230.89999 Z M1170.79998,1230.89999 L1170.79998,1232.05999 L1168.47998,1232.05999 L1168.47998,1230.89999 L1170.79998,1230.89999 Z M1175.43998,1230.89999 L1175.43998,1232.05999 L1173.11998,1232.05999 L1173.11998,1230.89999 L1175.43998,1230.89999 Z M1180.07998,1230.89999 L1180.07998,1232.05999 L1177.75998,1232.05999 L1177.75998,1230.89999 L1180.07998,1230.89999 Z M1184.71998,1230.89999 L1184.71998,1232.05999 L1182.39998,1232.05999 L1182.39998,1230.89999 L1184.71998,1230.89999 Z M1189.35998,1230.89999 L1189.35998,1232.05999 L1187.03998,1232.05999 L1187.03998,1230.89999 L1189.35998,1230.89999 Z M1193.99998,1230.89999 L1193.99998,1232.05999 L1191.67998,1232.05999 L1191.67998,1230.89999 L1193.99998,1230.89999 Z M1198.63998,1230.89999 L1198.63998,1232.05999 L1196.31998,1232.05999 L1196.31998,1230.89999 L1198.63998,1230.89999 Z M1203.27998,1230.89999 L1203.27998,1232.05999 L1200.95998,1232.05999 L1200.95998,1230.89999 L1203.27998,1230.89999 Z M1207.91998,1230.89999 L1207.91998,1232.05999 L1205.59998,1232.05999 L1205.59998,1230.89999 L1207.91998,1230.89999 Z M1212.55998,1230.89999 L1212.55998,1232.05999 L1210.23998,1232.05999 L1210.23998,1230.89999 L1212.55998,1230.89999 Z M1220.99999,1225.42001 L1220.99999,1227.74001 L1219.83999,1227.74001 L1219.83999,1225.42001 L1220.99999,1225.42001 Z M1220.99999,1220.78001 L1220.99999,1223.10001 L1219.83999,1223.10001 L1219.83999,1220.78001 L1220.99999,1220.78001 Z M1220.99999,1216.14001 L1220.99999,1218.46001 L1219.83999,1218.46001 L1219.83999,1216.14001 L1220.99999,1216.14001 Z M1220.99999,1211.50001 L1220.99999,1213.82001 L1219.83999,1213.82001 L1219.83999,1211.50001 L1220.99999,1211.50001 Z M1220.41999,1202.69682 L1220.93033,1203.64191 L1225.79033,1212.64191 L1224.76964,1213.19308 L1220.42,1205.138 L1216.07033,1213.19308 L1215.04964,1212.64191 L1219.90964,1203.64191 L1220.41999,1202.69682 Z M1220.99999,1206.86001 L1220.99999,1209.18001 L1219.83999,1209.18001 L1219.83999,1206.86001 L1220.99999,1206.86001 Z" fill="#353B50" fill-rule="nonzero"></path>
        <path id="Path-20" d="M370.509995,1254.93999 L370.509995,1257.25999 L369.349995,1257.25999 L369.349995,1254.93999 L370.509995,1254.93999 Z M370.509995,1250.29999 L370.509995,1252.61999 L369.349995,1252.61999 L369.349995,1250.29999 L370.509995,1250.29999 Z M370.509995,1245.65999 L370.509995,1247.97999 L369.349995,1247.97999 L369.349995,1245.65999 L370.509995,1245.65999 Z M370.509995,1241.01999 L370.509995,1243.33999 L369.349995,1243.33999 L369.349995,1241.01999 L370.509995,1241.01999 Z M370.509995,1236.37999 L370.509995,1238.69999 L369.349995,1238.69999 L369.349995,1236.37999 L370.509995,1236.37999 Z M370.509995,1231.73999 L370.509995,1234.05999 L369.349995,1234.05999 L369.349995,1231.73999 L370.509995,1231.73999 Z M370.509995,1227.09999 L370.509995,1229.41999 L369.349995,1229.41999 L369.349995,1227.09999 L370.509995,1227.09999 Z M370.509995,1222.45999 L370.509995,1224.77999 L369.349995,1224.77999 L369.349995,1222.45999 L370.509995,1222.45999 Z M370.509995,1217.81999 L370.509995,1220.13999 L369.349995,1220.13999 L369.349995,1217.81999 L370.509995,1217.81999 Z M370.509995,1213.17999 L370.509995,1215.49999 L369.349995,1215.49999 L369.349995,1213.17999 L370.509995,1213.17999 Z M369.929995,1202.69682 L370.44034,1203.64191 L375.30034,1212.64191 L374.27965,1213.19308 L370.509,1206.21 L370.509995,1206.21999 L369.349995,1206.21999 L369.349,1206.214 L365.58034,1213.19308 L364.55965,1212.64191 L369.41965,1203.64191 L369.929995,1202.69682 Z M370.509995,1208.53999 L370.509995,1210.85999 L369.349995,1210.85999 L369.349995,1208.53999 L370.509995,1208.53999 Z" fill="#353B50" fill-rule="nonzero"></path>
        <path id="Path-19" d="M1072.17245,1127.46715 L1072.28543,1127.52422 L1085.28543,1134.99422 L1087.03578,1136 L1085.28543,1137.00578 L1072.28543,1144.47578 C1071.72996,1144.79496 1071.0209,1144.60341 1070.70172,1144.04794 C1070.40381,1143.52949 1070.55081,1142.87726 1071.02336,1142.5331 L1071.12956,1142.46422 L1080.362,1137.159 L946.145,1137.16 C945.50435,1137.16 944.985,1136.64065 944.985,1136 C944.985,1135.40206 945.437411,1134.90979 946.018605,1134.84681 L946.145,1134.84 L1080.36,1134.84 L1071.12956,1129.53578 C1070.61112,1129.23787 1070.40969,1128.60035 1070.64465,1128.06505 L1070.70172,1127.95206 C1070.99962,1127.43362 1071.63715,1127.23219 1072.17245,1127.46715 Z" fill="#353B50" fill-rule="nonzero"></path>
        <path id="Path-19" d="M664.17245,1128.46715 L664.285432,1128.52422 L677.285432,1135.99422 L679.035782,1137 L677.285432,1138.00578 L664.285432,1145.47578 C663.729956,1145.79496 663.020903,1145.60341 662.701718,1145.04794 C662.403812,1144.52949 662.550814,1143.87726 663.023361,1143.5331 L663.12956,1143.46422 L672.362,1138.159 L538.145,1138.16 C537.50435,1138.16 536.985,1137.64065 536.985,1137 C536.985,1136.40206 537.437411,1135.90979 538.018605,1135.84681 L538.145,1135.84 L672.36,1135.84 L663.12956,1130.53578 C662.611116,1130.23787 662.40969,1129.60035 662.644647,1129.06505 L662.701718,1128.95206 C662.999624,1128.43362 663.637148,1128.23219 664.17245,1128.46715 Z" fill="#353B50" fill-rule="nonzero"></path>
    </g>
</svg>