<?xml version="1.0" encoding="UTF-8"?>
<svg width="1440px" height="498px" viewBox="0 0 1440 498" version="1.1" xmlns="http://www.w3.org/2000/svg" xmlns:xlink="http://www.w3.org/1999/xlink">
    <!-- Generator: Sketch 63 (92445) - https://sketch.com -->
    <title>timeline</title>
    <desc>Created with Sketch.</desc>
    <g id="timeline" stroke="none" stroke-width="1" fill="none" fill-rule="evenodd">
        <path d="M6,242 L1102.78241,242 M1116.12651,242 L1150,242 M1164,242 L1196,242 M1207,242 L1239,242" id="Shape" stroke="#353B50" stroke-width="4" stroke-linecap="round" transform="translate(622.500000, 242.000000) scale(1, -1) translate(-622.500000, -242.000000) "></path>
        <rect id="Rectangle" stroke="#353B50" stroke-width="4" fill="#FFFFFF" transform="translate(55.000000, 242.000000) rotate(-315.000000) translate(-55.000000, -242.000000) " x="37" y="224" width="36" height="36" rx="8"></rect>
        <rect id="Rectangle" fill="#353B50" transform="translate(55.000000, 242.000000) rotate(-315.000000) translate(-55.000000, -242.000000) " x="42" y="229" width="26" height="26" rx="8"></rect>
        <rect id="Rectangle" stroke="#353B50" stroke-width="4" fill="#FFFFFF" transform="translate(185.000000, 242.000000) rotate(-315.000000) translate(-185.000000, -242.000000) " x="167" y="224" width="36" height="36" rx="8"></rect>
        <rect id="Rectangle" stroke="#353B50" stroke-width="4" fill="#FFFFFF" transform="translate(355.000000, 242.000000) rotate(-315.000000) translate(-355.000000, -242.000000) " x="337" y="224" width="36" height="36" rx="8"></rect>
        <rect id="Rectangle" stroke="#353B50" stroke-width="4" fill="#FFFFFF" transform="translate(584.000000, 242.000000) rotate(-315.000000) translate(-584.000000, -242.000000) " x="566" y="224" width="36" height="36" rx="8"></rect>
        <rect id="Rectangle" stroke="#353B50" stroke-width="4" fill="#FFFFFF" transform="translate(899.000000, 242.000000) rotate(-315.000000) translate(-899.000000, -242.000000) " x="881" y="224" width="36" height="36" rx="8"></rect>
        <rect id="Rectangle" fill="#353B50" transform="translate(185.000000, 242.000000) rotate(-315.000000) translate(-185.000000, -242.000000) " x="172" y="229" width="26" height="26" rx="8"></rect>
        <rect id="Rectangle" fill="#353B50" transform="translate(355.000000, 242.000000) rotate(-315.000000) translate(-355.000000, -242.000000) " x="342" y="229" width="26" height="26" rx="8"></rect>
        <rect id="Rectangle" fill="#353B50" transform="translate(584.000000, 242.000000) rotate(-315.000000) translate(-584.000000, -242.000000) " x="571" y="229" width="26" height="26" rx="8"></rect>
        <rect id="Rectangle" fill="#353B50" transform="translate(899.000000, 242.000000) rotate(-315.000000) translate(-899.000000, -242.000000) " x="886" y="229" width="26" height="26" rx="8"></rect>
        <line x1="54.5" y1="217" x2="54.5" y2="126" id="Path-13" stroke="#353B50" stroke-width="4"></line>
        <line x1="184.5" y1="339" x2="184.5" y2="267" id="Path-13" stroke="#353B50" stroke-width="4"></line>
        <line x1="354.5" y1="217" x2="354.5" y2="126" id="Path-13" stroke="#353B50" stroke-width="4"></line>
        <line x1="583.5" y1="339" x2="583.5" y2="267" id="Path-13" stroke="#353B50" stroke-width="4"></line>
        <line x1="899.5" y1="217" x2="899.5" y2="126" id="Path-13" stroke="#353B50" stroke-width="4"></line>
        <text id="Connect-with-us" font-family="GothamPro-Bold, Gotham Pro" font-size="24" font-weight="bold" fill="#353B50">
            <tspan x="79" y="85">Connect with us</tspan>
        </text>
        <text id="#1" font-family="GothamPro-Bold, Gotham Pro" font-size="120" font-weight="bold" fill="#353B50" fill-opacity="0.06">
            <tspan x="23" y="114">#1</tspan>
        </text>
        <text id="#3" font-family="GothamPro-Bold, Gotham Pro" font-size="120" font-weight="bold" fill="#353B50" fill-opacity="0.06">
            <tspan x="326" y="114">#3</tspan>
        </text>
        <text id="#5" font-family="GothamPro-Bold, Gotham Pro" font-size="120" font-weight="bold" fill="#353B50" fill-opacity="0.06">
            <tspan x="865" y="114">#5</tspan>
        </text>
        <text id="#2" font-family="GothamPro-Bold, Gotham Pro" font-size="120" font-weight="bold" fill="#353B50" fill-opacity="0.06">
            <tspan x="141" y="427">#2</tspan>
        </text>
        <text id="#4" font-family="GothamPro-Bold, Gotham Pro" font-size="120" font-weight="bold" fill="#353B50" fill-opacity="0.06">
            <tspan x="559" y="427">#4</tspan>
        </text>
        <text id="We-meet-and-discuss" font-family="GothamPro, Gotham Pro" font-size="18" font-weight="normal" line-spacing="24" fill="#353B50">
            <tspan x="79" y="115">We meet and discuss how </tspan>
            <tspan x="79" y="139">we can help with your </tspan>
            <tspan x="79" y="163">project</tspan>
        </text>
        <text id="Contract-Signing" font-family="GothamPro-Bold, Gotham Pro" font-size="24" font-weight="bold" fill="#353B50">
            <tspan x="379" y="86">Contract Signing</tspan>
        </text>
        <text id="We-sign-a-time-and-m" font-family="GothamPro, Gotham Pro" font-size="18" font-weight="normal" line-spacing="24" fill="#353B50">
            <tspan x="379" y="115">We sign a time and material </tspan>
            <tspan x="379" y="139">contract and provide a team </tspan>
            <tspan x="379" y="163">of developers</tspan>
        </text>
        <text id="Agile-Development" font-family="GothamPro-Bold, Gotham Pro" font-size="24" font-weight="bold" fill="#353B50">
            <tspan x="923" y="86">Agile Development</tspan>
        </text>
        <text id="Dev-team-modifies-bo" font-family="GothamPro, Gotham Pro" font-size="18" font-weight="normal" line-spacing="24" fill="#353B50">
            <tspan x="923" y="115">Dev team modifies boilerplate apps </tspan>
            <tspan x="923" y="139">and creates a turn-key solution </tspan>
            <tspan x="923" y="163">through 1-week iterations</tspan>
        </text>
        <text id="Initial-analysis" font-family="GothamPro-Bold, Gotham Pro" font-size="24" font-weight="bold" fill="#353B50">
            <tspan x="209" y="400">Initial analysis</tspan>
        </text>
        <path d="M1186.9998,199.643058 L1354.87139,199.129005 C1378.06724,199.057975 1396.92877,217.804347 1396.9998,241.000198 C1396.99993,241.043068 1397,241.085938 1397,241.128808 L1397,408 C1397,431.195959 1378.19596,450 1355,450 L1187.64293,450 C1164.49758,450 1145.71457,431.274877 1145.64313,408.129639 L1145.12964,241.771469 C1145.05701,218.575623 1163.80292,199.713631 1186.99877,199.642033 C1186.99911,199.642032 1186.99946,199.642031 1186.9998,199.643058 Z" id="Rectangle" fill-opacity="0.05" fill="#353B50" transform="translate(1271.000000, 324.500000) rotate(-315.000000) translate(-1271.000000, -324.500000) "></path>
        <polygon id="Star" stroke="#EA4A35" stroke-width="2" fill-opacity="0.2" fill="#EA4A35" transform="translate(1343.000000, 229.000000) rotate(-330.000000) translate(-1343.000000, -229.000000) " points="1343 238.5 1331.83208 244.371323 1333.96496 231.935661 1324.92993 223.128677 1337.41604 221.314339 1343 210 1348.58396 221.314339 1361.07007 223.128677 1352.03504 231.935661 1354.16792 244.371323"></polygon>
        <polygon id="Polygon" stroke="#EA4A35" stroke-width="2" fill-opacity="0.2" fill="#EA4A35" transform="translate(1202.000000, 425.000000) rotate(-30.000000) translate(-1202.000000, -425.000000) " points="1202 410 1216.26585 420.364745 1210.81678 437.135255 1193.18322 437.135255 1187.73415 420.364745"></polygon>
        <path d="M1160,289 C1163.71716,292.454416 1166.71716,294.181623 1169,294.181623 C1171.28284,294.181623 1174.28284,292.454416 1178,289 C1174.54558,293 1172.81838,296 1172.81838,298 C1172.81838,300 1174.54558,303 1178,307 C1173.85858,303.969848 1170.64645,302.454773 1168.3636,302.454773 C1166.08076,302.454773 1163.29289,303.969848 1160,307 C1163.03015,303.707107 1164.54523,300.919239 1164.54523,298.636396 C1164.54523,296.353553 1163.03015,293.141421 1160,289 Z" id="Rectangle" fill="#EA4A35" transform="translate(1169.000000, 298.000000) rotate(-315.000000) translate(-1169.000000, -298.000000) "></path>
        <polyline id="Path-3" stroke="#EA4A35" stroke-width="2.2" stroke-linecap="round" stroke-linejoin="round" points="1365 359 1372.16667 351 1379.33333 359 1386.5 351 1393.66667 359 1400.83333 351 1408 359"></polyline>
        <polyline id="Path-3" stroke="#EA4A35" stroke-width="2.2" stroke-linecap="round" stroke-linejoin="round" points="1365 371 1372.16667 363 1379.33333 371 1386.5 363 1393.66667 371 1400.83333 363 1408 371"></polyline>
        <text id="1-2-days" font-family="GothamPro-Bold, Gotham Pro" font-size="18" font-weight="bold" line-spacing="27" fill="#EA4A35">
            <tspan x="101.923" y="234">1-2 </tspan>
            <tspan x="94.372" y="261" font-family="GothamPro, Gotham Pro" font-weight="normal">days</tspan>
        </text>
        <text id="1-4-days" font-family="GothamPro-Bold, Gotham Pro" font-size="18" font-weight="bold" line-spacing="27" fill="#EA4A35">
            <tspan x="252.329" y="235">1-4 </tspan>
            <tspan x="245.372" y="262" font-family="GothamPro, Gotham Pro" font-weight="normal">days</tspan>
        </text>
        <text id="1-5-days" font-family="GothamPro-Bold, Gotham Pro" font-size="18" font-weight="bold" line-spacing="27" fill="#EA4A35">
            <tspan x="455.86" y="235">1-5 </tspan>
            <tspan x="448.372" y="262" font-family="GothamPro, Gotham Pro" font-weight="normal">days</tspan>
        </text>
        <text id="1-2-weeks" font-family="GothamPro-Bold, Gotham Pro" font-size="18" font-weight="bold" line-spacing="27" fill="#EA4A35">
            <tspan x="720.923" y="235">1-2 </tspan>
            <tspan x="706.217" y="262" font-family="GothamPro, Gotham Pro" font-weight="normal">weeks</tspan>
        </text>
        <text id="3-12-months" font-family="GothamPro-Bold, Gotham Pro" font-size="18" font-weight="bold" line-spacing="27" fill="#EA4A35">
            <tspan x="1011.604" y="235">3-12 </tspan>
            <tspan x="996.421" y="262" font-family="GothamPro, Gotham Pro" font-weight="normal">months</tspan>
        </text>
        <text id="We-define-your-needs" font-family="GothamPro, Gotham Pro" font-size="18" font-weight="normal" line-spacing="24" fill="#353B50">
            <tspan x="209" y="429">We define your needs and </tspan>
            <tspan x="209" y="453">requirements to initiate </tspan>
            <tspan x="209" y="477">development</tspan>
        </text>
        <text id="Zero-Release" font-family="GothamPro-Bold, Gotham Pro" font-size="24" font-weight="bold" fill="#353B50">
            <tspan x="608" y="400">Zero Release</tspan>
        </text>
        <text id="MONTHS" font-family="GothamPro-Bold, Gotham Pro" font-size="32" font-weight="bold" fill="#353B50">
            <tspan x="1200.104" y="387">MONTHS</tspan>
        </text>
        <text id="3-12" font-family="GothamPro-Bold, Gotham Pro" font-size="72" font-weight="bold" fill="#353B50">
            <tspan x="1200.416" y="344">3-12</tspan>
        </text>
        <text id="Dev-team-deploys-the" font-family="GothamPro, Gotham Pro" font-size="18" font-weight="normal" line-spacing="24" fill="#353B50">
            <tspan x="608" y="429">Dev team deploys the </tspan>
            <tspan x="608" y="453">backbone solution into cloud </tspan>
            <tspan x="608" y="477">and sets up CI/CD pipeline</tspan>
        </text>
        <g id="speak" transform="translate(80.000000, 7.000000)" fill-rule="nonzero">
            <path d="M58.828125,19.0689698 C58.1806641,19.0689698 57.65625,19.5941162 57.65625,20.2408447 L57.65625,24.4171143 C57.65625,26.8135987 55.7061768,28.7636719 53.3096924,28.7636719 L46.6300049,28.7636719 C46.3190917,28.7636719 46.0213623,28.8867188 45.8012695,29.1064453 L37.7032471,37.2048339 L37.7032471,29.9355469 C37.7032471,29.2880859 37.1784667,28.7636719 36.5313721,28.7636719 L19.7530518,28.7636719 C17.3565674,28.7636719 15.4064942,26.8139648 15.4064942,24.4171143 L15.4064942,6.68994141 C15.4064942,4.29345703 17.3565674,2.34375 19.7530518,2.34375 L53.3096924,2.34375 C55.7061768,2.34375 57.65625,4.29345703 57.65625,6.68994141 L57.65625,10.8658447 C57.65625,11.5133057 58.1806641,12.0377197 58.828125,12.0377197 C59.4748536,12.0377197 60,11.5133057 60,10.8658447 L60,6.68994141 C60,3.00109866 56.9989013,-2.66453526e-15 53.3096924,-2.66453526e-15 L19.7530518,-2.66453526e-15 C16.0638428,-2.66453526e-15 13.0627442,3.00109866 13.0627442,6.68994141 L13.0627442,21.7452393 L4.53332522,21.7452393 C2.0339355,21.7452393 0,23.7784424 0,26.2785645 L0,37.0773926 C0,39.5775146 2.0339355,41.6107177 4.53332522,41.6107177 L8.11743169,41.6107177 L13.9255371,47.4191895 C14.1500244,47.6436768 14.4499511,47.7626953 14.7546386,47.7626953 C14.9055176,47.7626953 15.0582276,47.7333984 15.2028808,47.6733398 C15.6408692,47.4920654 15.9265136,47.0650635 15.9265136,46.5908203 L15.9265136,41.6107177 L24.9755859,41.6107177 C27.4753418,41.6107177 29.5089112,39.5775146 29.5089112,37.0773926 L29.5089112,31.1074219 L35.3594971,31.1074219 L35.3594971,40.0338135 C35.3594971,40.5080567 35.6451416,40.9350586 36.0831299,41.116333 C36.2277833,41.1763916 36.380127,41.2056885 36.5313721,41.2056885 C36.8364258,41.2056885 37.1359864,41.0866699 37.3601074,40.8621826 L47.1152344,31.1074219 L53.3096924,31.1074219 C56.9989013,31.1074219 60,28.1063232 60,24.4171143 L60,20.2408447 C60,19.5941162 59.4748536,19.0689697 58.828125,19.0689698 Z M27.1655273,37.0773926 C27.1655273,38.2851562 26.1833496,39.2669677 24.9755859,39.2669677 L14.7546386,39.2669677 C14.1071777,39.2669677 13.5827636,39.7921143 13.5827636,40.4388427 L13.5827636,43.7618408 L9.43139644,39.6104737 C9.21166988,39.3907471 8.91357422,39.2669677 8.60266116,39.2669677 L4.53332522,39.2669677 C3.32592769,39.2669677 2.34375,38.2851562 2.34375,37.0773926 L2.34375,26.2785645 C2.34375,25.071167 3.32592769,24.0889893 4.53332522,24.0889893 L13.0627442,24.0889893 L13.0627442,24.4171143 C13.0627442,28.1063232 16.0638427,31.1074219 19.7530518,31.1074219 L27.1655273,31.1074219 L27.1655273,37.0773926 Z" id="Shape" fill="#353B50"></path>
            <path d="M47.9571533,7.67944331 L25.1055908,7.67944331 C24.4584961,7.67944331 23.9337158,8.20422366 23.9337158,8.85131831 C23.9337158,9.49877925 24.4584961,10.0231933 25.1055908,10.0231933 L47.9571533,10.0231933 C48.604248,10.0231933 49.1290283,9.49877925 49.1290283,8.85131831 C49.1290283,8.20422366 48.604248,7.67944331 47.9571533,7.67944331 L47.9571533,7.67944331 Z" id="Path" fill="#EA4A35"></path>
            <path d="M49.1290283,15.1798096 C49.1290283,14.5327148 48.604248,14.0079346 47.9571533,14.0079346 L25.1055908,14.0079346 C24.4584961,14.0079346 23.9337158,14.5327148 23.9337158,15.1798096 C23.9337158,15.8272705 24.4584961,16.3516846 25.1055908,16.3516846 L47.9571533,16.3516846 C48.604248,16.3516846 49.1290283,15.8272705 49.1290283,15.1798096 Z" id="Path" fill="#EA4A35"></path>
            <path d="M25.1055908,20.3360596 C24.4584961,20.3360596 23.9337158,20.8608398 23.9337158,21.5079346 C23.9337158,22.1553955 24.4584961,22.6798096 25.1055908,22.6798096 L38.2891846,22.6798096 C38.9362792,22.6798096 39.4610596,22.1553955 39.4610596,21.5079346 C39.4610596,20.8608398 38.9362792,20.3360596 38.2891846,20.3360596 L25.1055908,20.3360596 Z" id="Path" fill="#EA4A35"></path>
            <path d="M58.828125,14.3814698 C58.1828614,14.3814698 57.65625,14.908081 57.65625,15.5533448 C57.65625,16.1989746 58.1828614,16.7252198 58.828125,16.7252198 C59.4733886,16.7252198 60,16.1989746 60,15.5533448 C60,14.908081 59.4733886,14.3814698 58.828125,14.3814698 Z" id="Path" fill="#000000"></path>
        </g>
        <g id="search" transform="translate(209.000000, 322.000000)" fill-rule="nonzero">
            <path d="M13.9999687,31.9999688 C12.343125,31.9999688 10.9999687,33.343125 10.9999687,34.9999688 L10.9999687,45 C10.9999687,46.6568438 12.343125,48 13.9999687,48 C15.6568125,48 16.9999688,46.6568438 16.9999688,45 L16.9999688,34.9999688 C16.9999688,33.343125 15.6568125,31.9999688 13.9999687,31.9999688 Z M15,45 C15,45.5522813 14.55225,46.0000312 13.9999687,46.0000312 C13.4476875,46.0000312 12.9999375,45.5522812 12.9999375,45 L12.9999375,34.9999688 C12.9999375,34.4476875 13.4476875,33.9999375 13.9999687,33.9999375 C14.55225,33.9999375 15,34.4476875 15,34.9999688 L15,45 Z" id="Shape" fill="#EA4A35"></path>
            <rect id="Rectangle" fill="#EA4A35" x="13.0000313" y="27" width="1.99996875" height="6"></rect>
            <path d="M46.9999687,31.9999688 L40.9999688,31.9999688 C38.239875,32.00325 36.0032813,34.2399375 36,36.9999375 L36,42.9999375 C36,43.5522188 36.44775,43.9999688 37.0000312,43.9999688 C37.26525,43.9999688 37.5195,43.8945 37.707,43.707 L47.7070312,33.7069688 C47.8944375,33.5194688 47.9998125,33.2653125 47.9998125,33.0001875 C47.9998125,32.4479062 47.55225,32.0001562 46.9999687,31.9999688 Z M37.9999688,40.5859687 L37.9999688,36.9999375 C37.9999688,35.3430937 39.343125,33.9999375 40.9999688,33.9999375 L44.586,33.9999375 L37.9999688,40.5859687 Z" id="Shape" fill="#353B50"></path>
            <path d="M43.0000313,0 L25.9999687,0 L25.9999687,1.99996875 L42.9999375,1.99996875 C44.6567813,1.99996875 45.9999375,3.343125 45.9999375,4.99996875 L45.9999375,32.586 L36.5860313,42 L19.9999687,42 L19.9999687,43.9999688 L36.9999375,43.9999688 C37.2651563,43.9999688 37.5194063,43.8945 37.7069063,43.707 L47.7069375,33.7069687 C47.8945313,33.5194688 47.9999063,33.265125 47.9999063,33 L47.9999063,4.99996875 C47.9967188,2.23996875 45.7600313,0.00328125 43.0000313,0 Z" id="Path" fill="#353B50"></path>
            <path d="M13.9999687,0 C6.26803125,0 0,6.26803125 0,13.9999687 C0,21.7319063 6.26803125,27.9999375 13.9999687,27.9999375 C21.7285312,27.9916875 27.9916875,21.7285312 27.9999375,13.9999687 C27.9999375,6.26803125 21.732,0 13.9999687,0 Z M13.9999687,25.9999688 C7.37259375,25.9999688 1.99996875,20.6273438 1.99996875,13.9999688 C1.99996875,7.37259375 7.37259375,1.99996875 13.9999687,1.99996875 C20.6244375,2.00709375 25.9928437,7.3755 25.9999688,13.9999688 C25.9999688,20.6274375 20.6274375,25.9999688 13.9999687,25.9999688 Z" id="Shape" fill="#EA4A35"></path>
            <path d="M6,13.9999687 L7.99996875,13.9999687 C8.00325,10.6875937 10.6875937,8.00325 13.9999687,7.99996875 L13.9999687,6 C9.58378125,6.00496875 6.00496875,9.58378125 6,13.9999687 Z" id="Path" fill="#EA4A35"></path>
        </g>
        <g id="paper" transform="translate(381.000000, 8.000000)" fill-rule="nonzero">
            <path d="M25.054,48 C24.66,48 24.276,47.844 23.994,47.56 C23.648,47.214 23.492,46.72 23.578,46.24 L24.638,40.23 C24.692,39.926 24.838,39.646 25.054,39.43 L39.904,24.58 C40.536,23.948 41.206,23.552 41.896,23.41 C42.848,23.208 43.774,23.5 44.5,24.226 L46.974,26.7 C48.338,28.066 48.338,30.284 46.974,31.65 L32.126,46.5 C31.908,46.716 31.628,46.864 31.326,46.916 L25.316,47.976 C25.228,47.992 25.142,48 25.054,48 L25.054,48 Z M27.51,41.216 L26.904,44.65 L30.338,44.044 L44.852,29.528 C45.046,29.332 45.046,29.016 44.852,28.82 L42.396,26.364 C42.376,26.402 42.226,26.496 42.024,26.698 L27.51,41.216 Z" id="Shape" fill="#EA4A35"></path>
            <path d="M20.02,42 L5.5,42 C2.466,42 0,39.534 0,36.5 L0,5.5 C0,2.466 2.466,0 5.5,0 L28.5,0 C31.534,0 34,2.466 34,5.5 L34,25.62 C34,26.448 33.328,27.12 32.5,27.12 C31.672,27.12 31,26.448 31,25.62 L31,5.5 C31,4.122 29.878,3 28.5,3 L5.5,3 C4.122,3 3,4.122 3,5.5 L3,36.5 C3,37.878 4.122,39 5.5,39 L20.02,39 C20.848,39 21.52,39.672 21.52,40.5 C21.52,41.328 20.848,42 20.02,42 Z" id="Path" fill="#353B50"></path>
            <path d="M26.5,19 L7.5,19 C6.672,19 6,18.328 6,17.5 C6,16.672 6.672,16 7.5,16 L26.5,16 C27.328,16 28,16.672 28,17.5 C28,18.328 27.328,19 26.5,19 Z" id="Path" fill="#353B50"></path>
            <path d="M18.5,27 L7.5,27 C6.672,27 6,26.328 6,25.5 C6,24.672 6.672,24 7.5,24 L18.5,24 C19.328,24 20,24.672 20,25.5 C20,26.328 19.328,27 18.5,27 Z" id="Path" fill="#353B50"></path>
            <path d="M16.5,11 L7.5,11 C6.672,11 6,10.328 6,9.5 C6,8.672 6.672,8 7.5,8 L16.5,8 C17.328,8 18,8.672 18,9.5 C18,10.328 17.328,11 16.5,11 Z" id="Path" fill="#353B50"></path>
        </g>
        <g id="delivery" transform="translate(610.000000, 323.000000)" fill-rule="nonzero">
            <path d="M59.3920898,11.2124634 L39.2358398,0.14465332 C38.8847351,-0.0480651562 38.4590149,-0.0480651562 38.1079102,0.14465332 L30.5282592,4.30664062 C30.3570557,4.35424805 30.1972962,4.44168094 30.0617981,4.56253055 L17.9516602,11.2124634 C17.5767517,11.418457 17.34375,11.8121338 17.34375,12.239685 L17.34375,14.6356201 L3.82324219,14.6356201 C3.1759643,14.6356201 2.65136719,15.1606751 2.65136719,15.8074951 C2.65136719,16.4547729 3.1759643,16.9793701 3.82324219,16.9793701 L17.34375,16.9793701 L17.34375,21.1981201 L10.6251526,21.1981201 C9.97787473,21.1981201 9.45327762,21.7231751 9.45327762,22.3699951 C9.45327762,23.0172729 9.97787473,23.5418701 10.6251526,23.5418701 L17.34375,23.5418701 L17.34375,29.6356201 L7.5,29.6356201 C6.85272211,29.6356201 6.328125,30.1606751 6.328125,30.8074951 C6.328125,31.4547729 6.85272211,31.9793701 7.5,31.9793701 L17.34375,31.9793701 L17.34375,34.375763 C17.34375,34.8033142 17.5767517,35.1969909 17.9516602,35.4029846 L38.1079102,46.4707946 C38.2836914,46.5673828 38.4777832,46.615448 38.671875,46.615448 C38.8659668,46.615448 39.0600586,46.5673828 39.2358398,46.4707946 L59.3920898,35.4029846 C59.7669983,35.1969909 60,34.8033142 60,34.375763 L60,29.1279602 C60,28.4811401 59.4754029,27.9560852 58.828125,27.9560852 C58.1808471,27.9560852 57.65625,28.4811401 57.65625,29.1279602 L57.65625,33.682251 L39.84375,43.4632874 L39.84375,24.0010071 L45.5085755,20.8905029 L45.5085755,25.8270264 C45.5085755,26.2417603 45.7273864,26.6253662 46.0839844,26.8359375 C46.2675476,26.9444275 46.473999,26.9989014 46.6804505,26.9989014 C46.8745423,26.9989014 47.0690918,26.9508362 47.2453308,26.8537903 L51.5647888,24.4766236 C51.9387818,24.2706299 52.1713256,23.8774109 52.1713256,23.4498596 L52.1713256,17.2320557 L57.65625,14.2204284 L57.65625,19.7529602 C57.65625,20.400238 58.1808471,20.9248352 58.828125,20.9248352 C59.4754029,20.9248352 60,20.400238 60,19.7529602 L60,12.239685 C60,11.8121338 59.7669983,11.418457 59.3920898,11.2124634 L59.3920898,11.2124634 Z M37.5,43.4632874 L19.6875,33.682251 L19.6875,14.2204284 L37.5,24.0010071 L37.5,43.4632874 Z M38.671875,21.9708252 L20.95047,12.239685 L26.5200806,9.18136594 L44.2419434,18.9125061 L38.671875,21.9708252 Z M46.6767884,17.5753784 L28.9549255,7.84423828 L30.8761596,6.78955078 L48.5975647,16.5206909 L46.6767884,17.5753784 Z M49.8275756,22.7572631 L47.8523255,23.8444519 L47.8523255,19.6037292 L49.8275756,18.5188294 L49.8275756,22.7572631 Z M51.0324096,15.1835632 L33.3110046,5.45242312 L38.671875,2.50900266 L56.39328,12.239685 L51.0324096,15.1835632 Z" id="Shape" fill="#353B50"></path>
            <path d="M58.828125,23.269043 C58.5200501,23.269043 58.2174682,23.393097 57.9995728,23.6123658 C57.7816772,23.8302612 57.65625,24.1314697 57.65625,24.440918 C57.65625,24.7489929 57.7816772,25.0515748 57.9995728,25.2694702 C58.2174682,25.4873658 58.5200501,25.612793 58.828125,25.612793 C59.1361999,25.612793 59.4387818,25.4873658 59.6566772,25.2694702 C59.8745728,25.0515748 60,24.7489929 60,24.440918 C60,24.1314697 59.8745728,23.8302612 59.6566772,23.6123658 C59.4387818,23.393097 59.1361999,23.269043 58.828125,23.269043 Z" id="Path" fill="#EA4A35"></path>
            <path d="M2.85140988,29.6356201 L1.171875,29.6356201 C0.524597109,29.6356201 0,30.1606751 0,30.8074951 C0,31.4547729 0.524597109,31.9793701 1.171875,31.9793701 L2.85140988,31.9793701 C3.49868777,31.9793701 4.02328488,31.4547729 4.02328488,30.8074951 C4.02328488,30.1606751 3.49868777,29.6356201 2.85140988,29.6356201 Z" id="Path" fill="#EA4A35"></path>
            <path d="M7.10998535,22.3699951 C7.10998535,22.0619202 6.98455805,21.7597962 6.7662048,21.5419007 C6.5483093,21.3235474 6.24618527,21.1981201 5.93811035,21.1981201 C5.62957758,21.1981201 5.32745367,21.3235474 5.10955805,21.5419007 C4.89028934,21.7597962 4.76623535,22.0619202 4.76623535,22.3699951 C4.76623535,22.6785279 4.89028934,22.9806518 5.10955805,23.1985474 C5.32745367,23.4164428 5.62957758,23.5418701 5.93811035,23.5418701 C6.24618527,23.5418701 6.5483093,23.4169007 6.7662048,23.1985474 C6.98455805,22.9806518 7.10998535,22.6785279 7.10998535,22.3699951 Z" id="Path" fill="#EA4A35"></path>
        </g>
        <g id="Group" transform="translate(924.000000, 8.000000)">
            <path d="M33.2921876,13.9686196 C34.5338161,14.8648648 36.0528828,15.392 37.6934457,15.392 C41.8878022,15.392 45.288,11.9463834 45.288,7.696 C45.288,3.44561657 41.8878022,0 37.6934457,0 C34.3401102,0 31.4943852,2.20236998 30.488,5.25759193" id="Path" stroke="#EA4A35" stroke-width="2.96"></path>
            <path d="M23.088,45.584 C32.7331009,45.584 40.552,37.7651009 40.552,28.12 C40.552,18.4748991 32.7331009,10.656 23.088,10.656 C13.4428991,10.656 5.624,18.4748991 5.624,28.12 C5.624,32.2776513 7.07687481,36.0959656 9.50261891,39.0949372" id="Path" stroke="#353B50" stroke-width="2.96" stroke-linecap="round"></path>
            <path d="M35.816,28.416 C35.816,21.549996 30.250004,15.984 23.384,15.984" id="Path" stroke="#353B50" stroke-width="1.184" stroke-linecap="round"></path>
            <line x1="0" y1="44.992" x2="45.584" y2="45.584" id="Line" stroke="#353B50" stroke-width="3.552" stroke-linecap="round"></line>
            <polyline id="Path-12" stroke="#353B50" stroke-width="2.368" stroke-linecap="round" stroke-linejoin="round" transform="translate(9.768000, 38.776000) rotate(-45.000000) translate(-9.768000, -38.776000) " points="5.624 36.704 9.768 40.848 13.912 36.704"></polyline>
            <polyline id="Path-12" stroke="#353B50" stroke-width="2.368" stroke-linecap="round" stroke-linejoin="round" transform="translate(45.584000, 45.288000) rotate(-90.000000) translate(-45.584000, -45.288000) " points="41.44 43.216 45.584 47.36 49.728 43.216"></polyline>
            <polyline id="Path-12" stroke="#EA4A35" stroke-width="2.368" stroke-linecap="round" stroke-linejoin="round" transform="translate(30.784000, 5.032000) rotate(-345.000000) translate(-30.784000, -5.032000) " points="26.64 2.96 30.784 7.104 34.928 2.96"></polyline>
        </g>
        <text id="1" font-family="GothamPro-Bold, Gotham Pro" font-size="18" font-weight="bold" fill="#FFFFFF">
            <tspan x="51" y="248">1</tspan>
        </text>
        <text id="2" font-family="GothamPro-Bold, Gotham Pro" font-size="18" font-weight="bold" fill="#FFFFFF">
            <tspan x="179" y="248">2</tspan>
        </text>
        <text id="3" font-family="GothamPro-Bold, Gotham Pro" font-size="18" font-weight="bold" fill="#FFFFFF">
            <tspan x="349" y="248">3</tspan>
        </text>
        <text id="4" font-family="GothamPro-Bold, Gotham Pro" font-size="18" font-weight="bold" fill="#FFFFFF">
            <tspan x="577" y="248">4</tspan>
        </text>
        <text id="5" font-family="GothamPro-Bold, Gotham Pro" font-size="18" font-weight="bold" fill="#FFFFFF">
            <tspan x="893" y="248">5</tspan>
        </text>
        <text id="Project-Estimate" font-family="GothamPro-Bold, Gotham Pro" font-size="14" font-weight="bold" fill="#353B50">
            <tspan x="1201.428" y="277">PROJECT ESTIMATE</tspan>
        </text>
    </g>
</svg>