<svg width="64" height="65" viewBox="0 0 64 65" fill="none" xmlns="http://www.w3.org/2000/svg">
<path d="M44.5804 5.61619C46.3522 4.5922 47.795 5.41528 47.8008 7.45331L47.894 44.0511C47.8997 46.0891 46.4663 48.5745 44.6945 49.5985L23.2374 61.9995C21.4598 63.0269 20.017 62.2038 20.0112 60.1658L19.918 23.568C19.9122 21.5299 21.3457 19.0445 23.1232 18.0172L44.5804 5.61619Z" fill="white"/>
<path d="M29.4536 33.286C29.4529 33.0295 29.2704 32.9253 29.0413 33.0576L27.6963 33.8341C27.4731 33.963 27.2915 34.2774 27.2923 34.5338L27.2992 36.9904C27.2995 37.0965 27.2271 37.2112 27.1447 37.2588C27.1223 37.2717 27.0991 37.2797 27.0766 37.2811L25.1297 37.3912C25.0739 37.3941 25.0155 37.4139 24.9582 37.4471C24.8043 37.5359 24.658 37.721 24.59 37.9327L24.036 39.6653C23.9427 39.9558 24.0375 40.1782 24.2433 40.1676L25.3786 40.107C25.5314 40.0931 25.5321 40.3496 25.3797 40.5187L24.2478 41.7603C24.0426 41.9869 23.9494 42.3179 24.044 42.4998L24.606 43.5882C24.6759 43.7226 24.8257 43.7371 24.982 43.6469C25.0373 43.6149 25.0933 43.57 25.1471 43.5124L27.0882 41.3709C27.1099 41.3473 27.132 41.3294 27.1537 41.3169C27.2372 41.2687 27.3115 41.3023 27.3117 41.4041L27.3187 43.8674C27.3195 44.1239 27.5022 44.228 27.7254 44.0991L29.0704 43.3226C29.2995 43.1903 29.4808 42.876 29.4801 42.6196L29.4731 40.1563C29.4728 40.0544 29.5468 39.9352 29.6273 39.8888C29.6482 39.8767 29.6694 39.8696 29.69 39.8688L31.6428 39.7621C31.6966 39.7576 31.7528 39.7377 31.8081 39.7058C31.9644 39.6155 32.1136 39.4284 32.1825 39.2139L32.7365 37.4812C32.8239 37.1942 32.735 36.9683 32.529 36.9791L31.394 37.0463C31.2409 37.0536 31.2402 36.7971 31.3928 36.6347L32.5245 35.3864C32.7299 35.1596 32.8172 34.8321 32.7285 34.6467L32.1665 33.5584C32.0975 33.4257 31.9507 33.4099 31.7966 33.4989C31.7394 33.5319 31.6811 33.5794 31.6254 33.6409L29.6784 35.779C29.6571 35.8029 29.6349 35.8211 29.6134 35.8335C29.5338 35.8795 29.4609 35.8487 29.4606 35.7425L29.4536 33.286Z" fill="#EA4A35"/>
<path d="M47.8931 44.0493C47.9022 46.0877 46.4697 48.577 44.6945 49.5962L23.2418 61.9978C21.4576 63.0259 20.0161 62.2052 20.0161 60.1668L19.998 54.4486C21.5838 54.9266 23.2418 55.1792 24.9446 55.1792C36.1891 55.1792 45.3164 41.4671 45.3164 27.9923C45.3164 20.5243 42.5142 13.841 38.0813 9.36745L44.5775 5.61539C46.3525 4.5962 47.7942 5.41699 47.8032 7.45536L47.8931 44.0493Z" fill="white"/>
<path d="M21.7925 62.8198C21.4217 62.8198 21.0756 62.732 20.7673 62.5546C20.0407 62.1369 19.639 61.289 19.6358 60.1663L19.543 23.5684C19.5366 21.4122 21.0586 18.7757 22.9359 17.6911L44.3932 5.28991C45.3743 4.72281 46.3164 4.64239 47.0462 5.06243C47.7732 5.48063 48.1753 6.32897 48.1786 7.45213L48.2714 44.0496C48.2778 46.2053 46.7581 48.8409 44.884 49.9241L23.4272 62.3248C22.8578 62.6539 22.3017 62.8198 21.7925 62.8198ZM46.0191 5.55094C45.6446 5.55094 45.219 5.68237 44.77 5.94156L23.3128 18.3428C21.6436 19.3074 20.2902 21.6507 20.2957 23.5666L20.3886 60.1644C20.3913 61.0068 20.6588 61.624 21.1427 61.902C21.6317 62.1828 22.3091 62.1015 23.0503 61.6732L44.5071 49.2724C46.173 48.3092 47.5241 45.9673 47.5186 44.0514L47.4258 7.45397C47.423 6.61114 47.1551 5.99349 46.6707 5.715C46.48 5.60517 46.2599 5.55094 46.0191 5.55094Z" fill="#353B50"/>
<path d="M16.1055 21.3548L16.2047 57.9488C16.2047 58.9589 16.565 59.6715 17.1418 60.0052L20.944 62.224C20.3672 61.8902 20.0159 61.1777 20.0159 60.1675L19.9167 23.5645C19.9167 22.6444 20.2192 21.6387 20.7029 20.7127L16.8901 18.5021C16.4075 19.4293 16.1055 20.4357 16.1055 21.3548Z" fill="white"/>
<path d="M20.9431 62.5994C20.8793 62.5994 20.8145 62.5833 20.7552 62.5488C20.7506 62.5465 20.7464 62.5438 20.7423 62.5415L16.9514 60.3296C16.2271 59.9105 15.8278 59.0644 15.8278 57.9477L15.7285 21.3549C15.7285 21.3544 15.7285 21.3553 15.7285 21.3549C15.7285 20.4151 16.0144 19.3677 16.5557 18.3273C16.6035 18.2359 16.6862 18.1683 16.7846 18.1393C16.8829 18.1122 16.99 18.1237 17.0787 18.1752L20.8912 20.3857C21.0654 20.4868 21.1293 20.7074 21.036 20.8857C20.5566 21.8034 20.2929 22.7547 20.2929 23.5635L20.3921 60.1655C20.3921 61.0015 20.6518 61.6136 21.1233 61.8921L21.1334 61.8976C21.3126 62.0024 21.3733 62.2326 21.269 62.4123C21.1991 62.5323 21.0732 62.5994 20.9431 62.5994ZM16.4813 21.353L16.5805 57.9468C16.5805 58.7841 16.8466 59.399 17.3296 59.6784L19.7418 61.0856C19.6738 60.8062 19.6394 60.4983 19.6394 60.1665L19.5401 23.5644C19.5401 22.7198 19.7703 21.7915 20.2083 20.8604L17.0507 19.0295C16.6821 19.836 16.4817 20.649 16.4813 21.353Z" fill="#353B50"/>
<path d="M43.0552 3.17967C42.4694 2.83699 41.6586 2.88207 40.7756 3.39618L19.3136 15.7977C18.3391 16.3623 17.4782 17.3718 16.8906 18.5009L20.7034 20.7115C21.2909 19.5861 22.151 18.5805 23.1249 18.0164L44.5778 5.6149C45.4698 5.10079 46.2807 5.0557 46.8664 5.38941L43.0552 3.17967Z" fill="white"/>
<path d="M20.7029 21.0881C20.6372 21.0881 20.572 21.0711 20.5141 21.0376L16.7016 18.8271C16.5274 18.726 16.4635 18.5059 16.5563 18.3276C17.2029 17.0845 18.1391 16.0436 19.1243 15.4723L40.5871 3.07068C41.5508 2.51139 42.5186 2.43235 43.2438 2.85422L47.055 5.06424C47.2342 5.16856 47.2958 5.39788 47.1924 5.57757C47.0894 5.75726 46.8596 5.82114 46.6795 5.71682C46.1855 5.43649 45.5058 5.51553 44.7654 5.94154L23.3132 18.3427C22.4493 18.8437 21.6193 19.7706 21.0366 20.8859C20.9892 20.9769 20.9065 21.0449 20.8077 21.0734C20.7732 21.0835 20.7379 21.0881 20.7029 21.0881ZM17.3978 18.3602L20.5595 20.1934C21.1928 19.1079 22.0444 18.2076 22.9359 17.6911L44.3891 5.28943C44.691 5.11525 44.9897 4.98704 45.2801 4.9057L42.8661 3.50588L42.8652 3.50496C42.3812 3.22233 41.6891 3.30092 40.9649 3.72187L19.5016 16.124C18.7195 16.5776 17.9653 17.3818 17.3978 18.3602Z" fill="#353B50"/>
<path d="M40.9733 12.97C40.6924 12.8107 40.3083 12.8295 39.8871 13.0731L29.7005 18.959C28.8577 19.4464 28.1742 20.6272 28.1742 21.5926L28.193 24.9637C28.193 25.4417 28.3617 25.7884 28.633 25.9477L26.8494 24.9168C26.5778 24.7575 26.4094 24.4201 26.4094 23.9327L26.3906 20.5617C26.3906 19.5964 27.0741 18.4248 27.9169 17.9374L38.1035 12.0422C38.5247 11.7985 38.9085 11.7798 39.1895 11.9391L40.9733 12.97Z" fill="white"/>
<path d="M28.6318 26.3239C28.5679 26.3239 28.5031 26.3078 28.4438 26.2733L26.6603 25.2425C26.2545 25.0045 26.0325 24.5394 26.0325 23.9323L26.0137 20.5638C26.0137 19.4631 26.7664 18.1672 27.7278 17.6111L37.9144 11.7159C38.4332 11.4176 38.9645 11.379 39.3749 11.6116L41.1612 12.6437C41.3404 12.7471 41.4025 12.9764 41.2995 13.1566C41.1975 13.3358 40.9686 13.3992 40.7876 13.2972C40.6152 13.1993 40.3551 13.237 40.0748 13.3988L29.8882 19.2843C29.163 19.7039 28.55 20.7609 28.55 21.5922L28.5688 24.9613C28.5688 25.283 28.6639 25.5293 28.823 25.623C29.0017 25.7283 29.0619 25.9581 28.9576 26.1373C28.8878 26.2572 28.7614 26.3239 28.6318 26.3239ZM38.7821 12.2122C38.6387 12.2122 38.4691 12.2646 38.2912 12.3675L28.1047 18.2627C27.3795 18.6823 26.7664 19.7352 26.7664 20.5615L26.7853 23.93C26.7853 24.2568 26.8781 24.4971 27.0394 24.5922L27.8174 25.0417C27.8165 25.016 27.8161 24.9898 27.8161 24.9636L27.7972 21.5945C27.7972 20.4888 28.55 19.1888 29.5114 18.6327L39.698 12.7471C39.7214 12.7333 39.7448 12.7205 39.7678 12.7081L39.0003 12.2646C38.9388 12.2297 38.8648 12.2122 38.7821 12.2122Z" fill="#353B50"/>
<path d="M39.8834 13.0757C40.7203 12.592 41.4099 12.9786 41.4126 13.9413L41.4228 17.3145C41.4255 18.284 40.7403 19.4651 39.9034 19.9488L29.7173 25.8358C28.8744 26.323 28.1906 25.933 28.1879 24.9635L28.1777 21.5903C28.175 20.6277 28.8543 19.4499 29.6972 18.9627L39.8834 13.0757Z" fill="white"/>
<path d="M29.031 26.4236C28.8215 26.4236 28.6239 26.373 28.4469 26.271C28.0384 26.0362 27.8127 25.572 27.8109 24.9645L27.8008 21.5913C27.7976 20.4897 28.5476 19.1919 29.5081 18.6368L39.6946 12.7498C40.2167 12.4488 40.7479 12.4098 41.1533 12.6428C41.5609 12.8776 41.7865 13.3385 41.7884 13.9406L41.7985 17.3137C41.8017 18.4185 41.0517 19.7195 40.0912 20.2747L29.9051 26.1616C29.6041 26.3358 29.3068 26.4236 29.031 26.4236ZM40.0715 13.4015L29.8849 19.2884C29.1611 19.7071 28.5513 20.7604 28.5535 21.5895L28.5637 24.9626C28.5646 25.2852 28.6588 25.5242 28.8224 25.6184C28.9878 25.7135 29.2456 25.6745 29.5283 25.51L39.7144 19.623C40.4382 19.2043 41.048 18.1478 41.0457 17.3156L41.0356 13.9424C41.0347 13.6248 40.9405 13.3891 40.7778 13.2953C40.611 13.2002 40.3541 13.2379 40.0715 13.4015Z" fill="#353B50"/>
<path d="M31.6419 20.3533C32.1344 20.0686 32.5353 20.2972 32.5369 20.8645C32.5379 21.2223 32.3794 21.6294 32.1385 21.9526C31.9979 22.1413 31.8292 22.3014 31.6477 22.4063C31.4656 22.5115 31.2961 22.5466 31.1547 22.5207C30.913 22.4763 30.7531 22.2535 30.7521 21.8961C30.7505 21.3288 31.1487 20.6383 31.6419 20.3533Z" fill="#353B50"/>
<path d="M37.9543 16.7046C38.4468 16.4199 38.8476 16.6486 38.8492 17.2158C38.8503 17.5736 38.6918 17.9807 38.4509 18.304C38.3103 18.4926 38.1416 18.6527 37.9601 18.7576C37.778 18.8628 37.6085 18.8979 37.467 18.872C37.2253 18.8276 37.0655 18.6048 37.0645 18.2474C37.0629 17.6801 37.4611 16.9896 37.9543 16.7046Z" fill="#353B50"/>
<path d="M33.2689 30.9235C33.1389 30.9235 33.0125 30.8564 32.9427 30.7355C32.8383 30.5554 32.8999 30.3252 33.0801 30.2213L44.0939 23.8555C44.2749 23.7512 44.5042 23.8132 44.6081 23.9929C44.7124 24.173 44.6508 24.4033 44.4707 24.5071L33.4569 30.873C33.3976 30.9074 33.3328 30.9235 33.2689 30.9235ZM36.1403 35.7696C36.0102 35.7696 35.8838 35.7025 35.814 35.5816C35.7097 35.4014 35.7712 35.1712 35.9514 35.0673L44.0939 30.3615C44.2749 30.2571 44.5042 30.3192 44.6081 30.4989C44.7124 30.679 44.6508 30.9093 44.4707 31.0131L36.3282 35.719C36.2689 35.7535 36.2042 35.7696 36.1403 35.7696ZM26.0157 48.1887C25.8857 48.1887 25.7598 48.1216 25.6899 48.0016C25.5851 47.8219 25.6462 47.5912 25.8259 47.4869L38.8701 39.9037C39.0502 39.798 39.2804 39.8605 39.3848 40.0398C39.4895 40.2195 39.4284 40.4502 39.2487 40.5545L26.2046 48.1377C26.1449 48.1726 26.0801 48.1887 26.0157 48.1887ZM41.7639 39.0338C41.6343 39.0338 41.5079 38.9667 41.4381 38.8468C41.3333 38.6671 41.3944 38.4364 41.5741 38.3321L44.0929 36.8674C44.2726 36.7617 44.5029 36.8238 44.6076 37.0035C44.7124 37.1832 44.6513 37.4139 44.4716 37.5182L41.9528 38.9828C41.893 39.0177 41.8282 39.0338 41.7639 39.0338ZM26.0157 54.6942C25.8857 54.6942 25.7598 54.6271 25.6899 54.5071C25.5851 54.3275 25.6462 54.0968 25.8259 53.9924L29.9022 51.623C30.0828 51.5173 30.3131 51.5798 30.4169 51.759C30.5217 51.9387 30.4606 52.1694 30.2809 52.2737L26.2046 54.6432C26.1449 54.6781 26.0801 54.6942 26.0157 54.6942ZM32.9937 50.6377C32.8641 50.6377 32.7377 50.5706 32.6678 50.4506C32.5631 50.2709 32.6242 50.0402 32.8039 49.9359L44.0929 43.3734C44.2726 43.2682 44.5029 43.3302 44.6076 43.5094C44.7124 43.6891 44.6513 43.9198 44.4716 44.0241L33.1826 50.5866C33.1228 50.6216 33.058 50.6377 32.9937 50.6377Z" fill="#353B50"/>
</svg>
