<svg width="64" height="65" viewBox="0 0 64 65" fill="none" xmlns="http://www.w3.org/2000/svg">
<path d="M45.7293 40.1387C45.6641 40.1387 45.5988 40.1217 45.54 40.0877L41.8327 37.9282C41.8272 37.9264 41.8217 37.9241 41.8162 37.9218C41.6751 37.8634 41.579 37.7306 41.579 37.5785C41.4375 37.084 41.3626 36.5321 41.3626 35.9788C41.3529 33.255 42.8594 29.9719 45.1112 27.8106C45.2321 27.6938 45.4159 27.6722 45.5611 27.7568L49.3258 29.9498C49.4279 30.0091 49.4963 30.113 49.5101 30.2301C49.5244 30.3473 49.483 30.4641 49.398 30.5459C49.1438 30.7913 48.8989 31.0449 48.6622 31.3267C48.307 31.737 47.9798 32.1805 47.6861 32.6493C46.9269 33.8299 46.3814 35.0996 46.1062 36.3248C46.0795 36.4406 46.0533 36.5537 46.0358 36.6667C46.0087 36.7908 45.994 36.8905 45.9793 36.988L45.9499 37.1727C45.904 37.5238 45.8801 37.8524 45.8801 38.1621C45.8801 38.3023 45.8888 38.4337 45.898 38.5734C45.9223 38.9457 45.9871 39.3074 46.0901 39.6552C46.1342 39.8032 46.0832 39.9631 45.9619 40.0583C45.8938 40.1116 45.812 40.1387 45.7293 40.1387ZM42.2799 37.3175L45.1847 39.0096C45.1677 38.8836 45.1553 38.7568 45.1471 38.6295C45.1365 38.4654 45.1273 38.3188 45.1273 38.1621C45.1273 37.8193 45.153 37.4581 45.2059 37.0583L45.2348 36.8754C45.2523 36.7609 45.2702 36.6442 45.296 36.5275C45.3116 36.4204 45.3415 36.2881 45.3722 36.1566C45.6659 34.8492 46.2468 33.4958 47.0506 32.2458C47.3621 31.7481 47.7128 31.2733 48.0896 30.8381C48.2307 30.6699 48.3759 30.5096 48.5248 30.3547L45.4311 28.5523C43.4306 30.578 42.1066 33.5266 42.1154 35.9774C42.1154 36.4172 42.1696 36.8565 42.2799 37.3175Z" fill="#353B50"/>
<path d="M48.4163 42.3037C48.4007 42.3037 48.3851 42.3037 48.3695 42.3032C47.7909 42.2811 47.2909 42.1428 46.8727 41.8924C46.7647 41.8276 46.6677 41.7628 46.5712 41.6878C46.5358 41.669 46.4637 41.6125 46.4044 41.5527C46.3869 41.5394 46.3704 41.5238 46.3557 41.5063C46.2716 41.4319 46.1916 41.3565 46.1195 41.2637C46.0188 41.1676 45.9173 41.0192 45.8267 40.8781C45.7316 40.7301 45.6466 40.5817 45.5726 40.4112C45.5657 40.3956 45.5579 40.3726 45.5501 40.3473C45.4798 40.1947 45.4196 40.0417 45.3681 39.8689C45.2495 39.4682 45.1746 39.0509 45.147 38.6295C45.1365 38.47 45.1365 38.3211 45.1365 38.1621C45.1365 37.7724 45.159 37.4112 45.2059 37.0583L45.2348 36.8753C45.2523 36.7609 45.2702 36.6442 45.2959 36.5275C45.3116 36.4204 45.3414 36.288 45.3722 36.1566C45.6659 34.8492 46.2468 33.4958 47.0505 32.2458C47.3754 31.7435 47.7238 31.2715 48.0864 30.8418C48.3391 30.5403 48.6025 30.2673 48.875 30.0045C49.4177 29.481 49.9986 29.0357 50.602 28.68C51.5193 28.1474 52.3902 27.8666 53.2357 27.8942C53.3741 27.8942 53.5174 27.9052 53.6503 27.9273C53.7344 27.9346 53.8327 27.9558 53.9315 27.9774C54.0317 27.9999 54.13 28.0321 54.2183 28.0647C54.2619 28.0757 54.3047 28.09 54.3304 28.1028L54.517 28.1777C54.5381 28.1869 54.6337 28.2352 54.6526 28.248C55.8185 28.8335 56.4867 30.1892 56.4963 32.0426C56.5064 35.5187 54.0492 39.7701 51.0188 41.5192C50.1406 42.0325 49.2413 42.3037 48.4163 42.3037ZM46.9104 40.9948C46.9485 41.0252 47.0243 41.0863 47.0335 41.0932C47.1061 41.1497 47.1792 41.198 47.2596 41.2467C47.568 41.4314 47.9481 41.5339 48.3888 41.5504C49.091 41.5785 49.8626 41.323 50.6411 40.868C53.4646 39.2384 55.7527 35.2811 55.7436 32.0454C55.7353 30.4898 55.2137 29.3717 54.2753 28.8979L54.0133 28.7853C53.9049 28.7513 53.8378 28.7278 53.7702 28.7131C53.6985 28.697 53.6291 28.681 53.5515 28.6731C53.4182 28.652 53.3074 28.6469 53.1925 28.6469C52.5142 28.6469 51.7527 28.8827 50.9821 29.3299C50.432 29.6548 49.898 30.0642 49.3975 30.5463C49.1438 30.7912 48.8989 31.0449 48.6622 31.3266C48.3194 31.7329 47.9903 32.1791 47.6833 32.6538C46.9269 33.8299 46.3814 35.0996 46.1061 36.3248C46.0795 36.4406 46.0533 36.5537 46.0358 36.6667C46.0087 36.7908 45.994 36.8905 45.9793 36.9879L45.9499 37.1727C45.9099 37.4769 45.8892 37.806 45.8892 38.1621C45.8892 38.3046 45.8892 38.4378 45.8984 38.5808C45.9223 38.9457 45.9871 39.3073 46.0901 39.6552C46.1319 39.7968 46.182 39.9208 46.2403 40.0454C46.2509 40.0684 46.2592 40.0918 46.2647 40.1162C46.3286 40.2563 46.3911 40.3634 46.4605 40.4709C46.5386 40.5936 46.6061 40.6901 46.6824 40.7664C46.7633 40.8652 46.8212 40.9135 46.8777 40.9631C46.8888 40.9728 46.8998 40.9838 46.9104 40.9948Z" fill="#353B50"/>
<path d="M37.6659 50.1625C37.6011 50.1625 37.5359 50.146 37.4766 50.1115L33.711 47.9231C33.6163 47.868 33.5501 47.7742 33.5304 47.6667C33.5101 47.5587 33.5382 47.4475 33.6071 47.362L41.6714 37.3344C41.7882 37.1887 41.994 37.1515 42.154 37.2448L45.9196 39.4332C46.0143 39.4884 46.0804 39.5821 46.1002 39.6896C46.1204 39.7976 46.0924 39.9089 46.0235 39.9943L37.9591 50.0219C37.8856 50.1138 37.7767 50.1625 37.6659 50.1625ZM34.4683 47.4925L37.5754 49.2981L45.1622 39.8638L42.0552 38.0582L34.4683 47.4925Z" fill="#353B50"/>
<path d="M39.2812 53.6056C39.2394 53.6056 39.1976 53.5987 39.1567 53.5845C39.006 53.5316 38.9053 53.3896 38.9049 53.2301C38.9003 51.7127 38.397 50.6074 37.4876 50.1176C37.3888 50.0647 37.3189 49.9705 37.2969 49.8611C37.2748 49.7513 37.3024 49.6373 37.3727 49.5505L45.437 39.5229C45.5243 39.414 45.6659 39.3648 45.8019 39.3892C45.9389 39.4158 46.0501 39.516 46.0905 39.6497C46.4522 40.845 47.2661 41.5187 48.3823 41.5459C48.5257 41.5495 48.6544 41.6336 48.7146 41.7637C48.7748 41.8937 48.7564 42.0463 48.6663 42.158L39.5744 53.465C39.5018 53.5555 39.3929 53.6056 39.2812 53.6056ZM38.2215 49.6961C38.9481 50.243 39.4163 51.1217 39.5859 52.2494L47.6599 42.2085C46.7624 41.9921 46.0519 41.3993 45.6158 40.5013L38.2215 49.6961ZM49.1365 30.6516C49.0868 30.6516 49.0372 30.6419 48.9899 30.6217C48.8511 30.5633 48.7606 30.4273 48.7601 30.2766L48.7224 20.0835C48.7215 19.9006 48.8525 19.7439 49.0326 19.7118C49.5266 19.6231 50.045 19.4204 50.5735 19.1084C51.3966 18.6355 52.1806 17.9664 52.9072 17.1171C53.0096 16.9981 53.1746 16.9558 53.3231 17.0086C53.4706 17.0629 53.5689 17.2035 53.5694 17.3607L53.6071 28.2692C53.6075 28.3703 53.5675 28.4673 53.4954 28.538C53.4237 28.6088 53.3175 28.6488 53.2256 28.647C52.5473 28.6405 51.7674 28.874 50.9821 29.3299C50.432 29.6548 49.898 30.0642 49.3975 30.5463C49.3263 30.6153 49.2321 30.6516 49.1365 30.6516ZM49.4765 20.3855L49.5096 29.442C49.8626 29.1557 50.2279 28.9006 50.602 28.6801C51.38 28.2283 52.1346 27.9696 52.8529 27.908L52.8198 18.3165C52.2265 18.9029 51.6011 19.3864 50.9522 19.7591C50.4568 20.0518 49.9609 20.2619 49.4765 20.3855Z" fill="#353B50"/>
<path d="M49.1365 30.6515C49.0712 30.6515 49.006 30.6345 48.9471 30.6005L45.1732 28.4075C45.0579 28.3404 44.9862 28.2168 44.9862 28.0831L44.9674 18.8409C44.9669 18.7062 45.0386 18.5817 45.1549 18.5141C45.2707 18.447 45.415 18.4461 45.5317 18.5137L47.1314 19.436C47.1599 19.4525 47.1866 19.4728 47.2095 19.4962C47.7036 19.7729 48.3231 19.8537 49.0248 19.7131C49.1388 19.6906 49.2504 19.72 49.3368 19.7908C49.4242 19.8616 49.4747 19.9682 49.4752 20.0808L49.5128 30.2738C49.5133 30.4089 49.4416 30.5334 49.3249 30.601C49.2665 30.635 49.2017 30.6515 49.1365 30.6515ZM45.7385 27.8652L48.7578 29.6194L48.7238 20.5164C48.0193 20.5789 47.3649 20.447 46.8111 20.1258C46.7987 20.1185 46.7757 20.1033 46.7518 20.0863L45.7215 19.4925L45.7385 27.8652ZM20.2394 25.8813C20.1746 25.8813 20.1094 25.8648 20.0501 25.8303L16.2844 23.6419C16.1898 23.5867 16.1236 23.493 16.1038 23.385C16.0836 23.2775 16.1116 23.1662 16.1806 23.0808L24.5303 12.7003C24.6466 12.5546 24.852 12.5173 25.0128 12.6106L28.7789 14.7991C28.8736 14.8542 28.9398 14.948 28.9595 15.056C28.9798 15.1635 28.9517 15.2747 28.8828 15.3602L20.5326 25.7407C20.4591 25.8326 20.3502 25.8813 20.2394 25.8813ZM17.0418 23.2113L20.1489 25.0169L28.0216 15.2297L24.914 13.4241L17.0418 23.2113Z" fill="#353B50"/>
<path d="M22.2252 28.8616C22.1893 28.8616 22.1535 28.8565 22.1181 28.8459C21.9715 28.8027 21.8658 28.675 21.8506 28.5229C21.7105 27.1336 21.0956 26.1888 20.12 25.862C20.0032 25.823 19.9127 25.7292 19.8782 25.6106C19.8433 25.4925 19.869 25.3648 19.9462 25.2692L28.2964 14.8887C28.3916 14.7706 28.5492 14.7218 28.693 14.7623C28.8387 14.8041 28.9449 14.9286 28.9632 15.0789C29.1291 16.4429 29.7666 17.357 30.7578 17.6529C30.8782 17.6888 30.9724 17.7821 31.0097 17.902C31.0469 18.0215 31.0221 18.152 30.9435 18.2499L22.5184 28.7214C22.4458 28.8115 22.3373 28.8616 22.2252 28.8616ZM20.8401 25.3588C21.6213 25.7889 22.1806 26.5711 22.4504 27.6047L30.0391 18.1727C29.2445 17.7646 28.6673 17.004 28.3787 15.9875L20.8401 25.3588Z" fill="#353B50"/>
<path d="M28.5813 15.5077C28.5326 15.5077 28.4839 15.4985 28.437 15.4792C28.2964 15.4208 28.205 15.2834 28.205 15.1313C28.205 14.9236 28.3736 14.7457 28.5813 14.7457C28.7334 14.7457 28.8755 14.8372 28.9338 14.9778C28.9922 15.1189 28.9646 15.2807 28.8566 15.3882L28.8474 15.3974C28.7757 15.4695 28.6792 15.5077 28.5813 15.5077Z" fill="#353B50"/>
<path d="M28.7789 16.3831C28.6406 16.3831 28.5078 16.3064 28.4421 16.175C28.4173 16.1253 28.3993 16.0743 28.3879 16.0229C28.3552 15.9153 28.329 15.805 28.307 15.6966C28.3056 15.6911 28.3042 15.6855 28.3028 15.68C28.2606 15.5224 28.2284 15.3547 28.2073 15.1754C28.1939 15.061 28.2334 14.9466 28.3153 14.8652C28.4168 14.7627 28.5712 14.7241 28.7086 14.7706C28.8447 14.8179 28.9467 14.9337 28.9641 15.0766L28.9798 15.1736C28.9802 15.1763 28.9922 15.2457 28.9926 15.248C29.006 15.3312 29.0202 15.4195 29.0372 15.5077C29.0409 15.5196 29.0437 15.5316 29.0459 15.544C29.0593 15.6166 29.0786 15.6777 29.0979 15.7421C29.1052 15.766 29.1158 15.8092 29.1218 15.8464C29.1255 15.8579 29.1296 15.8689 29.1333 15.8799C29.2004 16.0674 29.1098 16.2747 28.9269 16.3528C28.8787 16.3735 28.8286 16.3831 28.7789 16.3831Z" fill="#353B50"/>
<path d="M29.5694 17.7385C29.4853 17.7385 29.4007 17.7104 29.3309 17.6534C29.1939 17.5413 29.0887 17.4113 28.9954 17.2872C28.9683 17.2591 28.9472 17.2238 28.9302 17.1884C28.8906 17.1507 28.8208 17.0353 28.7624 16.9195C28.6999 16.8364 28.6319 16.7049 28.586 16.5716C28.5818 16.5625 28.5781 16.5537 28.5745 16.5445C28.5418 16.4848 28.5248 16.4269 28.5133 16.3841C28.4747 16.2964 28.4343 16.1962 28.4109 16.0859L28.4155 16.0845C28.4086 16.0542 28.4026 16.0229 28.4026 16.0068C28.4026 15.8143 28.5478 15.653 28.7394 15.6323C28.9279 15.613 29.1066 15.7398 29.1471 15.9278C29.1489 15.9375 29.1517 15.9471 29.154 15.9563C29.176 16.0193 29.1912 16.0569 29.2041 16.0873C29.2073 16.0946 29.2105 16.102 29.2137 16.1093L29.2142 16.1112C29.216 16.1148 29.2174 16.1181 29.2188 16.1217C29.2417 16.1562 29.2606 16.2086 29.2725 16.2605C29.2946 16.3106 29.3148 16.3501 29.3369 16.3869C29.3419 16.3952 29.3847 16.4793 29.3888 16.4885C29.4439 16.5988 29.5069 16.7012 29.5777 16.7959C29.6609 16.9039 29.744 17.0046 29.8355 17.096C29.9775 17.2375 29.983 17.4659 29.8484 17.6148C29.7744 17.6966 29.6723 17.7385 29.5694 17.7385Z" fill="#353B50"/>
<path d="M30.068 18.192L30.0666 18.1916C30.0514 18.1833 30.0367 18.175 30.0216 18.1668C29.9173 18.1107 29.8221 18.0574 29.7343 17.9894L29.7353 17.988C29.7302 17.9848 29.7256 17.9811 29.7206 17.9779C29.7036 17.9659 29.687 17.954 29.6723 17.9425C29.6695 17.9402 29.6663 17.9384 29.6636 17.9361C29.6461 17.9223 29.6314 17.9094 29.6213 17.8993C29.483 17.7587 29.4765 17.5353 29.6061 17.3873C29.7362 17.2384 29.9582 17.2159 30.1158 17.334C30.2137 17.4076 30.3203 17.4728 30.4264 17.5303L30.068 18.192ZM30.2183 63.141C30.1544 63.141 30.0896 63.1249 30.0303 63.0905C30.0266 63.0886 30.023 63.0863 30.0197 63.0845L26.2555 60.897C25.6479 60.545 25.1718 59.9554 24.8791 59.1911C24.8327 59.0702 24.852 58.9338 24.9297 58.8304C25.0078 58.7265 25.1305 58.6704 25.2624 58.6815L28.7072 58.9728C28.9021 58.9894 29.0519 59.152 29.0519 59.3478C29.0602 60.8382 29.5386 61.931 30.3993 62.4342L30.4081 62.4393C30.5877 62.5436 30.6484 62.7738 30.5446 62.9535C30.4747 63.0739 30.3483 63.141 30.2183 63.141ZM25.8626 59.4875C26.0698 59.8147 26.3276 60.0689 26.6337 60.2458L28.6567 61.4218C28.4595 60.92 28.3414 60.3395 28.3083 59.6948L25.8626 59.4875ZM30.2656 54.4351C30.2013 54.4351 30.136 54.4186 30.0767 54.3841L26.3336 52.204C26.2656 52.1713 26.2072 52.119 26.1695 52.0519C26.1025 51.9347 26.0988 51.7899 26.1677 51.6736C27.198 49.9365 28.556 48.522 29.9926 47.6906C31.5092 46.8134 32.9623 46.664 34.0873 47.2706C34.1029 47.2789 34.1314 47.2977 34.1594 47.3175L37.8616 49.4599C38.04 49.5629 38.102 49.7899 38.0018 49.9696C37.9012 50.1484 37.6755 50.2155 37.4945 50.1171C36.6162 49.6433 35.4264 49.789 34.1429 50.5261C32.8125 51.2913 31.551 52.6134 30.5905 54.2495C30.5207 54.369 30.3947 54.4351 30.2656 54.4351ZM27.0165 51.7302L30.136 53.5473C31.1355 51.9475 32.415 50.6511 33.7679 49.8736C34.465 49.4724 35.148 49.2242 35.7913 49.1318L33.7762 47.9655C33.7477 47.9489 33.7215 47.9292 33.6985 47.9057C32.8456 47.4567 31.6516 47.601 30.3695 48.3423C29.1332 49.0578 27.9526 50.2527 27.0165 51.7302Z" fill="#353B50"/>
<path d="M31.6131 63.4985C31.0427 63.4985 30.512 63.3638 30.0414 63.0931C28.9205 62.4479 28.3006 61.1207 28.2955 59.3551C28.2909 57.629 28.8755 55.6805 29.9421 53.868C30.9665 52.1262 32.3254 50.7085 33.7675 49.8758C35.2799 49.0031 36.7266 48.8528 37.8442 49.4548C39.0083 50.0812 39.6526 51.4213 39.6576 53.2278C39.6673 56.7705 37.2606 60.9392 34.1788 62.7186C33.2813 63.237 32.4081 63.4985 31.6131 63.4985ZM34.1443 50.5274C32.8125 51.2967 31.5506 52.6184 30.591 54.2494C29.5919 55.9475 29.0441 57.76 29.0483 59.3533C29.0524 60.8385 29.5386 61.9351 30.4168 62.4401C31.3015 62.9493 32.5041 62.816 33.8019 62.0669C36.6245 60.4374 38.9136 56.4727 38.9049 53.2296C38.9003 51.7126 38.3971 50.6074 37.4876 50.1175C36.6071 49.6455 35.4205 49.7903 34.1443 50.5274Z" fill="#353B50"/>
<path d="M30.2661 54.4351C30.2555 54.4351 30.2449 54.4346 30.2339 54.4337L22.2431 53.7467C22.1429 53.7379 22.0505 53.6901 21.9862 53.6129C21.9218 53.5357 21.8911 53.436 21.9003 53.3363C21.9278 53.0467 21.9462 52.7577 21.9462 52.4774C21.9462 52.1534 21.9205 51.8592 21.8676 51.5775C21.846 51.4622 21.8796 51.3432 21.9582 51.2558C22.0377 51.1685 22.1585 51.124 22.2688 51.1331L26.5326 51.4907C26.5887 51.4953 26.6424 51.5123 26.6907 51.5403L30.4554 53.7333C30.608 53.822 30.6783 54.0045 30.625 54.1722C30.5749 54.3298 30.4292 54.4351 30.2661 54.4351ZM22.6801 53.0288L28.6277 53.5399L26.3851 52.2338L22.6746 51.9227C22.6912 52.101 22.699 52.2848 22.699 52.4774C22.699 52.6584 22.6921 52.8427 22.6801 53.0288Z" fill="#353B50"/>
<path d="M28.6755 59.7242C28.665 59.7242 28.6544 59.7237 28.6434 59.7228L20.1631 58.9985C20.0294 58.987 19.9113 58.9052 19.8543 58.783C19.7973 58.6612 19.8097 58.5183 19.8865 58.408C20.9991 56.8147 21.7141 55.0114 21.9012 53.3303C21.9232 53.1272 22.1038 52.9746 22.3074 52.9967L30.2982 53.6837C30.4274 53.6948 30.5413 53.771 30.6006 53.8864C30.6599 54.0013 30.6562 54.1387 30.5905 54.2499C29.5891 55.9461 29.0432 57.7559 29.0519 59.3455C29.0524 59.4516 29.0087 59.5528 28.9311 59.6244C28.8612 59.6888 28.7697 59.7242 28.6755 59.7242ZM20.8598 58.3023L28.3079 58.9383C28.3764 57.4861 28.8447 55.9002 29.6521 54.3836L22.6015 53.7775C22.3736 55.2853 21.7665 56.8611 20.8598 58.3023ZM20.6843 49.3997C20.6209 49.3997 20.5565 49.3836 20.4972 49.3501C20.449 49.3221 20.3993 49.3023 20.3442 49.2812C20.3345 49.2775 20.3254 49.2733 20.3162 49.2692C20.2946 49.2614 20.272 49.2517 20.2592 49.2453C20.2146 49.226 20.147 49.1984 20.0809 49.1865C19.9968 49.1644 19.9416 49.1497 19.8865 49.1428C19.7817 49.1198 19.7348 49.1079 19.6967 49.1079C19.3663 49.0789 19.079 49.0937 18.7877 49.1483C18.6765 49.1681 18.5634 49.1396 18.4775 49.0684C18.3911 48.9967 18.3414 48.8905 18.3414 48.7784V47.8749C18.3414 47.7403 18.4136 47.6157 18.5303 47.5486C18.6466 47.4811 18.7904 47.4815 18.9076 47.55L20.8745 48.6984C21.0538 48.8028 21.1144 49.0325 21.0106 49.2118C20.9407 49.3326 20.8143 49.3997 20.6843 49.3997ZM14.3129 52.2136C14.2288 52.2136 14.1447 52.186 14.0749 52.129C13.9159 51.999 13.8902 51.766 14.017 51.6042C14.1222 51.4705 14.2279 51.3455 14.3336 51.2209C14.5234 51.0008 14.7183 50.7968 14.9122 50.6019C15.0583 50.4549 15.2969 50.4544 15.4448 50.6015C15.5184 50.675 15.5551 50.771 15.5551 50.8675C15.5551 50.9641 15.5188 51.0601 15.4453 51.1341C15.2633 51.3161 15.0905 51.5073 14.9173 51.7076L14.6002 52.0803C14.5262 52.1681 14.4196 52.2136 14.3129 52.2136Z" fill="#353B50"/>
<path d="M14.6236 51.8372C14.5583 51.8372 14.4926 51.8202 14.4343 51.7862L10.6696 49.5931C10.5542 49.5261 10.483 49.4024 10.4825 49.2692L10.4448 37.288C10.4444 37.1529 10.5161 37.0279 10.6328 36.9608C10.7495 36.8923 10.8929 36.8928 11.0105 36.9613L13.3258 38.3073C13.7233 38.5389 14.1346 38.6423 14.5956 38.6423C14.8033 38.6423 14.9715 38.8101 14.9719 39.0178L15 51.4599C15.0004 51.595 14.9283 51.7195 14.8116 51.7871C14.7532 51.8206 14.6884 51.8372 14.6236 51.8372ZM11.2348 49.0509L14.2458 50.805L14.2201 39.3762C13.7716 39.3298 13.3607 39.1993 12.9945 38.9861L11.1999 37.9424L11.2348 49.0509Z" fill="#353B50"/>
<path d="M14.6236 51.8372C14.5795 51.8372 14.5354 51.8298 14.4926 51.8138C14.3456 51.7591 14.2477 51.6189 14.2472 51.4617L14.2192 39.0196C14.2187 38.9195 14.2582 38.8234 14.329 38.7526C14.3998 38.6819 14.4954 38.6423 14.5956 38.6423C15.2615 38.6423 15.9963 38.4153 16.7808 37.9673C17.3286 37.6502 17.8832 37.2218 18.4278 36.6961C18.5367 36.5913 18.6976 36.5619 18.8359 36.6198C18.9752 36.6787 19.0652 36.8151 19.0657 36.9659L19.0942 48.7775C19.0946 48.9581 18.9669 49.1139 18.7895 49.1479C18.2661 49.2494 17.7261 49.4594 17.1838 49.7729C16.3938 50.2287 15.6075 50.8974 14.9085 51.7067C14.8354 51.7912 14.7307 51.8372 14.6236 51.8372ZM14.9729 39.3763L14.9981 50.5137C15.574 49.9521 16.1884 49.4783 16.807 49.1212C17.3189 48.8252 17.8332 48.6097 18.3405 48.4778L18.3148 37.8069C17.931 38.1235 17.5432 38.3956 17.1558 38.6198C16.3952 39.0546 15.6631 39.3078 14.9729 39.3763Z" fill="#353B50"/>
<path d="M28.7789 16.3832C28.6406 16.3832 28.5078 16.3064 28.4421 16.175C28.4191 16.1291 28.4021 16.0822 28.3906 16.0344C28.3065 15.7761 28.2454 15.4921 28.2091 15.1888C28.2086 15.1847 28.2082 15.1801 28.2073 15.1755C28.1834 14.9687 28.3309 14.7816 28.5372 14.7573C28.7445 14.7393 28.9311 14.8804 28.9554 15.0872C28.9715 15.226 28.9954 15.3556 29.0276 15.4779C29.0349 15.4972 29.0404 15.5174 29.0446 15.5376C29.0593 15.6102 29.0717 15.6828 29.1002 15.755C29.1135 15.7876 29.1218 15.8216 29.125 15.8565C29.1277 15.8643 29.1305 15.8722 29.1333 15.88C29.2004 16.0675 29.1098 16.2747 28.9269 16.3529C28.8787 16.3735 28.8286 16.3832 28.7789 16.3832Z" fill="#353B50"/>
<path d="M28.9113 16.7504C28.7886 16.7504 28.6691 16.6906 28.597 16.5817C28.5745 16.5477 28.5575 16.5132 28.5446 16.4811C28.483 16.3478 28.4389 16.2177 28.4109 16.0849L28.4127 16.0845C28.4067 16.0551 28.4026 16.0275 28.4026 16.0068C28.4026 15.8143 28.5478 15.6525 28.7394 15.6323C28.9237 15.6102 29.1011 15.7361 29.1452 15.9199C29.1526 15.9379 29.159 15.9567 29.1632 15.9719C29.1765 16.0266 29.1981 16.0739 29.2188 16.1217L29.2114 16.1277C29.2224 16.1534 29.2344 16.1791 29.2477 16.2058C29.3364 16.3836 29.2716 16.6006 29.0993 16.6998C29.04 16.7343 28.9752 16.7504 28.9113 16.7504Z" fill="#353B50"/>
<path d="M29.0947 17.1245C28.977 17.1245 28.8626 17.0698 28.79 16.9659C28.6976 16.8336 28.6277 16.6966 28.5818 16.5588C28.5174 16.3653 28.6181 16.1562 28.8097 16.0863C29.0018 16.016 29.2132 16.1116 29.2886 16.3005C29.3001 16.3294 29.3185 16.357 29.3359 16.3855C29.3502 16.4085 29.3938 16.4976 29.4076 16.533C29.523 16.7044 29.4802 16.9406 29.3097 17.0574C29.2435 17.1024 29.1686 17.1245 29.0947 17.1245Z" fill="#353B50"/>
<path d="M29.335 17.4535C29.2224 17.4535 29.1061 17.4061 29.0257 17.3225C29.0248 17.3216 29.0239 17.3216 29.0239 17.3207C29.017 17.3133 29.0101 17.3055 29.0037 17.2972C28.977 17.2641 28.9435 17.2154 28.9301 17.1883C28.8732 17.0716 28.8805 16.9337 28.949 16.8239C29.0983 16.5858 29.4991 16.6244 29.6163 16.862C29.6204 16.8689 29.6241 16.8758 29.6277 16.8827C29.7472 17.0307 29.7174 17.2265 29.5749 17.362C29.5092 17.4245 29.4232 17.4535 29.335 17.4535ZM28.5813 15.4889C28.5165 15.4889 28.4513 15.4723 28.3929 15.4383L24.6948 13.2982C24.6889 13.2959 24.6829 13.2936 24.6774 13.2913C24.5363 13.2329 24.4402 13.1001 24.4402 12.948C24.4131 12.7278 24.403 12.4732 24.3929 12.1897C24.3833 8.69429 26.8451 4.43923 29.8805 2.69245C31.4159 1.79723 32.8911 1.66304 34.0294 2.31515L37.5717 4.38776C37.5685 4.38041 37.631 4.41718 37.6709 4.44383C37.8373 4.5532 37.8911 4.77333 37.7918 4.94613C37.6935 5.11938 37.477 5.18648 37.2987 5.09686C37.2619 5.07848 37.2261 5.05872 37.1834 5.04631C37.051 4.9907 36.9614 4.96083 36.8644 4.93831C36.0501 4.7214 35.0717 4.92775 34.0225 5.53712C31.199 7.16166 28.9108 11.1231 28.92 14.3685C28.92 14.6166 28.9283 14.8464 28.955 15.0675C28.9724 15.209 28.9076 15.3482 28.7886 15.4268C28.7261 15.4682 28.6535 15.4889 28.5813 15.4889ZM25.1723 12.7044L28.1673 14.4379C28.1673 14.4153 28.1673 14.3924 28.1673 14.3694C28.1571 10.8841 30.6149 6.62903 33.6452 4.88547C34.3405 4.48151 35.0202 4.23151 35.6608 4.1396L33.6521 2.96681C32.7592 2.45532 31.5528 2.58813 30.2583 3.34411C27.4297 4.97186 25.1369 8.93326 25.1457 12.1754C25.1526 12.3574 25.1585 12.5321 25.1723 12.7044Z" fill="#353B50"/>
<path d="M31.5069 18.5119C31.1834 18.5119 30.8718 18.4682 30.5749 18.3813C30.5648 18.3795 30.5547 18.3777 30.5455 18.3749C30.3828 18.3317 30.2302 18.2678 30.0891 18.203C29.9173 18.1107 29.8221 18.0574 29.7344 17.9893L29.7357 17.988C29.7252 17.9811 29.7151 17.9737 29.705 17.9668C29.6627 17.9452 29.6241 17.9167 29.591 17.8823C29.4963 17.8119 29.3906 17.726 29.29 17.6143C29.1939 17.5413 29.0887 17.4112 28.9954 17.2871C28.9683 17.2591 28.9471 17.2237 28.9301 17.1883C28.8906 17.1506 28.8208 17.0353 28.7624 16.9195C28.6999 16.8363 28.6319 16.7049 28.5859 16.5716C28.5822 16.5633 28.5786 16.5546 28.5749 16.5459C28.5395 16.4834 28.5216 16.4245 28.5096 16.3777C28.4802 16.3069 28.4527 16.2352 28.4329 16.1557C28.4053 16.0964 28.3874 16.0353 28.3791 15.9737C28.3419 15.868 28.329 15.8161 28.3157 15.7527C28.3143 15.7453 28.3125 15.7324 28.3102 15.7173C28.2973 15.6782 28.2895 15.6336 28.2895 15.5831C28.2711 15.5431 28.2509 15.4645 28.2445 15.3703C28.2307 15.3165 28.2206 15.2596 28.2123 15.2072C28.2091 15.1874 28.205 15.1327 28.205 15.1125C28.1774 14.908 28.1673 14.6488 28.1673 14.3694C28.1571 10.8841 30.6149 6.62905 33.6452 4.88548C34.8699 4.17408 36.0469 3.94017 37.0464 4.20809C37.1797 4.23842 37.318 4.28484 37.4439 4.34228C37.5758 4.38134 37.631 4.41765 37.6709 4.44384L37.7472 4.47923C38.6328 4.97739 39.2114 5.8841 39.4366 7.11066C39.4991 7.54908 39.5271 7.90386 39.5271 8.2421C39.5271 8.5137 39.5083 8.79449 39.4885 9.07574C39.3084 10.8538 38.5404 12.8317 37.381 14.5165C36.4481 15.9006 35.2987 17.0146 34.0602 17.7347C33.1686 18.2499 32.3024 18.5119 31.5069 18.5119ZM30.7151 17.641C30.7316 17.6433 30.7472 17.647 30.7615 17.6511C31.5781 17.8997 32.6163 17.6989 33.6824 17.0835C34.8226 16.4204 35.8869 15.3864 36.7587 14.0927C37.8506 12.5059 38.5717 10.6557 38.7385 9.01324C38.756 8.76048 38.7743 8.49715 38.7743 8.2421C38.7743 7.94017 38.7486 7.61939 38.6935 7.23153C38.5124 6.24715 38.0625 5.52013 37.3943 5.14421L37.2978 5.09642L37.3814 4.71268L37.1765 5.04449C37.051 4.99072 36.9614 4.96085 36.8644 4.93833C36.0501 4.72142 35.0717 4.92776 34.022 5.53713C31.199 7.16167 28.9108 11.1231 28.92 14.3685C28.92 14.6166 28.9283 14.8464 28.955 15.0675C28.9609 15.1208 28.9655 15.1589 28.9761 15.1915C28.989 15.2297 28.9954 15.2701 28.9954 15.3106C28.9954 15.3414 29.0087 15.396 29.0202 15.4443C29.022 15.4521 29.0243 15.4631 29.0271 15.4765C29.0432 15.5192 29.0519 15.5647 29.0519 15.6116C29.0551 15.6194 29.1002 15.7522 29.1029 15.76C29.1149 15.7963 29.1259 15.8501 29.1268 15.8892L29.131 15.8878C29.1369 15.9062 29.1425 15.9222 29.1475 15.9374C29.1484 15.9397 29.1493 15.942 29.1498 15.9443C29.1829 16.0408 29.2013 16.0808 29.2187 16.1217C29.233 16.1539 29.2422 16.1879 29.2468 16.2228C29.2675 16.2527 29.2845 16.2858 29.2959 16.3207C29.3194 16.391 29.3557 16.4608 29.4076 16.5348C29.4715 16.6539 29.5147 16.7269 29.5657 16.7922C29.6719 16.9342 29.7367 17.0123 29.8079 17.0707C29.9039 17.1709 29.9692 17.2269 30.0731 17.3023C30.0809 17.3078 30.0882 17.3133 30.0951 17.3193C30.1153 17.3326 30.1346 17.3478 30.1521 17.3653C30.1668 17.3735 30.1811 17.3832 30.1948 17.3938C30.2509 17.4369 30.3129 17.4687 30.3791 17.5045C30.5 17.5629 30.6048 17.6088 30.7151 17.641Z" fill="#353B50"/>
<path d="M47.9086 10.181C47.898 10.181 47.8874 10.1805 47.8764 10.1796L39.0855 9.42641C38.881 9.40895 38.728 9.22926 38.7422 9.02383C38.7606 8.76051 38.779 8.49718 38.779 8.24213C38.779 7.92319 38.7491 7.58679 38.6903 7.24167C38.671 7.12678 38.7059 7.00959 38.7849 6.92365C38.864 6.83771 38.9757 6.79452 39.0942 6.80371L44.1765 7.2458C44.2316 7.2504 44.2849 7.2674 44.3327 7.29497L48.0974 9.4788C48.25 9.56749 48.3208 9.74994 48.2675 9.91768C48.2178 10.0758 48.0717 10.181 47.9086 10.181ZM39.517 8.70766L46.2638 9.28578L44.0276 7.98845L39.4982 7.59461C39.5207 7.8152 39.5317 8.03165 39.5317 8.24213C39.5317 8.39516 39.5257 8.55095 39.517 8.70766Z" fill="#353B50"/>
<path d="M45.5667 15.4107C45.5556 15.4107 45.5446 15.4103 45.534 15.4094L37.0469 14.6773C36.9132 14.6658 36.796 14.5844 36.7385 14.4631C36.6816 14.3423 36.693 14.1998 36.7684 14.0895C37.8544 12.5072 38.5722 10.6552 38.7385 9.00908C38.7597 8.80411 38.9481 8.65935 39.1457 8.67176L47.9435 9.43233C48.08 9.44428 48.1999 9.52976 48.2551 9.65522C48.3107 9.78114 48.2932 9.92682 48.2101 10.0362C47.0492 11.5527 46.2211 13.3969 45.9375 15.0964C45.9072 15.2793 45.7487 15.4107 45.5667 15.4107ZM37.7376 13.981L45.2583 14.6299C45.568 13.1139 46.2634 11.5173 47.2165 10.1253L39.4426 9.45301C39.2294 10.9544 38.6351 12.5307 37.7376 13.981Z" fill="#353B50"/>
<path d="M45.5694 15.414C45.4582 15.414 45.3479 15.3648 45.2762 15.2794C45.205 15.1944 45.17 15.0818 45.1893 14.9719C45.3598 14.0105 45.6544 13.068 46.0648 12.17C46.1517 11.9807 46.375 11.8975 46.562 11.9839C46.7509 12.0689 46.8355 12.2909 46.7509 12.4802C46.3557 13.3658 46.0832 14.2467 45.9407 15.0997C45.9104 15.2812 45.7532 15.414 45.5694 15.414ZM47.4798 10.7739C47.4063 10.7739 47.3318 10.7523 47.2665 10.7077C47.0974 10.591 47.0529 10.3603 47.1668 10.1888C47.3042 9.9825 47.4522 9.76604 47.6094 9.56935C47.7711 9.36669 48.1351 9.40667 48.2477 9.64196C48.3102 9.77248 48.2973 9.92735 48.2068 10.0404C48.0951 10.1796 47.989 10.3304 47.8837 10.4793L47.7868 10.6162C47.7132 10.7192 47.5974 10.7739 47.4798 10.7739Z" fill="#353B50"/>
<path d="M46.9904 20.1764C46.9329 20.1764 46.8741 20.163 46.8194 20.135C46.8144 20.1327 46.8084 20.129 46.8015 20.1249L43.0368 17.9323C42.0506 17.3689 41.4453 16.2329 41.335 14.7356C41.3268 14.6258 41.3677 14.5178 41.4458 14.4401C41.5239 14.3625 41.6315 14.3216 41.7427 14.3331L45.5924 14.6626C45.6972 14.6713 45.7932 14.7237 45.8576 14.8069C45.9219 14.8896 45.949 14.9957 45.9315 15.0996C45.8957 15.3151 45.8686 15.5399 45.8502 15.7559C45.841 15.9939 45.8327 16.1892 45.8327 16.3928C45.8327 16.5867 45.8419 16.7811 45.8594 16.9571C45.8778 17.1479 45.9044 17.3266 45.9315 17.4879C45.9642 17.6414 46.0087 17.8018 46.0529 17.953C46.086 18.0679 46.1356 18.181 46.1843 18.2862C46.2505 18.4544 46.3245 18.5844 46.4063 18.715C46.4573 18.8018 46.511 18.8735 46.5933 18.965C46.6043 18.9737 46.7008 19.0812 46.711 19.0913C46.7169 19.0973 46.7905 19.181 46.796 19.1874C46.8222 19.2177 46.8608 19.2457 46.9168 19.2857C46.9963 19.3524 47.0575 19.3946 47.1273 19.4337C47.154 19.4489 47.1788 19.4668 47.2008 19.4875C47.3612 19.595 47.415 19.8087 47.3212 19.9806C47.2528 20.1056 47.1241 20.1764 46.9904 20.1764ZM42.1365 15.1226C42.2974 16.1396 42.7422 16.8969 43.4127 17.2802L45.4371 18.4594C45.398 18.3671 45.3589 18.2646 45.33 18.1626C45.2808 17.9957 45.2316 17.817 45.1917 17.6281C45.159 17.4351 45.1296 17.2379 45.1099 17.0307C45.0901 16.8326 45.08 16.6125 45.08 16.3928C45.08 16.1787 45.0883 15.9732 45.097 15.7609C45.1071 15.623 45.119 15.4971 45.1324 15.379L42.1365 15.1226ZM47.8902 10.1764C47.8295 10.1764 47.7689 10.1617 47.7146 10.1304L43.9499 7.94658C43.8562 7.89189 43.7905 7.79952 43.7693 7.69336C43.7486 7.58674 43.7744 7.47645 43.841 7.39051C44.7293 6.24069 45.7431 5.31606 46.773 4.7168C48.3369 3.82617 49.8134 3.69566 50.9352 4.34961L54.5653 6.45807C54.6039 6.47829 54.6434 6.5008 54.682 6.527C54.8511 6.64005 54.8998 6.86661 54.7923 7.03941C54.6852 7.21128 54.46 7.26643 54.284 7.16533L54.2068 7.12075C54.1673 7.10145 54.1195 7.08307 54.0621 7.06193C53.9522 7.01321 53.8631 6.98426 53.7666 6.96174C53.7004 6.9452 53.6406 6.92911 53.5804 6.92176L53.546 6.73702L53.4885 6.70347L53.4674 6.90108C52.6618 6.82709 51.7983 7.05365 50.926 7.56055C50.097 8.03895 49.2849 8.74299 48.5106 9.65338C48.4049 9.77608 48.3088 9.89832 48.2128 10.0201C48.1356 10.118 48.0124 10.1764 47.8902 10.1764ZM44.7059 7.51459L47.8116 9.31606C47.8534 9.26459 47.8952 9.21404 47.9384 9.16395C48.767 8.18922 49.6457 7.43003 50.5483 6.90935C51.2303 6.51275 51.9159 6.26321 52.5703 6.17038L50.557 5.00034C49.676 4.48794 48.4655 4.61845 47.1485 5.36937C46.3056 5.85972 45.4665 6.59731 44.7059 7.51459Z" fill="#353B50"/>
<path d="M48.3943 20.5289C47.7854 20.5289 47.2248 20.3786 46.7454 20.0827C46.6443 20.0261 46.5405 19.954 46.4518 19.8763C46.398 19.8409 46.3153 19.7702 46.2445 19.6989C46.2353 19.6902 46.188 19.6364 46.1802 19.6268C46.12 19.5771 46.0653 19.5091 46.0216 19.4549C45.9541 19.3804 45.8525 19.2596 45.762 19.1042C45.6618 18.9448 45.5667 18.7734 45.4918 18.5813C45.4362 18.4632 45.3727 18.3124 45.33 18.1626C45.2808 17.9958 45.2316 17.817 45.1917 17.6281C45.159 17.4351 45.1296 17.238 45.1099 17.0307C45.0814 16.8455 45.0708 16.619 45.0708 16.3929C45.0708 16.1562 45.0805 15.9296 45.1002 15.6934C45.1195 15.4572 45.1586 15.2113 45.1981 14.9756C45.3507 14.0597 45.642 13.1171 46.0634 12.1732C46.3603 11.5137 46.7316 10.8469 47.1664 10.1897L47.2689 10.045C47.3828 9.88366 47.4982 9.72052 47.6195 9.56886L47.9283 9.17594C48.767 8.18927 49.6457 7.43008 50.5483 6.9094C51.5556 6.323 52.568 6.05691 53.4826 6.14469C53.5455 6.13688 53.6526 6.16032 53.745 6.19111C53.7597 6.18697 53.853 6.20673 53.9435 6.22971C54.0855 6.2628 54.2225 6.30829 54.3475 6.36574C54.4306 6.39469 54.5593 6.44478 54.682 6.52704C55.7969 7.14699 56.4302 8.47925 56.4398 10.2637V10.2656C56.4398 12.6562 55.3056 15.4691 53.4793 17.6065C52.6967 18.5215 51.8465 19.2453 50.9522 19.7591C50.3502 20.1148 49.7477 20.3487 49.165 20.4526C48.9017 20.5036 48.6439 20.5289 48.3943 20.5289ZM53.1393 6.88182C52.4536 6.88182 51.6944 7.1139 50.926 7.56059C50.097 8.03899 49.285 8.74304 48.5106 9.65342L48.2096 10.0367C48.0952 10.1796 47.989 10.3304 47.8838 10.4792L47.7868 10.6162C47.3815 11.2288 47.0304 11.8598 46.7505 12.4811C46.3557 13.3657 46.0832 14.2467 45.9407 15.0997C45.9049 15.3152 45.8686 15.5399 45.8502 15.7559C45.8323 15.971 45.8236 16.1773 45.8236 16.3929C45.8236 16.5804 45.8314 16.7683 45.8571 16.9383C45.8778 17.1479 45.9044 17.3267 45.9316 17.488C45.9642 17.6415 46.0088 17.8019 46.0529 17.9531C46.086 18.0679 46.1356 18.181 46.1843 18.2862C46.2505 18.4544 46.3245 18.5845 46.4063 18.715C46.4573 18.8019 46.5111 18.8736 46.5933 18.965C46.6416 19.0243 46.66 19.0468 46.6852 19.0675C46.7041 19.0831 46.7482 19.1314 46.7634 19.1502C46.819 19.2086 46.8677 19.2508 46.9168 19.2858C46.9964 19.3524 47.0575 19.3947 47.1273 19.4338C47.6609 19.7628 48.2955 19.8533 49.0276 19.7127C49.5267 19.6231 50.0451 19.4204 50.5736 19.1084C51.3966 18.6355 52.1806 17.9664 52.9072 17.1171C54.6214 15.1111 55.6862 12.4866 55.6871 10.2674C55.6788 8.76693 55.1825 7.66629 54.2896 7.16905C54.2156 7.12079 54.1508 7.09414 54.0621 7.06197C53.9522 7.01326 53.8631 6.9843 53.7666 6.96179C53.7004 6.94524 53.6407 6.92916 53.5805 6.9218C53.5685 6.9218 53.4237 6.89561 53.4118 6.89469C53.3226 6.88596 53.2316 6.88182 53.1393 6.88182Z" fill="#353B50"/>
<path d="M14.5864 39.3928C12.5758 39.3928 11.2725 37.7697 11.2652 35.2559C11.2551 31.7724 13.7132 27.5146 16.744 25.7651C18.0547 25.0082 19.3033 24.7936 20.3589 25.1479C21.6135 25.5679 22.4306 26.7706 22.5997 28.4475C22.6218 28.6635 22.6337 28.8891 22.6342 29.1244C22.642 31.8299 21.1608 35.0914 18.9481 37.2403C18.3755 37.7963 17.7725 38.2591 17.1553 38.6157C16.2633 39.1304 15.4007 39.3919 14.5915 39.3928C14.5901 39.3928 14.5882 39.3928 14.5864 39.3928ZM19.3245 25.7389C18.654 25.7389 17.8966 25.9691 17.1209 26.4167C14.2978 28.0468 12.0087 32.0109 12.0179 35.254C12.0239 37.3427 13.0083 38.6401 14.5869 38.6401C15.2785 38.6277 16.0124 38.4062 16.779 37.9636C17.3419 37.6382 17.8952 37.2131 18.4233 36.7003C20.4991 34.6842 21.8888 31.6405 21.8814 29.1263C21.881 28.9167 21.8699 28.7159 21.8506 28.5229C21.7105 27.1336 21.0956 26.1883 20.1199 25.862C19.8736 25.7793 19.6066 25.7389 19.3245 25.7389Z" fill="#353B50"/>
<path d="M13.188 39.0371C13.1236 39.0371 13.0584 39.0206 12.9991 38.9861C12.9986 38.9861 12.9982 38.9857 12.9977 38.9852L9.23439 36.7936C8.11812 36.141 7.50369 34.8188 7.50369 33.0702C7.49404 29.5803 9.95176 25.3211 12.9816 23.5771C14.2721 22.8248 15.5565 22.6065 16.5956 22.9636C16.7854 23.027 16.9573 23.1024 17.1287 23.1989L20.8497 25.3662C20.8672 25.3758 20.8847 25.3859 20.9017 25.3965C21.0795 25.5027 21.1383 25.7324 21.0331 25.9108C20.9279 26.0895 20.6976 26.1497 20.5193 26.0449L20.4766 26.0201C20.3631 25.9558 20.2399 25.9006 20.1186 25.8602C19.2937 25.5854 18.228 25.7816 17.1209 26.4135C14.301 28.0463 12.0124 32.0119 12.0212 35.2531C12.0212 36.7292 12.5028 37.8234 13.3769 38.3349L13.3778 38.3354C13.3778 38.3349 13.3782 38.3354 13.3778 38.3354C13.5575 38.4402 13.6181 38.6709 13.5138 38.8506C13.4435 38.9705 13.3176 39.0371 13.188 39.0371ZM15.5478 23.5486C14.8805 23.5486 14.1291 23.7793 13.3594 24.2288C10.5359 25.8538 8.24772 29.8193 8.25645 33.0693C8.25645 34.5404 8.73852 35.6313 9.61352 36.1433L11.62 37.3115C11.3888 36.7242 11.2684 36.0312 11.2684 35.254C11.2587 31.7738 13.716 27.5146 16.7459 25.7609C17.4444 25.362 18.1241 25.1148 18.7647 25.0229L16.7546 23.8524C16.6291 23.7816 16.4996 23.7256 16.3539 23.6768C16.1043 23.5909 15.8337 23.5486 15.5478 23.5486Z" fill="#353B50"/>
<path d="M13.2495 62.3878C13.2114 62.3878 13.1723 62.3823 13.1337 62.3699C13.0551 62.3442 12.9949 62.3037 12.955 62.2771L9.29595 60.1535C8.18566 59.5055 7.57445 58.1797 7.57445 56.4209C7.5556 54.0174 8.70864 51.181 10.5836 49.0211C10.7031 48.8842 10.9026 48.8506 11.0579 48.943L14.5478 50.9807C14.6677 50.8506 14.79 50.7247 14.9122 50.602C15.0584 50.4549 15.2969 50.4545 15.4449 50.6015C15.5184 50.6751 15.5551 50.7711 15.5551 50.8676C15.5551 50.9641 15.5188 51.0602 15.4453 51.1342C15.2633 51.3161 15.0905 51.5073 14.9173 51.7077L14.6002 52.0804C14.4104 52.3322 14.2155 52.5919 14.0299 52.8607C13.1066 54.2274 12.4591 55.7895 12.2091 57.2564C12.1314 57.6971 12.0919 58.153 12.0919 58.6139C12.0919 58.8083 12.1006 59.0023 12.1181 59.1787C12.1365 59.369 12.1636 59.5482 12.1903 59.71C12.2229 59.8626 12.267 60.022 12.312 60.1728C12.3451 60.2899 12.3943 60.4025 12.443 60.5082C12.506 60.6668 12.5777 60.8051 12.6595 60.9278C12.7293 61.0409 12.7996 61.1355 12.8787 61.2215C12.971 61.3318 13.0303 61.3892 13.0887 61.4297C13.096 61.4352 13.1668 61.5 13.1737 61.5059C13.2698 61.5813 13.346 61.6351 13.4301 61.681C13.6006 61.7743 13.6723 61.9816 13.5956 62.1604C13.5345 62.3014 13.3961 62.3878 13.2495 62.3878ZM10.9513 49.7523C9.3102 51.7458 8.3102 54.2734 8.3272 56.4182C8.3272 57.9012 8.8056 58.9958 9.67463 59.5032L11.6935 60.6751C11.6553 60.5841 11.6176 60.4834 11.5887 60.3832C11.54 60.2178 11.4903 60.0381 11.4504 59.8492C11.4182 59.6558 11.3883 59.4591 11.3686 59.2523C11.3488 59.0537 11.3392 58.8341 11.3392 58.6139C11.3392 58.1093 11.3819 57.6093 11.4669 57.1277C11.7344 55.5597 12.4242 53.8929 13.4081 52.4361C13.6016 52.1562 13.8019 51.8883 14.0028 51.6208L14.0519 51.5629L10.9513 49.7523Z" fill="#353B50"/>
<path d="M14.6535 62.7531C14.0749 62.7531 13.5372 62.6148 13.0602 62.3368C13.0552 62.3409 12.9963 62.3041 12.955 62.277C12.8736 62.2269 12.7928 62.1686 12.7123 62.0992C12.6903 62.0877 12.6439 62.0422 12.6048 62.0027C12.5405 61.9655 12.4283 61.8584 12.3249 61.7292C12.2123 61.6079 12.1135 61.4765 12.0258 61.334C11.9201 61.1755 11.8249 60.993 11.7505 60.8032C11.6949 60.6837 11.6319 60.5335 11.5887 60.3832C11.54 60.2177 11.4904 60.0381 11.4504 59.8492C11.4182 59.6557 11.3884 59.459 11.3691 59.2522C11.3406 59.0661 11.3295 58.8405 11.3295 58.6139C11.3295 58.0923 11.3764 57.59 11.4683 57.1203C11.7344 55.5597 12.4242 53.8928 13.4081 52.436C13.6016 52.1562 13.802 51.8882 14.0028 51.6208C14.1223 51.4705 14.228 51.3455 14.3332 51.221C14.5235 51.0008 14.7183 50.7968 14.9122 50.6019C15.5037 50.0013 16.142 49.5022 16.8084 49.1203C17.4219 48.7655 18.0405 48.5261 18.6462 48.4089C19.0088 48.3409 19.3617 48.323 19.7307 48.3565C19.8553 48.3722 19.9435 48.3841 20.0235 48.4039C20.0731 48.4071 20.1678 48.4301 20.2514 48.454C20.3608 48.4719 20.483 48.5215 20.5837 48.5666C20.6053 48.5725 20.625 48.5803 20.6439 48.5895C20.7252 48.6217 20.7987 48.6548 20.8723 48.6966C22.0363 49.3166 22.6889 50.6608 22.699 52.4751V52.4774C22.699 52.7807 22.6797 53.0937 22.6503 53.4071C22.449 55.2177 21.6871 57.1447 20.5042 58.8391C19.5529 60.1948 18.4182 61.277 17.222 61.9705C16.3245 62.4907 15.4504 62.7531 14.6535 62.7531ZM19.3654 49.0937C19.1687 49.0937 18.9793 49.1121 18.7877 49.1484C18.2661 49.2495 17.7261 49.4595 17.1838 49.7729C16.5759 50.1212 15.9922 50.578 15.4472 51.1323C15.2634 51.3161 15.0814 51.5073 14.9086 51.7072C14.8088 51.8253 14.7087 51.9434 14.6089 52.0702C14.4104 52.3322 14.2156 52.5918 14.0299 52.8607C13.1066 54.2274 12.4591 55.7894 12.2091 57.2564C12.1246 57.6874 12.0823 58.141 12.0823 58.6139C12.0823 58.8023 12.0906 58.9898 12.1158 59.1608C12.1365 59.3689 12.1636 59.5482 12.1903 59.7099C12.2229 59.8625 12.267 60.022 12.3121 60.1727C12.3452 60.2899 12.3943 60.4025 12.443 60.5082C12.506 60.6667 12.5777 60.8051 12.6595 60.9278C12.7293 61.0408 12.7997 61.1355 12.8787 61.2214C12.9711 61.3317 13.0304 61.3892 13.0887 61.4296C13.0961 61.4351 13.1668 61.4999 13.1737 61.5059C13.2542 61.5721 13.3056 61.6084 13.364 61.6447C14.3314 62.2058 15.5405 62.0748 16.8442 61.3189C17.9467 60.6801 18.9991 59.6732 19.887 58.4075C20.9991 56.8147 21.7142 55.0114 21.9012 53.3303C21.9279 53.0473 21.9463 52.7591 21.9463 52.4792C21.9375 50.9544 21.427 49.845 20.5078 49.3556C20.449 49.3221 20.3994 49.3023 20.3442 49.2812C20.3346 49.2775 20.3254 49.2734 20.3162 49.2692C20.2946 49.2614 20.2721 49.2522 20.2592 49.2453C20.2146 49.226 20.1471 49.1984 20.0809 49.1865C19.9968 49.1644 19.9417 49.1497 19.8865 49.1428C19.7895 49.1217 19.7326 49.1153 19.6797 49.1088C19.5722 49.0987 19.4679 49.0937 19.3654 49.0937Z" fill="#353B50"/>
<path d="M37.1574 25.9231C36.3514 25.4699 35.3197 25.7396 34.8548 26.5241L29.9343 34.8277L28.5167 34.0438C27.7095 33.5973 26.6784 33.8741 26.2194 34.6615C25.7605 35.4489 26.045 36.4532 26.8529 36.8999L29.725 38.4889C29.9791 38.629 30.2662 38.7031 30.5559 38.7031C31.157 38.7031 31.7167 38.3885 32.017 37.8817C34.2656 34.0876 35.5263 31.9604 37.775 28.1663C38.2392 27.3818 37.962 26.3756 37.1574 25.9231ZM37.1909 27.8379L31.4336 37.5533C31.1669 38.0033 30.5276 38.1762 30.0581 37.9176L27.186 36.3287C26.7008 36.0609 26.5302 35.4582 26.8055 34.9858C26.9918 34.6667 27.3348 34.4874 27.6871 34.4874C27.8563 34.4874 28.0275 34.5284 28.1842 34.6153L29.8922 35.5599C30.0535 35.6484 30.2583 35.5946 30.3505 35.4384L35.4382 26.8529C35.7174 26.3827 36.3369 26.2198 36.8202 26.4921C37.3029 26.7634 37.4695 27.3674 37.1909 27.8379Z" fill="#EA4A35"/>
<path d="M37.1909 27.8379L31.4336 37.5533C31.1669 38.0033 30.5276 38.1762 30.0581 37.9176L27.186 36.3287C26.7008 36.0609 26.5302 35.4582 26.8055 34.9858C26.9918 34.6667 27.3348 34.4874 27.6871 34.4874C27.8563 34.4874 28.0275 34.5284 28.1842 34.6153L29.8922 35.5599C30.0535 35.6484 30.2583 35.5946 30.3505 35.4384L35.4382 26.8529C35.7174 26.3827 36.3369 26.2198 36.8202 26.4921C37.3029 26.7634 37.4695 27.3674 37.1909 27.8379Z" fill="#EA4A35"/>
</svg>
