<svg width="64" height="65" viewBox="0 0 64 65" fill="none" xmlns="http://www.w3.org/2000/svg">
<path d="M55.5402 8.99826C55.5375 7.90886 55.1455 7.08308 54.4422 6.65813C54.3374 6.586 48.5174 3.20714 48.6089 3.26031C47.875 2.83353 46.9339 2.90897 45.9562 3.4737C45.9528 3.47566 45.9515 3.47967 45.9482 3.48174L11.6955 23.2532C9.81938 24.3426 8.39195 26.9186 8.39195 28.9608C8.39625 30.4483 8.46678 54.264 8.4607 52.7585C8.46517 53.8648 8.86427 54.7045 9.58481 55.1224C10.2063 55.4835 15.7491 58.7041 15.3953 58.4985C15.3971 58.4995 15.3982 58.5013 15.4 58.5023C16.23 58.9793 17.2114 58.7643 18.0455 58.2822L27.8187 52.6397L27.8803 59.1612C27.8803 59.7273 28.1018 60.1764 28.483 60.3893C28.714 60.5235 31.9249 62.3891 31.7187 62.271C32.1551 62.5208 32.6801 62.4301 33.1169 62.1773C33.4732 61.9715 33.8062 61.6438 34.0821 61.2286L37.1071 56.6697C37.3385 56.321 37.8883 55.7851 38.2232 55.8942L41.2777 56.9242C42.5581 57.3536 44.0159 55.5042 44.0044 54.0759L43.9466 47.4481C44.999 45.6954 45.7813 43.824 46.2529 41.9968L52.3089 38.5005C54.1652 37.4286 55.6143 34.921 55.608 32.7911L55.5402 8.99826ZM12.1536 24.0447L46.187 4.39943L51.0777 7.24134C47.8537 9.10303 60.787 1.63464 17.5009 26.6304C16.8065 27.0309 15.9734 27.7961 15.3173 28.8377L10.3027 25.9237C10.8214 25.1076 11.4812 24.4353 12.1536 24.0447ZM9.37856 52.4929L9.30624 28.9594C9.30624 28.2746 9.50177 27.4947 9.86249 26.7255L14.8755 29.638C14.5376 30.3459 14.3256 31.1275 14.2562 31.6463C14.1653 32.3085 14.2229 33.8179 14.2665 55.3364C14.174 55.2825 9.06538 52.3107 9.37856 52.4929ZM37.2911 53.0679C32.6669 55.7376 29.1241 53.5724 29.1241 48.4197C29.1071 42.9692 32.9509 36.313 37.6955 33.5808C42.0618 31.0472 45.84 32.7992 45.8553 38.2291C45.8695 43.6524 42.0304 50.332 37.2911 53.0679ZM37.2339 32.788C32.2393 35.6715 28.1902 42.6835 28.2062 48.4184C28.2095 49.6686 28.4332 51.095 28.9871 52.2336C26.6862 51.3102 25.8998 49.0031 25.892 46.5429C25.875 41.1063 29.7196 34.4496 34.4616 31.7045C35.7902 30.9411 37.0616 30.555 38.1955 30.555C39.765 30.555 40.5187 31.2839 41.0303 31.5237C40.0179 31.5885 38.6457 31.9732 37.2339 32.788ZM28.9357 59.5956C28.8705 59.559 28.7946 59.4233 28.7946 59.1567L28.7376 53.1548C29.5905 53.6463 30.8594 54.3967 31.0487 54.4853C31.0495 54.5768 31.1053 61.2804 31.1018 60.8536L28.9357 59.5956ZM41.5696 56.0576L38.5134 55.0273C37.6978 54.7547 36.8269 55.4402 36.3455 56.1639L33.3196 60.7233C33.0705 61.0996 32.8232 61.2916 32.6598 61.3858C32.2338 61.6299 32.024 61.5142 32.0205 61.0286C32.0197 60.9347 31.9646 54.4929 31.968 54.8959C33.8637 55.492 36.0205 54.8575 37.7482 53.8599C39.7997 52.6756 41.675 50.7677 43.0446 48.8362L43.0902 54.0835C43.0995 55.1945 41.9973 56.199 41.5696 56.0576ZM51.8518 37.7085L46.5205 40.7865C46.681 39.9072 46.7719 39.046 46.7696 38.2264C46.7616 35.3726 45.7686 33.2288 43.9745 32.182C43.9722 32.1806 43.9711 32.1782 43.9687 32.1768C41.5766 30.7837 40.6273 30.2309 40.7446 30.2992C38.9241 29.2442 36.5312 29.4621 34.0044 30.9125C29.0089 33.8045 24.9598 40.8175 24.9777 46.5456C24.9853 48.9759 25.7096 50.8834 27.0243 52.0425L17.5884 57.4902C16.1912 58.2959 15.1913 57.7293 15.1834 56.1353L15.1839 56.1335L15.1205 32.3358C15.1127 30.562 16.4205 28.3075 17.958 27.4237L17.9589 27.4233C61.8012 2.10947 49.036 9.47985 52.2214 7.64067C53.5863 6.85295 54.6221 7.37677 54.6259 9.00094L54.6937 32.7938C54.6982 34.5657 53.3973 36.8161 51.8518 37.7085Z" fill="#353B50"/>
<path d="M38.8314 40.6515L40.8297 39.4978C41.2002 39.2839 41.3552 39.7413 41.0562 40.1636L39.4443 42.4462C39.3106 42.6356 39.2551 42.8639 39.3068 43.0164L39.9295 44.8446C40.0449 45.1808 39.6449 45.7502 39.3436 45.6738L37.7241 45.2569C37.5589 45.2143 37.375 45.3751 37.2757 45.5157L35.6614 47.7997C35.3621 48.2222 34.9594 48.1177 35.0727 47.6487L35.683 45.1086C35.7337 44.897 35.6771 44.7334 35.5452 44.6973L33.9232 44.2819C33.6228 44.2057 33.7748 43.571 34.1452 43.3571L36.1435 42.2034C36.3092 42.1077 36.4551 41.9029 36.5057 41.6913L37.1185 39.1498C37.2268 38.7017 37.7239 38.3783 37.8447 38.7305L38.4675 40.5588C38.5191 40.7112 38.6657 40.7472 38.8314 40.6515Z" fill="#EA4A35"/>
<path d="M50.5402 12.5978L45.4509 15.5362C45.2866 15.6309 45.2303 15.8407 45.325 16.0045C45.423 16.1719 45.6344 16.2229 45.7937 16.13L50.883 13.1916C51.0473 13.0969 51.1036 12.8871 51.0089 12.7233C50.9134 12.5599 50.7036 12.5041 50.5402 12.5978ZM19.2696 31.4438L41.1134 18.8318C41.2777 18.7371 41.3339 18.5273 41.2393 18.3635C41.1437 18.2001 40.933 18.1434 40.7705 18.238L18.9268 30.8501C18.7625 30.9447 18.7062 31.1545 18.8009 31.3184C18.8986 31.4852 19.1098 31.537 19.2696 31.4438ZM50.5402 17.1331L23.7509 32.5996C23.5866 32.6943 23.5303 32.9041 23.625 33.0679C23.7227 33.2348 23.934 33.2866 24.0937 33.1934L50.883 17.7268C51.0473 17.6322 51.1036 17.4224 51.0089 17.2585C50.9134 17.0952 50.7036 17.0393 50.5402 17.1331ZM19.2696 35.9786L21.4607 34.7139C21.625 34.6193 21.6812 34.4094 21.5866 34.2456C21.4902 34.0818 21.2803 34.0264 21.1178 34.1202L18.9268 35.3849C18.7625 35.4795 18.7062 35.6893 18.8009 35.8532C18.8989 36.0206 19.1103 36.0716 19.2696 35.9786ZM50.5402 21.4987L41.7803 26.5559C41.6161 26.6505 41.5598 26.8603 41.6545 27.0242C41.7524 27.1916 41.9639 27.2425 42.1232 27.1496L50.883 22.0925C51.0473 21.9978 51.1036 21.788 51.0089 21.6242C50.9134 21.4608 50.7036 21.4041 50.5402 21.4987ZM25.9812 35.6777L18.9268 39.751C18.7625 39.8456 18.7062 40.0554 18.8009 40.2193C18.8986 40.3861 19.1098 40.4379 19.2696 40.3447L26.3241 36.2715C26.4884 36.1768 26.5446 35.967 26.45 35.8032C26.3536 35.638 26.142 35.5831 25.9812 35.6777ZM50.5402 26.034L44.8732 29.3054C44.7089 29.4001 44.6527 29.6099 44.7473 29.7737C44.8453 29.9411 45.0568 29.9921 45.2161 29.8992L50.883 26.6277C51.0473 26.5331 51.1036 26.3233 51.0089 26.1594C50.9134 25.9956 50.7036 25.9393 50.5402 26.034ZM21.1178 43.021L18.9268 44.2858C18.7625 44.3804 18.7062 44.5902 18.8009 44.7541C18.8989 44.9215 19.1103 44.9725 19.2696 44.8795L21.4607 43.6148C21.625 43.5202 21.6812 43.3103 21.5866 43.1465C21.4902 42.9827 21.2803 42.9268 21.1178 43.021Z" fill="#353B50"/>
</svg>
