<svg width="64" height="65" viewBox="0 0 64 65" fill="none" xmlns="http://www.w3.org/2000/svg">
<path d="M7.24418 54.5436L11.687 57.123C11.6879 57.1235 11.6879 57.1239 11.6888 57.1244C11.6928 57.1267 11.6975 57.1256 11.7015 57.1278C11.7036 57.129 11.7053 57.1307 11.7076 57.132C13.7876 58.328 16.2898 57.7134 18.3719 56.511C19.0638 56.1164 19.7406 55.6143 20.4015 55.0569C21.2073 56.8202 22.3953 58.1898 23.9281 59.0775L26.9772 60.853C26.983 60.8564 26.9899 60.8549 26.996 60.858C26.9995 60.8602 27.0029 60.8633 27.0067 60.8655C30.5804 62.9235 34.908 61.8317 38.4844 59.769C46.9719 54.8718 53.8725 43.1275 54.1598 33.2892C57.5368 28.9115 59.5431 23.5784 59.5254 18.9927C59.5171 15.9622 58.615 12.8863 56.0096 11.3604C56.0085 11.3598 56.0078 11.3585 56.0067 11.3579L51.5638 8.77037C50.2491 8.00541 48.633 7.77851 46.8748 8.0971C46.4798 7.64414 45.927 7.1615 45.3817 6.84224C43.9276 5.99528 40.7371 4.1374 40.9424 4.25697C38.6495 2.9351 35.6281 3.22394 32.4317 5.06769C27.1071 8.13873 22.4656 15.0799 21.2761 21.6833C20.4902 21.7566 19.5888 22.0393 18.6567 22.5775C14.9402 24.7214 12.031 29.7406 11.9431 34.0944C7.5915 37.4306 4.46047 43.4765 4.47453 48.5699C4.48257 51.3896 5.4665 53.511 7.24418 54.5436ZM20.087 48.7297C20.0602 39.0427 26.8969 27.2074 35.3263 22.3476C38.5317 20.4976 42.4683 19.4042 45.7165 21.1467C43.0461 20.9788 40.2267 21.9999 37.9254 23.3244C29.0473 28.45 22.1996 40.8024 22.2272 50.507C22.2272 50.5437 22.2319 50.5772 22.2321 50.6138C22.2608 54.1383 23.0279 56.1755 24.1897 58.1681C21.554 56.5239 20.0995 53.1842 20.087 48.7297ZM38.0272 58.9771C34.0111 61.2949 30.2585 61.6838 27.4629 60.073C24.2758 58.2385 23.1537 54.2744 23.1433 50.5056C23.1122 41.0687 29.7922 29.0755 38.3835 24.1195C41.6322 22.2435 45.6956 21.1423 48.9585 23.0267C51.7277 24.6254 53.2611 28.0228 53.2736 32.5949C53.3013 42.2753 46.462 54.1105 38.0272 58.9771ZM51.1031 9.56055L52.7835 10.5391C51.4712 10.5459 50.0518 10.8915 48.5817 11.5891C48.3486 10.5872 47.9785 9.70346 47.5 8.9433C48.8576 8.77957 50.0951 8.97416 51.1031 9.56055ZM47.8022 12.3436C47.8272 12.4873 47.9192 12.611 48.0504 12.6753C48.1835 12.7396 48.3361 12.7378 48.4656 12.6695C51.2004 11.2271 53.7379 11.0538 55.6129 12.182C57.5379 13.3391 58.6022 15.7588 58.6111 18.9958C58.6268 23.0501 56.966 27.7244 54.1482 31.7429C53.9493 27.2861 52.3105 23.9336 49.4551 22.2622C49.4477 22.2574 49.4437 22.2498 49.4361 22.2454C49.4335 22.2436 49.4308 22.2418 49.4281 22.2405L46.3799 20.4695C43.2817 18.6748 39.1924 19.0597 34.8692 21.5556C26.187 26.5614 19.146 38.753 19.1727 48.7324C19.1783 50.7761 19.4911 52.5903 20.0565 54.158C19.3625 54.7692 18.6462 55.3019 17.9165 55.7181C15.7174 56.9882 13.6745 57.2079 12.1638 56.3396C10.6692 55.4806 9.8415 53.6369 9.83346 51.1476C9.82146 47.838 11.4163 43.2825 14.5674 39.6598C15.3529 38.7577 16.2044 37.944 17.1094 37.2717C17.1907 37.2114 17.2942 37.0457 17.2942 36.9038C17.2815 31.1561 22.4188 25.2032 26.0828 25.1472C26.0882 25.1472 26.0946 25.1472 26.0986 25.1472C26.2675 25.1472 26.4289 25.0553 26.5105 24.8741C26.5196 24.8527 26.5323 24.8337 26.5388 24.8105C26.5788 24.714 28.6043 13.4754 37.3352 8.43688C42.7271 5.32686 46.9201 7.27984 47.8022 12.3436ZM32.8888 5.85965C35.7906 4.18555 38.4906 3.89805 40.4835 5.04805L42.1522 6.01947C41.9763 6.0207 41.7913 6.05262 41.6116 6.06629C40.2817 6.16726 38.6635 6.61736 36.8781 7.64224C31.3314 10.8463 26.9943 17.6543 25.7602 23.9648L22.1616 21.8748C23.2982 15.5073 27.7698 8.812 32.8888 5.85965ZM19.1138 23.3695C19.9906 22.8633 20.8221 22.5874 21.5281 22.5669L24.7451 24.4332C20.3737 25.7123 16.7259 31.5972 16.4067 36.1244L12.8522 34.0604C12.9576 30.0725 15.7219 25.3257 19.1138 23.3695ZM12.4252 34.8701L16.021 36.9579C15.4202 37.4471 14.6338 38.1914 13.9609 38.9467C11.0328 42.2433 8.90636 46.9371 8.91828 51.1507C8.92321 52.6988 9.24886 54.0057 9.68525 54.9038L7.70311 53.7525C6.21828 52.8905 5.39596 51.0485 5.38882 48.5672C5.37543 43.8436 8.38436 38.0134 12.4252 34.8701Z" fill="#353B50"/>
<path d="M37.9379 27.4471C31.2317 31.3159 25.7942 40.7315 25.8156 48.4355C25.8379 56.3594 31.5865 59.6199 38.4728 55.6472C45.1817 51.7771 50.621 42.3628 50.5995 34.6614C50.5774 26.7697 44.8543 23.4591 37.9379 27.4471ZM38.0156 54.8552C31.7437 58.4744 26.7503 55.6511 26.7299 48.4329C26.7085 41.0208 31.9415 31.9619 38.3951 28.2391C44.7002 24.6023 49.6649 27.4741 49.6853 34.6641C49.7067 42.073 44.471 51.1311 38.0156 54.8552Z" fill="#353B50"/>
<path d="M44.8558 39.9941C44.852 39.0773 44.0744 38.6273 43.2719 39.0883L40.4752 40.7017C40.2361 40.2679 39.8491 39.9975 39.3759 39.9301L39.3603 34.5387C39.3594 34.1025 39.1808 33.7494 38.8692 33.57C38.5585 33.3891 38.1603 33.4115 37.7772 33.6325C37.1469 33.9963 36.654 34.849 36.6567 35.5735L36.6732 41.485C36.0598 42.3283 35.6899 43.3314 35.6924 44.2092C35.6961 45.8578 36.9941 46.6256 38.4513 45.7842C39.0777 45.4234 39.6663 44.7879 40.0928 44.0362L43.7353 41.9351C44.3647 41.5713 44.8567 40.7191 44.8558 39.9941ZM38.2344 34.4244C38.3397 34.3633 38.404 34.3606 38.4085 34.3583C38.4183 34.3686 38.446 34.4235 38.446 34.5409L38.462 40.0293C38.1674 40.1499 37.9397 40.2441 37.5853 40.5191L37.571 35.5708C37.5701 35.1646 37.8799 34.6289 38.2344 34.4244ZM37.9942 44.9923C37.1776 45.4635 36.6086 45.1755 36.6067 44.2066C36.604 43.4878 36.9433 42.6043 37.4915 41.9012C37.7799 41.5311 38.1076 41.2347 38.4379 41.0441C38.6326 40.932 38.8183 40.861 38.9915 40.8342C39.7283 40.7138 39.9039 41.484 39.796 42.218C39.7361 42.6232 39.587 43.0598 39.362 43.482C39.0103 44.1431 38.512 44.6941 37.9942 44.9923ZM43.2781 41.1432L40.6406 42.6646C40.7065 42.3779 40.7553 41.9736 40.7317 41.6092L43.729 39.8802C43.8344 39.8191 43.8986 39.8159 43.9031 39.8146C43.9129 39.8244 43.9415 39.8793 43.9415 39.9963C43.9424 40.4025 43.6317 40.9387 43.2781 41.1432Z" fill="#EA4A35"/>
<path d="M37.9942 44.9923C37.1776 45.4635 36.6086 45.1755 36.6067 44.2066C36.604 43.4878 36.9433 42.6043 37.4915 41.9012C37.7799 41.5311 38.1076 41.2347 38.4379 41.0441C38.6326 40.932 38.8183 40.861 38.9915 40.8342C39.7283 40.7138 39.9039 41.484 39.796 42.218C39.7361 42.6232 39.587 43.0598 39.362 43.482C39.0103 44.1431 38.512 44.6941 37.9942 44.9923Z" fill="#EA4A35"/>
<path d="M38.2344 34.4244C38.3397 34.3633 38.404 34.3606 38.4085 34.3583C38.4183 34.3686 38.446 34.4235 38.446 34.5409L38.462 40.0293C38.1674 40.1499 37.9397 40.2441 37.5853 40.5191L37.571 35.5708C37.5701 35.1646 37.8799 34.6289 38.2344 34.4244Z" fill="#EA4A35"/>
<path d="M43.2781 41.1432L40.6406 42.6646C40.7065 42.3779 40.7553 41.9736 40.7317 41.6092L43.729 39.8802C43.8344 39.8191 43.8986 39.8159 43.9031 39.8146C43.9129 39.8244 43.9415 39.8793 43.9415 39.9963C43.9424 40.4025 43.6317 40.9387 43.2781 41.1432Z" fill="#EA4A35"/>
</svg>
