<svg width="64" height="65" viewBox="0 0 64 65" fill="none" xmlns="http://www.w3.org/2000/svg">
<path d="M17.0367 62.9868C16.9723 62.9868 16.9071 62.9703 16.8478 62.9358L12.6855 60.5125C11.976 60.1063 11.5789 59.269 11.5693 58.1559L11.5527 51.8466C11.5523 51.712 11.624 51.587 11.7412 51.5194C11.857 51.4514 12.0017 51.4523 12.1185 51.5203L16.2807 53.9436C16.396 54.0107 16.4673 54.1339 16.4677 54.2676L16.4935 60.5741C16.4935 61.3958 16.7549 62.0038 17.2301 62.2874C17.408 62.3935 17.4668 62.6233 17.3616 62.8016C17.2912 62.9206 17.1658 62.9868 17.0367 62.9868ZM12.3073 52.5015L12.322 58.1518C12.3294 58.9836 12.5923 59.5916 13.0619 59.8604L15.8423 61.479C15.7752 61.2033 15.7407 60.9009 15.7407 60.5755L15.7159 54.4859L12.3073 52.5015Z" fill="#353B50"/>
<path d="M16.0952 54.6435C16.03 54.6435 15.9647 54.6265 15.9059 54.5925L11.7405 52.172C11.6251 52.1049 11.5539 51.9813 11.5534 51.8475L11.5254 41.8935C11.5249 41.7589 11.5966 41.6339 11.7134 41.5668C11.8301 41.4983 11.9735 41.4987 12.0911 41.5672L16.2566 43.9877C16.3719 44.0548 16.4431 44.1784 16.4436 44.3122L16.4716 54.2662C16.4721 54.4009 16.4004 54.5259 16.2837 54.593C16.2253 54.627 16.16 54.6435 16.0952 54.6435ZM12.3057 51.6297L15.717 53.6118L15.6913 44.53L12.28 42.5479L12.3057 51.6297ZM28.7377 17.4459C28.6725 17.4459 28.6072 17.4289 28.5484 17.3949L24.3829 14.9739C24.2671 14.9064 24.1954 14.7823 24.1959 14.6481C24.1959 14.5139 24.2676 14.3898 24.3838 14.3227L34.9657 8.21336C35.0824 8.14443 35.2258 8.1458 35.3434 8.21382L39.5089 10.6348C39.6247 10.7023 39.6964 10.8264 39.6959 10.9606C39.6959 11.0948 39.6242 11.2189 39.5079 11.286L28.9261 17.3953C28.8678 17.4294 28.8025 17.4459 28.7377 17.4459ZM25.3232 14.6495L28.7382 16.6343L38.5686 10.9592L35.1536 8.97439L25.3232 14.6495Z" fill="#353B50"/>
<path d="M16.0679 44.6904C16.0026 44.6904 15.9374 44.6734 15.8786 44.6394L11.7131 42.2189C11.5978 42.1518 11.5265 42.0282 11.5261 41.8944L11.498 31.9464C11.4976 31.8117 11.5693 31.6867 11.686 31.6196C11.8027 31.5507 11.9461 31.5521 12.0638 31.6201L16.2292 34.0406C16.3446 34.1077 16.4158 34.2313 16.4162 34.365L16.4443 44.3131C16.4447 44.4477 16.3731 44.5727 16.2563 44.6398C16.198 44.6738 16.1327 44.6904 16.0679 44.6904ZM12.2784 41.6766L15.6897 43.6587L15.664 34.5828L12.2526 32.6008L12.2784 41.6766Z" fill="#353B50"/>
<path d="M16.0414 34.7392C15.9761 34.7392 15.9108 34.7222 15.8525 34.6887L11.6829 32.2695C11.5671 32.202 11.4959 32.0788 11.4954 31.9446L11.4766 25.639C11.4766 23.4694 12.9485 20.9244 14.8277 19.8435C14.9435 19.776 15.0873 19.7764 15.204 19.844L19.3736 22.2626C19.4899 22.3302 19.5616 22.4547 19.5611 22.5894C19.5607 22.724 19.4885 22.8481 19.3718 22.9152C17.7233 23.8587 16.3897 26.1643 16.3989 28.0549C16.3989 28.0545 16.3989 28.0554 16.3989 28.0549L16.4177 34.3619C16.4182 34.4966 16.3465 34.6211 16.2298 34.6887C16.1714 34.7227 16.1066 34.7392 16.0414 34.7392ZM12.2477 31.7263L15.6631 33.708L15.6461 28.0586C15.6369 26.1312 16.8635 23.8219 18.4715 22.6101L15.0198 20.6078C13.4651 21.6115 12.2293 23.8169 12.2293 25.6381L12.2477 31.7263Z" fill="#353B50"/>
<path d="M19.1805 22.9638C19.1152 22.9638 19.05 22.9468 18.9912 22.9128L14.8257 20.4919C14.7099 20.4243 14.6382 20.3002 14.6387 20.166C14.6387 20.0318 14.7104 19.9078 14.8266 19.8407L24.3841 14.3227C24.5008 14.2538 24.6442 14.2552 24.7618 14.3232L28.9273 16.7442C29.0431 16.8117 29.1148 16.9358 29.1143 17.07C29.1143 17.2042 29.0426 17.3282 28.9264 17.3953L19.3689 22.9133C19.3106 22.9473 19.2453 22.9638 19.1805 22.9638ZM15.766 20.1674L19.181 22.1522L27.987 17.0686L24.572 15.0838L15.766 20.1674ZM28.8248 47.2933C28.76 47.2933 28.6952 47.2768 28.6368 47.2432C28.5201 47.1761 28.4484 47.0516 28.4484 46.9169C28.4484 46.7864 28.516 46.6228 28.6267 46.5544C28.7375 46.4859 28.8763 46.4381 28.993 46.4955C29.1635 46.4955 29.2848 46.5994 29.3289 46.7639C29.3735 46.928 29.2742 47.0911 29.1272 47.1766L29.0141 47.2423C28.9553 47.2763 28.8901 47.2933 28.8248 47.2933ZM39.3781 41.1922C39.2935 41.1922 39.2099 41.1669 39.1446 41.1127C39.0109 41.002 38.9516 40.8278 39.0279 40.672C39.038 40.6504 39.0697 40.6012 39.084 40.5819C39.164 40.4275 39.3294 40.359 39.4999 40.4013C39.669 40.4418 39.7802 40.6067 39.7802 40.7805V40.8089C39.7802 40.928 39.7242 41.0401 39.6286 41.1109C39.5573 41.1642 39.4668 41.1922 39.3781 41.1922ZM24.5431 37.7685C24.5321 37.7685 24.5215 37.768 24.5105 37.7671C24.3161 37.7506 24.1667 37.5879 24.1662 37.393L24.1474 29.4684C24.1469 29.3333 24.2191 29.2088 24.3358 29.1412L30.0573 25.8384C30.2191 25.7464 30.4245 25.7837 30.5412 25.9303C30.6571 26.0764 30.6483 26.2855 30.5206 26.422C27.6947 29.433 25.5987 33.558 24.9135 37.4574C24.8818 37.6384 24.7242 37.7685 24.5431 37.7685ZM24.9006 29.6849L24.9121 34.4376C25.7209 32.019 26.9866 29.6339 28.5601 27.575L24.9006 29.6849Z" fill="#353B50"/>
<path d="M17.8686 63.1992C17.5018 63.1992 17.1599 63.1124 16.8552 62.9373C16.1374 62.5241 15.7399 61.685 15.7367 60.5742L15.7188 54.2686C15.7183 54.134 15.79 54.009 15.9067 53.9419L24.3915 49.043C24.5083 48.975 24.6512 48.9754 24.7679 49.0425C24.8842 49.1096 24.9559 49.2332 24.9563 49.3679L24.9848 59.316C24.9853 59.4506 24.9136 59.5756 24.7969 59.6427L19.4816 62.7112C18.92 63.0356 18.3713 63.1992 17.8686 63.1992ZM16.4724 54.4846L16.4894 60.5724C16.4922 61.4028 16.7551 62.0108 17.2307 62.2842C17.7109 62.5604 18.3764 62.4805 19.1048 62.0595L24.2312 59.1L24.2054 50.02L16.4724 54.4846ZM33.9352 54.3058C33.8704 54.3058 33.8056 54.2893 33.7472 54.2558C33.631 54.1887 33.5588 54.0646 33.5588 53.9304L33.54 45.7043C33.5395 45.5738 33.6066 45.4524 33.7174 45.3835C33.7619 45.3559 33.8088 45.3311 33.8557 45.3058L33.9513 45.2525C35.7868 44.191 37.5519 42.5876 39.0671 40.6087C39.0882 40.5811 39.1131 40.5563 39.1411 40.5356L51.9398 33.133C52.0565 33.065 52.1999 33.0655 52.3157 33.1326C52.4324 33.1997 52.5041 33.3233 52.5046 33.458L52.5234 39.7626C52.5336 41.9244 51.0662 44.4745 49.1829 45.5678L34.1232 54.2558C34.0653 54.2893 34 54.3058 33.9352 54.3058ZM34.2932 45.9253L34.3102 53.2787L48.8061 44.9161C50.449 43.9621 51.7794 41.6514 51.7707 39.7663C51.7707 39.7659 51.7707 39.7668 51.7707 39.7663L51.7537 34.1101L39.6273 41.1147C38.0611 43.1496 36.2339 44.8022 34.3401 45.8973C34.3263 45.906 34.3107 45.9152 34.2932 45.9253Z" fill="#353B50"/>
<path d="M39.403 41.187C39.3382 41.187 39.273 41.1705 39.2146 41.1365C39.0983 41.0694 39.0267 40.9453 39.0267 40.8107C39.0267 40.7279 39.0538 40.6195 39.1039 40.5538C41.8989 36.8911 43.5625 32.4453 43.5538 28.6609C43.5538 28.5354 43.5547 28.4104 43.5381 28.2859C43.5179 28.1347 43.591 27.9862 43.7233 27.9099L51.9113 23.1852C52.0271 23.1181 52.1705 23.1181 52.2872 23.1852C52.4035 23.2523 52.4752 23.3759 52.4756 23.5106L52.5041 33.4591C52.5046 33.5938 52.4329 33.7188 52.3162 33.7859L39.5915 41.1365C39.5331 41.1705 39.4678 41.187 39.403 41.187ZM44.3042 28.4444C44.3065 28.5161 44.3065 28.5882 44.3065 28.6599C44.3148 32.1402 42.9752 36.1448 40.6728 39.6425L51.7505 33.2431L51.7247 24.1622L44.3042 28.4444ZM24.6075 59.6903C24.5427 59.6903 24.4779 59.6737 24.4196 59.6402C24.3033 59.5731 24.2316 59.4495 24.2312 59.3148L24.2031 49.3667C24.2027 49.2321 24.2744 49.1071 24.3915 49.0395L28.7477 46.5276C28.8217 46.4848 28.9076 46.4678 28.9926 46.4807C30.4035 46.6926 32.0418 46.3084 33.7339 45.375C33.8516 45.3107 33.9931 45.3134 34.1071 45.3801C34.2215 45.4476 34.2923 45.5708 34.2923 45.7036L34.3111 53.9297C34.3116 54.0648 34.2399 54.1893 34.1227 54.2569L24.796 59.6402C24.7376 59.6737 24.6723 59.6903 24.6075 59.6903ZM24.9568 49.5832L24.9821 58.6632L33.5579 53.7137L33.5409 46.3235C31.9476 47.1002 30.3971 47.4168 29.0142 47.2436L29.0133 47.244L24.9568 49.5832Z" fill="#353B50"/>
<path d="M43.9121 28.612C43.8491 28.612 43.7862 28.5964 43.7297 28.5646C43.6139 28.5008 43.5403 28.3808 43.5357 28.2485C43.459 26.0159 42.7821 24.2714 41.5776 23.2034C40.6327 22.3657 39.3864 21.9874 37.9677 22.1074C37.7963 22.1198 37.6295 22.0141 37.5766 21.8454C37.5233 21.6777 37.5941 21.4953 37.7467 21.4066L51.8836 13.237C52.0003 13.169 52.1433 13.1694 52.26 13.2365C52.3763 13.3036 52.448 13.4272 52.4484 13.5619L52.4764 23.51C52.4769 23.6446 52.4052 23.7696 52.288 23.8372L44.1001 28.5619C44.0422 28.5954 43.9769 28.612 43.9121 28.612ZM39.2862 21.384C40.3491 21.5247 41.2981 21.9488 42.0771 22.64C43.323 23.7448 44.0688 25.453 44.2517 27.6051L51.7228 23.294L51.6975 14.214L39.2862 21.384ZM39.3184 11.3335C39.2531 11.3335 39.1878 11.3165 39.1295 11.2829L34.9668 8.86841C34.8505 8.80086 34.7793 8.67678 34.7793 8.54212C34.7793 8.40793 34.851 8.28385 34.9673 8.21676L44.5247 2.6947C45.5022 2.13082 46.4369 2.05315 47.1584 2.47687L51.305 4.89093C51.3105 4.89415 51.3156 4.8969 51.3207 4.90012C51.4999 5.00536 51.5596 5.2356 51.4548 5.41483C51.3496 5.59405 51.1194 5.6538 50.9406 5.54994L50.9287 5.54304C50.4562 5.27144 49.794 5.35233 49.0624 5.77053L39.5063 11.2834C39.4484 11.3169 39.3832 11.3335 39.3184 11.3335ZM35.9071 8.54304L39.3188 10.5224L48.6878 5.11749C48.9829 4.94929 49.2733 4.82429 49.555 4.74341L46.7784 3.12668C46.3069 2.84957 45.623 2.92999 44.9011 3.34681L35.9071 8.54304Z" fill="#353B50"/>
<path d="M39.3477 21.2852C39.2829 21.2852 39.2181 21.2687 39.1597 21.2351C39.0434 21.168 38.9718 21.0444 38.9713 20.9098L38.9428 10.9621C38.9423 10.8275 39.014 10.7025 39.1308 10.6354L48.6882 5.11748C49.6593 4.5559 50.5917 4.47593 51.3146 4.89184C52.0329 5.30498 52.4299 6.14413 52.4332 7.25443L52.4511 13.56C52.4515 13.6947 52.3798 13.8197 52.2631 13.8868L39.5361 21.2347C39.4777 21.2687 39.4125 21.2852 39.3477 21.2852ZM39.6965 11.1781L39.7222 20.2576L51.6974 13.344L51.6804 7.25626C51.6776 6.42584 51.4148 5.81785 50.9391 5.54441C50.4598 5.26775 49.7934 5.34818 49.065 5.76913L39.6965 11.1781ZM16.0995 54.6451C16.0347 54.6451 15.9699 54.6285 15.912 54.595C15.7953 54.5279 15.7236 54.4042 15.7231 54.2696L15.6951 44.3119C15.6946 44.1772 15.7663 44.0522 15.8835 43.9847L24.1468 39.2223C24.2677 39.1538 24.4157 39.1561 24.5338 39.2287C24.6514 39.3022 24.7195 39.4346 24.7103 39.5729C24.702 39.7062 24.702 39.8394 24.702 39.9723C24.7107 43.6078 26.2741 46.0343 28.8849 46.4621C29.0669 46.4916 29.2006 46.6492 29.2006 46.8335V46.918C29.2006 47.0527 29.1289 47.1768 29.0122 47.2443L16.2879 54.5945C16.2296 54.6285 16.1648 54.6451 16.0995 54.6451ZM16.4488 44.5283L16.4741 53.617L27.9263 47.0012C25.48 46.1951 24.0205 43.7269 23.9515 40.2039L16.4488 44.5283Z" fill="#353B50"/>
<path d="M28.7686 27.3976C28.7038 27.3976 28.639 27.3811 28.5811 27.3475C28.4644 27.2809 28.3927 27.1568 28.3922 27.0222L28.3642 17.0741C28.3637 16.9395 28.4354 16.8145 28.5522 16.7474L39.1312 10.6389C39.2479 10.5709 39.3909 10.5714 39.5076 10.6384C39.6239 10.7055 39.6955 10.8292 39.696 10.9638L39.724 20.9123C39.7245 21.047 39.6528 21.1715 39.5365 21.2391L38.1248 22.058C38.0761 22.0861 38.0218 22.1031 37.9658 22.1077C36.8109 22.1987 35.5696 22.6256 34.2755 23.3756C32.9791 24.126 31.7158 25.1513 30.5209 26.4229C30.4956 26.4496 30.4671 26.4725 30.4354 26.4909L28.9575 27.3471C28.8991 27.3806 28.8339 27.3976 28.7686 27.3976ZM29.1179 17.2901L29.1432 26.3691L30.0103 25.8669C31.2443 24.5608 32.5522 23.5033 33.8978 22.7239C35.2585 21.9353 36.5774 21.4781 37.8201 21.3641L38.9704 20.6968L38.9451 11.6159L29.1179 17.2901ZM16.0724 44.6872C16.0076 44.6872 15.9428 44.6706 15.8844 44.6371C15.7682 44.57 15.6965 44.4459 15.696 44.3117L15.668 34.3636C15.6675 34.229 15.7392 34.104 15.8559 34.0364L24.3357 29.1421C24.4524 29.075 24.5954 29.075 24.7121 29.1421C24.8284 29.2092 24.9005 29.3333 24.9005 29.4675L24.9193 37.3921C24.9193 37.3917 24.9193 37.3926 24.9193 37.3921V37.4119C24.7989 38.1679 24.7309 38.8595 24.7121 39.5493C24.7084 39.6803 24.6372 39.8094 24.5237 39.8747L16.2603 44.6371C16.202 44.6706 16.1372 44.6872 16.0724 44.6872ZM16.4216 34.5796L16.4469 43.6605L23.9667 39.3264C23.9938 38.6683 24.0609 38.024 24.1675 37.394L24.1491 30.1196L16.4216 34.5796Z" fill="#353B50"/>
<path d="M16.0389 34.7421C15.9741 34.7421 15.9093 34.7255 15.8509 34.692C15.7346 34.6249 15.6629 34.5013 15.6625 34.3666L15.6446 28.061C15.6381 25.897 17.1082 23.3496 18.9915 22.2623L28.549 16.7444C28.6657 16.6764 28.8086 16.6768 28.9253 16.7439C29.0416 16.811 29.1133 16.9346 29.1138 17.0693L29.1423 27.0169C29.1427 27.1515 29.071 27.2765 28.9543 27.3436L16.2273 34.6915C16.1689 34.7255 16.1037 34.7421 16.0389 34.7421ZM28.3628 17.7214L19.3684 22.914C17.7245 23.8634 16.3918 26.1713 16.3973 28.0592L16.4134 33.7145L28.3886 26.8009L28.3628 17.7214Z" fill="#353B50"/>
<g clip-path="url(#clip0_100_4598)">
<path d="M34.7331 34.2779C32.7434 37.8035 32.9438 39.9645 33.7987 41.1524C31.7828 41.4008 29.9759 38.5204 32.6417 33.214C35.4738 28.2082 34.9785 27.102 34.9999 25.8751C35.835 27.1736 37.1251 30.0403 34.7331 34.2779Z" fill="#EA4A35"/>
<path d="M34.2214 40.9233C33.8251 40.1221 33.4369 37.8276 34.72 35.5554C37.0324 31.3881 36.711 29.2036 36.6632 29.0894L36.6595 29.0849C36.6605 29.0843 36.6619 29.0857 36.6632 29.0894C36.7535 29.2045 38.4702 31.4916 37.0968 36.0928C37.8602 35.1077 38.1933 34.2058 38.2904 33.9311C37.8347 37.9066 35.8274 39.7685 34.2214 40.9233ZM33.7182 30.5183C32.6645 31.9182 30.2787 35.2969 30.0971 37.8374C29.9155 40.3779 31.077 40.6633 31.7565 41.0478C31.4204 40.6511 30.753 39.5714 30.7873 37.6084C30.8215 35.6453 32.7776 31.9826 33.7182 30.5183Z" fill="#EA4A35"/>
</g>
<defs>
<clipPath id="clip0_100_4598">
<rect width="17.3846" height="17.3846" fill="white" transform="matrix(0.848048 -0.529919 -0.0174524 0.999848 27.2715 29.3907)"/>
</clipPath>
</defs>
</svg>
