<svg width="64" height="65" viewBox="0 0 64 65" fill="none" xmlns="http://www.w3.org/2000/svg">
<path d="M55.1448 12.1475C54.0217 11.4875 50.8525 9.64146 51.0564 9.76034C49.7756 9.01067 48.1995 8.89153 46.4772 9.39304C46.0015 8.11118 45.2292 7.11698 44.1781 6.50091C43.0937 5.86536 39.978 4.05701 40.0894 4.11659C38.2314 3.03534 35.7886 3.25855 33.2127 4.74605C29.7269 6.76458 26.6169 10.7713 25.0278 15.2448C24.1216 15.338 23.145 15.665 22.1752 16.2264C18.6488 18.2663 15.6743 22.884 15.0283 27.2723C10.0238 30.286 5.99592 37.3467 6.01177 43.1461C6.0198 46.0755 7.03587 48.2773 8.87248 49.3469L12.9412 51.7166C12.9439 51.7184 12.9457 51.7193 12.9475 51.7211C12.9499 51.7225 12.9528 51.7218 12.9551 51.7231C12.9609 51.7265 12.9658 51.7311 12.9716 51.7344C15.1029 52.9598 17.6706 52.3321 19.8091 51.0943L31.568 44.2896L31.5649 45.3112C29.7055 46.4912 28.5537 48.5411 28.5537 50.7407C28.5537 51.0194 28.5787 51.2973 28.6162 51.5789C26.6993 52.7267 20.4758 56.4712 19.685 56.9264C19.2234 57.1925 18.968 57.7157 18.9662 58.3987C18.9618 59.6166 19.7948 61.0532 20.8627 61.6693C21.3859 61.9724 21.9856 62.0869 22.5037 61.7898C23.4482 61.2432 19.0999 63.8316 31.7178 56.2636C32.6986 56.8593 33.8127 57.1862 34.9716 57.1862C38.5109 57.1862 41.3903 54.2952 41.3903 50.7407C41.3903 50.6731 41.3758 50.6085 41.3738 50.5413L50.3046 45.1996C51.1376 44.6631 51.1018 43.3865 50.7394 42.4836C50.2167 41.1343 48.7138 39.6546 47.4457 40.3461L38.7408 45.569C38.2332 45.1994 37.6649 44.9107 37.0526 44.7021L37.0644 41.1091L48.7716 34.3344C53.8707 31.3836 58.0046 24.2032 57.9885 18.3273C57.9805 15.4095 56.9691 13.2197 55.1448 12.1475ZM50.5948 10.5496L52.1908 11.48C50.3216 11.5828 48.4985 12.4841 46.9984 13.5907C47.0722 12.4711 47.0143 11.3844 46.7426 10.2666C48.2136 9.83952 49.5403 9.93216 50.5948 10.5496ZM33.6707 5.53713C35.9502 4.22105 38.0671 3.99873 39.6296 4.90677L41.2019 5.82284C40.1682 5.88278 38.7343 6.28345 37.2894 7.11927C34.1751 8.92142 30.9051 12.6893 29.1886 17.3675L25.9118 15.4586C27.4394 11.2175 30.3877 7.43802 33.6707 5.53713ZM22.6323 17.0175C23.5377 16.4943 24.4386 16.188 25.2475 16.13L28.1109 17.7978C23.6639 19.0509 20.0212 24.6076 19.1734 29.1886C19.0801 29.1343 15.7303 27.1828 15.943 27.3068C16.5752 23.263 19.4091 18.8827 22.6323 17.0175ZM9.33319 48.5577C7.78855 47.6577 6.93319 45.7344 6.92605 43.1443C6.91087 37.6496 10.7136 30.9568 15.4484 28.0773L18.6341 29.9327C13.9366 33.0405 10.0726 39.8567 10.0868 45.5202C10.0907 47.1716 10.4292 48.5057 10.9055 49.4728L9.33319 48.5577ZM19.8805 58.4014C19.8825 57.683 20.2795 57.4945 20.8725 57.838C21.6516 58.289 22.307 59.4675 22.3046 60.3291C22.3046 60.9812 21.967 61.2493 21.3198 60.8782C20.5368 60.4255 19.8778 59.2916 19.8805 58.4014ZM21.3073 57.0309C23.582 55.6659 28.2533 52.8629 30.5877 51.4621C31.5308 50.8651 33.5235 54.1566 32.4823 54.7398C32.4778 54.7425 32.4743 54.7443 32.4707 54.7469C30.9227 55.6742 26.8438 58.1177 23.2252 60.2853C23.2064 59.0249 22.2053 57.4799 21.3073 57.0309ZM47.8993 41.1398C48.4924 40.813 49.5137 41.8532 49.8894 42.8184C50.0628 43.2531 50.2091 44.1744 49.8225 44.4237L41.266 49.5409C41.0191 48.257 40.3885 47.0928 39.4787 46.1919L47.8993 41.1398ZM40.4761 50.7407C40.4761 53.7907 38.0064 56.2719 34.9716 56.2719C34.1455 56.2719 33.3439 56.0827 32.6144 55.7264L32.935 55.5344C35.0667 54.3256 32.097 49.4404 30.11 50.6827L29.4968 51.0505C29.491 50.9482 29.468 50.8432 29.468 50.7407C29.468 49.0495 30.2609 47.4569 31.5747 46.4145C31.6374 47.0735 32.1577 47.8392 34.1859 48.0612C35.5644 48.0612 37.0475 47.5068 37.0475 46.2898L37.0495 45.672C39.0899 46.5004 40.4761 48.4954 40.4761 50.7407ZM36.1372 45.0733V45.0756L36.1332 46.288C36.1332 46.8014 35.1261 47.1469 34.2359 47.1496C33.5787 47.0773 32.4761 46.8657 32.4761 46.2711L32.4841 43.7596L36.1484 41.6391L36.1372 45.0733ZM48.3144 33.5434L19.3519 50.3032C17.0894 51.6103 14.9859 51.838 13.4269 50.9416C11.6243 49.9075 11.0068 47.6172 11.0011 45.5184C10.985 39.9362 14.91 33.1166 19.7502 30.3157C19.8366 30.2656 19.9631 30.0705 19.9752 29.9791C20.6739 24.599 25.3616 18.6573 29.4519 18.4969C29.4564 18.4968 29.4595 18.493 29.4638 18.4927C29.6658 18.4799 29.8231 18.3227 29.8689 18.1871C31.2066 14.2254 34.2454 9.93528 37.7528 7.91213C42.8207 4.96655 46.8971 7.67827 45.9814 14.5594C45.9237 14.9774 46.42 15.2373 46.7296 14.9684C51.771 10.6898 57.056 11.7027 57.0743 18.3291C57.0903 23.9139 53.16 30.7389 48.3144 33.5434Z" fill="#353B50"/>
<path d="M32.4836 33.0689L32.7267 32.2795L36.235 30.1715L36.9588 31.7879L39.7662 30.101L35.5442 21.0687L33.0202 22.5853L29.1979 36.4511L30.6632 35.5707C31.4504 35.0977 32.1583 34.1248 32.4836 33.0689ZM35.5968 28.0613L33.4828 29.3315L34.4822 25.3951L35.5968 28.0613Z" fill="#EA4A35"/>
</svg>
