<svg width="64" height="65" viewBox="0 0 64 65" fill="none" xmlns="http://www.w3.org/2000/svg">
<path d="M18.2905 61.6403C21.7358 63.6345 23.6981 62.1396 23.7896 62.1273C65.173 38.0701 44.6829 49.9815 50.6057 46.5385C52.078 45.6822 52.8959 43.9309 52.9066 41.6059C52.9258 33.8818 52.9968 3.48217 52.9968 5.41033C52.9968 5.2507 52.9078 5.09165 52.7655 5.00989C50.8456 3.90682 48.8167 2.73423 48.9137 2.7898C48.7718 2.7081 48.5959 2.7081 48.4557 2.79069L21.6548 18.3657C21.6495 18.3685 21.6432 18.3672 21.6379 18.3702C21.4959 18.4519 21.4084 18.6023 21.4084 18.7657L21.3593 38.2816L11.287 44.1269C11.1719 44.1939 11.0602 44.4246 11.0593 44.5166L11.0039 49.0103C10.995 53.6447 14.2637 59.3108 18.2905 61.6403ZM50.1468 45.7483L25.5673 60.0371C25.9177 59.2063 26.0862 58.0952 26.0896 57.1956L26.1809 21.2572L52.078 6.20749L51.9923 41.6027C51.9825 43.5894 51.3271 45.0617 50.1468 45.7483ZM48.6861 3.71391L51.6222 5.40922L25.7204 20.467L22.7818 18.7681L48.6861 3.71391ZM15.8195 47.0119L21.3454 43.7986L21.3173 54.9724C21.3173 56.6799 20.2313 57.2659 18.7673 56.4237C17.1325 55.4769 15.7593 53.101 15.7673 51.2389L15.8195 47.0119ZM21.3459 42.7407L15.3649 46.2155L12.4294 44.5213L21.3566 39.34C21.3563 39.4339 21.3453 42.937 21.3459 42.7407ZM11.9637 45.3085L14.9048 47.0059L14.853 51.2313C14.8432 53.421 16.3941 56.1054 18.3102 57.2157C20.3876 58.4099 22.2316 57.388 22.2316 54.9733C22.2449 50.179 22.3004 27.7299 22.3209 19.5603L25.1519 21.1946L25.2649 21.2598L25.1682 57.1934C25.1682 61.2572 22.4062 62.964 18.7477 60.8492C14.9736 58.6652 11.9093 53.355 11.9182 49.017L11.9637 45.3085Z" fill="#353B50"/>
<path d="M48.7718 12.4139L29.2164 23.7827C28.9977 23.9095 28.9236 24.1894 29.0503 24.4077C29.1761 24.6241 29.4552 24.7006 29.6753 24.5728L49.2307 13.2041C49.4494 13.0773 49.5236 12.7974 49.3968 12.5791C49.2691 12.3599 48.9887 12.2871 48.7718 12.4139ZM48.7718 18.0983L29.2164 29.467C28.9977 29.5938 28.9236 29.8737 29.0503 30.092C29.1761 30.3085 29.4552 30.385 29.6753 30.2572L49.2307 18.8885C49.4494 18.7617 49.5236 18.4818 49.3968 18.2635C49.2691 18.0447 48.9887 17.9724 48.7718 18.0983ZM38.9682 28.6036C34.237 31.3349 30.4012 37.9831 30.4164 43.4237C30.4329 49.0177 34.5026 51.4655 39.4798 48.5925C44.2102 45.8612 48.0459 39.2157 48.0307 33.7791C48.0159 28.1303 43.9012 25.7585 38.9682 28.6036ZM39.0227 47.8005C34.719 50.286 31.3455 48.3732 31.3307 43.4211C31.3155 38.2724 34.9468 31.9804 39.4253 29.3956C43.7181 26.9181 47.1034 28.8015 47.1164 33.7818C47.1316 38.9264 43.5003 45.2153 39.0227 47.8005Z" fill="#353B50"/>
<path d="M40.353 34.2308C40.3524 34.0238 40.2067 33.9398 40.0238 34.0465L38.9503 34.6731C38.7721 34.777 38.6272 35.0307 38.6278 35.2376L38.6334 37.2197C38.6336 37.3054 38.5758 37.3979 38.51 37.4363C38.4921 37.4467 38.4737 37.4532 38.4557 37.4543L36.9017 37.5431C36.8571 37.5455 36.8106 37.5615 36.7648 37.5882C36.6419 37.6599 36.5252 37.8092 36.4709 37.98L36.0287 39.378C35.9542 39.6124 36.0299 39.7919 36.1942 39.7833L37.1003 39.7344C37.2223 39.7232 37.2229 39.9301 37.1013 40.0666L36.1978 41.0684C36.034 41.2513 35.9596 41.5183 36.0352 41.6651L36.4837 42.5433C36.5395 42.6517 36.659 42.6634 36.7838 42.5906C36.8279 42.5648 36.8726 42.5285 36.9156 42.4821L38.465 40.7542C38.4822 40.7352 38.4999 40.7207 38.5172 40.7107C38.5838 40.6718 38.6431 40.6988 38.6434 40.781L38.6489 42.7686C38.6495 42.9755 38.7953 43.0595 38.9735 42.9555L40.047 42.3289C40.2299 42.2222 40.3747 41.9686 40.3741 41.7617L40.3685 39.7742C40.3683 39.692 40.4274 39.5958 40.4916 39.5583C40.5082 39.5486 40.5252 39.5429 40.5416 39.5422L42.1003 39.4561C42.1432 39.4525 42.1881 39.4364 42.2323 39.4107C42.357 39.3379 42.4761 39.1869 42.5311 39.0138L42.9733 37.6158C43.0431 37.3841 42.9721 37.2019 42.8077 37.2106L41.9017 37.2649C41.7796 37.2707 41.779 37.0638 41.9008 36.9327L42.8041 35.9255C42.968 35.7426 43.0377 35.4783 42.9669 35.3287L42.5183 34.4505C42.4633 34.3435 42.346 34.3308 42.2231 34.4026C42.1774 34.4292 42.1309 34.4676 42.0865 34.5172L40.5323 36.2423C40.5153 36.2616 40.4977 36.2762 40.4805 36.2863C40.4169 36.3234 40.3588 36.2985 40.3585 36.2129L40.353 34.2308Z" fill="#EA4A35"/>
</svg>
