<svg width="488" height="448" viewBox="0 0 488 448" fill="none" xmlns="http://www.w3.org/2000/svg">
<path opacity="0.1" d="M390.228 190.283C371.698 200.93 341.952 200.93 323.625 190.283C314.441 184.96 309.89 177.97 309.931 170.981V165.576C303.104 175.573 306.72 187.439 320.74 195.525C339.595 206.416 369.95 206.416 388.684 195.566C397.136 190.649 401.769 184.309 402.5 177.889C400.468 182.44 396.364 186.748 390.228 190.283Z" fill="#353B50"/>
<path d="M373.115 112.595C355.128 115.948 334.591 113.475 320.2 105.166C309.943 99.2443 304.818 91.4734 304.84 83.7102L304.91 59.5234C304.888 67.287 310.013 75.0575 320.27 80.979C340.761 92.8098 373.71 92.8095 394.02 81.0067C404.103 75.1469 409.154 67.4914 409.176 59.8201L409.106 84.0068C409.084 91.6782 404.033 99.3333 393.949 105.193C391.791 106.448 389.49 107.569 387.076 108.556" fill="#DFE3E6"/>
<path d="M334.7 72.603C347.157 79.7952 367.146 79.7948 379.484 72.625C391.746 65.4994 391.681 53.9208 379.223 46.7286C366.843 39.5811 346.854 39.5811 334.593 46.7067C322.255 53.8766 322.32 65.4555 334.7 72.603Z" fill="#D6DCE0"/>
<path opacity="0.1" d="M414.773 335.925L275.837 416.67C269.172 420.571 258.282 420.53 251.536 416.629L34.7819 291.51C29.4178 288.381 28.3206 283.748 31.531 280.01C32.3438 280.944 33.4001 281.798 34.7412 282.57L251.455 407.648C258.201 411.55 269.091 411.55 275.796 407.73L394.658 338.607L406.198 331.943L414.691 326.985C416.032 326.213 417.089 325.319 417.901 324.385C421.153 328.123 420.137 332.796 414.773 335.925Z" fill="#353B50"/>
<path d="M139.096 200.686C138.689 197.232 137.755 193.737 136.495 190.283L139.096 200.686ZM88.7472 217.997L88.7067 229.985L88.7472 217.997ZM414.001 294.19L253.69 201.661V207.391C253.69 209.22 253.853 211.089 254.178 212.958C267.303 220.557 281.567 228.806 295.912 237.096L307.777 243.923C347.642 266.923 386.043 289.07 400.428 297.401C403.029 298.904 403.029 302.765 400.428 304.309L270.148 380.014C268.238 381.071 265.312 381.721 262.264 381.721C259.257 381.721 256.25 381.071 254.34 379.933C254.34 379.933 82.1237 280.577 47.7045 260.706C45.1038 259.162 45.1038 255.301 47.7045 253.798L78.0194 236.162L78.06 224.214L34.0101 249.816C27.3457 253.676 27.3864 259.975 34.0915 263.876L250.846 388.995C257.591 392.896 268.482 392.896 275.146 389.036L414.082 308.291C420.787 304.39 420.706 298.091 414.001 294.19Z" fill="#D6DCE0"/>
<path d="M329.678 297.728V296.021L328.5 295.98L328.459 285.293L347.03 286.024L347.07 298.419L329.678 297.728Z" fill="#DFE3E6"/>
<path d="M312.327 307.764V306.058L311.148 306.017L311.107 295.289L328.5 295.98L329.678 296.021V297.727L329.719 308.455L312.327 307.764Z" fill="#DFE3E6"/>
<path d="M295.057 317.761V316.013L293.797 315.973V305.285L311.149 306.017L312.327 306.057V307.764L312.368 318.451L295.057 317.761Z" fill="#DFE3E6"/>
<path d="M295.057 316.013V328.447L277.705 327.716V326.05L276.527 326.009L276.486 315.281L293.797 315.972L295.057 316.013Z" fill="#DFE3E6"/>
<path d="M260.436 337.755V336.007L259.216 335.967L259.176 325.279L276.528 326.011L277.706 326.051V327.718L277.747 338.446L260.436 337.755Z" fill="#DFE3E6"/>
<path d="M260.436 336.005V348.44L243.125 347.749V346.001L241.865 345.27V335.273L259.217 335.964L260.436 336.005Z" fill="#DFE3E6"/>
<path d="M139.502 205.889V211.944L139.38 232.871L93.2986 259.529C91.9169 260.301 90.3727 260.87 88.7067 261.154C88.666 261.195 88.666 261.195 88.666 261.195L88.7067 241.242L88.7878 176.671C88.7878 175.94 88.8285 175.208 88.9098 174.436C88.9505 174.03 88.9909 173.624 89.0316 173.217C89.0723 172.77 89.113 172.282 89.235 171.795C89.2754 171.47 89.3161 171.104 89.3974 170.82C89.3974 170.698 89.3974 170.657 89.4381 170.616C89.6006 169.966 89.763 169.316 89.9664 168.706C90.1695 168.097 90.3727 167.487 90.6165 166.959C90.7789 166.675 90.901 166.39 91.0227 166.146C91.0227 166.065 91.0634 166.024 91.1041 165.984C91.5917 165.008 92.12 164.155 92.7703 163.424C92.9328 163.18 93.0952 162.977 93.3797 162.773C93.5018 162.57 93.7049 162.367 93.8673 162.205C94.03 162.001 94.2332 161.839 94.3956 161.717C94.5177 161.595 94.6394 161.514 94.8021 161.351C95.2491 161.026 95.696 160.661 96.2243 160.417C96.5495 160.254 96.834 160.051 97.1996 159.888C101.71 157.816 107.684 158.385 114.226 162.205C128.164 170.251 139.543 189.837 139.502 205.889Z" fill="#DFE3E6"/>
<path d="M201.6 94.0859C204.676 94.0859 208.612 96.5314 212.585 98.8384C213.994 99.6499 215.404 100.59 216.771 101.658L132.661 150.44C128.859 146.81 124.801 143.691 120.529 141.128L201.6 94.0859ZM242.316 151.807L242.273 187.541L212.499 204.841L212.542 169.065C212.542 165.734 212.158 162.188 211.303 158.642L241.077 141.385C241.931 144.93 242.316 148.476 242.316 151.807Z" fill="#D6DCE0"/>
<path d="M163.973 278.121L178.569 269.659L188.067 264.152L247.528 229.68C248.943 233.984 251.017 237.895 254.014 241.251L171.064 289.398C167.459 286.847 165.072 283.11 163.973 278.121Z" fill="#DFE3E6"/>
<path d="M285.783 181.587C282.636 181.587 280.076 179.027 280.076 175.882C280.076 172.735 282.636 170.176 285.783 170.176C288.981 170.176 291.485 172.682 291.485 175.882C291.485 179.027 288.926 181.587 285.783 181.587ZM285.783 172.208C283.755 172.208 282.108 173.856 282.108 175.882C282.108 177.908 283.755 179.555 285.783 179.555C287.807 179.555 289.453 177.908 289.453 175.882C289.453 173.823 287.842 172.208 285.783 172.208Z" fill="#D6DCE0"/>
<path d="M228.25 120.829L228.627 121.186L229.069 121.142L229.34 120.774L229.244 120.255C227.846 117.886 226.317 115.594 224.6 113.41C227.768 114.846 230.784 116.403 233.611 118.066L234.001 118.174L234.379 118.076L234.51 118.001C234.717 117.882 234.841 117.719 234.871 117.459C234.936 117.211 234.877 116.973 234.731 116.724C233.203 114.129 231.457 111.599 229.534 109.231L229.063 108.928L228.587 108.961L228.369 109.329L228.54 109.805C230.279 111.946 231.88 114.227 233.301 116.552C230.447 114.964 227.394 113.43 224.184 112.047C223.817 111.896 223.521 111.886 223.278 112.027L223.146 112.102C222.705 112.356 222.76 112.907 223.075 113.293C224.994 115.692 226.74 118.223 228.25 120.829ZM220.756 125.216C222.362 125.365 224.092 124.405 224.771 122.898C226.287 119.889 223.279 115.167 219.339 115.026C217.71 114.946 215.913 115.84 215.324 117.345C214.235 120.279 217.507 124.947 220.756 125.216ZM216.544 117.971C216.97 116.838 218.314 116.134 219.583 116.216C222.444 116.401 224.72 119.867 223.717 122.206C223.22 123.366 221.901 124.087 220.677 123.961C218.097 123.693 215.762 120.045 216.544 117.971ZM216.261 127.751L216.657 128.096L217.099 128.053L217.351 127.696L217.255 127.177C215.686 124.484 213.88 121.867 211.898 119.413L211.427 119.11L210.951 119.143L210.733 119.511L210.903 119.987C212.886 122.441 214.691 125.058 216.261 127.751ZM203.761 124.655L204.203 124.611C204.954 124.178 205.704 123.745 206.436 123.322C208.261 125.626 209.914 128.058 211.383 130.567L211.779 130.913L212.202 130.881L212.473 130.512L212.377 129.993C210.908 127.485 209.256 125.051 207.43 122.748C208.18 122.315 208.912 121.893 209.644 121.47L209.858 121.135L209.717 120.702L209.28 120.41L208.838 120.454C207.018 121.505 205.198 122.555 203.397 123.595L203.182 123.931L203.357 124.374L203.761 124.655ZM202.264 135.832L202.66 136.177L203.103 136.134L203.373 135.766L203.259 135.258C202.722 134.328 202.151 133.387 201.558 132.489C202.215 132.11 202.891 131.72 203.547 131.341C205.461 130.235 205.713 128.46 204.515 126.851C203.296 125.218 201.373 124.765 199.494 125.848C198.669 126.325 197.843 126.802 196.999 127.289L196.781 127.657L196.97 128.122C198.938 130.555 200.729 133.15 202.264 135.832ZM200.222 126.941C201.463 126.224 202.657 126.267 203.521 127.425C204.386 128.587 203.961 129.56 202.711 130.282C202.073 130.65 201.435 131.018 200.816 131.376C200.04 130.251 199.212 129.126 198.346 128.024C198.965 127.666 199.603 127.298 200.222 126.941ZM199.169 137.619L199.546 137.975L199.988 137.932L200.259 137.564L200.163 137.045C198.594 134.352 196.788 131.735 194.806 129.281L194.334 128.979L193.84 129.023L193.621 129.39L193.811 129.856C195.793 132.31 197.599 134.926 199.169 137.619ZM191.382 142.114L191.779 142.46L192.221 142.417L192.473 142.059L192.377 141.541C191.78 140.524 191.165 139.518 190.512 138.534C191.263 138.101 192.014 137.667 192.782 137.223C193.714 136.686 194.615 137.005 195.276 137.719C195.707 138.177 195.926 138.6 196.336 139.255L196.713 139.611L197.174 139.557L197.426 139.2L197.33 138.681L196.965 138.075C196.614 137.491 196.155 136.94 195.564 136.464C194.978 135.956 194.367 135.794 193.738 135.946C194.442 134.966 194.263 133.782 193.563 132.842C192.468 131.405 190.7 130.926 188.669 132.099C187.806 132.597 186.961 133.084 186.117 133.572L185.899 133.94L186.07 134.416C188.037 136.848 189.828 139.443 191.382 142.114ZM189.377 133.202C190.632 132.477 191.767 132.344 192.628 133.502C193.442 134.599 192.89 135.65 191.755 136.305C191.098 136.684 190.442 137.063 189.785 137.442C189.035 136.393 188.251 135.334 187.445 134.317C188.101 133.938 188.739 133.57 189.377 133.202ZM185.251 145.775C186.821 145.881 188.686 144.923 189.552 142.96C189.661 142.776 189.635 142.548 189.505 142.321L189.173 142.029L188.764 142.084L188.606 142.235C188.403 142.625 188.188 142.96 187.944 143.253C187.182 144.048 186.178 144.569 185.089 144.477C183.061 144.268 181.31 141.985 180.902 140.272C180.281 137.984 182.328 136.572 184.697 136.569L184.914 136.504L185.143 136.19L184.998 135.79C184.83 135.585 184.632 135.488 184.388 135.477C182.963 135.451 182.167 135.671 181.299 136.172C179.878 136.993 179.239 138.295 179.591 140.121C180.049 142.358 182.43 145.587 185.251 145.775ZM177.309 145.673C178.302 145.446 179.577 145.101 180.088 145.974C181.254 147.803 178.624 149.225 176.621 149.276L176.384 149.352L176.151 149.698L176.255 150.153L176.554 150.434L176.876 150.52C179.995 150.392 182.734 148.029 181.123 145.497C179.109 142.161 175.127 146.159 173.672 144.053C172.469 142.571 174.595 141.129 176.566 140.87L176.765 140.816L176.946 140.47L176.8 140.07C176.602 139.821 176.37 139.713 176.105 139.746C173.093 140.205 170.887 142.233 172.738 144.714C173.912 146.305 175.383 146.12 177.309 145.673ZM170.062 154.333L170.458 154.679L170.9 154.636C172.345 153.801 173.808 152.956 175.271 152.112L175.505 151.765L175.42 151.3L175.058 150.965L174.634 150.998C173.339 151.745 172.045 152.493 170.75 153.24C170.165 152.278 169.561 151.326 168.938 150.385C170.101 149.714 171.264 149.042 172.427 148.371L172.661 148.024L172.523 147.559L172.124 147.245L171.681 147.289C170.518 147.961 169.354 148.632 168.191 149.304C167.531 148.385 166.852 147.477 166.154 146.579C167.448 145.832 168.743 145.084 170.038 144.337L170.252 144.002L170.092 143.58L169.655 143.288L169.212 143.332C167.749 144.177 166.286 145.021 164.841 145.856L164.622 146.224L164.794 146.699C166.746 149.111 168.522 151.684 170.062 154.333ZM162.32 158.893L162.716 159.239L163.158 159.196L163.41 158.839L163.314 158.319C162.718 157.303 162.103 156.297 161.45 155.313C162.2 154.88 162.97 154.436 163.72 154.003C164.669 153.454 165.646 153.824 166.214 154.498C166.644 154.956 166.864 155.379 167.273 156.034L167.651 156.39L168.112 156.336L168.363 155.979L168.268 155.46C167.992 155.052 167.619 154.167 166.521 153.232C165.915 152.735 165.305 152.573 164.694 152.714C165.378 151.732 165.195 150.553 164.501 149.621C163.4 148.176 161.628 147.71 159.606 148.878C158.762 149.365 157.899 149.864 157.055 150.351L156.837 150.719L157.026 151.184C158.994 153.617 160.766 156.222 162.32 158.893ZM160.315 149.981C161.57 149.256 162.705 149.123 163.566 150.281C164.379 151.378 163.827 152.429 162.693 153.084C162.036 153.463 161.379 153.842 160.723 154.221C159.991 153.162 159.207 152.102 158.401 151.086C159.039 150.718 159.677 150.349 160.315 149.981ZM154.984 163.129L155.38 163.475L155.822 163.431L156.074 163.074L155.979 162.555C155.442 161.625 154.871 160.684 154.278 159.787C154.935 159.408 155.592 159.028 156.267 158.638C158.047 157.612 158.496 155.879 157.216 154.159C156.143 152.604 154.162 152.021 152.214 153.145C151.37 153.633 150.545 154.11 149.719 154.586L149.501 154.955L149.672 155.43C151.639 157.863 153.43 160.458 154.984 163.129ZM152.942 154.238C154.36 153.419 155.516 153.751 156.24 154.722C157.149 156.038 156.579 156.915 155.412 157.59C154.793 157.947 154.155 158.315 153.536 158.673C152.76 157.548 151.931 156.424 151.047 155.332C151.684 154.963 152.322 154.595 152.942 154.238ZM62.2109 164.251C62.2109 164.813 62.6673 165.267 63.2268 165.267C63.7864 165.267 64.2428 164.813 64.2428 164.251V158.432C64.2428 157.87 63.7864 157.416 63.2268 157.416C62.6673 157.416 62.2109 157.87 62.2109 158.432V164.251ZM62.2109 141.751C62.2109 142.312 62.6673 142.767 63.2268 142.767C63.7864 142.767 64.2428 142.312 64.2428 141.751V135.933C64.2428 135.371 63.7864 134.917 63.2268 134.917C62.6673 134.917 62.2109 135.371 62.2109 135.933V141.751ZM63.2268 131.518C63.7864 131.518 64.2428 131.064 64.2428 130.502V124.683C64.2428 124.121 63.7864 123.667 63.2268 123.667C62.6673 123.667 62.2109 124.121 62.2109 124.683V130.502C62.2109 131.064 62.6673 131.518 63.2268 131.518ZM62.2109 153.001C62.2109 153.563 62.6673 154.017 63.2268 154.017C63.7864 154.017 64.2428 153.563 64.2428 153.001V147.181C64.2428 146.62 63.7864 146.165 63.2268 146.165C62.6673 146.165 62.2109 146.62 62.2109 147.181V153.001ZM62.2109 172.73C62.2109 173.093 62.4054 173.428 62.7189 173.611L65.3579 175.133C65.8378 175.409 66.4596 175.25 66.7468 174.76C67.0246 174.274 66.8579 173.653 66.3738 173.371L64.2428 172.143V169.682C64.2428 169.121 63.7864 168.666 63.2268 168.666C62.6673 168.666 62.2109 169.121 62.2109 169.682V172.73ZM68.108 175.544C67.8302 176.03 67.9969 176.651 68.481 176.932L71.8264 178.861C72.3063 179.137 72.9281 178.979 73.2153 178.488C73.4931 178.002 73.3264 177.381 72.8423 177.099L69.4969 175.17C69.0207 174.893 68.3897 175.053 68.108 175.544ZM404.691 188.709C404.414 189.195 404.58 189.816 405.064 190.096L410.664 193.328C411.135 193.604 411.763 193.453 412.053 192.957C412.331 192.471 412.164 191.85 411.68 191.57L406.08 188.338C405.604 188.054 404.973 188.221 404.691 188.709ZM417.013 196.993L415.89 197.641C415.406 197.923 415.243 198.544 415.525 199.03C415.801 199.513 416.421 199.682 416.914 199.399L419.553 197.868C420.217 197.481 420.233 196.506 419.549 196.108L416.906 194.586C416.414 194.31 415.799 194.471 415.517 194.961C415.239 195.447 415.406 196.068 415.89 196.348L417.013 196.993ZM347.931 237.103L342.511 240.252C342.026 240.534 341.864 241.157 342.146 241.641C342.422 242.123 343.042 242.292 343.534 242.01L348.955 238.861C349.439 238.579 349.602 237.956 349.32 237.472C349.039 236.984 348.416 236.823 347.931 237.103ZM358.416 231.016L352.995 234.165C352.511 234.446 352.348 235.069 352.63 235.554C352.906 236.036 353.526 236.205 354.019 235.923L359.44 232.774C359.924 232.492 360.087 231.869 359.805 231.385C359.523 230.895 358.9 230.734 358.416 231.016ZM389.869 212.755L384.445 215.902C383.957 216.184 383.794 216.805 384.076 217.291C384.358 217.785 384.99 217.937 385.461 217.66L390.885 214.513C391.373 214.231 391.536 213.61 391.254 213.124C390.973 212.634 390.342 212.471 389.869 212.755ZM379.381 218.841L373.96 221.99C373.476 222.271 373.313 222.894 373.595 223.379C373.871 223.861 374.491 224.03 374.984 223.748L380.405 220.599C380.889 220.317 381.052 219.694 380.77 219.21C380.488 218.722 379.865 218.561 379.381 218.841ZM410.83 200.58L405.41 203.729C404.926 204.011 404.763 204.634 405.045 205.118C405.321 205.6 405.941 205.769 406.434 205.487L411.854 202.338C412.338 202.056 412.501 201.433 412.219 200.949C411.938 200.459 411.319 200.298 410.83 200.58ZM400.346 206.668L394.925 209.817C394.441 210.098 394.278 210.721 394.56 211.205C394.836 211.688 395.456 211.857 395.949 211.575L401.37 208.426C401.854 208.144 402.017 207.521 401.735 207.037C401.453 206.549 400.83 206.388 400.346 206.668ZM368.9 224.928L363.476 228.077C362.992 228.359 362.829 228.98 363.111 229.466C363.387 229.948 364.007 230.117 364.499 229.835L369.924 226.686C370.408 226.404 370.571 225.783 370.289 225.297C370.008 224.807 369.389 224.644 368.9 224.928ZM308.914 170.976C308.871 178.659 313.914 185.83 323.113 191.163C341.744 201.985 372.073 201.886 390.735 191.165C393.471 189.588 395.802 187.805 397.803 185.905L399.838 187.082C400.348 187.368 400.959 187.177 401.227 186.707C401.505 186.22 401.338 185.599 400.854 185.32L399.266 184.404C402.744 180.592 405.1 176.079 405.1 170.982V143.35C405.101 143.307 405.112 143.264 405.112 143.221V143.215V107.307C405.112 107.296 405.1 107.289 405.1 107.278V97.1689C408.339 93.1053 410.109 88.6475 410.12 84.0104C410.143 75.6381 410.19 58.6879 410.192 59.7437C410.18 51.2732 404.513 43.3403 394.239 37.4096C391.893 36.0544 389.326 34.8242 386.611 33.7487C386.08 33.5344 385.5 33.7983 385.294 34.3182C385.087 34.8401 385.341 35.4313 385.865 35.6377C410.802 45.522 417.211 66.3565 393.508 80.1274C373.535 91.7409 340.903 91.721 320.78 80.0996C301.404 68.9139 300.64 50.7878 320.589 39.1954C333.324 31.7963 352.126 28.8121 369.674 31.4034C370.206 31.5006 370.742 31.0998 370.825 30.5482C370.908 29.9926 370.523 29.4768 369.968 29.3934C351.701 26.6909 332.875 29.7069 319.565 37.4374C309.487 43.2947 303.935 51.1271 303.902 59.4996C303.901 59.9089 303.875 66.0485 303.876 65.6393C303.874 66.4463 303.822 84.0635 303.823 83.6463C303.908 84.0526 303.375 90.1729 308.914 97.0811V170.976ZM403.068 143.339C402.962 150.136 398.103 156.775 389.703 161.575C381.099 166.559 369.587 169.331 357.285 169.381C356.822 169.381 356.456 168.979 356.456 168.535V136.308C356.456 135.86 356.817 135.506 357.277 135.504C369.932 135.459 381.806 132.59 390.715 127.431C396.512 124.116 400.745 119.936 403.068 115.376V143.339ZM310.946 99.3751C325.123 113.778 352.505 117.47 373.301 113.593C373.853 113.492 374.218 112.96 374.115 112.408C374.012 111.859 373.5 111.478 372.928 111.597C353.342 115.243 328.177 112.001 314.029 99.5293C314.034 99.4911 314.061 99.4606 314.061 99.4217V77.9281C339.621 98.5526 395.823 93.6236 408.136 68.4424L408.088 84.0045C408.059 95.2648 397.152 103.331 386.691 107.616C386.171 107.829 385.925 108.422 386.135 108.942C386.349 109.458 386.925 109.71 387.461 109.497C393.264 107.12 398.714 103.913 403.068 99.4728V107.427C402.962 114.222 398.107 120.865 389.703 125.669C381.091 130.655 369.575 133.427 357.269 133.473C355.702 133.478 354.424 134.75 354.424 136.308V168.535C354.424 170.126 355.713 171.412 357.281 171.412C357.884 171.341 375.803 171.976 390.715 163.337C396.531 160.014 400.751 155.815 403.068 151.239V170.982C403.068 178.977 396.593 185.446 389.719 189.403C371.539 199.852 342.122 199.854 324.133 189.405C315.589 184.453 310.906 177.911 310.946 170.982V99.3751Z" fill="#353B50"/>
<path d="M413.547 307.426L413.567 307.414L413.539 307.43L413.547 307.426Z" fill="#353B50"/>
<path d="M414.513 293.312L334.608 247.195L338.474 244.949C338.958 244.667 339.121 244.044 338.839 243.56C338.558 243.07 337.935 242.907 337.45 243.191L332.576 246.022L254.724 201.089L254.868 151.844C254.908 128.639 238.566 100.317 218.438 88.7073C208.347 82.9075 198.878 82.0384 191.779 86.2707C165.85 101.323 113.992 131.428 88.0636 146.48C81.0058 150.621 77.1036 159.135 77.084 170.494L77.0716 179.537L75.9689 178.901C75.4887 178.625 74.8657 178.786 74.58 179.274C74.3022 179.76 74.4688 180.381 74.953 180.663L77.0684 181.883L77.0116 223.649L33.5031 248.937C29.5751 251.212 27.9831 254.288 27.9831 256.763C27.9796 258.435 27.9424 275.869 27.9434 275.452C28.2234 278.282 29.4251 281.087 33.5309 283.448L250.245 408.528C250.249 408.53 250.253 408.532 250.257 408.534L250.261 408.536C257.396 412.649 268.869 412.443 275.607 408.609L394.468 339.486C394.952 339.202 395.115 338.581 394.833 338.097C394.552 337.607 393.929 337.446 393.444 337.728L274.591 406.848C272.088 408.274 268.975 409.124 265.73 409.432V392.779C269.213 392.476 272.596 391.688 275.659 389.916C274.798 390.405 322.515 362.688 414.592 309.207C415.965 308.391 417.384 307.141 418.001 306.417L417.973 319.956C417.973 322.607 415.782 324.783 413.477 326.109L404.984 331.065C404.5 331.347 404.338 331.97 404.619 332.454C404.897 332.94 405.52 333.101 406.008 332.819L414.497 327.867C417.466 326.155 420.005 323.387 420.005 319.958L420.044 301.536C420.174 297.883 417.647 295.136 414.513 293.312ZM192.806 88.0227C199.255 84.1794 207.997 85.0484 217.422 90.4693C236.99 101.751 252.876 129.284 252.836 151.839L252.674 201.664C252.756 206.261 252.424 208.797 253.178 213.134C253.177 213.133 253.178 213.136 253.178 213.134C255.347 225.973 264.121 239.165 274.516 245.211L342.969 284.846L328.502 284.276C327.922 284.21 327.446 284.955 327.446 285.296L327.482 294.916L311.148 294.274C310.489 294.223 310.092 294.927 310.092 295.294L310.128 304.949L293.842 304.27C293.192 304.29 292.782 304.852 292.782 305.286V314.902L276.571 314.225C275.991 314.193 275.472 314.711 275.472 315.287L275.507 324.906C274.946 324.884 258.148 324.221 259.217 324.263C259.217 324.263 259.218 324.263 259.217 324.263C258.643 324.201 258.158 324.76 258.158 325.283L258.197 334.901L241.903 334.26C241.21 334.295 240.848 334.793 240.848 335.276V343.513L171.905 303.671C161.023 297.463 151.081 281.265 151.122 267.616C151.17 246.207 151.199 232.684 151.245 211.902C151.245 187.724 134.145 160.184 114.859 148.973C114.835 148.961 114.816 148.95 114.792 148.94C114.784 148.934 114.772 148.928 114.76 148.922C109.534 145.901 102.612 143.459 96.5371 143.874L192.806 88.0227ZM346.018 287.001L346.054 297.36L330.698 296.75L330.696 296.02C330.696 295.889 329.654 286.82 329.601 286.354C330.01 286.37 347.087 287.043 346.018 287.001ZM328.664 297.002C328.668 297.961 328.702 307.815 328.7 307.398L313.345 306.788L313.342 306.058C313.245 305.191 312.312 296.892 312.251 296.353C312.66 296.369 329.754 297.046 328.664 297.002ZM294.941 306.388C295.35 306.404 307.218 306.876 311.311 307.038C311.314 307.997 311.352 317.811 311.35 317.394L296.072 316.785V316.013C296.072 315.885 294.997 306.862 294.941 306.388ZM294.04 316.997C294.04 317.744 294.04 327.802 294.04 327.388L278.724 326.742L278.722 326.051C278.621 325.119 277.608 315.768 277.671 316.347C278.08 316.363 295.123 317.04 294.04 316.997ZM261.426 335.942C261.425 335.922 261.446 335.907 261.444 335.887L260.321 326.344C260.73 326.361 277.773 327.077 276.69 327.031C276.693 327.918 276.727 337.804 276.726 337.387L261.452 336.778V336.006C261.452 335.981 261.428 335.966 261.426 335.942ZM243.011 336.338C243.889 336.373 260.479 337.032 259.42 336.99C259.42 337.744 259.42 347.8 259.42 347.383L244.141 346.774V346.002C244.056 345.259 242.986 335.863 243.011 336.338ZM79.1158 170.496C79.1572 148.261 94.7585 139.604 113.764 150.733C133.129 161.827 149.214 189.316 149.214 212.103C149.211 213.046 149.054 266.516 149.051 267.611C148.992 281.564 158.866 298.51 170.893 305.473L242.11 346.589C242.11 347.313 242.11 357.323 242.11 356.717L171.869 316.027C154.428 305.971 140.273 281.484 140.312 261.444L140.519 205.901V205.892C140.519 205.891 140.519 205.889 140.519 205.888C140.537 197.848 137.602 187.382 131.054 177.444C116.279 155.072 90.4133 148.746 87.8979 174.327C87.7024 176.141 87.6474 260.777 87.6479 260.37C84.8621 260.886 81.7231 260.747 78.9968 259.995C79.0799 230.757 79.0134 247.843 79.1158 170.496ZM138.487 205.89L138.368 232.284L92.8028 258.642C91.8236 259.188 90.7928 259.602 89.7246 259.887C89.8474 171.702 89.6998 176.617 89.9218 174.536C92.0711 151.551 115.057 157.18 129.15 178.213C134.43 186.096 138.487 196.326 138.487 205.89ZM93.8068 260.408L138.38 234.622L138.281 261.438C138.241 282.129 152.853 307.408 170.853 317.787L242.618 359.358C243.272 359.744 244.141 359.277 244.141 358.479V348.808C244.644 348.828 244.298 348.814 244.177 348.81C244.432 348.819 246.944 348.919 260.436 349.457C260.989 349.457 261.452 349.008 261.452 348.441V338.812C261.954 338.832 261.608 338.818 261.487 338.813C261.743 338.823 264.254 338.923 277.746 339.46C278.301 339.46 278.762 339.016 278.762 338.44L278.731 328.777C280.4 328.847 272.684 328.521 295.056 329.464C295.605 329.464 296.072 329.022 296.072 328.448V318.819C296.573 318.839 296.23 318.825 296.108 318.82C296.367 318.83 298.885 318.93 312.37 319.467C312.932 319.467 313.386 319.013 313.386 318.448L313.352 308.823C313.853 308.843 313.514 308.829 313.391 308.824C313.66 308.835 316.206 308.935 329.72 309.471C330.273 309.471 330.736 309.026 330.736 308.451L330.705 298.785C331.207 298.805 330.866 298.791 330.743 298.786C331.008 298.796 333.547 298.897 347.074 299.433C347.629 299.433 348.09 298.988 348.09 298.413L348.046 286.02C348.046 285.776 347.702 285.24 347.538 285.145L275.535 243.453C266.377 238.126 258.343 226.436 255.696 215.012C318.733 251.508 355.192 272.387 399.921 298.28C401.851 299.399 401.837 302.295 399.917 303.431L269.654 379.126C266.063 381.112 258.257 381.085 254.848 379.055C254.848 379.055 82.6318 279.7 48.2218 259.834C46.2821 258.684 46.2863 255.79 48.2139 254.677L76.992 237.936L76.9798 246.851L74.7546 248.159C69.1093 251.348 68.9166 257.016 74.703 260.43C81.295 263.877 89.1373 263.023 93.8068 260.408ZM413.547 307.426C413.495 307.456 275.124 387.87 274.627 388.158C268.237 391.859 257.709 391.699 251.454 388.165C251.422 388.147 251.384 388.135 251.352 388.117C18.9041 253.932 34.0039 262.744 32.7226 261.679C28.4154 258.051 29.5228 253.591 34.523 250.695L77.0084 226.002L76.9952 235.583L47.1941 252.919C43.937 254.802 43.8961 259.63 47.1941 261.586C81.6159 281.458 253.832 380.813 253.82 380.807C257.817 383.188 266.412 383.246 270.658 380.894L400.949 305.183C404.223 303.238 404.202 298.409 400.937 296.522C380.342 284.593 292.5 233.974 255.118 212.33C254.496 208.437 254.773 206.46 254.717 203.43C301.141 230.224 361.283 264.936 413.493 295.07C419.655 298.663 419.355 304.054 413.547 307.426Z" fill="#353B50"/>
<path d="M365.602 343.611C364.423 344.285 363.496 345.97 363.496 347.36C363.496 348.708 364.423 349.255 365.644 348.581C366.824 347.908 367.793 346.222 367.793 344.832C367.793 343.484 366.824 342.936 365.602 343.611ZM337.422 359.912C336.242 360.586 335.274 362.229 335.274 363.619C335.274 365.009 336.242 365.557 337.422 364.841C338.601 364.167 339.57 362.482 339.57 361.134C339.57 359.744 338.601 359.196 337.422 359.912ZM366.13 289.609C366.601 289.886 367.229 289.734 367.519 289.238C367.797 288.752 367.63 288.131 367.146 287.851L360.622 284.083C360.142 283.802 359.519 283.964 359.233 284.454C358.955 284.941 359.122 285.562 359.606 285.841L366.13 289.609ZM385.075 300.546L376.027 305.802C375.543 306.084 375.38 306.707 375.662 307.191C375.938 307.674 376.558 307.843 377.051 307.56L387.615 301.423C388.282 301.035 388.291 300.057 387.611 299.665L373.015 291.24C372.535 290.957 371.912 291.123 371.626 291.611C371.348 292.098 371.515 292.719 371.999 292.998L385.075 300.546Z" fill="#353B50"/>
<path d="M355.243 354.99L357.734 347.375L344.084 355.258L346.636 359.96L355.243 354.99Z" fill="#353B50"/>
<path d="M239.174 294.705L209.046 312.184C208.558 312.465 208.395 313.086 208.677 313.573C208.959 314.066 209.591 314.218 210.062 313.942L240.19 296.463C240.678 296.181 240.841 295.56 240.559 295.074C240.277 294.584 239.646 294.421 239.174 294.705ZM227.316 287.429C227.035 286.939 226.408 286.778 225.931 287.06L195.716 304.58C195.228 304.862 195.065 305.483 195.347 305.969C195.63 306.463 196.261 306.615 196.732 306.338L226.947 288.818C227.435 288.536 227.598 287.915 227.316 287.429ZM214.586 279.482C214.304 278.992 213.673 278.831 213.201 279.113L182.39 296.977C181.902 297.258 181.739 297.88 182.021 298.366C182.304 298.859 182.935 299.012 183.406 298.735L214.217 280.871C214.705 280.589 214.867 279.968 214.586 279.482ZM173.144 256.299L161.116 263.273C160.627 263.555 160.465 264.176 160.746 264.662C161.029 265.156 161.66 265.308 162.131 265.031L174.16 258.057C174.648 257.775 174.81 257.154 174.529 256.668C174.247 256.178 173.62 256.015 173.144 256.299ZM181.346 251.541C180.858 251.822 180.696 252.443 180.977 252.93C181.26 253.423 181.891 253.575 182.362 253.299L243.678 217.744C244.166 217.462 244.329 216.841 244.047 216.355C243.765 215.865 243.134 215.704 242.662 215.986L181.346 251.541ZM179.096 238.705C179.379 239.198 180.01 239.351 180.481 239.074L242.654 203.005C243.142 202.723 243.305 202.102 243.023 201.616C242.741 201.126 242.11 200.965 241.638 201.247L179.465 237.316C178.977 237.598 178.815 238.219 179.096 238.705ZM171.263 242.076L161.159 247.937C160.671 248.219 160.508 248.84 160.79 249.326C161.073 249.82 161.704 249.972 162.175 249.695L172.279 243.834C172.767 243.552 172.929 242.931 172.648 242.445C172.366 241.955 171.739 241.794 171.263 242.076ZM203.657 209.103C203.375 208.615 202.744 208.454 202.272 208.734L161.203 232.558C160.715 232.84 160.552 233.461 160.834 233.947C161.117 234.44 161.748 234.593 162.219 234.316L203.288 210.492C203.776 210.21 203.938 209.589 203.657 209.103ZM203.657 193.749C203.375 193.259 202.744 193.096 202.272 193.38L161.246 217.18C160.758 217.462 160.596 218.083 160.877 218.569C161.16 219.063 161.791 219.215 162.262 218.938L203.288 195.138C203.776 194.856 203.938 194.235 203.657 193.749ZM161.667 203.987L203.335 179.802C203.819 179.52 203.982 178.899 203.7 178.413C203.419 177.923 202.8 177.762 202.311 178.044L160.643 202.229C160.159 202.511 159.996 203.132 160.278 203.618C160.554 204.1 161.175 204.27 161.667 203.987ZM179.049 177.338C178.767 176.848 178.136 176.685 177.664 176.969L157.528 188.646C157.04 188.927 156.877 189.548 157.159 190.034C157.442 190.528 158.073 190.68 158.544 190.404L178.68 178.727C179.168 178.445 179.33 177.824 179.049 177.338ZM312.236 340.78C315.813 342.855 321.417 342.848 324.998 340.78L337.634 333.484C341.6 331.194 341.54 327.176 337.677 324.926C334.11 322.857 328.51 322.855 324.919 324.926L312.28 332.222C308.323 334.505 308.334 338.509 312.236 340.78ZM313.296 333.98L325.935 326.684C328.895 324.974 333.701 324.966 336.654 326.684C339.198 328.158 339.187 330.241 336.618 331.726L323.982 339.022C321.066 340.704 316.161 340.706 313.26 339.022C310.697 337.534 310.718 335.469 313.296 333.98ZM31.6347 122.73L52.5879 110.627C52.7982 110.51 52.9371 110.494 52.8657 110.436L61.6517 117.048C61.8176 117.153 62.0242 117.141 62.2112 117.188V119.252C62.2112 119.814 62.6676 120.268 63.2271 120.268C63.7867 120.268 64.243 119.814 64.243 119.252V116.805C64.8782 116.39 65.4534 115.781 65.8661 115.024L74.4656 98.5332C74.7633 98.0332 75.1641 97.5947 75.5053 97.4042L95.9188 85.624C97.3355 84.8045 98.407 82.9493 98.407 81.3024L98.2919 30.8542C98.2919 28.8316 96.5492 27.8206 94.76 28.8581L81.4817 36.527C80.9976 36.8068 80.8309 37.4279 81.1087 37.914C81.3905 38.4001 82.0214 38.5608 82.4977 38.285L95.7759 30.6161C96.1683 30.3914 96.26 30.406 96.26 30.8562L96.3751 81.3044C96.3751 82.2152 95.6886 83.4116 94.9029 83.864L74.5053 95.6363C73.8585 95.9954 73.2037 96.674 72.6918 97.5451L64.0724 114.069C63.8184 114.538 63.4454 114.948 63.0962 115.155C62.862 115.286 62.7271 115.3 62.7549 115.341L54.0324 108.776C53.3657 108.337 52.4807 108.361 51.5878 108.859L30.6188 120.972C30.2336 121.192 30.1664 121.171 30.1664 120.703L30.0513 70.2544C30.0513 69.3476 30.7339 68.167 31.5236 67.7226L74.8307 42.7118C75.3149 42.432 75.4815 41.811 75.2037 41.3248C74.9141 40.8347 74.287 40.674 73.8148 40.9538L30.5157 65.9586C29.095 66.7622 28.0195 68.6075 28.0195 70.2564L28.1346 120.705C28.1346 122.764 29.8834 123.748 31.6347 122.73Z" fill="#353B50"/>
<path d="M51.587 73.3353C46.8606 76.0655 43.0271 82.6967 43.043 88.1176C43.0594 94.0193 47.5181 96.5794 52.6545 93.6059L74.8537 80.7899C79.6515 78.022 83.3976 71.5217 83.3818 65.9957C83.3654 60.1032 78.9138 57.5582 73.7862 60.5194L51.587 73.3353ZM62.1945 85.7536L51.6386 91.8479C47.8755 94.0238 45.083 92.4555 45.0748 88.1116C45.059 83.421 48.5075 77.4604 52.6029 75.0933L62.1945 69.5559V85.7536ZM81.3499 66.0017C81.3658 70.7876 77.9966 76.633 73.8378 79.032L64.2263 84.5807V68.383L74.8021 62.2774C78.5877 60.0937 81.3418 61.7027 81.3499 66.0017ZM142.106 73.0178L147.305 73.0186V78.2164C147.305 78.7779 147.761 79.2323 148.321 79.2323C148.88 79.2323 149.336 78.7779 149.336 78.2164V73.0191L154.535 73.0198C155.095 73.0198 155.551 72.5654 155.551 72.0039C155.551 71.4424 155.095 70.988 154.535 70.988L149.336 70.9872V65.7894C149.336 65.2279 148.88 64.7735 148.321 64.7735C147.761 64.7735 147.305 65.2279 147.305 65.7894V70.9867L142.106 70.986C141.547 70.986 141.09 71.4404 141.09 72.0019C141.09 72.5634 141.547 73.0178 142.106 73.0178ZM252.459 290.789C263.106 296.934 280.275 297.039 291.032 290.793C302.056 284.384 302.013 273.681 290.913 267.275C280.25 261.116 262.94 261.12 252.332 267.283C241.318 273.688 241.367 284.383 252.459 290.789ZM253.356 269.041C263.404 263.203 279.793 263.203 289.897 269.033C299.645 274.665 299.664 283.427 290.008 289.035C280.269 294.699 263.804 294.988 253.475 289.031C243.737 283.41 243.702 274.649 253.356 269.041Z" fill="#353B50"/>
<path d="M283.476 272.369C276.893 268.671 266.327 268.671 259.826 272.369C253.324 276.067 253.364 282 259.907 285.698C266.449 289.396 277.015 289.396 283.517 285.698C290.019 282 290.019 276.067 283.476 272.369ZM275.39 281.106C273.358 282.244 270.066 282.244 268.034 281.106C265.962 279.968 265.962 278.099 267.994 276.961C270.025 275.823 273.317 275.823 275.349 276.961C277.381 278.099 277.421 279.968 275.39 281.106Z" fill="#EA4A35"/>
<path d="M142.418 170.505L142.021 170.159C140.481 167.509 138.706 164.936 136.753 162.525L136.582 162.049L136.801 161.681C138.245 160.847 139.709 160.002 141.172 159.157L141.614 159.113L142.052 159.405L142.211 159.827L141.997 160.162C140.703 160.91 139.408 161.657 138.113 162.405C138.812 163.302 139.49 164.21 140.151 165.129C141.314 164.458 142.478 163.787 143.641 163.115L144.083 163.071L144.483 163.385L144.621 163.849L144.387 164.196C143.224 164.867 142.061 165.539 140.897 166.211C141.52 167.152 142.124 168.103 142.71 169.066C144.004 168.318 145.299 167.57 146.594 166.823L147.017 166.79L147.38 167.125L147.465 167.591L147.231 167.937C145.918 168.695 144.606 169.453 143.307 170.203L142.86 170.461L142.418 170.505Z" fill="#353B50"/>
<path d="M384.373 148.39C380.976 153.35 381.778 157.113 383.732 159.56C379.682 158.955 375.485 153.156 379.93 145.523C384.768 138.484 383.559 136.358 383.378 134.29C385.312 136.915 388.457 142.428 384.373 148.39Z" fill="#EA4A35"/>
<path d="M384.548 159.39C383.597 157.831 382.388 153.747 384.579 150.55C388.515 144.667 387.462 140.803 387.344 140.585L387.336 140.576C387.338 140.575 387.341 140.578 387.344 140.585C387.549 140.826 391.455 145.574 389.506 152.67C390.877 151.39 391.389 150.031 391.536 149.615C391.337 156.118 387.6 158.251 384.548 159.39ZM381.623 141.507C379.738 143.343 375.51 147.852 375.605 152.064C375.701 156.275 378.113 157.35 379.564 158.347C378.808 157.504 377.255 155.335 376.966 152.027C376.676 148.719 379.98 143.509 381.623 141.507Z" fill="#EA4A35"/>
<path d="M147.396 161.814L150.1 160.012" stroke="#353B50" stroke-width="0.90121" stroke-linecap="round"/>
</svg>
