<svg width="65" height="65" viewBox="0 0 65 65" fill="none" xmlns="http://www.w3.org/2000/svg">
<path d="M20.8008 1.99878L20.8018 1.99976L21.1455 2.06128C21.9395 2.22214 22.675 2.497 23.3389 2.88159L28.4893 5.87378L28.5674 5.93042C28.7328 6.07734 28.7775 6.32436 28.6631 6.52319V6.52417C28.5316 6.74988 28.2428 6.83074 28.0137 6.69897V6.698C27.3099 6.29623 26.5909 6.04679 25.8145 5.93335V5.93237C25.708 5.91764 25.5635 5.95376 25.4121 6.04663L25.4092 6.04761C25.1374 6.20343 24.8805 6.46622 24.6807 6.7771C24.481 7.08791 24.3431 7.4409 24.3027 7.77124C23.8617 11.7868 22.2736 15.7758 20.4697 19.9275L19.6855 21.7175C19.2641 22.6771 18.8354 23.6535 18.4082 24.6511L18.4053 24.657C17.3535 26.7433 16.4015 28.7918 15.5625 30.7732L15.21 31.6179C11.9955 39.4196 10.788 46.8999 11.7979 52.6814L11.9316 53.3816C12.6255 56.6973 13.9974 59.0042 16.002 60.2712L16.2119 60.3992L16.2197 60.4031L16.2285 60.408C16.4273 60.5233 16.512 60.7613 16.4414 60.9714L16.4014 61.0593C16.313 61.2117 16.1534 61.2965 15.9893 61.2966C15.9086 61.2966 15.8253 61.2769 15.75 61.2332L15.7402 61.2273V61.2263L15.7383 61.2253V61.2244L15.7314 61.2214L10.6094 58.241C8.21994 56.8549 6.62602 54.28 5.85254 50.6033L5.70898 49.8533C4.67573 43.8886 5.91153 36.2215 9.17773 28.2644L9.55078 27.3787C10.3064 25.609 11.1182 23.8465 11.9736 22.1179L12.4043 21.2566C12.8219 20.2792 13.2514 19.3018 13.6729 18.3425L14.4482 16.572C16.2309 12.4689 17.7885 8.55756 18.2158 4.67065L18.2412 4.49194C18.4015 3.59884 19.022 2.6746 19.7734 2.23608L19.9023 2.16675C20.1614 2.03931 20.4261 1.97747 20.6768 1.98804L20.8008 1.99878ZM20.6182 2.93921C20.5238 2.9393 20.3948 2.97601 20.2529 3.05835L20.2539 3.05933C20.0253 3.19276 19.7719 3.43355 19.5654 3.73804C19.3849 4.00424 19.2436 4.31452 19.1836 4.63647L19.1631 4.77417C18.7219 8.79323 17.134 12.783 15.3301 16.9353L14.5459 18.7253V18.7263C14.1245 19.6855 13.6947 20.6623 13.2676 21.6599L13.2656 21.6658C12.1064 23.9553 11.031 26.2909 10.0586 28.6287C6.85487 36.4338 5.64684 43.9139 6.64746 49.6902L6.78125 50.3914C7.50045 53.8254 8.95277 56.1789 11.0879 57.4167L12.8984 58.4705C12.0005 57.0932 11.3469 55.3656 10.9434 53.3005L10.8594 52.8455C9.81641 46.8761 11.0527 39.2077 14.3291 31.2556L14.6846 30.4021C15.531 28.4026 16.4906 26.3388 17.542 24.2546L18.1768 22.7878C18.3894 22.3004 18.6024 21.8152 18.8135 21.3347L19.5889 19.5642C21.3716 15.461 22.9291 11.5493 23.3564 7.66187V7.66089L23.3838 7.48022C23.5548 6.57804 24.1779 5.65624 24.9248 5.22729L25.0537 5.15503C25.1105 5.12625 25.1685 5.10179 25.2266 5.07983L22.8604 3.70581C22.2061 3.32687 21.4664 3.06864 20.6611 2.94116V2.94214C20.6469 2.94032 20.6326 2.93921 20.6182 2.93921ZM35.2412 9.26636L35.3828 9.29956L35.3838 9.30054L35.7422 9.4187C36.569 9.70375 37.3344 10.0513 38.0244 10.4548L43.1621 13.4373L43.2402 13.4939C43.382 13.6199 43.4349 13.82 43.375 13.9998L43.3359 14.0876C43.2206 14.2876 42.9846 14.371 42.7744 14.3025L42.6865 14.2634C42.4979 14.1557 42.3146 14.0495 42.123 13.9626L42.1182 13.9607C42.0166 13.9079 41.9174 13.8593 41.8193 13.8142L41.5283 13.6882L41.5225 13.6853C41.5197 13.6841 41.5159 13.6822 41.5117 13.6804C41.5032 13.6767 41.4915 13.6725 41.4805 13.6677C41.4694 13.6629 41.4586 13.6577 41.4502 13.6541C41.4463 13.6524 41.4428 13.6512 41.4404 13.6501L41.4346 13.6482V13.6472C41.2573 13.5697 41.0897 13.4956 40.9092 13.4353L40.9043 13.4343C40.678 13.3463 40.4614 13.273 40.2422 13.2V13.2009C40.1449 13.17 40.0202 13.2037 39.9199 13.2517L39.9209 13.2527C39.9196 13.2536 39.8944 13.2672 39.8633 13.2849C39.8481 13.2936 39.8327 13.3028 39.8213 13.3093C39.8156 13.3126 39.81 13.3152 39.8066 13.3171C39.8051 13.318 39.8036 13.3186 39.8027 13.3191L39.8018 13.3201L39.8008 13.3191C39.7057 13.3749 39.6149 13.4325 39.5371 13.5037L39.5352 13.5056C39.4745 13.5583 39.4394 13.5935 39.4121 13.6267L39.4072 13.6316C39.1909 13.8581 39.0271 14.0985 38.9141 14.3474L38.8369 14.5505L35.5576 23.5095C35.5227 23.6137 35.4685 23.7165 35.3975 23.8044C35.3311 23.9247 35.2224 24.0504 35.0947 24.1511L34.9551 24.2468C34.7907 24.3423 34.6398 24.3786 34.5088 24.3787C34.3932 24.3787 34.2961 24.351 34.2207 24.3171V24.3162C34.0674 24.2488 33.8158 24.0686 33.7881 23.6404V23.6375C33.6318 19.6233 33.1649 16.2391 32.4023 13.5574L32.2461 13.031C32.2153 12.9317 32.2174 12.8242 32.2529 12.7263L32.79 11.2488L32.9023 10.9734C33.1496 10.4328 33.527 9.96004 33.9648 9.64526L34.1885 9.50073C34.5343 9.29378 34.906 9.20854 35.2412 9.26636ZM35.0986 10.2087C35.0115 10.1826 34.8569 10.2116 34.6689 10.324L34.667 10.325C34.3088 10.5291 33.9755 10.9191 33.7676 11.3748L33.6865 11.573L33.2031 12.9021C34.0199 15.6028 34.5269 19.0102 34.7148 23.0388L37.9385 14.2312C37.9557 14.1791 37.9806 14.1191 38.0029 14.0642C38.0078 14.0517 38.0412 13.9645 38.0459 13.9539V13.9529L38.1768 13.696C38.3196 13.4431 38.498 13.2036 38.7012 12.9919C38.7245 12.9638 38.7542 12.9318 38.7871 12.8992L38.9004 12.7957C39.038 12.669 39.1872 12.5757 39.3223 12.4968L39.3232 12.4958L39.3652 12.4724C39.3751 12.4668 39.3849 12.4611 39.3926 12.4568C39.3963 12.4547 39.4 12.4532 39.4023 12.4519C39.4035 12.4512 39.4046 12.4504 39.4053 12.45L39.4062 12.449L39.4082 12.448L39.4131 12.446C39.4159 12.4445 39.4195 12.4416 39.4238 12.4392C39.4323 12.4345 39.4433 12.4286 39.4541 12.4226C39.4651 12.4165 39.4765 12.4099 39.4854 12.405V12.4041L37.5449 11.2781C36.8176 10.853 35.9944 10.4931 35.0986 10.2097V10.2087Z" fill="#353B50" stroke="#353B50" stroke-width="0.2"/>
<path d="M25.0566 5.15088C25.3635 5.00035 25.6662 4.94582 25.958 4.99365L25.957 4.99463C28.6407 5.40213 30.7166 7.17172 32.1787 10.2534C33.6057 13.2611 34.4504 17.526 34.7139 23.021L37.9316 14.2319L38.0439 13.9604C38.3327 13.3387 38.8039 12.7893 39.3242 12.4868L39.4727 12.4067C39.7721 12.2613 40.0877 12.2068 40.3828 12.2573L40.5283 12.2915L40.5293 12.2925L41.0322 12.4595C43.5082 13.3343 45.4426 14.8166 46.8223 16.895C48.2929 19.1105 49.129 21.9965 49.3291 25.5308L49.3574 26.1548C49.4526 29.0823 49.0877 32.2574 48.2949 35.4155L48.1182 36.0913C48.0906 36.1936 48.0304 36.2823 47.9482 36.3452L47.8594 36.3989C47.6089 36.5153 47.3494 36.6495 47.0898 36.8013V36.8022C44.7065 38.1793 42.545 40.5408 40.9834 43.2466C39.4217 45.9524 38.4648 48.9929 38.4785 51.7202L38.4844 52.1021C38.4964 52.4685 38.5265 52.7917 38.5752 53.0835V53.0845L38.5811 53.1938C38.5763 53.2667 38.5551 53.3376 38.5186 53.4009L38.4521 53.4897C36.3599 55.7055 34.0903 57.5586 31.6992 59.0044L31.2197 59.2876C28.309 60.9649 25.3678 61.9734 22.4785 62.2847L22.4795 62.2856C21.8147 62.3749 21.1743 62.4194 20.5605 62.4194C17.9319 62.4193 15.7755 61.6005 14.1406 59.9878C12.5076 58.3769 11.4035 55.983 10.8594 52.8491V52.8481C9.82629 46.8767 11.0608 39.2093 14.3242 31.2593L14.6865 30.3911C15.5466 28.3618 16.5072 26.2997 17.5488 24.2495C17.9646 23.2759 18.3925 22.3022 18.8125 21.3462L19.5879 19.5737C21.3716 15.4671 22.9304 11.552 23.3633 7.65967C23.4679 6.71079 24.1213 5.68846 24.9248 5.22119L25.0566 5.15088ZM25.7529 5.93018C25.6592 5.93022 25.5413 5.96632 25.4023 6.04639L25.4014 6.04541C25.1731 6.17824 24.9205 6.42004 24.7139 6.7251C24.5332 6.99193 24.3911 7.3029 24.3311 7.62646L24.3105 7.76514C23.8628 11.7893 22.2737 15.7827 20.4688 19.938L19.6846 21.729C19.2646 22.6852 18.8378 23.6586 18.4121 24.6528L18.4092 24.6587C17.3682 26.7096 16.4159 28.7542 15.5645 30.7632L15.2051 31.6216C12.003 39.4214 10.7971 46.9022 11.7979 52.686L11.9121 53.2905C12.5179 56.2619 13.6555 58.4198 15.3037 59.769C17.0597 61.2064 19.4122 61.7389 22.3623 61.3394H22.3643L22.8838 61.2759C25.4803 60.919 28.1186 59.9747 30.7432 58.4624L31.1982 58.1929C33.4572 56.8282 35.6083 55.0845 37.6006 53.0015C37.5636 52.7189 37.5407 52.415 37.5312 52.0835L37.5254 51.7222C37.5107 48.8317 38.5238 45.624 40.166 42.7778C41.8085 39.9314 44.0862 37.4365 46.6104 35.978L46.9551 35.7856C47.0553 35.7322 47.1551 35.681 47.2539 35.6323C48.1067 32.4069 48.5019 29.1565 48.4043 26.1792L48.3779 25.5845C48.1865 22.1992 47.4232 19.5001 46.0762 17.4507C44.7303 15.4031 42.7967 13.9968 40.251 13.2036V13.2026C40.1466 13.1727 39.9896 13.199 39.8096 13.3071L39.8076 13.3081C39.4567 13.5115 39.1165 13.912 38.9072 14.3628L38.8262 14.5591L35.5508 23.5103C35.4367 23.8271 35.2201 24.0966 34.9531 24.2476L34.9541 24.2485C34.7387 24.3802 34.4825 24.4167 34.2607 24.3364L34.168 24.2954C33.9322 24.1675 33.7989 23.9179 33.7891 23.6255L33.7412 22.605C33.4676 17.5776 32.6963 13.6734 31.4404 10.9038C30.1019 7.95226 28.2187 6.30088 25.8076 5.93506L25.8066 5.93408C25.7898 5.93135 25.7716 5.93018 25.7529 5.93018Z" fill="#353B50" stroke="#353B50" stroke-width="0.2"/>
<path d="M35.0266 23.8821C34.9526 23.8821 34.8773 23.8601 34.812 23.8146C34.6498 23.7015 34.6025 23.4823 34.704 23.3127C34.7224 23.2819 34.7371 23.2507 34.7454 23.2268L38.0225 14.2714C38.056 14.1707 38.0997 14.071 38.1443 13.9823C38.2339 13.8022 38.4476 13.7254 38.631 13.8054C38.8148 13.8849 38.9039 14.0944 38.8341 14.2819L38.744 14.5149L35.4651 23.4754C35.4338 23.5696 35.3842 23.6624 35.3203 23.7415C35.2463 23.8339 35.1374 23.8821 35.0266 23.8821ZM39.2155 13.5292C39.114 13.5292 39.0124 13.4883 38.9384 13.4074C38.8718 13.3352 38.8391 13.2438 38.8391 13.1528C38.8391 13.0508 38.88 12.9497 38.9609 12.8757C39.0992 12.7484 39.2357 12.6487 39.3777 12.571C39.4402 12.5347 39.5129 12.4984 39.5735 12.474C39.7541 12.4005 39.9632 12.4791 40.051 12.6546C40.1383 12.8302 40.0772 13.0434 39.9094 13.145C39.9049 13.1482 39.8226 13.1946 39.8175 13.1974C39.6581 13.2888 39.5574 13.3499 39.471 13.429L39.4701 13.4299C39.398 13.4965 39.3065 13.5292 39.2155 13.5292ZM43.4986 59.4814C43.4347 59.4814 43.3699 59.4653 43.3106 59.4308C43.3005 59.4249 43.29 59.4189 43.2794 59.4129L40.4021 57.736C38.6117 56.7015 37.625 54.565 37.625 51.7203C37.5969 45.9846 41.6493 38.9589 46.6585 36.0604C49.164 34.6192 51.5386 34.4037 53.3469 35.4547L56.2422 37.1344C56.2504 37.139 56.2583 37.1436 56.2665 37.1487L56.2679 37.1496C56.4476 37.2544 56.5078 37.4846 56.4035 37.6638C56.2996 37.8435 56.0685 37.9046 55.8892 37.8003L55.8883 37.7994L55.8874 37.7989L55.8658 37.7865C54.3042 36.8876 52.2013 37.1073 49.9421 38.4069C45.1553 41.1712 41.2716 47.9032 41.2849 53.4138C41.2978 55.9708 42.1406 57.8688 43.6599 58.7631L43.6884 58.7796C43.8681 58.8844 43.9288 59.1142 43.8249 59.2939C43.755 59.4143 43.6287 59.4814 43.4986 59.4814ZM50.8134 35.5517C49.6617 35.5517 48.3754 35.9414 47.0349 36.7125C42.2348 39.4896 38.3511 46.2217 38.3777 51.7185C38.3777 54.2847 39.2307 56.1896 40.7799 57.0848L41.4421 57.4703C40.8538 56.3908 40.54 55.0163 40.5322 53.4166C40.5179 47.6647 44.5708 40.6395 49.5657 37.7548C50.9899 36.935 52.3708 36.5108 53.6291 36.4887L52.9687 36.1059C52.3313 35.7355 51.6038 35.5517 50.8134 35.5517Z" fill="#353B50"/>
<path d="M49.9893 37.4124C52.3349 36.1929 54.5635 36.0478 56.2979 37.0461L56.4678 37.1487C58.1983 38.2414 59.1389 40.377 59.1465 43.1614L59.1357 43.7073C59.0249 46.4545 58.0353 49.4417 56.4941 52.1096C54.9529 54.7775 52.8552 57.1345 50.5225 58.6174L50.0527 58.9026C48.671 59.7004 47.322 60.1312 46.0801 60.1819L45.833 60.1868C45.0213 60.1871 44.2595 60.0202 43.5693 59.6838L43.2773 59.5295C41.4416 58.4726 40.4419 56.2911 40.4336 53.4172L40.4434 52.8704C40.5542 50.1205 41.5442 47.1319 43.084 44.4631C44.7265 41.6163 47.0007 39.1236 49.5186 37.6702L49.9893 37.4124ZM53.7344 37.3411C52.7437 37.3411 51.6448 37.6355 50.4922 38.2249L49.9951 38.4954C47.6187 39.8673 45.4609 42.2268 43.8994 44.9329C42.338 47.639 41.378 50.6825 41.3857 53.4153L41.3975 53.886C41.5026 56.1991 42.3396 57.8901 43.7529 58.7034L44.0439 58.8547C45.5318 59.5481 47.4755 59.2899 49.5762 58.0774L50.0195 57.8088C52.2225 56.4081 54.2124 54.1758 55.6777 51.6399C57.2408 48.9348 58.2011 45.893 58.1934 43.1633L58.1826 42.6926C58.0843 40.5335 57.3475 38.9159 56.0986 38.0471L55.8232 37.8723C55.2067 37.5175 54.5025 37.3411 53.7344 37.3411Z" fill="#353B50" stroke="#353B50" stroke-width="0.2"/>
<path d="M28.1828 30.5342L28.3192 30.7688C28.1921 30.842 28.0403 31.0449 28.0171 31.2454C27.8483 32.7632 27.1875 34.2592 26.4876 35.8432C26.3505 36.1536 26.2111 36.4697 26.072 36.7924C25.6714 37.581 25.32 38.3413 25.0201 39.0677C23.9749 41.5933 23.5793 44.0146 23.9064 45.8856C24.2671 47.9475 25.3915 48.8636 27.248 48.6196C28.1435 48.523 29.0523 48.2112 29.9558 47.6923C31.9863 46.5273 33.6914 44.4955 34.7579 41.9716C35.4558 40.3198 35.7782 38.6203 35.6907 37.0575C35.5689 34.9072 34.723 33.6184 33.1041 33.118C32.9667 33.1902 32.8469 33.3096 32.781 33.4907L31.7051 36.4137C31.6575 36.5435 31.567 36.654 31.4579 36.7169C31.3341 36.7874 31.1943 36.7927 31.0825 36.7318C30.9717 36.6716 30.9048 36.5574 30.8988 36.419C30.7564 32.885 29.9085 30.9767 28.3778 30.7457L28.1828 30.5342Z" fill="#EA4A35"/>
</svg>
