<svg width="65" height="65" viewBox="0 0 65 65" fill="none" xmlns="http://www.w3.org/2000/svg">
<path d="M58.6971 17.0502C58.6971 15.8267 57.9441 14.6973 56.4382 13.8502L37.4265 2.83843C34.6029 1.23843 30.0853 1.23843 27.2618 2.83843L8.06177 13.9443C6.65001 14.7914 5.80295 15.9208 5.80295 17.1443V24.2031C5.80295 25.0502 6.17942 25.8031 6.83824 26.462C6.17942 27.1208 5.80295 27.9678 5.80295 28.7208V35.7796C5.80295 36.6267 6.17942 37.3796 6.83824 38.0384C6.17942 38.6973 5.80295 39.4502 5.80295 40.2973V47.3561C5.80295 48.5796 6.55589 49.709 8.06177 50.5561L27.0735 61.662C29.8971 63.262 34.5088 63.262 37.2382 61.662L56.4382 50.5561C57.85 49.709 58.6971 48.5796 58.6971 47.3561V40.3914C58.6971 39.5443 58.3206 38.7914 57.6618 38.1326C58.3206 37.4737 58.6971 36.6267 58.6971 35.7796V28.8149C58.6971 27.9678 58.3206 27.2149 57.6618 26.5561C58.3206 25.8973 58.7912 25.0502 58.7912 24.2031L58.6971 17.0502ZM8.53236 14.6973L27.7324 3.68549C30.2735 2.1796 34.4147 2.1796 36.9559 3.68549L55.9676 14.7914C58.3206 16.2031 58.2265 18.2737 55.9676 19.5914L36.7676 30.6031C34.1324 32.109 29.9912 32.0149 27.5441 30.6031L8.53236 19.4973C6.27354 18.1796 6.17942 16.109 8.53236 14.6973ZM6.74412 24.109V19.309C6.83824 19.4031 7.12059 19.6855 7.77942 20.1561C8.34412 20.5326 14.7441 24.2031 27.0735 31.3561C28.1088 32.0149 29.8029 32.4855 31.7794 32.5796V38.6973C30.2735 38.6031 28.7677 38.3208 27.5441 37.662L8.53236 26.462C7.40295 25.8973 6.74412 25.0502 6.74412 24.109ZM6.74412 35.7796V30.9796C7.12059 31.3561 7.59118 31.7325 7.96765 31.9208L27.0735 43.0267C28.2029 43.6855 29.7088 44.1561 31.7794 44.2502V50.3678C30.2735 50.2737 28.7677 49.9914 27.5441 49.3326L8.53236 38.1326C7.40295 37.4737 6.74412 36.6267 6.74412 35.7796ZM31.7794 61.8502C30.2735 61.7561 28.7677 61.4737 27.5441 60.8149L8.53236 49.709C7.40295 49.0502 6.74412 48.2031 6.74412 47.3561V42.5561C6.83824 42.5561 7.21471 43.0267 8.06177 43.4973L27.1677 54.6031C28.2971 55.262 29.8971 55.7326 31.8735 55.8267V61.8502H31.7794ZM57.7559 47.262C57.7559 48.2031 57.0971 49.0502 55.9676 49.709L36.7676 60.7208C35.6382 61.3796 34.2265 61.7561 32.7206 61.7561V55.7326C34.3206 55.6384 36.0147 55.262 37.2382 54.509L56.4382 43.4973C56.9088 43.2149 57.4735 42.7443 57.7559 42.462V47.262ZM57.6618 40.2973C57.6618 41.3326 56.8147 42.1796 55.8735 42.6502L36.7676 53.7561C34.2265 55.262 30.0853 55.1678 27.5441 53.7561L8.53236 42.6502C6.74412 41.6149 6.17942 40.0149 7.59118 38.6031C7.77942 38.6973 7.87354 38.7914 8.06177 38.8855L27.0735 49.9914C29.8971 51.5914 34.5088 51.5914 37.2382 49.9914L56.4382 38.8855C56.6265 38.7914 56.7206 38.6973 56.9088 38.6031C57.3794 39.0737 57.7559 39.7326 57.6618 40.2973ZM57.7559 35.6855C57.7559 36.6267 57.0971 37.4737 55.9676 38.1326L36.7676 49.1443C35.6382 49.8031 34.2265 50.1796 32.7206 50.1796V44.062C34.3206 43.9678 36.0147 43.5914 37.2382 42.8384L56.4382 31.7326C57.0029 31.4502 57.4735 30.9796 57.7559 30.6973V35.6855ZM57.6618 28.7208C57.6618 29.7561 56.8147 30.6031 55.8735 31.0737L36.7676 42.1796C34.2265 43.6855 30.0853 43.6855 27.5441 42.1796L8.53236 31.0737C6.74412 30.0384 6.17942 28.4384 7.59118 27.0267C7.77942 27.1208 7.87354 27.2149 8.06177 27.309L27.0735 38.4149C29.8971 40.0149 34.5088 40.0149 37.2382 38.4149L56.4382 27.309C56.6265 27.2149 56.7206 27.1208 56.9088 27.0267C57.3794 27.4973 57.7559 28.062 57.6618 28.7208ZM55.9676 26.462L36.7676 37.5678C35.6382 38.2267 34.2265 38.6031 32.7206 38.6031V32.4855C34.3206 32.3914 36.0147 32.0149 37.2382 31.262L56.4382 20.1561C56.9088 19.8737 57.4735 19.4031 57.7559 19.1208V23.9208C57.7559 24.9561 57.0971 25.8031 55.9676 26.462Z" fill="#353B50"/>
<path d="M14.2726 19.5914L28.3902 27.7797C30.5549 29.0032 33.849 29.0032 36.0137 27.7797L50.2255 19.5914C52.4843 18.2738 52.5784 15.9208 50.2255 14.6032L36.1079 6.41496C34.0373 5.19143 30.5549 5.19143 28.4843 6.41496L14.2726 14.6032C11.9196 16.015 12.0137 18.2738 14.2726 19.5914ZM14.7431 15.4503L28.9549 7.26202C29.802 6.79143 30.9314 6.50908 31.9667 6.50908V8.10908C31.9667 8.39143 32.1549 8.57967 32.4373 8.57967C32.7196 8.57967 32.9079 8.39143 32.9079 8.10908V6.50908C33.9431 6.6032 34.8843 6.79143 35.6373 7.26202L49.7549 15.4503C50.4137 15.8267 50.7902 16.2973 50.9784 16.862H47.402C47.1196 16.862 46.9314 17.0503 46.9314 17.3326C46.9314 17.615 47.1196 17.8032 47.402 17.8032H50.7902C50.602 18.1797 50.2255 18.5561 49.7549 18.8385L35.5431 27.0267C34.7902 27.4032 33.9431 27.6855 33.002 27.7797V24.9561C33.002 24.6738 32.8137 24.4855 32.5314 24.4855C32.249 24.4855 32.0608 24.6738 32.0608 24.9561V27.7797C30.9314 27.7797 29.802 27.4973 28.8608 27.0267L14.7431 18.8385C14.1784 18.5561 13.8961 18.1797 13.7079 17.8032H16.5314C16.8137 17.8032 17.002 17.615 17.002 17.3326C17.002 17.0503 16.8137 16.862 16.5314 16.862H13.5196C13.6137 16.2973 14.0843 15.8267 14.7431 15.4503Z" fill="#353B50"/>
<path d="M30.2476 20.1426L30.5135 19.5721H34.1813L34.901 21.3915H37.8361L33.631 11.1299H30.9922L26.7871 21.3915H28.319C29.1421 21.3915 29.8921 20.9059 30.2476 20.1426ZM33.5591 17.3602H31.349L32.454 14.4013L33.5591 17.3602Z" fill="#EA4A35"/>
<path d="M28.4253 21.3915H26.7871L30.9922 11.1299H33.631L30.429 19.9608C30.1171 20.8211 29.3182 21.3915 28.4253 21.3915Z" fill="#EA4A35"/>
</svg>
