<svg width="65" height="65" viewBox="0 0 65 65" fill="none" xmlns="http://www.w3.org/2000/svg">
<path d="M56.8697 17.3521C56.8296 17.3257 56.7854 17.3091 56.7421 17.2908L52.3019 14.7017C52.0644 14.5633 51.7786 14.5548 51.5081 14.6731L50.7661 14.9738C50.4972 14.52 50.2099 14.0884 49.8893 13.699C49.8688 13.6606 49.859 13.499 49.9626 13.2718L52.242 8.29721C52.5353 7.63543 52.4231 6.99347 51.9693 6.72823L51.9715 6.72399C51.967 6.72137 51.9617 6.72193 51.9572 6.71953C48.6105 4.80139 48.9221 4.98177 48.8295 4.9289C46.7661 3.75033 44.4447 2.42444 44.3839 2.38962C43.8685 2.10962 43.272 2.46559 42.8955 2.97667C39.9265 7.15056 39.8082 7.50038 39.5312 7.65033C39.483 7.67756 39.4553 7.68471 39.4544 7.68649C38.9123 7.60764 38.3564 7.58047 37.8044 7.58353L37.6866 6.84721C37.6372 6.55637 37.3778 6.26793 37.275 6.20837L32.7553 3.58872C32.4812 3.41328 32.1249 3.42622 31.7856 3.62533L27.5392 6.10881C27.0624 6.36417 26.6856 6.94453 26.6249 7.51105C26.4753 8.69107 26.1898 11.0453 26.0622 12.1769C26.0195 12.4518 25.8436 12.7622 25.6249 12.9481C23.682 14.5727 21.8311 16.5289 20.1249 18.7615C20.0358 18.8764 19.9333 18.954 19.8077 19.0169L16.6445 18.2436C16.0897 18.0949 15.5063 18.5561 15.232 19.0548L12.248 24.2651C11.8971 24.8664 11.898 25.5329 12.2534 25.8887L14.5402 28.1418C14.5567 28.1787 14.5652 28.3231 14.482 28.5244C13.4007 31.1168 12.6284 33.72 12.1855 36.2579C12.1409 36.507 11.9855 36.7704 11.8096 36.899C11.8089 36.8996 11.8087 36.9005 11.8078 36.9011C11.806 36.9025 11.8034 36.902 11.8016 36.9035L7.95513 39.8651C7.50512 40.211 7.18994 40.8182 7.18994 41.3463L7.23637 46.2454C7.23637 46.7686 7.5078 46.995 7.65869 47.0771C9.47524 48.1301 12.0333 49.6351 12.2377 49.7299C12.4581 49.8407 12.7186 49.8497 12.9828 49.7432L13.7393 49.4397C14.0123 49.8984 14.3005 50.331 14.6061 50.7008C14.6203 50.724 14.6516 50.8771 14.5328 51.1459C14.5317 51.1483 14.5322 51.151 14.5311 51.1535L12.248 56.1195C11.9578 56.7727 12.0685 57.4093 12.5168 57.6651C14.6432 58.9009 17.9174 60.8331 20.1043 62.0079C20.6159 62.301 21.2363 61.9545 21.5927 61.4378L24.7133 57.0048C24.824 56.8508 24.9249 56.7789 25.0347 56.7164C25.5706 56.7987 26.1244 56.8244 26.6867 56.8228L26.8088 57.5744C26.8749 57.9338 27.074 58.1173 27.2303 58.2075C27.8446 58.5651 31.5144 60.7184 31.8004 60.8533C31.8075 60.8569 31.8113 60.8652 31.8187 60.8686C32.0848 60.9932 32.4053 60.9651 32.7053 60.7923L36.9696 58.2963C37.4357 58.0276 37.808 57.4552 37.875 56.9039L38.4428 52.2191C38.4714 51.9637 38.6509 51.645 38.8678 51.4704C40.842 49.8035 42.692 47.8436 44.367 45.6477C44.4429 45.5494 44.5286 45.47 44.6598 45.3896L47.867 46.1731C48.4222 46.3045 48.9721 45.8581 49.2634 45.3548L52.2554 40.1387C52.6063 39.5057 52.5965 38.8508 52.2402 38.5168L49.9501 36.2619C49.9402 36.2387 49.9224 36.1048 50.0117 35.8825C51.0885 33.2945 51.859 30.6927 52.301 28.1548C52.3474 27.9057 52.501 27.6454 52.6858 27.5057L56.5438 24.5445C56.9974 24.2035 57.3126 23.5874 57.3099 23.0441L57.2599 18.1642C57.259 17.8102 57.1171 17.5142 56.8697 17.3521ZM51.842 15.4918L55.4046 17.5696L52.2715 18.8628C52.0148 17.7257 51.6478 16.6998 51.1947 15.7732L51.842 15.4918ZM43.6375 3.51015C43.7232 3.39453 43.8259 3.29497 43.9072 3.24721C43.9455 3.22578 43.9714 3.2164 43.9732 3.20792C44.2415 3.36132 45.9514 4.33817 47.6784 5.32461C47.5904 5.41004 47.5074 5.50524 47.434 5.61149L44.5616 9.69648L40.8187 7.52622L43.6375 3.51015ZM39.3161 8.59006C39.525 8.62444 39.7562 8.57444 39.9732 8.45078C40.0661 8.40078 40.1598 8.33381 40.2491 8.2539L43.7835 10.3064C42.0828 10.0889 40.2607 10.2684 38.3303 10.8668L37.9509 8.49765C38.4131 8.50156 38.873 8.52567 39.3161 8.59006ZM27.5329 7.6173C27.5624 7.34363 27.7588 7.02846 27.9856 6.90658L32.2803 4.36997L35.9276 6.48471L32.049 8.74721C31.6072 9.00684 31.2182 9.63621 31.1481 10.1463C31.0755 10.7744 30.6968 13.9131 30.6705 14.1285L27.0035 11.9972C27.1419 10.7945 27.3945 8.7106 27.5329 7.6173ZM26.2142 13.6472C26.4419 13.453 26.6356 13.1977 26.7713 12.92L30.5091 15.0921C30.4298 15.2777 30.3053 15.4567 30.1526 15.582C28.2044 17.2195 26.3526 19.1762 24.6517 21.3972C24.5805 21.4893 24.4976 21.565 24.3796 21.64L20.6891 19.5007C20.7463 19.4431 20.8007 19.382 20.8499 19.3186C22.5168 17.1378 24.3204 15.2307 26.2142 13.6472ZM13.0391 24.7227L16.0284 19.5026C16.1811 19.228 16.3253 19.1897 16.4168 19.1289L19.5443 19.894L21.2958 20.9094L21.1686 20.8785C20.612 20.7346 20.0473 21.1893 19.7632 21.6941L16.7721 26.9075C16.4784 27.4277 16.4576 27.9803 16.6773 28.3494L15.1614 27.4709L12.9123 25.2593C12.8909 25.2146 12.8802 24.9963 13.0391 24.7227ZM15.3266 28.8749C15.3552 28.8052 15.3793 28.736 15.3998 28.6673L19.0744 30.8028C19.0869 30.8558 19.0896 30.9782 19.0159 31.1584C17.9338 33.749 17.1605 36.3521 16.7177 38.8918C16.6898 39.0446 16.6143 39.1914 16.523 39.3219C16.4316 39.2687 12.5471 37.0082 12.7949 37.1524C12.936 36.9315 13.0384 36.6776 13.0855 36.4182C13.5177 33.9436 14.2712 31.4061 15.3266 28.8749ZM8.15066 46.241L8.10423 41.3418C8.10423 41.1311 8.26048 40.7838 8.51227 40.5901L12.1139 37.8167C12.208 37.8714 16.029 40.0936 15.792 39.9558L12.4855 42.4954C12.0355 42.8432 11.7221 43.4539 11.723 43.9834C11.7237 44.0754 11.7602 48.6869 11.7578 48.3927L8.15066 46.241ZM14.5985 49.095L16.7596 48.228C17.207 50.1828 17.9677 51.834 19.0014 53.1521L18.6302 52.9369L15.4989 51.1191C15.5775 50.741 15.5204 50.3918 15.323 50.1343C15.0663 49.8223 14.8275 49.4676 14.5985 49.095ZM13.0811 56.4963L15.157 51.9802L18.1697 53.7272L18.8978 54.1498L16.782 58.7543C16.7418 58.8477 16.7088 58.941 16.6838 59.032L13.0132 56.9106C12.9936 56.8713 12.9855 56.711 13.0811 56.4963ZM27.7097 57.4186L27.6075 56.7897C28.6012 56.7089 29.6303 56.5119 30.6981 56.1825L31.224 59.477C30.5917 59.1109 29.5524 58.5062 27.8303 57.4994L27.7097 57.4186ZM55.9903 23.8164L52.1313 26.7789C51.7697 27.053 51.4902 27.516 51.4018 27.9927C50.9706 30.4695 50.2188 33.0057 49.1652 35.536C48.9358 36.107 48.992 36.6222 49.3 36.8994L51.5876 39.1521C51.6063 39.1954 51.6117 39.4133 51.459 39.6896L48.4715 44.8985C48.2099 45.3478 47.9894 45.2595 48.0813 45.2843L44.8741 44.5008C44.4046 44.387 43.9397 44.7056 43.642 45.0914C42.0054 47.2365 40.2009 49.1477 38.2875 50.7646C37.8928 51.0811 37.5901 51.624 37.5348 52.1128L36.9678 56.7941C36.9357 57.0552 36.7276 57.3807 36.5098 57.5057L32.2419 60.0539L31.5937 55.9968C31.5598 55.724 31.4285 55.5012 31.2249 55.3691C31.0151 55.2338 30.749 55.2048 30.4731 55.2914C28.5874 55.8878 26.8044 56.0624 25.1668 55.8119C24.6942 55.7437 24.2457 56.0874 23.9677 56.4758L20.8418 60.9155C20.74 61.0637 20.6391 61.136 20.5543 61.2119C19.1913 60.4536 17.6588 59.6201 17.5472 59.537C17.5306 59.4907 17.5399 59.3035 17.6168 59.1276L19.5271 54.9704L19.9025 54.1535C19.9023 54.1536 19.9025 54.1533 19.9025 54.1535L19.9061 54.1454C20.1356 53.6155 20.1168 53.1039 19.8516 52.7718C18.8177 51.5151 18.0731 49.9003 17.6382 47.9673C17.5141 47.441 17.0318 47.1484 16.4561 47.3593L12.6811 48.8749C12.6803 48.781 12.6383 43.6656 12.6409 43.9834C12.6409 43.7664 12.7962 43.4133 13.048 43.2204L16.8945 40.2691C16.9061 40.2602 16.9103 40.2456 16.921 40.2357C17.2668 39.9649 17.5326 39.5203 17.6177 39.0521C18.0498 36.5762 18.8043 34.0387 19.8606 31.5079C20.1091 30.9013 19.9561 30.3688 19.7347 30.1482C19.7338 30.1474 19.7338 30.1462 19.7329 30.1454L17.4436 27.8918C17.423 27.8485 17.4123 27.6325 17.5668 27.3602L20.5579 22.1463C20.6427 21.9963 20.7615 21.8673 20.9454 21.7651C21.7746 21.9649 23.8929 22.489 24.1843 22.5449C24.5579 22.6012 24.9904 22.4563 25.3758 21.9543C27.0383 19.7852 28.8428 17.8767 30.7356 16.2856C31.1401 15.9552 31.4321 15.4383 31.4999 14.9289C31.5963 14.076 31.6384 13.7563 32.0589 10.2543C32.0874 10.0201 32.2894 9.66611 32.5151 9.5356L36.7937 7.0539L37.433 11.0432C37.4678 11.3191 37.6 11.5445 37.8062 11.678C38.0143 11.8133 38.2777 11.8418 38.5544 11.7579C40.4312 11.1637 42.217 10.9852 43.8572 11.2285C44.0697 11.2579 44.2964 11.2079 44.517 11.0811C44.7152 10.9668 44.9036 10.7918 45.0661 10.5691L48.184 6.13471C48.292 5.9789 48.3947 5.90569 48.4795 5.82444C50.0289 6.68698 50.5124 6.94245 51.4775 7.4947C51.4976 7.5423 51.5059 7.70139 51.409 7.92176L49.1313 12.891C48.8947 13.4097 48.909 13.9356 49.175 14.2691C50.2009 15.516 50.9429 17.1293 51.3813 19.0691C51.4438 19.3334 51.5965 19.5427 51.8108 19.6579C52.026 19.7735 52.2885 19.7852 52.5617 19.686L56.3456 18.1727L56.3956 23.0508C56.3965 23.3039 56.2171 23.6463 55.9903 23.8164Z" fill="#353B50"/>
<path d="M43.1271 18.7086C40.7209 17.3246 37.5584 17.6246 34.2199 19.5519C27.5788 23.3854 22.194 32.7117 22.2154 40.3416C22.2261 44.1309 23.5368 46.9684 25.9065 48.3322C26.8922 48.8996 28.0074 49.1813 29.211 49.1813C30.9199 49.1813 32.8065 48.6135 34.7539 47.4894C41.428 43.6367 46.8397 34.2952 46.8182 26.6653C46.8075 22.8983 45.4968 20.0724 43.1271 18.7086ZM34.2967 46.6974C31.2717 48.4443 28.4538 48.7416 26.3627 47.5398C24.2877 46.3456 23.1395 43.7885 23.1297 40.3389C23.1092 33.001 28.2887 24.0313 34.6771 20.3438C36.4914 19.2961 38.2325 18.7671 39.7905 18.7671C40.8468 18.7671 41.8182 19.0104 42.6709 19.501C44.7459 20.6952 45.8941 23.2407 45.904 26.6679C45.9245 34.0059 40.7182 42.9907 34.2967 46.6974Z" fill="#353B50"/>
<path d="M41.3706 24.0603C40.2777 23.4295 38.8786 23.805 38.2482 24.8969L31.5758 36.4545L29.6535 35.3634C28.5589 34.742 27.1606 35.1273 26.5383 36.2233C25.916 37.3192 26.3017 38.717 27.3972 39.3389L31.2919 41.5505C31.6366 41.7456 32.0258 41.8487 32.4187 41.8487C33.2339 41.8487 33.9928 41.4108 34.4 40.7054C37.4492 35.4244 39.1588 32.4636 42.2081 27.1826C42.8375 26.0907 42.4616 24.6902 41.3706 24.0603ZM41.4161 26.7255L33.6089 40.2483C33.2473 40.8746 32.3803 41.1152 31.7437 40.7554L27.849 38.5438C27.191 38.171 26.9597 37.3322 27.333 36.6746C27.5856 36.2304 28.0508 35.9809 28.5285 35.9809C28.758 35.9809 28.9901 36.038 29.2026 36.159L31.5187 37.4737C31.7374 37.5969 32.0151 37.5219 32.1401 37.3045L39.0393 25.3545C39.4179 24.7001 40.258 24.4733 40.9134 24.8523C41.5679 25.23 41.7938 26.0706 41.4161 26.7255Z" fill="#EA4A35"/>
<path d="M41.4161 26.7255L33.6089 40.2483C33.2473 40.8746 32.3803 41.1152 31.7437 40.7554L27.849 38.5438C27.191 38.171 26.9597 37.3322 27.333 36.6746C27.5856 36.2304 28.0508 35.9809 28.5285 35.9809C28.758 35.9809 28.9901 36.038 29.2026 36.159L31.5187 37.4737C31.7374 37.5969 32.0151 37.5219 32.1401 37.3045L39.0393 25.3545C39.4179 24.7001 40.258 24.4733 40.9134 24.8523C41.5679 25.23 41.7938 26.0706 41.4161 26.7255Z" fill="#EA4A35"/>
</svg>
