<svg width="65" height="65" viewBox="0 0 65 65" fill="none" xmlns="http://www.w3.org/2000/svg">
<g clip-path="url(#clip0_2002_2688)">
<path d="M50.5336 15.1817L45.3356 12.3726L45.3557 3.17447L45.3567 3.17081C45.3567 2.9921 45.2543 2.82756 45.0892 2.7382L40.5144 0.270018C40.3482 0.180665 40.1423 0.180665 39.9782 0.270995L21.0293 10.5622L21.0257 10.5632C20.8605 10.652 20.7581 10.8171 20.7581 10.9953L20.744 17.483L14.582 20.8314C13.683 21.3177 13.3069 21.9921 13.3069 22.5784V22.5804L13.1763 51.1239C13.1627 51.8128 13.634 52.4618 14.466 52.9031L15.865 53.6589L15.8457 57.401C15.83 58.0275 16.2376 58.5939 16.9912 58.9957L25.6423 63.6675C26.9742 64.3734 29.0341 64.3908 30.3707 63.6645L47.906 54.1428C48.6178 53.7488 49.0191 53.1956 49.0348 52.575L49.0554 47.9819L50.405 47.2485C51.2161 46.8066 51.6697 46.188 51.6833 45.4991C51.8552 6.39238 51.8213 19.8396 51.8213 16.9394C51.8202 16.251 51.3624 15.6265 50.5336 15.1817ZM25.3128 25.4503L21.8012 23.5598L21.8263 11.8605C21.9348 11.919 25.5595 13.8737 25.3381 13.7543C25.3378 13.9169 25.3132 25.2712 25.3128 25.4503ZM26.4089 13.7503L44.2833 4.04236L44.2582 15.7363L26.3833 25.4445C26.3862 24.1135 26.4068 14.7046 26.4089 13.7503ZM40.2478 1.28073L43.7545 3.17276L25.8728 12.8844C25.7642 12.826 22.141 10.875 22.3625 10.9943L40.2478 1.28073ZM15.1193 21.6961L20.7414 18.6406L20.7299 23.8474C20.7299 24.0266 20.8313 24.1921 20.9974 24.2815L25.5785 26.7477C25.7431 26.8362 25.9469 26.8375 26.1137 26.7477L26.1147 26.7467L45.061 16.4565C45.2261 16.3672 45.3275 16.2031 45.3275 16.0254L45.333 13.5256L49.9995 16.0478C51.041 16.608 50.9386 17.328 50.0079 17.832L29.5743 28.9224C27.36 30.1373 25.0866 28.8152 24.9791 28.7901L15.1297 23.4812C14.6531 23.2229 14.3793 22.8958 14.3793 22.5828C14.3793 22.2737 14.6489 21.951 15.1193 21.6961ZM14.2465 51.1351L14.3699 24.2165C14.5722 24.3453 13.4703 23.7384 24.1686 29.5079C25.0097 29.961 25.2931 30.1548 26.723 30.3745C26.7067 37.4379 26.6756 50.8802 26.6593 57.9318C26.0614 57.8698 25.5137 57.715 25.0821 57.4821L14.998 52.035C14.5141 51.7787 14.2403 51.4535 14.2465 51.1351ZM17.5243 58.1286C17.2933 58.0055 16.9076 57.7506 16.916 57.4152L16.9324 54.2354L24.5469 58.3483C25.2439 58.7238 26.2153 58.9821 27.4254 58.9535L27.416 63.1655C26.9467 63.1069 26.5171 62.9814 26.1743 62.7993L17.5243 58.1286ZM47.9645 52.5614C47.9582 52.8143 47.744 53.0706 47.3646 53.2806L29.8335 62.8003C29.4698 62.9976 28.9963 63.1294 28.4863 63.1802L28.4957 58.8414C29.0415 58.7393 29.5508 58.5776 29.9809 58.3473L47.9825 48.565L47.9645 52.5614ZM50.613 45.4878C50.6068 45.8072 50.3413 46.1255 49.8668 46.3848C21.8831 61.5912 31.5345 56.3462 29.4468 57.4811C28.9848 57.7287 28.3776 57.8898 27.7295 57.943C27.7517 48.3759 27.7713 39.8903 27.7933 30.399C28.5465 30.3557 29.4473 30.1529 30.1199 29.7862L50.5524 18.6967C50.6162 18.6625 50.6768 18.6274 50.7353 18.5907L50.613 45.4878Z" fill="#353B50"/>
<path d="M33.7039 12.0157C33.5387 11.9269 33.3349 11.9274 33.1698 12.0162L28.5939 14.4854C28.4277 14.5752 28.3253 14.7407 28.3264 14.9199L28.3473 21.5418C28.3495 21.929 28.7965 22.1636 29.15 21.9734L33.7258 19.5043C33.892 19.4144 33.9945 19.2489 33.9934 19.0697L33.9725 12.4478C33.9715 12.2696 33.8701 12.1051 33.7039 12.0157ZM29.4144 20.6756L29.3977 15.2065L32.9054 13.314L32.9221 18.7831L29.4144 20.6756ZM42.0477 7.51343C41.8825 7.42456 41.6787 7.42505 41.5136 7.51391L36.9409 9.98161C36.7747 10.0715 36.6722 10.237 36.6733 10.4162L36.6931 17.038C36.6954 17.4253 37.1424 17.6599 37.4959 17.4697L42.0696 15.002C42.2358 14.9121 42.3382 14.7466 42.3372 14.5674L42.3163 7.94554C42.3152 7.76732 42.2139 7.60278 42.0477 7.51343ZM37.7613 16.1718L37.7446 10.7028L41.2491 8.81173L41.2659 14.2808L37.7613 16.1718Z" fill="#353B50"/>
<path d="M30.7696 43.3342C30.7549 38.4745 34.4194 32.5352 38.9399 30.0949C43.6869 27.5317 47.6866 29.6865 47.7017 34.7676C47.7164 39.6263 44.0498 45.5665 39.5273 48.0089C34.7766 50.574 30.7847 48.4093 30.7696 43.3342Z" fill="#EA4A35"/>
<path d="M42.6858 34.7353C42.4517 34.5718 42.1151 34.6147 41.9364 34.8359L39.7687 37.5398V35.0073C39.7687 34.731 39.5293 34.5073 39.2335 34.5073C38.9378 34.5073 38.6984 34.731 38.6984 35.0073V38.4586L36.192 38.0199C35.9015 37.9677 35.6213 38.1469 35.568 38.4188C35.5137 38.6903 35.705 38.9515 35.9955 39.0023L38.2761 39.4015L35.6652 42.6579C35.4886 42.8791 35.5367 43.1926 35.7729 43.3581C36.0093 43.5226 36.3434 43.4793 36.5223 43.2575L38.6984 40.5433V43.0949C38.6984 43.3713 38.9378 43.5949 39.2335 43.5949C39.5293 43.5949 39.7687 43.3713 39.7687 43.0949V39.6627L42.2667 40.0999C42.5592 40.1512 42.8368 39.9704 42.8907 39.701C42.945 39.4295 42.7538 39.1683 42.4632 39.1175L40.164 38.7151L42.7935 35.4355C42.9701 35.2143 42.922 34.9009 42.6858 34.7353Z" fill="white"/>
</g>
<defs>
<clipPath id="clip0_2002_2688">
<rect width="38.648" height="63.9999" fill="white" transform="translate(13.176 0.203125)"/>
</clipPath>
</defs>
</svg>
