<?xml version="1.0" encoding="UTF-8"?>
<svg width="205px" height="74px" viewBox="0 0 205 74" version="1.1" xmlns="http://www.w3.org/2000/svg" xmlns:xlink="http://www.w3.org/1999/xlink">
    <title>aidbox-logo</title>
    <g id="aidbox-logo" stroke="none" stroke-width="1" fill="none" fill-rule="evenodd">
        <path d="M82.2799805,46.3398901 L83.7799805,42.5898901 L91.8799805,42.5898901 L93.4099805,46.3398901 L99.6499805,46.3398901 L90.7099805,25.1898901 L85.0999805,25.1898901 L76.1599805,46.3398901 L82.2799805,46.3398901 Z M90.1999805,38.0598901 L85.4899805,38.0598901 L87.8599805,32.0898901 L90.1999805,38.0598901 Z M107.65998,46.3398901 L107.65998,25.3398901 L101.80998,25.3398901 L101.80998,46.3398901 L107.65998,46.3398901 Z M119.47998,46.3398901 C127.03998,46.3398901 131.44998,41.8398901 131.44998,35.7798901 C131.44998,29.6598901 127.09998,25.3398901 119.59998,25.3398901 L111.49998,25.3398901 L111.49998,46.3398901 L119.47998,46.3398901 Z M119.68998,41.1798901 L117.31998,41.1798901 L117.31998,30.4398901 L119.68998,30.4398901 C123.16998,30.4398901 125.47998,32.4498901 125.47998,35.8098901 C125.47998,39.2598901 123.16998,41.1798901 119.68998,41.1798901 Z M145.27998,46.3398901 C150.28998,46.3398901 153.22998,44.1498901 153.22998,40.5498901 C153.22998,37.6398901 151.60998,36.1998901 149.05998,35.3598901 C150.91998,34.5498901 152.29998,33.1098901 152.29998,30.6798901 C152.29998,29.1798901 151.78998,28.0698901 150.94998,27.2298901 C149.71998,25.9998901 147.85998,25.3398901 145.21998,25.3398901 L134.44998,25.3398901 L134.44998,46.3398901 L145.27998,46.3398901 Z M143.77998,33.7098901 L140.11998,33.7098901 L140.11998,30.0198901 L143.89998,30.0198901 C145.63998,30.0198901 146.53998,30.6798901 146.53998,31.8198901 C146.53998,33.1098901 145.54998,33.7098901 143.77998,33.7098901 Z M144.61998,41.6598901 L140.11998,41.6598901 L140.11998,37.7898901 L144.55998,37.7898901 C146.50998,37.7898901 147.40998,38.5398901 147.40998,39.6798901 C147.40998,40.9698901 146.38998,41.6598901 144.61998,41.6598901 Z M166.45998,46.7598901 C172.93998,46.7598901 177.79998,41.8698901 177.79998,35.8398901 C177.79998,29.7498901 172.99998,24.9198901 166.51998,24.9198901 C160.03998,24.9198901 155.17998,29.8098901 155.17998,35.8398901 C155.17998,41.9298901 159.97998,46.7598901 166.45998,46.7598901 Z M166.51998,41.5098901 C163.33998,41.5098901 161.14998,38.8698901 161.14998,35.8398901 C161.14998,32.7498901 163.27998,30.1698901 166.45998,30.1698901 C169.66998,30.1698901 171.85998,32.8098901 171.85998,35.8398901 C171.85998,38.9298901 169.72998,41.5098901 166.51998,41.5098901 Z M185.83998,46.3398901 L189.88998,40.0098901 L193.90998,46.3398901 L200.59998,46.3398901 L193.39998,35.5998901 L200.29998,25.3398901 L193.75998,25.3398901 L190.00998,31.2498901 L186.28998,25.3398901 L179.59998,25.3398901 L186.49998,35.6598901 L179.29998,46.3398901 L185.83998,46.3398901 Z" id="AIDBOX" fill="#000000" fill-rule="nonzero"></path>
        <g id="Group-8" transform="translate(1.000000, 1.000000)" fill-rule="nonzero">
            <path d="M18.17,55.296 L30.5849805,62.7347964 L43.491,55.516 L43.411,64.728 L30.4466979,71.9786329 L18.054,64.553 L18.17,55.296 Z M13.464,10.385 L13.565,19.696 L7.99998047,23.0947964 L7.99998047,49.2027964 L13.923,52.751 L14.024,62.139 L-1.13686838e-13,53.7364114 L-1.13686838e-13,18.6068506 L13.464,10.385 Z M48.246,10.399 L62.9230957,18.9855024 L62.9230957,53.8160224 L48.764,61.734 L48.672,52.618 L54.9229805,49.1237964 L54.9229805,23.5737964 L48.34,19.722 L48.246,10.399 Z M30.4718326,-1.13686838e-13 L43.907,7.86 L43.826,17.081 L30.5599805,9.31979639 L18.655,16.588 L18.773,7.143 L30.4718326,-1.13686838e-13 Z" id="Combined-Shape" fill="#000000"></path>
            <path d="M25.3395195,44.7655889 L26.0853271,43.2087844 L26.0853271,43.2087844 L36.3762204,43.2087844 L38.3953775,48.1733234 L46.6303711,48.1733234 L34.8321591,20.1733234 L27.4285831,20.1733234 L15.6303711,48.1733234 L19.928405,48.1733234 C22.2375861,48.1733234 24.3418511,46.8481294 25.3395195,44.7655889 Z M34.6303711,37.1733234 L28.4295654,37.1733234 L31.5299683,29.0996558 L34.6303711,37.1733234 Z" id="A" fill="#EA4A35"></path>
        </g>
        <path d="M21.2376128,49.1733234 L16.6303711,49.1733234 L16.6303711,49.1733234 L28.4285831,21.1733234 L35.8321591,21.1733234 L26.8604403,45.2670786 C25.9858994,47.6156781 23.7437536,49.1733234 21.2376128,49.1733234 Z" id="Path-33" fill="#C62712"></path>
    </g>
</svg>