<svg width="555" height="395" viewBox="0 0 555 395" fill="none" xmlns="http://www.w3.org/2000/svg">
<rect x="313" y="1" width="241" height="186" rx="7" fill="white"/>
<rect x="313" y="1" width="241" height="186" rx="7" stroke="#EA4A35" stroke-width="2"/>
<path d="M413.425 16H414.675L417.155 23H415.875L415.325 21.44H412.725L412.175 23H410.935L413.425 16ZM414.975 20.43L414.025 17.49L413.065 20.43H414.975ZM420.249 16H421.449V23H420.249V16ZM425.265 16H427.695C428.541 16 429.205 16.2567 429.685 16.77C430.165 17.2767 430.405 18.0433 430.405 19.07V19.87C430.405 20.9233 430.165 21.71 429.685 22.23C429.205 22.7433 428.541 23 427.695 23H425.265V16ZM427.695 21.98C427.935 21.98 428.148 21.9433 428.335 21.87C428.521 21.79 428.678 21.6667 428.805 21.5C428.938 21.3333 429.038 21.1167 429.105 20.85C429.178 20.5767 429.215 20.25 429.215 19.87V19.07C429.215 18.3367 429.078 17.81 428.805 17.49C428.538 17.17 428.168 17.01 427.695 17.01H426.455V21.98H427.695ZM433.866 16H436.336C437.136 16 437.746 16.1667 438.166 16.5C438.593 16.8333 438.806 17.29 438.806 17.87C438.806 18.2233 438.713 18.5267 438.526 18.78C438.346 19.0267 438.116 19.2167 437.836 19.35C438.203 19.4633 438.493 19.6567 438.706 19.93C438.926 20.1967 439.036 20.5567 439.036 21.01C439.036 21.2967 438.986 21.5633 438.886 21.81C438.786 22.05 438.629 22.26 438.416 22.44C438.209 22.6133 437.943 22.75 437.616 22.85C437.296 22.95 436.916 23 436.476 23H433.866V16ZM436.426 21.98C436.939 21.98 437.303 21.89 437.516 21.71C437.736 21.5233 437.846 21.2667 437.846 20.94C437.846 20.6067 437.736 20.3467 437.516 20.16C437.303 19.9733 436.939 19.88 436.426 19.88H435.056V21.98H436.426ZM436.336 18.91C436.783 18.91 437.106 18.8233 437.306 18.65C437.513 18.4767 437.616 18.25 437.616 17.97C437.616 17.6767 437.516 17.4433 437.316 17.27C437.116 17.0967 436.789 17.01 436.336 17.01H435.056V18.91H436.336ZM444.8 23.08C444.38 23.08 444 23.0167 443.66 22.89C443.327 22.7567 443.043 22.5567 442.81 22.29C442.577 22.0167 442.397 21.6767 442.27 21.27C442.15 20.8567 442.09 20.3667 442.09 19.8V19C442.09 17.9733 442.33 17.2033 442.81 16.69C443.29 16.1767 443.953 15.92 444.8 15.92C445.647 15.92 446.31 16.1767 446.79 16.69C447.27 17.2033 447.51 17.9733 447.51 19V19.8C447.51 20.3667 447.447 20.8567 447.32 21.27C447.2 21.6767 447.023 22.0167 446.79 22.29C446.557 22.5567 446.27 22.7567 445.93 22.89C445.597 23.0167 445.22 23.08 444.8 23.08ZM444.8 22.04C445.04 22.04 445.253 22.0033 445.44 21.93C445.627 21.85 445.783 21.7233 445.91 21.55C446.043 21.3767 446.143 21.1467 446.21 20.86C446.283 20.5733 446.32 20.22 446.32 19.8V19C446.32 18.2667 446.183 17.7433 445.91 17.43C445.643 17.1167 445.273 16.96 444.8 16.96C444.327 16.96 443.953 17.1167 443.68 17.43C443.413 17.7433 443.28 18.2667 443.28 19V19.8C443.28 20.22 443.313 20.5733 443.38 20.86C443.453 21.1467 443.553 21.3767 443.68 21.55C443.813 21.7233 443.973 21.85 444.16 21.93C444.347 22.0033 444.56 22.04 444.8 22.04ZM452.336 19.33L450.376 16H451.686L453.066 18.37L454.466 16H455.746L453.776 19.3L455.946 23H454.616L453.046 20.27L451.456 23H450.176L452.336 19.33Z" fill="#EC291C"/>
<rect x="324" y="35" width="105.5" height="67" rx="4" fill="#DF5534" fill-opacity="0.1"/>
<path d="M346.52 73.584C346.016 73.584 345.58 73.528 345.212 73.416C344.844 73.296 344.54 73.132 344.3 72.924C344.06 72.716 343.876 72.472 343.748 72.192C343.62 71.912 343.544 71.608 343.52 71.28H344.66C344.684 71.472 344.732 71.648 344.804 71.808C344.884 71.968 344.996 72.108 345.14 72.228C345.284 72.34 345.468 72.428 345.692 72.492C345.916 72.556 346.192 72.588 346.52 72.588C347.184 72.588 347.66 72.468 347.948 72.228C348.244 71.98 348.392 71.672 348.392 71.304C348.392 71.08 348.36 70.888 348.296 70.728C348.232 70.56 348.12 70.412 347.96 70.284C347.8 70.156 347.584 70.044 347.312 69.948C347.048 69.844 346.708 69.748 346.292 69.66C345.916 69.58 345.572 69.476 345.26 69.348C344.948 69.212 344.68 69.048 344.456 68.856C344.232 68.664 344.056 68.432 343.928 68.16C343.808 67.888 343.748 67.564 343.748 67.188C343.748 66.884 343.804 66.6 343.916 66.336C344.036 66.072 344.212 65.844 344.444 65.652C344.676 65.452 344.964 65.296 345.308 65.184C345.66 65.072 346.064 65.016 346.52 65.016C346.984 65.016 347.388 65.072 347.732 65.184C348.076 65.296 348.36 65.452 348.584 65.652C348.816 65.844 348.992 66.076 349.112 66.348C349.24 66.62 349.316 66.912 349.34 67.224H348.212C348.188 67.048 348.14 66.888 348.068 66.744C348.004 66.592 347.904 66.464 347.768 66.36C347.64 66.248 347.472 66.164 347.264 66.108C347.064 66.044 346.816 66.012 346.52 66.012C345.944 66.012 345.524 66.124 345.26 66.348C345.004 66.572 344.876 66.852 344.876 67.188C344.876 67.404 344.908 67.592 344.972 67.752C345.036 67.904 345.144 68.04 345.296 68.16C345.448 68.28 345.644 68.384 345.884 68.472C346.124 68.56 346.42 68.64 346.772 68.712C347.212 68.808 347.604 68.928 347.948 69.072C348.292 69.208 348.58 69.376 348.812 69.576C349.044 69.776 349.22 70.02 349.34 70.308C349.46 70.588 349.52 70.92 349.52 71.304C349.52 71.624 349.456 71.924 349.328 72.204C349.208 72.484 349.02 72.728 348.764 72.936C348.516 73.136 348.204 73.296 347.828 73.416C347.46 73.528 347.024 73.584 346.52 73.584ZM356.229 72.972C355.973 73.18 355.677 73.336 355.341 73.44C355.013 73.536 354.649 73.584 354.249 73.584C353.753 73.584 353.309 73.508 352.917 73.356C352.525 73.204 352.193 72.968 351.921 72.648C351.649 72.328 351.441 71.924 351.297 71.436C351.153 70.94 351.081 70.348 351.081 69.66V68.7C351.081 67.46 351.361 66.536 351.921 65.928C352.481 65.32 353.257 65.016 354.249 65.016C355.241 65.016 356.017 65.32 356.577 65.928C357.137 66.536 357.417 67.46 357.417 68.7V69.66C357.417 70.212 357.369 70.704 357.273 71.136C357.185 71.56 357.053 71.924 356.877 72.228L357.837 73.2L357.153 73.884L356.229 72.972ZM354.249 72.588C354.753 72.588 355.161 72.456 355.473 72.192L354.201 70.92L354.885 70.236L356.037 71.4C356.125 71.184 356.189 70.932 356.229 70.644C356.277 70.356 356.301 70.028 356.301 69.66V68.7C356.301 67.732 356.121 67.044 355.761 66.636C355.401 66.22 354.897 66.012 354.249 66.012C353.601 66.012 353.097 66.22 352.737 66.636C352.377 67.044 352.197 67.732 352.197 68.7V69.66C352.197 70.204 352.241 70.664 352.329 71.04C352.425 71.408 352.561 71.708 352.737 71.94C352.913 72.172 353.125 72.34 353.373 72.444C353.629 72.54 353.921 72.588 354.249 72.588ZM359.504 65.1H360.632V72.516H364.64V73.5H359.504V65.1ZM371.049 73.584C370.249 73.584 369.613 73.34 369.141 72.852C368.669 72.356 368.433 71.644 368.433 70.716V69.804C368.433 69.372 368.493 68.988 368.613 68.652C368.741 68.308 368.917 68.02 369.141 67.788C369.373 67.548 369.649 67.368 369.969 67.248C370.289 67.12 370.649 67.056 371.049 67.056C371.449 67.056 371.809 67.12 372.129 67.248C372.449 67.368 372.721 67.548 372.945 67.788C373.177 68.02 373.353 68.308 373.473 68.652C373.601 68.988 373.665 69.372 373.665 69.804V70.716C373.665 71.644 373.429 72.356 372.957 72.852C372.485 73.34 371.849 73.584 371.049 73.584ZM371.049 72.648C371.529 72.648 371.909 72.496 372.189 72.192C372.469 71.88 372.609 71.388 372.609 70.716V69.804C372.609 69.196 372.469 68.744 372.189 68.448C371.909 68.144 371.529 67.992 371.049 67.992C370.569 67.992 370.189 68.144 369.909 68.448C369.629 68.744 369.489 69.196 369.489 69.804V70.716C369.489 71.388 369.629 71.88 369.909 72.192C370.189 72.496 370.569 72.648 371.049 72.648ZM375.189 67.14H376.137V68.196C376.273 67.884 376.505 67.616 376.833 67.392C377.161 67.168 377.557 67.056 378.021 67.056C378.661 67.056 379.169 67.26 379.545 67.668C379.921 68.076 380.109 68.692 380.109 69.516V73.5H379.041V69.576C379.041 69.032 378.925 68.632 378.693 68.376C378.461 68.12 378.133 67.992 377.709 67.992C377.509 67.992 377.321 68.032 377.145 68.112C376.969 68.192 376.813 68.304 376.677 68.448C376.549 68.584 376.445 68.748 376.365 68.94C376.293 69.132 376.257 69.344 376.257 69.576V73.5H375.189V67.14ZM385.121 65.1H390.281V66.084H386.249V68.808H389.897V69.792H386.249V73.5H385.121V65.1ZM391.906 65.1H393.034V68.688H396.826V65.1H397.954V73.5H396.826V69.672H393.034V73.5H391.906V65.1ZM400.429 65.1H401.557V73.5H400.429V65.1ZM404.024 65.1H406.952C407.432 65.1 407.856 65.164 408.224 65.292C408.6 65.412 408.912 65.584 409.16 65.808C409.416 66.032 409.608 66.296 409.736 66.6C409.864 66.904 409.928 67.24 409.928 67.608C409.928 68.144 409.792 68.612 409.52 69.012C409.256 69.412 408.864 69.708 408.344 69.9L410.168 73.5H408.932L407.264 70.116H405.152V73.5H404.024V65.1ZM406.952 69.132C407.576 69.132 408.04 68.992 408.344 68.712C408.648 68.432 408.8 68.064 408.8 67.608C408.8 67.152 408.648 66.784 408.344 66.504C408.04 66.224 407.576 66.084 406.952 66.084H405.152V69.132H406.952Z" fill="#525263"/>
<rect x="437.5" y="35" width="105.5" height="67" rx="4" fill="#DF5534" fill-opacity="0.1"/>
<path d="M465.358 56.1H470.518V57.084H466.486V59.808H470.134V60.792H466.486V64.5H465.358V56.1ZM472.143 56.1H473.271V59.688H477.063V56.1H478.191V64.5H477.063V60.672H473.271V64.5H472.143V56.1ZM480.665 56.1H481.793V64.5H480.665V56.1ZM484.26 56.1H487.188C487.668 56.1 488.092 56.164 488.46 56.292C488.836 56.412 489.148 56.584 489.396 56.808C489.652 57.032 489.844 57.296 489.972 57.6C490.1 57.904 490.164 58.24 490.164 58.608C490.164 59.144 490.028 59.612 489.756 60.012C489.492 60.412 489.1 60.708 488.58 60.9L490.404 64.5H489.168L487.5 61.116H485.388V64.5H484.26V56.1ZM487.188 60.132C487.812 60.132 488.276 59.992 488.58 59.712C488.884 59.432 489.036 59.064 489.036 58.608C489.036 58.152 488.884 57.784 488.58 57.504C488.276 57.224 487.812 57.084 487.188 57.084H485.388V60.132H487.188ZM496.253 64.572C495.669 64.572 495.213 64.412 494.885 64.092C494.557 63.764 494.393 63.308 494.393 62.724C494.393 62.108 494.569 61.64 494.921 61.32C495.273 60.992 495.837 60.828 496.613 60.828H498.125V60.216C498.125 59.784 498.025 59.472 497.825 59.28C497.633 59.08 497.333 58.98 496.925 58.98C496.717 58.98 496.541 59.004 496.397 59.052C496.253 59.092 496.137 59.152 496.049 59.232C495.961 59.304 495.893 59.388 495.845 59.484C495.797 59.58 495.769 59.676 495.761 59.772H494.729C494.753 59.524 494.809 59.296 494.897 59.088C494.985 58.88 495.117 58.7 495.293 58.548C495.469 58.396 495.689 58.276 495.953 58.188C496.225 58.1 496.553 58.056 496.937 58.056C497.705 58.056 498.269 58.236 498.629 58.596C498.989 58.948 499.169 59.488 499.169 60.216V64.5H498.245V63.444C498.165 63.58 498.073 63.716 497.969 63.852C497.865 63.988 497.733 64.112 497.573 64.224C497.421 64.328 497.237 64.412 497.021 64.476C496.805 64.54 496.549 64.572 496.253 64.572ZM496.553 63.66C497.033 63.66 497.413 63.52 497.693 63.24C497.981 62.952 498.125 62.564 498.125 62.076V61.692H496.661C496.205 61.692 495.885 61.776 495.701 61.944C495.525 62.104 495.437 62.36 495.437 62.712C495.437 62.992 495.529 63.22 495.713 63.396C495.897 63.572 496.177 63.66 496.553 63.66ZM500.906 58.14H501.854V59.196C501.99 58.884 502.222 58.616 502.55 58.392C502.878 58.168 503.274 58.056 503.738 58.056C504.378 58.056 504.886 58.26 505.262 58.668C505.638 59.076 505.826 59.692 505.826 60.516V64.5H504.758V60.576C504.758 60.032 504.642 59.632 504.41 59.376C504.178 59.12 503.85 58.992 503.426 58.992C503.226 58.992 503.038 59.032 502.862 59.112C502.686 59.192 502.53 59.304 502.394 59.448C502.266 59.584 502.162 59.748 502.082 59.94C502.01 60.132 501.974 60.344 501.974 60.576V64.5H500.906V58.14ZM509.59 64.572C509.254 64.572 508.942 64.512 508.654 64.392C508.374 64.272 508.13 64.092 507.922 63.852C507.722 63.612 507.566 63.316 507.454 62.964C507.342 62.604 507.286 62.188 507.286 61.716V60.804C507.286 60.364 507.342 59.972 507.454 59.628C507.566 59.284 507.722 58.996 507.922 58.764C508.13 58.532 508.374 58.356 508.654 58.236C508.942 58.116 509.254 58.056 509.59 58.056C510.03 58.056 510.394 58.156 510.682 58.356C510.978 58.556 511.202 58.812 511.354 59.124V56.1H512.422V64.5H511.474V63.444C511.29 63.796 511.042 64.072 510.73 64.272C510.426 64.472 510.046 64.572 509.59 64.572ZM509.806 63.636C510.286 63.636 510.662 63.484 510.934 63.18C511.214 62.868 511.354 62.38 511.354 61.716V60.804C511.354 60.196 511.214 59.744 510.934 59.448C510.662 59.144 510.286 58.992 509.806 58.992C509.374 58.992 509.022 59.144 508.75 59.448C508.478 59.744 508.342 60.196 508.342 60.804V61.716C508.342 62.38 508.478 62.868 508.75 63.18C509.022 63.484 509.374 63.636 509.806 63.636ZM460.009 82.584C459.513 82.584 459.069 82.508 458.677 82.356C458.285 82.204 457.953 81.968 457.681 81.648C457.409 81.328 457.201 80.92 457.057 80.424C456.913 79.928 456.841 79.336 456.841 78.648V77.688C456.841 76.448 457.121 75.528 457.681 74.928C458.241 74.32 459.017 74.016 460.009 74.016C460.881 74.016 461.573 74.22 462.085 74.628C462.605 75.036 462.945 75.68 463.105 76.56H461.977C461.825 75.992 461.593 75.592 461.281 75.36C460.969 75.128 460.545 75.012 460.009 75.012C459.361 75.012 458.857 75.22 458.497 75.636C458.137 76.044 457.957 76.728 457.957 77.688V78.648C457.957 79.192 458.001 79.652 458.089 80.028C458.185 80.404 458.321 80.708 458.497 80.94C458.673 81.172 458.885 81.34 459.133 81.444C459.389 81.54 459.681 81.588 460.009 81.588C460.289 81.588 460.533 81.56 460.741 81.504C460.957 81.44 461.141 81.348 461.293 81.228C461.453 81.1 461.585 80.936 461.689 80.736C461.801 80.536 461.897 80.292 461.977 80.004H463.105C462.921 80.932 462.565 81.596 462.037 81.996C461.517 82.388 460.841 82.584 460.009 82.584ZM466.487 82.584C465.871 82.584 465.375 82.38 464.999 81.972C464.631 81.564 464.447 80.948 464.447 80.124V76.14H465.515V80.064C465.515 80.608 465.627 81.008 465.851 81.264C466.083 81.52 466.395 81.648 466.787 81.648C466.971 81.648 467.147 81.608 467.315 81.528C467.483 81.448 467.631 81.34 467.759 81.204C467.887 81.06 467.987 80.892 468.059 80.7C468.139 80.508 468.179 80.296 468.179 80.064V76.14H469.247V82.5H468.299V81.444C468.163 81.756 467.939 82.024 467.627 82.248C467.315 82.472 466.935 82.584 466.487 82.584ZM473.146 82.584C472.722 82.584 472.358 82.54 472.054 82.452C471.758 82.356 471.51 82.228 471.31 82.068C471.118 81.9 470.974 81.704 470.878 81.48C470.782 81.256 470.726 81.008 470.71 80.736H471.778C471.794 80.88 471.826 81.008 471.874 81.12C471.93 81.232 472.01 81.332 472.114 81.42C472.218 81.5 472.354 81.564 472.522 81.612C472.69 81.652 472.898 81.672 473.146 81.672C473.666 81.672 474.026 81.592 474.226 81.432C474.434 81.264 474.538 81.044 474.538 80.772C474.538 80.66 474.522 80.556 474.49 80.46C474.458 80.356 474.386 80.26 474.274 80.172C474.17 80.084 474.014 80.004 473.806 79.932C473.598 79.852 473.322 79.78 472.978 79.716C472.274 79.58 471.746 79.376 471.394 79.104C471.05 78.824 470.878 78.408 470.878 77.856C470.878 77.328 471.062 76.896 471.43 76.56C471.806 76.224 472.378 76.056 473.146 76.056C473.914 76.056 474.474 76.224 474.826 76.56C475.186 76.896 475.382 77.328 475.414 77.856H474.346C474.314 77.576 474.214 77.36 474.046 77.208C473.878 77.048 473.578 76.968 473.146 76.968C472.698 76.968 472.382 77.044 472.198 77.196C472.022 77.348 471.934 77.56 471.934 77.832C471.934 77.952 471.95 78.06 471.982 78.156C472.014 78.252 472.078 78.34 472.174 78.42C472.278 78.492 472.422 78.56 472.606 78.624C472.79 78.688 473.034 78.748 473.338 78.804C473.73 78.876 474.066 78.964 474.346 79.068C474.634 79.164 474.866 79.288 475.042 79.44C475.226 79.592 475.362 79.776 475.45 79.992C475.538 80.2 475.582 80.448 475.582 80.736C475.582 81.28 475.386 81.724 474.994 82.068C474.602 82.412 473.986 82.584 473.146 82.584ZM479.446 82.5C478.742 82.5 478.242 82.352 477.946 82.056C477.65 81.752 477.502 81.24 477.502 80.52V77.076H476.614V76.14H477.502V74.7H478.57V76.14H479.878V77.076H478.57V80.52C478.57 80.936 478.638 81.216 478.774 81.36C478.91 81.504 479.146 81.576 479.482 81.576H479.878V82.5H479.446ZM483.711 82.584C482.911 82.584 482.275 82.34 481.803 81.852C481.331 81.356 481.095 80.644 481.095 79.716V78.804C481.095 78.372 481.155 77.988 481.275 77.652C481.403 77.308 481.579 77.02 481.803 76.788C482.035 76.548 482.311 76.368 482.631 76.248C482.951 76.12 483.311 76.056 483.711 76.056C484.111 76.056 484.471 76.12 484.791 76.248C485.111 76.368 485.383 76.548 485.607 76.788C485.839 77.02 486.015 77.308 486.135 77.652C486.263 77.988 486.327 78.372 486.327 78.804V79.716C486.327 80.644 486.091 81.356 485.619 81.852C485.147 82.34 484.511 82.584 483.711 82.584ZM483.711 81.648C484.191 81.648 484.571 81.496 484.851 81.192C485.131 80.88 485.271 80.388 485.271 79.716V78.804C485.271 78.196 485.131 77.744 484.851 77.448C484.571 77.144 484.191 76.992 483.711 76.992C483.231 76.992 482.851 77.144 482.571 77.448C482.291 77.744 482.151 78.196 482.151 78.804V79.716C482.151 80.388 482.291 80.88 482.571 81.192C482.851 81.496 483.231 81.648 483.711 81.648ZM487.851 76.14H488.799V77.196C488.935 76.884 489.163 76.616 489.483 76.392C489.803 76.168 490.163 76.056 490.563 76.056C490.947 76.056 491.295 76.156 491.607 76.356C491.927 76.556 492.155 76.832 492.291 77.184C492.491 76.84 492.755 76.568 493.083 76.368C493.411 76.16 493.779 76.056 494.187 76.056C494.467 76.056 494.727 76.108 494.967 76.212C495.207 76.316 495.411 76.472 495.579 76.68C495.755 76.88 495.891 77.136 495.987 77.448C496.083 77.752 496.131 78.108 496.131 78.516V82.5H495.063V78.576C495.063 78.032 494.951 77.632 494.727 77.376C494.511 77.12 494.227 76.992 493.875 76.992C493.699 76.992 493.527 77.032 493.359 77.112C493.199 77.192 493.055 77.304 492.927 77.448C492.807 77.584 492.707 77.748 492.627 77.94C492.555 78.132 492.519 78.344 492.519 78.576V82.5H491.463V78.576C491.463 78.032 491.351 77.632 491.127 77.376C490.903 77.12 490.615 76.992 490.263 76.992C490.087 76.992 489.919 77.032 489.759 77.112C489.599 77.192 489.455 77.304 489.327 77.448C489.207 77.584 489.107 77.748 489.027 77.94C488.955 78.132 488.919 78.344 488.919 78.576V82.5H487.851V76.14ZM501.147 74.1H503.931C504.923 74.1 505.699 74.404 506.259 75.012C506.819 75.612 507.099 76.536 507.099 77.784V78.744C507.099 80.032 506.819 80.98 506.259 81.588C505.699 82.196 504.923 82.5 503.931 82.5H501.147V74.1ZM503.931 81.516C504.579 81.516 505.083 81.304 505.443 80.88C505.803 80.456 505.983 79.744 505.983 78.744V77.784C505.983 76.816 505.803 76.124 505.443 75.708C505.083 75.292 504.579 75.084 503.931 75.084H502.275V81.516H503.931ZM510.257 82.572C509.673 82.572 509.217 82.412 508.889 82.092C508.561 81.764 508.397 81.308 508.397 80.724C508.397 80.108 508.573 79.64 508.925 79.32C509.277 78.992 509.841 78.828 510.617 78.828H512.129V78.216C512.129 77.784 512.029 77.472 511.829 77.28C511.637 77.08 511.337 76.98 510.929 76.98C510.721 76.98 510.545 77.004 510.401 77.052C510.257 77.092 510.141 77.152 510.053 77.232C509.965 77.304 509.897 77.388 509.849 77.484C509.801 77.58 509.773 77.676 509.765 77.772H508.733C508.757 77.524 508.813 77.296 508.901 77.088C508.989 76.88 509.121 76.7 509.297 76.548C509.473 76.396 509.693 76.276 509.957 76.188C510.229 76.1 510.557 76.056 510.941 76.056C511.709 76.056 512.273 76.236 512.633 76.596C512.993 76.948 513.173 77.488 513.173 78.216V82.5H512.249V81.444C512.169 81.58 512.077 81.716 511.973 81.852C511.869 81.988 511.737 82.112 511.577 82.224C511.425 82.328 511.241 82.412 511.025 82.476C510.809 82.54 510.553 82.572 510.257 82.572ZM510.557 81.66C511.037 81.66 511.417 81.52 511.697 81.24C511.985 80.952 512.129 80.564 512.129 80.076V79.692H510.665C510.209 79.692 509.889 79.776 509.705 79.944C509.529 80.104 509.441 80.36 509.441 80.712C509.441 80.992 509.533 81.22 509.717 81.396C509.901 81.572 510.181 81.66 510.557 81.66ZM517.31 82.5C516.606 82.5 516.106 82.352 515.81 82.056C515.514 81.752 515.366 81.24 515.366 80.52V77.076H514.478V76.14H515.366V74.7H516.434V76.14H517.742V77.076H516.434V80.52C516.434 80.936 516.502 81.216 516.638 81.36C516.774 81.504 517.01 81.576 517.346 81.576H517.742V82.5H517.31ZM520.698 82.572C520.114 82.572 519.658 82.412 519.33 82.092C519.002 81.764 518.838 81.308 518.838 80.724C518.838 80.108 519.014 79.64 519.366 79.32C519.718 78.992 520.282 78.828 521.058 78.828H522.57V78.216C522.57 77.784 522.47 77.472 522.27 77.28C522.078 77.08 521.778 76.98 521.37 76.98C521.162 76.98 520.986 77.004 520.842 77.052C520.698 77.092 520.582 77.152 520.494 77.232C520.406 77.304 520.338 77.388 520.29 77.484C520.242 77.58 520.214 77.676 520.206 77.772H519.174C519.198 77.524 519.254 77.296 519.342 77.088C519.43 76.88 519.562 76.7 519.738 76.548C519.914 76.396 520.134 76.276 520.398 76.188C520.67 76.1 520.998 76.056 521.382 76.056C522.15 76.056 522.714 76.236 523.074 76.596C523.434 76.948 523.614 77.488 523.614 78.216V82.5H522.69V81.444C522.61 81.58 522.518 81.716 522.414 81.852C522.31 81.988 522.178 82.112 522.018 82.224C521.866 82.328 521.682 82.412 521.466 82.476C521.25 82.54 520.994 82.572 520.698 82.572ZM520.998 81.66C521.478 81.66 521.858 81.52 522.138 81.24C522.426 80.952 522.57 80.564 522.57 80.076V79.692H521.106C520.65 79.692 520.33 79.776 520.146 79.944C519.97 80.104 519.882 80.36 519.882 80.712C519.882 80.992 519.974 81.22 520.158 81.396C520.342 81.572 520.622 81.66 520.998 81.66Z" fill="#525263"/>
<rect x="324" y="110" width="219" height="66" rx="4" fill="#DF5534" fill-opacity="0.1"/>
<path d="M414.526 139.6H415.702L418.366 144.808L421.03 139.6H422.134V148H421.03V141.616L418.75 146.116H417.91L415.63 141.616V148H414.526V139.6ZM425.675 148.072C425.091 148.072 424.635 147.912 424.307 147.592C423.979 147.264 423.815 146.808 423.815 146.224C423.815 145.608 423.991 145.14 424.343 144.82C424.695 144.492 425.259 144.328 426.035 144.328H427.547V143.716C427.547 143.284 427.447 142.972 427.247 142.78C427.055 142.58 426.755 142.48 426.347 142.48C426.139 142.48 425.963 142.504 425.819 142.552C425.675 142.592 425.559 142.652 425.471 142.732C425.383 142.804 425.315 142.888 425.267 142.984C425.219 143.08 425.191 143.176 425.183 143.272H424.151C424.175 143.024 424.231 142.796 424.319 142.588C424.407 142.38 424.539 142.2 424.715 142.048C424.891 141.896 425.111 141.776 425.375 141.688C425.647 141.6 425.975 141.556 426.359 141.556C427.127 141.556 427.691 141.736 428.051 142.096C428.411 142.448 428.591 142.988 428.591 143.716V148H427.667V146.944C427.587 147.08 427.495 147.216 427.391 147.352C427.287 147.488 427.155 147.612 426.995 147.724C426.843 147.828 426.659 147.912 426.443 147.976C426.227 148.04 425.971 148.072 425.675 148.072ZM425.975 147.16C426.455 147.16 426.835 147.02 427.115 146.74C427.403 146.452 427.547 146.064 427.547 145.576V145.192H426.083C425.627 145.192 425.307 145.276 425.123 145.444C424.947 145.604 424.859 145.86 424.859 146.212C424.859 146.492 424.951 146.72 425.135 146.896C425.319 147.072 425.599 147.16 425.975 147.16ZM430.328 141.64H431.276V142.696C431.46 142.344 431.704 142.068 432.008 141.868C432.32 141.668 432.704 141.568 433.16 141.568C433.496 141.568 433.804 141.628 434.084 141.748C434.364 141.868 434.604 142.044 434.804 142.276C435.012 142.5 435.172 142.784 435.284 143.128C435.404 143.472 435.464 143.864 435.464 144.304V145.216C435.464 145.688 435.404 146.104 435.284 146.464C435.172 146.824 435.012 147.124 434.804 147.364C434.604 147.604 434.364 147.784 434.084 147.904C433.804 148.024 433.496 148.084 433.16 148.084C432.728 148.084 432.364 147.984 432.068 147.784C431.772 147.584 431.548 147.328 431.396 147.016V150.4H430.328V141.64ZM432.944 147.148C433.376 147.148 433.728 146.996 434 146.692C434.272 146.38 434.408 145.888 434.408 145.216V144.304C434.408 143.704 434.272 143.256 434 142.96C433.728 142.656 433.376 142.504 432.944 142.504C432.464 142.504 432.084 142.656 431.804 142.96C431.532 143.256 431.396 143.704 431.396 144.304V145.216C431.396 145.888 431.532 146.38 431.804 146.692C432.084 146.996 432.464 147.148 432.944 147.148ZM436.984 141.64H437.932V142.696C438.116 142.344 438.36 142.068 438.664 141.868C438.976 141.668 439.36 141.568 439.816 141.568C440.152 141.568 440.46 141.628 440.74 141.748C441.02 141.868 441.26 142.044 441.46 142.276C441.668 142.5 441.828 142.784 441.94 143.128C442.06 143.472 442.12 143.864 442.12 144.304V145.216C442.12 145.688 442.06 146.104 441.94 146.464C441.828 146.824 441.668 147.124 441.46 147.364C441.26 147.604 441.02 147.784 440.74 147.904C440.46 148.024 440.152 148.084 439.816 148.084C439.384 148.084 439.02 147.984 438.724 147.784C438.428 147.584 438.204 147.328 438.052 147.016V150.4H436.984V141.64ZM439.6 147.148C440.032 147.148 440.384 146.996 440.656 146.692C440.928 146.38 441.064 145.888 441.064 145.216V144.304C441.064 143.704 440.928 143.256 440.656 142.96C440.384 142.656 440.032 142.504 439.6 142.504C439.12 142.504 438.74 142.656 438.46 142.96C438.188 143.256 438.052 143.704 438.052 144.304V145.216C438.052 145.888 438.188 146.38 438.46 146.692C438.74 146.996 439.12 147.148 439.6 147.148ZM445.92 148.084C445.536 148.084 445.184 148.024 444.864 147.904C444.552 147.776 444.284 147.592 444.06 147.352C443.844 147.104 443.672 146.804 443.544 146.452C443.424 146.092 443.364 145.68 443.364 145.216V144.304C443.364 143.408 443.584 142.728 444.024 142.264C444.472 141.792 445.084 141.556 445.86 141.556C446.636 141.556 447.244 141.792 447.684 142.264C448.132 142.728 448.356 143.416 448.356 144.328V145.132H444.42C444.428 145.86 444.564 146.384 444.828 146.704C445.1 147.016 445.464 147.172 445.92 147.172C446.12 147.172 446.292 147.148 446.436 147.1C446.588 147.044 446.712 146.972 446.808 146.884C446.912 146.796 446.992 146.696 447.048 146.584C447.104 146.472 447.144 146.356 447.168 146.236H448.236C448.108 146.86 447.848 147.324 447.456 147.628C447.064 147.932 446.552 148.084 445.92 148.084ZM445.872 142.468C445.416 142.468 445.06 142.608 444.804 142.888C444.556 143.16 444.428 143.62 444.42 144.268H447.36C447.344 143.62 447.208 143.16 446.952 142.888C446.704 142.608 446.344 142.468 445.872 142.468ZM449.971 141.64H450.919V142.696C451.055 142.384 451.287 142.116 451.615 141.892C451.951 141.668 452.347 141.556 452.803 141.556C452.891 141.556 452.971 141.56 453.043 141.568C453.115 141.576 453.183 141.584 453.247 141.592C453.319 141.6 453.383 141.608 453.439 141.616V142.624C453.359 142.608 453.271 142.592 453.175 142.576C453.087 142.56 452.987 142.548 452.875 142.54C452.771 142.524 452.659 142.516 452.539 142.516C452.091 142.516 451.727 142.656 451.447 142.936C451.175 143.216 451.039 143.596 451.039 144.076V148H449.971V141.64Z" fill="#525263"/>
<rect x="480" y="91.6914" width="18" height="26.6172" rx="9" fill="white"/>
<path d="M8 330H547C550.866 330 554 333.134 554 337V387C554 390.866 550.866 394 547 394H8C4.13401 394 1 390.866 1 387V337C1 333.134 4.13401 330 8 330Z" fill="white"/>
<path d="M8 330H547C550.866 330 554 333.134 554 337V387C554 390.866 550.866 394 547 394H8C4.13401 394 1 390.866 1 387V337C1 333.134 4.13401 330 8 330Z" stroke="#D3DBE6" stroke-width="2"/>
<path d="M12 345C12 342.791 13.7909 341 16 341H539C541.209 341 543 342.791 543 345V379C543 381.209 541.209 383 539 383H16C13.7909 383 12 381.209 12 379V345Z" fill="#F6F7F8"/>
<path d="M267.121 358.6H272.269V359.584H268.249V362.188H271.885V363.172H268.249V366.016H272.269V367H267.121V358.6ZM274.024 358.6H275.152V362.188H278.944V358.6H280.072V367H278.944V363.172H275.152V367H274.024V358.6ZM282.426 358.6H285.354C285.834 358.6 286.258 358.664 286.626 358.792C287.002 358.912 287.314 359.084 287.562 359.308C287.818 359.532 288.01 359.796 288.138 360.1C288.266 360.404 288.33 360.74 288.33 361.108C288.33 361.644 288.194 362.112 287.922 362.512C287.658 362.912 287.266 363.208 286.746 363.4L288.57 367H287.334L285.666 363.616H283.554V367H282.426V358.6ZM285.354 362.632C285.978 362.632 286.442 362.492 286.746 362.212C287.05 361.932 287.202 361.564 287.202 361.108C287.202 360.652 287.05 360.284 286.746 360.004C286.442 359.724 285.978 359.584 285.354 359.584H283.554V362.632H285.354Z" fill="#525263"/>
<path d="M8 2H164C167.866 2 171 5.13401 171 9V180C171 183.866 167.866 187 164 187H8C4.13401 187 1 183.866 1 180V9C1 5.13401 4.13401 2 8 2Z" fill="white"/>
<path d="M8 2H164C167.866 2 171 5.13401 171 9V180C171 183.866 167.866 187 164 187H8C4.13401 187 1 183.866 1 180V9C1 5.13401 4.13401 2 8 2Z" stroke="#549FEA" stroke-width="2"/>
<path d="M77.798 24.07C77.3847 24.07 77.0147 24.0067 76.688 23.88C76.3614 23.7533 76.0847 23.5567 75.858 23.29C75.6314 23.0233 75.458 22.6833 75.338 22.27C75.218 21.8567 75.158 21.3633 75.158 20.79V19.99C75.158 18.9567 75.3914 18.19 75.858 17.69C76.3247 17.1833 76.9714 16.93 77.798 16.93C78.5247 16.93 79.1014 17.1 79.528 17.44C79.9614 17.78 80.2447 18.3167 80.378 19.05H79.438C79.3114 18.5767 79.118 18.2433 78.858 18.05C78.598 17.8567 78.2447 17.76 77.798 17.76C77.258 17.76 76.838 17.9333 76.538 18.28C76.238 18.62 76.088 19.19 76.088 19.99V20.79C76.088 21.2433 76.1247 21.6267 76.198 21.94C76.278 22.2533 76.3914 22.5067 76.538 22.7C76.6847 22.8933 76.8614 23.0333 77.068 23.12C77.2814 23.2 77.5247 23.24 77.798 23.24C78.0314 23.24 78.2347 23.2167 78.408 23.17C78.588 23.1167 78.7414 23.04 78.868 22.94C79.0014 22.8333 79.1114 22.6967 79.198 22.53C79.2914 22.3633 79.3714 22.16 79.438 21.92H80.378C80.2247 22.6933 79.928 23.2467 79.488 23.58C79.0547 23.9067 78.4914 24.07 77.798 24.07ZM83.7769 17H86.0969C86.9235 17 87.5702 17.2533 88.0369 17.76C88.5035 18.26 88.7369 19.03 88.7369 20.07V20.87C88.7369 21.9433 88.5035 22.7333 88.0369 23.24C87.5702 23.7467 86.9235 24 86.0969 24H83.7769V17ZM86.0969 23.18C86.6369 23.18 87.0569 23.0033 87.3569 22.65C87.6569 22.2967 87.8069 21.7033 87.8069 20.87V20.07C87.8069 19.2633 87.6569 18.6867 87.3569 18.34C87.0569 17.9933 86.6369 17.82 86.0969 17.82H84.7169V23.18H86.0969ZM94.3608 24.07C93.9408 24.07 93.5774 24.0233 93.2708 23.93C92.9641 23.83 92.7108 23.6933 92.5108 23.52C92.3108 23.3467 92.1574 23.1433 92.0508 22.91C91.9441 22.6767 91.8808 22.4233 91.8608 22.15H92.8108C92.8308 22.31 92.8708 22.4567 92.9308 22.59C92.9974 22.7233 93.0908 22.84 93.2108 22.94C93.3308 23.0333 93.4841 23.1067 93.6708 23.16C93.8574 23.2133 94.0874 23.24 94.3608 23.24C94.9141 23.24 95.3108 23.14 95.5508 22.94C95.7974 22.7333 95.9208 22.4767 95.9208 22.17C95.9208 21.9833 95.8941 21.8233 95.8408 21.69C95.7874 21.55 95.6941 21.4267 95.5608 21.32C95.4274 21.2133 95.2474 21.12 95.0208 21.04C94.8008 20.9533 94.5174 20.8733 94.1708 20.8C93.8574 20.7333 93.5708 20.6467 93.3108 20.54C93.0508 20.4267 92.8274 20.29 92.6408 20.13C92.4541 19.97 92.3074 19.7767 92.2008 19.55C92.1008 19.3233 92.0508 19.0533 92.0508 18.74C92.0508 18.4867 92.0974 18.25 92.1908 18.03C92.2908 17.81 92.4374 17.62 92.6308 17.46C92.8241 17.2933 93.0641 17.1633 93.3508 17.07C93.6441 16.9767 93.9808 16.93 94.3608 16.93C94.7474 16.93 95.0841 16.9767 95.3708 17.07C95.6574 17.1633 95.8941 17.2933 96.0808 17.46C96.2741 17.62 96.4208 17.8133 96.5208 18.04C96.6274 18.2667 96.6908 18.51 96.7108 18.77H95.7708C95.7508 18.6233 95.7108 18.49 95.6508 18.37C95.5974 18.2433 95.5141 18.1367 95.4008 18.05C95.2941 17.9567 95.1541 17.8867 94.9808 17.84C94.8141 17.7867 94.6074 17.76 94.3608 17.76C93.8808 17.76 93.5308 17.8533 93.3108 18.04C93.0974 18.2267 92.9908 18.46 92.9908 18.74C92.9908 18.92 93.0174 19.0767 93.0708 19.21C93.1241 19.3367 93.2141 19.45 93.3408 19.55C93.4674 19.65 93.6308 19.7367 93.8308 19.81C94.0308 19.8833 94.2774 19.95 94.5708 20.01C94.9374 20.09 95.2641 20.19 95.5508 20.31C95.8374 20.4233 96.0774 20.5633 96.2708 20.73C96.4641 20.8967 96.6108 21.1 96.7108 21.34C96.8108 21.5733 96.8608 21.85 96.8608 22.17C96.8608 22.4367 96.8074 22.6867 96.7008 22.92C96.6008 23.1533 96.4441 23.3567 96.2308 23.53C96.0241 23.6967 95.7641 23.83 95.4508 23.93C95.1441 24.0233 94.7808 24.07 94.3608 24.07Z" fill="#549FEA"/>
<path d="M12 40C12 37.7909 13.7909 36 16 36H156C158.209 36 160 37.7909 160 40V74C160 76.2091 158.209 78 156 78H16C13.7909 78 12 76.2091 12 74V40Z" fill="#E6F2FF"/>
<path d="M59.2209 53.6H60.3969L63.0609 58.808L65.7249 53.6H66.8289V62H65.7249V55.616L63.4449 60.116H62.6049L60.3249 55.616V62H59.2209V53.6ZM69.1819 53.6H70.3099V61.016H74.3179V62H69.1819V53.6ZM78.6623 53.6H83.8103V54.584H79.7903V57.188H83.4263V58.172H79.7903V61.016H83.8103V62H78.6623V53.6ZM85.2887 55.64H86.2367V56.696C86.3727 56.384 86.6047 56.116 86.9327 55.892C87.2607 55.668 87.6567 55.556 88.1207 55.556C88.7607 55.556 89.2687 55.76 89.6447 56.168C90.0207 56.576 90.2087 57.192 90.2087 58.016V62H89.1407V58.076C89.1407 57.532 89.0247 57.132 88.7927 56.876C88.5607 56.62 88.2327 56.492 87.8087 56.492C87.6087 56.492 87.4207 56.532 87.2447 56.612C87.0687 56.692 86.9127 56.804 86.7767 56.948C86.6487 57.084 86.5447 57.248 86.4647 57.44C86.3927 57.632 86.3567 57.844 86.3567 58.076V62H85.2887V55.64ZM93.9729 62.06C93.6369 62.06 93.3249 62 93.0369 61.88C92.7569 61.76 92.5129 61.58 92.3049 61.34C92.1049 61.1 91.9489 60.804 91.8369 60.452C91.7249 60.1 91.6689 59.688 91.6689 59.216V58.304C91.6689 57.864 91.7249 57.472 91.8369 57.128C91.9489 56.784 92.1049 56.5 92.3049 56.276C92.5129 56.044 92.7569 55.868 93.0369 55.748C93.3249 55.628 93.6369 55.568 93.9729 55.568C94.4289 55.568 94.8089 55.668 95.1129 55.868C95.4249 56.068 95.6729 56.344 95.8569 56.696V55.64H96.8049V62C96.8049 62.832 96.5929 63.452 96.1689 63.86C95.7529 64.276 95.0929 64.484 94.1889 64.484C93.8049 64.484 93.4729 64.44 93.1929 64.352C92.9129 64.272 92.6769 64.156 92.4849 64.004C92.2929 63.852 92.1409 63.672 92.0289 63.464C91.9169 63.256 91.8409 63.032 91.8009 62.792H92.8449C92.9249 63 93.0609 63.18 93.2529 63.332C93.4529 63.492 93.7649 63.572 94.1889 63.572C94.7329 63.572 95.1249 63.448 95.3649 63.2C95.6129 62.952 95.7369 62.552 95.7369 62V61.016C95.5849 61.32 95.3609 61.572 95.0649 61.772C94.7769 61.964 94.4129 62.06 93.9729 62.06ZM94.1889 61.148C94.6689 61.148 95.0449 60.996 95.3169 60.692C95.5969 60.38 95.7369 59.888 95.7369 59.216V58.304C95.7369 57.704 95.5969 57.256 95.3169 56.96C95.0449 56.656 94.6689 56.504 94.1889 56.504C93.7569 56.504 93.4049 56.656 93.1329 56.96C92.8609 57.256 92.7249 57.704 92.7249 58.304V59.216C92.7249 59.888 92.8609 60.38 93.1329 60.692C93.4049 60.996 93.7569 61.148 94.1889 61.148ZM98.8532 55.64H99.9092V62H98.8532V55.64ZM99.3812 54.932C99.1812 54.932 99.0092 54.86 98.8652 54.716C98.7212 54.572 98.6492 54.4 98.6492 54.2C98.6492 54 98.7212 53.828 98.8652 53.684C99.0092 53.54 99.1812 53.468 99.3812 53.468C99.5812 53.468 99.7532 53.54 99.8972 53.684C100.041 53.828 100.113 54 100.113 54.2C100.113 54.4 100.041 54.572 99.8972 54.716C99.7532 54.86 99.5812 54.932 99.3812 54.932ZM101.964 55.64H102.912V56.696C103.048 56.384 103.28 56.116 103.608 55.892C103.936 55.668 104.332 55.556 104.796 55.556C105.436 55.556 105.944 55.76 106.32 56.168C106.696 56.576 106.884 57.192 106.884 58.016V62H105.816V58.076C105.816 57.532 105.7 57.132 105.468 56.876C105.236 56.62 104.908 56.492 104.484 56.492C104.284 56.492 104.096 56.532 103.92 56.612C103.744 56.692 103.588 56.804 103.452 56.948C103.324 57.084 103.22 57.248 103.14 57.44C103.068 57.632 103.032 57.844 103.032 58.076V62H101.964V55.64ZM110.901 62.084C110.517 62.084 110.165 62.024 109.845 61.904C109.533 61.776 109.265 61.592 109.041 61.352C108.825 61.104 108.653 60.804 108.525 60.452C108.405 60.092 108.345 59.68 108.345 59.216V58.304C108.345 57.408 108.565 56.728 109.005 56.264C109.453 55.792 110.065 55.556 110.841 55.556C111.617 55.556 112.225 55.792 112.665 56.264C113.113 56.728 113.337 57.416 113.337 58.328V59.132H109.401C109.409 59.86 109.545 60.384 109.809 60.704C110.081 61.016 110.445 61.172 110.901 61.172C111.101 61.172 111.273 61.148 111.417 61.1C111.569 61.044 111.693 60.972 111.789 60.884C111.893 60.796 111.973 60.696 112.029 60.584C112.085 60.472 112.125 60.356 112.149 60.236H113.217C113.089 60.86 112.829 61.324 112.437 61.628C112.045 61.932 111.533 62.084 110.901 62.084ZM110.853 56.468C110.397 56.468 110.041 56.608 109.785 56.888C109.537 57.16 109.409 57.62 109.401 58.268H112.341C112.325 57.62 112.189 57.16 111.933 56.888C111.685 56.608 111.325 56.468 110.853 56.468Z" fill="#525263"/>
<path d="M12 90C12 87.7909 13.7909 86 16 86H156C158.209 86 160 87.7909 160 90V172C160 174.209 158.209 176 156 176H16C13.7909 176 12 174.209 12 172V90Z" fill="#E6F2FF"/>
<path d="M50.4142 136.084C49.9102 136.084 49.4742 136.028 49.1062 135.916C48.7382 135.796 48.4342 135.632 48.1942 135.424C47.9542 135.216 47.7702 134.972 47.6422 134.692C47.5142 134.412 47.4382 134.108 47.4142 133.78H48.5542C48.5782 133.972 48.6262 134.148 48.6982 134.308C48.7782 134.468 48.8902 134.608 49.0342 134.728C49.1782 134.84 49.3622 134.928 49.5862 134.992C49.8102 135.056 50.0862 135.088 50.4142 135.088C51.0782 135.088 51.5542 134.968 51.8422 134.728C52.1382 134.48 52.2862 134.172 52.2862 133.804C52.2862 133.58 52.2542 133.388 52.1902 133.228C52.1262 133.06 52.0142 132.912 51.8542 132.784C51.6942 132.656 51.4782 132.544 51.2062 132.448C50.9422 132.344 50.6022 132.248 50.1862 132.16C49.8102 132.08 49.4662 131.976 49.1542 131.848C48.8422 131.712 48.5742 131.548 48.3502 131.356C48.1262 131.164 47.9502 130.932 47.8222 130.66C47.7022 130.388 47.6422 130.064 47.6422 129.688C47.6422 129.384 47.6982 129.1 47.8102 128.836C47.9302 128.572 48.1062 128.344 48.3382 128.152C48.5702 127.952 48.8582 127.796 49.2022 127.684C49.5542 127.572 49.9582 127.516 50.4142 127.516C50.8782 127.516 51.2822 127.572 51.6262 127.684C51.9702 127.796 52.2542 127.952 52.4782 128.152C52.7102 128.344 52.8862 128.576 53.0062 128.848C53.1342 129.12 53.2102 129.412 53.2342 129.724H52.1062C52.0822 129.548 52.0342 129.388 51.9622 129.244C51.8982 129.092 51.7982 128.964 51.6622 128.86C51.5342 128.748 51.3662 128.664 51.1582 128.608C50.9582 128.544 50.7102 128.512 50.4142 128.512C49.8382 128.512 49.4182 128.624 49.1542 128.848C48.8982 129.072 48.7702 129.352 48.7702 129.688C48.7702 129.904 48.8022 130.092 48.8662 130.252C48.9302 130.404 49.0382 130.54 49.1902 130.66C49.3422 130.78 49.5382 130.884 49.7782 130.972C50.0182 131.06 50.3142 131.14 50.6662 131.212C51.1062 131.308 51.4982 131.428 51.8422 131.572C52.1862 131.708 52.4742 131.876 52.7062 132.076C52.9382 132.276 53.1142 132.52 53.2342 132.808C53.3542 133.088 53.4142 133.42 53.4142 133.804C53.4142 134.124 53.3502 134.424 53.2222 134.704C53.1022 134.984 52.9142 135.228 52.6582 135.436C52.4102 135.636 52.0982 135.796 51.7222 135.916C51.3542 136.028 50.9182 136.084 50.4142 136.084ZM55.0836 129.64H56.0316V130.696C56.1676 130.384 56.3956 130.116 56.7156 129.892C57.0356 129.668 57.3956 129.556 57.7956 129.556C58.1796 129.556 58.5276 129.656 58.8396 129.856C59.1596 130.056 59.3876 130.332 59.5236 130.684C59.7236 130.34 59.9876 130.068 60.3156 129.868C60.6436 129.66 61.0116 129.556 61.4196 129.556C61.6996 129.556 61.9596 129.608 62.1996 129.712C62.4396 129.816 62.6436 129.972 62.8116 130.18C62.9876 130.38 63.1236 130.636 63.2196 130.948C63.3156 131.252 63.3636 131.608 63.3636 132.016V136H62.2956V132.076C62.2956 131.532 62.1836 131.132 61.9596 130.876C61.7436 130.62 61.4596 130.492 61.1076 130.492C60.9316 130.492 60.7596 130.532 60.5916 130.612C60.4316 130.692 60.2876 130.804 60.1596 130.948C60.0396 131.084 59.9396 131.248 59.8596 131.44C59.7876 131.632 59.7516 131.844 59.7516 132.076V136H58.6956V132.076C58.6956 131.532 58.5836 131.132 58.3596 130.876C58.1356 130.62 57.8476 130.492 57.4956 130.492C57.3196 130.492 57.1516 130.532 56.9916 130.612C56.8316 130.692 56.6876 130.804 56.5596 130.948C56.4396 131.084 56.3396 131.248 56.2596 131.44C56.1876 131.632 56.1516 131.844 56.1516 132.076V136H55.0836V129.64ZM66.5671 136.072C65.9831 136.072 65.5271 135.912 65.1991 135.592C64.8711 135.264 64.7071 134.808 64.7071 134.224C64.7071 133.608 64.8831 133.14 65.2351 132.82C65.5871 132.492 66.1511 132.328 66.9271 132.328H68.4391V131.716C68.4391 131.284 68.3391 130.972 68.1391 130.78C67.9471 130.58 67.6471 130.48 67.2391 130.48C67.0311 130.48 66.8551 130.504 66.7111 130.552C66.5671 130.592 66.4511 130.652 66.3631 130.732C66.2751 130.804 66.2071 130.888 66.1591 130.984C66.1111 131.08 66.0831 131.176 66.0751 131.272H65.0431C65.0671 131.024 65.1231 130.796 65.2111 130.588C65.2991 130.38 65.4311 130.2 65.6071 130.048C65.7831 129.896 66.0031 129.776 66.2671 129.688C66.5391 129.6 66.8671 129.556 67.2511 129.556C68.0191 129.556 68.5831 129.736 68.9431 130.096C69.3031 130.448 69.4831 130.988 69.4831 131.716V136H68.5591V134.944C68.4791 135.08 68.3871 135.216 68.2831 135.352C68.1791 135.488 68.0471 135.612 67.8871 135.724C67.7351 135.828 67.5511 135.912 67.3351 135.976C67.1191 136.04 66.8631 136.072 66.5671 136.072ZM66.8671 135.16C67.3471 135.16 67.7271 135.02 68.0071 134.74C68.2951 134.452 68.4391 134.064 68.4391 133.576V133.192H66.9751C66.5191 133.192 66.1991 133.276 66.0151 133.444C65.8391 133.604 65.7511 133.86 65.7511 134.212C65.7511 134.492 65.8431 134.72 66.0271 134.896C66.2111 135.072 66.4911 135.16 66.8671 135.16ZM71.3163 129.64H72.2643V130.696C72.4003 130.384 72.6323 130.116 72.9603 129.892C73.2963 129.668 73.6923 129.556 74.1483 129.556C74.2363 129.556 74.3163 129.56 74.3883 129.568C74.4603 129.576 74.5283 129.584 74.5923 129.592C74.6643 129.6 74.7283 129.608 74.7843 129.616V130.624C74.7043 130.608 74.6163 130.592 74.5203 130.576C74.4323 130.56 74.3323 130.548 74.2203 130.54C74.1163 130.524 74.0043 130.516 73.8843 130.516C73.4363 130.516 73.0723 130.656 72.7923 130.936C72.5203 131.216 72.3843 131.596 72.3843 132.076V136H71.3163V129.64ZM78.3898 136C77.6858 136 77.1858 135.852 76.8898 135.556C76.5938 135.252 76.4458 134.74 76.4458 134.02V130.576H75.5578V129.64H76.4458V128.2H77.5138V129.64H78.8218V130.576H77.5138V134.02C77.5138 134.436 77.5818 134.716 77.7178 134.86C77.8538 135.004 78.0898 135.076 78.4258 135.076H78.8218V136H78.3898ZM85.6541 136.084C84.8541 136.084 84.2181 135.84 83.7461 135.352C83.2741 134.856 83.0381 134.144 83.0381 133.216V132.304C83.0381 131.872 83.0981 131.488 83.2181 131.152C83.3461 130.808 83.5221 130.52 83.7461 130.288C83.9781 130.048 84.2541 129.868 84.5741 129.748C84.8941 129.62 85.2541 129.556 85.6541 129.556C86.0541 129.556 86.4141 129.62 86.7341 129.748C87.0541 129.868 87.3261 130.048 87.5501 130.288C87.7821 130.52 87.9581 130.808 88.0781 131.152C88.2061 131.488 88.2701 131.872 88.2701 132.304V133.216C88.2701 134.144 88.0341 134.856 87.5621 135.352C87.0901 135.84 86.4541 136.084 85.6541 136.084ZM85.6541 135.148C86.1341 135.148 86.5141 134.996 86.7941 134.692C87.0741 134.38 87.2141 133.888 87.2141 133.216V132.304C87.2141 131.696 87.0741 131.244 86.7941 130.948C86.5141 130.644 86.1341 130.492 85.6541 130.492C85.1741 130.492 84.7941 130.644 84.5141 130.948C84.2341 131.244 84.0941 131.696 84.0941 132.304V133.216C84.0941 133.888 84.2341 134.38 84.5141 134.692C84.7941 134.996 85.1741 135.148 85.6541 135.148ZM89.7945 129.64H90.7425V130.696C90.8785 130.384 91.1105 130.116 91.4385 129.892C91.7665 129.668 92.1625 129.556 92.6265 129.556C93.2665 129.556 93.7745 129.76 94.1505 130.168C94.5265 130.576 94.7145 131.192 94.7145 132.016V136H93.6465V132.076C93.6465 131.532 93.5305 131.132 93.2985 130.876C93.0665 130.62 92.7385 130.492 92.3145 130.492C92.1145 130.492 91.9265 130.532 91.7505 130.612C91.5745 130.692 91.4185 130.804 91.2825 130.948C91.1545 131.084 91.0505 131.248 90.9705 131.44C90.8985 131.632 90.8625 131.844 90.8625 132.076V136H89.7945V129.64ZM99.7268 127.6H104.887V128.584H100.855V131.308H104.503V132.292H100.855V136H99.7268V127.6ZM106.512 127.6H107.64V131.188H111.432V127.6H112.56V136H111.432V132.172H107.64V136H106.512V127.6ZM115.034 127.6H116.162V136H115.034V127.6ZM118.629 127.6H121.557C122.037 127.6 122.461 127.664 122.829 127.792C123.205 127.912 123.517 128.084 123.765 128.308C124.021 128.532 124.213 128.796 124.341 129.1C124.469 129.404 124.533 129.74 124.533 130.108C124.533 130.644 124.397 131.112 124.125 131.512C123.861 131.912 123.469 132.208 122.949 132.4L124.773 136H123.537L121.869 132.616H119.757V136H118.629V127.6ZM121.557 131.632C122.181 131.632 122.645 131.492 122.949 131.212C123.253 130.932 123.405 130.564 123.405 130.108C123.405 129.652 123.253 129.284 122.949 129.004C122.645 128.724 122.181 128.584 121.557 128.584H119.757V131.632H121.557Z" fill="#525263"/>
<path d="M433.953 265.588C433.953 265.312 433.729 265.088 433.453 265.088C433.177 265.088 432.953 265.312 432.953 265.588H433.953ZM432.953 241.838C432.953 242.114 433.177 242.338 433.453 242.338C433.729 242.338 433.953 242.114 433.953 241.838H432.953ZM433.807 178.646C433.611 178.451 433.295 178.451 433.1 178.646L429.918 181.828C429.722 182.024 429.722 182.34 429.918 182.536C430.113 182.731 430.429 182.731 430.625 182.536L433.453 179.707L436.282 182.536C436.477 182.731 436.793 182.731 436.989 182.536C437.184 182.34 437.184 182.024 436.989 181.828L433.807 178.646ZM433.453 324.218H433.953V265.588H433.453H432.953V324.218H433.453ZM433.453 241.838H433.953V179H433.453H432.953V241.838H433.453Z" fill="#353B50"/>
<path d="M359.34 250.213H363.64V251.033H360.28V253.303H363.32V254.123H360.28V257.213H359.34V250.213ZM364.995 250.213H365.935V253.203H369.095V250.213H370.035V257.213H369.095V254.023H365.935V257.213H364.995V250.213ZM372.097 250.213H373.037V257.213H372.097V250.213ZM375.092 250.213H377.532C377.932 250.213 378.286 250.266 378.592 250.373C378.906 250.473 379.166 250.616 379.372 250.803C379.586 250.99 379.746 251.21 379.852 251.463C379.959 251.716 380.012 251.996 380.012 252.303C380.012 252.75 379.899 253.14 379.672 253.473C379.452 253.806 379.126 254.053 378.692 254.213L380.212 257.213H379.182L377.792 254.393H376.032V257.213H375.092V250.213ZM377.532 253.573C378.052 253.573 378.439 253.456 378.692 253.223C378.946 252.99 379.072 252.683 379.072 252.303C379.072 251.923 378.946 251.616 378.692 251.383C378.439 251.15 378.052 251.033 377.532 251.033H376.032V253.573H377.532ZM385.886 250.213H386.856L389.406 257.213H388.386L387.756 255.473H384.936L384.306 257.213H383.326L385.886 250.213ZM387.466 254.653L386.346 251.403L385.226 254.653H387.466ZM390.6 250.213H392.96C393.807 250.213 394.443 250.416 394.87 250.823C395.303 251.223 395.52 251.763 395.52 252.443C395.52 253.13 395.307 253.673 394.88 254.073C394.453 254.473 393.813 254.673 392.96 254.673H391.54V257.213H390.6V250.213ZM392.96 253.863C393.527 253.863 393.937 253.743 394.19 253.503C394.45 253.256 394.58 252.903 394.58 252.443C394.58 251.99 394.45 251.643 394.19 251.403C393.937 251.156 393.527 251.033 392.96 251.033H391.54V253.863H392.96ZM397.097 250.213H398.037V257.213H397.097V250.213ZM400.062 257.213V256.113H401.162V257.213L400.262 258.763H399.742L400.062 257.213ZM405.59 250.213H406.53V253.203H409.69V250.213H410.63V257.213H409.69V254.023H406.53V257.213H405.59V250.213ZM412.592 250.213H413.532V256.393H416.872V257.213H412.592V250.213ZM420.933 251.033H417.633V250.213H421.893V250.913L419.643 257.213H418.653L420.933 251.033ZM425.221 250.213H426.241L428.361 256.013L430.321 250.213H431.301L428.851 257.213H427.881L425.221 250.213ZM432.085 256.463L434.635 253.683C434.915 253.37 435.131 253.103 435.285 252.883C435.445 252.663 435.525 252.426 435.525 252.173C435.525 251.806 435.415 251.513 435.195 251.293C434.975 251.073 434.681 250.963 434.315 250.963C433.948 250.963 433.655 251.073 433.435 251.293C433.215 251.513 433.105 251.806 433.105 252.173H432.185C432.185 251.893 432.238 251.63 432.345 251.383C432.451 251.136 432.598 250.923 432.785 250.743C432.978 250.556 433.205 250.41 433.465 250.303C433.725 250.196 434.008 250.143 434.315 250.143C434.621 250.143 434.905 250.196 435.165 250.303C435.425 250.41 435.648 250.556 435.835 250.743C436.028 250.923 436.178 251.136 436.285 251.383C436.391 251.63 436.445 251.893 436.445 252.173C436.445 252.353 436.411 252.53 436.345 252.703C436.285 252.876 436.201 253.05 436.095 253.223C435.988 253.39 435.861 253.56 435.715 253.733C435.568 253.9 435.415 254.073 435.255 254.253L433.265 256.393H436.445V257.213H432.085V256.463ZM437.963 257.213V256.113H439.063V257.213L438.163 258.763H437.643L437.963 257.213ZM445.811 257.283C445.397 257.283 445.027 257.22 444.701 257.093C444.374 256.966 444.097 256.77 443.871 256.503C443.644 256.236 443.471 255.896 443.351 255.483C443.231 255.07 443.171 254.576 443.171 254.003V253.203C443.171 252.17 443.404 251.403 443.871 250.903C444.337 250.396 444.984 250.143 445.811 250.143C446.537 250.143 447.114 250.313 447.541 250.653C447.974 250.993 448.257 251.53 448.391 252.263H447.451C447.324 251.79 447.131 251.456 446.871 251.263C446.611 251.07 446.257 250.973 445.811 250.973C445.271 250.973 444.851 251.146 444.551 251.493C444.251 251.833 444.101 252.403 444.101 253.203V254.003C444.101 254.456 444.137 254.84 444.211 255.153C444.291 255.466 444.404 255.72 444.551 255.913C444.697 256.106 444.874 256.246 445.081 256.333C445.294 256.413 445.537 256.453 445.811 256.453C446.044 256.453 446.247 256.43 446.421 256.383C446.601 256.33 446.754 256.253 446.881 256.153C447.014 256.046 447.124 255.91 447.211 255.743C447.304 255.576 447.384 255.373 447.451 255.133H448.391C448.237 255.906 447.941 256.46 447.501 256.793C447.067 257.12 446.504 257.283 445.811 257.283ZM452.012 257.283C451.599 257.283 451.229 257.22 450.902 257.093C450.575 256.966 450.299 256.77 450.072 256.503C449.845 256.236 449.672 255.896 449.552 255.483C449.432 255.07 449.372 254.576 449.372 254.003V253.203C449.372 252.17 449.605 251.403 450.072 250.903C450.539 250.396 451.185 250.143 452.012 250.143C452.739 250.143 453.315 250.313 453.742 250.653C454.175 250.993 454.459 251.53 454.592 252.263H453.652C453.525 251.79 453.332 251.456 453.072 251.263C452.812 251.07 452.459 250.973 452.012 250.973C451.472 250.973 451.052 251.146 450.752 251.493C450.452 251.833 450.302 252.403 450.302 253.203V254.003C450.302 254.456 450.339 254.84 450.412 255.153C450.492 255.466 450.605 255.72 450.752 255.913C450.899 256.106 451.075 256.246 451.282 256.333C451.495 256.413 451.739 256.453 452.012 256.453C452.245 256.453 452.449 256.43 452.622 256.383C452.802 256.33 452.955 256.253 453.082 256.153C453.215 256.046 453.325 255.91 453.412 255.743C453.505 255.576 453.585 255.373 453.652 255.133H454.592C454.439 255.906 454.142 256.46 453.702 256.793C453.269 257.12 452.705 257.283 452.012 257.283ZM455.991 250.213H458.311C459.137 250.213 459.784 250.466 460.251 250.973C460.717 251.473 460.951 252.243 460.951 253.283V254.083C460.951 255.156 460.717 255.946 460.251 256.453C459.784 256.96 459.137 257.213 458.311 257.213H455.991V250.213ZM458.311 256.393C458.851 256.393 459.271 256.216 459.571 255.863C459.871 255.51 460.021 254.916 460.021 254.083V253.283C460.021 252.476 459.871 251.9 459.571 251.553C459.271 251.206 458.851 251.033 458.311 251.033H456.931V256.393H458.311ZM464.07 250.213H465.04L467.59 257.213H466.57L465.94 255.473H463.12L462.49 257.213H461.51L464.07 250.213ZM465.65 254.653L464.53 251.403L463.41 254.653H465.65ZM468.754 257.213V256.113H469.854V257.213L468.954 258.763H468.434L468.754 257.213ZM475.882 253.543L473.852 250.213H474.892L476.462 252.783L478.052 250.213H479.052L477.032 253.523L479.252 257.213H478.192L476.442 254.273L474.672 257.213H473.652L475.882 253.543ZM480.511 256.393H482.191V251.243L480.521 252.453V251.423L482.191 250.213H483.131V256.393H484.511V257.213H480.511V256.393ZM485.669 256.463L488.219 253.683C488.499 253.37 488.715 253.103 488.869 252.883C489.029 252.663 489.109 252.426 489.109 252.173C489.109 251.806 488.999 251.513 488.779 251.293C488.559 251.073 488.265 250.963 487.899 250.963C487.532 250.963 487.239 251.073 487.019 251.293C486.799 251.513 486.689 251.806 486.689 252.173H485.769C485.769 251.893 485.822 251.63 485.929 251.383C486.035 251.136 486.182 250.923 486.369 250.743C486.562 250.556 486.789 250.41 487.049 250.303C487.309 250.196 487.592 250.143 487.899 250.143C488.205 250.143 488.489 250.196 488.749 250.303C489.009 250.41 489.232 250.556 489.419 250.743C489.612 250.923 489.762 251.136 489.869 251.383C489.975 251.63 490.029 251.893 490.029 252.173C490.029 252.353 489.995 252.53 489.929 252.703C489.869 252.876 489.785 253.05 489.679 253.223C489.572 253.39 489.445 253.56 489.299 253.733C489.152 253.9 488.999 254.073 488.839 254.253L486.849 256.393H490.029V257.213H485.669V256.463ZM494.077 250.213H498.367V251.033H495.017V253.203H498.047V254.023H495.017V256.393H498.367V257.213H494.077V250.213ZM499.829 250.213H502.149C502.975 250.213 503.622 250.466 504.089 250.973C504.555 251.473 504.789 252.243 504.789 253.283V254.083C504.789 255.156 504.555 255.946 504.089 256.453C503.622 256.96 502.975 257.213 502.149 257.213H499.829V250.213ZM502.149 256.393C502.689 256.393 503.109 256.216 503.409 255.863C503.709 255.51 503.859 254.916 503.859 254.083V253.283C503.859 252.476 503.709 251.9 503.409 251.553C503.109 251.206 502.689 251.033 502.149 251.033H500.769V256.393H502.149ZM506.53 250.213H507.47V257.213H506.53V250.213Z" fill="#353B50"/>
<path d="M281.094 94C280.818 94 280.594 94.2239 280.594 94.5C280.594 94.7761 280.818 95 281.094 95V94ZM201.344 95C201.62 95 201.844 94.7761 201.844 94.5C201.844 94.2239 201.62 94 201.344 94V95ZM174.646 94.1464C174.451 94.3417 174.451 94.6583 174.646 94.8536L177.828 98.0355C178.024 98.2308 178.34 98.2308 178.536 98.0355C178.731 97.8403 178.731 97.5237 178.536 97.3284L175.707 94.5L178.536 91.6716C178.731 91.4763 178.731 91.1597 178.536 90.9645C178.34 90.7692 178.024 90.7692 177.828 90.9645L174.646 94.1464ZM309 94.5V94H281.094V94.5V95H309V94.5ZM201.344 94.5V94H175V94.5V95H201.344V94.5Z" fill="#353B50"/>
<path d="M206.923 91H211.223V91.82H207.863V94.09H210.903V94.91H207.863V98H206.923V91ZM213.078 91H214.018V93.99H217.178V91H218.118V98H217.178V94.81H214.018V98H213.078V91ZM220.68 91H221.62V98H220.68V91ZM224.175 91H226.615C227.015 91 227.369 91.0533 227.675 91.16C227.989 91.26 228.249 91.4033 228.455 91.59C228.669 91.7767 228.829 91.9967 228.935 92.25C229.042 92.5033 229.095 92.7833 229.095 93.09C229.095 93.5367 228.982 93.9267 228.755 94.26C228.535 94.5933 228.209 94.84 227.775 95L229.295 98H228.265L226.875 95.18H225.115V98H224.175V91ZM226.615 94.36C227.135 94.36 227.522 94.2433 227.775 94.01C228.029 93.7767 228.155 93.47 228.155 93.09C228.155 92.71 228.029 92.4033 227.775 92.17C227.522 91.9367 227.135 91.82 226.615 91.82H225.115V94.36H226.615ZM235.969 91H236.939L239.489 98H238.469L237.839 96.26H235.019L234.389 98H233.409L235.969 91ZM237.549 95.44L236.429 92.19L235.309 95.44H237.549ZM241.183 91H243.543C244.39 91 245.026 91.2033 245.453 91.61C245.886 92.01 246.103 92.55 246.103 93.23C246.103 93.9167 245.89 94.46 245.463 94.86C245.036 95.26 244.396 95.46 243.543 95.46H242.123V98H241.183V91ZM243.543 94.65C244.11 94.65 244.52 94.53 244.773 94.29C245.033 94.0433 245.163 93.69 245.163 93.23C245.163 92.7767 245.033 92.43 244.773 92.19C244.52 91.9433 244.11 91.82 243.543 91.82H242.123V94.65H243.543ZM248.18 91H249.12V98H248.18V91ZM251.645 98V96.9H252.745V98L251.845 99.55H251.325L251.645 98ZM260.253 98.07C259.833 98.07 259.47 98.0233 259.163 97.93C258.857 97.83 258.603 97.6933 258.403 97.52C258.203 97.3467 258.05 97.1433 257.943 96.91C257.837 96.6767 257.773 96.4233 257.753 96.15H258.703C258.723 96.31 258.763 96.4567 258.823 96.59C258.89 96.7233 258.983 96.84 259.103 96.94C259.223 97.0333 259.377 97.1067 259.563 97.16C259.75 97.2133 259.98 97.24 260.253 97.24C260.807 97.24 261.203 97.14 261.443 96.94C261.69 96.7333 261.813 96.4767 261.813 96.17C261.813 95.9833 261.787 95.8233 261.733 95.69C261.68 95.55 261.587 95.4267 261.453 95.32C261.32 95.2133 261.14 95.12 260.913 95.04C260.693 94.9533 260.41 94.8733 260.063 94.8C259.75 94.7333 259.463 94.6467 259.203 94.54C258.943 94.4267 258.72 94.29 258.533 94.13C258.347 93.97 258.2 93.7767 258.093 93.55C257.993 93.3233 257.943 93.0533 257.943 92.74C257.943 92.4867 257.99 92.25 258.083 92.03C258.183 91.81 258.33 91.62 258.523 91.46C258.717 91.2933 258.957 91.1633 259.243 91.07C259.537 90.9767 259.873 90.93 260.253 90.93C260.64 90.93 260.977 90.9767 261.263 91.07C261.55 91.1633 261.787 91.2933 261.973 91.46C262.167 91.62 262.313 91.8133 262.413 92.04C262.52 92.2667 262.583 92.51 262.603 92.77H261.663C261.643 92.6233 261.603 92.49 261.543 92.37C261.49 92.2433 261.407 92.1367 261.293 92.05C261.187 91.9567 261.047 91.8867 260.873 91.84C260.707 91.7867 260.5 91.76 260.253 91.76C259.773 91.76 259.423 91.8533 259.203 92.04C258.99 92.2267 258.883 92.46 258.883 92.74C258.883 92.92 258.91 93.0767 258.963 93.21C259.017 93.3367 259.107 93.45 259.233 93.55C259.36 93.65 259.523 93.7367 259.723 93.81C259.923 93.8833 260.17 93.95 260.463 94.01C260.83 94.09 261.157 94.19 261.443 94.31C261.73 94.4233 261.97 94.5633 262.163 94.73C262.357 94.8967 262.503 95.1 262.603 95.34C262.703 95.5733 262.753 95.85 262.753 96.17C262.753 96.4367 262.7 96.6867 262.593 96.92C262.493 97.1533 262.337 97.3567 262.123 97.53C261.917 97.6967 261.657 97.83 261.343 97.93C261.037 98.0233 260.673 98.07 260.253 98.07ZM268.845 97.56C268.631 97.7333 268.385 97.8633 268.105 97.95C267.831 98.03 267.528 98.07 267.195 98.07C266.781 98.07 266.411 98.0067 266.085 97.88C265.758 97.7533 265.481 97.5567 265.255 97.29C265.028 97.0233 264.855 96.6867 264.735 96.28C264.615 95.8667 264.555 95.3733 264.555 94.8V94C264.555 92.9667 264.788 92.1967 265.255 91.69C265.721 91.1833 266.368 90.93 267.195 90.93C268.021 90.93 268.668 91.1833 269.135 91.69C269.601 92.1967 269.835 92.9667 269.835 94V94.8C269.835 95.26 269.795 95.67 269.715 96.03C269.641 96.3833 269.531 96.6867 269.385 96.94L270.185 97.75L269.615 98.32L268.845 97.56ZM267.195 97.24C267.615 97.24 267.955 97.13 268.215 96.91L267.155 95.85L267.725 95.28L268.685 96.25C268.758 96.07 268.811 95.86 268.845 95.62C268.885 95.38 268.905 95.1067 268.905 94.8V94C268.905 93.1933 268.755 92.62 268.455 92.28C268.155 91.9333 267.735 91.76 267.195 91.76C266.655 91.76 266.235 91.9333 265.935 92.28C265.635 92.62 265.485 93.1933 265.485 94V94.8C265.485 95.2533 265.521 95.6367 265.595 95.95C265.675 96.2567 265.788 96.5067 265.935 96.7C266.081 96.8933 266.258 97.0333 266.465 97.12C266.678 97.2 266.921 97.24 267.195 97.24ZM272.074 91H273.014V97.18H276.354V98H272.074V91Z" fill="#353B50"/>
<path d="M220.918 53H221.888L224.438 60H223.418L222.788 58.26H219.968L219.338 60H218.358L220.918 53ZM222.498 57.44L221.378 54.19L220.258 57.44H222.498ZM227.802 60.07C227.482 60.07 227.189 60.02 226.922 59.92C226.662 59.8133 226.439 59.66 226.252 59.46C226.072 59.2533 225.929 59.0033 225.822 58.71C225.722 58.41 225.672 58.0667 225.672 57.68V56.92C225.672 56.56 225.722 56.24 225.822 55.96C225.929 55.6733 226.072 55.4333 226.252 55.24C226.439 55.04 226.662 54.89 226.922 54.79C227.189 54.6833 227.482 54.63 227.802 54.63C228.069 54.63 228.319 54.6667 228.552 54.74C228.792 54.8133 229.002 54.92 229.182 55.06C229.362 55.2 229.509 55.37 229.622 55.57C229.736 55.7633 229.806 55.98 229.832 56.22H228.942C228.889 56 228.772 55.81 228.592 55.65C228.412 55.49 228.149 55.41 227.802 55.41C227.422 55.41 227.119 55.5367 226.892 55.79C226.666 56.0367 226.552 56.4133 226.552 56.92V57.68C226.552 58.2467 226.666 58.6567 226.892 58.91C227.119 59.1633 227.422 59.29 227.802 59.29C228.149 59.29 228.412 59.2067 228.592 59.04C228.772 58.8733 228.886 58.6867 228.932 58.48H229.832C229.712 59.0067 229.479 59.4033 229.132 59.67C228.792 59.9367 228.349 60.07 227.802 60.07ZM233.302 60.07C232.982 60.07 232.689 60.02 232.422 59.92C232.162 59.8133 231.939 59.66 231.752 59.46C231.572 59.2533 231.429 59.0033 231.322 58.71C231.222 58.41 231.172 58.0667 231.172 57.68V56.92C231.172 56.56 231.222 56.24 231.322 55.96C231.429 55.6733 231.572 55.4333 231.752 55.24C231.939 55.04 232.162 54.89 232.422 54.79C232.689 54.6833 232.982 54.63 233.302 54.63C233.569 54.63 233.819 54.6667 234.052 54.74C234.292 54.8133 234.502 54.92 234.682 55.06C234.862 55.2 235.009 55.37 235.122 55.57C235.236 55.7633 235.306 55.98 235.332 56.22H234.442C234.389 56 234.272 55.81 234.092 55.65C233.912 55.49 233.649 55.41 233.302 55.41C232.922 55.41 232.619 55.5367 232.392 55.79C232.166 56.0367 232.052 56.4133 232.052 56.92V57.68C232.052 58.2467 232.166 58.6567 232.392 58.91C232.619 59.1633 232.922 59.29 233.302 59.29C233.649 59.29 233.912 59.2067 234.092 59.04C234.272 58.8733 234.386 58.6867 234.432 58.48H235.332C235.212 59.0067 234.979 59.4033 234.632 59.67C234.292 59.9367 233.849 60.07 233.302 60.07ZM238.802 60.07C238.482 60.07 238.189 60.02 237.922 59.92C237.662 59.8133 237.439 59.66 237.252 59.46C237.072 59.2533 236.929 59.0033 236.822 58.71C236.722 58.41 236.672 58.0667 236.672 57.68V56.92C236.672 56.1733 236.856 55.6067 237.222 55.22C237.596 54.8267 238.106 54.63 238.752 54.63C239.399 54.63 239.906 54.8267 240.272 55.22C240.646 55.6067 240.832 56.18 240.832 56.94V57.61H237.552C237.559 58.2167 237.672 58.6533 237.892 58.92C238.119 59.18 238.422 59.31 238.802 59.31C238.969 59.31 239.112 59.29 239.232 59.25C239.359 59.2033 239.462 59.1433 239.542 59.07C239.629 58.9967 239.696 58.9133 239.742 58.82C239.789 58.7267 239.822 58.63 239.842 58.53H240.732C240.626 59.05 240.409 59.4367 240.082 59.69C239.756 59.9433 239.329 60.07 238.802 60.07ZM238.762 55.39C238.382 55.39 238.086 55.5067 237.872 55.74C237.666 55.9667 237.559 56.35 237.552 56.89H240.002C239.989 56.35 239.876 55.9667 239.662 55.74C239.456 55.5067 239.156 55.39 238.762 55.39ZM244.348 60.07C243.994 60.07 243.691 60.0333 243.438 59.96C243.191 59.88 242.984 59.7733 242.818 59.64C242.658 59.5 242.538 59.3367 242.458 59.15C242.378 58.9633 242.331 58.7567 242.318 58.53H243.208C243.221 58.65 243.248 58.7567 243.288 58.85C243.334 58.9433 243.401 59.0267 243.488 59.1C243.574 59.1667 243.688 59.22 243.828 59.26C243.968 59.2933 244.141 59.31 244.348 59.31C244.781 59.31 245.081 59.2433 245.248 59.11C245.421 58.97 245.508 58.7867 245.508 58.56C245.508 58.4667 245.494 58.38 245.468 58.3C245.441 58.2133 245.381 58.1333 245.288 58.06C245.201 57.9867 245.071 57.92 244.898 57.86C244.724 57.7933 244.494 57.7333 244.208 57.68C243.621 57.5667 243.181 57.3967 242.888 57.17C242.601 56.9367 242.458 56.59 242.458 56.13C242.458 55.69 242.611 55.33 242.918 55.05C243.231 54.77 243.708 54.63 244.348 54.63C244.988 54.63 245.454 54.77 245.748 55.05C246.048 55.33 246.211 55.69 246.238 56.13H245.348C245.321 55.8967 245.238 55.7167 245.098 55.59C244.958 55.4567 244.708 55.39 244.348 55.39C243.974 55.39 243.711 55.4533 243.558 55.58C243.411 55.7067 243.338 55.8833 243.338 56.11C243.338 56.21 243.351 56.3 243.378 56.38C243.404 56.46 243.458 56.5333 243.538 56.6C243.624 56.66 243.744 56.7167 243.898 56.77C244.051 56.8233 244.254 56.8733 244.508 56.92C244.834 56.98 245.114 57.0533 245.348 57.14C245.588 57.22 245.781 57.3233 245.928 57.45C246.081 57.5767 246.194 57.73 246.268 57.91C246.341 58.0833 246.378 58.29 246.378 58.53C246.378 58.9833 246.214 59.3533 245.888 59.64C245.561 59.9267 245.048 60.07 244.348 60.07ZM249.848 60.07C249.494 60.07 249.191 60.0333 248.938 59.96C248.691 59.88 248.484 59.7733 248.318 59.64C248.158 59.5 248.038 59.3367 247.958 59.15C247.878 58.9633 247.831 58.7567 247.818 58.53H248.708C248.721 58.65 248.748 58.7567 248.788 58.85C248.834 58.9433 248.901 59.0267 248.988 59.1C249.074 59.1667 249.188 59.22 249.328 59.26C249.468 59.2933 249.641 59.31 249.848 59.31C250.281 59.31 250.581 59.2433 250.748 59.11C250.921 58.97 251.008 58.7867 251.008 58.56C251.008 58.4667 250.994 58.38 250.968 58.3C250.941 58.2133 250.881 58.1333 250.788 58.06C250.701 57.9867 250.571 57.92 250.398 57.86C250.224 57.7933 249.994 57.7333 249.708 57.68C249.121 57.5667 248.681 57.3967 248.388 57.17C248.101 56.9367 247.958 56.59 247.958 56.13C247.958 55.69 248.111 55.33 248.418 55.05C248.731 54.77 249.208 54.63 249.848 54.63C250.488 54.63 250.954 54.77 251.248 55.05C251.548 55.33 251.711 55.69 251.738 56.13H250.848C250.821 55.8967 250.738 55.7167 250.598 55.59C250.458 55.4567 250.208 55.39 249.848 55.39C249.474 55.39 249.211 55.4533 249.058 55.58C248.911 55.7067 248.838 55.8833 248.838 56.11C248.838 56.21 248.851 56.3 248.878 56.38C248.904 56.46 248.958 56.5333 249.038 56.6C249.124 56.66 249.244 56.7167 249.398 56.77C249.551 56.8233 249.754 56.8733 250.008 56.92C250.334 56.98 250.614 57.0533 250.848 57.14C251.088 57.22 251.281 57.3233 251.428 57.45C251.581 57.5767 251.694 57.73 251.768 57.91C251.841 58.0833 251.878 58.29 251.878 58.53C251.878 58.9833 251.714 59.3533 251.388 59.64C251.061 59.9267 250.548 60.07 249.848 60.07ZM258.598 60C258.011 60 257.594 59.8767 257.348 59.63C257.101 59.3767 256.978 58.95 256.978 58.35V55.48H256.238V54.7H256.978V53.5H257.868V54.7H258.958V55.48H257.868V58.35C257.868 58.6967 257.924 58.93 258.038 59.05C258.151 59.17 258.348 59.23 258.628 59.23H258.958V60H258.598ZM262.651 60.07C261.985 60.07 261.455 59.8667 261.061 59.46C260.668 59.0467 260.471 58.4533 260.471 57.68V56.92C260.471 56.56 260.521 56.24 260.621 55.96C260.728 55.6733 260.875 55.4333 261.061 55.24C261.255 55.04 261.485 54.89 261.751 54.79C262.018 54.6833 262.318 54.63 262.651 54.63C262.985 54.63 263.285 54.6833 263.551 54.79C263.818 54.89 264.045 55.04 264.231 55.24C264.425 55.4333 264.571 55.6733 264.671 55.96C264.778 56.24 264.831 56.56 264.831 56.92V57.68C264.831 58.4533 264.635 59.0467 264.241 59.46C263.848 59.8667 263.318 60.07 262.651 60.07ZM262.651 59.29C263.051 59.29 263.368 59.1633 263.601 58.91C263.835 58.65 263.951 58.24 263.951 57.68V56.92C263.951 56.4133 263.835 56.0367 263.601 55.79C263.368 55.5367 263.051 55.41 262.651 55.41C262.251 55.41 261.935 55.5367 261.701 55.79C261.468 56.0367 261.351 56.4133 261.351 56.92V57.68C261.351 58.24 261.468 58.65 261.701 58.91C261.935 59.1633 262.251 59.29 262.651 59.29ZM203.508 69.7H204.298V70.58C204.411 70.32 204.604 70.0967 204.878 69.91C205.151 69.7233 205.481 69.63 205.868 69.63C206.401 69.63 206.824 69.8 207.138 70.14C207.451 70.48 207.608 70.9933 207.608 71.68V75H206.718V71.73C206.718 71.2767 206.621 70.9433 206.428 70.73C206.234 70.5167 205.961 70.41 205.608 70.41C205.441 70.41 205.284 70.4433 205.138 70.51C204.991 70.5767 204.861 70.67 204.748 70.79C204.641 70.9033 204.554 71.04 204.488 71.2C204.428 71.36 204.398 71.5367 204.398 71.73V75H203.508V69.7ZM211.505 75.07C210.838 75.07 210.308 74.8667 209.915 74.46C209.521 74.0467 209.325 73.4533 209.325 72.68V71.92C209.325 71.56 209.375 71.24 209.475 70.96C209.581 70.6733 209.728 70.4333 209.915 70.24C210.108 70.04 210.338 69.89 210.605 69.79C210.871 69.6833 211.171 69.63 211.505 69.63C211.838 69.63 212.138 69.6833 212.405 69.79C212.671 69.89 212.898 70.04 213.085 70.24C213.278 70.4333 213.425 70.6733 213.525 70.96C213.631 71.24 213.685 71.56 213.685 71.92V72.68C213.685 73.4533 213.488 74.0467 213.095 74.46C212.701 74.8667 212.171 75.07 211.505 75.07ZM211.505 74.29C211.905 74.29 212.221 74.1633 212.455 73.91C212.688 73.65 212.805 73.24 212.805 72.68V71.92C212.805 71.4133 212.688 71.0367 212.455 70.79C212.221 70.5367 211.905 70.41 211.505 70.41C211.105 70.41 210.788 70.5367 210.555 70.79C210.321 71.0367 210.205 71.4133 210.205 71.92V72.68C210.205 73.24 210.321 73.65 210.555 73.91C210.788 74.1633 211.105 74.29 211.505 74.29ZM215.535 69.7H216.325V70.58C216.438 70.32 216.632 70.0967 216.905 69.91C217.185 69.7233 217.515 69.63 217.895 69.63C217.968 69.63 218.035 69.6333 218.095 69.64C218.155 69.6467 218.212 69.6533 218.265 69.66C218.325 69.6667 218.378 69.6733 218.425 69.68V70.52C218.358 70.5067 218.285 70.4933 218.205 70.48C218.132 70.4667 218.048 70.4567 217.955 70.45C217.868 70.4367 217.775 70.43 217.675 70.43C217.302 70.43 216.998 70.5467 216.765 70.78C216.538 71.0133 216.425 71.33 216.425 71.73V75H215.535V69.7ZM219.852 69.7H220.642V70.58C220.755 70.32 220.945 70.0967 221.212 69.91C221.478 69.7233 221.778 69.63 222.112 69.63C222.432 69.63 222.722 69.7133 222.982 69.88C223.248 70.0467 223.438 70.2767 223.552 70.57C223.718 70.2833 223.938 70.0567 224.212 69.89C224.485 69.7167 224.792 69.63 225.132 69.63C225.365 69.63 225.582 69.6733 225.782 69.76C225.982 69.8467 226.152 69.9767 226.292 70.15C226.438 70.3167 226.552 70.53 226.632 70.79C226.712 71.0433 226.752 71.34 226.752 71.68V75H225.862V71.73C225.862 71.2767 225.768 70.9433 225.582 70.73C225.402 70.5167 225.165 70.41 224.872 70.41C224.725 70.41 224.582 70.4433 224.442 70.51C224.308 70.5767 224.188 70.67 224.082 70.79C223.982 70.9033 223.898 71.04 223.832 71.2C223.772 71.36 223.742 71.5367 223.742 71.73V75H222.862V71.73C222.862 71.2767 222.768 70.9433 222.582 70.73C222.395 70.5167 222.155 70.41 221.862 70.41C221.715 70.41 221.575 70.4433 221.442 70.51C221.308 70.5767 221.188 70.67 221.082 70.79C220.982 70.9033 220.898 71.04 220.832 71.2C220.772 71.36 220.742 71.5367 220.742 71.73V75H219.852V69.7ZM229.921 75.06C229.435 75.06 229.055 74.9267 228.781 74.66C228.508 74.3867 228.371 74.0067 228.371 73.52C228.371 73.0067 228.518 72.6167 228.811 72.35C229.105 72.0767 229.575 71.94 230.221 71.94H231.481V71.43C231.481 71.07 231.398 70.81 231.231 70.65C231.071 70.4833 230.821 70.4 230.481 70.4C230.308 70.4 230.161 70.42 230.041 70.46C229.921 70.4933 229.825 70.5433 229.751 70.61C229.678 70.67 229.621 70.74 229.581 70.82C229.541 70.9 229.518 70.98 229.511 71.06H228.651C228.671 70.8533 228.718 70.6633 228.791 70.49C228.865 70.3167 228.975 70.1667 229.121 70.04C229.268 69.9133 229.451 69.8133 229.671 69.74C229.898 69.6667 230.171 69.63 230.491 69.63C231.131 69.63 231.601 69.78 231.901 70.08C232.201 70.3733 232.351 70.8233 232.351 71.43V75H231.581V74.12C231.515 74.2333 231.438 74.3467 231.351 74.46C231.265 74.5733 231.155 74.6767 231.021 74.77C230.895 74.8567 230.741 74.9267 230.561 74.98C230.381 75.0333 230.168 75.06 229.921 75.06ZM230.171 74.3C230.571 74.3 230.888 74.1833 231.121 73.95C231.361 73.71 231.481 73.3867 231.481 72.98V72.66H230.261C229.881 72.66 229.615 72.73 229.461 72.87C229.315 73.0033 229.241 73.2167 229.241 73.51C229.241 73.7433 229.318 73.9333 229.471 74.08C229.625 74.2267 229.858 74.3 230.171 74.3ZM235.999 75C235.419 75 235.005 74.8767 234.759 74.63C234.512 74.3767 234.389 73.95 234.389 73.35V68H235.279V73.35C235.279 73.6967 235.332 73.93 235.439 74.05C235.552 74.17 235.749 74.23 236.029 74.23H236.229V75H235.999ZM238.007 69.7H238.887V75H238.007V69.7ZM238.447 69.11C238.28 69.11 238.137 69.05 238.017 68.93C237.897 68.81 237.837 68.6667 237.837 68.5C237.837 68.3333 237.897 68.19 238.017 68.07C238.137 67.95 238.28 67.89 238.447 67.89C238.614 67.89 238.757 67.95 238.877 68.07C238.997 68.19 239.057 68.3333 239.057 68.5C239.057 68.6667 238.997 68.81 238.877 68.93C238.757 69.05 238.614 69.11 238.447 69.11ZM240.82 74.28L243.71 70.47H240.92V69.7H244.68V70.42L241.81 74.23H244.68V75H240.82V74.28ZM248.304 75.07C247.984 75.07 247.691 75.02 247.424 74.92C247.164 74.8133 246.941 74.66 246.754 74.46C246.574 74.2533 246.431 74.0033 246.324 73.71C246.224 73.41 246.174 73.0667 246.174 72.68V71.92C246.174 71.1733 246.358 70.6067 246.724 70.22C247.098 69.8267 247.608 69.63 248.254 69.63C248.901 69.63 249.408 69.8267 249.774 70.22C250.148 70.6067 250.334 71.18 250.334 71.94V72.61H247.054C247.061 73.2167 247.174 73.6533 247.394 73.92C247.621 74.18 247.924 74.31 248.304 74.31C248.471 74.31 248.614 74.29 248.734 74.25C248.861 74.2033 248.964 74.1433 249.044 74.07C249.131 73.9967 249.198 73.9133 249.244 73.82C249.291 73.7267 249.324 73.63 249.344 73.53H250.234C250.128 74.05 249.911 74.4367 249.584 74.69C249.258 74.9433 248.831 75.07 248.304 75.07ZM248.264 70.39C247.884 70.39 247.588 70.5067 247.374 70.74C247.168 70.9667 247.061 71.35 247.054 71.89H249.504C249.491 71.35 249.378 70.9667 249.164 70.74C248.958 70.5067 248.658 70.39 248.264 70.39ZM253.79 75.06C253.51 75.06 253.25 75.01 253.01 74.91C252.776 74.81 252.573 74.66 252.4 74.46C252.233 74.26 252.103 74.0133 252.01 73.72C251.916 73.42 251.87 73.0733 251.87 72.68V71.92C251.87 71.5533 251.916 71.2267 252.01 70.94C252.103 70.6533 252.233 70.4133 252.4 70.22C252.573 70.0267 252.776 69.88 253.01 69.78C253.25 69.68 253.51 69.63 253.79 69.63C254.156 69.63 254.46 69.7133 254.7 69.88C254.946 70.0467 255.133 70.26 255.26 70.52V68H256.15V75H255.36V74.12C255.206 74.4133 255 74.6433 254.74 74.81C254.486 74.9767 254.17 75.06 253.79 75.06ZM253.97 74.28C254.37 74.28 254.683 74.1533 254.91 73.9C255.143 73.64 255.26 73.2333 255.26 72.68V71.92C255.26 71.4133 255.143 71.0367 254.91 70.79C254.683 70.5367 254.37 70.41 253.97 70.41C253.61 70.41 253.316 70.5367 253.09 70.79C252.863 71.0367 252.75 71.4133 252.75 71.92V72.68C252.75 73.2333 252.863 73.64 253.09 73.9C253.316 74.1533 253.61 74.28 253.97 74.28ZM262.836 75.06C262.556 75.06 262.296 75.01 262.056 74.91C261.823 74.81 261.62 74.66 261.446 74.46C261.28 74.26 261.15 74.0133 261.056 73.72C260.963 73.42 260.916 73.0733 260.916 72.68V71.92C260.916 71.5533 260.963 71.2267 261.056 70.94C261.15 70.6533 261.28 70.4133 261.446 70.22C261.62 70.0267 261.823 69.88 262.056 69.78C262.296 69.68 262.556 69.63 262.836 69.63C263.203 69.63 263.506 69.7133 263.746 69.88C263.993 70.0467 264.18 70.26 264.306 70.52V68H265.196V75H264.406V74.12C264.253 74.4133 264.046 74.6433 263.786 74.81C263.533 74.9767 263.216 75.06 262.836 75.06ZM263.016 74.28C263.416 74.28 263.73 74.1533 263.956 73.9C264.19 73.64 264.306 73.2333 264.306 72.68V71.92C264.306 71.4133 264.19 71.0367 263.956 70.79C263.73 70.5367 263.416 70.41 263.016 70.41C262.656 70.41 262.363 70.5367 262.136 70.79C261.91 71.0367 261.796 71.4133 261.796 71.92V72.68C261.796 73.2333 261.91 73.64 262.136 73.9C262.363 74.1533 262.656 74.28 263.016 74.28ZM268.413 75.06C267.927 75.06 267.547 74.9267 267.273 74.66C267 74.3867 266.863 74.0067 266.863 73.52C266.863 73.0067 267.01 72.6167 267.303 72.35C267.597 72.0767 268.067 71.94 268.713 71.94H269.973V71.43C269.973 71.07 269.89 70.81 269.723 70.65C269.563 70.4833 269.313 70.4 268.973 70.4C268.8 70.4 268.653 70.42 268.533 70.46C268.413 70.4933 268.317 70.5433 268.243 70.61C268.17 70.67 268.113 70.74 268.073 70.82C268.033 70.9 268.01 70.98 268.003 71.06H267.143C267.163 70.8533 267.21 70.6633 267.283 70.49C267.357 70.3167 267.467 70.1667 267.613 70.04C267.76 69.9133 267.943 69.8133 268.163 69.74C268.39 69.6667 268.663 69.63 268.983 69.63C269.623 69.63 270.093 69.78 270.393 70.08C270.693 70.3733 270.843 70.8233 270.843 71.43V75H270.073V74.12C270.007 74.2333 269.93 74.3467 269.843 74.46C269.757 74.5733 269.647 74.6767 269.513 74.77C269.387 74.8567 269.233 74.9267 269.053 74.98C268.873 75.0333 268.66 75.06 268.413 75.06ZM268.663 74.3C269.063 74.3 269.38 74.1833 269.613 73.95C269.853 73.71 269.973 73.3867 269.973 72.98V72.66H268.753C268.373 72.66 268.107 72.73 267.953 72.87C267.807 73.0033 267.733 73.2167 267.733 73.51C267.733 73.7433 267.81 73.9333 267.963 74.08C268.117 74.2267 268.35 74.3 268.663 74.3ZM274.791 75C274.204 75 273.788 74.8767 273.541 74.63C273.294 74.3767 273.171 73.95 273.171 73.35V70.48H272.431V69.7H273.171V68.5H274.061V69.7H275.151V70.48H274.061V73.35C274.061 73.6967 274.118 73.93 274.231 74.05C274.344 74.17 274.541 74.23 274.821 74.23H275.151V75H274.791ZM278.115 75.06C277.628 75.06 277.248 74.9267 276.975 74.66C276.701 74.3867 276.565 74.0067 276.565 73.52C276.565 73.0067 276.711 72.6167 277.005 72.35C277.298 72.0767 277.768 71.94 278.415 71.94H279.675V71.43C279.675 71.07 279.591 70.81 279.425 70.65C279.265 70.4833 279.015 70.4 278.675 70.4C278.501 70.4 278.355 70.42 278.235 70.46C278.115 70.4933 278.018 70.5433 277.945 70.61C277.871 70.67 277.815 70.74 277.775 70.82C277.735 70.9 277.711 70.98 277.705 71.06H276.845C276.865 70.8533 276.911 70.6633 276.985 70.49C277.058 70.3167 277.168 70.1667 277.315 70.04C277.461 69.9133 277.645 69.8133 277.865 69.74C278.091 69.6667 278.365 69.63 278.685 69.63C279.325 69.63 279.795 69.78 280.095 70.08C280.395 70.3733 280.545 70.8233 280.545 71.43V75H279.775V74.12C279.708 74.2333 279.631 74.3467 279.545 74.46C279.458 74.5733 279.348 74.6767 279.215 74.77C279.088 74.8567 278.935 74.9267 278.755 74.98C278.575 75.0333 278.361 75.06 278.115 75.06ZM278.365 74.3C278.765 74.3 279.081 74.1833 279.315 73.95C279.555 73.71 279.675 73.3867 279.675 72.98V72.66H278.455C278.075 72.66 277.808 72.73 277.655 72.87C277.508 73.0033 277.435 73.2167 277.435 73.51C277.435 73.7433 277.511 73.9333 277.665 74.08C277.818 74.2267 278.051 74.3 278.365 74.3Z" fill="#353B50"/>
<path d="M85.9511 321.676C86.1464 321.871 86.463 321.871 86.6582 321.676L89.8402 318.494C90.0355 318.299 90.0355 317.982 89.8402 317.787C89.645 317.592 89.3284 317.592 89.1331 317.787L86.3047 320.615L83.4763 317.787C83.281 317.592 82.9644 317.592 82.7692 317.787C82.5739 317.982 82.5739 318.299 82.7692 318.494L85.9511 321.676ZM86.3047 191H85.8047V321.323H86.3047H86.8047V191H86.3047Z" fill="#353B50"/>
<path d="M488.5 111.211C488.5 111.487 488.724 111.711 489 111.711C489.276 111.711 489.5 111.487 489.5 111.211L488.5 111.211ZM489.354 99.4316C489.158 99.2363 488.842 99.2363 488.646 99.4316L485.464 102.614C485.269 102.809 485.269 103.125 485.464 103.321C485.66 103.516 485.976 103.516 486.172 103.321L489 100.492L491.828 103.321C492.024 103.516 492.34 103.516 492.536 103.321C492.731 103.125 492.731 102.809 492.536 102.614L489.354 99.4316ZM489 111.211L489.5 111.211L489.5 99.7852L489 99.7852L488.5 99.7852L488.5 111.211L489 111.211Z" fill="#EA4A35"/>
</svg>
