<svg width="81" height="81" viewBox="0 0 81 81" fill="none" xmlns="http://www.w3.org/2000/svg">
<path d="M56.293 22.7432H24.293C22.0838 22.7432 20.293 24.534 20.293 26.7432V46.7432C20.293 48.9523 22.0838 50.7432 24.293 50.7432H56.293C58.5021 50.7432 60.293 48.9523 60.293 46.7432V26.7432C60.293 24.534 58.5021 22.7432 56.293 22.7432Z" stroke="#262626" stroke-width="3" stroke-linecap="round" stroke-linejoin="round"/>
<path d="M48.293 36.7432H45.093L41.893 44.7432L38.693 28.7432L35.493 36.7432H32.293" stroke="#262626" stroke-width="3" stroke-linecap="round" stroke-linejoin="round"/>
<path d="M32.293 58.7432H48.293" stroke="#262626" stroke-width="3" stroke-linecap="round" stroke-linejoin="round"/>
<path d="M40.293 50.7432V58.7432" stroke="#262626" stroke-width="3" stroke-linecap="round" stroke-linejoin="round"/>
<path d="M51.1208 3.57735C51.7396 3.22009 52.502 3.22008 53.1208 3.57735L71.188 14.0084C71.8068 14.3657 72.188 15.026 72.188 15.7405V36.6027C72.188 37.3172 71.8068 37.9774 71.188 38.3347L53.1208 48.7658C52.502 49.1231 51.7396 49.1231 51.1208 48.7658L33.0536 38.3347C32.4348 37.9774 32.0536 37.3172 32.0536 36.6027V15.7405C32.0536 15.026 32.4348 14.3657 33.0536 14.0084L51.1208 3.57735Z" fill="#EA4A35" fill-opacity="0.2"/>
</svg>
