<svg width="81" height="81" viewBox="0 0 81 81" fill="none" xmlns="http://www.w3.org/2000/svg">
<path d="M40.6797 30.7432C43.4411 30.7432 45.6797 28.5046 45.6797 25.7432C45.6797 22.9817 43.4411 20.7432 40.6797 20.7432C37.9183 20.7432 35.6797 22.9817 35.6797 25.7432C35.6797 28.5046 37.9183 30.7432 40.6797 30.7432Z" stroke="#262626" stroke-width="3" stroke-linecap="round" stroke-linejoin="round"/>
<path d="M37.0793 29.3431L29.2793 37.1431" stroke="#262626" stroke-width="3" stroke-linecap="round" stroke-linejoin="round"/>
<path d="M25.6797 45.7432C28.4411 45.7432 30.6797 43.5046 30.6797 40.7432C30.6797 37.9817 28.4411 35.7432 25.6797 35.7432C22.9183 35.7432 20.6797 37.9817 20.6797 40.7432C20.6797 43.5046 22.9183 45.7432 25.6797 45.7432Z" stroke="#262626" stroke-width="3" stroke-linecap="round" stroke-linejoin="round"/>
<path d="M30.6797 40.7432H50.6797" stroke="#262626" stroke-width="3" stroke-linecap="round" stroke-linejoin="round"/>
<path d="M55.6797 45.7432C58.4411 45.7432 60.6797 43.5046 60.6797 40.7432C60.6797 37.9817 58.4411 35.7432 55.6797 35.7432C52.9183 35.7432 50.6797 37.9817 50.6797 40.7432C50.6797 43.5046 52.9183 45.7432 55.6797 45.7432Z" stroke="#262626" stroke-width="3" stroke-linecap="round" stroke-linejoin="round"/>
<path d="M44.2793 52.1431L52.0793 44.3431" stroke="#262626" stroke-width="3" stroke-linecap="round" stroke-linejoin="round"/>
<path d="M40.6797 60.7432C43.4411 60.7432 45.6797 58.5046 45.6797 55.7432C45.6797 52.9817 43.4411 50.7432 40.6797 50.7432C37.9183 50.7432 35.6797 52.9817 35.6797 55.7432C35.6797 58.5046 37.9183 60.7432 40.6797 60.7432Z" stroke="#262626" stroke-width="3" stroke-linecap="round" stroke-linejoin="round"/>
<path d="M51.5075 3.57735C52.1263 3.22009 52.8887 3.22008 53.5075 3.57735L71.5747 14.0084C72.1935 14.3657 72.5747 15.026 72.5747 15.7405V36.6027C72.5747 37.3172 72.1935 37.9774 71.5747 38.3347L53.5075 48.7658C52.8887 49.1231 52.1263 49.1231 51.5075 48.7658L33.4403 38.3347C32.8215 37.9774 32.4403 37.3172 32.4403 36.6027V15.7405C32.4403 15.026 32.8215 14.3657 33.4403 14.0084L51.5075 3.57735Z" fill="#EA4A35" fill-opacity="0.2"/>
</svg>
