<svg width="63" height="65" viewBox="0 0 63 65" fill="none" xmlns="http://www.w3.org/2000/svg">
<path d="M49.8769 48.5003C52.3136 48.5003 54.6504 47.517 56.3734 45.7666C58.0964 44.0163 59.0644 41.6423 59.0644 39.167C59.0644 36.6916 58.0964 34.3177 56.3734 32.5673C54.6504 30.817 52.3136 29.8336 49.8769 29.8336H47.2519C48.294 25.119 46.5038 20.2523 42.5584 17.0683C38.613 13.8843 33.1084 12.8683 28.1209 14.4016C23.1334 15.935 19.419 19.7856 18.3769 24.5003C12.6045 24.2656 7.47001 28.0363 6.12863 33.495C4.78726 38.9536 7.60913 44.5723 12.8644 46.9003" stroke="#353B50" stroke-width="2" stroke-linecap="round" stroke-linejoin="round"/>
<path d="M26.25 40.5007V35.1673C26.25 33.7528 26.8031 32.3963 27.7877 31.3961C28.7723 30.3959 30.1076 29.834 31.5 29.834C32.8924 29.834 34.2277 30.3959 35.2123 31.3961C36.1969 32.3963 36.75 33.7528 36.75 35.1673V40.5007M21 43.1673C21 42.4601 21.2766 41.7818 21.7688 41.2817C22.2611 40.7816 22.9288 40.5007 23.625 40.5007H39.375C40.0712 40.5007 40.7389 40.7816 41.2312 41.2817C41.7234 41.7818 42 42.4601 42 43.1673V51.1673C42 51.8746 41.7234 52.5528 41.2312 53.0529C40.7389 53.553 40.0712 53.834 39.375 53.834H23.625C22.9288 53.834 22.2611 53.553 21.7688 53.0529C21.2766 52.5528 21 51.8746 21 51.1673V43.1673Z" stroke="#353B50" stroke-width="2" stroke-linecap="round" stroke-linejoin="round"/>
</svg>
