<svg width="64" height="64" viewBox="0 0 64 64" fill="none" xmlns="http://www.w3.org/2000/svg">
<path d="M53.3315 39.875V32M10.6648 39.875V18.875C10.6648 13.9242 10.6648 11.4515 12.2275 9.91325C13.7902 8.375 16.3022 8.375 21.3315 8.375H30.6648M9.32617 42.5394L10.7182 39.875H53.2035L54.6702 42.5394C58.5182 49.5271 59.4782 53.021 58.0142 55.6355C56.5502 58.25 52.6755 58.25 44.9208 58.25H19.0755C11.3182 58.25 7.44084 58.25 5.97951 55.6355C4.51551 53.021 5.47551 49.5271 9.32617 42.5394ZM34.6648 18.0009C34.6648 21.3819 37.3502 24.125 40.6648 24.125H53.2648C56.2462 24.125 58.6648 21.6575 58.6648 18.6125C58.6648 15.5675 56.2462 13.1 53.2648 13.1C53.2115 13.1 53.2648 5.75 46.6648 5.75C43.2142 5.75 40.3795 8.45375 40.0888 11.903C37.0462 12.1996 34.6648 14.8167 34.6648 18.0009Z" stroke="#353B50" stroke-width="2" stroke-linecap="round" stroke-linejoin="round"/>
</svg>
