<svg width="64" height="65" viewBox="0 0 64 65" fill="none" xmlns="http://www.w3.org/2000/svg">
<path d="M16.8853 6.5H47.1172C48.3381 6.50035 49.5088 6.98557 50.3719 7.84895C51.235 8.71233 51.7199 9.88317 51.7199 11.104V15.4693C51.7196 16.6899 51.2345 17.8604 50.3714 18.7235C49.5083 19.5866 48.3378 20.0716 47.1172 20.072H16.8853C15.6644 20.072 14.4936 19.5871 13.6302 18.724C12.7668 17.8609 12.2816 16.6902 12.2812 15.4693V11.104C12.2812 9.88294 12.7663 8.7119 13.6297 7.84848C14.4931 6.98506 15.6642 6.5 16.8853 6.5Z" stroke="#353B50" stroke-width="2" stroke-linecap="round" stroke-linejoin="round"/>
<path d="M19.1835 15.3357C20.316 15.3357 21.2341 14.4176 21.2341 13.285C21.2341 12.1525 20.316 11.2344 19.1835 11.2344C18.0509 11.2344 17.1328 12.1525 17.1328 13.285C17.1328 14.4176 18.0509 15.3357 19.1835 15.3357Z" stroke="#353B50" stroke-width="2" stroke-linecap="round" stroke-linejoin="round"/>
<path d="M27.5026 15.4525C28.6992 15.4525 29.6693 14.4824 29.6693 13.2858C29.6693 12.0892 28.6992 11.1191 27.5026 11.1191C26.306 11.1191 25.3359 12.0892 25.3359 13.2858C25.3359 14.4824 26.306 15.4525 27.5026 15.4525Z" stroke="#353B50" stroke-width="2" stroke-linecap="round" stroke-linejoin="round"/>
<path d="M16.8853 26.1543H47.1172C48.3381 26.1547 49.5088 26.6399 50.3719 27.5033C51.235 28.3666 51.7199 29.5375 51.7199 30.7583V35.1236C51.7196 36.3442 51.2345 37.5147 50.3714 38.3778C49.5083 39.2409 48.3378 39.7259 47.1172 39.7263H16.8853C15.6644 39.7263 14.4936 39.2414 13.6302 38.3783C12.7668 37.5152 12.2816 36.3445 12.2812 35.1236V30.7583C12.2812 29.5372 12.7663 28.3662 13.6297 27.5028C14.4931 26.6394 15.6642 26.1543 16.8853 26.1543Z" stroke="#353B50" stroke-width="2" stroke-linecap="round" stroke-linejoin="round"/>
<path d="M19.1835 34.99C20.316 34.99 21.2341 34.0719 21.2341 32.9393C21.2341 31.8068 20.316 30.8887 19.1835 30.8887C18.0509 30.8887 17.1328 31.8068 17.1328 32.9393C17.1328 34.0719 18.0509 34.99 19.1835 34.99Z" stroke="#353B50" stroke-width="2" stroke-linecap="round" stroke-linejoin="round"/>
<path d="M27.5038 34.99C28.6363 34.99 29.5545 34.0719 29.5545 32.9393C29.5545 31.8068 28.6363 30.8887 27.5038 30.8887C26.3712 30.8887 25.4531 31.8068 25.4531 32.9393C25.4531 34.0719 26.3712 34.99 27.5038 34.99Z" stroke="#353B50" stroke-width="2" stroke-linecap="round" stroke-linejoin="round"/>
<path d="M17.0781 26.1542V20.0742M46.9221 26.1542V20.0742" stroke="#353B50" stroke-width="2" stroke-linecap="round" stroke-linejoin="round"/>
<path d="M31.9998 58.4996C35.0631 58.4996 37.5465 56.0163 37.5465 52.9529C37.5465 49.8896 35.0631 47.4062 31.9998 47.4062C28.9365 47.4062 26.4531 49.8896 26.4531 52.9529C26.4531 56.0163 28.9365 58.4996 31.9998 58.4996Z" stroke="#353B50" stroke-width="2" stroke-linecap="round" stroke-linejoin="round"/>
<path d="M32.0015 39.7266V47.4066M37.5482 52.9532L51.9562 52.8252M26.4549 52.8266L12.0469 52.9546" stroke="#353B50" stroke-width="2" stroke-linecap="round" stroke-linejoin="round"/>
</svg>
