<svg width="1046" height="1198" viewBox="0 0 1046 1198" fill="none" xmlns="http://www.w3.org/2000/svg">
<path d="M725.064 928.847L723.697 1084.31L556.692 1187.1C535.886 1199.91 509.785 1200.47 488.448 1188.57L320.025 1094.64L318.423 936.27L490.727 1032.53C512.073 1044.45 538.2 1043.9 559.021 1031.08L725.064 928.847ZM259.492 146.27L258.109 305.313L164.896 363.104C145.046 375.41 132.971 397.105 132.971 420.459V785.536C132.971 809.096 145.259 830.951 165.389 843.194L252.963 896.455L251.597 1053.02L32.4151 919.703C12.2866 907.46 0 885.606 0 862.047V344.705C0 321.35 12.0761 299.655 31.9262 287.349L259.492 146.27ZM782.948 157.304L1012.98 293.918C1033.45 306.078 1046 328.128 1046 351.941V862.041C1046 886.326 1032.95 908.738 1011.83 920.727L791.906 1045.58L790.354 891.765L878.839 841.541C899.96 829.552 913.011 807.138 913.011 782.852V429.368C913.011 405.558 900.463 383.51 879.992 371.349L784.534 314.643L782.948 157.304ZM557.065 11.2155L732.048 127.071L730.698 282.672L558.54 168.534C536.832 154.142 508.779 153.527 486.461 166.953L311.725 272.077L310.139 114.874L485.02 9.65871C507.326 -3.76091 535.36 -3.1551 557.065 11.2155Z" fill="#3E3E3E"/>
<path d="M427.502 753.356L440.085 727.091H613.702L647.767 810.848H786.7L587.652 338.461H462.747L263.7 810.848H336.212C375.17 810.848 410.671 788.49 427.502 753.356ZM584.248 625.267H479.634L531.941 489.056L584.248 625.267Z" fill="#EA4A35"/>
<path d="M341.24 810.848H263.7L462.747 338.461H587.652L436.089 744.984C421.323 784.587 383.506 810.848 341.24 810.848Z" fill="#C62712"/>
</svg>
