<svg width="75" height="32" viewBox="0 0 75 32" fill="none" xmlns="http://www.w3.org/2000/svg">
<rect width="75" height="32" rx="4" fill="#D72710"/>
<g clip-path="url(#clip0_1189_138591)">
<path d="M21.3359 13.334H14.6693C13.9329 13.334 13.3359 13.9309 13.3359 14.6673V21.334C13.3359 22.0704 13.9329 22.6673 14.6693 22.6673H21.3359C22.0723 22.6673 22.6693 22.0704 22.6693 21.334V14.6673C22.6693 13.9309 22.0723 13.334 21.3359 13.334Z" stroke="white" stroke-width="1.25" stroke-linecap="round" stroke-linejoin="round"/>
<path d="M10.6693 18.6673C9.93594 18.6673 9.33594 18.0673 9.33594 17.334V10.6673C9.33594 9.93398 9.93594 9.33398 10.6693 9.33398H17.3359C18.0693 9.33398 18.6693 9.93398 18.6693 10.6673" stroke="white" stroke-width="1.25" stroke-linecap="round" stroke-linejoin="round"/>
</g>
<path d="M41.4261 14H40.1932C40.1203 13.6454 39.9927 13.3338 39.8104 13.0653C39.6314 12.7969 39.4126 12.5715 39.1541 12.3892C38.8989 12.2036 38.6155 12.0644 38.304 11.9716C37.9924 11.8788 37.6676 11.8324 37.3295 11.8324C36.7131 11.8324 36.1546 11.9882 35.6541 12.2997C35.157 12.6113 34.7609 13.0703 34.4659 13.6768C34.1742 14.2834 34.0284 15.0275 34.0284 15.9091C34.0284 16.7907 34.1742 17.5348 34.4659 18.1413C34.7609 18.7479 35.157 19.2069 35.6541 19.5185C36.1546 19.83 36.7131 19.9858 37.3295 19.9858C37.6676 19.9858 37.9924 19.9394 38.304 19.8466C38.6155 19.7538 38.8989 19.6162 39.1541 19.4339C39.4126 19.2483 39.6314 19.0213 39.8104 18.7528C39.9927 18.4811 40.1203 18.1695 40.1932 17.8182H41.4261C41.3333 18.3385 41.1643 18.8042 40.919 19.2152C40.6738 19.6262 40.3688 19.9759 40.0043 20.2642C39.6397 20.5492 39.2304 20.7663 38.7763 20.9155C38.3255 21.0646 37.8433 21.1392 37.3295 21.1392C36.4612 21.1392 35.6889 20.9271 35.0128 20.5028C34.3366 20.0786 33.8047 19.4754 33.4169 18.6932C33.0291 17.911 32.8352 16.983 32.8352 15.9091C32.8352 14.8352 33.0291 13.9072 33.4169 13.125C33.8047 12.3428 34.3366 11.7396 35.0128 11.3153C35.6889 10.8911 36.4612 10.679 37.3295 10.679C37.8433 10.679 38.3255 10.7536 38.7763 10.9027C39.2304 11.0518 39.6397 11.2706 40.0043 11.5589C40.3688 11.844 40.6738 12.192 40.919 12.603C41.1643 13.0107 41.3333 13.4763 41.4261 14ZM46.3617 21.1591C45.6723 21.1591 45.0674 20.995 44.5471 20.6669C44.03 20.3388 43.6257 19.8797 43.334 19.2898C43.0456 18.6998 42.9015 18.0104 42.9015 17.2216C42.9015 16.4261 43.0456 15.7318 43.334 15.1385C43.6257 14.5452 44.03 14.0845 44.5471 13.7564C45.0674 13.4283 45.6723 13.2642 46.3617 13.2642C47.0511 13.2642 47.6543 13.4283 48.1713 13.7564C48.6917 14.0845 49.0961 14.5452 49.3844 15.1385C49.6761 15.7318 49.8219 16.4261 49.8219 17.2216C49.8219 18.0104 49.6761 18.6998 49.3844 19.2898C49.0961 19.8797 48.6917 20.3388 48.1713 20.6669C47.6543 20.995 47.0511 21.1591 46.3617 21.1591ZM46.3617 20.1051C46.8854 20.1051 47.3162 19.9709 47.6543 19.7024C47.9924 19.4339 48.2426 19.081 48.405 18.6435C48.5674 18.206 48.6486 17.732 48.6486 17.2216C48.6486 16.7112 48.5674 16.2356 48.405 15.7947C48.2426 15.3539 47.9924 14.9976 47.6543 14.7259C47.3162 14.4541 46.8854 14.3182 46.3617 14.3182C45.838 14.3182 45.4071 14.4541 45.0691 14.7259C44.731 14.9976 44.4808 15.3539 44.3184 15.7947C44.156 16.2356 44.0748 16.7112 44.0748 17.2216C44.0748 17.732 44.156 18.206 44.3184 18.6435C44.4808 19.081 44.731 19.4339 45.0691 19.7024C45.4071 19.9709 45.838 20.1051 46.3617 20.1051ZM51.6129 23.8636V13.3636H52.7464V14.5767H52.8857C52.9718 14.4441 53.0911 14.2751 53.2436 14.0696C53.3994 13.8608 53.6214 13.6752 53.9098 13.5128C54.2015 13.3471 54.5959 13.2642 55.093 13.2642C55.736 13.2642 56.3028 13.425 56.7933 13.7464C57.2839 14.0679 57.6667 14.5237 57.9418 15.1136C58.2169 15.7036 58.3544 16.3996 58.3544 17.2017C58.3544 18.0104 58.2169 18.7114 57.9418 19.3047C57.6667 19.8946 57.2855 20.352 56.7983 20.6768C56.3111 20.9983 55.7493 21.1591 55.1129 21.1591C54.6224 21.1591 54.2296 21.0779 53.9347 20.9155C53.6397 20.7498 53.4126 20.5625 53.2536 20.3537C53.0945 20.1416 52.9718 19.9659 52.8857 19.8267H52.7862V23.8636H51.6129ZM52.7663 17.1818C52.7663 17.7585 52.8509 18.2673 53.0199 18.7081C53.1889 19.1456 53.4358 19.4886 53.7607 19.7372C54.0855 19.9825 54.4832 20.1051 54.9538 20.1051C55.4444 20.1051 55.8537 19.9759 56.1818 19.7173C56.5133 19.4555 56.7618 19.1042 56.9276 18.6634C57.0966 18.2192 57.1811 17.7254 57.1811 17.1818C57.1811 16.6449 57.0982 16.161 56.9325 15.7301C56.7701 15.2959 56.5232 14.9529 56.1918 14.701C55.8636 14.4458 55.451 14.3182 54.9538 14.3182C54.4766 14.3182 54.0755 14.4392 53.7507 14.6811C53.4259 14.9197 53.1806 15.2545 53.0149 15.6854C52.8492 16.1129 52.7663 16.6117 52.7663 17.1818ZM60.6264 23.8636C60.4276 23.8636 60.2502 23.8471 60.0945 23.8139C59.9387 23.7841 59.831 23.7543 59.7713 23.7244L60.0696 22.6903C60.3546 22.7633 60.6065 22.7898 60.8253 22.7699C61.044 22.75 61.2379 22.6522 61.407 22.4766C61.5793 22.3042 61.7367 22.0241 61.8793 21.6364L62.098 21.0398L59.2741 13.3636H60.5469L62.6548 19.4489H62.7344L64.8423 13.3636H66.1151L62.8736 22.1136C62.7277 22.508 62.5471 22.8345 62.3317 23.093C62.1162 23.3549 61.866 23.5488 61.581 23.6747C61.2992 23.8007 60.9811 23.8636 60.6264 23.8636Z" fill="white"/>
<defs>
<clipPath id="clip0_1189_138591">
<rect width="16" height="16" fill="white" transform="translate(8 8)"/>
</clipPath>
</defs>
</svg>
