<svg width="93" height="93" viewBox="0 0 93 93" fill="none" xmlns="http://www.w3.org/2000/svg">
<path d="M67.1904 41.6602L59.8704 45.8902V54.2702L62.1204 50.4002L66.3504 52.8002L69.1704 47.9402L64.9404 45.5402L67.1904 41.6602Z" fill="#FFB8B6"/>
<path d="M40.5604 41.0102C40.2904 40.8502 39.9504 40.8802 39.5604 41.1002L33.5404 44.5802C32.6604 45.0802 31.9504 46.4402 31.9504 47.6102V53.9102C31.9504 54.5402 32.1504 54.9702 32.4704 55.1802L29.8804 53.7002C29.5804 53.5202 29.3804 53.1502 29.3804 52.6102V45.9902C29.3804 44.9102 30.1504 43.5802 31.1004 43.0302L36.8704 39.7102C37.3404 39.4302 37.7704 39.4102 38.0804 39.5802L40.5704 41.0002L40.5604 41.0102Z" fill="#FFB8B6"/>
<path d="M54.8604 32.7006C54.5904 32.5406 54.2504 32.5706 53.8604 32.7906L47.8404 36.2706C46.9604 36.7706 46.2504 38.1306 46.2504 39.3006V45.6006C46.2504 46.2306 46.4504 46.6606 46.7704 46.8706L44.1804 45.3906C43.8804 45.2106 43.6804 44.8406 43.6804 44.3006V37.6806C43.6804 36.6006 44.4504 35.2706 45.4004 34.7206L51.1704 31.4006C51.6404 31.1206 52.0704 31.1006 52.3804 31.2706L54.8704 32.6906L54.8604 32.7006Z" fill="#FFB8B6"/>
<path d="M40.5604 58.5702C40.2904 58.4102 39.9504 58.4402 39.5604 58.6602L33.5404 62.1402C32.6604 62.6402 31.9504 64.0002 31.9504 65.1702V71.4702C31.9504 72.1002 32.1504 72.5302 32.4704 72.7402L29.8804 71.2602C29.5804 71.0802 29.3804 70.7102 29.3804 70.1702V63.5502C29.3804 62.4702 30.1504 61.1402 31.1004 60.5902L36.8704 57.2702C37.3404 56.9902 37.7704 56.9702 38.0804 57.1402L40.5704 58.5602L40.5604 58.5702Z" fill="#FFB8B6"/>
<path d="M54.8604 50.0902C54.5904 49.9302 54.2504 49.9602 53.8604 50.1802L47.8404 53.6602C46.9604 54.1602 46.2504 55.5202 46.2504 56.6902V62.9902C46.2504 63.6202 46.4504 64.0502 46.7704 64.2602L44.1804 62.7802C43.8804 62.6002 43.6804 62.2302 43.6804 61.6902V55.0702C43.6804 53.9902 44.4504 52.6602 45.4004 52.1102L51.1704 48.7902C51.6404 48.5102 52.0704 48.4902 52.3804 48.6602L54.8704 50.0802L54.8604 50.0902Z" fill="#FFB8B6"/>
<path d="M69.1004 24.8505C68.8304 24.6905 68.4904 24.7205 68.1004 24.9405L62.0804 28.4205C61.2004 28.9205 60.4904 30.2805 60.4904 31.4505V37.7505C60.4904 38.3805 60.6904 38.8105 61.0104 39.0205L58.4204 37.5405C58.1204 37.3605 57.9204 36.9905 57.9204 36.4505V29.8305C57.9204 28.7505 58.6904 27.4205 59.6404 26.8705L65.4104 23.5505C65.8804 23.2705 66.3104 23.2505 66.6204 23.4205L69.1104 24.8405L69.1004 24.8505Z" fill="#FFB8B6"/>
<path d="M40.5604 41.0103L40.5904 41.0303L40.6904 41.0903" fill="#FFB8B6"/>
<path d="M73.7704 56.5802L24.3004 85.1402C23.0404 85.8702 22.0104 85.1002 22.0104 83.4102V44.0302C22.0104 42.3502 23.0304 40.3902 24.3004 39.6602L73.7704 11.1002C75.0304 10.3702 76.0604 11.1402 76.0604 12.8302V52.2102C76.0604 53.8902 75.0404 55.8502 73.7704 56.5802Z" stroke="#414042" stroke-width="0.75" stroke-linecap="round" stroke-linejoin="round"/>
<path d="M72.6304 47.3402V52.1602C72.6304 52.8102 72.1504 53.6302 71.9004 53.8102L26.8204 79.8302C26.2104 80.1802 25.4504 79.7402 25.4504 79.0402V44.0802C25.4504 43.4302 25.9304 42.6102 26.1804 42.4302L71.2604 16.4002C71.8704 16.0502 72.6304 16.4902 72.6304 17.1902V41.0002" stroke="#414042" stroke-width="0.75" stroke-linecap="round" stroke-linejoin="round"/>
<path d="M61.3304 12.2403L68.5304 8.08034C69.1604 7.72034 69.7304 7.73034 70.1404 8.03034L75.3404 11.0303" stroke="#414042" stroke-width="0.75" stroke-linecap="round" stroke-linejoin="round"/>
<path d="M22.8404 85.2702L17.6404 82.2702C17.1204 82.0102 16.7804 81.3502 16.7804 80.3902V41.0102C16.7804 39.3302 17.8004 37.3702 19.0704 36.6402L54.8604 15.9702" stroke="#414042" stroke-width="0.75" stroke-linecap="round" stroke-linejoin="round"/>
<path d="M39.5504 51.6503L33.5304 55.1203C32.6504 55.6303 31.9404 55.0903 31.9404 53.9203V47.6203C31.9404 46.4503 32.6504 45.0903 33.5304 44.5803L39.5504 41.1103C40.4304 40.6003 41.1404 41.1403 41.1404 42.3103V48.6103C41.1404 49.7803 40.4304 51.1403 39.5504 51.6503Z" stroke="#EF4136" stroke-width="0.75" stroke-linecap="round" stroke-linejoin="round"/>
<path d="M32.4604 55.1903L29.8704 53.7203C29.5604 53.5403 29.3704 53.1603 29.3704 52.6203V46.0103C29.3704 44.9203 30.1404 43.6003 31.0904 43.0503L36.8604 39.7203C37.3304 39.4503 37.7604 39.4203 38.0704 39.6003L40.7004 41.1003" stroke="#EF4136" stroke-width="0.75" stroke-linecap="round" stroke-linejoin="round"/>
<path d="M39.5504 69.2103L33.5304 72.6803C32.6504 73.1903 31.9404 72.6503 31.9404 71.4803V65.1803C31.9404 64.0103 32.6504 62.6503 33.5304 62.1403L39.5504 58.6703C40.4304 58.1603 41.1404 58.7003 41.1404 59.8703V66.1703C41.1404 67.3403 40.4304 68.7003 39.5504 69.2103Z" stroke="#EF4136" stroke-width="0.75" stroke-linecap="round" stroke-linejoin="round"/>
<path d="M32.4604 72.7406L29.8704 71.2706C29.5604 71.0906 29.3704 70.7106 29.3704 70.1706V63.5606C29.3704 62.4706 30.1404 61.1506 31.0904 60.6006L36.8604 57.2706C37.3304 57.0006 37.7604 56.9706 38.0704 57.1506L40.7004 58.6506" stroke="#EF4136" stroke-width="0.75" stroke-linecap="round" stroke-linejoin="round"/>
<path d="M53.7804 43.3402L47.7604 46.8102C46.8804 47.3202 46.1704 46.7802 46.1704 45.6102V39.3102C46.1704 38.1402 46.8804 36.7802 47.7604 36.2702L53.7804 32.8002C54.6604 32.2902 55.3704 32.8302 55.3704 34.0002V40.3002C55.3704 41.4702 54.6604 42.8302 53.7804 43.3402Z" stroke="#EF4136" stroke-width="0.75" stroke-linecap="round" stroke-linejoin="round"/>
<path d="M53.7804 60.7406L47.7604 64.2106C46.8804 64.7206 46.1704 64.1806 46.1704 63.0106V56.7106C46.1704 55.5406 46.8804 54.1806 47.7604 53.6706L53.7804 50.2006C54.6604 49.6906 55.3704 50.2306 55.3704 51.4006V57.7006C55.3704 58.8706 54.6604 60.2306 53.7804 60.7406Z" stroke="#EF4136" stroke-width="0.75" stroke-linecap="round" stroke-linejoin="round"/>
<path d="M46.6904 64.2704L44.1004 62.8003C43.7904 62.6203 43.6004 62.2404 43.6004 61.7004V55.0903C43.6004 54.0003 44.3704 52.6804 45.3204 52.1304L51.0904 48.8003C51.5604 48.5303 51.9904 48.5003 52.3004 48.6803L54.9304 50.1803" stroke="#EF4136" stroke-width="0.75" stroke-linecap="round" stroke-linejoin="round"/>
<path d="M68.0204 35.3602L62.0004 38.8302C61.1204 39.3402 60.4104 38.8002 60.4104 37.6302V31.3302C60.4104 30.1602 61.1204 28.8002 62.0004 28.2902L68.0204 24.8202C68.9004 24.3102 69.6104 24.8502 69.6104 26.0202V32.3202C69.6104 33.4902 68.9004 34.8502 68.0204 35.3602Z" stroke="#EF4136" stroke-width="0.75" stroke-linecap="round" stroke-linejoin="round"/>
<path d="M60.9304 38.8905L58.3404 37.4205C58.0304 37.2405 57.8404 36.8605 57.8404 36.3205V29.7105C57.8404 28.6205 58.6104 27.3005 59.5604 26.7505L65.3304 23.4205C65.8004 23.1505 66.2304 23.1205 66.5404 23.3005L69.1704 24.8005" stroke="#EF4136" stroke-width="0.75" stroke-linecap="round" stroke-linejoin="round"/>
<path d="M67.1904 41.6602L59.8704 45.8902V54.2702L62.1204 50.4002L66.3504 52.8002L69.1704 47.9402L64.9404 45.5402L67.1904 41.6602Z" stroke="#EF4136" stroke-width="0.75" stroke-linecap="round" stroke-linejoin="round"/>
</svg>
