<svg width="93" height="93" viewBox="0 0 93 93" fill="none" xmlns="http://www.w3.org/2000/svg">
<path d="M58.7304 39.4605V50.6605L54.6904 53.0405V41.8005C54.6904 38.3805 52.6104 34.4105 50.0504 32.9305L25.7304 18.8905C24.6004 18.2405 23.5604 18.1905 22.7604 18.6205L26.8004 16.2805C27.6004 15.8505 28.6404 15.9105 29.7704 16.5605L54.0904 30.6005C56.6504 32.0705 58.7304 36.0505 58.7304 39.4605Z" fill="#FFB8B6"/>
<path d="M68.9404 33.4605V44.6605L64.9004 47.0405V35.8005C64.9004 32.3805 62.8204 28.4105 60.2604 26.9305L35.9404 12.8905C34.8104 12.2405 33.7704 12.1905 32.9704 12.6205L37.0104 10.2805C37.8104 9.85046 38.8504 9.91045 39.9804 10.5605L64.3004 24.6005C66.8604 26.0705 68.9404 30.0505 68.9404 33.4605Z" fill="#FFB8B6"/>
<path d="M22.7704 18.6201C22.7704 18.6201 22.7604 18.6201 22.7504 18.6301L22.7704 18.6201Z" fill="#FFB8B6"/>
<path d="M46.0804 83.2705L15.2004 64.8305V52.7104" stroke="#414042" stroke-width="0.75" stroke-linecap="round" stroke-linejoin="round"/>
<path d="M21.1004 36.6201L15.4504 39.9401" stroke="#414042" stroke-width="0.75" stroke-linecap="round" stroke-linejoin="round"/>
<path d="M77.2204 39.9406L68.9404 35.0806" stroke="#414042" stroke-width="0.75" stroke-linecap="round" stroke-linejoin="round"/>
<path d="M64.1204 19.5605L85.3504 32.1505L76.9604 39.9405" stroke="#414042" stroke-width="0.75" stroke-linecap="round" stroke-linejoin="round"/>
<path d="M51.3904 17.0902L54.7204 13.9902L59.1804 16.6402" stroke="#414042" stroke-width="0.75" stroke-linecap="round" stroke-linejoin="round"/>
<path d="M21.1004 23.9805L7.31038 32.1505L15.7004 39.9405" stroke="#414042" stroke-width="0.75" stroke-linecap="round" stroke-linejoin="round"/>
<path d="M46.0804 58.1004L54.4704 65.9404L85.3504 47.7804L76.9604 39.9404" stroke="#414042" stroke-width="0.75" stroke-linecap="round" stroke-linejoin="round"/>
<path d="M46.0804 58.1004L37.6904 65.9404L6.81038 47.7804L15.2004 39.9404" stroke="#414042" stroke-width="0.75" stroke-linecap="round" stroke-linejoin="round"/>
<path d="M21.1004 43.4101V22.4001C21.1004 18.9801 23.1804 17.4101 25.7404 18.8901L50.0504 32.9301C52.6104 34.4101 54.6904 38.3801 54.6904 41.8001V53.0401" stroke="#EF4136" stroke-width="0.75" stroke-linecap="round" stroke-linejoin="round"/>
<path d="M58.7304 50.6705V39.4705C58.7304 36.0505 56.6504 32.0805 54.0904 30.6005L29.7804 16.5605C28.6504 15.9105 27.6104 15.8505 26.8104 16.2805L22.7504 18.6205" stroke="#EF4136" stroke-width="0.75" stroke-linecap="round" stroke-linejoin="round"/>
<path d="M31.3004 17.4403V16.3503C31.3004 12.9303 33.3804 11.3603 35.9404 12.8403L60.2504 26.8803C62.8104 28.3603 64.8904 32.3303 64.8904 35.7503V47.0503" stroke="#EF4136" stroke-width="0.75" stroke-linecap="round" stroke-linejoin="round"/>
<path d="M68.9404 44.6604V33.4104C68.9404 29.9904 66.8604 26.0204 64.3004 24.5404L39.9904 10.5004C38.8604 9.8504 37.8204 9.7904 37.0204 10.2204L32.9604 12.5604" stroke="#EF4136" stroke-width="0.75" stroke-linecap="round" stroke-linejoin="round"/>
<path d="M42.6804 41.7402L48.9404 48.7202C49.6104 49.4702 49.6504 50.5702 49.0104 50.6202L42.6704 51.2102" stroke="#EF4136" stroke-width="0.75" stroke-linecap="round" stroke-linejoin="round"/>
<path d="M31.8504 35.4804L25.5904 35.2204C24.9204 35.1904 24.8804 36.2404 25.5204 37.0404L31.8604 44.9504" stroke="#EF4136" stroke-width="0.75" stroke-linecap="round" stroke-linejoin="round"/>
<path d="M34.5104 35.1602L40.0204 51.2402" stroke="#EF4136" stroke-width="0.75" stroke-linecap="round" stroke-linejoin="round"/>
<path d="M46.0804 77.5704V83.2705L76.9604 64.8305V52.7104" stroke="#414042" stroke-width="0.75" stroke-linecap="round" stroke-linejoin="round"/>
<path d="M76.9604 39.9404L46.0804 58.1004V72.0404" stroke="#414042" stroke-width="0.75" stroke-linecap="round" stroke-linejoin="round"/>
<path d="M15.2004 39.9404L46.0804 58.1004" stroke="#414042" stroke-width="0.75" stroke-linecap="round" stroke-linejoin="round"/>
</svg>
