<svg width="32" height="32" viewBox="0 0 32 32" fill="none" xmlns="http://www.w3.org/2000/svg">
<path d="M13.3272 19.1262L24.5132 7.87607V7.88663L27.7441 4.65144C27.6864 4.73394 27.6279 4.81426 27.57 4.89457C25.115 8.27982 23.9163 9.93513 24.8782 14.0772L24.8725 14.0709C25.5357 16.8903 24.826 20.0169 22.5352 22.3106C19.6467 25.2048 15.0247 25.8488 11.2187 23.2436L13.8726 22.0139C16.3015 22.9688 18.9596 22.5496 20.8693 20.6371C22.7797 18.7246 23.2088 15.9396 22.2484 13.6213C22.0659 13.1823 21.519 13.0716 21.1364 13.3549L13.3272 19.1262ZM11.7155 20.5285L11.7135 20.5306L4.25586 27.2011C4.72867 26.5493 5.31567 25.9327 5.9013 25.3168C7.55305 23.5791 9.19211 21.8568 8.19217 19.4229C6.8533 16.1659 7.63267 12.3493 10.1124 9.86676C12.6901 7.28838 16.4862 6.63794 19.6565 7.94438C20.3584 8.20513 20.97 8.57651 21.4464 8.92182L18.799 10.1458C16.334 9.11063 13.5097 9.81463 11.786 11.5404C9.45492 13.8721 8.98355 17.9156 11.7155 20.5285Z" fill="black"/>
</svg>
