<svg width="32" height="32" viewBox="0 0 32 32" fill="none" xmlns="http://www.w3.org/2000/svg">
<path d="M21.8033 8.07769L17.4942 11.7216H21.8033V8.07769ZM16.5591 11.122L22.8672 5.78769V11.7216H24.8825V20.6854H22.4618V26.3106L16.5592 20.8942V26.1409H15.4952V20.8967L9.45799 26.2871V20.6854H7.11768V11.7216H9.53843V5.74675L15.4952 11.0566V5.85913H16.5592L16.5591 11.122ZM14.7335 12.7855C12.5488 12.7867 10.3652 12.7855 8.18161 12.7855V19.6214H9.45755V17.9264L14.7335 12.7855ZM17.3238 12.7855L22.4618 17.9307V19.6214H23.8186V12.7855C21.655 12.7855 19.4889 12.7867 17.3238 12.7855ZM14.6442 11.7216L10.6024 8.11869V11.7216H14.6442ZM15.4952 19.4763V13.5263L10.5219 18.3711V23.9167L15.4952 19.4763ZM16.5735 13.5374V19.4664L21.3979 23.8914C21.3979 22.0486 21.3971 20.2074 21.3971 18.3648L16.5735 13.5356V13.5374Z" fill="#20808D"/>
</svg>
