<svg width="128" height="128" viewBox="0 0 128 128" fill="none" xmlns="http://www.w3.org/2000/svg">
<rect y="63.6396" width="90" height="90" rx="20" transform="rotate(-45 0 63.6396)" fill="#F4F8FB"/>
<path fill-rule="evenodd" clip-rule="evenodd" d="M47.5237 48.0963C46.7886 48.6756 46.7646 49.0142 46.7646 49.0564C46.7646 49.0986 46.7886 49.4372 47.5237 50.0165C48.2377 50.5792 49.387 51.1679 50.9743 51.697C54.1294 52.7487 58.6074 53.4314 63.6396 53.4314C68.6719 53.4314 73.1499 52.7487 76.305 51.697C77.8923 51.1679 79.0416 50.5792 79.7556 50.0165C80.4907 49.4372 80.5146 49.0986 80.5146 49.0564C80.5146 49.0142 80.4907 48.6756 79.7556 48.0963C79.0416 47.5336 77.8923 46.9449 76.305 46.4158C73.1499 45.3641 68.6719 44.6814 63.6396 44.6814C58.6074 44.6814 54.1294 45.3641 50.9743 46.4158C49.387 46.9449 48.2377 47.5336 47.5237 48.0963ZM80.5146 53.9751C79.6153 54.4625 78.5919 54.8876 77.4908 55.2546C73.8598 56.4649 68.9628 57.1814 63.6396 57.1814C58.3165 57.1814 53.4195 56.4649 49.7885 55.2546C48.6873 54.8876 47.664 54.4625 46.7646 53.9751V63.6397C46.7646 63.6671 46.7797 63.9972 47.4924 64.5708C48.1878 65.1303 49.3319 65.7329 50.9743 66.2804C54.2467 67.3712 58.804 68.0147 63.6396 68.0147C68.4752 68.0147 73.0326 67.3712 76.305 66.2804C77.9474 65.7329 79.0915 65.1303 79.7869 64.5708C80.4996 63.9972 80.5146 63.6671 80.5146 63.6397V53.9751ZM84.2647 49.0564C84.2647 47.3727 83.2393 46.0671 82.0768 45.151C80.8931 44.2182 79.2966 43.4601 77.4908 42.8582C73.8598 41.6478 68.9628 40.9314 63.6396 40.9314C58.3165 40.9314 53.4195 41.6478 49.7885 42.8582C47.9827 43.4601 46.3862 44.2182 45.2025 45.151C44.04 46.0671 43.0146 47.3727 43.0146 49.0564V78.2231C43.0146 79.8533 43.9873 81.1468 45.1414 82.0756C46.3128 83.0183 47.9145 83.7966 49.7885 84.4213C53.5487 85.6747 58.5296 86.3481 63.6396 86.3481C68.7497 86.3481 73.7306 85.6747 77.4908 84.4213C79.3648 83.7966 80.9665 83.0183 82.1379 82.0756C83.292 81.1468 84.2647 79.8533 84.2647 78.2231V49.0564ZM80.5146 68.5568C79.6254 69.0398 78.6063 69.4661 77.4908 69.8379C73.7306 71.0913 68.7497 71.7647 63.6396 71.7647C58.5296 71.7647 53.5487 71.0913 49.7885 69.8379C48.673 69.4661 47.6539 69.0398 46.7646 68.5568V78.2231C46.7646 78.2505 46.7797 78.5806 47.4924 79.1541C48.1878 79.7137 49.3319 80.3162 50.9743 80.8637C54.2467 81.9545 58.804 82.5981 63.6396 82.5981C68.4752 82.5981 73.0326 81.9545 76.305 80.8637C77.9474 80.3162 79.0915 79.7137 79.7869 79.1541C80.4996 78.5806 80.5146 78.2504 80.5146 78.2231V68.5568Z" fill="#59607C" fill-opacity="0.9"/>
</svg>
