<svg width="128" height="128" viewBox="0 0 128 128" fill="none" xmlns="http://www.w3.org/2000/svg">
<rect x="63.6396" width="90" height="90" rx="20" transform="rotate(45 63.6396 0)" fill="#F4F8FB"/>
<path fill-rule="evenodd" clip-rule="evenodd" d="M75.2608 53.594C76.0223 52.8325 77.2569 52.8325 78.0185 53.594L86.6851 62.2607C87.0508 62.6264 87.2563 63.1224 87.2563 63.6396C87.2563 64.1567 87.0508 64.6527 86.6851 65.0184L78.0185 73.6851C77.2569 74.4466 76.0223 74.4466 75.2608 73.6851C74.4992 72.9236 74.4992 71.6889 75.2608 70.9274L82.5486 63.6396L75.2608 56.3518C74.4992 55.5902 74.4992 54.3556 75.2608 53.594Z" fill="#696E87"/>
<path fill-rule="evenodd" clip-rule="evenodd" d="M52.0185 53.594C52.78 54.3556 52.78 55.5902 52.0185 56.3518L44.7307 63.6396L52.0185 70.9274C52.78 71.6889 52.78 72.9236 52.0185 73.6851C51.257 74.4466 50.0223 74.4466 49.2608 73.6851L40.5941 65.0184C39.8326 64.2569 39.8326 63.0222 40.5941 62.2607L49.2608 53.594C50.0223 52.8325 51.257 52.8325 52.0185 53.594Z" fill="#696E87"/>
<path fill-rule="evenodd" clip-rule="evenodd" d="M69.6379 44.445C70.6659 44.7662 71.2387 45.8599 70.9175 46.8879L60.0842 81.5545C59.763 82.5825 58.6692 83.1554 57.6413 82.8341C56.6134 82.5129 56.0405 81.4192 56.3617 80.3913L67.195 45.7246C67.5163 44.6967 68.61 44.1238 69.6379 44.445Z" fill="#696E87"/>
</svg>
