<svg width="128" height="128" viewBox="0 0 128 128" fill="none" xmlns="http://www.w3.org/2000/svg">
<rect x="63.6396" width="90" height="90" rx="20" transform="rotate(45 63.6396 0)" fill="#F4F8FB"/>
<path d="M78.4314 49.8479L84.5564 43.7229" stroke="#696E87" stroke-width="4" stroke-linecap="round" stroke-linejoin="round"/>
<path d="M43.723 84.5564L49.848 78.4314" stroke="#696E87" stroke-width="4" stroke-linecap="round" stroke-linejoin="round"/>
<path d="M52.5021 81.0855C52.9573 81.5423 53.4982 81.9047 54.0938 82.1521C54.6895 82.3994 55.328 82.5267 55.9729 82.5267C56.6178 82.5267 57.2564 82.3994 57.852 82.1521C58.4476 81.9047 58.9885 81.5423 59.4438 81.0855L64.1396 76.3896L51.8896 64.1396L47.1938 68.8355C46.737 69.2907 46.3745 69.8316 46.1272 70.4272C45.8799 71.0228 45.7526 71.6614 45.7526 72.3063C45.7526 72.9512 45.8799 73.5898 46.1272 74.1854C46.3745 74.781 46.737 75.3219 47.1938 75.7771L52.5021 81.0855Z" stroke="#696E87" stroke-width="4" stroke-linecap="round" stroke-linejoin="round"/>
<path d="M54.9521 67.2021L60.0563 62.0979" stroke="#696E87" stroke-width="4" stroke-linecap="round" stroke-linejoin="round"/>
<path d="M61.0771 73.3271L66.1813 68.2229" stroke="#696E87" stroke-width="4" stroke-linecap="round" stroke-linejoin="round"/>
<path d="M64.1396 51.8897L76.3896 64.1397L81.0855 59.4439C81.5423 58.9887 81.9047 58.4477 82.1521 57.8521C82.3994 57.2565 82.5267 56.618 82.5267 55.9731C82.5267 55.3281 82.3994 54.6896 82.1521 54.094C81.9047 53.4984 81.5423 52.9574 81.0855 52.5022L75.7771 47.1939C75.3219 46.7371 74.781 46.3746 74.1854 46.1273C73.5898 45.88 72.9512 45.7527 72.3063 45.7527C71.6614 45.7527 71.0228 45.88 70.4272 46.1273C69.8316 46.3746 69.2907 46.7371 68.8355 47.1939L64.1396 51.8897Z" stroke="#696E87" stroke-width="4" stroke-linecap="round" stroke-linejoin="round"/>
</svg>
