<svg width="128" height="128" viewBox="0 0 128 128" fill="none" xmlns="http://www.w3.org/2000/svg">
<rect x="63.6396" width="90" height="90" rx="20" transform="rotate(45 63.6396 0)" fill="#F4F8FB"/>
<path d="M65.7022 61.6977C69.8565 61.6977 74.0121 61.6977 78.1693 61.6977C79.7422 61.6977 80.7283 62.1659 80.7347 63.8359C80.7405 65.962 80.7419 68.0916 80.7391 70.2248C80.7388 70.2443 80.7424 70.2636 80.7496 70.2816C80.7569 70.2997 80.7676 70.3161 80.7813 70.33C80.7949 70.3438 80.8112 70.3548 80.8291 70.3623C80.8471 70.3698 80.8663 70.3737 80.8858 70.3737C82.2796 70.3795 83.6793 70.3838 85.0846 70.3867C86.444 70.3888 87.2768 71.1354 87.2747 72.54C87.2689 76.5519 87.266 80.563 87.266 84.5734C87.266 86.3858 86.7094 87.264 84.8602 87.264C80.8815 87.2683 76.902 87.2676 72.9218 87.2618C71.2345 87.2597 70.4211 86.7354 70.3973 85.0222C70.3369 80.8852 70.3261 76.7475 70.365 72.6091C70.3801 71.1354 71.0662 70.3759 72.5248 70.3845C73.933 70.3917 75.3406 70.3888 76.7474 70.3759C76.8193 70.3744 76.8552 70.3377 76.8552 70.2658V65.7433C76.8552 65.6354 76.8013 65.5815 76.6934 65.5815H50.5316C50.503 65.5815 50.4755 65.5929 50.4553 65.6131C50.4351 65.6333 50.4237 65.6608 50.4237 65.6894V70.2723C50.4237 70.3009 50.4349 70.3283 50.4547 70.3486C50.4745 70.3688 50.5014 70.3802 50.5294 70.3802C51.896 70.3845 53.2596 70.3845 54.6204 70.3802C56.0941 70.378 56.9248 71.0383 56.9313 72.581C56.9528 77.8875 56.95 82.0295 56.9226 85.0071C56.9097 86.5843 56.0876 87.2618 54.5772 87.264C50.5798 87.2669 46.5823 87.2676 42.5849 87.2662C40.8328 87.264 40.0151 86.6275 40.0151 84.8776C40.0122 80.7119 40.0115 76.5454 40.0129 72.3782C40.0129 70.911 41.0637 70.4061 42.4295 70.3737C43.7529 70.3421 45.0676 70.3464 46.3738 70.3867C46.3915 70.3872 46.4092 70.3843 46.4258 70.3779C46.4424 70.3716 46.4575 70.362 46.4704 70.3498C46.4832 70.3375 46.4935 70.3228 46.5006 70.3066C46.5078 70.2903 46.5116 70.2728 46.5118 70.255C46.5449 68.2556 46.5528 66.2612 46.5356 64.2718C46.5205 62.6902 47.0124 61.702 48.6846 61.702C52.9913 61.6962 57.3038 61.6955 61.6221 61.6998C61.6421 61.6998 61.6613 61.6919 61.6755 61.6777C61.6896 61.6636 61.6976 61.6444 61.6976 61.6243V57.1256C61.6976 57.0758 61.678 57.028 61.6432 56.9928C61.6084 56.9576 61.5612 56.9379 61.512 56.9379C60.0563 56.935 58.7229 56.9228 57.5117 56.9012C56.1006 56.8774 55.2267 56.3402 55.2267 54.8751C55.2253 50.7468 55.2245 46.617 55.2245 42.4857C55.2245 40.7704 55.8352 40.0217 57.5376 40.0174C61.5221 40.0102 65.5059 40.0102 69.4889 40.0174C71.0489 40.0195 72.0523 40.464 72.0523 42.1362C72.0537 46.2933 72.0544 50.4504 72.0544 54.6076C72.0544 56.0316 71.4783 56.8645 70.0348 56.9141C68.5978 56.9645 67.1587 56.953 65.7173 56.8796C65.6267 56.8753 65.5814 56.9184 65.5814 57.0091V61.5769C65.5814 61.6574 65.6217 61.6977 65.7022 61.6977ZM68.2042 44.0602C68.2042 44.0463 68.2015 44.0326 68.1962 44.0197C68.191 44.0069 68.1832 43.9952 68.1734 43.9854C68.1636 43.9755 68.1519 43.9677 68.1391 43.9624C68.1263 43.9571 68.1125 43.9543 68.0987 43.9543L59.1702 43.9387C59.1563 43.9387 59.1426 43.9414 59.1297 43.9467C59.1169 43.952 59.1052 43.9597 59.0954 43.9695C59.0856 43.9793 59.0778 43.991 59.0724 44.0038C59.0671 44.0166 59.0643 44.0304 59.0643 44.0442L59.0489 52.8993C59.0488 52.9132 59.0515 52.927 59.0568 52.9398C59.0621 52.9527 59.0699 52.9643 59.0797 52.9742C59.0895 52.984 59.1011 52.9918 59.114 52.9971C59.1268 53.0025 59.1405 53.0052 59.1544 53.0053L68.0829 53.0208C68.0967 53.0209 68.1105 53.0181 68.1233 53.0129C68.1362 53.0076 68.1478 52.9998 68.1577 52.99C68.1675 52.9802 68.1753 52.9685 68.1807 52.9557C68.186 52.9429 68.1887 52.9292 68.1888 52.9153L68.2042 44.0602ZM43.9485 83.2658C43.9485 83.283 43.9553 83.2995 43.9675 83.3116C43.9796 83.3237 43.9961 83.3306 44.0133 83.3306L52.9482 83.3435C52.9654 83.3435 52.9818 83.3367 52.994 83.3245C53.0061 83.3124 53.0129 83.2959 53.0129 83.2788V74.3309C53.0129 74.3137 53.0061 74.2973 52.994 74.2851C52.9818 74.273 52.9654 74.2662 52.9482 74.2662H44.0133C43.9961 74.2662 43.9796 74.273 43.9675 74.2851C43.9553 74.2973 43.9485 74.3137 43.9485 74.3309V83.2658ZM83.3369 74.3978C83.3369 74.3629 83.323 74.3294 83.2984 74.3047C83.2737 74.28 83.2402 74.2662 83.2053 74.2662H74.3977C74.3627 74.2662 74.3293 74.28 74.3046 74.3047C74.2799 74.3294 74.266 74.3629 74.266 74.3978V83.2442C74.266 83.2792 74.2799 83.3126 74.3046 83.3373C74.3293 83.362 74.3627 83.3759 74.3977 83.3759H83.2053C83.2402 83.3759 83.2737 83.362 83.2984 83.3373C83.323 83.3126 83.3369 83.2792 83.3369 83.2442V74.3978Z" fill="#59607C" fill-opacity="0.9"/>
</svg>
