<svg width="91" height="90" viewBox="0 0 91 90" fill="none" xmlns="http://www.w3.org/2000/svg">
<ellipse cx="45.5" cy="45" rx="45.5" ry="45" fill="#353B50"/>
<path d="M49.0307 33.7314H60.3392C61.25 33.7314 62.0027 32.9787 62.0027 32.0678C62.0027 31.157 61.25 30.4043 60.3392 30.4043H49.0307C48.1199 30.4043 47.3672 31.157 47.3672 32.0678C47.3672 32.9787 48.1199 33.7314 49.0307 33.7314Z" fill="white" stroke="white" stroke-width="0.5"/>
<path d="M49.0307 39.3857H54.6849C55.5958 39.3857 56.3485 38.633 56.3485 37.7221C56.3485 36.8113 55.5958 36.0586 54.6849 36.0586H49.0307C48.1199 36.0586 47.3672 36.8113 47.3672 37.7221C47.3672 38.633 48.1199 39.3857 49.0307 39.3857Z" fill="white" stroke="white" stroke-width="0.5"/>
<path d="M24.75 44.3185C24.75 55.1054 33.5317 63.8871 44.3185 63.8871C55.1054 63.8871 63.8871 55.1054 63.8871 44.3185C63.8871 43.4077 63.1343 42.655 62.2235 42.655C61.3127 42.655 60.56 43.4077 60.56 44.3185C60.56 53.2651 53.2836 60.56 44.3185 60.56C35.3535 60.56 28.0771 53.2651 28.0771 44.3185C28.0771 35.372 35.3535 28.0771 44.3185 28.0771C45.2294 28.0771 45.9821 27.3244 45.9821 26.4136C45.9821 25.5027 45.2294 24.75 44.3185 24.75C33.5317 24.75 24.75 33.5317 24.75 44.3185Z" fill="white" stroke="white" stroke-width="0.5"/>
<path d="M61.9154 65.0609C62.3511 65.4962 62.905 65.7002 63.4569 65.7002C64.0089 65.7002 64.5628 65.4962 64.9985 65.0609C65.843 64.217 65.843 62.8235 64.9985 61.9796L59.8482 56.833C59.0039 55.9892 57.6096 55.9892 56.7652 56.833C55.9207 57.6769 55.9207 59.0705 56.7652 59.9144L61.9154 65.0609Z" fill="white" stroke="white" stroke-width="0.5"/>
</svg>
