<svg width="92" height="90" viewBox="0 0 92 90" fill="none" xmlns="http://www.w3.org/2000/svg">
<ellipse cx="46" cy="45" rx="46" ry="45" fill="#353B50"/>
<path d="M59.9667 67.8667C59.9667 67.8667 70 62.7067 70 54.9667V45.9367L59.9667 42.0667L49.9333 45.9367V54.9667C49.9333 62.7067 59.9667 67.8667 59.9667 67.8667Z" stroke="white" stroke-width="2.8" stroke-linecap="round" stroke-linejoin="round"/>
<path d="M56.1448 54.6595L58.7839 57.6286L64.0622 51.6905" stroke="white" stroke-width="2.8" stroke-linecap="round" stroke-linejoin="round"/>
<path d="M51.2141 61.5873H30.9587C29.9088 61.5873 28.9019 61.1702 28.1595 60.4278C27.4171 59.6854 27 58.6785 27 57.6286V25.9587C27 24.9088 27.4171 23.9019 28.1595 23.1595C28.9019 22.4171 29.9088 22 30.9587 22H47.7833L58.6698 32.8865V41.7937" stroke="white" stroke-width="2.8" stroke-linecap="round" stroke-linejoin="round"/>
<path d="M46.7937 22V33.8762H58.6699" stroke="white" stroke-width="2.8" stroke-linecap="round" stroke-linejoin="round"/>
<path d="M44.8146 46.3667H34.9177" stroke="white" stroke-width="2.8" stroke-linecap="round" stroke-linejoin="round"/>
<path d="M44.8146 40.6333H34.9177" stroke="white" stroke-width="2.8" stroke-linecap="round" stroke-linejoin="round"/>
<path d="M44.8146 51.6905H34.9177" stroke="white" stroke-width="2.8" stroke-linecap="round" stroke-linejoin="round"/>
<path d="M38.8765 35.8555H34.9177" stroke="white" stroke-width="2.8" stroke-linecap="round" stroke-linejoin="round"/>
<path d="M38.8765 30.6H34.9177" stroke="white" stroke-width="2.8" stroke-linecap="round" stroke-linejoin="round"/>
</svg>
