<svg width="91" height="90" viewBox="0 0 91 90" fill="none" xmlns="http://www.w3.org/2000/svg">
<ellipse cx="45.5" cy="45" rx="45.5" ry="45" fill="#353B50"/>
<path d="M45.3723 52.7107C41.2569 52.7107 37.9169 49.3707 37.9169 45.2553C37.9169 41.1398 41.2569 37.7998 45.3723 37.7998C49.4877 37.7998 52.8278 41.1398 52.8278 45.2553C52.8278 49.3707 49.4877 52.7107 45.3723 52.7107ZM45.3723 40.782C42.9071 40.782 40.8991 42.79 40.8991 45.2553C40.8991 47.7205 42.9071 49.7285 45.3723 49.7285C47.8376 49.7285 49.8456 47.7205 49.8456 45.2553C49.8456 42.79 47.8376 40.782 45.3723 40.782Z" fill="white"/>
<path d="M51.7542 65.5135C51.3367 65.5135 50.9192 65.4539 50.5017 65.3545C49.269 65.0165 48.2352 64.2411 47.5791 63.1477L47.3406 62.75C46.1676 60.7221 44.5572 60.7221 43.3842 62.75L43.1655 63.1278C42.5094 64.2411 41.4756 65.0364 40.243 65.3545C38.9904 65.6925 37.6982 65.5135 36.6047 64.8574L33.1851 62.8892C31.9724 62.1934 31.0976 61.0601 30.7199 59.6883C30.362 58.3165 30.5409 56.905 31.2368 55.6922C31.8133 54.6783 31.9724 53.7637 31.6344 53.1872C31.2964 52.6106 30.4415 52.2726 29.2685 52.2726C26.3659 52.2726 24 49.9068 24 47.0041V43.505C24 40.6024 26.3659 38.2365 29.2685 38.2365C30.4415 38.2365 31.2964 37.8985 31.6344 37.322C31.9724 36.7454 31.8332 35.8309 31.2368 34.8169C30.5409 33.6042 30.362 32.1727 30.7199 30.8208C31.0777 29.449 31.9525 28.3158 33.1851 27.6199L36.6246 25.6517C38.8712 24.3196 41.8335 25.095 43.1854 27.3813L43.424 27.779C44.5969 29.8069 46.2073 29.8069 47.3803 27.779L47.599 27.4012C48.9509 25.095 51.9132 24.3196 54.1797 25.6716L57.5993 27.6398C58.812 28.3356 59.6868 29.4689 60.0645 30.8407C60.4224 32.2125 60.2435 33.624 59.5476 34.8368C58.9711 35.8507 58.812 36.7653 59.15 37.3418C59.488 37.9184 60.3429 38.2564 61.5159 38.2564C64.4185 38.2564 66.7844 40.6222 66.7844 43.5249V47.024C66.7844 49.9266 64.4185 52.2925 61.5159 52.2925C60.3429 52.2925 59.488 52.6305 59.15 53.207C58.812 53.7836 58.9512 54.6981 59.5476 55.7121C60.2435 56.9248 60.4423 58.3563 60.0645 59.7082C59.7067 61.08 58.8319 62.2132 57.5993 62.9091L54.1598 64.8773C53.4043 65.2948 52.5892 65.5135 51.7542 65.5135ZM45.3723 58.1575C47.1417 58.1575 48.7919 59.2708 49.9251 61.2391L50.1438 61.6168C50.3824 62.0343 50.78 62.3325 51.2572 62.4518C51.7343 62.5711 52.2115 62.5115 52.6091 62.2729L56.0485 60.2848C56.5654 59.9865 56.9631 59.4895 57.1221 58.8931C57.2812 58.2966 57.2016 57.6803 56.9034 57.1634C55.7702 55.215 55.631 53.207 56.5058 51.6762C57.3806 50.1453 59.1898 49.2706 61.4562 49.2706C62.7286 49.2706 63.7426 48.2566 63.7426 46.9842V43.4851C63.7426 42.2326 62.7286 41.1988 61.4562 41.1988C59.1898 41.1988 57.3806 40.324 56.5058 38.7932C55.631 37.2623 55.7702 35.2543 56.9034 33.3059C57.2016 32.789 57.2812 32.1727 57.1221 31.5763C56.9631 30.9798 56.5853 30.5027 56.0684 30.1846L52.629 28.2164C51.7741 27.6994 50.6408 27.9977 50.1239 28.8724L49.9052 29.2502C48.772 31.2184 47.1219 32.3318 45.3524 32.3318C43.583 32.3318 41.9329 31.2184 40.7996 29.2502L40.5809 28.8526C40.0839 28.0175 38.9706 27.7193 38.1157 28.2164L34.6762 30.2045C34.1593 30.5027 33.7617 30.9997 33.6026 31.5962C33.4436 32.1926 33.5231 32.8089 33.8213 33.3258C34.9546 35.2742 35.0937 37.2822 34.2189 38.813C33.3442 40.3439 31.535 41.2187 29.2685 41.2187C27.9961 41.2187 26.9822 42.2326 26.9822 43.505V47.0041C26.9822 48.2566 27.9961 49.2904 29.2685 49.2904C31.535 49.2904 33.3442 50.1652 34.2189 51.6961C35.0937 53.2269 34.9546 55.2349 33.8213 57.1833C33.5231 57.7002 33.4436 58.3165 33.6026 58.913C33.7617 59.5094 34.1394 59.9865 34.6563 60.3046L38.0958 62.2729C38.5133 62.5313 39.0103 62.591 39.4676 62.4717C39.9447 62.3524 40.3424 62.0343 40.6008 61.6168L40.8195 61.2391C41.9527 59.2907 43.6029 58.1575 45.3723 58.1575Z" fill="white"/>
</svg>
