<svg width="23" height="23" viewBox="0 0 23 23" fill="none" xmlns="http://www.w3.org/2000/svg">
<path d="M19.9151 5.24107C19.9821 5.30783 20.0352 5.38715 20.0714 5.47447C20.1076 5.56179 20.1263 5.6554 20.1263 5.74994C20.1263 5.84448 20.1076 5.93809 20.0714 6.02542C20.0352 6.11274 19.9821 6.19205 19.9151 6.25882L9.85262 16.3213C9.78585 16.3883 9.70654 16.4414 9.61922 16.4776C9.5319 16.5138 9.43828 16.5325 9.34374 16.5325C9.2492 16.5325 9.15559 16.5138 9.06827 16.4776C8.98095 16.4414 8.90163 16.3883 8.83487 16.3213L3.80362 11.2901C3.66866 11.1551 3.59283 10.9721 3.59283 10.7812C3.59283 10.5903 3.66866 10.4073 3.80362 10.2723C3.93858 10.1374 4.12163 10.0615 4.31249 10.0615C4.50336 10.0615 4.68641 10.1374 4.82137 10.2723L9.34374 14.7961L18.8974 5.24107C18.9641 5.17413 19.0434 5.12103 19.1308 5.08479C19.2181 5.04856 19.3117 5.02991 19.4062 5.02991C19.5008 5.02991 19.5944 5.04856 19.6817 5.08479C19.769 5.12103 19.8484 5.17413 19.9151 5.24107Z" fill="#1FAF8C"/>
</svg>
