<svg width="120" height="40" viewBox="0 0 120 40" fill="none" xmlns="http://www.w3.org/2000/svg">
<rect width="120" height="40" fill="#1E2939"/>
<rect width="40" height="40" fill="#F75959"/>
<rect x="40" width="80" height="40" fill="#1E2939"/>
<path d="M21.202 13.03L32.002 18.598V21.31L21.142 26.974L19.81 24.202L28.138 19.954L19.81 15.718L21.202 13.03ZM9.202 13.03L20.002 18.598V21.31L9.142 26.974L7.81 24.202L16.138 19.954L7.81 15.718L9.202 13.03Z" fill="white"/>
<path d="M60.5756 12.47C60.909 12.03 61.309 11.68 61.7756 11.42C62.249 11.16 62.7556 11.03 63.2956 11.03C64.209 11.03 64.9523 11.26 65.5256 11.72C66.1056 12.18 66.5323 12.83 66.8056 13.67C67.079 14.51 67.2156 15.5067 67.2156 16.66C67.2156 17.7533 67.0523 18.73 66.7256 19.59C66.4056 20.4433 65.929 21.1167 65.2956 21.61C64.6623 22.0967 63.8856 22.34 62.9656 22.34C61.8523 22.34 60.9756 21.9067 60.3356 21.04L60.2156 22H57.4156V7.16L60.5756 6.83V12.47ZM62.1356 20.04C62.6956 20.04 63.139 19.7833 63.4656 19.27C63.7923 18.75 63.9556 17.8933 63.9556 16.7C63.9556 15.82 63.8856 15.14 63.7456 14.66C63.6123 14.1733 63.419 13.8367 63.1656 13.65C62.919 13.4567 62.629 13.36 62.2956 13.36C61.9423 13.36 61.6256 13.47 61.3456 13.69C61.0656 13.91 60.809 14.21 60.5756 14.59V19.07C60.7756 19.3833 60.999 19.6233 61.2456 19.79C61.4923 19.9567 61.789 20.04 62.1356 20.04Z" fill="white"/>
<path d="M72.1478 17.61C72.2211 18.19 72.3711 18.66 72.5978 19.02C72.8311 19.3733 73.1278 19.6333 73.4878 19.8C73.8478 19.96 74.2511 20.04 74.6978 20.04C75.1845 20.04 75.6545 19.96 76.1078 19.8C76.5611 19.64 76.9978 19.4267 77.4178 19.16L78.6878 20.88C78.1878 21.3067 77.5811 21.6567 76.8678 21.93C76.1611 22.2033 75.3545 22.34 74.4478 22.34C73.2345 22.34 72.2178 22.1 71.3978 21.62C70.5778 21.1333 69.9611 20.4667 69.5478 19.62C69.1345 18.7733 68.9278 17.8 68.9278 16.7C68.9278 15.6533 69.1278 14.7033 69.5278 13.85C69.9278 12.99 70.5111 12.3067 71.2778 11.8C72.0511 11.2867 72.9945 11.03 74.1078 11.03C75.1211 11.03 75.9978 11.2467 76.7378 11.68C77.4845 12.1133 78.0611 12.7367 78.4678 13.55C78.8811 14.3633 79.0878 15.34 79.0878 16.48C79.0878 16.66 79.0811 16.8533 79.0678 17.06C79.0611 17.2667 79.0478 17.45 79.0278 17.61H72.1478ZM74.1078 13.15C73.5411 13.15 73.0845 13.3533 72.7378 13.76C72.3911 14.1667 72.1811 14.8167 72.1078 15.71H76.0078C76.0011 14.9367 75.8511 14.3167 75.5578 13.85C75.2645 13.3833 74.7811 13.15 74.1078 13.15Z" fill="white"/>
<path d="M87.44 6.83L90.6 7.16V22H87.8L87.64 20.83C87.3467 21.2433 86.9567 21.6 86.47 21.9C85.9833 22.1933 85.3933 22.34 84.7 22.34C83.82 22.34 83.09 22.1033 82.51 21.63C81.9367 21.1567 81.5067 20.4967 81.22 19.65C80.94 18.7967 80.8 17.8 80.8 16.66C80.8 15.5667 80.97 14.5967 81.31 13.75C81.65 12.9033 82.1367 12.24 82.77 11.76C83.4033 11.2733 84.1567 11.03 85.03 11.03C85.5033 11.03 85.9433 11.1133 86.35 11.28C86.7567 11.4467 87.12 11.69 87.44 12.01V6.83ZM85.88 13.34C85.3333 13.34 84.8933 13.6 84.56 14.12C84.2267 14.6333 84.06 15.4867 84.06 16.68C84.06 17.5533 84.13 18.2333 84.27 18.72C84.41 19.2 84.6033 19.5367 84.85 19.73C85.0967 19.9233 85.38 20.02 85.7 20.02C86.0533 20.02 86.3733 19.91 86.66 19.69C86.9533 19.47 87.2133 19.17 87.44 18.79V14.21C87.22 13.9367 86.9867 13.7233 86.74 13.57C86.4933 13.4167 86.2067 13.34 85.88 13.34Z" fill="white"/>
<path d="M102.332 18.94C102.332 19.34 102.386 19.63 102.492 19.81C102.606 19.99 102.786 20.1267 103.032 20.22L102.382 22.3C101.756 22.24 101.226 22.1033 100.792 21.89C100.366 21.67 100.029 21.34 99.7822 20.9C99.3755 21.3867 98.8555 21.75 98.2222 21.99C97.5889 22.2233 96.9422 22.34 96.2822 22.34C95.1889 22.34 94.3155 22.03 93.6622 21.41C93.0155 20.7833 92.6922 19.98 92.6922 19C92.6922 17.8467 93.1422 16.9567 94.0422 16.33C94.9489 15.7033 96.2222 15.39 97.8622 15.39H99.2922V14.99C99.2922 14.4367 99.1122 14.0267 98.7522 13.76C98.3989 13.4933 97.8789 13.36 97.1922 13.36C96.8522 13.36 96.4155 13.41 95.8822 13.51C95.3489 13.6033 94.8155 13.74 94.2822 13.92L93.5522 11.82C94.2389 11.56 94.9522 11.3633 95.6922 11.23C96.4389 11.0967 97.1055 11.03 97.6922 11.03C99.2722 11.03 100.439 11.3533 101.192 12C101.952 12.64 102.332 13.5667 102.332 14.78V18.94ZM97.3722 20.08C97.7122 20.08 98.0689 19.98 98.4422 19.78C98.8155 19.5733 99.0989 19.2833 99.2922 18.91V17.19H98.5122C97.6322 17.19 96.9855 17.3267 96.5722 17.6C96.1589 17.8667 95.9522 18.26 95.9522 18.78C95.9522 19.1867 96.0755 19.5067 96.3222 19.74C96.5755 19.9667 96.9255 20.08 97.3722 20.08Z" fill="white"/>
<path d="M58.8456 31.04C59.109 31.04 59.3206 30.9983 59.4806 30.915C59.644 30.8317 59.7256 30.7067 59.7256 30.54C59.7256 30.4267 59.694 30.3317 59.6306 30.255C59.5673 30.1783 59.4456 30.105 59.2656 30.035C59.0856 29.965 58.819 29.8817 58.4656 29.785C58.1423 29.6983 57.8556 29.5883 57.6056 29.455C57.359 29.3217 57.1656 29.15 57.0256 28.94C56.889 28.73 56.8206 28.4683 56.8206 28.155C56.8206 27.8383 56.909 27.5567 57.0856 27.31C57.2623 27.0633 57.5223 26.87 57.8656 26.73C58.209 26.5867 58.629 26.515 59.1256 26.515C59.599 26.515 60.0106 26.5767 60.3606 26.7C60.714 26.82 61.019 26.9733 61.2756 27.16L60.6456 28.09C60.4256 27.9533 60.189 27.845 59.9356 27.765C59.6823 27.6817 59.4273 27.64 59.1706 27.64C58.914 27.64 58.7223 27.675 58.5956 27.745C58.4723 27.8117 58.4106 27.9133 58.4106 28.05C58.4106 28.14 58.4423 28.2183 58.5056 28.285C58.5723 28.3483 58.6956 28.415 58.8756 28.485C59.0556 28.5517 59.319 28.635 59.6656 28.735C60.009 28.8317 60.3073 28.9433 60.5606 29.07C60.8173 29.1967 61.0156 29.3667 61.1556 29.58C61.2956 29.79 61.3656 30.0683 61.3656 30.415C61.3656 30.8017 61.2506 31.1267 61.0206 31.39C60.7906 31.65 60.4856 31.845 60.1056 31.975C59.7256 32.105 59.309 32.17 58.8556 32.17C58.3423 32.17 57.889 32.0967 57.4956 31.95C57.1023 31.8033 56.7673 31.61 56.4906 31.37L57.2856 30.48C57.4923 30.64 57.7256 30.7733 57.9856 30.88C58.249 30.9867 58.5356 31.04 58.8456 31.04Z" fill="white"/>
<path d="M65.0117 26.515C65.5584 26.515 66.0234 26.6317 66.4067 26.865C66.7901 27.0983 67.0834 27.4267 67.2867 27.85C67.4901 28.27 67.5917 28.7633 67.5917 29.33C67.5917 29.92 67.4884 30.4283 67.2817 30.855C67.0784 31.2783 66.7851 31.6033 66.4017 31.83C66.0184 32.0567 65.5551 32.17 65.0117 32.17C64.4717 32.17 64.0084 32.0583 63.6217 31.835C63.2384 31.6117 62.9434 31.2883 62.7367 30.865C62.5334 30.4417 62.4317 29.9333 62.4317 29.34C62.4317 28.7767 62.5334 28.2833 62.7367 27.86C62.9434 27.4367 63.2384 27.1067 63.6217 26.87C64.0084 26.6333 64.4717 26.515 65.0117 26.515ZM65.0117 27.68C64.6884 27.68 64.4484 27.8133 64.2917 28.08C64.1384 28.3433 64.0617 28.7633 64.0617 29.34C64.0617 29.9267 64.1384 30.3517 64.2917 30.615C64.4484 30.8783 64.6884 31.01 65.0117 31.01C65.3351 31.01 65.5734 30.8783 65.7267 30.615C65.8834 30.3517 65.9617 29.9233 65.9617 29.33C65.9617 28.7567 65.8834 28.3383 65.7267 28.075C65.5734 27.8117 65.3351 27.68 65.0117 27.68Z" fill="white"/>
<path d="M72.0878 24.415C72.4745 24.415 72.8161 24.4467 73.1128 24.51C73.4095 24.57 73.6745 24.65 73.9078 24.75L73.4728 25.78C73.2895 25.71 73.1011 25.66 72.9078 25.63C72.7145 25.5967 72.5228 25.58 72.3328 25.58C72.0195 25.58 71.7945 25.6367 71.6578 25.75C71.5245 25.8633 71.4578 26.0517 71.4578 26.315V27.025H73.1878L73.0128 28.12H71.4578V32H69.8878V28.12H68.7728V27.025H69.8878V26.255C69.8878 25.905 69.9711 25.5917 70.1378 25.315C70.3045 25.0383 70.5511 24.82 70.8778 24.66C71.2045 24.4967 71.6078 24.415 72.0878 24.415Z" fill="white"/>
<path d="M79.4839 31.69C79.2772 31.8233 79.0272 31.9367 78.7339 32.03C78.4406 32.1233 78.1106 32.17 77.7439 32.17C77.0506 32.17 76.5356 31.9933 76.1989 31.64C75.8622 31.2833 75.6939 30.8 75.6939 30.19V27.78H74.5789V26.69H75.6939V25.54L77.2739 25.35V26.69H78.9839L78.8289 27.78H77.2739V30.19C77.2739 30.4533 77.3339 30.6417 77.4539 30.755C77.5739 30.8683 77.7656 30.925 78.0289 30.925C78.2156 30.925 78.3856 30.9033 78.5389 30.86C78.6956 30.8133 78.8356 30.755 78.9589 30.685L79.4839 31.69Z" fill="white"/>
<path d="M85.21 32H83.465L83.01 28.43L82.535 32H80.82L80.035 26.69H81.48L81.825 31.015L82.385 27.36H83.715L84.215 31.015L84.57 26.69H85.965L85.21 32Z" fill="white"/>
<path d="M91.1661 30.47C91.1661 30.67 91.1928 30.815 91.2461 30.905C91.3028 30.995 91.3928 31.0633 91.5161 31.11L91.1911 32.15C90.8778 32.12 90.6128 32.0517 90.3961 31.945C90.1828 31.835 90.0144 31.67 89.8911 31.45C89.6878 31.6933 89.4278 31.875 89.1111 31.995C88.7944 32.1117 88.4711 32.17 88.1411 32.17C87.5944 32.17 87.1578 32.015 86.8311 31.705C86.5078 31.3917 86.3461 30.99 86.3461 30.5C86.3461 29.9233 86.5711 29.4783 87.0211 29.165C87.4744 28.8517 88.1111 28.695 88.9311 28.695H89.6461V28.495C89.6461 28.2183 89.5561 28.0133 89.3761 27.88C89.1994 27.7467 88.9394 27.68 88.5961 27.68C88.4261 27.68 88.2078 27.705 87.9411 27.755C87.6744 27.8017 87.4078 27.87 87.1411 27.96L86.7761 26.91C87.1194 26.78 87.4761 26.6817 87.8461 26.615C88.2194 26.5483 88.5528 26.515 88.8461 26.515C89.6361 26.515 90.2194 26.6767 90.5961 27C90.9761 27.32 91.1661 27.7833 91.1661 28.39V30.47ZM88.6861 31.04C88.8561 31.04 89.0344 30.99 89.2211 30.89C89.4078 30.7867 89.5494 30.6417 89.6461 30.455V29.595H89.2561C88.8161 29.595 88.4928 29.6633 88.2861 29.8C88.0794 29.9333 87.9761 30.13 87.9761 30.39C87.9761 30.5933 88.0378 30.7533 88.1611 30.87C88.2878 30.9833 88.4628 31.04 88.6861 31.04Z" fill="white"/>
<path d="M92.7422 32V30.94H93.4422V27.74H92.7422V26.69H94.6472L94.9372 27.885C95.1272 27.4283 95.3689 27.0883 95.6622 26.865C95.9589 26.6417 96.3205 26.53 96.7472 26.53C96.9272 26.53 97.0872 26.545 97.2272 26.575C97.3672 26.6017 97.4989 26.64 97.6222 26.69L97.1422 27.995C97.0455 27.9683 96.9489 27.9483 96.8522 27.935C96.7555 27.9217 96.6489 27.915 96.5322 27.915C96.1855 27.915 95.8805 28.0567 95.6172 28.34C95.3572 28.6233 95.1589 28.9833 95.0222 29.42V30.94H96.0722V32H92.7422Z" fill="white"/>
<path d="M100.058 29.805C100.095 30.095 100.17 30.33 100.283 30.51C100.4 30.6867 100.548 30.8167 100.728 30.9C100.908 30.98 101.11 31.02 101.333 31.02C101.577 31.02 101.812 30.98 102.038 30.9C102.265 30.82 102.483 30.7133 102.693 30.58L103.328 31.44C103.078 31.6533 102.775 31.8283 102.418 31.965C102.065 32.1017 101.662 32.17 101.208 32.17C100.602 32.17 100.093 32.05 99.6833 31.81C99.2733 31.5667 98.9649 31.2333 98.7583 30.81C98.5516 30.3867 98.4483 29.9 98.4483 29.35C98.4483 28.8267 98.5483 28.3517 98.7483 27.925C98.9483 27.495 99.2399 27.1533 99.6233 26.9C100.01 26.6433 100.482 26.515 101.038 26.515C101.545 26.515 101.983 26.6233 102.353 26.84C102.727 27.0567 103.015 27.3683 103.218 27.775C103.425 28.1817 103.528 28.67 103.528 29.24C103.528 29.33 103.525 29.4267 103.518 29.53C103.515 29.6333 103.508 29.725 103.498 29.805H100.058ZM101.038 27.575C100.755 27.575 100.527 27.6767 100.353 27.88C100.18 28.0833 100.075 28.4083 100.038 28.855H101.988C101.985 28.4683 101.91 28.1583 101.763 27.925C101.617 27.6917 101.375 27.575 101.038 27.575Z" fill="white"/>
</svg>
