<?xml version="1.0" encoding="utf-8"?>
<!-- Generator: Adobe Illustrator 24.3.0, SVG Export Plug-In . SVG Version: 6.00 Build 0)  -->
<svg version="1.1" id="Layer_1" xmlns="http://www.w3.org/2000/svg" xmlns:xlink="http://www.w3.org/1999/xlink" x="0px" y="0px"
	 viewBox="0 0 610 183.9" style="enable-background:new 0 0 610 183.9;" xml:space="preserve">
<style type="text/css">
	.st0{fill:#044F7A;}
	.st1{fill:url(#SVGID_1_);}
</style>
<g>
	<g>
		<path class="st0" d="M37.5,157.4c-9.5,0-17.5-3.1-23.8-9.3c-6.4-6.2-9.5-13.9-9.5-23.1c0-9.2,3.2-16.9,9.5-23.1
			c6.4-6.2,14.3-9.3,23.8-9.3c6.2,0,11.8,1.4,16.8,4.3c5.1,2.9,8.9,6.7,11.5,11.5l-14,8c-1.3-2.5-3.2-4.5-5.8-6
			c-2.6-1.5-5.5-2.2-8.7-2.2c-4.9,0-8.9,1.6-12.1,4.7c-3.2,3.2-4.8,7.2-4.8,12.1c0,4.8,1.6,8.8,4.8,12c3.2,3.2,7.3,4.7,12.1,4.7
			c3.3,0,6.2-0.7,8.8-2.1c2.6-1.4,4.5-3.4,5.8-6l14.2,7.9c-2.8,4.8-6.7,8.7-11.8,11.6C49.3,156,43.7,157.4,37.5,157.4"/>
	</g>
	<rect x="75.7" y="69.5" class="st0" width="16.3" height="86.2"/>
	<g>
		<path class="st0" d="M122.7,137.2c3.2,3.2,7.3,4.8,12.2,4.8c4.9,0,9-1.6,12.3-4.8c3.3-3.2,4.9-7.2,4.9-12.2c0-4.9-1.6-9-4.9-12.2
			c-3.3-3.2-7.4-4.8-12.3-4.8c-4.9,0-9,1.6-12.2,4.8c-3.2,3.2-4.9,7.2-4.9,12.2C117.8,129.9,119.4,134,122.7,137.2 M158.7,148
			c-6.5,6.3-14.4,9.4-23.8,9.4c-9.4,0-17.3-3.1-23.7-9.4c-6.5-6.3-9.7-13.9-9.7-23c0-9.1,3.2-16.8,9.7-23c6.4-6.3,14.4-9.4,23.7-9.4
			c9.4,0,17.3,3.1,23.8,9.4c6.5,6.3,9.7,13.9,9.7,23C168.4,134.1,165.2,141.8,158.7,148"/>
		<path class="st0" d="M220.4,94.3h16.3v61.4h-16.3v-6.9c-4,5.7-10.2,8.6-18.8,8.6c-6.9,0-12.6-2.2-17.1-6.8
			c-4.5-4.5-6.8-10.7-6.8-18.7V94.3h16.3V130c0,4.1,1.1,7.2,3.4,9.4c2.3,2.2,5.3,3.3,9.1,3.3c4.2,0,7.6-1.3,10.1-3.8
			c2.5-2.5,3.8-6.3,3.8-11.4V94.3z"/>
		<path class="st0" d="M267.6,137.5c3.3,3.2,7.5,4.8,12.6,4.8s9.2-1.6,12.5-4.8c3.3-3.2,4.9-7.4,4.9-12.5c0-5.1-1.6-9.2-4.9-12.5
			c-3.3-3.2-7.5-4.8-12.5-4.8s-9.2,1.6-12.6,4.8c-3.3,3.2-5,7.4-5,12.5C262.6,130.1,264.2,134.2,267.6,137.5 M297.6,69.8h16.3v85.9
			h-16.3v-7.2c-4.8,6-11.6,9-20.5,9c-8.5,0-15.8-3.1-21.8-9.4c-6-6.3-9-13.9-9-23c0-9.1,3-16.8,9-23c6-6.3,13.3-9.4,21.8-9.4
			c8.9,0,15.7,3,20.5,9V69.8z"/>
		<path class="st0" d="M364.4,109.5h-14.3v25.5c0,2.1,0.5,3.7,1.6,4.7c1.1,1,2.7,1.5,4.8,1.7c2.1,0.1,4.7,0.1,7.8-0.1v14.4
			c-11.2,1.2-19.1,0.2-23.7-3.1c-4.6-3.3-6.9-9.1-6.9-17.6v-25.5h-11V94.3h11V81.9l16.3-4.8v17.2h14.3V109.5z"/>
		<path class="st0" d="M374.6,94.3H391v61.4h-16.3V94.3z M382.7,87c-2.7,0-5-1-7-2.9c-2-1.9-3-4.2-3-6.8c0-2.6,1-4.9,3-6.9
			c2-2,4.3-2.9,7-2.9c2.8,0,5.2,1,7.1,2.9c2,2,3,4.3,3,6.9c0,2.6-1,4.9-3,6.8C387.9,86,385.5,87,382.7,87"/>
		<path class="st0" d="M434.7,157.4c-9.5,0-17.5-3.1-23.8-9.3c-6.4-6.2-9.5-13.9-9.5-23.1c0-9.2,3.2-16.9,9.5-23.1
			c6.4-6.2,14.3-9.3,23.8-9.3c6.2,0,11.8,1.4,16.8,4.3c5.1,2.9,8.9,6.7,11.5,11.5l-14,8c-1.3-2.5-3.2-4.5-5.8-6
			c-2.6-1.5-5.5-2.2-8.7-2.2c-4.9,0-8.9,1.6-12.1,4.7c-3.2,3.2-4.8,7.2-4.8,12.1c0,4.8,1.6,8.8,4.8,12c3.2,3.2,7.3,4.7,12.1,4.7
			c3.3,0,6.2-0.7,8.8-2.1c2.6-1.4,4.5-3.4,5.8-6l14.2,7.9c-2.8,4.8-6.7,8.7-11.8,11.6C446.5,156,440.9,157.4,434.7,157.4"/>
		<path class="st0" d="M470.6,94.3h16.3v61.4h-16.3V94.3z M478.7,87c-2.7,0-5-1-7-2.9c-2-1.9-3-4.2-3-6.8c0-2.6,1-4.9,3-6.9
			c2-2,4.3-2.9,7-2.9c2.8,0,5.2,1,7.1,2.9c2,2,3,4.3,3,6.9c0,2.6-1,4.9-3,6.8C483.9,86,481.5,87,478.7,87"/>
		<path class="st0" d="M536.8,109.5h-14.3v25.5c0,2.1,0.5,3.7,1.6,4.7c1.1,1,2.7,1.5,4.8,1.7c2.1,0.1,4.7,0.1,7.8-0.1v14.4
			c-11.2,1.2-19.1,0.2-23.7-3.1c-4.6-3.3-6.9-9.1-6.9-17.6v-25.5h-11V94.3h11V81.9l16.3-4.8v17.2h14.3V109.5z"/>
		<path class="st0" d="M589.6,94.3h17.5L584,155.8c-3.3,8.8-7.6,15.1-13.1,19.1c-5.4,4-12.2,5.8-20.3,5.3v-14.7
			c4.4,0.1,7.9-0.8,10.4-2.7c2.6-1.9,4.6-4.9,6.1-9.1l-25.9-59.4h17.8l16.5,41.3L589.6,94.3z"/>
	</g>
</g>
<linearGradient id="SVGID_1_" gradientUnits="userSpaceOnUse" x1="8.3595" y1="47.8845" x2="193.7852" y2="47.8845">
	<stop  offset="0" style="stop-color:#9FC3E5"/>
	<stop  offset="0.2092" style="stop-color:#8CB3DD"/>
	<stop  offset="0.6389" style="stop-color:#5C91C9"/>
	<stop  offset="1" style="stop-color:#2377B9"/>
</linearGradient>
<path class="st1" d="M193.8,82.2c-3.5-24.6-24-43.7-49.2-45.1c-8.2-19.6-27.5-33.5-50-33.5C67.3,3.7,44.7,23.9,41,50.2
	C22.6,53,8.4,68.9,8.4,88.1c0,1.3,0.1,2.7,0.3,4c4.5-4.6,10-7.5,16.5-8.5c1.7-8.2,8-14.8,16.1-16.9c1.8-0.5,3.7-0.7,5.6-0.7
	c4.6,0,8.8,1.4,12.3,3.7c-1.3-3.7-2-7.7-2-11.9c0-2.2,0.2-4.4,0.6-6.5c3.1-17.5,18.4-30.9,36.8-30.9c13.8,0,25.9,7.6,32.4,18.7
	c2.7,4.6,4.4,9.9,4.9,15.5c3.2-0.9,6.5-1.4,9.9-1.4c2.3,0,4.6,0.2,6.8,0.7c14.4,2.7,25.8,14,28.8,28.3H193.8z"/>
</svg>
