<?xml version="1.0" encoding="UTF-8"?>
<svg width="194px" height="32px" viewBox="0 0 194 32" version="1.1" xmlns="http://www.w3.org/2000/svg" xmlns:xlink="http://www.w3.org/1999/xlink">
    <!-- Generator: Sketch 46.2 (44496) - http://www.bohemiancoding.com/sketch -->
    <title>Group 4</title>
    <desc>Created with Sketch.</desc>
    <defs></defs>
    <g id="hs" stroke="none" stroke-width="1" fill="none" fill-rule="evenodd">
        <g id="Health-Samurai" transform="translate(-623.000000, -4430.000000)">
            <g id="Group-4" transform="translate(623.000000, 4430.000000)">
                <g id="circle-logo" fill-rule="nonzero">
                    <circle id="Oval" fill="#EA4A35" cx="16" cy="16" r="16"></circle>
                    <path d="M8.78460544,16.2473428 C8.70890368,16.0202375 8.63320192,15.9445357 8.40609664,15.9445357 C7.73482693,15.9375103 7.06472037,15.8869362 6.4,15.7931322 C6.47406443,16.2031216 6.57522187,16.6077511 6.70280704,17.0043604 C7.19486848,18.8212026 8.40609664,19.9567291 10.2229389,20.6758958 C11.1313601,21.0165537 14.4622375,21.3950625 14.6893428,21.3950625 C13.7430708,20.9408519 12.7589479,20.4866414 11.8126759,19.9188782 C10.3572381,19.143952 9.26834523,17.8236693 8.78460544,16.2473428 L8.78460544,16.2473428 Z M13.1904479,13.8627373 C12.7362374,13.6734829 12.3198777,13.5220794 11.8656671,13.332825 C10.5787372,12.8029126 10.6165881,12.9543162 9.51891253,12.1972986 C9.24192656,12.9630275 9.08860443,13.7679686 9.06470197,14.581904 C9.04797221,16.1364045 9.76292075,17.6083574 10.9950969,18.5562465 C12.3198777,19.653922 13.4554041,20.1081326 15.0451411,20.6380449 C15.2722463,20.7137467 15.4236499,20.7894484 15.7643078,20.9030011 C15.7643078,20.297387 15.8400096,17.4207201 15.6129043,16.5122989 C15.3479481,15.2632199 14.4773779,14.3926496 13.1904479,13.8627373 L13.1904479,13.8627373 Z M18.4895712,13.3252548 C17.706058,10.0965747 16.0671149,8.53333333 16.0671149,8.53333333 C16.0671149,8.53333333 14.4054612,10.153351 13.6370883,13.3252548 C14.8728267,13.7583864 15.7936619,14.8040077 16.0671149,16.084584 C16.4229131,13.938439 18.4895712,13.3252548 18.4895712,13.3252548 L18.4895712,13.3252548 Z M23.3306988,16.2473428 C22.846959,17.8236693 21.7580661,19.143952 20.3026284,19.9188782 C19.3563564,20.4866414 18.3722335,20.9408519 17.4259614,21.3950625 C17.6530668,21.3950625 20.9839442,21.0165537 21.8923653,20.6758958 C23.7092076,19.9567291 24.9204358,18.8212026 25.4124972,17.0043604 C25.5400825,16.6077511 25.6412398,16.2031216 25.7153043,15.7931322 C25.0505839,15.8869362 24.3804773,15.9375103 23.7092076,15.9445357 C23.4821023,15.9445357 23.4064006,16.0202375 23.3306988,16.2473428 L23.3306988,16.2473428 Z M18.9399967,13.8627373 C17.6530668,14.3926496 16.7824965,15.2632199 16.5175403,16.5122989 C16.290435,17.4207201 16.3661368,20.297387 16.3661368,20.9030011 C16.7067947,20.7894484 16.8581982,20.7137467 17.0853035,20.6380449 C18.6750405,20.1081326 19.8105669,19.653922 21.1353477,18.5562465 C22.3675239,17.6083574 23.0824724,16.1364045 23.0657427,14.581904 C23.0418402,13.7679686 22.8885181,12.9630275 22.6115321,12.1972986 C21.5138565,12.9543162 21.5517074,12.8029126 20.2647775,13.332825 C19.8105669,13.5220794 19.3942073,13.6734829 18.9399967,13.8627373 L18.9399967,13.8627373 Z" id="samurai-copy" fill="#FFFFFF"></path>
                </g>
                <path d="M43.9491327,22 L43.9491327,10.0966797 L47.2445428,10.0966797 L47.2445428,14.5541992 L51.4779413,14.5541992 L51.4779413,10.0966797 L54.7816522,10.0966797 L54.7816522,22 L51.4779413,22 L51.4779413,17.4760742 L47.2445428,17.4760742 L47.2445428,22 L43.9491327,22 Z M56.3643584,22 L56.3643584,10.0966797 L65.9351592,10.0966797 L65.9351592,12.9023438 L59.6265655,12.9023438 L59.6265655,14.7036133 L65.337503,14.7036133 L65.337503,17.3100586 L59.6265655,17.3100586 L59.6265655,19.1943359 L66.018167,19.1943359 L66.018167,22 L56.3643584,22 Z M66.2312443,22 L71.3030217,10.0136719 L74.4822209,10.0136719 L79.5456975,22 L76.0095646,22 L75.1379826,19.875 L70.5476506,19.875 L69.7009709,22 L66.2312443,22 Z M71.518842,17.3100586 L74.1916935,17.3100586 L72.8635685,13.9233398 L71.518842,17.3100586 Z M80.1821146,22 L80.1821146,10.0966797 L83.4775248,10.0966797 L83.4775248,19.1113281 L89.2465677,19.1113281 L89.2465677,22 L80.1821146,22 Z M87.7662857,12.9936523 L87.7662857,10.0966797 L98.2086685,10.0966797 L98.2086685,12.9936523 L94.6310318,12.9936523 L94.6310318,22 L91.3356216,22 L91.3356216,12.9936523 L87.7662857,12.9936523 Z M99.1273122,22 L99.1273122,10.0966797 L102.422722,10.0966797 L102.422722,14.5541992 L106.656121,14.5541992 L106.656121,10.0966797 L109.959832,10.0966797 L109.959832,22 L106.656121,22 L106.656121,17.4760742 L102.422722,17.4760742 L102.422722,22 L99.1273122,22 Z M114.826904,20.2319336 L116.669678,18.0405273 C117.859462,18.992355 119.146071,19.4682617 120.529541,19.4682617 C120.966718,19.4682617 121.301513,19.3949389 121.533936,19.248291 C121.766359,19.1016431 121.882568,18.8899753 121.882568,18.6132812 C121.882568,18.3587227 121.745607,18.1512052 121.47168,17.9907227 C121.197753,17.8302401 120.667891,17.6586923 119.88208,17.4760742 C119.478107,17.3819982 119.128094,17.2948409 118.832031,17.2145996 C118.535969,17.1343583 118.221925,17.0333665 117.889893,16.9116211 C117.55786,16.7898757 117.275636,16.6625983 117.043213,16.5297852 C116.81079,16.396972 116.583904,16.2364918 116.362549,16.0483398 C116.141194,15.8601879 115.964112,15.6568208 115.831299,15.4382324 C115.698486,15.2196441 115.59196,14.9637059 115.511719,14.6704102 C115.431477,14.3771144 115.391357,14.0561541 115.391357,13.7075195 C115.391357,12.5841415 115.807776,11.6682978 116.640625,10.9599609 C117.473474,10.2516241 118.592685,9.89746094 119.998291,9.89746094 C121.951751,9.89746094 123.584222,10.4231718 124.895752,11.4746094 L123.243896,13.8071289 C122.131586,13.0268516 121.02206,12.6367188 119.915283,12.6367188 C119.527911,12.6367188 119.231853,12.7100416 119.0271,12.8566895 C118.822346,13.0033373 118.719971,13.1956368 118.719971,13.4335938 C118.719971,13.7102878 118.856932,13.9247225 119.130859,14.0769043 C119.404787,14.229086 119.954016,14.3992504 120.778564,14.5874023 C121.509037,14.7478849 122.128822,14.923583 122.637939,15.114502 C123.147057,15.3054209 123.604978,15.5447577 124.011719,15.8325195 C124.418459,16.1202814 124.721435,16.4702942 124.920654,16.8825684 C125.119874,17.2948426 125.219482,17.7776665 125.219482,18.3310547 C125.219482,19.531907 124.782312,20.4781866 123.907959,21.1699219 C123.033606,21.8616571 121.865974,22.2075195 120.405029,22.2075195 C119.331456,22.2075195 118.313237,22.0401221 117.350342,21.7053223 C116.387446,21.3705224 115.546309,20.8793978 114.826904,20.2319336 Z M125.083927,22 L130.155704,10.0136719 L133.334903,10.0136719 L138.39838,22 L134.862247,22 L133.990665,19.875 L129.400333,19.875 L128.553653,22 L125.083927,22 Z M130.371525,17.3100586 L133.044376,17.3100586 L131.716251,13.9233398 L130.371525,17.3100586 Z M139.034797,22 L139.034797,10.0966797 L142.521125,10.0966797 L145.359993,14.7036133 L148.19886,10.0966797 L151.685188,10.0966797 L151.685188,22 L148.398078,22 L148.398078,15.168457 L145.359993,19.8251953 L145.293586,19.8251953 L142.263801,15.2016602 L142.263801,22 L139.034797,22 Z M153.11848,16.7788086 L153.11848,10.0966797 L156.463695,10.0966797 L156.463695,16.7124023 C156.463695,17.5480185 156.657378,18.1788716 157.044749,18.6049805 C157.432121,19.0310894 157.9689,19.2441406 158.655101,19.2441406 C159.341302,19.2441406 159.878081,19.0393901 160.265453,18.6298828 C160.652824,18.2203756 160.846507,17.6088908 160.846507,16.7954102 L160.846507,10.0966797 L164.200023,10.0966797 L164.200023,16.6958008 C164.200023,17.6420946 164.069979,18.4693975 163.809886,19.1777344 C163.549794,19.8860713 163.173495,20.4615863 162.68098,20.9042969 C162.188464,21.3470074 161.603265,21.6776519 160.925365,21.8962402 C160.247464,22.1148286 159.47965,22.2241211 158.621898,22.2241211 C156.878725,22.2241211 155.525711,21.771733 154.562816,20.8669434 C153.59992,19.9621537 153.11848,18.5994557 153.11848,16.7788086 Z M165.633315,22 L165.633315,10.0966797 L171.261245,10.0966797 C172.99335,10.0966797 174.285492,10.5227822 175.13771,11.375 C175.840513,12.077803 176.191909,13.0185488 176.191909,14.1972656 C176.191909,15.0771528 175.976091,15.8242157 175.544448,16.4384766 C175.112805,17.0527374 174.512388,17.5231103 173.743178,17.8496094 L176.582046,22 L172.771987,22 L170.373061,18.3974609 L168.928725,18.3974609 L168.928725,22 L165.633315,22 Z M168.928725,15.815918 L171.10353,15.815918 C171.662452,15.815918 172.096855,15.6872571 172.406753,15.4299316 C172.71665,15.1726061 172.871596,14.8170596 172.871596,14.3632812 C172.871596,13.9039691 172.715267,13.5539563 172.402602,13.3132324 C172.089938,13.0725086 171.651384,12.9521484 171.086928,12.9521484 L168.928725,12.9521484 L168.928725,15.815918 Z M176.172564,22 L181.244342,10.0136719 L184.423541,10.0136719 L189.487017,22 L185.950885,22 L185.079303,19.875 L180.488971,19.875 L179.642291,22 L176.172564,22 Z M181.460162,17.3100586 L184.133013,17.3100586 L182.804888,13.9233398 L181.460162,17.3100586 Z M190.189841,22 L190.189841,10.0966797 L193.510153,10.0966797 L193.510153,22 L190.189841,22 Z" id="HEALTH-SAMURAI" fill="#404040"></path>
            </g>
        </g>
    </g>
</svg>