<svg width="45" height="45" viewBox="0 0 45 45" fill="none" xmlns="http://www.w3.org/2000/svg">
<path d="M22.3542 8.875C22.3542 8.875 24.8648 12.9664 24.4485 16.994C24.0069 21.0472 21.307 22.8826 19.9697 25.9798C18.6449 29.0897 19.4145 32.3144 20.5248 33.1556C19.0613 32.0977 15.2133 30.1221 15.4908 24.8964C15.6296 23.2777 16.6137 20.3716 18.9856 17.5548C21.3701 14.738 22.9093 13.6037 22.3542 8.875Z" fill="#F5A89E"/>
<path d="M17.2476 31.074C17.2476 31.074 13.5517 28.5379 13.4085 24.6764C13.2654 22.9814 14.2154 20.3943 16.4798 18.4189C19.0825 16.1505 19.7983 15.6917 20.3318 15.1182C18.8353 16.8641 15.5688 20.2541 15.0352 23.1725C14.5147 26.091 15.5688 29.0986 17.2476 31.074Z" fill="#F5A89E"/>
<path d="M21.5692 33.1558C21.5692 33.1558 19.2661 29.8746 20.9446 26.3274C21.5172 25.2506 23.5341 22.9069 24.497 20.7659C25.4599 18.6123 25.6551 17.3074 25.603 15.8125C27.0864 17.8268 29.4937 23.819 26.7611 28.4431C27.6199 27.9237 28.8691 26.7582 29.3505 25.4913C29.1163 28.063 27.9192 32.8771 21.5692 33.1558Z" fill="#F5A89E"/>
<path d="M21.6831 32.4622C21.6831 32.4622 20.0742 29.9341 21.8967 27.4184C23.3633 25.3908 24.901 24.9653 25.7838 22.75C25.9404 25.0654 25.8407 28.1068 23.5768 30.6975C24.5166 30.5598 25.1003 30.2845 25.8835 29.8214C25.3566 30.8102 24.3599 32.0492 21.6831 32.4622Z" fill="#F5A89E"/>
<path d="M19.5825 31.7685C19.5825 31.7685 15.8854 27.1348 18.4849 22.3734C20.2757 18.9268 22.5864 18.7226 23.0948 13.7314C23.0948 17.3312 23.4414 19.0928 20.6454 23.101C18.8084 25.7306 18.3925 29.2665 19.5825 31.7685Z" fill="#F5A89E"/>
<path d="M24.3264 9.56836C24.3264 9.56836 25.3812 12.7713 22.2284 17.3854C19.9312 20.7233 15.407 25.6933 20.2125 31.7678C18.2668 29.657 16.3798 25.9878 18.4778 21.6437C20.4 17.6799 25.0413 15.1274 24.3264 9.56836Z" fill="#F5A89E"/>
<path d="M18.8968 4.19047C20.9079 3.02936 23.3857 3.02936 25.3968 4.19047L36.4445 10.5689C38.4556 11.73 39.6945 13.8758 39.6945 16.1981V28.9549C39.6945 31.2771 38.4556 33.423 36.4445 34.5841L25.3968 40.9625C23.3857 42.1236 20.9079 42.1236 18.8968 40.9625L7.84904 34.5841C5.83793 33.4229 4.59904 31.2771 4.59904 28.9549V16.1981C4.59904 13.8758 5.83793 11.73 7.84904 10.5689L18.8968 4.19047Z" stroke="#F5A89E" stroke-width="3"/>
</svg>
