<svg width="45" height="45" viewBox="0 0 45 45" fill="none" xmlns="http://www.w3.org/2000/svg">
<path d="M19.6976 4.19047C21.7087 3.02936 24.1865 3.02936 26.1976 4.19047L37.2453 10.5689C39.2564 11.73 40.4953 13.8758 40.4953 16.1981V28.9549C40.4953 31.2771 39.2564 33.423 37.2453 34.5841L26.1976 40.9625C24.1865 42.1236 21.7087 42.1236 19.6976 40.9625L8.64982 34.5841C6.63871 33.4229 5.39982 31.2771 5.39982 28.9549V16.1981C5.39982 13.8758 6.63872 11.73 8.64982 10.5689L19.6976 4.19047Z" stroke="#8D96B4" stroke-width="3"/>
<path d="M23.2307 29.0556L24.0836 29.9086L31.4157 22.5754L24.0836 15.2422L23.2307 16.0952L29.1073 21.9719H14.4766V23.1778H29.1073L23.2307 29.0556Z" fill="#8D96B4" stroke="#8D96B4"/>
</svg>
