<svg width="53" height="53" viewBox="0 0 53 53" fill="none" xmlns="http://www.w3.org/2000/svg">
<path d="M22.1406 2.70589C24.6158 1.27682 27.6654 1.27682 30.1406 2.70589L44.6573 11.0871C47.1325 12.5161 48.6573 15.1572 48.6573 18.0153V34.7777C48.6573 37.6358 47.1325 40.2768 44.6573 41.7059L30.1406 50.0871C27.6654 51.5161 24.6158 51.5161 22.1406 50.0871L7.62396 41.7059C5.14876 40.2768 3.62396 37.6358 3.62396 34.7777V18.0153C3.62396 15.1572 5.14876 12.5161 7.62396 11.0871L22.1406 2.70589Z" stroke="#EA4A35" stroke-width="3"/>
<path d="M27.6406 16.332C27.6406 15.5036 26.9691 14.832 26.1406 14.832C25.3122 14.832 24.6406 15.5036 24.6406 16.332H27.6406ZM25.08 38.3604C25.6658 38.9462 26.6155 38.9462 27.2013 38.3604L36.7472 28.8145C37.333 28.2287 37.333 27.279 36.7472 26.6932C36.1614 26.1074 35.2117 26.1074 34.6259 26.6932L26.1406 35.1785L17.6553 26.6932C17.0696 26.1074 16.1198 26.1074 15.534 26.6932C14.9482 27.279 14.9482 28.2287 15.534 28.8145L25.08 38.3604ZM24.6406 16.332L24.6406 37.2998H27.6406L27.6406 16.332H24.6406Z" fill="#EA4A35"/>
</svg>
