<svg width="45" height="45" viewBox="0 0 45 45" fill="none" xmlns="http://www.w3.org/2000/svg">
<path d="M32.1529 23.3787C31.8978 23.3756 31.645 23.4276 31.4119 23.5312C31.1788 23.6348 30.9708 23.7875 30.8022 23.979C30.382 24.3992 29.1515 24.5792 29.1515 23.3787V17.3759H24.3492C23.1487 17.3759 23.3287 16.1453 23.7489 15.7251C24.0208 15.482 24.2124 15.162 24.2984 14.8076C24.3844 14.4532 24.3608 14.081 24.2307 13.7403C24.1005 13.3996 23.87 13.1064 23.5696 12.8996C23.2692 12.6928 22.9131 12.582 22.5484 12.582C22.1837 12.582 21.8276 12.6928 21.5272 12.8996C21.2268 13.1064 20.9962 13.3996 20.8661 13.7403C20.736 14.081 20.7123 14.4532 20.7984 14.8076C20.8844 15.162 21.076 15.482 21.3478 15.7251C21.768 16.1453 21.9481 17.3759 20.7475 17.3759H15.9453V19.777C15.9453 20.9776 17.1759 20.7975 17.5961 20.3773C17.7647 20.1859 17.9727 20.0331 18.2058 19.9295C18.4389 19.8259 18.6916 19.7739 18.9467 19.777C19.2467 19.7784 19.5417 19.8547 19.8047 19.9991C20.0677 20.1434 20.2905 20.3512 20.4529 20.6035C20.6152 20.8559 20.7119 21.1448 20.7342 21.444C20.7565 21.7432 20.7037 22.0432 20.5806 22.3168C20.4574 22.5904 20.2679 22.8289 20.0292 23.0107C19.7904 23.1924 19.5101 23.3117 19.2136 23.3575C18.9171 23.4034 18.6138 23.3744 18.3313 23.2733C18.0488 23.1721 17.7961 23.002 17.5961 22.7784C17.1759 22.3582 15.9453 22.1781 15.9453 23.3787V30.582H23.1487C24.3492 30.582 24.1691 29.3515 23.7489 28.9313C23.5575 28.7627 23.4048 28.5547 23.3012 28.3216C23.1976 28.0885 23.1455 27.8357 23.1487 27.5806C23.1501 27.2806 23.2264 26.9857 23.3707 26.7226C23.5151 26.4596 23.7229 26.2368 23.9752 26.0745C24.2275 25.9122 24.5164 25.8155 24.8156 25.7932C25.1148 25.7709 25.4149 25.8237 25.6885 25.9468C25.9621 26.0699 26.2006 26.2595 26.3823 26.4982C26.5641 26.7369 26.6833 27.0173 26.7292 27.3138C26.775 27.6103 26.7461 27.9136 26.6449 28.196C26.5438 28.4785 26.3737 28.7312 26.1501 28.9313C25.7299 29.3515 25.5498 30.582 26.7503 30.582H29.1515V26.9804C29.1515 25.7798 30.382 25.9599 30.8022 26.3801C31.0023 26.6037 31.255 26.7738 31.5375 26.875C31.8199 26.9761 32.1232 27.005 32.4197 26.9592C32.7162 26.9133 32.9966 26.7941 33.2353 26.6124C33.474 26.4306 33.6636 26.1921 33.7867 25.9185C33.9098 25.6449 33.9626 25.3449 33.9403 25.0457C33.918 24.7464 33.8213 24.4576 33.659 24.2052C33.4967 23.9529 33.2739 23.7451 33.0108 23.6008C32.7478 23.4564 32.4529 23.3801 32.1529 23.3787Z" fill="#8AB1EA"/>
<path d="M19.6976 4.19047C21.7087 3.02936 24.1865 3.02936 26.1976 4.19047L37.2453 10.5689C39.2564 11.73 40.4953 13.8758 40.4953 16.1981V28.9549C40.4953 31.2771 39.2564 33.423 37.2453 34.5841L26.1976 40.9625C24.1865 42.1236 21.7087 42.1236 19.6976 40.9625L8.64982 34.5841C6.63871 33.4229 5.39982 31.2771 5.39982 28.9549V16.1981C5.39982 13.8758 6.63872 11.73 8.64982 10.5689L19.6976 4.19047Z" stroke="#8AB1EA" stroke-width="3"/>
</svg>
