<?xml version="1.0" encoding="UTF-8"?>
<svg width="133px" height="34px" viewBox="0 0 133 34" version="1.1" xmlns="http://www.w3.org/2000/svg" xmlns:xlink="http://www.w3.org/1999/xlink">
    <title>Group 19</title>
    <g id="Page-1" stroke="none" stroke-width="1" fill="none" fill-rule="evenodd">
        <g id="New-Aidbox" transform="translate(-297.000000, -6316.000000)">
            <g id="Group-19" transform="translate(297.000000, 6316.000000)">
                <g id="Group" transform="translate(43.000000, 3.000000)">
                    <g id="Group-18" fill="#FFFFFF">
                        <path d="M13.1466426,9.15125456 L13.1466426,9.15125456 L13.1466426,9.15125456 L13.1466426,2.82240387 C13.1466426,1.26363326 14.4102758,2.86341517e-16 15.9690465,0 L16.5438505,0 L16.5438505,0 L23.1135146,0 L23.1135146,2.82240387 L16.5438505,2.82240387 L16.5438505,4.63442056 L22.4911253,4.63442056 L22.4911253,7.25641706 L16.5438505,7.25641706 L16.5438505,9.15193682 L23.1999575,9.15193682 L23.1999575,11.9743407 L16.4554949,11.9743407 L15.9697287,11.9743407 C14.4105813,11.9743407 13.1466426,10.710402 13.1466426,9.15125456 Z" id="Path"></path>
                        <polygon id="Path" points="38.6665959 11.9743407 38.6665959 0 42.0403626 0 42.0403626 9.06843375 47.9465789 9.06843375 47.9465789 11.9743407"></polygon>
                        <polygon id="Path" points="47.1732469 2.91425726 47.1732469 0 57.9998938 0 57.9998938 2.91425726 54.2906054 2.91425726 54.2906054 11.9743407 50.8739291 11.9743407 50.8739291 2.91425726"></polygon>
                        <path d="M59.5465576,8.6807171 L59.5465576,0 L59.5465576,0 L62.8401812,0 L62.8401812,4.48411503 L67.0712846,4.48411503 L67.0712846,0 C68.8948846,-3.34989884e-16 70.3732045,1.47831988 70.3732045,3.30191988 L70.3732045,11.9743407 L70.3732045,11.9743407 L67.0712846,11.9743407 L67.0712846,7.42342321 L62.8401812,7.42342321 L62.8401812,11.9743407 C61.0211631,11.9743407 59.5465576,10.4997352 59.5465576,8.6807171 Z" id="Path"></path>
                        <path d="M0,11.9743407 L0,7.97857735 L0,3.2936236 C-2.22765468e-16,1.47460551 1.47460551,3.34148201e-16 3.2936236,0 L3.2936236,0 L3.2936236,0 L3.2936236,4.48411503 L7.52472696,4.48411503 L7.52472696,0 L10.8266468,0 L10.8266468,8.67242082 C10.8266468,10.4960208 9.34832695,11.9743407 7.52472696,11.9743407 L7.52472696,11.9743407 L7.52472696,11.9743407 L7.52472696,7.42342321 L3.2936236,7.42342321 L3.2936236,11.9743407 L0,11.9743407 Z" id="Combined-Shape"></path>
                        <path d="M30.5531399,0 C31.5050532,-1.7486364e-16 32.3647355,0.569132701 32.7365056,1.44544656 L37.1247912,11.7892472 L33.631936,11.7892472 L32.771021,9.69918673 L28.2368686,9.69918673 L27.4005511,11.7892472 L23.9732894,11.7892472 L28.3689226,1.44508497 C28.7412486,0.568897173 29.6011254,1.74882233e-16 30.5531399,0 Z M30.6653101,3.95968482 L29.3370412,7.29071865 L31.9771806,7.29071865 L30.6653101,3.95968482 Z" id="Combined-Shape"></path>
                    </g>
                    <g id="Group-16" transform="translate(8.021032, 14.668567)">
                        <path d="M77.0189226,12.5138635 L77.0189226,5.34970263 L80.4809674,5.34970263 L80.4809674,7.46991014 L80.4809674,9.05181873 C80.4809674,10.9638533 78.9309571,12.5138635 77.0189226,12.5138635 L77.0189226,12.5138635 L77.0189226,12.5138635 Z" id="Combined-Shape" fill="#FFFFFF"></path>
                        <path d="M57.4956138,0.553652312 C59.3016562,0.553652312 60.6489551,0.979959044 61.5375511,1.8325853 C62.2703542,2.53572513 62.6367503,3.47692181 62.6367503,4.65620358 C62.6367503,5.5365125 62.4117196,6.2839334 61.9616516,6.89848868 C61.5115835,7.51304397 60.8855366,7.98364231 60.0834923,8.31029782 L63.0435406,12.4626776 L59.0708442,12.4626776 L56.5695168,8.85841196 L55.3950969,8.85841196 L55.3950969,12.4626776 L51.9664496,12.4626776 L51.9664496,0.553652312 L57.4956138,0.553652312 Z M56.9216445,3.14190253 L55.3016004,3.14190253 L55.3016004,6.0070446 L56.9389547,6.0070446 C57.5217352,6.0070446 57.9746815,5.87832212 58.2978073,5.62087328 C58.6209331,5.36342445 58.7824936,5.00770746 58.7824936,4.55371167 C58.7824936,4.09417934 58.6194906,3.74399881 58.2934797,3.50315957 C57.9674689,3.26232034 57.510195,3.14190253 56.9216445,3.14190253 Z" id="Combined-Shape" fill="#FFFFFF"></path>
                        <path d="M39.5264445,7.23898383 L39.5264445,0.553652312 L43.0144546,0.553652312 L43.0144546,7.17254575 C43.0144546,8.0085624 43.2164052,8.63971782 43.6203124,9.06603095 C44.0242197,9.49234408 44.2262087,9.70549744 44.9417016,9.70549744 C45.6571944,9.70549744 45.9695096,9.50064875 46.3734169,9.09094523 C46.7773241,8.6812417 46.9792747,8.06946386 46.9792747,7.25559335 L46.9792747,0.553652312 L50.47594,0.553652312 L50.47594,7.15593623 C50.47594,8.10268356 50.3403446,8.930383 50.0691497,9.63905937 C49.7979548,10.3477357 49.4055937,10.9235266 48.8920545,11.3664494 C48.3785153,11.8093721 47.768336,12.1401751 47.0614983,12.3588681 C46.3546606,12.5775612 45.8014472,12.6869062 44.9070811,12.6869062 C43.0894985,12.6869062 42.0364319,12.2343013 41.0324339,11.329078 C40.0284359,10.4238546 39.5264445,9.06050355 39.5264445,7.23898383 Z" id="Path" fill="#FFFFFF"></path>
                        <path d="M24.8197968,12.4626776 L24.8197968,1.55365231 C24.8197968,1.00136756 25.2675121,0.553652312 25.8197968,0.553652312 L28.4549439,0.553652312 L28.4549439,0.553652312 L31.4149922,5.16279392 L34.3750405,0.553652312 L37.0101875,0.553652312 C37.5624722,0.553652312 38.0101875,1.00136756 38.0101875,1.55365231 L38.0101875,12.4626776 L38.0101875,12.4626776 L34.5827631,12.4626776 L34.5827631,5.62786046 L31.4149922,10.2868306 C31.371666,10.2868306 31.3311362,10.2654304 31.3067015,10.2296518 L28.1866354,5.66107949 L28.1866354,5.66107949 L28.1866354,12.4626776 L24.8197968,12.4626776 Z" id="Path" fill="#FFFFFF"></path>
                        <path d="M0,10.8930781 L1.92143486,8.70062153 C3.16200711,9.65290539 4.50353605,10.1290402 5.94606193,10.1290402 C6.4019001,10.1290402 6.75098613,10.0556822 6.99333048,9.90896405 C7.23567482,9.7622459 7.35684518,9.55047665 7.35684518,9.27364994 C7.35684518,9.01896937 7.21403726,8.81135246 6.92841714,8.65079297 C6.64279701,8.49023348 6.09031789,8.3186035 5.27096319,8.13589787 C4.84974564,8.04177679 4.48479207,7.95457769 4.17609153,7.87429794 C3.86739099,7.7940182 3.53994253,7.69297796 3.19373632,7.57117421 C2.84753011,7.44937046 2.55325924,7.32203209 2.3109149,7.18915527 C2.06857055,7.05627845 1.83199986,6.89572137 1.60119572,6.70747921 C1.37039158,6.51923705 1.18575103,6.31577247 1.04726855,6.09707938 C0.908786065,5.87838628 0.797713239,5.62232542 0.714046738,5.32888911 C0.630380237,5.0354528 0.588547614,4.71433864 0.588547614,4.36553699 C0.588547614,3.24162056 1.02274139,2.32533791 1.89114197,1.61666155 C2.75954254,0.90798518 3.92652847,0.553652312 5.39213476,0.553652312 C7.4289813,0.553652312 9.1311363,1.07961516 10.4986508,2.13155664 L8.77628354,4.46519411 C7.61649274,3.6845428 6.45960434,3.294223 5.30558364,3.294223 C4.9016764,3.294223 4.59298049,3.36758097 4.37948666,3.51429913 C4.16599283,3.66101728 4.05924752,3.85340895 4.05924752,4.09147992 C4.05924752,4.36830663 4.20205544,4.58284411 4.48767556,4.73509879 C4.77329568,4.88735348 5.34596987,5.05759935 6.20571529,5.24584151 C6.96736895,5.406401 7.61361085,5.58218332 8.14446037,5.77319375 C8.67530989,5.96420418 9.15277879,6.20365569 9.5768814,6.49155546 C10.000984,6.77945523 10.3168924,7.12963576 10.5246162,7.54210755 C10.7323399,7.95457935 10.8362002,8.4376347 10.8362002,8.99128811 C10.8362002,10.192716 10.3803689,11.1394491 9.4686925,11.8315159 C8.55701615,12.5235827 7.33954257,12.8696109 5.81623525,12.8696109 C4.69683517,12.8696109 3.63515205,12.7021332 2.63115404,12.3671729 C1.62715603,12.0322126 0.750113455,11.5408526 0,10.8930781 Z" id="Path" fill="#FFFFFF"></path>
                        <path d="M69.7290174,0.553652312 C70.6828736,0.553652312 71.5434227,1.12648719 71.9115155,2.00645833 L76.320101,12.5457252 L72.8169175,12.5457252 L71.9534568,10.4197068 L67.4058969,10.4197068 L66.5671065,12.5457252 L63.1297104,12.5457252 L67.5456718,2.0061035 C67.914317,1.12625407 68.7750602,0.553652312 69.7290174,0.553652312 Z M69.8415193,4.58146074 L68.5093227,7.96980268 L71.157269,7.96980268 L69.8415193,4.58146074 Z" id="Combined-Shape" fill="#FFFFFF"></path>
                        <path d="M17.4579682,0.553652312 C18.4118243,0.553652312 19.2723735,1.12648719 19.6404662,2.00645833 L24.0490518,12.5457252 L20.5458682,12.5457252 L19.6824075,10.4197068 L15.1348476,10.4197068 L14.2960572,12.5457252 L10.8586611,12.5457252 L15.2746225,2.0061035 C15.6432677,1.12625407 16.504011,0.553652312 17.4579682,0.553652312 Z M17.57047,4.58146074 L16.2382735,7.96980268 L18.8862197,7.96980268 L17.57047,4.58146074 Z" id="Combined-Shape" fill="#FFFFFF"></path>
                        <path d="M78.7640646,0.0207991332 C79.7278799,0.0207991332 80.5092065,0.802125805 80.5092065,1.7659411 L80.5092065,3.44652281 L80.5092065,3.44652281 L77.0189226,3.44652281 L77.0189226,1.7659411 C77.0189226,0.802125805 77.8002493,0.0207991332 78.7640646,0.0207991332 Z" id="Rectangle-5" fill="#EA4A35"></path>
                    </g>
                </g>
                <g id="circle-logo" fill-rule="nonzero">
                    <circle id="Oval" fill="#EA4A35" cx="17" cy="17" r="17"></circle>
                    <path d="M9.43490458,17.6149072 C9.35616302,17.3693082 9.27742146,17.2874418 9.04119678,17.2874418 C8.34297228,17.2798443 7.64595763,17.2251518 6.95454545,17.1237091 C7.03158393,17.567085 7.13680334,18.0046645 7.26951169,18.4335705 C7.78133183,20.3983626 9.04119678,21.6263578 10.9309943,22.404088 C11.875893,22.7724865 15.3405216,23.1818182 15.5767463,23.1818182 C14.5924768,22.6906202 13.5688365,22.1994221 12.584567,21.5854246 C11.0706862,20.7473943 9.9380689,19.3195978 9.43490458,17.6149072 L9.43490458,17.6149072 Z M14.0176634,15.0361175 C13.5452141,14.8314516 13.1121355,14.667719 12.6396861,14.4630531 C11.3010796,13.8899888 11.3404503,14.0537214 10.1986977,13.2350581 C9.9105894,14.0631422 9.75111062,14.9336316 9.72624837,15.8138477 C9.70884683,17.494935 10.4525041,19.0867526 11.7341582,20.1118305 C13.1121355,21.2988924 14.2932589,21.7900904 15.9468316,22.3631548 C16.1830563,22.4450211 16.3405394,22.5268875 16.6948765,22.649687 C16.6948765,21.9947563 16.773618,18.8838354 16.5373934,17.9014394 C16.2617979,16.5506448 15.3562699,15.6091818 14.0176634,15.0361175 L14.0176634,15.0361175 Z M19.5295726,14.4548665 C18.7145975,10.9632672 17.0098427,9.27272727 17.0098427,9.27272727 C17.0098427,9.27272727 15.2814655,11.0246669 14.4822386,14.4548665 C15.7675979,14.9232691 16.7254092,16.0540378 17.0098427,17.4388946 C17.379928,15.1179838 19.5295726,14.4548665 19.5295726,14.4548665 L19.5295726,14.4548665 Z M24.5650954,17.6149072 C24.0619311,19.3195978 22.9293138,20.7473943 21.415433,21.5854246 C20.4311635,22.1994221 19.4075232,22.6906202 18.4232537,23.1818182 C18.6594784,23.1818182 22.124107,22.7724865 23.0690057,22.404088 C24.9588032,21.6263578 26.2186682,20.3983626 26.7304883,18.4335705 C26.8631967,18.0046645 26.9684161,17.567085 27.0454545,17.1237091 C26.3540424,17.2251518 25.6570277,17.2798443 24.9588032,17.2874418 C24.7225785,17.2874418 24.643837,17.3693082 24.5650954,17.6149072 L24.5650954,17.6149072 Z M19.9980849,15.0361175 C18.6594784,15.6091818 17.7539504,16.5506448 17.478355,17.9014394 C17.2421303,18.8838354 17.3208718,21.9947563 17.3208718,22.649687 C17.6752089,22.5268875 17.832692,22.4450211 18.0689167,22.3631548 C19.7224895,21.7900904 20.9036129,21.2988924 22.2815901,20.1118305 C23.5632443,19.0867526 24.3069015,17.494935 24.2895,15.8138477 C24.2646377,14.9336316 24.1051589,14.0631422 23.8170506,13.2350581 C22.6752979,14.0537214 22.7146687,13.8899888 21.3760622,14.4630531 C20.9036129,14.667719 20.4705343,14.8314516 19.9980849,15.0361175 L19.9980849,15.0361175 Z" id="samurai-copy" fill="#FFFFFF"></path>
                </g>
            </g>
        </g>
    </g>
</svg>