<svg width="173" height="50" viewBox="0 0 173 50" fill="none" xmlns="http://www.w3.org/2000/svg">
<path d="M59.7966 31.6164H59.6588L59.6097 31.7452L58.2148 35.4077H52.757L60.2123 16.8849C60.8133 15.3915 62.2173 14.4246 63.7677 14.4246C65.3181 14.4246 66.7221 15.3915 67.3232 16.8849L74.7784 35.4077H69.2042L67.7808 31.744L67.7313 31.6164H67.5944H59.7966ZM65.9771 27.4365H66.2652L66.1645 27.1665L63.9118 21.1307L63.7256 20.6319L63.5373 21.13L61.2557 27.1658L61.1534 27.4365H61.4428H65.9771ZM91.8852 30.3909V30.5909H92.0852H94.3668C96.0797 30.5909 97.527 30.0942 98.5475 29.1296C99.5696 28.1635 100.141 26.7496 100.141 24.9617C100.141 23.2181 99.5689 21.8052 98.5484 20.8287C97.529 19.8533 96.0821 19.3325 94.3668 19.3325H92.0852H91.8852V19.5325V30.3909ZM122.558 24.3248L122.104 24.5325L122.576 24.6957C123.784 25.1138 124.75 25.674 125.415 26.4734C126.077 27.269 126.455 28.3206 126.455 29.7539C126.455 31.5162 125.773 32.9193 124.515 33.8872C123.251 34.8601 121.386 35.4077 119.002 35.4077H108.776V14.5763H118.944C121.452 14.5763 123.181 15.2339 124.316 16.425C125.087 17.2351 125.56 18.3071 125.56 19.7751C125.56 20.9652 125.239 21.9018 124.71 22.6384C124.179 23.3769 123.43 23.926 122.558 24.3248ZM113.835 22.8385V23.0385H114.035H117.558C118.428 23.0385 119.14 22.8847 119.64 22.5363C120.152 22.179 120.415 21.6355 120.415 20.9277C120.415 20.295 120.174 19.7767 119.69 19.424C119.217 19.0783 118.533 18.9079 117.674 18.9079H114.035H113.835V19.1079V22.8385ZM113.835 30.8761V31.0761H114.035H118.367C119.242 31.0761 119.961 30.8977 120.467 30.5254C120.982 30.1463 121.253 29.583 121.253 28.8743C121.253 28.242 121.012 27.7014 120.504 27.3259C120.005 26.9569 119.27 26.7635 118.309 26.7635H114.035H113.835V26.9635V30.8761ZM152.406 14.5763H158.369L161.892 20.4542L162.062 20.7393L162.234 20.4548L165.786 14.5763H171.604L165.158 24.6415L165.089 24.7492L165.158 24.857L171.893 35.4077H165.93L162.119 29.1045L161.948 28.8225L161.777 29.1039L157.936 35.4077H152.119L158.852 24.9181L158.921 24.8105L158.853 24.7026L152.406 14.5763ZM82.5857 29.764C82.5857 32.8181 80.2548 35.2947 77.3539 35.404V14.5763H82.5857V29.764ZM105.488 24.9313C105.488 27.9474 104.444 30.5622 102.517 32.4232C100.589 34.2843 97.7613 35.4077 94.1646 35.4077H86.6824V14.5763H94.2802C97.8497 14.5763 100.648 15.6552 102.553 17.478C104.458 19.3003 105.488 21.884 105.488 24.9313ZM150.109 24.992C150.109 30.9827 145.515 35.8324 139.392 35.8324C133.269 35.8324 128.733 31.044 128.733 24.992C128.733 19.0013 133.326 14.1517 139.45 14.1517C145.572 14.1517 150.109 18.94 150.109 24.992ZM134.08 24.992C134.08 28.1379 136.252 30.9245 139.45 30.9245C142.677 30.9245 144.79 28.1977 144.79 24.992C144.79 21.8453 142.618 19.0595 139.392 19.0595C136.192 19.0595 134.08 21.7872 134.08 24.992Z" fill="white" stroke="#202431" stroke-width="0.4"/>
<path d="M13.1 45.6037L13.0401 39.4543L19.6719 43.2986C20.596 43.8343 21.7279 43.8093 22.6289 43.2336L29.0016 39.1622L28.9506 45.1783L22.3198 49.4132C21.5452 49.9079 20.5747 49.9294 19.7807 49.4699L13.1 45.6037ZM10.0009 37.5519L9.94981 43.6205L1.43105 38.2441C0.680767 37.7705 0.219531 36.9227 0.219531 36.0051V14.3973C0.219531 13.4876 0.672863 12.6459 1.41282 12.1699L10.2615 6.47772L10.2098 12.6423L6.54869 14.9975C5.69068 15.5495 5.17187 16.52 5.17187 17.5613V32.8094C5.17187 33.8599 5.6998 34.8376 6.57 35.3868L10.0009 37.5519ZM31.7974 13.0293L31.7382 6.93045L40.6888 12.4463C41.4519 12.9166 41.923 13.772 41.923 14.6995V36.0048C41.923 36.9507 41.4332 37.8201 40.6462 38.2837L32.0919 43.3226L32.0339 37.36L35.496 35.3209C36.4093 34.783 36.9699 33.7801 36.9699 32.6973V17.9334C36.9699 16.8718 36.4309 15.8854 35.5458 15.3399L31.7974 13.0293ZM22.3292 0.633284L29.285 5.41202L29.2347 11.4282L22.6152 6.87437C21.6759 6.22821 20.4606 6.20044 19.4946 6.80348L12.7636 11.0054L12.7043 4.90816L19.6484 0.573069C20.4786 0.054796 21.521 0.0780426 22.3292 0.633284Z" fill="white" stroke="#202431" stroke-width="0.4"/>
<path d="M17.2301 31.4656L17.7366 30.3686H24.725L26.0962 33.8669H31.6885L23.6764 14.1367H18.6487L10.6367 33.8669H13.5555C15.1236 33.8669 16.5526 32.9331 17.2301 31.4656ZM23.5394 26.1158H19.3285L21.434 20.4267L23.5394 26.1158Z" fill="#EA4A35"/>
<path d="M13.7579 33.8669H10.6367L18.6488 14.1367H23.6764L17.5757 31.116C16.9814 32.7701 15.4592 33.8669 13.7579 33.8669Z" fill="#C62712"/>
</svg>
