<svg width="165" height="26" viewBox="0 0 165 26" fill="none" xmlns="http://www.w3.org/2000/svg">
<path d="M29.8087 14.7547H29.5934L29.3956 14.7967H29.1978H29.0058L28.8081 14.8327H28.6277L28.4532 14.8688L28.2903 14.9108H28.1274L27.9703 14.9468L27.8248 14.9888L27.6794 15.0248L27.5398 15.0668L27.3246 15.1209L27.1267 15.1989L26.9289 15.2589L26.7544 15.3369L26.5915 15.415L26.4286 15.493L26.289 15.571L26.161 15.6491L25.9864 15.7811L25.8061 15.9192L25.6781 16.0512L25.556 16.2073L25.4862 16.3633L25.3931 16.5614L25.3407 16.7535L25.3058 16.9636V17.1617V17.3718L25.3407 17.5458L25.3931 17.7439L25.4629 17.9L25.5734 18.05L25.6956 18.1701L25.8061 18.2841L25.9458 18.3621L26.0912 18.4402L26.2541 18.4822L26.4286 18.5182L26.609 18.5542H26.9871H27.1617H27.342L27.5224 18.5182L27.6968 18.4762L27.8772 18.4222L28.0576 18.3621L28.2205 18.2841L28.395 18.2061L28.5578 18.1281L28.7033 18.032L28.8429 17.96L28.9884 17.864L29.128 17.7499L29.2734 17.6479L29.4131 17.5338L29.5411 17.4018L29.6807 17.2878L29.8087 17.1497V14.7547ZM30.1635 20.0548L30.1287 19.8748V19.6587L30.0938 19.4666L30.0413 19.2745L30.0064 19.0824V18.8663L29.9483 18.6743L29.8261 18.8123L29.6981 18.9323L29.5585 19.0464L29.4131 19.1664L29.2734 19.2745L29.128 19.3946L28.9651 19.4906L28.8081 19.6046L28.6452 19.7007L28.4881 19.8027L28.3426 19.8748L28.203 19.9528L28.0401 20.0128L27.8772 20.0668L27.7201 20.1088L27.5572 20.1629L27.3769 20.2049H27.1966H27.022H26.8417H26.6439H26.2541H26.0563H25.8585L25.6781 20.1629L25.5036 20.1208L25.3233 20.0668L25.1604 20.0068L25.0033 19.9468L24.8578 19.8748L24.7124 19.7787L24.5728 19.6827L24.4448 19.6107L24.3226 19.4906L24.1946 19.3525L24.0899 19.2205L23.9794 19.0644L23.8921 18.9084L23.8048 18.7523L23.7292 18.5722L23.6769 18.3982L23.6245 18.2061L23.5896 18.008L23.5547 17.8159V17.5998V17.1737V16.9576V16.7595L23.5896 16.5675L23.6419 16.3934L23.6943 16.2133L23.7525 16.0392L23.8223 15.8832L23.9096 15.7091L24.0027 15.571L24.1074 15.415L24.2121 15.2829L24.3401 15.1449L24.4623 15.0068L24.6077 14.8928L24.7532 14.7728L24.9102 14.6587L25.0905 14.5387L25.2127 14.4606L25.3582 14.3826L25.5036 14.3046L25.6432 14.2265L25.8061 14.1665L25.969 14.0944L26.1261 14.0345L26.3064 13.9744L26.4693 13.9144L26.6613 13.8544L26.8417 13.8184L27.0395 13.7583L27.1791 13.7223L27.342 13.6803H27.5049L27.6445 13.6443L27.8074 13.6023H27.9877L28.1448 13.5603L28.3252 13.5242H28.4881H28.6626L28.8429 13.4882H29.0233H29.2211L29.3956 13.4522H29.5934H29.7912V12.6059L29.7563 12.3658L29.7214 12.1737L29.6632 11.9936L29.5934 11.8196L29.5062 11.6815L29.3956 11.5435L29.2909 11.4714L29.1454 11.3754L29.0058 11.2974L28.8429 11.2373L28.6801 11.1773L28.5172 11.1113L28.3194 11.0692H28.1216H27.7318H27.5515H27.3536H27.1732H26.9988L26.8184 11.1052H26.638L26.481 11.1473L26.3006 11.2013L26.1378 11.2434L25.9574 11.3033L25.8003 11.3393L25.6083 11.4714L25.4454 11.5495L25.2709 11.6094L25.108 11.6635L24.9451 11.7415L24.7706 11.8016L24.6077 11.8796L24.4448 11.9576V11.7836L24.4099 11.5855V11.4114L24.3749 11.2193V11.0453L24.3401 10.8472V10.6791L24.3052 10.481V10.3129L24.4681 10.235L24.6309 10.1749L24.788 10.1149L24.9509 10.0428L25.1138 9.98286L25.2884 9.9228L25.4513 9.8868L25.6142 9.82674L25.7712 9.77274L25.9341 9.73076L26.097 9.67668L26.2541 9.6347L26.4344 9.5987H26.5973L26.7719 9.55664H26.9522H27.1326H27.3304H27.5224H27.7201H28.3019H28.5172H28.7266L28.9244 9.5987H29.1222L29.3025 9.64067L29.4771 9.67668L29.64 9.71873L29.8029 9.77274L29.9599 9.8328L30.1053 9.89277L30.245 9.97083L30.3904 10.0489L30.5184 10.1269L30.6406 10.2229L30.7511 10.319L30.8733 10.439L30.978 10.5771L31.0886 10.7091L31.1758 10.8472L31.2689 11.0032L31.3387 11.1773L31.4085 11.3514L31.4259 11.4714L31.4841 11.6635L31.519 11.8615L31.5539 12.0776V12.3117V12.5458V20.0548H30.1635Z" fill="#FFFEFE"/>
<path d="M38.7203 20.1145H38.54H38.3771H38.2025H38.0396H37.8593H37.6847H37.5218H37.3415H37.1844H37.004L36.9343 19.9405L36.876 19.7424L36.8063 19.5682L36.7539 19.3762L36.6841 19.1961L36.6259 19.0041L36.5561 18.8299L36.5038 18.6319L36.4339 18.4578L36.3758 18.2838L36.3059 18.0857L36.2536 17.9116L36.1838 17.7195L36.1256 17.5395L36.0558 17.3474L36.0034 17.1733L35.9336 16.9752L35.8754 16.8012L35.8057 16.6271L35.7532 16.429L35.6834 16.2549L35.6253 16.0568L35.5554 15.8828L35.5031 15.6908L35.4333 15.5107L35.3751 15.3186L35.3053 15.1445L35.253 14.9464L35.1831 14.7724L35.1075 14.5983L35.0552 14.4002L34.9853 14.2261L34.9272 14.0341L34.8573 13.854L34.805 13.6619L34.7352 13.4878L34.677 13.2898L34.6072 13.1157L34.5548 12.9416L34.4851 12.7436L34.4268 12.5695L34.3571 12.3774L34.3046 12.1974L34.2348 12.0053L34.1767 11.8312L34.1068 11.6331L34.0545 11.4591L33.9847 11.285L33.9265 11.0869L33.8567 10.9128L33.8044 10.7208L33.7345 10.5407L33.6764 10.3486L33.6066 10.1745L33.5542 9.97643L33.4844 9.80239L33.6589 9.76033L33.8393 9.74233L34.0196 9.70633L34.1942 9.68236L34.3919 9.64635L34.5723 9.6043L34.7526 9.5863L34.9272 9.55029L35.1075 9.52632L35.2879 9.49023L35.3402 9.66436L35.3925 9.86245L35.4682 10.0365L35.5205 10.2285L35.5729 10.4086L35.6253 10.6007L35.7009 10.7748L35.7532 10.9549L35.8057 11.1469L35.858 11.321L35.9336 11.5191L35.986 11.6932L36.0383 11.8672L36.0907 12.0653L36.1663 12.2394L36.2187 12.4315L36.271 12.6115L36.3234 12.8036L36.3932 12.9777L36.4514 13.1517L36.5038 13.3498L36.5561 13.5239L36.6259 13.7219L36.6841 13.896L36.7365 14.0881L36.7888 14.2682L36.8586 14.4422L36.9168 14.6343L36.9691 14.8144L37.0215 15.0065L37.0914 15.1805L37.1437 15.3786L37.2018 15.5526L37.2542 15.7268L37.324 15.9248L37.3822 16.0989L37.4346 16.297L37.4869 16.471L37.5567 16.6451L37.6091 16.8372L37.6673 17.0172L37.7196 17.2093L37.7894 17.3834L37.8418 17.5815L37.8942 17.7555L37.9524 17.5815L38.0047 17.3834L38.0745 17.2093L38.1268 17.0172L38.1851 16.8372L38.2374 16.6451L38.2897 16.471L38.3596 16.2729L38.4177 16.0989L38.4701 15.9068L38.5225 15.7268L38.5748 15.5526L38.6504 15.3606L38.7028 15.1805L38.7552 14.9885L38.8075 14.8144L38.8599 14.6163L38.9355 14.4422L38.9879 14.2441L39.0402 14.0701L39.0926 13.878L39.1624 13.6979L39.2206 13.5239L39.273 13.3318L39.3253 13.1517L39.3777 12.9596L39.4533 12.7856L39.5057 12.5875L39.558 12.4134L39.6103 12.2214L39.6686 12.0413L39.7383 11.8492L39.7907 11.6751L39.8431 11.4951L39.9012 11.303L39.9536 11.1289L40.0234 10.9308L40.0758 10.7568L40.1281 10.5587L40.1863 10.3847L40.2387 10.1925L40.3085 10.0185L40.3608 9.82039L40.419 9.64635H40.5936H40.7914H40.9717H41.152H41.344H41.5244H41.7047H41.8851H42.0771H42.2574L42.2051 9.82039L42.1352 10.0185L42.0771 10.1925L42.0073 10.3847L41.9549 10.5587L41.8851 10.7568L41.8269 10.9308L41.7571 11.1049L41.7047 11.303L41.6349 11.4771L41.5767 11.6751L41.5069 11.8492L41.4546 12.0233L41.3847 12.2214L41.3266 12.3954L41.2568 12.5875L41.2044 12.7676L41.1288 12.9596L41.0764 13.1337L41.024 13.3138L40.9543 13.5058L40.9019 13.6799L40.8263 13.878L40.7739 14.0521L40.7041 14.2441L40.6517 14.4242L40.5761 14.5983L40.5237 14.7904L40.4539 14.9644L40.4016 15.1625L40.3259 15.3366L40.2736 15.5107L40.2038 15.7088L40.1456 15.8828L40.0758 16.0809L40.0234 16.2549L39.9536 16.4471L39.9012 16.6271L39.8431 16.8012L39.7732 16.9932L39.7209 17.1733L39.6453 17.3654L39.5929 17.5395L39.5231 17.7375L39.4708 17.9116L39.401 18.0857L39.3428 18.2838L39.273 18.4578L39.2206 18.6499L39.145 18.8299L39.0926 19.0041L39.0228 19.1961L38.9704 19.3762L38.9006 19.5682L38.8424 19.7424L38.7726 19.9405L38.7203 20.1145Z" fill="#FFFEFE"/>
<path d="M44.5335 20.0549V9.67081H46.2788V20.0549H44.5335ZM46.5522 6.31545V6.50752L46.5173 6.6996L46.4475 6.85566L46.3544 7.01173L46.2497 7.16779L46.1043 7.28783L45.9646 7.40188L45.8017 7.4619L45.6272 7.50392H45.4468H45.2665L45.0861 7.4619L44.9291 7.40188L44.7662 7.26982L44.6266 7.14978L44.4986 6.99372L44.4113 6.83765L44.3415 6.68159L44.3008 6.48952V6.29744V6.09936L44.3415 5.90728L44.4113 5.72721L44.4986 5.57115L44.6266 5.41509L44.7662 5.30104L44.9117 5.205L45.0687 5.12698L45.249 5.08496H45.4294H45.6097L45.7843 5.12698L45.9472 5.205L46.0868 5.30104L46.2323 5.41509L46.337 5.57115L46.4301 5.72721L46.4998 5.90728L46.5347 6.09936L46.5522 6.31545Z" fill="#FFFEFE"/>
<path d="M55.0232 13.0214V12.8233L54.9883 12.6131L54.9535 12.4331L54.9186 12.241L54.8487 12.0729L54.7731 11.8989L54.6975 11.7548L54.5928 11.5988L54.4531 11.4728L54.3135 11.3346L54.1681 11.2207L54.0052 11.1185L53.8481 11.0406L53.6852 10.9686L53.534 10.9145L53.3129 10.8725L53.1151 10.8304H52.6845L52.4867 10.8725L52.3123 10.9085L52.1318 10.9686L51.9515 11.0226L51.7886 11.1246L51.649 11.2207L51.5036 11.3346L51.3814 11.4728L51.2535 11.6288L51.1661 11.7848L51.0789 11.9589L51.0032 12.139L50.9334 12.3131L50.8811 12.4871V12.7032L50.8462 12.8953V13.3095L50.8811 13.5015L50.916 13.6936L50.9509 13.8736L51.0207 14.0297L51.0963 14.2038L51.1836 14.3598L51.2883 14.4979L51.4163 14.6299L51.5385 14.768L51.6839 14.882L51.8294 14.9841L51.9865 15.0621L52.1494 15.1402L52.3297 15.1762L52.5216 15.2182L52.702 15.2542H53.1151H53.2896L53.47 15.2182L53.6329 15.1762L53.7899 15.1161L53.9528 15.0381L54.0982 14.9601L54.2204 14.864L54.3484 14.75L54.4706 14.6299L54.5811 14.4739L54.6858 14.3359L54.7731 14.1618L54.8487 14.0057L54.9186 13.8137L54.9535 13.6336L54.9883 13.4415L55.0232 13.2434V13.0214ZM53.1151 19.4919L52.9173 19.4559L52.7369 19.4138H52.5798L52.4344 19.3719H52.2541L52.062 19.3118L51.8643 19.2758L51.6665 19.3719L51.4861 19.4678L51.3116 19.5639L51.1487 19.6839L51.0032 19.78L50.8811 19.882L50.7531 19.9961L50.6251 20.0561L50.532 20.1762L50.4099 20.3322L50.3051 20.4883L50.2295 20.6624L50.1771 20.8364L50.1422 21.0105V21.1906V21.3646L50.1946 21.5387L50.2644 21.6948L50.375 21.8508L50.5146 21.9888L50.6949 22.1209L50.9101 22.2409L51.0149 22.301L51.1603 22.3611L51.3058 22.4151L51.4454 22.457L51.6083 22.493L51.7654 22.5351L51.9283 22.5711H52.1086H52.3064H52.4984H52.6962H53.342H53.5572H53.7724H53.9644H54.1622L54.3426 22.5351L54.5171 22.493L54.68 22.457L54.8429 22.421L54.9826 22.3611L55.1279 22.301L55.2792 22.277L55.4014 22.2229L55.5992 22.0849L55.7563 21.9649L55.8843 21.8328L56.0064 21.6948L56.0995 21.5567L56.1518 21.4006L56.1867 21.2446V21.0885V20.8964L56.1344 20.7164L56.0472 20.5663L55.9366 20.4042L55.7796 20.2722L55.669 20.1942L55.5468 20.1341L55.4188 20.0561L55.2559 19.9961L55.0989 19.9421L54.9011 19.882L54.7032 19.822L54.4706 19.786L54.2379 19.726L54.0459 19.6839L53.8655 19.6479L53.6678 19.606H53.47L53.2954 19.5639L53.1151 19.4919ZM57.8855 20.8184V21.0105V21.2086L57.8507 21.4006L57.8158 21.5807L57.7401 21.7548L57.6878 21.9289L57.6004 22.0849L57.5074 22.2409L57.4027 22.3971L57.298 22.5351L57.17 22.6672L57.0478 22.7872L56.9198 22.9252L56.7744 23.0393L56.6173 23.1354L56.4544 23.2554L56.3147 23.3334L56.1518 23.4114L55.9889 23.4895L55.8319 23.5675L55.6516 23.6275L55.4712 23.6815L55.2908 23.7416L55.1163 23.8016L54.9186 23.8376L54.7382 23.8796L54.5578 23.9156H54.3833H54.203L54.0226 23.9516H53.8306H53.6503H53.4525H52.6845H52.4867H52.3123H52.1318H51.9515H51.7712H51.5967L51.4163 23.9097H51.2535L51.0789 23.8676L50.8986 23.8136L50.7182 23.7716L50.5553 23.7116L50.3808 23.6576L50.2353 23.5975L50.0782 23.5375L49.9328 23.4775L49.7873 23.3994L49.6129 23.3034L49.4616 23.1773L49.3162 23.0573L49.1765 22.9432L49.0485 22.8052L48.9264 22.6672L48.8158 22.5351L48.7285 22.3791L48.6413 22.2229L48.5831 22.0669L48.5307 21.8929L48.4958 21.7128L48.4609 21.5387V21.1485L48.4958 20.9565L48.5307 20.7584L48.5831 20.5663L48.6762 20.3862L48.7635 20.2122L48.8798 20.0561L49.002 19.882L49.0893 19.786L49.1997 19.6659L49.322 19.5519L49.45 19.4318L49.5895 19.3178L49.735 19.1977L49.8804 19.1018L50.055 18.9877L50.2179 18.8677L50.3982 18.7716L50.596 18.6516L50.4157 18.5195L50.2702 18.3815L50.1655 18.2254L50.0433 18.0754L49.9735 17.9192L49.9386 17.7452V17.5712V17.3731L49.991 17.175L50.0666 17.0009L50.1888 16.8268L50.2761 16.7128L50.3866 16.5927L50.5088 16.4787L50.6542 16.3766L50.7938 16.2626L50.9567 16.1666L50.7938 16.0705L50.6251 15.9625L50.4797 15.8664L50.3226 15.7464L50.1946 15.6144L50.055 15.4943L49.9444 15.3623L49.8223 15.2242L49.735 15.0741L49.6303 14.9181L49.5372 14.762L49.4616 14.582L49.3917 14.4019L49.3162 14.2278L49.2637 14.0357L49.1997 13.8736V13.6756L49.1649 13.4595V13.2674V12.8353V12.6432V12.4451L49.1997 12.253L49.2522 12.079L49.3045 11.8809L49.3626 11.7068L49.4325 11.5327L49.5023 11.3767L49.5954 11.2207L49.7001 11.0645L49.7873 10.9265L49.8979 10.7705L50.0201 10.6504L50.1306 10.5184L50.2702 10.3983L50.3982 10.2843L50.5379 10.1882L50.6833 10.0862L50.8287 9.9901L50.9858 9.89412L51.1487 9.81606L51.3116 9.75601L51.4687 9.67803L51.649 9.64202L51.8119 9.58197L51.9865 9.53991L52.1668 9.50391H52.3472H52.5216H52.7195H53.0976H53.2954H53.4874H53.6678L53.8481 9.53991L54.0284 9.58197L54.203 9.64202L54.3659 9.69603L54.5404 9.75601L54.7032 9.83406L54.8661 9.91212L55.0058 10.0081L55.1687 10.1101L55.3141 10.2062L55.4538 10.3203L55.6167 10.2663L55.797 10.2062L55.9541 10.1642L56.1169 10.1101L56.2973 10.0502L56.4544 9.9901L56.6173 9.93013L56.7976 9.89412L56.9547 9.83406L57.1176 9.77401L57.298 9.72L57.455 9.66003L57.6179 9.61797L57.7982 9.56396L57.9553 9.50391L57.9902 9.69603V9.89412L58.0251 10.0862L58.0601 10.2843V10.4583L58.095 10.6504L58.1299 10.8484V11.0406L58.1648 11.2387H57.9902H57.8273H57.647H57.4724H57.3095H57.1292H56.9722H56.7918H56.6115H56.4486H56.2741L56.3613 11.4187L56.4312 11.5928L56.4893 11.7668L56.5416 11.9409L56.5941 12.121L56.6289 12.295V12.4871V12.6672V13.2735V13.4655V13.6636L56.5941 13.8556L56.5416 14.0297L56.4893 14.2098L56.4312 14.3839L56.3613 14.5579L56.2741 14.756L56.1635 14.9301L56.0588 15.0862L55.9308 15.2602L55.8086 15.3983L55.6806 15.5543L55.541 15.6864L55.3956 15.8064L55.2559 15.9025L55.1105 15.9985L54.965 16.1005L54.808 16.1966L54.6975 16.2746L54.5346 16.3346L54.3775 16.3886L54.1971 16.4487L54.0226 16.5087L53.8423 16.5447L53.6619 16.5867H53.4815H53.3071H53.1092H52.7311H52.5392H52.3587H52.1609L51.9806 16.7008L51.8236 16.8388L51.7305 16.9589L51.6607 17.0909V17.211L51.7479 17.4451L51.8585 17.5411L52.0504 17.6191L52.1784 17.6792L52.3413 17.7152L52.4984 17.7572L52.6962 17.7932L52.8416 17.8352L52.9987 17.8712H53.1791L53.3594 17.9133L53.5572 17.9493L53.7666 17.9913L53.947 18.0273L54.1157 18.0754L54.2902 18.1114L54.4706 18.1533L54.6684 18.1894L54.8661 18.2314L55.0465 18.2674L55.2385 18.3275L55.4014 18.3635L55.5817 18.4054L55.7388 18.4655L55.9017 18.5015L56.0821 18.5796L56.2392 18.6395L56.4021 18.7176L56.5649 18.7776L56.7045 18.8736L56.85 18.9517L56.9722 19.0297L57.1525 19.1678L57.298 19.3238L57.4375 19.4559L57.5481 19.6359L57.6529 19.792L57.7226 19.9481L57.7808 20.1041L57.8332 20.2782L57.8681 20.4523V20.6443L57.8855 20.8184Z" fill="#FFFEFE"/>
<path d="M65.7522 14.7555H65.537L65.3392 14.7974H65.1413H64.9435L64.7515 14.8334H64.5712L64.3908 14.8695L64.2338 14.9115H64.0709L63.908 14.9475L63.7684 14.9896L63.6229 15.0256L63.4775 15.0675L63.268 15.1216L63.0702 15.1996L62.8725 15.2597L62.6921 15.3376L62.535 15.4157L62.3721 15.4938L62.2267 15.5717L62.1045 15.6498L61.9242 15.7819L61.7439 15.9199L61.6217 16.052L61.4937 16.208L61.4239 16.3641L61.3366 16.5621L61.2843 16.7543L61.2435 16.9643V17.1624V17.3725L61.2843 17.5466L61.3366 17.7447L61.4064 17.9007L61.517 18.0508L61.6391 18.1708L61.7439 18.2849L61.8893 18.3629L62.0348 18.4409L62.1918 18.483L62.3721 18.519L62.5525 18.555H62.9248H63.1051H63.2855L63.46 18.519L63.6404 18.4769L63.8207 18.4229L64.0011 18.3629L64.1582 18.2849L64.3385 18.2068L64.5014 18.1288L64.6411 18.0328L64.7865 17.9608L64.9261 17.8647L65.0715 17.7506L65.217 17.6486L65.3566 17.5345L65.4846 17.4025L65.6242 17.2885L65.7522 17.1504V14.7555ZM66.1071 20.0555L66.0722 19.8635V19.6474L66.0372 19.4553L66.0023 19.2573L65.9616 19.0651V18.849L65.9268 18.651L65.8045 18.7891L65.6765 18.9091L65.537 19.0232L65.3915 19.1432L65.2519 19.2573L65.1064 19.3773L64.9435 19.4733L64.7865 19.5873L64.6236 19.6834L64.4607 19.7854L64.3211 19.8635L64.1756 19.9415L64.0185 20.0015L63.8556 20.0555L63.6927 20.0976L63.5357 20.1516L63.3553 20.1936H63.175H62.9947H62.8201H62.6223H62.2267H62.0289H61.8369L61.6565 20.1516L61.4762 20.1096L61.3017 20.0555L61.1388 19.9955L60.9759 19.9355L60.8363 19.8574L60.6908 19.7614L60.5512 19.6654L60.4233 19.5693L60.3011 19.4493L60.1731 19.3113L60.0684 19.1792L59.9578 19.0232L59.8706 18.8671L59.7775 18.711L59.7077 18.531L59.6553 18.3569L59.6029 18.1648L59.568 17.9667L59.5273 17.7746V17.5586V17.1744V16.9583V16.7602L59.5622 16.5682L59.6146 16.3941L59.6669 16.2141L59.7193 16.0399L59.7949 15.8839L59.8822 15.7099L59.9695 15.5717L60.08 15.4157L60.1847 15.2836L60.3127 15.1456L60.4348 15.0076L60.5803 14.8935L60.7199 14.7735L60.8828 14.6594L61.0632 14.5394L61.1853 14.4613L61.3308 14.3833L61.4704 14.3053L61.6159 14.2272L61.7788 14.1672L61.9359 14.0951L62.0988 14.0352L62.2791 13.9751L62.4361 13.9151L62.6339 13.8551L62.8142 13.8191L63.0121 13.759L63.1517 13.723L63.3146 13.681H63.4717L63.6171 13.645L63.78 13.603H63.9546L64.1175 13.561L64.2978 13.5249H64.4548H64.6352L64.8155 13.4889H64.9959H65.1879L65.3682 13.4529H65.566H65.7639V12.6066L65.7289 12.3665L65.6882 12.1744L65.6359 11.9943L65.566 11.8203L65.4788 11.6822L65.3682 11.5442L65.2461 11.4421L65.1006 11.3461L64.9552 11.268L64.7981 11.2081L64.6352 11.148L64.4548 11.112L64.2628 11.07H64.0651H63.6695H63.4891H63.3146H63.1342H62.9539L62.7794 11.106H62.599L62.4361 11.148L62.2558 11.202L62.0988 11.2441L61.9184 11.3041L61.7554 11.3401L61.581 11.4001L61.4181 11.4782L61.2377 11.5381L61.0806 11.5922L60.9177 11.6702L60.7374 11.7303L60.5803 11.8083L60.4174 11.8863V11.7123L60.3825 11.5142V11.3401L60.3476 11.148V10.974L60.3127 10.7759V10.6078L60.2778 10.4097V10.2416L60.4407 10.1636L60.6036 10.1036L60.7606 10.0436L60.9235 9.97155L61.0806 9.91149L61.261 9.85151L61.4239 9.81551L61.581 9.75545L61.7439 9.70145L61.9068 9.65939L62.0638 9.60539L62.2267 9.56341L62.407 9.52733H62.5641L62.7445 9.48535H62.9248H63.1051H63.2971H63.4949H63.6927H64.2745H64.4897H64.5886L64.7865 9.52733H64.9843L65.1588 9.56938L65.3392 9.60539L65.5021 9.64744L65.6591 9.70145L65.822 9.76143L65.9674 9.82148L66.1071 9.89954L66.2525 9.97752L66.3747 10.0556L66.5027 10.1516L66.6074 10.2476L66.7354 10.3677L66.8401 10.5058L66.9506 10.6378L67.0379 10.7759L67.1251 10.9319L67.2008 11.106L67.2706 11.2801L67.3229 11.4782L67.3753 11.6702L67.4102 11.8683L67.4975 12.0724V12.3065V12.5406V20.0555H66.0838H66.1071Z" fill="#FFFEFE"/>
<path d="M75.2579 20.0974L75.095 20.1334L74.8971 20.1755L74.6877 20.1935L74.5423 20.2115H74.3969L74.2223 20.2295H74.042H73.8616H73.6871L73.5067 20.2115H73.3264L73.1693 20.1935L73.0064 20.1574L72.8435 20.1334L72.7039 20.0974L72.541 20.0374L72.3781 19.9774L72.221 19.9234L72.0756 19.8213L71.9534 19.7433L71.8254 19.6292L71.6858 19.4912L71.5578 19.3532L71.4357 19.1791L71.3251 18.987L71.2553 18.7889L71.1854 18.6329L71.1506 18.4768L71.1099 18.2847L71.075 18.1046L71.0575 17.9126L71.0401 17.6965V17.4864V17.2883V17.0962V16.8981V16.7061V16.508V16.316V16.1179V15.9258V15.7277V15.5356V15.3376V15.1455V14.9474V14.7553V14.5572V14.3652V14.1911V13.993V13.8009V13.6028V13.4108V13.2127V13.0207V12.8226V12.6304V12.4324V12.2403V12.0422V11.8502V11.6521V11.46V11.2619H70.8597H70.6619H70.4874H70.2895H70.1092H69.9173H69.7369H69.5391V11.0698V10.8538V10.6617V10.4456V10.2535V10.0554V9.8454V9.6473H69.7369H69.9173H70.1092H70.2895H70.4874H70.6619H70.8597H71.0401V9.44921V9.25717V9.05907V8.86695V8.6929V8.49482V8.30275V8.10467V7.9126V7.71452V7.52244V7.33036V7.13228V6.95822V6.76014V6.56806V6.36998V6.1779L71.2204 6.13589L71.3774 6.11788L71.5578 6.08187L71.7207 6.05786L71.8952 6.02184L72.0756 5.99784L72.2385 5.96182L72.4188 5.94381L72.5759 5.9018L72.7563 5.88379V6.08187V6.27394V6.46602V6.6821V6.88018V7.07227V7.27034V7.46242V7.6605V7.87058V8.06866V8.26073V8.45881V8.65089V8.84895V9.05907V9.25717V9.44921V9.6473H72.9366H73.1111H73.3089H73.4893H73.6696H73.8442H74.0245H74.2049H74.3969H74.5772H74.7575H74.9379L74.9728 9.8454L74.9902 10.0554L75.0251 10.2535L75.06 10.4456L75.0774 10.6617L75.1124 10.8538L75.1357 11.0698L75.1706 11.2619H74.9902H74.8273H74.647H74.4724H74.3095H74.1351H73.9722H73.7918H73.6114H73.4544H73.274H73.0937H72.9366H72.7563V11.46V11.6521V11.8502V12.0422V12.2403V12.4324V12.6304V12.8465V13.0387V13.2307V13.4288V13.6269V13.8189V14.0111V14.2091V14.4012V14.5993V14.7913V14.9894V15.1815V15.3796V15.5716V15.7877V15.9858V16.1779V16.37V16.5681V16.7601V16.9582V17.1502V17.3663L72.7911 17.5404L72.826 17.7205L72.8959 17.8946L72.9715 18.0266L73.0587 18.1647L73.1518 18.2667L73.274 18.3448L73.4136 18.4168L73.5591 18.4768L73.7394 18.4948L73.9372 18.5368H74.1525H74.3095H74.4724L74.6295 18.5188L74.8273 18.4948L75.0251 18.4588L75.0426 18.6329L75.0774 18.8309L75.095 19.005L75.1357 19.1791L75.1531 19.3772L75.188 19.5512L75.2054 19.7253L75.2403 19.9234L75.2579 20.0974Z" fill="#FFFEFE"/>
<path d="M77.8246 20.0554V9.67134H79.5698V20.0554H77.8246ZM79.8436 6.31599V6.50807L79.8084 6.70015L79.7388 6.85621L79.6512 7.01227L79.5409 7.16833L79.4008 7.28838L79.2561 7.40242L79.0926 7.46245L78.9181 7.50447H78.7381H78.5574L78.3774 7.46245L78.2202 7.40242L78.0747 7.28838L77.9352 7.16833L77.8072 7.01227L77.7199 6.85621L77.6501 6.70015L77.6094 6.50807V6.31599V6.11791L77.6501 5.92584L77.7199 5.74577L77.8072 5.58971L77.9352 5.43364L78.0747 5.3196L78.2202 5.22356L78.3774 5.14553L78.5574 5.10352H78.7381H78.9181L79.0926 5.14553L79.2561 5.22356L79.4008 5.3196L79.5409 5.43364L79.6512 5.58971L79.7388 5.74577L79.8084 5.92584L79.8436 6.11791V6.31599Z" fill="#FFFEFE"/>
<path d="M89.1271 20.0548V19.8628V19.6647V19.4727V19.2805V19.0644V18.8724V18.6743V18.4823V18.2842V18.0921V17.9V17.7019V17.5099V17.2938V17.1017V16.9036V16.7115V16.5195V16.3214V16.1293V15.9312V15.7392V15.5231V15.331V15.1389V14.9408V14.7488V14.5507V14.3586V14.1606V13.9685V13.7524V13.5603V13.3622V13.1702V12.9781V12.744L89.0919 12.5279L89.0567 12.3358L88.9988 12.1377L88.9464 11.9637L88.8595 11.8076L88.7664 11.6515L88.6436 11.5375L88.5161 11.4174L88.3588 11.3214L88.1789 11.2674L87.9981 11.2074L87.7884 11.1894L87.5498 11.1653H87.3933L87.2126 11.1894L87.0553 11.2254L86.8926 11.2674L86.7127 11.3034L86.5499 11.3814L86.3927 11.4595L86.2299 11.5375L86.0727 11.6335L85.9099 11.7296L85.7644 11.8256L85.6244 11.9457L85.4788 12.0597L85.3333 12.1798L85.194 12.2938L85.0485 12.4319L84.9092 12.5699L84.7637 12.702L84.6237 12.858V13.0561V13.2482V13.4463V13.6383V13.8304V14.0285V14.2206V14.4186V14.6107V14.8028V15.0009V15.1929V15.391V15.5831V15.7752V15.9732V16.1653V16.3634V16.5555V16.7476V16.9456V17.1377V17.3358V17.5279V17.7199V17.918V18.1101V18.3081V18.5003V18.6923V18.8904V19.0825V19.2805V19.4727V19.6647V19.8628V20.0548H84.4437H84.263H84.083H83.9086H83.745H83.5651H83.3906H83.2099H83.0299H82.8555V19.8628V19.6647V19.4727V19.2746V19.0825V18.8844V18.6743V18.4762V18.2842V18.0861V17.894V17.6959V17.5039V17.3058V17.1137V16.9157V16.7235V16.5255V16.3334V16.1173V15.9253V15.7272V15.5351V15.337V15.1449V14.9468V14.7548V14.5567V14.3646V14.1665V13.9744V13.7764V13.5843V13.3682V13.1762V12.9781V12.786V12.5879V12.3959V12.1978V12.0057V11.8076V11.6155V11.4174V11.2254V11.0333V10.8173V10.6192V10.427V10.229V10.0369V9.84486V9.64676H83.0299H83.2099H83.3672H83.5479H83.7278H83.9086H84.065H84.2458L84.281 9.84486L84.2982 10.0189L84.3334 10.2109L84.3741 10.3851L84.3913 10.5832L84.4257 10.7752L84.4437 10.9553L84.4781 11.1473L84.6237 11.0333L84.7457 10.9132L84.8912 10.7992L85.0313 10.6791L85.1768 10.5652L85.3161 10.445L85.4616 10.3491L85.6244 10.253L85.7644 10.133L85.9271 10.0369L86.0899 9.94084L86.2299 9.86286L86.3927 9.7848L86.5671 9.70674L86.7299 9.64676L86.9106 9.5867L87.0905 9.52672L87.2478 9.50872L87.4458 9.47272L87.6257 9.44867L87.8064 9.43066H87.9981H88.2133L88.4284 9.44867L88.6264 9.47272L88.8243 9.50872L88.9988 9.5507L89.1788 9.6047L89.3423 9.66476L89.4987 9.74282L89.6443 9.8208L89.7843 9.91686L89.9119 10.0189L90.0402 10.133L90.1622 10.253L90.2671 10.3851L90.3774 10.5231L90.465 10.6611L90.5346 10.8173L90.6105 10.9733L90.6802 11.1293L90.7326 11.3034L90.785 11.4775L90.8257 11.6756L90.8601 11.8676L90.8781 12.0657L90.8953 12.2758V12.4919V12.69V12.882V13.0801V13.2722V13.4702V13.6624V13.8604V14.0525V14.2446V14.4246V14.6167V14.8148V15.0069V15.205V15.397V15.5891V15.7872V15.9852V16.1774V16.3694V16.5675V16.7595V16.9576V17.1497V17.3478V17.5399V17.7379V17.93V18.1281V18.3022V18.4943V18.6923V18.8844V19.0825V19.2746V19.4727V19.6647V19.8628V20.0548H90.7154H90.5346H90.3602H90.1794H90.0167H89.8422H89.6623H89.4815H89.3016H89.1271Z" fill="#FFFEFE"/>
<path d="M99.4158 13.0215V12.8234L99.3814 12.6132L99.3462 12.4332L99.3118 12.2411L99.2413 12.0851L99.1662 11.911L99.0614 11.7549L98.9511 11.5989L98.8462 11.4608L98.7007 11.3228L98.5607 11.2087L98.3979 11.1067L98.2407 11.0286L98.0779 10.9566L97.898 10.9146L97.7 10.8786L97.5076 10.8366H97.0772L96.8793 10.8786L96.6993 10.9146L96.5249 10.9746L96.3441 11.0286L96.1814 11.1307L96.0421 11.2267L95.8966 11.3408L95.7746 11.4788L95.6462 11.6349L95.5594 11.7909L95.4663 11.965L95.3959 12.1451L95.3263 12.3192L95.2738 12.4932V12.7093L95.2394 12.9013V13.3155L95.2738 13.5077L95.3145 13.6997L95.3497 13.8798L95.4194 14.0358L95.489 14.2099L95.5821 14.366L95.6869 14.504L95.8152 14.6361L95.9373 14.7741L96.0828 14.8882L96.2221 14.9902L96.3848 15.0682L96.5483 15.1463L96.7228 15.1823L96.92 15.2243L97.1007 15.2603H97.5138H97.6883L97.8682 15.2243L98.0318 15.1823L98.1882 15.1223L98.3518 15.0442L98.491 14.9662L98.6193 14.8702L98.7414 14.7561L98.8689 14.6361L98.9972 14.48L99.1021 14.3419L99.1889 14.1679L99.2648 14.0119L99.3344 13.8197L99.3697 13.6396L99.4049 13.4476L99.4393 13.2495L99.4158 13.0215ZM97.5076 19.492L97.3104 19.456L97.1297 19.414H96.9669L96.8269 19.372H96.6469L96.449 19.3119L96.251 19.2759L96.0594 19.372L95.8786 19.468L95.6987 19.564L95.5414 19.6841L95.3959 19.7801L95.2738 19.8822L95.1463 19.9962L95.0415 20.0923L94.9484 20.2123L94.8263 20.3684L94.7152 20.5244L94.6456 20.6985L94.5932 20.8726L94.5587 21.0466V21.2267V21.4007L94.6104 21.5748L94.6808 21.7309L94.7911 21.8869L94.9304 22.025L95.1111 22.157L95.3263 22.2771L95.4311 22.3371L95.5766 22.3972L95.7159 22.4512L95.8614 22.4932L96.0241 22.5292L96.1814 22.5712L96.3441 22.6072H96.5249H96.7166H96.9145H97.1125H97.7462H97.9559H98.171H98.369H98.5669L98.7469 22.5712L98.9213 22.5292L99.0849 22.4932L99.2476 22.4572L99.3869 22.3972L99.5324 22.3371L99.6724 22.2771L99.8 22.2231L99.9979 22.085L100.155 21.965L100.283 21.8329L100.405 21.6949L100.498 21.5568L100.55 21.4007L100.585 21.2447V21.0886V20.8965L100.533 20.7165L100.446 20.5664L100.335 20.4044L100.172 20.2723L100.074 20.1763L99.9455 20.1163L99.8234 20.0382L99.6607 19.9782L99.5034 19.9242L99.3055 19.8642L99.1076 19.8041L98.8752 19.7681L98.642 19.7081L98.4449 19.6661L98.2704 19.6301L98.0724 19.5881H97.8745L97.6938 19.546L97.5076 19.492ZM102.279 20.8185V21.0106V21.2087L102.243 21.4007L102.203 21.5808L102.133 21.7549L102.081 21.929L101.993 22.085L101.9 22.2411L101.796 22.3972L101.685 22.5352L101.563 22.6673L101.435 22.7873L101.312 22.9253L101.168 23.0394L101.01 23.1355L100.848 23.2555L100.702 23.3335L100.545 23.4115L100.382 23.4896L100.219 23.5676L100.044 23.6276L99.8641 23.6816L99.6834 23.7417L99.5089 23.8017L99.3118 23.8377L99.131 23.8797L98.9511 23.9157H98.7758H98.5959L98.4151 23.9517H98.218H98.0435H97.8455H97.0952H96.8973H96.7166H96.5421H96.3621H96.1814H96.0015L95.827 23.9098H95.6635L95.4835 23.8677L95.309 23.8137L95.1283 23.7717L94.9656 23.7117L94.7856 23.6577L94.6456 23.5976L94.4828 23.5376L94.3428 23.4776L94.198 23.3995L94.0228 23.3035L93.8601 23.2075L93.7145 23.0874L93.5753 22.9734L93.447 22.8353L93.3249 22.6973L93.2146 22.5652L93.1269 22.4091L93.0401 22.2531L92.9814 22.097L92.9298 21.923L92.8946 21.7429L92.8594 21.5688V21.1787L92.8946 20.9866L92.9298 20.7885L92.9814 20.5965L93.0745 20.4164L93.1622 20.2423L93.267 20.0862L93.3945 19.9122L93.4822 19.8161L93.5925 19.6961L93.7145 19.582L93.8428 19.462L93.9821 19.3479L94.1276 19.2279L94.2732 19.1318L94.4476 19.0178L94.6104 18.8977L94.7856 18.8018L94.9828 18.6817L94.8083 18.5497L94.6628 18.4115L94.5587 18.2555L94.4656 18.0995L94.3952 17.9434L94.3608 17.7693V17.5953V17.3972L94.4132 17.1991L94.4828 17.025L94.6104 16.851L94.698 16.7369L94.8083 16.6169L94.9304 16.5028L95.0759 16.4008L95.2159 16.2867L95.3787 16.1907L95.2159 16.0947L95.0587 15.9926L94.9132 15.8966L94.7559 15.7766L94.6284 15.6445L94.4828 15.5245L94.378 15.3924L94.2497 15.2544L94.1456 15.0982L94.0408 14.9422L93.9477 14.7862L93.8601 14.612L93.7904 14.432L93.7145 14.2579L93.6621 14.0659L93.6105 13.8917V13.6937L93.5753 13.4776V13.2855V12.8534V12.6613V12.4632L93.6105 12.2711L93.6738 12.073L93.7263 11.8749L93.7787 11.7009L93.8546 11.5269L93.9242 11.3708L94.0118 11.2147L94.1222 11.0587L94.209 10.9206L94.3201 10.7645L94.4421 10.6445L94.547 10.5124L94.6925 10.3924L94.82 10.2783L94.9601 10.1823L95.1056 10.0803L95.2449 9.98424L95.4076 9.88818L95.5704 9.81012L95.7276 9.75015L95.8904 9.67209L96.0711 9.63608L96.2284 9.57611L96.4083 9.53405L96.589 9.49805H96.7635H96.9435H97.1414H97.5193H97.7118H97.9097H98.0897L98.2704 9.53405L98.4449 9.57611L98.6248 9.63608L98.7875 9.69009L98.962 9.75015L99.1255 9.82821L99.2883 9.90618L99.4275 10.0022L99.5903 10.1043L99.7303 10.2003L99.8759 10.3143L100.039 10.2603L100.213 10.2003L100.376 10.1583L100.539 10.1043L100.714 10.0442L100.877 9.98424L101.039 9.92419L101.214 9.88818L101.376 9.82821L101.539 9.76815L101.714 9.71414L101.877 9.65409L102.04 9.61211L102.214 9.55802L102.377 9.49805L102.401 9.67209V9.87018L102.436 10.0622L102.477 10.2603V10.4344L102.511 10.6265L102.546 10.8246V11.0166L102.581 11.2147H102.401H102.243H102.063H101.883H101.725H101.545H101.383H101.208H101.028H100.865H100.69L100.777 11.3948L100.848 11.5688L100.905 11.743L100.958 11.917L101.01 12.0971L101.045 12.2711V12.4632V12.6433V13.2736V13.4656V13.6637L101.01 13.8557L100.958 14.0299L100.905 14.2099L100.848 14.384L100.777 14.558L100.69 14.7561L100.58 14.9302L100.475 15.0863L100.347 15.2603L100.225 15.3984L100.096 15.5544L99.9572 15.6865L99.8117 15.8065L99.6662 15.9026L99.5269 15.9986L99.3814 16.1007L99.2241 16.1967L99.0614 16.2747L98.8986 16.3348L98.7414 16.3888L98.5607 16.4488L98.3807 16.5088L98.2062 16.5448L98.0255 16.5869H97.8455H97.6648H97.4731H97.0952H96.8973H96.7228H96.5249L96.3441 16.7009L96.1814 16.839L96.0946 16.959L96.0241 17.0911V17.2111L96.1118 17.4452L96.2166 17.5413L96.4146 17.6192L96.5421 17.6793L96.6993 17.7153L96.8621 17.7573L97.06 17.7934L97.1993 17.8353L97.3628 17.8713H97.5428L97.7235 17.9134L97.9152 17.9494L98.1303 17.9914L98.3111 18.0275H98.491L98.6655 18.0635L98.8462 18.1054L99.0442 18.1414L99.2413 18.1835L99.4158 18.2195L99.6138 18.2796L99.7765 18.3156L99.9572 18.3575L100.114 18.4176L100.277 18.4536L100.457 18.5316L100.614 18.5916L100.777 18.6697L100.934 18.7297L101.08 18.8257L101.225 18.9038L101.348 18.9818L101.528 19.1199L101.668 19.2759L101.813 19.408L101.918 19.5881L102.028 19.7441L102.098 19.9002L102.15 20.0562L102.209 20.2303L102.243 20.4044V20.5965L102.279 20.8185Z" fill="#FFFEFE"/>
<path d="M114.481 18.9443L114.352 19.0403L114.213 19.1423L114.068 19.2384L113.928 19.3164L113.783 19.4124L113.619 19.4905L113.463 19.5685L113.299 19.6465L113.143 19.7246L112.979 19.8026L112.799 19.8806L112.642 19.9406L112.462 19.9947L112.299 20.0547L112.142 20.0967L111.961 20.1327L111.799 20.1747L111.619 20.2108L111.461 20.2528L111.281 20.2708L111.101 20.2888L110.926 20.3068L110.746 20.3308H110.566H110.385H110.21H110.012L109.832 20.3068L109.652 20.2888L109.477 20.2708L109.297 20.2528L109.134 20.2108L108.959 20.1747L108.797 20.1327L108.617 20.0967L108.459 20.0367L108.297 19.9947L108.134 19.9406L107.994 19.8626L107.831 19.8026L107.65 19.7246L107.494 19.6285L107.313 19.5325L107.15 19.4305L107.01 19.3344L106.848 19.2204L106.685 19.1003L106.546 18.9863L106.4 18.8662L106.26 18.7282L106.133 18.5961L106.01 18.4581L105.882 18.302L105.76 18.164L105.649 18.0319L105.545 17.8698L105.434 17.7378L105.347 17.5817L105.242 17.4077L105.149 17.2516L105.061 17.0955L104.992 16.9154L104.899 16.7414L104.829 16.5674L104.759 16.3693L104.69 16.1951L104.631 16.0031L104.579 15.823L104.526 15.6729L104.474 15.4929L104.433 15.3188L104.399 15.1268L104.364 14.9467L104.329 14.7726L104.294 14.5805L104.277 14.4005L104.241 14.2084L104.224 14.0103V13.8182L104.201 13.6201L104.184 13.4281V13.212V13.0199V12.8219V12.6117L104.201 12.4136L104.224 12.2216V12.0235L104.259 11.8254L104.277 11.6334L104.294 11.4593L104.329 11.2672L104.364 11.0871L104.399 10.8951L104.433 10.715L104.492 10.5409L104.526 10.3668L104.579 10.1928L104.631 10.0187L104.707 9.83864L104.777 9.6466L104.846 9.47248L104.922 9.27439L104.992 9.10035L105.079 8.94431L105.166 8.77019L105.259 8.61416L105.364 8.44009L105.457 8.28403L105.562 8.14598L105.667 7.98992L105.777 7.85186L105.899 7.6958L106.01 7.58175L106.133 7.4437L106.26 7.30565L106.382 7.1916L106.51 7.07155L106.65 6.9575L106.795 6.83746L106.941 6.74142L107.081 6.64538L107.226 6.54334L107.383 6.44731L107.528 6.36927L107.686 6.29124L107.866 6.1952L108.011 6.13518L108.175 6.08116L108.331 6.02113L108.495 5.96111L108.651 5.90108L108.832 5.86507L108.995 5.82305L109.175 5.78704L109.332 5.74502L109.512 5.72702L109.692 5.70901L109.885 5.691L110.065 5.66699H110.246H110.444H110.635H110.833L111.031 5.691L111.211 5.70901L111.392 5.72702L111.566 5.74502L111.746 5.76303L111.909 5.80505L112.083 5.84706L112.247 5.88308L112.41 5.9251L112.567 5.96111L112.73 6.02113L112.892 6.09916L113.05 6.15318L113.212 6.23122L113.37 6.29124L113.515 6.36927L113.678 6.46531L113.817 6.54334L113.98 6.64538L114.12 6.74142L114.265 6.83746L114.247 7.03554L114.213 7.22761L114.196 7.4437L114.161 7.63577L114.143 7.83385L114.103 8.02593L114.085 8.22401L114.05 8.44009L114.032 8.63217L113.998 8.82427L113.852 8.7102L113.695 8.59616L113.532 8.49411L113.37 8.39808L113.212 8.28403L113.05 8.2L112.892 8.10396L112.712 8.00792L112.549 7.92989L112.369 7.85186L112.212 7.79184L112.049 7.7138L111.868 7.67779L111.711 7.61776L111.531 7.58175L111.35 7.53974L111.176 7.52173L110.996 7.47971H110.798L110.618 7.4617H110.426H110.246L110.048 7.47971H109.867L109.692 7.52173L109.53 7.53974L109.35 7.58175L109.192 7.61776L109.03 7.67779L108.866 7.7138L108.727 7.79184L108.581 7.85186L108.419 7.92989L108.261 8.02593L108.099 8.12196L107.959 8.22401L107.831 8.32004L107.686 8.44009L107.564 8.55414L107.435 8.69219L107.313 8.82427L107.203 8.96231L107.081 9.11835L106.976 9.25639L106.883 9.43051L106.795 9.58655L106.708 9.76058L106.615 9.94068L106.546 10.1147L106.458 10.3068L106.4 10.5049L106.33 10.697L106.278 10.8711L106.243 11.0511L106.208 11.2432L106.167 11.4173L106.133 11.5974L106.097 11.7894L106.08 11.9875L106.062 12.1795L106.045 12.3776L106.028 12.5878V12.7858V13.0019V13.212V13.4101L106.045 13.6201L106.062 13.8182L106.08 14.0103L106.097 14.2084L106.133 14.4005L106.167 14.5805L106.208 14.7546L106.243 14.9467L106.278 15.1268L106.33 15.2768L106.4 15.4929L106.458 15.6909L106.546 15.8831L106.615 16.0571L106.708 16.2372L106.795 16.4112L106.883 16.5674L106.976 16.7234L107.081 16.8794L107.203 17.0175L107.313 17.1736L107.435 17.2876L107.564 17.4257L107.686 17.5397L107.831 17.6598L107.977 17.7558L108.116 17.8698L108.261 17.9479L108.419 18.0499L108.581 18.128L108.727 18.182L108.884 18.266L109.047 18.302L109.21 18.362L109.367 18.3981L109.53 18.4401L109.71 18.4581L109.885 18.4941H110.065L110.246 18.5181H110.426H110.6L110.781 18.4941H110.961L111.141 18.4761L111.299 18.4401L111.479 18.4161L111.636 18.3801L111.816 18.338L111.979 18.284L112.142 18.242L112.299 18.182L112.462 18.1039L112.642 18.0499L112.799 17.9719L112.962 17.8939L113.119 17.7978L113.299 17.7138L113.445 17.6177L113.602 17.5217L113.765 17.4257L113.905 17.3296L114.068 17.2276L114.213 17.1135L114.247 17.2876L114.265 17.4857L114.3 17.6598L114.318 17.8518L114.352 18.0319L114.376 18.206L114.411 18.3981L114.428 18.5721L114.463 18.7702L114.481 18.9443Z" fill="#C6C6C6"/>
<path d="M122.758 14.7555H122.542L122.351 14.7974H122.153H121.955L121.757 14.8334H121.577L121.402 14.8695L121.239 14.9115H121.076L120.919 14.9475L120.773 14.9896L120.634 15.0256L120.489 15.0675L120.274 15.1216L120.076 15.1996L119.884 15.2597L119.703 15.3376L119.54 15.4157L119.383 15.4938L119.238 15.5717L119.11 15.6498L118.936 15.7819L118.755 15.9199L118.633 16.052L118.505 16.208L118.435 16.364L118.342 16.5621L118.289 16.7543L118.255 16.9643V17.1624V17.3725L118.289 17.5466L118.342 17.7447L118.418 17.9007L118.523 18.0508L118.65 18.1708L118.755 18.2849L118.9 18.3628L119.04 18.4409L119.203 18.483L119.383 18.519L119.558 18.555H119.936H120.111H120.291L120.471 18.519L120.651 18.4769L120.826 18.4229L121.007 18.3628L121.169 18.2849L121.344 18.2068L121.507 18.1288L121.652 18.0328L121.792 17.9608L121.938 17.8647L122.077 17.7506L122.222 17.6486L122.368 17.5345L122.49 17.4025L122.636 17.2885L122.758 17.1504V14.7555ZM123.118 20.0555L123.078 19.8635V19.6474L123.042 19.4553L123.008 19.2573L122.973 19.0651V18.849L122.938 18.651L122.81 18.7891L122.688 18.9091L122.542 19.0232L122.402 19.1432L122.176 19.2753L122.031 19.3953L121.874 19.4914L121.711 19.6053L121.547 19.7014L121.391 19.8034L121.245 19.8815L121.105 19.9595L120.942 20.0195L120.78 20.0735L120.622 20.1156L120.46 20.1696L120.279 20.2116H120.105H119.925H119.744H119.546H119.156H118.958H118.761L118.587 20.1696L118.406 20.1276L118.226 20.0735L118.062 20.0136L117.906 19.9535L117.76 19.8755L117.62 19.7795L117.475 19.6834L117.353 19.5873L117.225 19.4673L117.103 19.3293L116.992 19.1972L116.887 19.0412L116.794 18.8851L116.707 18.729L116.638 18.549L116.579 18.3749L116.527 18.1828L116.492 17.9847L116.457 17.7927V17.5766V17.1744V16.9583V16.7602L116.492 16.5682L116.545 16.3941L116.603 16.2141L116.655 16.0399L116.725 15.8839L116.812 15.7099L116.905 15.5717L117.009 15.4157L117.12 15.2836L117.243 15.1456L117.37 15.0076L117.51 14.8935L117.656 14.7735L117.818 14.6594L117.993 14.5394L118.121 14.4613L118.26 14.3833L118.406 14.3053L118.551 14.2272L118.709 14.1672L118.871 14.0951L119.029 14.0352L119.209 13.9751L119.371 13.9151L119.569 13.8551L119.744 13.8191L119.942 13.759L120.087 13.723L120.245 13.681H120.407L120.547 13.645L120.71 13.603H120.89L121.053 13.561L121.227 13.5249H121.391H121.571L121.745 13.4889H121.926H122.124L122.304 13.4529H122.496H122.693V12.6066L122.659 12.3665L122.624 12.1744L122.571 11.9943L122.496 11.8203L122.409 11.6822L122.304 11.5442L122.176 11.4421L122.031 11.3461L121.891 11.268L121.728 11.2081L121.571 11.148L121.391 11.112L121.193 11.07H120.995H120.605H120.425H120.245H120.07H119.889L119.709 11.106H119.529L119.371 11.148L119.191 11.202L119.029 11.2441L118.854 11.3041L118.691 11.3401L118.511 11.4001L118.354 11.4782L118.174 11.5381L118.01 11.5922L117.854 11.6702L117.673 11.7303L117.51 11.8083L117.353 11.8863V11.7123L117.312 11.5142V11.3401L117.277 11.148V10.974L117.243 10.7759V10.6078L117.207 10.4097V10.2416L117.365 10.1636L117.527 10.1036L117.69 10.0436L117.847 9.97155L118.01 9.91149L118.191 9.85151L118.348 9.81551L118.511 9.75545L118.674 9.70145L118.831 9.65939L118.994 9.60539L119.151 9.56341L119.331 9.52733H119.494L119.674 9.48535H119.849H120.029H120.227H120.425H120.617H121.198H121.413H121.594L121.786 9.52733H121.984L122.165 9.56938L122.345 9.60539L122.502 9.64744L122.665 9.70145L122.827 9.76143L122.967 9.82148L123.113 9.89954L123.252 9.97752L123.38 10.0556L123.502 10.1516L123.613 10.2476L123.735 10.3677L123.846 10.5058L123.95 10.6378L124.043 10.7759L124.131 10.9319L124.2 11.106L124.27 11.2801L124.329 11.4782L124.381 11.6702L124.416 11.8683L124.451 12.0844V12.3185V12.5526V20.0555H123.042H123.118Z" fill="#C6C6C6"/>
<path d="M133.837 20.0548V19.8628V19.6647V19.4727V19.2805V19.0644V18.8724V18.6743V18.4823V18.2842V18.0921V17.9V17.7019V17.5099V17.2938V17.1017V16.9036V16.7115V16.5195V16.3214V16.1293V15.9312V15.7392V15.5231V15.331V15.1389V14.9408V14.7488V14.5507V14.3586V14.1606V13.9685V13.7524V13.5603V13.3622V13.1702V12.9781V12.744L133.801 12.5279L133.766 12.3358L133.708 12.1377L133.656 11.9637L133.569 11.8076L133.476 11.6515L133.353 11.5375L133.225 11.4174L133.068 11.3214L132.888 11.2674L132.708 11.2074L132.498 11.1894L132.265 11.1653H132.103L131.922 11.1894L131.765 11.2254L131.602 11.2674L131.422 11.3034L131.259 11.3814L131.102 11.4595L130.939 11.5375L130.782 11.6335L130.619 11.7296L130.474 11.8256L130.334 11.9457L130.188 12.0597L130.049 12.1798L129.903 12.2938L129.758 12.4319L129.619 12.5699L129.473 12.702L129.333 12.858V13.0561V13.2482V13.4463V13.6383V13.8304V14.0285V14.2206V14.4186V14.6107V14.8028V15.0009V15.1929V15.391V15.5831V15.7752V15.9732V16.1653V16.3634V16.5555V16.7476V16.9456V17.1377V17.3358V17.5279V17.7199V17.918V18.1101V18.3081V18.5003V18.6923V18.8904V19.0825V19.2805V19.4727V19.6647V19.8628V20.0548H129.153H128.972H128.798H128.618H128.455H128.28H128.1H127.919H127.739H127.559V19.8628V19.6647V19.4727V19.2746V19.0825V18.8844V18.6743V18.4762V18.2842V18.0861V17.894V17.6959V17.5039V17.3058V17.1137V16.9157V16.7235V16.5255V16.3334V16.1173V15.9253V15.7272V15.5351V15.337V15.1449V14.9468V14.7548V14.5567V14.3646V14.1665V13.9744V13.7764V13.5843V13.3682V13.1762V12.9781V12.786V12.5879V12.3959V12.1978V12.0057V11.8076V11.6155V11.4174V11.2254V11.0333V10.8173V10.6192V10.427V10.229V10.0369V9.84486V9.64676H127.739H127.919H128.083H128.257H128.437H128.618H128.775H128.955L128.99 9.84486L129.013 10.0189L129.048 10.2109L129.083 10.3851L129.101 10.5832L129.136 10.7752L129.153 10.9553L129.188 11.1473L129.333 11.0333L129.455 10.9132L129.601 10.7992L129.741 10.6791L129.886 10.5652L130.032 10.445L130.171 10.3491L130.334 10.253L130.474 10.133L130.637 10.0369L130.799 9.94084L130.939 9.86286L131.102 9.7848L131.282 9.70674L131.439 9.64676L131.62 9.5867L131.8 9.52672L131.957 9.50872L132.155 9.47272L132.335 9.44867L132.516 9.43066H132.708H132.923L133.138 9.44867L133.336 9.47272L133.534 9.50872L133.708 9.5507L133.889 9.6047L134.052 9.66476L134.208 9.74282L134.354 9.8208L134.499 9.91686L134.621 10.0189L134.744 10.133L134.872 10.253L134.976 10.3851L135.087 10.5231L135.174 10.6611L135.25 10.8173L135.32 10.9733L135.39 11.1293L135.442 11.3034L135.5 11.4775L135.535 11.6756L135.569 11.8676L135.587 12.0657L135.605 12.2758V12.4919V12.69V12.882V13.0801V13.2722V13.4702V13.6624V13.8604V14.0525V14.2446V14.4246V14.6167V14.8148V15.0069V15.205V15.397V15.5891V15.7872V15.9852V16.1774V16.3694V16.5675V16.7595V16.9576V17.1497V17.3478V17.5399V17.7379V17.93V18.1281V18.3022V18.4943V18.6923V18.8844V19.0825V19.2746V19.4727V19.6647V19.8628V20.0548H135.425H135.25H135.07H134.889H134.726H134.552H134.372H134.191H134.016H133.837Z" fill="#C6C6C6"/>
<path d="M146.064 19.1965L145.907 19.3166L145.761 19.4306L145.598 19.5326L145.441 19.6287L145.261 19.7248L145.098 19.8027L144.924 19.8808L144.743 19.9409L144.563 19.9949L144.418 20.0548L144.261 20.0969L144.098 20.1329L143.941 20.175L143.761 20.193L143.597 20.211L143.417 20.229L143.243 20.2529L143.062 20.2709H142.882H142.69H142.51L142.329 20.2529H142.149L141.974 20.229L141.812 20.193L141.648 20.157L141.474 20.1329L141.311 20.0789L141.148 20.0368L141.008 19.9769L140.845 19.8988L140.689 19.8448L140.525 19.7428L140.363 19.6647L140.2 19.5687L140.06 19.4727L139.915 19.3526L139.792 19.2566L139.648 19.1185L139.525 19.0045L139.397 18.8664L139.275 18.7283L139.164 18.5723L139.06 18.4162L138.949 18.2662L138.862 18.1041L138.757 17.93L138.681 17.756L138.594 17.5639L138.524 17.3658L138.449 17.1737L138.379 16.9936L138.344 16.8196L138.292 16.6456L138.256 16.4714L138.216 16.2734L138.181 16.0813L138.146 15.9073L138.129 15.6912L138.111 15.4931V15.301L138.094 15.0849V14.8688V14.6527L138.111 14.4426V14.2266L138.129 14.0105L138.163 13.8184L138.181 13.6263L138.216 13.4283L138.256 13.2302L138.309 13.0561L138.344 12.882L138.397 12.708L138.472 12.5339L138.542 12.3358L138.612 12.1438L138.699 11.9457L138.792 11.7716L138.896 11.5975L139.008 11.4415L139.112 11.2614L139.216 11.1054L139.345 10.9733L139.472 10.8173L139.595 10.6971L139.723 10.5591L139.863 10.445L140.008 10.3311L140.148 10.2109L140.31 10.115L140.456 10.0129L140.613 9.94084L140.793 9.86286L140.957 9.7848L141.113 9.72482L141.277 9.66476L141.433 9.62876L141.596 9.5687L141.759 9.52672L141.939 9.50872L142.096 9.47272L142.276 9.44867H142.452L142.632 9.43066H142.812H143.01H143.184L143.382 9.44867L143.563 9.47272L143.725 9.49072L143.9 9.50872L144.063 9.5507L144.225 9.5867L144.365 9.62876L144.528 9.66476L144.674 9.70674L144.865 9.7848L145.046 9.86286L145.226 9.94084L145.383 10.0129L145.546 10.115L145.71 10.1929L145.849 10.289L145.977 10.3851L145.959 10.5832L145.925 10.7572L145.907 10.9492L145.866 11.1293L145.849 11.3214L145.814 11.5195L145.796 11.6936L145.761 11.8856L145.744 12.0657L145.71 12.2578L145.564 12.1438L145.401 12.0237L145.261 11.9277L145.116 11.8316L144.958 11.7296L144.813 11.6335L144.656 11.5555L144.493 11.4775L144.348 11.3994L144.185 11.3395L144.028 11.2854L143.847 11.2434L143.69 11.2074L143.51 11.1653L143.33 11.1473L143.15 11.1293L142.975 11.1054H142.777H142.579L142.381 11.1293L142.207 11.1653L142.027 11.2074L141.864 11.2434L141.683 11.3034L141.526 11.3814L141.381 11.4775L141.224 11.5555L141.079 11.6756L140.939 11.7896L140.811 11.9277L140.689 12.0657L140.578 12.1978L140.491 12.3358L140.398 12.4739L140.31 12.6299L140.241 12.804L140.165 12.9601L140.112 13.1341L140.06 13.3322L140.008 13.5243L139.973 13.7223L139.932 13.9325L139.915 14.1485L139.897 14.3646L139.88 14.5987V14.8328V15.0429L139.897 15.241V15.433L139.915 15.6311L139.95 15.8232L139.99 16.0033L140.025 16.1774L140.06 16.3334L140.112 16.4894L140.165 16.7055L140.241 16.8796L140.327 17.0537L140.415 17.2277L140.508 17.3838L140.613 17.5399L140.741 17.6779L140.863 17.834L141.008 17.972L141.165 18.0861L141.328 18.1821L141.492 18.2842L141.666 18.3622L141.829 18.4402L141.992 18.4762L142.149 18.5183L142.312 18.5543L142.492 18.5723L142.667 18.5963H142.847H143.028L143.225 18.5723L143.4 18.5543L143.597 18.5363L143.778 18.4943L143.958 18.4582L144.15 18.3982L144.33 18.3442L144.476 18.2842L144.616 18.2241L144.779 18.1461L144.924 18.0681L145.063 17.9901L145.226 17.894L145.366 17.798L145.512 17.6779L145.674 17.5639L145.814 17.4258L145.849 17.6179L145.866 17.816L145.907 18.0081L145.925 18.2061L145.959 18.4162L145.977 18.6143L146.012 18.8064L146.03 19.0045L146.064 19.1965Z" fill="#C6C6C6"/>
<path d="M152.1 10.9308H151.925H151.745L151.583 10.9668L151.408 11.0028L151.245 11.0629L151.099 11.1409L150.943 11.2369L150.797 11.339L150.686 11.471L150.559 11.5911L150.437 11.7051L150.343 11.8252L150.239 11.9572L150.146 12.1133L150.076 12.2514L149.988 12.4254L149.913 12.6055L149.861 12.7796L149.808 12.9717L149.756 13.1697L149.703 13.3798L149.663 13.5959H154.543L154.509 13.3618L154.474 13.1457L154.439 12.9357L154.387 12.7376L154.328 12.5455L154.259 12.3714L154.189 12.1913L154.096 12.0353L154.026 11.8792L153.921 11.7472L153.828 11.6091L153.706 11.489L153.561 11.375L153.421 11.2549L153.275 11.177L153.112 11.0989L152.938 11.0449L152.758 10.9848L152.56 10.9488H152.345L152.1 10.9308ZM156.283 18.866L156.143 18.9861L155.998 19.1L155.835 19.1961L155.696 19.3161L155.532 19.4122L155.376 19.5083L155.212 19.5862L155.05 19.6883L154.875 19.7604L154.712 19.8203L154.532 19.8984L154.375 19.9585L154.212 20.0184L154.032 20.0544L153.857 20.1145L153.694 20.1505H153.514L153.316 20.1865H153.141H152.944H152.746H152.548H152.159H151.978H151.78L151.6 20.1445H151.425L151.245 20.1025L151.065 20.0665L150.89 20.0305L150.71 19.9704L150.547 19.9104L150.384 19.8504L150.227 19.7723L150.064 19.6943L149.907 19.5983L149.761 19.5022L149.616 19.4062L149.477 19.3042L149.348 19.1901L149.226 19.0521L149.099 18.914L148.976 18.782L148.848 18.6439L148.743 18.4878L148.639 18.3318L148.546 18.1577L148.459 18.0016L148.366 17.8035L148.278 17.6295L148.208 17.4374L148.132 17.2214L148.08 17.0652L148.028 16.9092L147.993 16.7352L147.941 16.5551L147.906 16.381V16.1889L147.871 16.0088V15.8168V15.6187V15.4086V15.1925V14.5983V14.4002V14.2081V14.01V13.818L147.906 13.6199V13.4458L147.946 13.2537L147.981 13.0797L148.034 12.8996L148.086 12.7436L148.139 12.5695L148.197 12.3774L148.266 12.1793L148.354 12.0053L148.447 11.8312L148.534 11.6511L148.621 11.4771L148.715 11.321L148.819 11.1649L148.923 11.0089L149.052 10.8708L149.157 10.7388L149.284 10.6007L149.407 10.4867L149.534 10.3666L149.68 10.2526L149.82 10.1506L149.965 10.0545L150.105 9.95843L150.268 9.88045L150.43 9.80239L150.57 9.72433L150.75 9.66436L150.913 9.6043L151.07 9.56829L151.251 9.52632L151.431 9.49023H151.588H151.786H151.966H152.339H152.519H152.717H152.897H153.054L153.234 9.53229L153.398 9.5863L153.554 9.62835L153.7 9.68833L153.857 9.74233L154.003 9.82039L154.183 9.92243L154.34 10.0185L154.503 10.1326L154.648 10.2526L154.788 10.3666L154.934 10.5047L155.056 10.6427L155.183 10.7988L155.305 10.9369L155.416 11.0869L155.503 11.243L155.591 11.381L155.684 11.5551L155.754 11.7112L155.823 11.8912L155.899 12.0473L155.969 12.2394L156.021 12.4134L156.074 12.5935L156.132 12.7856L156.167 12.9776L156.202 13.1757L156.236 13.3678L156.272 13.5839V13.782V13.992V14.1901V14.4062V15.0065H149.523V15.2465V15.4806V15.7147V15.9308L149.563 16.1469L149.616 16.3449L149.668 16.5371L149.721 16.7172L149.773 16.8912L149.849 17.0472L149.919 17.2034L149.988 17.3594L150.081 17.4974L150.169 17.6175L150.274 17.7315L150.401 17.8696L150.523 17.9896L150.669 18.1037L150.797 18.2057L150.954 18.2838L151.117 18.3617L151.274 18.4398L151.437 18.4819L151.617 18.5359L151.798 18.5778H151.99H152.188H152.583H152.758H152.955H153.136H153.316L153.491 18.5418L153.654 18.4999L153.816 18.4459L153.974 18.3858L154.136 18.3257L154.299 18.2478L154.456 18.1877L154.602 18.1096L154.748 18.0137L154.904 17.9356L155.05 17.8395L155.207 17.7375L155.352 17.6415L155.492 17.5214L155.655 17.4074L155.8 17.2934L155.94 17.1733L155.975 17.3654V17.5575L156.016 17.7315V17.9236L156.05 18.1217V18.3138L156.085 18.4878V18.6799L156.283 18.866Z" fill="#C6C6C6"/>
<path d="M164.317 11.2614L164.136 11.2854L163.956 11.3034L163.799 11.3214L163.619 11.3634L163.456 11.3994L163.299 11.4595L163.136 11.5195L162.972 11.5795L162.833 11.6515L162.67 11.7296L162.53 11.8076L162.385 11.8856L162.239 11.9877L162.1 12.0837L161.937 12.1978L161.792 12.3358L161.652 12.4559L161.507 12.6059L161.367 12.744L161.239 12.9001L161.117 13.0561L161.006 13.2122L160.901 13.3682L160.797 13.5423L160.703 13.6984L160.617 13.8784V14.0705V14.2686V14.4606V14.6587V14.8508V15.0249V15.223V15.415V15.6131V15.8052V16.0033V16.1954V16.3934V16.5855V16.7836V16.9576V17.1497V17.3478V17.5399V17.7379V17.93V18.1281V18.3202V18.5183V18.7103V18.9084V19.0825V19.2746V19.4727V19.6647V19.8628V20.0548H160.436H160.256H160.081H159.901H159.738H159.564H159.384H159.203H159.023H158.848V19.8628V19.6647V19.4727V19.2746V19.0825V18.8844V18.6743V18.4762V18.2842V18.0861V17.894V17.6959V17.5039V17.3058V17.1137V16.9157V16.7235V16.5255V16.3334V16.1173V15.9253V15.7272V15.5351V15.337V15.1449V14.9468V14.7548V14.5567V14.3646V14.1665V13.9744V13.7764V13.5843V13.3682V13.1762V12.9781V12.786V12.5879V12.3959V12.1978V12.0057V11.8076V11.6155V11.4174V11.2254V11.0333V10.8173V10.6192V10.427V10.229V10.0369V9.8388V9.64676H159.023H159.203H159.366H159.54H159.721H159.901H160.064H160.239L160.273 9.8388L160.291 10.0369L160.332 10.229L160.349 10.427L160.383 10.6192L160.401 10.7992L160.436 10.9913L160.454 11.1833L160.488 11.3814L160.506 11.5795L160.547 11.7716L160.634 11.6155L160.739 11.4775L160.832 11.3214L160.937 11.1833L161.047 11.0513L161.169 10.9132L161.274 10.7752L161.402 10.6372L161.524 10.5231L161.67 10.409L161.792 10.289L161.955 10.1749L162.1 10.0729L162.239 9.97692L162.403 9.89886L162.566 9.8028L162.723 9.74282L162.903 9.66476L163.084 9.6047L163.263 9.5507L163.438 9.50872L163.636 9.47272L163.834 9.44867L164.032 9.43066L164.066 9.6047L164.084 9.8028L164.119 9.97692L164.136 10.1749L164.171 10.3491L164.206 10.5231L164.223 10.7212L164.259 10.8952L164.281 11.0874L164.317 11.2614Z" fill="#C6C6C6"/>
<path d="M19.5071 20.2352L19.4023 20.0792L19.2918 19.9231L19.1871 19.767L19.0823 19.611L18.9719 19.4549L18.8671 19.2989L18.7566 19.1428L18.6519 18.9867L18.5413 18.8307L18.4366 18.6746L18.3319 18.5185L18.2388 18.3625L18.1341 18.2064L18.0235 18.0503L17.9188 17.8943L17.8083 17.7383L17.7036 17.5821L17.5988 17.4321L17.4884 17.2701L17.3836 17.12L17.2731 16.9579L17.1684 16.8078L17.0578 16.6458L16.9531 16.4897L16.8484 16.3396L16.7378 16.1776L16.6331 16.0276L16.5226 15.8655L16.4179 15.7154L16.3073 15.5594L16.2027 15.4033L16.0921 15.2472L15.9873 15.0912L15.8827 14.9351L15.7896 14.755L15.6849 14.599L15.5743 14.4429L15.4696 14.2869L15.3649 14.1368L15.2543 13.9807L15.1496 13.8187L15.0391 13.6686L14.9344 13.5126L14.8239 13.3565L14.7191 13.2004L14.6144 13.0444L14.5039 12.8883L14.3992 12.7323L14.2886 12.5762L14.1839 12.4201L14.0734 12.2641L13.9686 12.108L13.8581 11.9519L13.7534 11.7959L13.6487 11.6398L13.5382 11.4837L13.4335 11.3277L13.3229 11.1717L13.2356 11.0155L13.1309 10.8595L13.0204 10.7035L12.9157 10.5473L12.8051 10.3913L12.7004 10.2353L12.5899 10.0792L12.4851 9.9231L12.3804 9.76706L12.2699 9.61102L12.1652 9.4549L12.0547 9.29887V9.49696V9.689V9.88113V10.0792V10.2713V10.4694V10.6614V10.8595V11.0516V11.2496V11.4418V11.6398V11.8319V12.03V12.222V12.4201V12.6122V12.8103V13.0024V13.2004V13.3925V13.5906V13.7827V13.9807V14.1728V14.3649V14.563V14.755V14.9711V15.1692V15.3613V15.5594V15.7514V15.9495V16.1416V16.3396V16.5318V16.7238V16.9219V17.12V17.312V17.5042V17.7022V17.8943V18.0924V18.2844V18.4825V18.6746V18.8727V19.0648V19.2628V19.4549V19.653V19.8451V20.0432V20.2352H11.8801H11.6998H11.502H11.3216H11.1471H10.9667H10.769H10.5886H10.4141V20.0432V19.8451V19.653V19.4549V19.2628V19.0648V18.8727V18.6986V18.5005V18.3085V18.1104V17.9183V17.7203V17.5281V17.33V17.138V16.9399V16.7479V16.5498V16.3577V16.1596V15.9855V15.7935V15.5954V15.4033V15.2052V15.0131V14.8151V14.623V14.4249V14.2328V14.0348V13.8427V13.6446V13.4525V13.2545V13.0804V12.8883V12.6902V12.4982V12.3001V12.108V11.9099V11.7178V11.5197V11.3277V11.1296V10.9376V10.7395V10.5473V10.3493V10.1752V9.98316V9.78506V9.59302V9.39493V9.20281V9.00479V8.81267V8.61461V8.42253V8.22445V8.03238V7.8403V7.64222V7.46815V7.27008V7.07799V6.87992V6.68784V6.48976V6.29769V6.09961H10.5886H10.769H10.9493H11.1296H11.2867H11.4671H11.6474H11.822H12.0023L12.107 6.25567L12.2176 6.41173L12.3222 6.5678L12.4328 6.72386L12.5375 6.87992L12.648 7.03598L12.7528 7.21005L12.8575 7.36611L12.968 7.52218L13.0727 7.67824L13.1833 7.8403L13.288 7.99036L13.3985 8.14643L13.5033 8.30248L13.6138 8.45854L13.7185 8.61461L13.8232 8.77069L13.9337 8.92673L14.0385 9.08277L14.149 9.23889L14.2537 9.4189L14.3584 9.57502L14.469 9.73106L14.5737 9.88113L14.6842 10.0372L14.789 10.1993L14.8995 10.3493L15.0042 10.5054L15.1147 10.6614L15.2194 10.8175L15.3242 10.9736L15.4347 11.1296L15.5394 11.2856L15.6674 11.4598L15.7721 11.6218L15.8827 11.7779L15.9873 11.9339L16.0921 12.084L16.2027 12.2461L16.3073 12.3961L16.4179 12.5522L16.5226 12.7082L16.6331 12.8643L16.7378 13.0204L16.8484 13.1764L16.9531 13.3325L17.0578 13.5126L17.1684 13.6686L17.2731 13.8187L17.3836 13.9807L17.4884 14.1368L17.5988 14.2869L17.7036 14.4429L17.8083 14.599L17.9188 14.755L18.0235 14.9111L18.1341 15.0672L18.2388 15.2232L18.3493 15.3793L18.4541 15.5353L18.5588 15.7154L18.6693 15.8655L18.7741 16.0276L18.8845 16.1776L18.9893 16.3396L19.0999 16.4897L19.2045 16.6458V16.4537V16.2617V16.0636V15.8655V15.6734V15.4813V15.2832V15.0912V14.8931V14.701V14.5029V14.3109V14.1128V13.9207V13.7227V13.5306V13.3325V13.1404V12.9423V12.7503V12.5522V12.3601V12.162V11.9699V11.7779V11.5798V11.3637V11.1717V10.9736V10.7814V10.5834V10.3913V10.1993V10.0012V9.80307V9.61102V9.4189V9.22089V9.02877V8.83067V8.63862V8.44054V8.24846V8.05038V7.85831V7.66023V7.46815V7.27008V7.07799V6.87992V6.68784V6.48976V6.29769V6.09961H19.3849H19.5652H19.7572H19.9376H20.1179H20.2982H20.4902H20.6706H20.8509V6.29769V6.48976V6.68784V6.87992V7.07799V7.27008V7.46815V7.64222V7.8403V8.03238V8.22445V8.42253V8.61461V8.81267V9.00479V9.20281V9.39493V9.59302V9.78506V9.98316V10.1752V10.3493V10.5473V10.7395V10.9376V11.1296V11.3277V11.5197V11.7178V11.9099V12.108V12.3001V12.4982V12.6902V12.8883V13.0804V13.2545V13.4525V13.6446V13.8427V14.0348V14.2328V14.4249V14.623V14.8151V15.0131V15.2052V15.4033V15.5954V15.7935V15.9855V16.1596V16.3577V16.5498V16.7479V16.9399V17.138V17.33V17.5281V17.7203V17.9183V18.1104V18.3085V18.5005V18.6986V18.8727V19.0648V19.2628V19.4549V19.653V19.8451V20.0432V20.2352H20.688H20.5077H20.3506H20.1877H20.0074H19.8503H19.67H19.5071Z" fill="#FFFEFE"/>
<path d="M15.7756 1.31623C17.2183 1.32014 18.6447 1.63077 19.966 2.22871C21.2873 2.82665 22.4749 3.69909 23.4548 4.79161C23.482 4.82159 23.5149 4.84549 23.5514 4.86184C23.588 4.87817 23.6274 4.88661 23.6672 4.88661C23.707 4.88661 23.7464 4.87817 23.7829 4.86184C23.8194 4.84549 23.8523 4.82159 23.8795 4.79161C23.9355 4.72851 23.9666 4.64607 23.9666 4.56051C23.9666 4.47496 23.9355 4.39251 23.8795 4.32942C22.8442 3.17851 21.5905 2.25957 20.1964 1.62969C18.8022 0.999812 17.2975 0.672459 15.7756 0.667969C10.371 0.667969 5.82734 4.76759 4.62891 10.2718L5.21067 10.5659C6.2753 5.2718 10.6036 1.31623 15.7756 1.31623Z" fill="#C6C6C6"/>
<path d="M23.455 21.5508C22.4743 22.6419 21.2864 23.5131 19.9652 24.1099C18.6441 24.7068 17.2179 25.0166 15.7757 25.0202C10.6853 25.0202 6.40927 21.1907 5.23411 16.0166L4.65234 16.3107C5.96713 21.6769 10.4816 25.6684 15.7757 25.6684C17.2951 25.6643 18.7974 25.3371 20.1887 24.7071C21.5801 24.0771 22.8306 23.158 23.8622 22.0069C23.9178 21.9449 23.9487 21.8634 23.9487 21.7789C23.9487 21.6943 23.9178 21.6129 23.8622 21.5508C23.835 21.5208 23.8021 21.4969 23.7656 21.4805C23.7291 21.4642 23.6897 21.4557 23.6499 21.4557C23.6101 21.4557 23.5707 21.4642 23.5342 21.4805C23.4976 21.4969 23.4648 21.5208 23.4375 21.5508" fill="#C6C6C6"/>
<path d="M8.24739 13.0751L0.352855 8.83134C0.3032 8.80236 0.244592 8.79429 0.189293 8.80882C0.133993 8.82335 0.0862869 8.85943 0.0561549 8.9094C0.0198054 8.95622 0 9.01442 0 9.07448C0 9.13446 0.0198054 9.19266 0.0561549 9.23956L3.78527 13.3092L0.0794255 17.3728C0.043076 17.4196 0.0232707 17.4778 0.0232707 17.5379C0.0232707 17.5978 0.043076 17.656 0.0794255 17.7029C0.0777548 17.7148 0.0777548 17.727 0.0794255 17.7389C0.114462 17.7753 0.159654 17.7996 0.20868 17.8081C0.257706 17.8168 0.308115 17.8093 0.352855 17.7869L8.24739 13.5372C8.28745 13.5144 8.32078 13.4809 8.34402 13.4403C8.36718 13.3996 8.37946 13.3533 8.37946 13.3062C8.37946 13.2589 8.36718 13.2127 8.34402 13.172C8.32078 13.1314 8.28745 13.0979 8.24739 13.0751Z" fill="white"/>
</svg>
