<svg width="485" height="419" viewBox="0 0 485 419" fill="none" xmlns="http://www.w3.org/2000/svg">
<path d="M366.793 192.406C344.281 192.406 321.816 187.48 304.694 177.606C287.918 167.932 278.668 154.985 278.641 141.15C278.614 127.227 287.918 114.138 304.843 104.291C339.425 84.1706 395.629 83.9877 430.116 103.878C446.888 113.551 456.142 126.499 456.169 140.33C456.196 154.256 446.885 167.349 429.953 177.203C412.54 187.331 389.641 192.406 366.793 192.406Z" fill="#F9FAFB"/>
<path d="M240.832 418.023C179.346 418.023 117.989 404.568 71.2272 377.6C25.4089 351.179 0.144509 315.818 0.0704738 278.033C-0.00356099 240.007 25.409 204.257 71.6344 177.364C166.084 122.412 319.586 121.912 413.777 176.235C459.586 202.656 484.86 238.017 484.934 275.793C485.008 313.829 459.577 349.587 413.333 376.499C365.775 404.16 303.234 418.023 240.832 418.023Z" fill="#F9FAFB"/>
<path d="M378.335 181.439C378.226 181.439 378.121 181.382 378.062 181.281C377.975 181.13 378.025 180.937 378.176 180.848L411.011 161.769C411.521 161.472 411.827 160.942 411.827 160.351C411.825 159.76 411.518 159.232 411.008 158.936L338.245 116.883C338.092 116.795 338.042 116.602 338.128 116.451C338.217 116.298 338.41 116.248 338.562 116.336L411.325 158.388C412.035 158.798 412.459 159.532 412.46 160.351C412.46 161.17 412.038 161.906 411.331 162.318L378.496 181.397C378.444 181.424 378.389 181.439 378.335 181.439Z" fill="#DBDEE4"/>
<path d="M382.217 182.846C384.507 181.524 384.52 179.379 382.244 178.057C379.968 176.735 376.266 176.736 373.975 178.057C371.685 179.379 371.674 181.522 373.95 182.845C376.225 184.169 379.926 184.169 382.217 182.846Z" fill="white"/>
<path d="M378.082 184.148C376.527 184.148 374.974 183.805 373.793 183.119C372.595 182.422 371.936 181.478 371.938 180.46C371.939 179.435 372.607 178.484 373.82 177.784C376.195 176.413 380.047 176.413 382.408 177.784C383.605 178.481 384.263 179.425 384.261 180.444C384.26 181.47 383.59 182.421 382.377 183.121C381.191 183.805 379.635 184.148 378.082 184.148ZM378.119 177.38C376.678 177.38 375.237 177.696 374.136 178.332C373.127 178.915 372.571 179.67 372.569 180.46C372.568 181.243 373.115 181.993 374.111 182.572C376.296 183.842 379.86 183.842 382.06 182.572C383.069 181.989 383.626 181.231 383.628 180.442C383.629 179.659 383.082 178.908 382.088 178.332C380.996 177.696 379.558 177.38 378.119 177.38Z" fill="#DBDEE4"/>
<path d="M378.115 178.941C377.222 178.941 376.359 179.144 375.745 179.498C375.253 179.782 374.969 180.132 374.969 180.457C374.969 180.778 375.245 181.123 375.729 181.404C376.338 181.758 377.198 181.961 378.089 181.961C378.981 181.961 379.846 181.758 380.458 181.404C380.952 181.119 381.235 180.769 381.235 180.444C381.235 180.122 380.958 179.778 380.474 179.497C379.867 179.144 379.007 178.941 378.115 178.941Z" fill="#EA4A35"/>
<path d="M398.27 167.467C397.311 167.467 396.384 167.684 395.724 168.066C395.194 168.372 394.891 168.747 394.891 169.096C394.891 169.441 395.188 169.813 395.708 170.113C396.361 170.493 397.285 170.711 398.244 170.711C399.202 170.711 400.128 170.493 400.788 170.113C401.317 169.808 401.621 169.431 401.623 169.082C401.623 168.737 401.325 168.367 400.806 168.065C400.151 167.684 399.227 167.467 398.27 167.467Z" fill="#373B42"/>
<path d="M206.222 175.583C206.113 175.583 206.008 175.527 205.949 175.426C205.862 175.275 205.912 175.082 206.063 174.992L318.566 109.619C320.507 108.492 322.92 108.487 324.866 109.611L358.58 129.074C358.731 129.162 358.783 129.355 358.697 129.507C358.606 129.658 358.413 129.71 358.263 129.622L324.549 110.158C322.799 109.149 320.629 109.153 318.884 110.166L206.381 175.54C206.331 175.569 206.277 175.583 206.222 175.583Z" fill="#DBDEE4"/>
<path d="M363.504 319.888C363.449 319.888 363.397 319.875 363.347 319.846L313.369 291.106C313.218 291.018 313.166 290.825 313.252 290.674C313.339 290.521 313.534 290.471 313.686 290.557L363.664 319.297C363.815 319.385 363.867 319.578 363.781 319.729C363.721 319.831 363.613 319.888 363.504 319.888Z" fill="#DBDEE4"/>
<path d="M358.561 320.777C356.262 319.454 356.249 317.31 358.533 315.987C360.817 314.665 364.534 314.665 366.831 315.987C369.13 317.31 369.141 319.454 366.857 320.775C364.575 322.099 360.859 322.099 358.561 320.777Z" fill="white"/>
<path d="M362.716 322.077C361.159 322.077 359.596 321.735 358.405 321.051C357.188 320.351 356.516 319.399 356.516 318.373C356.514 317.353 357.177 316.408 358.379 315.712C360.748 314.341 364.611 314.341 366.994 315.712C368.211 316.413 368.882 317.363 368.883 318.388C368.885 319.407 368.222 320.352 367.02 321.049C365.834 321.735 364.278 322.077 362.716 322.077ZM358.72 320.502C360.926 321.772 364.505 321.772 366.702 320.502C367.699 319.923 368.25 319.173 368.25 318.39C368.248 317.6 367.689 316.845 366.676 316.262C364.468 314.991 360.889 314.991 358.692 316.26C357.695 316.838 357.144 317.587 357.146 318.372C357.148 319.163 357.708 319.918 358.72 320.502Z" fill="#DBDEE4"/>
<path d="M362.677 316.872C363.574 316.872 364.44 317.075 365.057 317.429C365.553 317.713 365.835 318.062 365.837 318.387C365.837 318.709 365.559 319.053 365.074 319.334C364.463 319.689 363.598 319.892 362.703 319.892C361.808 319.892 360.942 319.689 360.327 319.334C359.831 319.05 359.547 318.699 359.547 318.374C359.547 318.053 359.825 317.708 360.31 317.427C360.92 317.075 361.782 316.872 362.677 316.872Z" fill="#EA4A35"/>
<path d="M342.444 305.397C343.406 305.397 344.338 305.615 345 305.996C345.531 306.302 345.836 306.677 345.836 307.026C345.836 307.371 345.537 307.743 345.016 308.045C344.36 308.425 343.432 308.643 342.47 308.643C341.508 308.643 340.578 308.425 339.916 308.045C339.385 307.74 339.08 307.363 339.078 307.013C339.078 306.669 339.377 306.299 339.897 305.996C340.556 305.615 341.484 305.397 342.444 305.397Z" fill="#373B42"/>
<path d="M167.361 324.908C166.308 324.908 165.254 324.635 164.316 324.092L145.096 312.962C144.944 312.875 144.893 312.681 144.979 312.529C145.067 312.378 145.262 312.326 145.413 312.413L164.633 323.543C166.311 324.513 168.394 324.518 170.074 323.551L204.046 304.005C204.197 303.919 204.391 303.969 204.48 304.122C204.566 304.273 204.514 304.466 204.363 304.554L170.39 324.1C169.455 324.638 168.407 324.908 167.361 324.908Z" fill="#DBDEE4"/>
<path d="M150.432 310.178C152.731 311.5 152.744 313.646 150.459 314.968C148.175 316.291 144.458 316.291 142.161 314.968C139.863 313.646 139.851 311.502 142.135 310.179C144.419 308.855 148.133 308.855 150.432 310.178Z" fill="white"/>
<path d="M146.314 316.271C144.754 316.271 143.191 315.928 141.999 315.243C140.782 314.543 140.111 313.591 140.109 312.566C140.108 311.545 140.771 310.6 141.973 309.905C144.34 308.533 148.204 308.533 150.588 309.903C151.804 310.603 152.477 311.555 152.477 312.582C152.479 313.602 151.816 314.547 150.614 315.243C149.433 315.928 147.873 316.271 146.314 316.271ZM146.276 309.498C144.832 309.498 143.388 309.817 142.291 310.452C141.294 311.03 140.743 311.781 140.743 312.566C140.745 313.355 141.303 314.11 142.317 314.694C144.527 315.966 148.107 315.966 150.3 314.695C151.298 314.117 151.848 313.366 151.847 312.582C151.845 311.791 151.286 311.035 150.273 310.452C149.168 309.817 147.72 309.498 146.276 309.498Z" fill="#DBDEE4"/>
<path d="M146.308 314.084C145.411 314.084 144.546 313.881 143.928 313.527C143.433 313.243 143.15 312.894 143.148 312.567C143.148 312.245 143.426 311.901 143.912 311.618C144.523 311.264 145.387 311.061 146.282 311.061C147.177 311.061 148.043 311.264 148.659 311.618C149.154 311.903 149.439 312.253 149.439 312.578C149.439 312.9 149.161 313.244 148.675 313.525C148.068 313.881 147.203 314.084 146.308 314.084Z" fill="#EA4A35"/>
<path d="M178.04 320.696C177.079 320.696 176.146 320.478 175.485 320.096C174.954 319.791 174.648 319.415 174.648 319.066C174.648 318.722 174.947 318.35 175.469 318.048C176.125 317.667 177.053 317.45 178.014 317.45C178.976 317.45 179.907 317.667 180.568 318.049C181.099 318.355 181.405 318.731 181.407 319.081C181.407 319.425 181.108 319.797 180.588 320.098C179.928 320.478 179.002 320.696 178.04 320.696Z" fill="#373B42"/>
<g opacity="0.1">
<path d="M165.937 297.922C163.646 299.243 163.635 301.389 165.909 302.711L202.078 323.603C204.352 324.924 208.061 324.924 210.352 323.603L285.479 280.143C287.774 278.819 287.781 276.676 285.506 275.354L249.337 254.462C247.063 253.142 243.361 253.138 241.064 254.462L165.937 297.922Z" fill="#373B42"/>
</g>
<g opacity="0.1">
<path d="M221.829 254.861L115.485 316.286C114.462 316.878 113.201 316.874 112.181 316.281L88.7436 302.65C88.032 302.237 88.0337 301.209 88.7468 300.798L198.379 237.436C199.403 236.845 200.663 236.846 201.683 237.441L221.838 249.16C224.026 250.432 224.021 253.595 221.829 254.861Z" fill="#373B42"/>
</g>
<path d="M206.133 0.945855C204.44 -0.0321199 202.07 0.109214 199.472 1.61679L102.361 57.7382C100.796 58.6415 99.3243 59.9249 98.036 61.4568C97.1913 62.4332 96.4196 63.5297 95.7584 64.675C95.0972 65.8203 94.5368 67.0079 94.0949 68.2328C93.3931 70.1497 92.9983 72.1024 93.0162 73.9349L93.6254 288.571C93.6222 291.546 94.6635 293.627 96.3449 294.598L115.913 305.965C114.22 304.987 113.167 302.898 113.175 299.943L112.553 85.3002C112.538 83.4369 112.94 81.4728 113.666 79.5396C114.108 78.3147 114.679 77.1337 115.341 75.9883C116.002 74.843 116.767 73.7579 117.618 72.7701C118.898 71.2512 120.365 69.9792 121.91 69.0808L219.009 12.9805C221.636 11.4761 223.977 11.3316 225.706 12.3307L206.133 0.945855Z" fill="#DBDEE4"/>
<path d="M117.617 72.7703L98.0349 61.457C97.1901 62.4334 96.4185 63.5299 95.7573 64.6752C95.0961 65.8206 94.5356 67.0081 94.0938 68.233L113.665 79.5398C114.106 78.3149 114.678 77.1339 115.34 75.9886C116.001 74.8433 116.766 73.7597 117.617 72.7703Z" fill="#DBDEE4"/>
<path d="M115.906 306.285C115.85 306.285 115.797 306.272 115.748 306.243C115.748 306.243 115.748 306.243 115.746 306.243L115.738 306.238C115.737 306.238 115.737 306.238 115.735 306.237L96.1869 294.873C94.3284 293.799 93.3034 291.562 93.3017 288.575L92.6877 73.9399C92.673 70.9865 93.6656 67.64 95.4819 64.5176C97.2705 61.4407 99.6537 58.934 102.194 57.4606L199.306 1.34237C201.924 -0.179828 204.406 -0.415385 206.294 0.676308L225.866 12.053C226.017 12.1407 226.067 12.334 225.981 12.4867C225.89 12.6378 225.697 12.6882 225.548 12.6021C225.548 12.6021 225.548 12.6021 225.546 12.6021C223.868 11.6338 221.603 11.8678 219.171 13.2568L122.066 69.3604C119.626 70.7705 117.334 73.1813 115.608 76.1461C113.829 79.2051 112.858 82.4558 112.869 85.3004L113.483 299.937C113.475 302.671 114.382 304.71 116.04 305.681L116.063 305.694C116.214 305.782 116.265 305.975 116.177 306.128C116.12 306.23 116.014 306.285 115.906 306.285ZM203.675 0.634071C202.438 0.634071 201.059 1.05483 199.623 1.88984L102.511 58.0064C100.066 59.4263 97.7644 61.8501 96.0293 64.8344C94.2683 67.8593 93.3082 71.0921 93.3212 73.9351L93.9353 288.573C93.9369 291.327 94.8499 293.369 96.5053 294.324L113.945 304.461C113.225 303.29 112.847 301.75 112.853 299.935L112.239 85.3004C112.226 82.347 113.228 78.9809 115.064 75.826C116.841 72.767 119.216 70.275 121.751 68.8096L218.858 12.7012C220.481 11.7719 222.047 11.3252 223.45 11.3755L205.977 1.21891C205.293 0.829017 204.518 0.634071 203.675 0.634071Z" fill="#373B42"/>
<path d="M212.924 16.8176C212.869 16.8176 212.815 16.8046 212.767 16.7754L193.159 5.44743C193.007 5.3597 192.955 5.16638 193.042 5.0153C193.131 4.86259 193.324 4.81223 193.475 4.89996L213.084 16.2279C213.235 16.3156 213.287 16.5089 213.2 16.66C213.139 16.7607 213.033 16.8176 212.924 16.8176Z" fill="#373B42"/>
<path d="M103.214 111.046C102.389 110.586 101.642 110.528 101.106 110.836L99.1172 111.977C99.6663 111.674 100.401 111.725 101.226 112.185C102.873 113.137 104.205 115.453 104.21 117.36L104.209 134.036C104.2 135.008 103.864 135.677 103.32 135.999L105.308 134.858C105.853 134.537 106.189 133.869 106.197 132.896L106.199 116.22C106.194 114.314 104.862 111.998 103.214 111.046Z" fill="#373B42"/>
<path d="M103.325 136.318C103.216 136.318 103.11 136.261 103.052 136.16C102.964 136.009 103.013 135.818 103.164 135.728C103.63 135.452 103.89 134.851 103.897 134.037L103.898 117.364C103.892 115.559 102.624 113.36 101.071 112.461C100.379 112.075 99.7377 112.003 99.2731 112.257C99.1236 112.341 98.9319 112.288 98.8458 112.135C98.7597 111.984 98.8133 111.792 98.9644 111.704L100.953 110.564C101.603 110.189 102.46 110.263 103.373 110.772C103.375 110.772 103.377 110.774 103.377 110.775C105.133 111.789 106.514 114.184 106.52 116.224L106.519 132.901C106.51 133.951 106.14 134.742 105.474 135.137L103.481 136.281C103.432 136.305 103.378 136.318 103.325 136.318ZM100.501 111.553C100.787 111.625 101.084 111.745 101.385 111.912C103.146 112.929 104.525 115.322 104.532 117.364L104.53 134.042C104.527 134.401 104.481 134.731 104.397 135.025L105.157 134.589C105.62 134.316 105.88 133.715 105.885 132.9L105.887 116.227C105.88 114.422 104.613 112.224 103.063 111.328C102.353 110.933 101.716 110.858 101.268 111.118L100.501 111.553Z" fill="#373B42"/>
<path d="M104.206 117.366C104.206 115.454 102.869 113.138 101.22 112.191C99.5697 111.243 98.2344 112.025 98.2344 113.939L98.236 130.619C98.236 132.531 99.573 134.848 101.222 135.795C102.871 136.742 104.208 135.961 104.208 134.047L104.206 117.366Z" fill="white"/>
<path d="M102.55 136.515C102.089 136.515 101.584 136.365 101.069 136.069C99.3336 135.074 97.9235 132.629 97.9235 130.619L97.9219 113.938C97.9219 112.892 98.2906 112.103 98.96 111.714C99.626 111.329 100.487 111.401 101.382 111.916C103.117 112.912 104.527 115.356 104.527 117.366L104.529 134.047C104.529 135.093 104.16 135.883 103.491 136.271C103.21 136.433 102.891 136.515 102.55 136.515ZM99.9022 112.103C99.6715 112.103 99.4603 112.155 99.2767 112.262C98.8105 112.531 98.5538 113.126 98.5538 113.937L98.5554 130.617C98.5554 132.424 99.8226 134.624 101.382 135.519C102.076 135.917 102.711 135.988 103.172 135.72C103.639 135.45 103.895 134.856 103.895 134.045L103.894 117.364C103.894 115.558 102.627 113.358 101.065 112.463C100.649 112.224 100.253 112.103 99.9022 112.103Z" fill="#373B42"/>
<path d="M106.335 205.268C106.335 203.195 104.886 200.684 103.097 199.657C101.308 198.63 99.8594 199.478 99.8594 201.551L99.8642 241.828C99.8642 243.901 101.313 246.413 103.102 247.439C104.891 248.466 106.34 247.618 106.34 245.545L106.335 205.268Z" fill="#DBDEE4"/>
<path d="M104.525 204.271C104.525 205.171 103.89 205.53 103.115 205.084C102.329 204.633 101.703 203.551 101.703 202.651C101.703 201.728 102.329 201.363 103.113 201.813C103.89 202.259 104.525 203.348 104.525 204.271Z" fill="#373B42"/>
<path d="M122.585 305.308C117.398 308.305 113.187 305.904 113.169 299.939L112.555 85.3039C112.537 79.3402 116.722 72.0866 121.909 69.0893L219.016 12.9776C224.203 9.98035 228.414 12.383 228.432 18.3467L229.046 232.981C229.064 238.947 224.879 246.199 219.692 249.196L122.585 305.308Z" fill="#373B42"/>
<path d="M118.373 306.918C117.426 306.918 116.546 306.697 115.769 306.248C113.899 305.173 112.864 302.931 112.856 299.939L112.242 85.3042C112.224 79.2527 116.492 71.8562 121.754 68.815L218.861 12.7033C221.48 11.1909 223.956 10.9537 225.838 12.034C227.708 13.1095 228.745 15.3513 228.753 18.3454L229.367 232.98C229.385 239.031 225.117 246.428 219.855 249.469L122.748 305.581C121.21 306.469 119.722 306.918 118.373 306.918ZM223.233 11.9999C221.996 11.9999 220.617 12.4207 219.178 13.2508L122.069 69.3625C116.983 72.3029 112.858 79.4526 112.874 85.3025L113.488 299.937C113.496 302.696 114.419 304.741 116.084 305.699C117.758 306.664 120.012 306.427 122.428 305.033L219.537 248.922C224.623 245.981 228.748 238.832 228.732 232.982L228.118 18.347C228.109 15.5885 227.187 13.5416 225.522 12.5831C224.846 12.1948 224.073 11.9999 223.233 11.9999Z" fill="#373B42"/>
<path d="M224.779 13.8829C225.939 14.5538 226.615 16.1849 226.62 18.3504L227.234 232.987C227.242 235.558 226.362 238.508 224.752 241.301C223.147 244.084 221.027 246.332 218.786 247.632L121.679 303.74C119.775 304.843 118.003 305.089 116.822 304.406C115.662 303.735 114.986 302.104 114.981 299.939L114.367 85.3027C114.359 82.731 115.24 79.7808 116.85 76.9882C118.455 74.2054 120.575 71.957 122.815 70.6574L219.92 14.5489C221.826 13.4459 223.598 13.2006 224.779 13.8829Z" fill="white"/>
<path d="M118.368 305.101C117.731 305.101 117.156 304.961 116.669 304.68C115.405 303.949 114.675 302.222 114.669 299.94L114.055 85.3035C114.047 82.6766 114.943 79.6663 116.579 76.8299C118.214 73.9999 120.373 71.7093 122.662 70.3837L219.767 14.2752C221.777 13.1137 223.664 12.8684 224.943 13.6091C226.208 14.3402 226.936 16.0671 226.941 18.3496L227.555 232.986C227.563 235.614 226.666 238.623 225.029 241.459C223.398 244.288 221.239 246.577 218.948 247.906L121.841 304.012C120.6 304.734 119.403 305.101 118.368 305.101ZM223.237 13.8171C222.319 13.8171 221.232 14.1566 220.084 14.8227L122.978 70.9311C120.785 72.2032 118.707 74.4109 117.128 77.1466C115.546 79.8889 114.679 82.7854 114.688 85.3018L115.302 299.938C115.309 301.988 115.921 303.517 116.985 304.133C118.066 304.756 119.72 304.513 121.526 303.467L218.633 247.358C220.828 246.084 222.906 243.877 224.481 241.143C226.064 238.402 226.931 235.505 226.923 232.986L226.309 18.3496C226.304 16.2994 225.69 14.7707 224.626 14.155C224.233 13.9292 223.762 13.8171 223.237 13.8171Z" fill="#373B42"/>
<path d="M148.622 67.057C150.065 66.235 186.653 45.2248 188.35 44.25C191.062 42.6905 193.268 38.8663 193.273 35.7342L193.266 30.0239C191.569 30.9987 145.64 57.3715 143.705 58.4827L143.703 64.1881C143.706 67.3251 145.911 68.6166 148.622 67.057Z" fill="#373B42"/>
<path d="M146.44 68.0386C145.914 68.0386 145.426 67.9135 144.993 67.6633C143.956 67.0638 143.384 65.8308 143.383 64.1884L143.384 58.4814C143.384 58.3677 143.445 58.2637 143.544 58.2068C144.648 57.5733 160.106 48.6968 173.476 41.0192L193.105 29.7481C193.201 29.6929 193.324 29.6912 193.42 29.7481C193.518 29.805 193.578 29.9089 193.578 30.021L193.584 35.7297C193.581 38.969 191.3 42.9134 188.504 44.5217C186.896 45.4444 150.235 66.4969 148.778 67.3286C147.959 67.8014 147.166 68.0386 146.44 68.0386ZM144.018 58.6666L144.016 64.1884C144.018 65.5936 144.478 66.6333 145.311 67.1142C146.138 67.5918 147.257 67.4749 148.461 66.7828C148.463 66.7828 148.463 66.7828 148.463 66.7828C149.907 65.9592 186.583 44.9002 188.189 43.9758C190.813 42.4683 192.949 38.7708 192.952 35.7345L192.946 30.5734L173.793 41.5715C160.871 48.9908 146 57.5294 144.018 58.6666Z" fill="#373B42"/>
<path d="M181.718 43.6554C182.28 42.6807 182.59 41.6459 182.59 40.741C182.59 39.9271 182.343 39.3342 181.895 39.0742C181.452 38.8192 180.829 38.8955 180.141 39.2903L149.355 56.9637C148.574 57.4121 147.833 58.1984 147.268 59.1763C146.703 60.1576 146.391 61.1989 146.391 62.1086C146.391 62.9128 146.636 63.4992 147.083 63.7559C147.528 64.0142 148.153 63.9362 148.847 63.5399L179.63 45.8681C180.412 45.4197 181.153 44.6334 181.718 43.6554Z" fill="white"/>
<path d="M189.703 39.0747C190.265 38.1 190.576 37.0651 190.576 36.1619C190.576 35.348 190.329 34.7567 189.88 34.4967C189.439 34.24 188.813 34.318 188.121 34.7144C187.34 35.1628 186.599 35.9491 186.033 36.927C185.468 37.9083 185.156 38.9496 185.156 39.8593C185.156 40.6635 185.402 41.2483 185.848 41.5066C186.293 41.7649 186.919 41.687 187.613 41.2906C188.396 40.8389 189.138 40.0527 189.703 39.0747Z" fill="white"/>
<path d="M188.953 38.6388C189.288 38.0589 189.471 37.4448 189.471 36.9071C189.471 36.423 189.325 36.0721 189.059 35.9177C188.796 35.765 188.424 35.8105 188.013 36.0477C187.548 36.3141 187.108 36.782 186.771 37.3636C186.435 37.9468 186.25 38.5657 186.25 39.1067C186.25 39.5843 186.396 39.932 186.661 40.0863C186.926 40.239 187.298 40.1935 187.71 39.958C188.177 39.6883 188.619 39.2204 188.953 38.6388Z" fill="#373B42"/>
<path d="M193.099 21.2998C195.091 20.148 195.076 18.2798 193.098 17.1296C191.093 15.9632 187.896 15.9632 185.903 17.115C183.859 18.296 183.848 20.1496 185.854 21.316C187.833 22.4662 191.056 22.4808 193.099 21.2998Z" fill="#373B42"/>
<path d="M112.592 99.5496C112.537 99.5496 112.484 99.5366 112.435 99.5074L92.8851 88.2135C92.734 88.1258 92.682 87.9325 92.7681 87.7814C92.8558 87.6287 93.0508 87.5783 93.2018 87.6661L112.752 98.9599C112.903 99.0476 112.955 99.2409 112.869 99.392C112.808 99.4927 112.701 99.5496 112.592 99.5496Z" fill="#373B42"/>
<path d="M113.136 287.658C113.081 287.658 113.027 287.645 112.978 287.616L93.4319 276.322C93.2809 276.234 93.2289 276.041 93.315 275.89C93.4043 275.737 93.5976 275.687 93.7487 275.774L113.295 287.068C113.446 287.156 113.498 287.349 113.412 287.5C113.35 287.601 113.245 287.658 113.136 287.658Z" fill="#373B42"/>
<path d="M217.683 80.7517L121.25 136.621V124.775L217.683 68.8926V80.7517Z" fill="#373B42"/>
<path d="M121.253 136.938C121.197 136.938 121.144 136.923 121.095 136.896C120.998 136.839 120.938 136.735 120.938 136.621V124.775C120.938 124.661 120.998 124.557 121.095 124.5L217.528 68.6178C217.624 68.561 217.746 68.561 217.845 68.6178C217.942 68.6747 218.002 68.7787 218.002 68.8924V80.7532C218.002 80.8669 217.942 80.9709 217.845 81.0277L121.412 136.897C121.363 136.925 121.308 136.938 121.253 136.938ZM121.569 124.957V136.072L217.369 80.5696V69.4415L121.569 124.957Z" fill="#373B42"/>
<path d="M245.282 229.437L156.879 280.855C155.795 281.492 154.286 281.405 152.629 280.445C149.351 278.549 146.709 273.959 146.722 270.194L146.997 155.207C147.021 146.265 140.741 134.137 132.966 129.646L124.492 124.745L212.906 73.3267L221.38 78.2279C229.157 82.7181 235.437 93.6042 235.411 102.546L235.125 218.775C235.112 222.541 237.767 227.13 241.045 229.026C242.704 229.986 244.198 230.074 245.282 229.437Z" fill="white"/>
<path d="M155.301 281.582C154.426 281.582 153.462 281.291 152.47 280.716C149.112 278.775 146.391 274.053 146.404 270.189L146.678 155.203C146.704 146.014 140.221 134.199 132.805 129.917L124.329 125.015C124.232 124.958 124.172 124.855 124.172 124.742C124.172 124.629 124.232 124.525 124.329 124.468L212.745 73.0495C212.844 72.9926 212.966 72.9926 213.064 73.0495L221.537 77.9507C229.387 82.4832 235.752 93.5155 235.728 102.545L235.44 218.774C235.427 222.431 238.012 226.907 241.201 228.751C242.69 229.613 244.071 229.764 245.098 229.175L245.119 229.162C245.272 229.074 245.462 229.124 245.553 229.275C245.641 229.426 245.59 229.62 245.441 229.707C245.439 229.707 245.439 229.707 245.439 229.709C245.431 229.714 245.426 229.717 245.42 229.72L157.038 281.127C156.518 281.431 155.932 281.582 155.301 281.582ZM125.119 124.742L133.121 129.371C140.706 133.751 147.336 145.823 147.312 155.206L147.037 270.193C147.024 273.853 149.604 278.328 152.787 280.169C154.291 281.04 155.686 281.186 156.718 280.582L243.418 230.152C242.625 230.096 241.766 229.81 240.886 229.3C237.523 227.355 234.795 222.632 234.808 218.774L235.096 102.546C235.12 93.7202 228.896 82.9332 221.222 78.5014L212.908 73.6928L125.119 124.742Z" fill="#373B42"/>
<path d="M256.962 192.957C255.903 193.581 255.242 194.89 255.23 196.76L255.156 231.892C255.143 235.908 253.736 238.738 251.442 240.061L163.039 291.479C165.32 290.157 166.74 287.327 166.753 283.311L166.827 248.178C166.827 246.307 167.489 244.986 168.559 244.375L256.962 192.957Z" fill="white"/>
<path d="M163.035 291.797C162.926 291.797 162.82 291.74 162.762 291.639C162.674 291.488 162.724 291.295 162.876 291.205L162.893 291.195C165.163 289.87 166.42 287.071 166.432 283.31L166.506 248.178C166.506 246.243 167.177 244.795 168.397 244.1L256.798 192.683C256.95 192.595 257.141 192.646 257.232 192.797C257.32 192.948 257.27 193.141 257.12 193.229C256.115 193.82 255.554 195.075 255.543 196.762L255.468 231.893C255.455 235.904 254.081 238.903 251.597 240.336L163.212 291.743C163.205 291.746 163.199 291.749 163.194 291.753C163.144 291.784 163.088 291.797 163.035 291.797ZM255.432 194.212L168.714 244.651C167.697 245.231 167.14 246.483 167.14 248.181L167.065 283.313C167.057 285.966 166.451 288.177 165.32 289.785L251.278 239.79C253.561 238.474 254.823 235.67 254.834 231.893L254.909 196.761C254.914 195.775 255.096 194.912 255.432 194.212Z" fill="#373B42"/>
<path d="M203.893 310.056L292.304 258.64L292.278 268.007L203.867 319.424L203.893 310.056Z" fill="white"/>
<path d="M203.87 319.74C203.815 319.74 203.761 319.725 203.712 319.698C203.615 319.641 203.555 319.537 203.555 319.423L203.582 310.056C203.582 309.944 203.642 309.84 203.74 309.783L292.151 258.366C292.25 258.31 292.37 258.31 292.469 258.366C292.567 258.423 292.627 258.527 292.627 258.641L292.599 268.008C292.599 268.12 292.539 268.224 292.442 268.281L204.031 319.698C203.979 319.725 203.923 319.74 203.87 319.74ZM204.213 310.24L204.187 318.872L291.962 267.824L291.988 259.192L204.213 310.24Z" fill="#373B42"/>
<path d="M292.302 258.644L203.9 310.063L192.684 303.578C189.407 301.682 186.753 297.093 186.764 293.327L186.839 259.741C186.863 250.8 180.583 239.912 172.808 235.423C168.894 233.165 165.343 232.954 162.789 234.439L251.192 183.02C253.759 181.537 257.298 181.748 261.21 184.005C268.987 188.495 275.268 199.381 275.242 208.323L275.18 241.908C275.167 245.674 277.821 250.263 281.087 252.159L292.302 258.644Z" fill="white"/>
<path d="M203.905 310.38C203.85 310.38 203.794 310.365 203.747 310.338L192.533 303.853C189.169 301.908 186.443 297.186 186.454 293.327L186.529 259.741C186.553 250.914 180.33 240.128 172.655 235.697C168.971 233.572 165.528 233.221 162.962 234.707L162.953 234.712C162.801 234.798 162.607 234.748 162.52 234.597C162.432 234.446 162.482 234.252 162.633 234.163L251.034 182.746C253.816 181.14 257.486 181.489 261.371 183.731C269.22 188.263 275.586 199.295 275.562 208.323L275.5 241.91C275.487 245.564 278.067 250.04 281.249 251.887L292.464 258.372C292.561 258.429 292.621 258.533 292.621 258.645C292.621 258.759 292.561 258.863 292.464 258.919L204.061 310.338C204.015 310.365 203.96 310.38 203.905 310.38ZM166.488 233.166C168.482 233.166 170.688 233.83 172.972 235.147C180.822 239.68 187.187 250.712 187.162 259.741L187.088 293.327C187.075 296.984 189.661 301.46 192.85 303.304L203.906 309.698L291.679 258.646L280.936 252.434C277.578 250.485 274.858 245.764 274.871 241.909L274.933 208.323C274.958 199.497 268.734 188.71 261.06 184.28C257.38 182.156 253.933 181.806 251.356 183.295L165.515 233.224C165.834 233.183 166.159 233.166 166.488 233.166Z" fill="#373B42"/>
<path d="M132.976 129.643C140.753 134.137 147.035 146.269 147.011 155.212L146.728 270.189C146.717 273.956 149.368 278.55 152.643 280.443C155.934 282.345 158.602 280.823 158.613 277.057L158.683 243.478C158.709 234.535 165.032 230.928 172.808 235.422C180.585 239.915 186.867 250.805 186.843 259.748L186.773 293.327C186.762 297.095 189.413 301.689 192.688 303.581L203.9 310.06L203.874 319.427L192.662 312.948C184.885 308.455 178.603 297.566 178.627 288.622L178.697 255.043C178.709 251.276 176.057 246.682 172.782 244.789C169.507 242.896 166.838 244.417 166.828 248.184L166.754 283.32C166.731 291.397 161.009 294.659 153.986 290.601L152.617 289.81C144.848 285.321 138.558 274.427 138.582 265.484L138.865 149.266C138.877 145.491 136.233 140.901 132.95 139.004L124.477 134.107L124.503 124.75L132.976 129.643Z" fill="#FFD1CF"/>
<path d="M203.871 319.74C203.816 319.74 203.762 319.725 203.713 319.698L192.501 313.219C184.649 308.684 178.283 297.646 178.309 288.619L178.379 255.039C178.388 251.376 175.805 246.901 172.621 245.06C171.136 244.202 169.752 244.051 168.727 244.641C167.709 245.226 167.147 246.483 167.142 248.182L167.067 283.318C167.056 287.331 165.67 290.333 163.17 291.772C160.655 293.219 157.334 292.901 153.824 290.872L152.454 290.081C144.603 285.544 138.236 274.508 138.262 265.48L138.545 149.262C138.556 145.594 135.973 141.114 132.787 139.275L124.314 134.378C124.216 134.321 124.156 134.217 124.156 134.104L124.182 124.746C124.182 124.633 124.242 124.529 124.34 124.472C124.439 124.416 124.558 124.415 124.657 124.472L133.132 129.366C140.718 133.751 147.35 145.826 147.324 155.21L147.041 270.187C147.03 273.848 149.613 278.326 152.799 280.166C154.295 281.031 155.684 281.183 156.71 280.592C157.726 280.007 158.29 278.751 158.294 277.054L158.364 243.474C158.377 239.044 159.901 235.732 162.656 234.146C165.428 232.553 169.091 232.907 172.964 235.145C180.815 239.681 187.182 250.718 187.156 259.747L187.086 293.327C187.076 296.99 189.659 301.466 192.844 303.306L204.056 309.785C204.154 309.842 204.214 309.946 204.214 310.059L204.186 319.427C204.186 319.54 204.126 319.644 204.029 319.701C203.98 319.726 203.925 319.74 203.871 319.74ZM170.119 243.653C170.992 243.653 171.95 243.941 172.938 244.512C176.298 246.454 179.022 251.176 179.012 255.041L178.942 288.62C178.916 297.447 185.142 308.237 192.818 312.672L203.556 318.876L203.582 310.24L192.527 303.852C189.167 301.911 186.443 297.188 186.453 293.323L186.522 259.744C186.548 250.918 180.323 240.128 172.647 235.693C168.976 233.573 165.541 233.217 162.971 234.695C160.421 236.162 159.008 239.281 158.996 243.476L158.926 277.055C158.92 278.988 158.246 280.439 157.026 281.141C155.797 281.849 154.181 281.698 152.482 280.715C149.121 278.774 146.396 274.052 146.408 270.187L146.69 155.211C146.716 146.023 140.233 134.203 132.815 129.917L124.814 125.295L124.79 133.922L133.104 138.725C136.465 140.667 139.19 145.394 139.178 149.264L138.896 265.482C138.87 274.308 145.095 285.097 152.771 289.533L154.14 290.325C157.446 292.233 160.538 292.553 162.854 291.223C165.152 289.901 166.424 287.093 166.435 283.316L166.51 248.181C166.516 246.246 167.192 244.795 168.412 244.092C168.922 243.799 169.497 243.653 170.119 243.653Z" fill="#373B42"/>
<path d="M152.203 182.041L152.252 199.425L167.37 190.691L167.319 173.307L152.203 182.041Z" fill="#EA4A35"/>
<path d="M152.255 199.742C152.199 199.742 152.146 199.727 152.097 199.699C151.999 199.643 151.939 199.539 151.939 199.425L151.891 182.041C151.891 181.927 151.951 181.823 152.048 181.766L167.166 173.031C167.265 172.974 167.384 172.974 167.483 173.031C167.58 173.088 167.641 173.192 167.641 173.305L167.689 190.69C167.689 190.803 167.629 190.907 167.532 190.964L152.414 199.699C152.363 199.727 152.308 199.742 152.255 199.742ZM152.521 182.224L152.57 198.877L167.054 190.508L167.005 173.855L152.521 182.224Z" fill="#373B42"/>
<path d="M152.203 207.971L152.252 225.355L167.37 216.622L167.319 199.236L152.203 207.971Z" fill="#EA4A35"/>
<path d="M152.255 225.672C152.199 225.672 152.146 225.657 152.097 225.63C151.999 225.573 151.939 225.469 151.939 225.355L151.891 207.971C151.891 207.857 151.951 207.753 152.048 207.696L167.166 198.961C167.265 198.904 167.384 198.904 167.483 198.961C167.58 199.018 167.641 199.122 167.641 199.236L167.689 216.62C167.689 216.734 167.629 216.838 167.532 216.894L152.414 225.63C152.363 225.657 152.308 225.672 152.255 225.672ZM152.521 208.153L152.57 224.808L167.054 216.438L167.005 199.783L152.521 208.153Z" fill="#373B42"/>
<path d="M206.221 244.029L191.364 252.763C191.382 246.588 187.456 239.209 182.312 235.317L197.169 226.583C202.314 230.476 206.239 237.855 206.221 244.029Z" fill="#EA4A35"/>
<path d="M191.361 253.078C191.306 253.078 191.252 253.064 191.204 253.036C191.105 252.979 191.044 252.874 191.044 252.762C191.061 246.824 187.224 239.432 182.119 235.569C182.033 235.506 181.988 235.403 181.993 235.298C181.999 235.192 182.058 235.096 182.149 235.044L197.007 226.312C197.117 226.246 197.255 226.255 197.359 226.333C202.692 230.37 206.552 237.814 206.535 244.031C206.535 244.143 206.474 244.247 206.379 244.304L191.52 253.036C191.472 253.064 191.417 253.078 191.361 253.078ZM182.873 235.353C187.86 239.325 191.473 246.258 191.67 252.212L205.901 243.848C205.841 238.007 202.114 230.822 197.145 226.964L182.873 235.353Z" fill="#373B42"/>
<path d="M193.367 261.308L193.416 278.692L208.532 269.959L208.484 252.575L193.367 261.308Z" fill="#EA4A35"/>
<path d="M193.419 279.009C193.363 279.009 193.31 278.995 193.261 278.967C193.164 278.91 193.103 278.806 193.103 278.692L193.055 261.308C193.055 261.194 193.115 261.091 193.212 261.034L208.33 252.299C208.429 252.242 208.548 252.242 208.647 252.299C208.745 252.355 208.805 252.459 208.805 252.573L208.853 269.957C208.853 270.071 208.793 270.175 208.696 270.232L193.578 278.967C193.527 278.996 193.472 279.009 193.419 279.009ZM193.685 261.492L193.734 278.147L208.218 269.777L208.169 253.122L193.685 261.492Z" fill="#373B42"/>
<path d="M172.527 172.982C172.418 172.982 172.313 172.926 172.254 172.825C172.166 172.674 172.217 172.48 172.368 172.391L228.983 139.465C229.134 139.377 229.327 139.428 229.417 139.58C229.505 139.731 229.454 139.925 229.303 140.014L172.688 172.94C172.636 172.968 172.582 172.982 172.527 172.982Z" fill="#373B42"/>
<path d="M172.527 181.066C172.418 181.066 172.313 181.009 172.254 180.908C172.166 180.757 172.217 180.564 172.368 180.475L228.983 147.548C229.134 147.461 229.327 147.511 229.417 147.664C229.505 147.815 229.454 148.008 229.303 148.097L172.688 181.024C172.636 181.051 172.582 181.066 172.527 181.066Z" fill="#373B42"/>
<path d="M172.527 189.15C172.418 189.15 172.313 189.093 172.254 188.992C172.166 188.841 172.217 188.648 172.368 188.559L212.72 165.09C212.872 165.003 213.064 165.053 213.154 165.206C213.241 165.357 213.191 165.55 213.04 165.639L172.688 189.108C172.636 189.137 172.582 189.15 172.527 189.15Z" fill="#373B42"/>
<path d="M172.527 198.261C172.418 198.261 172.313 198.204 172.254 198.104C172.166 197.953 172.217 197.759 172.368 197.67L228.983 164.744C229.134 164.656 229.327 164.706 229.417 164.859C229.505 165.01 229.454 165.203 229.303 165.293L172.688 198.219C172.636 198.247 172.582 198.261 172.527 198.261Z" fill="#373B42"/>
<path d="M172.527 206.344C172.418 206.344 172.313 206.287 172.254 206.187C172.166 206.036 172.217 205.842 172.368 205.753L228.983 172.827C229.134 172.739 229.327 172.789 229.417 172.942C229.505 173.093 229.454 173.286 229.303 173.376L172.688 206.302C172.636 206.33 172.582 206.344 172.527 206.344Z" fill="#373B42"/>
<path d="M172.527 214.429C172.418 214.429 172.313 214.372 172.254 214.271C172.166 214.12 172.217 213.927 172.368 213.838L215.834 188.558C215.985 188.47 216.178 188.521 216.268 188.674C216.355 188.825 216.305 189.018 216.154 189.107L172.688 214.387C172.636 214.416 172.582 214.429 172.527 214.429Z" fill="#373B42"/>
<path d="M158.718 191.149C158.585 191.149 158.45 191.121 158.322 191.063L155.297 189.674C154.819 189.455 154.61 188.891 154.829 188.413C155.049 187.936 155.62 187.731 156.088 187.947L158.337 188.979L163.051 180.999C163.317 180.547 163.899 180.398 164.352 180.664C164.804 180.931 164.953 181.514 164.687 181.965L159.537 190.683C159.36 190.98 159.045 191.149 158.718 191.149Z" fill="white"/>
<path d="M158.725 217.605C158.591 217.605 158.457 217.577 158.328 217.519L155.303 216.13C154.827 215.91 154.618 215.347 154.837 214.869C155.056 214.392 155.623 214.187 156.098 214.403L158.344 215.434L163.059 207.455C163.325 207.003 163.904 206.852 164.36 207.12C164.812 207.386 164.961 207.97 164.695 208.421L159.545 217.14C159.366 217.438 159.051 217.605 158.725 217.605Z" fill="white"/>
<path d="M213.035 251.339C212.926 251.339 212.82 251.282 212.762 251.181C212.674 251.03 212.724 250.837 212.876 250.748L269.491 217.821C269.642 217.734 269.835 217.784 269.925 217.937C270.012 218.088 269.962 218.281 269.811 218.37L213.196 251.297C213.144 251.324 213.09 251.339 213.035 251.339Z" fill="#373B42"/>
<path d="M213.035 259.422C212.926 259.422 212.82 259.366 212.762 259.265C212.674 259.114 212.724 258.92 212.876 258.831L269.491 225.905C269.642 225.817 269.835 225.867 269.925 226.02C270.012 226.171 269.962 226.365 269.811 226.454L213.196 259.38C213.144 259.409 213.09 259.422 213.035 259.422Z" fill="#373B42"/>
<path d="M213.683 267.128C213.574 267.128 213.469 267.071 213.41 266.971C213.323 266.819 213.373 266.626 213.524 266.537L250.721 244.904C250.872 244.817 251.066 244.867 251.155 245.02C251.243 245.171 251.192 245.364 251.041 245.453L213.844 267.086C213.792 267.115 213.737 267.128 213.683 267.128Z" fill="#373B42"/>
<path d="M210.293 231.489C210.184 231.489 210.078 231.432 210.02 231.331C209.932 231.18 209.982 230.987 210.133 230.897L265.036 198.967C265.189 198.879 265.381 198.929 265.47 199.082C265.558 199.233 265.508 199.427 265.356 199.516L210.453 231.446C210.401 231.476 210.348 231.489 210.293 231.489Z" fill="#373B42"/>
<path d="M206.214 224.509C206.106 224.509 206 224.452 205.942 224.351C205.854 224.2 205.904 224.007 206.055 223.918L260.96 191.987C261.111 191.9 261.304 191.95 261.394 192.103C261.481 192.254 261.431 192.447 261.28 192.536L206.375 224.467C206.323 224.496 206.27 224.509 206.214 224.509Z" fill="#373B42"/>
<path d="M213.035 239.926C212.926 239.926 212.82 239.869 212.762 239.768C212.674 239.617 212.724 239.424 212.876 239.334L242.837 221.911C242.988 221.823 243.181 221.874 243.271 222.027C243.358 222.178 243.308 222.371 243.157 222.46L213.196 239.885C213.144 239.913 213.09 239.926 213.035 239.926Z" fill="#373B42"/>
<path d="M194.887 243.1C194.809 243.1 194.729 243.09 194.651 243.071L191.426 242.245C190.918 242.116 190.611 241.597 190.741 241.09C190.871 240.582 191.386 240.272 191.896 240.405L194.29 241.017L197.499 232.319C197.681 231.827 198.225 231.575 198.721 231.757C199.213 231.939 199.465 232.485 199.283 232.977L195.777 242.478C195.637 242.86 195.275 243.1 194.887 243.1Z" fill="white"/>
<path d="M198.129 291.07C198.02 291.07 197.914 291.013 197.856 290.912C197.768 290.761 197.818 290.568 197.969 290.479L266.286 250.747C266.437 250.659 266.631 250.71 266.72 250.862C266.808 251.014 266.757 251.207 266.606 251.296L198.289 291.028C198.237 291.055 198.182 291.07 198.129 291.07Z" fill="#373B42"/>
<path d="M210.449 292.118C210.34 292.118 210.234 292.061 210.176 291.96C210.088 291.809 210.139 291.616 210.29 291.526L261.666 261.646C261.817 261.558 262.01 261.609 262.1 261.761C262.187 261.912 262.137 262.106 261.986 262.195L210.61 292.075C210.558 292.103 210.504 292.118 210.449 292.118Z" fill="#373B42"/>
<path d="M255.841 226.996L268.023 238.153L256.262 243.263L252.847 244.741C251.747 245.21 250.602 244.185 250.945 243.04L252.064 239.359L255.841 226.996Z" fill="white"/>
<path d="M252.292 245.174C251.879 245.174 251.473 245.022 251.148 244.733C250.643 244.282 250.451 243.598 250.644 242.948L255.541 226.902C255.573 226.798 255.656 226.719 255.762 226.689C255.864 226.662 255.978 226.688 256.059 226.761L268.241 237.918C268.321 237.991 268.358 238.099 268.339 238.204C268.321 238.31 268.253 238.399 268.154 238.443L252.979 245.031C252.753 245.126 252.521 245.174 252.292 245.174ZM255.999 227.568L251.25 243.131C251.125 243.549 251.245 243.971 251.569 244.261C251.892 244.548 252.322 244.621 252.724 244.449L267.45 238.056L255.999 227.568Z" fill="#373B42"/>
<path d="M304.903 172.816C304.035 173.768 303.788 175.293 304.389 177.17C305.575 180.903 309.632 184.597 313.428 185.414C315.326 185.822 316.807 185.45 317.665 184.503L269.322 237.314C268.463 238.259 266.983 238.633 265.085 238.225C261.29 237.403 257.24 233.717 256.046 229.98C255.452 228.106 255.692 226.579 256.56 225.627L304.903 172.816Z" fill="#DBDEE4"/>
<path d="M266.536 238.706C266.06 238.706 265.552 238.649 265.017 238.536C261.122 237.691 256.963 233.896 255.743 230.078C255.132 228.153 255.338 226.498 256.324 225.416L304.668 172.603C304.789 172.475 304.988 172.467 305.116 172.584C305.244 172.701 305.254 172.902 305.135 173.031C304.304 173.944 304.148 175.378 304.692 177.073C305.845 180.707 309.793 184.308 313.494 185.104C315.208 185.475 316.603 185.189 317.419 184.303L317.428 184.294C317.43 184.294 317.43 184.292 317.432 184.292V184.29C317.552 184.161 317.75 184.152 317.878 184.271C318.008 184.388 318.016 184.588 317.899 184.718C317.899 184.718 317.899 184.718 317.899 184.719L317.898 184.721C317.893 184.726 317.89 184.729 317.885 184.734L269.555 237.53C268.848 238.305 267.805 238.706 266.536 238.706ZM303.792 174.498L256.792 225.843C255.965 226.75 255.808 228.186 256.347 229.886C257.505 233.512 261.455 237.116 265.151 237.918C266.873 238.287 268.271 237.999 269.088 237.104L316.087 185.761C315.299 185.952 314.376 185.944 313.361 185.727C309.462 184.888 305.303 181.093 304.088 177.269C303.763 176.255 303.667 175.316 303.792 174.498Z" fill="#373B42"/>
<path d="M303.489 199.983C302.63 200.929 301.15 201.302 299.252 200.895C295.457 200.079 291.399 196.385 290.213 192.65C289.612 190.774 289.859 189.248 290.727 188.296L295.451 183.137C294.583 184.089 294.336 185.614 294.937 187.491C296.123 191.224 300.18 194.918 303.976 195.735C305.874 196.143 307.354 195.771 308.213 194.824L303.489 199.983Z" fill="#373B42"/>
<path d="M300.706 201.376C300.23 201.376 299.72 201.319 299.185 201.205C295.288 200.367 291.128 196.573 289.911 192.748C289.295 190.827 289.5 189.172 290.492 188.085L295.215 182.924C295.337 182.796 295.535 182.786 295.663 182.904C295.792 183.021 295.801 183.223 295.683 183.351C294.851 184.264 294.695 185.699 295.239 187.393C296.393 191.027 300.34 194.629 304.041 195.425C305.76 195.795 307.15 195.509 307.964 194.626L307.977 194.609C308.098 194.481 308.296 194.471 308.424 194.59C308.554 194.707 308.562 194.907 308.445 195.037C308.445 195.037 308.445 195.037 308.445 195.038L308.444 195.04C308.439 195.045 308.435 195.05 308.431 195.053L303.719 200.198C303.018 200.974 301.973 201.376 300.706 201.376ZM294.341 184.818L290.962 188.511C290.13 189.422 289.973 190.858 290.517 192.553C291.67 196.187 295.621 199.788 299.32 200.584C301.041 200.955 302.443 200.667 303.255 199.77C303.256 199.77 303.256 199.77 303.256 199.769L306.635 196.078C305.848 196.27 304.925 196.26 303.909 196.044C300.011 195.206 295.852 191.411 294.637 187.586C294.312 186.574 294.216 185.637 294.341 184.818Z" fill="#373B42"/>
<path d="M304.384 177.173C303.195 173.438 305.325 171.085 309.125 171.906C312.934 172.728 316.986 176.414 318.175 180.149C319.364 183.884 317.235 186.236 313.425 185.414C309.625 184.594 305.572 180.906 304.384 177.173Z" fill="#373B42"/>
<path d="M314.873 185.896C314.395 185.896 313.888 185.839 313.355 185.724C309.458 184.884 305.296 181.09 304.081 177.269C303.468 175.346 303.673 173.692 304.654 172.61C305.632 171.536 307.245 171.176 309.188 171.597C313.092 172.438 317.259 176.233 318.474 180.052C319.087 181.974 318.882 183.628 317.901 184.708C317.191 185.491 316.143 185.896 314.873 185.896ZM307.679 172.058C306.592 172.058 305.71 172.389 305.124 173.036C304.3 173.944 304.144 175.379 304.685 177.078C305.84 180.705 309.789 184.307 313.49 185.105C315.209 185.475 316.614 185.184 317.433 184.283C318.257 183.376 318.413 181.942 317.872 180.244C316.717 176.616 312.761 173.015 309.055 172.214C308.569 172.11 308.108 172.058 307.679 172.058Z" fill="#373B42"/>
<path d="M252.369 239.409C254.369 239.846 255.838 241.396 256.262 243.261L252.847 244.74C251.747 245.209 250.602 244.184 250.945 243.039L252.064 239.357C252.165 239.364 252.267 239.387 252.369 239.409Z" fill="#373B42"/>
<path d="M252.292 245.173C251.879 245.173 251.473 245.022 251.148 244.733C250.643 244.282 250.451 243.598 250.644 242.948L251.765 239.265C251.809 239.124 251.95 239.031 252.092 239.041C252.205 239.049 252.322 239.075 252.441 239.101C254.488 239.549 256.109 241.154 256.574 243.191C256.608 243.341 256.53 243.492 256.39 243.552L252.976 245.03C252.753 245.126 252.521 245.173 252.292 245.173ZM252.29 239.715L251.25 243.13C251.125 243.547 251.245 243.97 251.569 244.259C251.892 244.546 252.322 244.619 252.724 244.447L255.89 243.076C255.409 241.398 254.027 240.093 252.303 239.717C252.306 239.72 252.296 239.717 252.29 239.715Z" fill="#373B42"/>
<path d="M311.907 168.083C311.227 168.814 311.043 170.001 311.506 171.46C312.437 174.358 315.567 177.214 318.513 177.848C319.983 178.169 321.122 177.875 321.793 177.143L316.895 182.505C316.224 183.238 315.075 183.53 313.615 183.21C310.66 182.575 307.529 179.717 306.608 176.823C306.145 175.364 306.329 174.176 307 173.444L311.907 168.083Z" fill="white"/>
<path d="M314.739 183.657C314.364 183.657 313.964 183.611 313.545 183.52C310.502 182.865 307.253 179.904 306.304 176.918C305.82 175.391 305.984 174.081 306.762 173.229L311.646 167.895C311.654 167.885 311.664 167.876 311.673 167.866C311.792 167.739 311.992 167.731 312.12 167.85C312.247 167.968 312.257 168.168 312.138 168.296L312.115 168.322C311.508 168.997 311.397 170.077 311.807 171.365C312.703 174.159 315.741 176.929 318.578 177.54C319.877 177.826 320.933 177.61 321.554 176.934L321.557 176.931C321.679 176.801 321.879 176.794 322.005 176.911C322.134 177.03 322.144 177.23 322.025 177.358L317.127 182.721C316.562 183.338 315.736 183.657 314.739 183.657ZM310.946 169.599L307.232 173.656C306.611 174.335 306.496 175.423 306.909 176.726C307.797 179.519 310.833 182.289 313.68 182.901C314.981 183.187 316.038 182.969 316.659 182.292L320.368 178.232C319.796 178.335 319.146 178.312 318.444 178.157C315.413 177.506 312.164 174.544 311.204 171.557C310.98 170.849 310.895 170.189 310.946 169.599Z" fill="#373B42"/>
<path d="M318.508 177.845C315.553 177.215 312.421 174.356 311.498 171.461C310.576 168.566 312.226 166.737 315.171 167.377C318.126 168.017 321.267 170.866 322.181 173.761C323.112 176.664 321.462 178.485 318.508 177.845Z" fill="#EA4A35"/>
<path d="M319.65 178.291C319.275 178.291 318.875 178.245 318.454 178.154C315.413 177.505 312.162 174.546 311.21 171.557C310.726 170.04 310.89 168.73 311.672 167.871C312.447 167.018 313.725 166.734 315.252 167.067C318.308 167.728 321.557 170.688 322.498 173.666C322.985 175.183 322.824 176.492 322.046 177.35C321.481 177.971 320.652 178.291 319.65 178.291ZM314.063 167.566C313.244 167.566 312.578 167.814 312.14 168.298C311.516 168.982 311.4 170.072 311.813 171.365C312.703 174.161 315.743 176.929 318.586 177.535C318.587 177.535 318.587 177.535 318.587 177.535C319.898 177.818 320.959 177.6 321.577 176.923C322.195 176.239 322.309 175.151 321.893 173.856C321.014 171.071 317.975 168.303 315.119 167.684C314.744 167.605 314.391 167.566 314.063 167.566Z" fill="#373B42"/>
<path d="M197.715 272.192C197.554 272.192 197.391 272.151 197.24 272.065C196.787 271.803 196.631 271.222 196.892 270.767L203.361 259.554C203.623 259.101 204.205 258.944 204.659 259.207C205.113 259.468 205.269 260.05 205.007 260.505L198.538 271.717C198.363 272.021 198.043 272.192 197.715 272.192Z" fill="white"/>
<path d="M204.211 268.439C204.051 268.439 203.89 268.399 203.741 268.314L197.23 264.6C196.773 264.341 196.616 263.761 196.874 263.304C197.134 262.848 197.712 262.69 198.169 262.95L204.68 266.664C205.136 266.924 205.294 267.503 205.036 267.96C204.86 268.267 204.54 268.439 204.211 268.439Z" fill="white"/>
<path d="M217.608 83.5967L139.508 127.978C142.581 130.304 145.212 133.878 146.834 137.692L225.683 92.8858C224.52 88.8196 221.185 85.6485 217.608 83.5967Z" fill="#DBDEE4"/>
<path d="M146.83 138.011C146.796 138.011 146.762 138.006 146.729 137.995C146.643 137.966 146.575 137.902 146.539 137.818C144.898 133.96 142.263 130.465 139.313 128.231C139.227 128.166 139.182 128.064 139.188 127.958C139.195 127.853 139.255 127.757 139.347 127.705L217.449 83.3241C217.545 83.2689 217.665 83.2689 217.762 83.3241C220.225 84.7359 224.568 87.8452 225.984 92.8017C226.025 92.9414 225.963 93.0925 225.836 93.164L146.989 137.971C146.939 137.997 146.885 138.011 146.83 138.011ZM140.072 128.02C142.873 130.259 145.363 133.581 146.981 137.244L225.304 92.7367C223.91 88.2335 219.964 85.3418 217.603 83.9626L140.072 128.02Z" fill="#373B42"/>
<path d="M168.825 155.443C172.873 153.106 176.494 153.157 178.871 155.145C176.514 159.855 172.904 164.079 168.857 166.416C164.81 168.754 161.188 168.702 158.812 166.727C161.168 162.004 164.778 157.78 168.825 155.443Z" fill="#EA4A35"/>
<path d="M168.789 142.799C171.304 141.348 173.349 142.508 173.357 145.402C173.365 148.29 171.333 151.811 168.818 153.263C166.303 154.714 164.258 153.549 164.25 150.66C164.242 147.765 166.276 144.252 168.789 142.799Z" fill="#EA4A35"/>
<path d="M163.051 168.512C161.368 168.512 159.854 167.999 158.619 166.972C156.667 165.351 155.586 162.529 155.578 159.027C155.554 150.733 161.404 140.596 168.62 136.431C172.188 134.369 175.562 134.043 178.117 135.513C180.655 136.973 182.06 140.021 182.071 144.097C182.079 147.557 181.046 151.533 179.16 155.29C176.676 160.247 172.982 164.404 169.023 166.693C166.921 167.905 164.884 168.512 163.051 168.512ZM174.582 135.24C172.858 135.24 170.935 135.823 168.935 136.978C161.894 141.043 156.186 150.932 156.21 159.023C156.218 162.334 157.216 164.984 159.024 166.483C161.388 168.451 164.918 168.327 168.706 166.144C172.56 163.915 176.164 159.855 178.593 155.006C180.437 151.336 181.447 147.461 181.438 144.099C181.426 140.258 180.135 137.404 177.8 136.062C176.847 135.513 175.762 135.24 174.582 135.24Z" fill="#373B42"/>
<path d="M187.777 127.159C187.668 127.159 187.563 127.102 187.504 127.002C187.416 126.85 187.467 126.657 187.618 126.568L231.121 101.267C231.272 101.179 231.466 101.23 231.555 101.382C231.643 101.534 231.592 101.727 231.441 101.816L187.938 127.117C187.886 127.146 187.832 127.159 187.777 127.159Z" fill="#373B42"/>
<path d="M187.777 136.322C187.668 136.322 187.563 136.265 187.504 136.165C187.416 136.014 187.467 135.82 187.618 135.731L231.225 110.37C231.376 110.282 231.57 110.333 231.659 110.486C231.747 110.637 231.696 110.83 231.545 110.919L187.938 136.28C187.886 136.309 187.832 136.322 187.777 136.322Z" fill="#373B42"/>
<path d="M187.777 145.488C187.668 145.488 187.563 145.432 187.504 145.331C187.416 145.18 187.467 144.986 187.618 144.897L231.68 119.272C231.831 119.184 232.025 119.234 232.114 119.387C232.202 119.538 232.151 119.731 232 119.821L187.936 145.445C187.886 145.474 187.832 145.488 187.777 145.488Z" fill="#373B42"/>
<path d="M187.777 154.651C187.668 154.651 187.563 154.594 187.504 154.493C187.416 154.342 187.467 154.149 187.618 154.059L231.682 128.432C231.833 128.344 232.026 128.395 232.116 128.548C232.203 128.699 232.153 128.892 232.002 128.981L187.938 154.608C187.886 154.638 187.832 154.651 187.777 154.651Z" fill="#373B42"/>
<g opacity="0.1">
<path d="M342.128 128.146C329.142 135.644 329.072 147.805 341.982 155.305C354.891 162.806 375.881 162.803 388.87 155.305C401.863 147.805 401.944 135.644 389.035 128.141C376.124 120.643 355.121 120.646 342.128 128.146Z" fill="#373B42"/>
</g>
<path d="M398.838 137.161C398.85 142.108 395.587 147.066 389.041 150.836C383.974 153.764 377.698 155.546 371.151 156.183C367.522 156.55 363.805 156.55 360.176 156.204C353.564 155.577 347.235 153.785 342.156 150.835C335.739 147.108 332.531 142.236 332.521 137.354L332.5 125.333C332.511 130.226 335.72 135.098 342.135 138.825C347.223 141.784 353.564 143.578 360.176 144.194C363.805 144.54 367.522 144.54 371.151 144.173C377.687 143.536 383.962 141.742 389.018 138.826C395.553 135.067 398.815 130.12 398.815 125.162L398.838 137.161Z" fill="#DBDEE4"/>
<path d="M371.155 144.17V156.182C367.526 156.549 363.809 156.549 360.18 156.203V144.192C363.809 144.538 367.526 144.538 371.155 144.17Z" fill="#DBDEE4"/>
<path d="M365.577 156.766C357.028 156.766 348.491 154.881 342.005 151.112C335.701 147.451 332.223 142.562 332.209 137.351L332.188 125.339C332.188 125.164 332.329 125.022 332.503 125.022C332.504 125.022 332.504 125.022 332.504 125.022C332.678 125.022 332.821 125.164 332.821 125.339C332.834 130.317 336.202 135.01 342.302 138.553C355.097 145.99 375.988 145.989 388.871 138.553C395.091 134.961 398.513 130.206 398.508 125.162V125.144C398.508 125.144 398.508 125.144 398.508 125.142C398.508 124.967 398.649 124.826 398.823 124.826C398.825 124.826 398.825 124.826 398.825 124.826C398.998 124.826 399.141 124.967 399.141 125.142C399.141 125.149 399.141 125.155 399.141 125.164L399.164 137.156C399.179 142.442 395.644 147.4 389.211 151.114C382.682 154.881 374.123 156.766 365.577 156.766ZM332.828 129.142L332.842 137.351C332.855 142.329 336.223 147.022 342.323 150.565C355.118 158.002 376.01 158 388.892 150.565C395.121 146.968 398.544 142.207 398.529 137.156L398.514 128.976C397.236 132.796 394.034 136.301 389.186 139.101C376.128 146.638 354.952 146.637 341.982 139.101C337.243 136.345 334.101 132.898 332.828 129.142Z" fill="#373B42"/>
<path d="M342.285 111.666C329.298 119.163 329.228 131.324 342.138 138.825C355.047 146.325 376.038 146.322 389.026 138.825C402.019 131.324 402.1 119.163 389.192 111.661C376.281 104.162 355.278 104.165 342.285 111.666Z" fill="white"/>
<path d="M365.554 144.753C357.006 144.753 348.469 142.869 341.982 139.1C335.659 135.425 332.179 130.521 332.188 125.29C332.196 120.025 335.726 115.089 342.13 111.392C355.189 103.851 376.373 103.849 389.352 111.388C395.671 115.062 399.148 119.963 399.14 125.191C399.132 130.459 395.597 135.399 389.186 139.1C382.66 142.869 374.101 144.753 365.554 144.753ZM342.448 111.939C336.247 115.52 332.828 120.26 332.821 125.29C332.813 130.285 336.181 134.995 342.302 138.551C355.097 145.988 375.988 145.986 388.871 138.551C395.078 134.967 398.501 130.222 398.508 125.189C398.516 120.195 395.15 115.489 389.033 111.936C376.234 104.497 355.334 104.499 342.448 111.939Z" fill="#373B42"/>
<g opacity="0.1">
<path d="M377.557 119.296C384.935 123.555 384.966 130.466 377.635 134.726C370.303 138.985 358.381 138.985 351.002 134.726C343.623 130.466 343.574 123.555 350.906 119.296C358.238 115.036 370.176 115.036 377.557 119.296Z" fill="#373B42"/>
</g>
<path d="M338.391 9.99414L326.34 16.9785C329.199 18.4941 331.855 18.6927 333.861 17.5264H333.863L342.592 12.4658L343.217 12.833L334.18 18.0723C333.216 18.6326 332.123 18.9101 330.947 18.9102C329.282 18.9102 327.441 18.356 325.54 17.2578C325.443 17.2009 325.383 17.0969 325.383 16.9834C325.383 16.8717 325.443 16.7658 325.54 16.709L337.762 9.625L338.391 9.99414Z" fill="#373B42"/>
<path d="M384.855 125.682C384.746 125.682 384.641 125.625 384.582 125.524C384.494 125.373 384.545 125.18 384.696 125.09C392.581 120.485 396.945 110.856 396.981 97.975L397.089 58.38C397.089 58.2663 397.15 58.1623 397.247 58.1071L412.321 49.38C412.417 49.3232 412.542 49.3232 412.638 49.38C412.737 49.4369 412.796 49.5409 412.796 49.6546L412.669 89.2496C412.633 102.381 408.159 112.198 400.069 116.893L385.013 125.636C384.964 125.667 384.909 125.682 384.855 125.682ZM397.721 58.5652L397.613 97.9766C397.583 108.686 394.594 117.201 389.095 122.535L399.752 116.345C407.639 111.769 412.001 102.145 412.037 89.248L412.162 50.2037L397.721 58.5652Z" fill="#373B42"/>
<path d="M397.402 58.6985C397.349 58.6985 397.294 58.6839 397.245 58.6563C394.074 56.8303 391.098 53.6966 388.869 49.8302C386.638 45.9768 385.418 41.8407 385.438 38.1854V36.9427C385.438 36.829 385.498 36.725 385.595 36.6681L400.652 27.9411C400.747 27.8842 400.869 27.8842 400.968 27.9411C401.066 27.9979 401.126 28.1019 401.126 28.2156V29.46C401.126 32.9999 402.322 37.0223 404.492 40.788C406.631 44.5325 409.523 47.5834 412.634 49.3802C412.732 49.437 412.792 49.541 412.792 49.6547C412.792 49.7684 412.732 49.8724 412.634 49.9293L397.56 58.6563C397.513 58.6839 397.458 58.6985 397.402 58.6985ZM386.071 37.1262V38.1887C386.053 41.7351 387.243 45.7574 389.418 49.515C391.554 53.2222 394.386 56.2341 397.402 58.0162L411.853 49.6498C408.825 47.7702 406.03 44.7551 403.943 41.1031C401.719 37.2448 400.492 33.1104 400.492 29.46V28.7663L386.071 37.1262Z" fill="#373B42"/>
<path d="M385.759 37.2658C385.705 37.2658 385.65 37.2512 385.601 37.2236L337.283 9.32854C337.185 9.27168 337.125 9.16771 337.125 9.05399C337.125 8.9419 337.185 8.8363 337.283 8.77944L352.349 0.0475271C352.444 -0.00933194 352.566 -0.00933194 352.665 0.0475271L400.984 27.9426C401.082 27.9994 401.142 28.1034 401.142 28.2171C401.142 28.3292 401.082 28.4348 400.984 28.4916L385.918 37.2236C385.869 37.2512 385.814 37.2658 385.759 37.2658ZM338.072 9.05237L385.759 36.5819L400.191 28.2155L352.505 0.685971L338.072 9.05237Z" fill="#373B42"/>
<path d="M337.432 9.0542L337.429 10.297C337.408 17.7179 332.153 20.7119 325.693 16.9836L325.586 55.0401C325.537 72.4617 333.55 93.2526 346.639 109.605L363.22 130.334L377.757 127.888C389.894 125.831 397.248 114.589 397.295 97.9752L397.407 58.3834C394.173 56.5152 391.252 53.3327 389.153 49.6694C387.041 46.0255 385.738 41.8943 385.749 38.1904L385.753 36.9476L337.432 9.0542Z" fill="white"/>
<path d="M363.231 130.652C363.135 130.652 363.044 130.608 362.984 130.533L346.404 109.804C333.326 93.4641 325.233 72.4799 325.281 55.0405L325.389 16.9839C325.389 16.8702 325.449 16.7662 325.546 16.7094C325.645 16.6541 325.764 16.6525 325.863 16.7094C328.896 18.459 331.734 18.7531 333.849 17.5346C335.951 16.3244 337.113 13.7543 337.124 10.2957L337.128 9.05129C337.128 8.93919 337.188 8.8336 337.285 8.77837C337.384 8.72313 337.503 8.72151 337.602 8.77837L385.921 36.6734C386.018 36.7302 386.078 36.8342 386.078 36.9479L386.075 38.1907C386.064 41.7306 387.258 45.7513 389.436 49.5089C391.59 53.2665 394.48 56.3206 397.575 58.1076C397.673 58.1645 397.733 58.2684 397.733 58.3821L397.621 97.9739C397.572 114.807 390.171 126.106 377.819 128.198L363.281 130.645C363.265 130.65 363.249 130.652 363.231 130.652ZM326.021 17.5216L325.915 55.0421C325.866 72.3451 333.906 93.1766 346.898 109.409L363.362 129.992L377.717 127.576C389.738 125.541 396.943 114.474 396.99 97.9755L397.103 58.5657C393.972 56.7121 391.061 53.6157 388.89 49.8289C386.658 45.9755 385.433 41.8427 385.445 38.1907L385.448 37.1315L337.761 9.602L337.758 10.2989C337.748 13.9931 336.471 16.7581 334.168 18.0854C331.96 19.3558 329.085 19.1543 326.021 17.5216Z" fill="#373B42"/>
<path d="M376.559 120.777C388.711 118.719 390.064 104.132 390.082 97.9558L390.184 62.0826C387.39 59.7416 384.877 56.7119 382.895 53.2581C380.654 49.3917 379.212 45.2085 378.721 41.2186L341.942 19.9858C339.867 23.1082 336.712 25.1568 332.882 25.6717L332.797 55.0613C332.753 70.8616 340.213 90.0361 352.267 105.101L366.203 122.519L376.559 120.777Z" fill="#EA4A35"/>
<path d="M376.559 120.777C388.711 118.719 390.064 104.132 390.082 97.9558L390.184 62.0826C387.39 59.7416 384.877 56.7119 382.895 53.2581C380.654 49.3917 379.212 45.2085 378.721 41.2186L341.942 19.9858C339.867 23.1082 336.712 25.1568 332.882 25.6717L332.797 55.0613C332.753 70.8616 340.213 90.0361 352.267 105.101L366.203 122.519L376.559 120.777Z" fill="#EA4A35"/>
<path d="M377.247 123.025C389.951 120.872 391.365 105.624 391.382 99.1683L391.49 61.6674C388.569 59.2208 385.942 56.053 383.871 52.4416C381.53 48.3998 380.022 44.0265 379.507 39.8563L341.059 17.6602C338.89 20.9239 335.592 23.065 331.588 23.6044L331.5 54.3277C331.455 70.8444 339.253 90.8897 351.854 106.638L366.423 124.847L377.247 123.025Z" fill="#A2443A"/>
<path d="M391.483 61.6619L391.386 99.1628C391.373 103.466 390.738 111.691 386.533 117.327C384.872 118.524 382.867 119.405 380.471 119.808L369.64 121.629L355.081 103.416C342.477 87.6724 334.678 67.6256 334.727 51.0991L334.8 22.7654C337.207 21.8248 339.238 20.21 340.765 18.0835C340.924 17.973 341.071 17.8642 341.217 17.7407L379.504 39.8524C380.017 44.021 381.533 48.3958 383.868 52.4426C385.945 56.0523 388.561 59.2169 391.483 61.6619Z" fill="#EA4A35"/>
<path d="M347.203 64.9542C347.203 75.0248 354.237 87.2316 363.007 92.2823C371.745 97.3021 378.841 93.3057 378.872 83.2352C378.903 73.1647 371.838 60.9578 363.099 55.9071C354.361 50.8548 347.234 54.8837 347.203 64.9542Z" fill="white"/>
<path d="M358.87 81.1504C358.732 81.1504 358.592 81.1341 358.457 81.1016C357.993 80.9895 357.588 80.689 357.346 80.2764L354.316 75.1298C353.961 74.5271 354.162 73.7506 354.765 73.3948C355.369 73.039 356.144 73.2405 356.5 73.8432L359.132 78.3107L369.985 71.4031C370.576 71.0278 371.358 71.2017 371.735 71.7914C372.11 72.3827 371.936 73.1657 371.347 73.541L359.825 80.8726C359.536 81.0561 359.203 81.1504 358.87 81.1504ZM359.528 78.9913L359.53 78.9946C359.53 78.993 359.53 78.993 359.528 78.9913Z" fill="#373B42"/>
<g opacity="0.1">
<path d="M276.784 322.838C280.833 325.177 287.376 325.177 291.392 322.838L341.576 293.625C358.125 302.434 383.962 302.12 400.071 292.751C416.589 283.136 416.62 267.642 400.147 258.142C383.679 248.647 356.928 248.728 340.403 258.339C327.67 265.751 324.738 276.662 331.621 285.621L328.862 284.029L276.734 314.379C272.716 316.713 272.736 320.503 276.784 322.838Z" fill="#373B42"/>
</g>
<path d="M332.427 270.905L332.328 254.573C332.297 249.594 335.564 244.608 342.123 240.789C355.158 233.207 376.272 233.139 389.269 240.636C395.739 244.356 398.983 249.253 399.014 254.167L399.113 270.499C399.082 265.584 395.833 260.696 389.368 256.968C376.37 249.47 355.256 249.539 342.222 257.12C335.662 260.938 332.395 265.925 332.427 270.905Z" fill="#373B42"/>
<path d="M332.432 271.221C332.258 271.221 332.117 271.081 332.115 270.906C332.115 270.906 332.115 270.906 332.115 270.904L332.016 254.574C331.982 249.264 335.515 244.27 341.968 240.516C355.073 232.893 376.366 232.827 389.432 240.363C395.786 244.016 399.303 248.919 399.335 254.167L399.436 270.498C399.438 270.674 399.265 270.795 399.119 270.816C398.945 270.816 398.804 270.677 398.802 270.501C398.772 265.499 395.367 260.791 389.214 257.242C376.322 249.805 355.315 249.873 342.385 257.393C336.139 261.029 332.718 265.828 332.749 270.901C332.75 271.076 332.609 271.218 332.435 271.219C332.433 271.221 332.432 271.221 332.432 271.221ZM365.902 235.377C357.359 235.377 348.801 237.275 342.288 241.063C336.04 244.699 332.617 249.496 332.651 254.571L332.726 267.069C333.993 263.22 337.2 259.68 342.067 256.845C355.175 249.223 376.465 249.155 389.531 256.693C394.311 259.45 397.485 262.907 398.78 266.679L398.703 254.17C398.671 249.156 395.267 244.447 389.117 240.91C382.718 237.219 374.317 235.377 365.902 235.377Z" fill="#373B42"/>
<g opacity="0.6">
<path d="M342.159 248.489C329.123 256.073 329.102 268.304 342.102 275.801C355.101 283.298 376.224 283.237 389.259 275.653C402.301 268.065 402.316 255.831 389.316 248.333C376.316 240.836 355.201 240.901 342.159 248.489Z" fill="#EA4A35"/>
</g>
<path d="M323.422 254.624L323.527 270.957C323.558 277.182 327.67 283.385 335.855 288.099C342.548 291.963 350.932 294.239 359.639 294.935C361.045 295.048 362.456 295.122 363.868 295.153C365.1 295.184 366.331 295.178 367.556 295.14C368.968 295.103 370.379 295.022 371.785 294.898C380.499 294.146 388.889 291.813 395.6 287.908C403.91 283.068 408.046 276.749 408.002 270.442L407.903 254.197C407.903 260.472 403.773 266.761 395.488 271.575C388.815 275.469 380.455 277.795 371.785 278.547C370.386 278.677 368.968 278.758 367.556 278.802C366.324 278.846 365.093 278.852 363.868 278.82C362.456 278.796 361.045 278.721 359.639 278.615C350.895 277.925 342.473 275.642 335.755 271.768C327.571 267.052 323.459 260.851 323.422 254.624Z" fill="#DBDEE4"/>
<path d="M359.641 278.613V294.933C361.046 295.046 362.458 295.12 363.869 295.151C365.101 295.182 366.332 295.176 367.557 295.138C368.969 295.101 370.38 295.02 371.786 294.896V278.543C370.387 278.673 368.969 278.755 367.557 278.799C366.326 278.842 365.094 278.849 363.869 278.816C362.459 278.794 361.046 278.719 359.641 278.613Z" fill="#DBDEE4"/>
<path d="M365.473 295.488C364.93 295.488 364.392 295.482 363.864 295.467C353.225 295.233 343.223 292.714 335.701 288.371C327.682 283.754 323.249 277.57 323.215 270.958L323.109 254.636C323.109 254.634 323.109 254.631 323.109 254.63V254.625C323.108 254.449 323.249 254.308 323.423 254.306C323.425 254.306 323.426 254.306 323.426 254.306C323.6 254.306 323.741 254.446 323.743 254.621V254.638C323.788 261.009 328.111 266.994 335.919 271.491C343.387 275.799 353.316 278.289 363.881 278.501C365.097 278.531 366.332 278.525 367.552 278.483C378.053 278.174 387.921 275.624 395.338 271.299C403.243 266.705 407.595 260.631 407.595 254.194C407.595 254.02 407.737 253.877 407.91 253.877H407.912C408.086 253.877 408.227 254.017 408.229 254.193L408.328 270.438C408.373 277.136 403.912 283.436 395.769 288.18C388.216 292.574 378.202 295.159 367.573 295.456C366.865 295.477 366.165 295.488 365.473 295.488ZM323.771 258.933L323.849 270.955C323.881 277.333 328.202 283.322 336.018 287.824C343.449 292.114 353.344 294.603 363.881 294.835C365.066 294.866 366.303 294.861 367.552 294.822C378.079 294.527 387.985 291.973 395.447 287.632C403.388 283.009 407.737 276.904 407.693 270.443L407.62 258.418C406.145 263.482 402.023 268.144 395.655 271.847C388.148 276.223 378.173 278.804 367.571 279.116C366.338 279.16 365.091 279.165 363.864 279.134C353.198 278.92 343.159 276.4 335.602 272.038C329.356 268.441 325.283 263.894 323.771 258.933Z" fill="#373B42"/>
<path d="M395.499 271.573C378.984 281.181 352.234 281.265 335.763 271.767C319.292 262.268 319.321 246.773 335.836 237.166C352.358 227.553 379.107 227.469 395.579 236.967C412.05 246.468 412.021 261.961 395.499 271.573ZM342.12 240.79C329.085 248.373 329.063 260.604 342.063 268.102C355.063 275.599 376.185 275.537 389.22 267.954C402.262 260.366 402.277 248.131 389.277 240.634C376.278 233.137 355.162 233.203 342.12 240.79Z" fill="white"/>
<path d="M365.374 279.139C354.58 279.139 343.809 276.777 335.601 272.043C327.557 267.405 323.122 261.197 323.109 254.564C323.096 247.889 327.557 241.614 335.672 236.893C352.252 227.246 379.198 227.158 395.733 236.694C403.774 241.332 408.211 247.54 408.224 254.171C408.237 260.848 403.773 267.125 395.655 271.85C387.306 276.705 376.328 279.139 365.374 279.139ZM365.963 230.224C355.123 230.224 344.254 232.631 335.99 237.44C328.079 242.042 323.73 248.123 323.741 254.563C323.754 260.96 328.077 266.973 335.916 271.492C352.276 280.929 378.932 280.841 395.335 271.299C403.25 266.695 407.602 260.611 407.59 254.17C407.577 247.774 403.255 241.761 395.416 237.24C387.298 232.56 376.643 230.224 365.963 230.224ZM365.447 273.987C356.911 273.987 348.394 272.119 341.902 268.376C335.532 264.703 332.018 259.782 332.009 254.522C331.999 249.228 335.532 244.253 341.957 240.515C355.063 232.89 376.36 232.82 389.431 240.359C395.803 244.034 399.317 248.955 399.328 254.217C399.339 259.511 395.804 264.487 389.378 268.227C382.781 272.066 374.105 273.987 365.447 273.987ZM365.901 235.375C357.355 235.375 348.792 237.274 342.277 241.064C336.055 244.684 332.634 249.463 332.642 254.522C332.652 259.547 336.052 264.273 342.219 267.827C355.119 275.268 376.131 275.201 389.059 267.679C395.285 264.058 398.706 259.277 398.696 254.218C398.688 249.192 395.285 244.465 389.116 240.908C382.717 237.217 374.318 235.375 365.901 235.375Z" fill="#373B42"/>
<path d="M313.406 284.479L330.453 274.574C331.114 274.189 332.028 274.236 333.04 274.81C335.07 275.957 336.731 278.795 336.746 281.137C336.754 282.322 336.342 283.157 335.672 283.547L318.626 293.451C319.295 293.062 319.708 292.226 319.7 291.042C319.685 288.7 318.023 285.862 315.994 284.715C314.98 284.141 314.067 284.094 313.406 284.479Z" fill="#373B42"/>
<path d="M318.631 293.766C318.522 293.766 318.417 293.71 318.358 293.609C318.27 293.458 318.321 293.264 318.472 293.177C319.07 292.829 319.395 292.072 319.388 291.044C319.375 288.803 317.783 286.087 315.843 284.991C314.966 284.495 314.157 284.411 313.571 284.753C313.418 284.841 313.225 284.791 313.137 284.638C313.049 284.487 313.099 284.294 313.251 284.206L330.297 274.301C331.09 273.841 332.121 273.924 333.202 274.535C335.318 275.732 337.052 278.694 337.068 281.136C337.076 282.399 336.639 283.353 335.837 283.819L318.79 293.724C318.74 293.752 318.686 293.766 318.631 293.766ZM314.924 283.965C315.32 284.042 315.733 284.199 316.155 284.438C318.272 285.636 320.005 288.595 320.022 291.039C320.025 291.542 319.957 291.996 319.825 292.389L335.518 283.269C336.116 282.921 336.441 282.162 336.434 281.136C336.421 278.895 334.829 276.181 332.89 275.083C332.011 274.585 331.202 274.501 330.615 274.845L314.924 283.965Z" fill="#373B42"/>
<path d="M312.344 286.877C312.329 284.534 313.967 283.563 316.004 284.715C318.033 285.862 319.695 288.7 319.71 291.042C319.724 293.393 318.087 294.366 316.058 293.219C314.02 292.066 312.358 289.228 312.344 286.877Z" fill="white"/>
<path d="M317.666 294.017C317.117 294.017 316.515 293.841 315.9 293.492C313.778 292.293 312.04 289.327 312.024 286.879C312.015 285.625 312.449 284.677 313.245 284.21C314.036 283.745 315.071 283.825 316.156 284.437C318.273 285.634 320.007 288.594 320.023 291.037C320.031 292.296 319.596 293.248 318.798 293.718C318.46 293.918 318.077 294.017 317.666 294.017ZM314.384 284.546C314.082 284.546 313.806 284.616 313.567 284.757C312.974 285.105 312.652 285.858 312.657 286.877C312.67 289.122 314.265 291.843 316.212 292.943C317.084 293.437 317.891 293.52 318.479 293.175C319.072 292.826 319.397 292.069 319.391 291.046C319.378 288.805 317.786 286.089 315.846 284.993C315.323 284.695 314.824 284.546 314.384 284.546Z" fill="#373B42"/>
<path d="M271.391 302.504L320.708 273.791C322.083 272.992 323.982 273.09 326.086 274.28C330.301 276.664 333.754 282.558 333.784 287.425C333.801 289.884 332.945 291.618 331.552 292.428L282.234 321.14C283.627 320.33 284.481 318.596 284.467 316.137C284.436 311.271 280.984 305.376 276.768 302.993C274.664 301.804 272.765 301.704 271.391 302.504Z" fill="white"/>
<path d="M282.232 321.455C282.123 321.455 282.017 321.398 281.959 321.298C281.871 321.147 281.921 320.953 282.073 320.864C283.424 320.076 284.162 318.398 284.149 316.135C284.119 311.372 280.736 305.598 276.609 303.265C274.679 302.174 272.881 301.998 271.547 302.775C271.394 302.861 271.201 302.81 271.113 302.661C271.026 302.51 271.076 302.317 271.227 302.227L320.547 273.515C322.082 272.62 324.103 272.794 326.239 274.001C330.541 276.433 334.066 282.452 334.099 287.418C334.115 289.916 333.267 291.791 331.71 292.698L282.396 321.407C282.394 321.408 282.393 321.41 282.391 321.41C282.341 321.442 282.285 321.455 282.232 321.455ZM273.454 301.667C274.527 301.678 275.704 302.031 276.92 302.716C281.223 305.148 284.748 311.167 284.781 316.133C284.789 317.566 284.514 318.794 283.983 319.753L331.39 292.153C332.742 291.365 333.48 289.687 333.465 287.424C333.436 282.661 330.053 276.888 325.927 274.555C323.997 273.463 322.199 273.288 320.865 274.064L273.454 301.667Z" fill="#373B42"/>
<path d="M271.386 302.82C271.277 302.82 271.172 302.763 271.113 302.663C271.026 302.511 271.076 302.318 271.227 302.229L316.531 275.849C316.682 275.76 316.875 275.812 316.964 275.963C317.054 276.114 317.002 276.308 316.851 276.397L271.547 302.776C271.495 302.807 271.442 302.82 271.386 302.82Z" fill="#373B42"/>
<path d="M269.164 307.486C269.133 302.62 272.537 300.601 276.769 302.992C280.984 305.376 284.437 311.269 284.467 316.137C284.498 321.022 281.095 323.041 276.879 320.658C272.647 318.265 269.195 312.369 269.164 307.486Z" fill="#373B42"/>
<path d="M280.227 321.977C279.147 321.977 277.956 321.627 276.728 320.932C272.416 318.494 268.883 312.462 268.852 307.487C268.836 305.01 269.677 303.145 271.22 302.238C272.757 301.335 274.783 301.504 276.927 302.716C281.231 305.148 284.756 311.167 284.789 316.133C284.803 318.624 283.96 320.495 282.412 321.405C281.76 321.787 281.023 321.977 280.227 321.977ZM273.409 302.3C272.721 302.3 272.091 302.461 271.54 302.784C270.2 303.572 269.469 305.241 269.484 307.482C269.513 312.255 272.902 318.04 277.038 320.38C278.963 321.468 280.758 321.64 282.09 320.857C283.435 320.068 284.166 318.391 284.153 316.136C284.124 311.373 280.74 305.6 276.614 303.267C275.477 302.625 274.387 302.3 273.409 302.3Z" fill="#373B42"/>
<path d="M272.852 309.577C272.835 307.059 274.596 306.014 276.786 307.252C278.968 308.485 280.755 311.536 280.771 314.054C280.788 316.582 279.027 317.626 276.845 316.393C274.655 315.155 272.868 312.104 272.852 309.577Z" fill="#EA4A35"/>
<path d="M278.973 131.222C278.014 131.222 277.087 131.439 276.427 131.821C275.898 132.127 275.594 132.502 275.594 132.851C275.594 133.196 275.891 133.568 276.411 133.868C277.064 134.248 277.988 134.466 278.947 134.466C279.905 134.466 280.831 134.248 281.491 133.868C282.02 133.563 282.324 133.186 282.326 132.836C282.326 132.492 282.029 132.122 281.509 131.82C280.854 131.439 279.931 131.222 278.973 131.222Z" fill="#373B42"/>
</svg>
