<svg width="32" height="33" viewBox="0 0 32 33" fill="none" xmlns="http://www.w3.org/2000/svg">
<path d="M18.6654 24.0231C18.6654 23.3159 18.3844 22.6376 17.8843 22.1375C17.3842 21.6374 16.7059 21.3564 15.9987 21.3564C15.2915 21.3564 14.6132 21.6374 14.1131 22.1375C13.613 22.6376 13.332 23.3159 13.332 24.0231" stroke="#EA4A35" stroke-width="2" stroke-linecap="round" stroke-linejoin="round"/>
<path d="M25.3346 14.69L22.5213 5.81401C22.3982 5.45953 22.2016 5.13503 21.9444 4.86173C21.6873 4.58843 21.3753 4.37249 21.029 4.22801C20.6826 4.08354 20.3097 4.01379 19.9346 4.02332C19.5594 4.03286 19.1905 4.12146 18.852 4.28334L17.1506 5.09668C16.7917 5.26796 16.399 5.3568 16.0013 5.35668H11.3346C10.7538 5.35656 10.1887 5.54611 9.72545 5.89652C9.26216 6.24693 8.92597 6.73903 8.76797 7.29801L6.66797 14.69" stroke="#EA4A35" stroke-width="2" stroke-linecap="round" stroke-linejoin="round"/>
<path d="M2.66797 14.6904H29.3346" stroke="#EA4A35" stroke-width="2" stroke-linecap="round" stroke-linejoin="round"/>
<path d="M22.668 28.0234C24.8771 28.0234 26.668 26.2326 26.668 24.0234C26.668 21.8143 24.8771 20.0234 22.668 20.0234C20.4588 20.0234 18.668 21.8143 18.668 24.0234C18.668 26.2326 20.4588 28.0234 22.668 28.0234Z" stroke="#EA4A35" stroke-width="2" stroke-linecap="round" stroke-linejoin="round"/>
<path d="M9.33203 28.0234C11.5412 28.0234 13.332 26.2326 13.332 24.0234C13.332 21.8143 11.5412 20.0234 9.33203 20.0234C7.12289 20.0234 5.33203 21.8143 5.33203 24.0234C5.33203 26.2326 7.12289 28.0234 9.33203 28.0234Z" stroke="#EA4A35" stroke-width="2" stroke-linecap="round" stroke-linejoin="round"/>
</svg>
