<svg width="32" height="33" viewBox="0 0 32 33" fill="none" xmlns="http://www.w3.org/2000/svg">
<path d="M26.6654 17.3567C26.6654 24.0234 21.9987 27.3567 16.452 29.2901C16.1616 29.3885 15.8461 29.3838 15.5587 29.2767C9.9987 27.3567 5.33203 24.0234 5.33203 17.3567V8.02339C5.33203 7.66976 5.47251 7.33063 5.72256 7.08058C5.9726 6.83053 6.31174 6.69005 6.66536 6.69005C9.33203 6.69005 12.6654 5.09005 14.9854 3.06339C15.2678 2.82205 15.6272 2.68945 15.9987 2.68945C16.3702 2.68945 16.7296 2.82205 17.012 3.06339C19.3454 5.10339 22.6654 6.69005 25.332 6.69005C25.6857 6.69005 26.0248 6.83053 26.2748 7.08058C26.5249 7.33063 26.6654 7.66976 26.6654 8.02339V17.3567Z" stroke="#EA4A35" stroke-width="2" stroke-linecap="round" stroke-linejoin="round"/>
<path d="M12.1328 12.0233C12.4528 11.1415 13.0725 10.4002 13.8837 9.92898C14.6948 9.45776 15.6458 9.28662 16.5703 9.44547C17.4948 9.60433 18.3341 10.0831 18.9415 10.798C19.5488 11.513 19.8855 12.4186 19.8928 13.3567C19.8928 16.0233 15.8928 17.3567 15.8928 17.3567" stroke="#EA4A35" stroke-width="2" stroke-linecap="round" stroke-linejoin="round"/>
<path d="M16 22.6904H16.0133" stroke="#EA4A35" stroke-width="2" stroke-linecap="round" stroke-linejoin="round"/>
</svg>
