<svg width="32" height="33" viewBox="0 0 32 33" fill="none" xmlns="http://www.w3.org/2000/svg">
<path d="M16 8.02344V16.0234L21.3333 18.6901" stroke="#EA4A35" stroke-width="2" stroke-linecap="round" stroke-linejoin="round"/>
<path d="M26.668 16.0234V22.6901" stroke="#EA4A35" stroke-width="2" stroke-linecap="round" stroke-linejoin="round"/>
<path d="M26.668 28.0234H26.6813" stroke="#EA4A35" stroke-width="2" stroke-linecap="round" stroke-linejoin="round"/>
<path d="M28.333 10.9571C27.3272 8.50562 25.6138 6.40939 23.4115 4.93596C21.2091 3.46253 18.6177 2.67873 15.9679 2.6846C13.3181 2.69047 10.7301 3.48574 8.53432 4.96891C6.3385 6.45208 4.63441 8.55589 3.63953 11.0118C2.64465 13.4678 2.4041 16.1644 2.94859 18.7577C3.49308 21.3509 4.79791 23.7231 6.69654 25.5715C8.59518 27.4199 11.0015 28.6607 13.6084 29.1355C16.2153 29.6102 18.9046 29.2975 21.333 28.2371" stroke="#EA4A35" stroke-width="2" stroke-linecap="round" stroke-linejoin="round"/>
</svg>
