<svg width="32" height="33" viewBox="0 0 32 33" fill="none" xmlns="http://www.w3.org/2000/svg">
<path d="M25.9054 17.2704C26.3814 15.9811 26.6654 14.6638 26.6654 13.3571C26.6654 10.5281 25.5416 7.81501 23.5412 5.81462C21.5408 3.81424 18.8277 2.69043 15.9987 2.69043C13.1697 2.69043 10.4566 3.81424 8.45623 5.81462C6.45584 7.81501 5.33203 10.5281 5.33203 13.3571C5.33203 20.0144 12.7174 26.9478 15.1974 29.0891C15.4284 29.2628 15.7096 29.3568 15.9987 29.3568C16.2878 29.3568 16.569 29.2628 16.8 29.0891C17.1668 28.7717 17.5282 28.4481 17.884 28.1184" stroke="#EA4A35" stroke-width="2" stroke-linecap="round" stroke-linejoin="round"/>
<path d="M16 17.3564C18.2091 17.3564 20 15.5656 20 13.3564C20 11.1473 18.2091 9.35645 16 9.35645C13.7909 9.35645 12 11.1473 12 13.3564C12 15.5656 13.7909 17.3564 16 17.3564Z" stroke="#EA4A35" stroke-width="2" stroke-linecap="round" stroke-linejoin="round"/>
<path d="M21.332 24.0231L23.9987 26.6898L29.332 21.3564" stroke="#EA4A35" stroke-width="2" stroke-linecap="round" stroke-linejoin="round"/>
</svg>
