<svg width="32" height="33" viewBox="0 0 32 33" fill="none" xmlns="http://www.w3.org/2000/svg">
<path d="M10.6667 4.02344H9.33333C8.62609 4.02344 7.94781 4.30439 7.44772 4.80449C6.94762 5.30458 6.66667 5.98286 6.66667 6.6901V13.3568C6.66667 14.064 6.38572 14.7423 5.88562 15.2424C5.38552 15.7425 4.70724 16.0234 4 16.0234C4.70724 16.0234 5.38552 16.3044 5.88562 16.8045C6.38572 17.3046 6.66667 17.9829 6.66667 18.6901V25.3568C6.66667 26.8234 7.86667 28.0234 9.33333 28.0234H10.6667" stroke="#EA4A35" stroke-width="2" stroke-linecap="round" stroke-linejoin="round"/>
<path d="M21.332 28.0234H22.6654C23.3726 28.0234 24.0509 27.7425 24.551 27.2424C25.0511 26.7423 25.332 26.064 25.332 25.3568V18.6901C25.332 17.2234 26.532 16.0234 27.9987 16.0234C27.2915 16.0234 26.6132 15.7425 26.1131 15.2424C25.613 14.7423 25.332 14.064 25.332 13.3568V6.6901C25.332 5.98286 25.0511 5.30458 24.551 4.80449C24.0509 4.30439 23.3726 4.02344 22.6654 4.02344H21.332" stroke="#EA4A35" stroke-width="2" stroke-linecap="round" stroke-linejoin="round"/>
</svg>
