<svg width="32" height="33" viewBox="0 0 32 33" fill="none" xmlns="http://www.w3.org/2000/svg">
<path d="M4 9.35677V6.6901C4 5.22344 5.2 4.02344 6.66667 4.02344H9.33333" stroke="#EA4A35" stroke-width="2" stroke-linecap="round" stroke-linejoin="round"/>
<path d="M22.668 4.02344H25.3346C26.8013 4.02344 28.0013 5.22344 28.0013 6.6901V9.35677" stroke="#EA4A35" stroke-width="2" stroke-linecap="round" stroke-linejoin="round"/>
<path d="M28.0013 22.6904V25.3571C28.0013 26.8238 26.8013 28.0238 25.3346 28.0238H22.668" stroke="#EA4A35" stroke-width="2" stroke-linecap="round" stroke-linejoin="round"/>
<path d="M9.33333 28.0238H6.66667C5.2 28.0238 4 26.8238 4 25.3571V22.6904" stroke="#EA4A35" stroke-width="2" stroke-linecap="round" stroke-linejoin="round"/>
<path d="M17.332 9.35645H10.6654C9.92898 9.35645 9.33203 9.9534 9.33203 10.6898V14.6898C9.33203 15.4262 9.92898 16.0231 10.6654 16.0231H17.332C18.0684 16.0231 18.6654 15.4262 18.6654 14.6898V10.6898C18.6654 9.9534 18.0684 9.35645 17.332 9.35645Z" stroke="#EA4A35" stroke-width="2" stroke-linecap="round" stroke-linejoin="round"/>
<path d="M21.332 16.0234H14.6654C13.929 16.0234 13.332 16.6204 13.332 17.3568V21.3568C13.332 22.0932 13.929 22.6901 14.6654 22.6901H21.332C22.0684 22.6901 22.6654 22.0932 22.6654 21.3568V17.3568C22.6654 16.6204 22.0684 16.0234 21.332 16.0234Z" stroke="#EA4A35" stroke-width="2" stroke-linecap="round" stroke-linejoin="round"/>
</svg>
