<svg width="32" height="33" viewBox="0 0 32 33" fill="none" xmlns="http://www.w3.org/2000/svg">
<path d="M11.0662 13.3565C10.8943 13.3659 10.7232 13.3276 10.5718 13.2457C10.4203 13.1639 10.2944 13.0418 10.2081 12.8929C10.1217 12.744 10.0782 12.5742 10.0823 12.4021C10.0864 12.23 10.1381 12.0624 10.2316 11.9178L15.1996 4.02318C15.2776 3.8826 15.3907 3.76458 15.5278 3.68055C15.6649 3.59652 15.8214 3.54934 15.982 3.54357C16.1427 3.5378 16.3022 3.57365 16.445 3.64763C16.5877 3.72162 16.709 3.83123 16.7969 3.96585L21.7329 11.8898C21.8302 12.0296 21.8874 12.1932 21.8984 12.3631C21.9093 12.5331 21.8736 12.7027 21.795 12.8538C21.7165 13.0048 21.5981 13.1315 21.4527 13.2201C21.3073 13.3088 21.1405 13.3559 20.9702 13.3565H11.0662Z" stroke="#EA4A35" stroke-width="2" stroke-linecap="round" stroke-linejoin="round"/>
<path d="M12 18.6904H5.33333C4.59695 18.6904 4 19.2874 4 20.0238V26.6904C4 27.4268 4.59695 28.0238 5.33333 28.0238H12C12.7364 28.0238 13.3333 27.4268 13.3333 26.6904V20.0238C13.3333 19.2874 12.7364 18.6904 12 18.6904Z" stroke="#EA4A35" stroke-width="2" stroke-linecap="round" stroke-linejoin="round"/>
<path d="M23.3346 28.0238C25.912 28.0238 28.0013 25.9344 28.0013 23.3571C28.0013 20.7798 25.912 18.6904 23.3346 18.6904C20.7573 18.6904 18.668 20.7798 18.668 23.3571C18.668 25.9344 20.7573 28.0238 23.3346 28.0238Z" stroke="#EA4A35" stroke-width="2" stroke-linecap="round" stroke-linejoin="round"/>
</svg>
