<svg width="96" height="97" viewBox="0 0 96 97" fill="none" xmlns="http://www.w3.org/2000/svg">
<path d="M45.0564 17.5225V21.9885C45.0564 25.4216 40.2982 28.1972 34.4338 28.1972C28.5695 28.1972 23.8008 25.4216 23.8008 21.9885V17.5225C23.8008 20.9555 28.559 23.7416 34.4338 23.7416C40.3086 23.7416 45.0564 20.9555 45.0564 17.5225Z" fill="#FFB8B6"/>
<path d="M48.1675 35.001V40.3853C48.1675 44.8201 42.011 48.4097 34.4353 48.4097C26.8596 48.4097 20.7031 44.8201 20.7031 40.3853V35.001C20.7031 39.4358 26.8492 43.0253 34.4353 43.0253C42.0214 43.0253 48.1675 39.4358 48.1675 35.001Z" fill="#FFB8B6"/>
<path d="M42.1165 26.2773V32.2669C42.1165 34.74 38.6731 36.7539 34.4365 36.7539C30.2 36.7539 26.7461 34.74 26.7461 32.2669V26.2773C28.687 27.4669 31.4104 28.1973 34.4365 28.1973C37.4626 28.1973 40.1757 27.4669 42.1165 26.2773Z" fill="#FFB8B6"/>
<path d="M39.4863 55.7971C39.4863 57.4249 37.222 58.7502 34.4359 58.7502C31.6498 58.7502 29.375 57.4249 29.375 55.7971C29.375 54.4302 30.9611 53.2719 33.1211 52.938L34.4359 56.1102L35.7402 52.938C37.9002 53.2719 39.4863 54.4302 39.4863 55.7971Z" fill="#FFB8B6"/>
<path d="M48.8125 73.7137L82.7568 54.1172L85.6682 55.7972L51.7238 75.3937" stroke="#414042" stroke-linecap="round" stroke-linejoin="round"/>
<path d="M61.8477 51.1851L74.839 58.6772" stroke="#414042" stroke-linecap="round" stroke-linejoin="round"/>
<path d="M47.4766 42.8896L56.2 47.9192" stroke="#414042" stroke-linecap="round" stroke-linejoin="round"/>
<path d="M10.332 59.7625L30.5546 48.0859" stroke="#414042" stroke-linecap="round" stroke-linejoin="round"/>
<path d="M50.1289 84.2428L84.1046 64.6254C85.075 64.0619 85.6698 63.0289 85.6698 61.9123V55.7871" stroke="#414042" stroke-linecap="round" stroke-linejoin="round"/>
<path d="M23.8033 71.0114L46.8016 84.2949C48.9929 85.5575 51.7268 83.9818 51.7268 81.4566V75.4044L48.8155 73.7244V79.8705C48.8155 80.8201 47.7929 81.4149 46.9686 80.9349L10.332 59.7627V63.227L17.8764 67.5783" stroke="#414042" stroke-linecap="round" stroke-linejoin="round"/>
<path d="M51.1289 55.8494L56.8889 52.5103" stroke="#414042" stroke-linecap="round" stroke-linejoin="round"/>
<path d="M32.2109 66.7958L46.8405 58.3228" stroke="#414042" stroke-linecap="round" stroke-linejoin="round"/>
<path d="M36.5 69.5922L56.2009 58.187" stroke="#414042" stroke-linecap="round" stroke-linejoin="round"/>
<path d="M41.0078 72.2424L55.4287 63.8945" stroke="#414042" stroke-linecap="round" stroke-linejoin="round"/>
<path d="M43.5134 14.3086C44.4942 15.2477 45.0577 16.3538 45.0577 17.5329C45.0577 20.966 40.2995 23.7416 34.4351 23.7416C28.5708 23.7416 23.8125 20.966 23.8125 17.5329C23.8125 14.0999 28.5708 11.3242 34.4351 11.3242C36.2612 11.3242 37.9829 11.5955 39.496 12.0755" stroke="#EF4136" stroke-linecap="round" stroke-linejoin="round"/>
<path d="M35.7389 52.938C37.8989 53.2719 39.485 54.4302 39.485 55.7971C39.485 57.4249 37.2207 58.7502 34.4242 58.7502C31.6276 58.7502 29.3633 57.4249 29.3633 55.7971C29.3633 54.4302 30.9494 53.2823 33.1094 52.938" stroke="#EF4136" stroke-linecap="round" stroke-linejoin="round"/>
<path d="M26.7461 26.2773V32.2669C26.7461 34.7504 30.1896 36.7643 34.4261 36.7643C38.6626 36.7643 42.1061 34.7504 42.1061 32.2669V26.2773" stroke="#EF4136" stroke-linecap="round" stroke-linejoin="round"/>
<path d="M45.0577 17.5225V21.9781C45.0577 25.4112 40.2995 28.1868 34.4351 28.1868C28.5708 28.1868 23.8125 25.4112 23.8125 21.9781V17.5225" stroke="#EF4136" stroke-linecap="round" stroke-linejoin="round"/>
<path d="M45.0577 21.9888C45.0577 25.4218 40.2995 28.1975 34.4351 28.1975C28.5708 28.1975 23.8125 25.4218 23.8125 21.9888" stroke="#EF4136" stroke-linecap="round" stroke-linejoin="round"/>
<path d="M47.2584 32.1415C47.8427 33.0285 48.1558 33.9989 48.1558 35.0007C48.1558 39.4354 42.0097 43.025 34.4236 43.025C26.8375 43.025 20.6914 39.4354 20.6914 35.0007C20.6914 32.2354 23.0914 29.7937 26.7436 28.3433" stroke="#EF4136" stroke-linecap="round" stroke-linejoin="round"/>
<path d="M42.1055 28.3433C42.7733 28.6041 43.3889 28.9067 43.9733 29.2302" stroke="#EF4136" stroke-linecap="round" stroke-linejoin="round"/>
<path d="M20.7031 35.001V40.3853C20.7031 44.8201 26.8492 48.4097 34.4353 48.4097C42.0214 48.4097 48.1675 44.8201 48.1675 40.3853V35.001" stroke="#EF4136" stroke-linecap="round" stroke-linejoin="round"/>
<path d="M36.0825 48.4097V51.5923C36.0825 51.9262 36.0199 52.2601 35.8947 52.5627L34.4339 56.1105L32.973 52.5627C32.8478 52.2497 32.7852 51.9262 32.7852 51.5923V48.4097" stroke="#EF4136" stroke-linecap="round" stroke-linejoin="round"/>
</svg>
