<svg width="96" height="97" viewBox="0 0 96 97" fill="none" xmlns="http://www.w3.org/2000/svg">
<path d="M58.5195 44.0686C58.5195 44.8094 58.2899 45.6129 57.9247 46.3016C57.5594 47.0007 57.0586 47.5851 56.5055 47.9086L45.5803 54.2216C44.4742 54.8581 43.5664 54.1799 43.5664 52.6981C43.5664 51.9573 43.796 51.1538 44.1612 50.4651C44.5264 49.766 45.0273 49.1712 45.5803 48.8581L46.4047 48.3886H49.2638C50.6934 48.3886 52.1125 47.9607 53.2186 47.0529C54.1368 46.3016 54.8986 45.1851 54.6586 43.6199L56.5055 42.5451C57.6116 41.9086 58.5195 42.5868 58.5195 44.0686Z" fill="#FFB8B6"/>
<path d="M58.5195 58.2913C58.5195 59.0322 58.2899 59.8357 57.9247 60.5244C57.5594 61.2235 57.0586 61.8183 56.5055 62.1313L45.5803 68.4444C44.4742 69.0809 43.5664 68.4026 43.5664 66.9209C43.5664 66.18 43.796 65.3765 44.1612 64.6878C44.5264 63.9887 45.0273 63.4044 45.5803 63.0809L46.4047 62.6113H49.2638C50.6934 62.6113 52.1125 62.1835 53.2186 61.2757C54.1368 60.5244 54.8986 59.4078 54.6586 57.8426L56.5055 56.7783C57.6116 56.1313 58.5195 56.8096 58.5195 58.2913Z" fill="#FFB8B6"/>
<path d="M64.2766 7.47363L30.1758 25.9015L38.7427 30.8475L64.2766 14.4128V7.47363Z" fill="#FFB8B6"/>
<path d="M37.9304 90.2635L23.2695 81.8009V26.5278L37.9304 34.9904V90.2635Z" stroke="#EF4136" stroke-linecap="round" stroke-linejoin="round"/>
<path d="M35.0911 82.625L26.1172 77.4389V49.4424L35.0911 54.6285V82.625Z" stroke="#414042" stroke-linecap="round" stroke-linejoin="round"/>
<path d="M72.7297 27.2793V67.3906L37.9297 90.2636" stroke="#EF4136" stroke-linecap="round" stroke-linejoin="round"/>
<path d="M37.9297 34.9906L72.7297 12.5767V20.4862" stroke="#EF4136" stroke-linecap="round" stroke-linejoin="round"/>
<path d="M47.1756 13.5571L23.2695 26.5276" stroke="#EF4136" stroke-linecap="round" stroke-linejoin="round"/>
<path d="M72.7288 12.5762L69.8384 10.8336L38.7427 30.8476L30.1758 25.9015L64.2767 7.47364L61.4906 5.7832L53.1532 10.3119" stroke="#EF4136" stroke-linecap="round" stroke-linejoin="round"/>
<path d="M64.2773 7.47363V14.4128" stroke="#EF4136" stroke-linecap="round" stroke-linejoin="round"/>
<path d="M34.5083 43.2026C34.5083 45.6756 32.7657 46.667 30.6057 45.4252C28.4457 44.1835 26.7031 41.1678 26.7031 38.7052C26.7031 36.2426 28.4457 35.2409 30.6057 36.4826C32.7553 37.7243 34.5083 40.74 34.5083 43.2026Z" stroke="#414042" stroke-linecap="round" stroke-linejoin="round"/>
<path d="M56.5055 47.9086L45.5803 54.2112C44.4742 54.8477 43.5664 54.1694 43.5664 52.6877C43.5664 51.206 44.4638 49.4842 45.5803 48.8477L56.5055 42.5451C57.6116 41.9086 58.5195 42.5868 58.5195 44.0686C58.5195 45.5503 57.6221 47.272 56.5055 47.9086Z" stroke="#EF4136" stroke-linecap="round" stroke-linejoin="round"/>
<path d="M56.5055 62.1312L45.5803 68.4338C44.4742 69.0704 43.5664 68.3921 43.5664 66.9104C43.5664 65.4286 44.4638 63.7069 45.5803 63.0704L56.5055 56.7677C57.6116 56.1312 58.5195 56.8095 58.5195 58.2912C58.5195 59.773 57.6221 61.4947 56.5055 62.1312Z" stroke="#EF4136" stroke-linecap="round" stroke-linejoin="round"/>
<path d="M46.4023 48.3886H49.2719C50.7015 48.3886 52.1206 47.9608 53.2267 47.0634C54.1449 46.3121 54.9171 45.1956 54.6667 43.6304" stroke="#EF4136" stroke-linecap="round" stroke-linejoin="round"/>
<path d="M46.4023 62.6113H49.2719C50.7015 62.6113 52.1206 62.1835 53.2267 61.2861C54.1449 60.5348 54.9171 59.4182 54.6667 57.853" stroke="#EF4136" stroke-linecap="round" stroke-linejoin="round"/>
</svg>
