<svg width="97" height="97" viewBox="0 0 97 97" fill="none" xmlns="http://www.w3.org/2000/svg">
<path d="M58.6531 42.3053L55.2305 44.2775V40.3644L58.6531 38.3818V42.3053Z" fill="#FFB8B6"/>
<path d="M63.9239 39.2584L60.5117 41.2306V37.3176L63.9239 35.335V39.2584Z" fill="#FFB8B6"/>
<path d="M69.2039 36.2111L65.7812 38.1832V34.2702L69.2039 32.2876V36.2111Z" fill="#FFB8B6"/>
<path d="M74.4851 33.1642L71.0625 35.1364V31.2233L74.4851 29.2407V33.1642Z" fill="#FFB8B6"/>
<path d="M22.8633 33.9573V24.5034" stroke="#EF4136" stroke-linecap="round" stroke-linejoin="round"/>
<path d="M75.5485 34.8965V71.5434L47.552 87.7069L22.8633 73.453V40.5417" stroke="#EF4136" stroke-linecap="round" stroke-linejoin="round"/>
<path d="M62.7972 15.2268L78.6476 24.3781L50.6511 40.5416L22.8633 24.5033L50.8598 8.33984L56.9433 11.8459" stroke="#EF4136" stroke-linecap="round" stroke-linejoin="round"/>
<path d="M68.9022 43.8496L75.5492 47.6896L50.9648 61.8809" stroke="#414042" stroke-linecap="round" stroke-linejoin="round"/>
<path d="M60.9614 63.7905L50.9648 69.5505" stroke="#414042" stroke-linecap="round" stroke-linejoin="round"/>
<path d="M68.9012 51.5293L75.5482 55.3589L65.7812 60.9936" stroke="#414042" stroke-linecap="round" stroke-linejoin="round"/>
<path d="M68.9022 59.2095L75.5492 63.039L50.9648 77.2303" stroke="#414042" stroke-linecap="round" stroke-linejoin="round"/>
<path d="M78.6464 24.3784V33.1019L50.6499 49.2654L47.5508 47.6584V87.7071" stroke="#EF4136" stroke-linecap="round" stroke-linejoin="round"/>
<path d="M50.6523 40.5415V49.265" stroke="#EF4136" stroke-linecap="round" stroke-linejoin="round"/>
<path d="M50.9648 82.0305V54.2113L72.9614 41.5122V46.187" stroke="#414042" stroke-linecap="round" stroke-linejoin="round"/>
<path d="M50.9648 82.0304L72.9614 69.3312V64.5312" stroke="#414042" stroke-linecap="round" stroke-linejoin="round"/>
<path d="M72.9609 61.5467V56.8511" stroke="#414042" stroke-linecap="round" stroke-linejoin="round"/>
<path d="M72.9609 53.8669V49.1816" stroke="#414042" stroke-linecap="round" stroke-linejoin="round"/>
<path d="M58.6531 42.3053L55.2305 44.2775V40.3644L58.6531 38.3818V42.3053Z" stroke="#EF4136" stroke-linecap="round" stroke-linejoin="round"/>
<path d="M63.9239 39.2584L60.5117 41.2306V37.3176L63.9239 35.335V39.2584Z" stroke="#EF4136" stroke-linecap="round" stroke-linejoin="round"/>
<path d="M69.2039 36.2111L65.7812 38.1832V34.2702L69.2039 32.2876V36.2111Z" stroke="#EF4136" stroke-linecap="round" stroke-linejoin="round"/>
<path d="M74.4851 33.1642L71.0625 35.1364V31.2233L74.4851 29.2407V33.1642Z" stroke="#EF4136" stroke-linecap="round" stroke-linejoin="round"/>
<path d="M26.7148 64.1763V70.7293" stroke="#414042" stroke-linecap="round" stroke-linejoin="round"/>
<path d="M30.0117 66.0757V72.6287" stroke="#414042" stroke-linecap="round" stroke-linejoin="round"/>
<path d="M33.2969 67.9746V74.5381" stroke="#414042" stroke-linecap="round" stroke-linejoin="round"/>
<path d="M36.5859 69.874V76.4375" stroke="#414042" stroke-linecap="round" stroke-linejoin="round"/>
<path d="M39.8828 71.7729V78.3364" stroke="#414042" stroke-linecap="round" stroke-linejoin="round"/>
<path d="M43.168 73.6724V80.2358" stroke="#414042" stroke-linecap="round" stroke-linejoin="round"/>
</svg>
