<svg width="97" height="97" viewBox="0 0 97 97" fill="none" xmlns="http://www.w3.org/2000/svg">
<path d="M38.8972 49.8599C39.325 51.0599 39.9511 51.8947 40.7441 52.3539C41.2763 52.6565 41.9024 52.8026 42.6641 52.8026C46.8902 52.8026 53.798 48.2634 58.8276 39.5921C62.6154 33.0599 64.2432 25.766 62.9598 21.0286C62.5319 19.4426 61.8328 18.3573 60.8832 17.8252C60.3511 17.5226 59.725 17.3765 58.9632 17.3765C58.5772 17.3765 58.1702 17.4182 57.7424 17.4912C57.8258 17.7104 57.8989 17.9504 57.9719 18.2008C59.2554 22.9382 57.6276 30.2321 53.8398 36.7643C49.2693 44.6321 43.1337 49.1086 38.8867 49.8704" fill="#FFB8B6"/>
<path d="M45.2423 58.0828C44.7101 60.8167 44.2197 63.6654 43.7814 66.608C43.0405 71.6271 42.5292 76.4167 42.1953 80.9454C42.1953 84.3054 44.9605 87.0706 48.3205 87.0706C51.6805 87.0706 54.4457 84.3054 54.4457 80.9454C54.1118 76.6671 53.6527 72.1906 53.0371 67.5367C52.4944 63.4045 51.8579 59.4498 51.1692 55.6724" stroke="#414042" stroke-linecap="round" stroke-linejoin="round"/>
<path d="M43.6562 67.4424C44.4597 67.8598 46.0458 68.5485 48.1432 68.5902C50.4597 68.6319 52.2023 67.8702 53.0267 67.4424" stroke="#414042" stroke-linecap="round" stroke-linejoin="round"/>
<path d="M43.0195 72.3262C43.7187 72.7957 45.6282 73.9227 48.3204 73.9227C51.0126 73.9227 52.9117 72.7957 53.6213 72.3262" stroke="#414042" stroke-linecap="round" stroke-linejoin="round"/>
<path d="M63.5471 42.535C70.6776 30.3619 70.762 17.1572 63.7356 13.0414C56.7093 8.92562 45.2328 15.4574 38.1023 27.6305C30.9718 39.8036 30.8874 53.0084 37.9138 57.1241C44.9402 61.2399 56.4166 54.7081 63.5471 42.535Z" stroke="#EF4136" stroke-linecap="round" stroke-linejoin="round"/>
<path d="M56.4497 31.3384C55.7506 33.154 54.8845 34.9801 53.8619 36.754C49.2914 44.6219 43.1871 49.0879 38.9297 49.8497" stroke="#EF4136" stroke-linecap="round" stroke-linejoin="round"/>
<path d="M57.7656 17.481C57.8491 17.7001 57.9221 17.9401 57.9848 18.1905C58.4961 20.1001 58.5482 22.427 58.1621 24.9523" stroke="#EF4136" stroke-linecap="round" stroke-linejoin="round"/>
<path d="M42.6676 52.8027C41.9163 52.8027 41.2902 52.6566 40.7476 52.354C39.798 51.8114 39.0989 50.7366 38.6711 49.1401C37.3876 44.4027 39.0154 37.1088 42.8032 30.5766C47.8328 21.9053 54.7406 17.3662 58.9667 17.3662C59.718 17.3662 60.3441 17.5123 60.8867 17.8149C61.8363 18.3575 62.5354 19.4323 62.9632 21.0184C64.2467 25.7558 62.6189 33.0497 58.8311 39.5819C53.8015 48.2532 46.8937 52.7923 42.6676 52.7923V52.8027Z" stroke="#EF4136" stroke-linecap="round" stroke-linejoin="round"/>
<path d="M42.1953 13.9958C47.9657 9.32097 54.1849 7.60966 58.6614 10.1557L63.6492 12.994" stroke="#EF4136" stroke-linecap="round" stroke-linejoin="round"/>
<path d="M38.0009 57.1748L33.0131 54.3365C25.9383 50.3087 25.9383 37.1504 33.0131 24.9521C34.1505 22.9904 35.4027 21.1748 36.7383 19.5156" stroke="#EF4136" stroke-linecap="round" stroke-linejoin="round"/>
</svg>
