<svg width="96" height="97" viewBox="0 0 96 97" fill="none" xmlns="http://www.w3.org/2000/svg">
<path d="M32.7966 40.2915L23.9375 35.1785L28.894 32.3193L37.7532 37.4324L32.7966 40.2915Z" fill="#FFB8B6"/>
<path d="M41.4451 35.3032L32.5859 30.1902L37.5425 27.3311L46.4016 32.4441L41.4451 35.3032Z" fill="#FFB8B6"/>
<path d="M50.1287 30.2946L41.2695 25.1711L46.2261 22.312L55.0852 27.4251L50.1287 30.2946Z" fill="#FFB8B6"/>
<path d="M58.781 25.2964L49.9219 20.1833L54.8784 17.3242L63.7375 22.4373L58.781 25.2964Z" fill="#FFB8B6"/>
<path d="M32.7966 40.2915L23.9375 35.1785L28.894 32.3193L37.7532 37.4324L32.7966 40.2915Z" stroke="#EF4136" stroke-linecap="round" stroke-linejoin="round"/>
<path d="M41.4451 35.3032L32.5859 30.1902L37.5425 27.3311L46.4016 32.4441L41.4451 35.3032Z" stroke="#EF4136" stroke-linecap="round" stroke-linejoin="round"/>
<path d="M50.1287 30.2946L41.2695 25.1711L46.2261 22.312L55.0852 27.4251L50.1287 30.2946Z" stroke="#EF4136" stroke-linecap="round" stroke-linejoin="round"/>
<path d="M58.781 25.2964L49.9219 20.1833L54.8784 17.3242L63.7375 22.4373L58.781 25.2964Z" stroke="#EF4136" stroke-linecap="round" stroke-linejoin="round"/>
<path d="M46.4023 22.4375V28.1558" stroke="#EF4136" stroke-linecap="round" stroke-linejoin="round"/>
<path d="M54.875 17.3242V23.0425" stroke="#EF4136" stroke-linecap="round" stroke-linejoin="round"/>
<path d="M37.7539 27.4253V33.154" stroke="#EF4136" stroke-linecap="round" stroke-linejoin="round"/>
<path d="M28.8945 32.3193V38.048" stroke="#EF4136" stroke-linecap="round" stroke-linejoin="round"/>
<path d="M68.3906 56.058V68.4754C68.3906 68.8719 68.6411 69.2684 69.1628 69.571C70.1958 70.1658 71.8863 70.1658 72.9298 69.571C73.4515 69.2684 73.7124 68.8823 73.7124 68.4858V52.6562" stroke="#414042" stroke-linecap="round" stroke-linejoin="round"/>
<path d="M53.875 64.4374V76.8548C53.875 77.2513 54.1254 77.6478 54.6472 77.9504C55.6802 78.5452 57.3707 78.5452 58.4141 77.9504C58.9359 77.6478 59.1967 77.2617 59.1967 76.8652V61.0356" stroke="#414042" stroke-linecap="round" stroke-linejoin="round"/>
<path d="M39.1836 73.119V85.5364C39.1836 85.9329 39.434 86.3295 39.9558 86.6321C40.9888 87.2268 42.6792 87.2268 43.7227 86.6321C44.2445 86.3295 44.5053 85.9434 44.5053 85.5468V69.7173" stroke="#414042" stroke-linecap="round" stroke-linejoin="round"/>
<path d="M59.207 63.8739C60.0627 63.9783 61.0018 63.8426 61.6696 63.4565C62.1914 63.1539 62.4522 62.7678 62.4522 62.3713V59.147" stroke="#414042" stroke-linecap="round" stroke-linejoin="round"/>
<path d="M44.5156 72.2217C45.4235 72.3782 46.4461 72.2426 47.1661 71.8252C47.6878 71.5226 47.9487 71.1365 47.9487 70.74V67.5156" stroke="#414042" stroke-linecap="round" stroke-linejoin="round"/>
<path d="M27.9219 72.7539V79.4322C27.9219 79.8287 28.1723 80.2252 28.694 80.5278C29.7271 81.1226 31.4175 81.1226 32.461 80.5278C32.9827 80.2252 33.2436 79.8391 33.2436 79.4426V75.9261" stroke="#414042" stroke-linecap="round" stroke-linejoin="round"/>
<path d="M78.7304 18.2948L33.4121 44.4653L17.2695 35.147L62.5878 8.97656L78.7304 18.2948Z" stroke="#EF4136" stroke-linecap="round" stroke-linejoin="round"/>
<path d="M33.4141 44.4653V75.9158" stroke="#EF4136" stroke-linecap="round" stroke-linejoin="round"/>
<path d="M78.7305 24.9523V18.2949" stroke="#EF4136" stroke-linecap="round" stroke-linejoin="round"/>
<path d="M17.2695 49.4323V66.5975L33.4121 75.9158L78.7304 49.7453V31.3384" stroke="#EF4136" stroke-linecap="round" stroke-linejoin="round"/>
<path d="M17.2695 35.147V42.9731" stroke="#EF4136" stroke-linecap="round" stroke-linejoin="round"/>
</svg>
