<svg width="49" height="49" viewBox="0 0 49 49" fill="none" xmlns="http://www.w3.org/2000/svg">
<path d="M48.4514 24.7745H48.5047L48.5063 24.7712L48.4806 24.7451L48.4899 24.7358H48.4715L46.43 22.6944L44.2983 24.8306L40.4251 24.8775L37.8583 27.3975L35.0583 24.6675L40.0516 24.6443L44.2912 20.3978L42.1677 18.2743L38.0027 22.4393L38.823 23.26L35.774 20.2108L39.939 16.0458L37.8154 13.9223L33.6499 18.0873L31.4214 15.8588L35.5864 11.6938L33.4634 9.57024L29.2978 13.7349L27.0693 11.5063L31.2343 7.34134L29.1114 5.21782L24.9464 9.38282L24.7602 9.19725L24.7243 9.23334V13.5881L24.6926 13.5558L22.5607 11.3967L24.6926 9.26482L24.6928 5.15923L26.8258 3.02586L24.7028 0.902344L24.6303 0.97435V0.997501L0.960938 24.6664L0.96349 24.6689H1.0293L0.996304 24.7019L3.11945 26.8251L5.27596 24.6687L9.29219 24.6689L9.29073 24.6664L11.4744 22.4827L14.4964 24.8323H10.1555L9.47628 24.8527L5.31184 29.0173L7.43499 31.1408L11.5996 26.9762L13.8285 29.2043L9.66351 33.3694L11.787 35.4925L15.9517 31.3279L18.1802 33.5569L14.0152 37.7216L16.1383 39.8447L20.3033 35.6801L22.5322 37.9082L18.3676 42.0738L20.4907 44.1969L24.6557 40.032L24.7232 40.0998V35.8998L26.8463 38.0499L24.7598 40.1358L24.7234 40.0997V44.3488L22.6829 46.3892L24.7234 48.4296L24.7598 48.4662L48.4514 24.7745ZM20.3455 13.6118L24.6924 18.0138L24.7241 18.0461V22.4431L24.6924 22.4107L18.1609 15.7966L20.3455 13.6118ZM15.9466 18.0109L22.521 24.6684L18.1788 24.6685L13.7621 20.1955L15.9466 18.0109ZM29.1337 35.7624L24.7237 31.297V27.0135L24.7802 26.957L31.3182 33.5785L29.1337 35.7624ZM33.5324 31.3632L26.9944 24.7421L27.068 24.6688H31.2638L31.3298 24.7355L35.7169 29.178L33.5324 31.3632Z" fill="#EA4A35"/>
</svg>
