<svg width="46" height="53" viewBox="0 0 46 53" fill="none" xmlns="http://www.w3.org/2000/svg">
<path d="M28.4023 29.2417V43.9589L41.2035 36.5893V21.8721L36.5441 24.5496L28.4023 29.2417Z" fill="#EA4A35"/>
<path d="M32.6147 21.2001L45.8078 13.607L23.2613 0.503906L0.828125 13.55L0.860937 13.5829L0.89375 39.3998L1.62217 39.8264L1.62436 14.0094L2.38558 14.436V40.2179L2.98936 40.5548V14.7925L3.75058 15.219V41.0009L4.35436 41.3378L4.35654 15.5666L5.11777 15.9932V41.8101L5.72154 42.147V36.8163L5.32998 36.6041L5.27311 21.8868L5.66467 22.134V16.3767L6.42589 16.8033V22.5606L7.00778 22.8974V17.1402L7.76901 17.5667V23.324L8.37278 23.6609V17.9274L9.13401 18.354V24.1112L9.73778 24.4481V18.6908L10.499 19.1174V24.8747L11.1028 25.2116V19.4781L11.864 19.9046V25.6619L12.4459 25.9988V20.2415L13.2071 20.6681V26.4016L13.8109 26.7384L13.8196 20.9872L14.5809 21.4138V27.1711L15.1846 27.5079V21.7745L15.9459 22.201L15.9481 27.9298L16.5518 28.2667V22.5659L17.3131 22.9925V28.7259L17.8949 29.0628V23.3293L18.6562 23.7559V49.5728L19.2599 49.9097L19.2643 24.0886L20.0255 24.5151V50.3302L20.6293 50.6671V24.8828L21.3905 25.3094V51.1263L21.9943 51.4632L21.9965 25.6463L22.7577 26.0728V51.8898L23.519 52.3491V26.5303L32.6147 21.2001ZM10.4947 13.4609L23.2958 6.02364L36.1413 13.4828L28.9509 17.626L23.3177 20.8525L10.4947 13.4609Z" fill="#EA4A35"/>
<path d="M6.4375 42.5921L7.00842 42.9289V37.5632L6.4375 37.2285V42.5921Z" fill="#EA4A35"/>
<path d="M7.75 43.3532L8.35592 43.6901V38.3593L7.75 38.0225V43.3532Z" fill="#EA4A35"/>
<path d="M9.11719 44.1142L9.69907 44.4839V39.142L9.11719 38.7832V44.1142Z" fill="#EA4A35"/>
<path d="M14.4805 47.2184L15.0864 47.5881V42.2224L14.4805 41.8877V47.2184Z" fill="#EA4A35"/>
<path d="M15.8242 48.0124L16.428 48.3493V43.0185L15.8242 42.6816V48.0124Z" fill="#EA4A35"/>
<path d="M13.1367 46.4538L13.7186 46.7907V41.4599L13.1367 41.123V46.4538Z" fill="#EA4A35"/>
<path d="M17.1562 48.7731L17.7381 49.11V43.7793L17.1562 43.4424V48.7731Z" fill="#EA4A35"/>
<path d="M10.4609 44.9102L11.0319 45.2471V39.9029L10.4609 39.5791V44.9102Z" fill="#EA4A35"/>
<path d="M11.8047 45.6735L12.3756 46.0104V40.6797L11.8047 40.3428V45.6735Z" fill="#EA4A35"/>
</svg>
