<svg width="46" height="53" viewBox="0 0 46 53" fill="none" xmlns="http://www.w3.org/2000/svg">
<path d="M40.702 21.7721V21.6387L27.7781 29.0871L27.7344 29.109V44.0279L40.682 36.5467L40.702 21.7721ZM40.5226 36.4548L27.8895 43.746V29.1972L40.5333 21.9172L40.5226 36.4548Z" fill="#EA4A35"/>
<path d="M45.1039 13.4275L22.6601 0.392578L0.203125 13.4518L0.235937 13.4737L0.238125 16.0155L2.42124 14.7402L4.68312 16.0505L0.235931 18.6383V21.2021L6.88826 17.3259L9.19607 18.6581L0.247271 23.8666V26.4434L4.65069 23.8556V21.7731L6.44227 22.8034L11.4034 19.9137L13.6653 21.2241L8.70416 24.1137L10.9114 25.3912L15.8617 22.5016L18.1586 23.8337L13.1975 26.7234L15.4047 28.0009L20.3551 25.1112L22.6279 26.4216L17.4414 29.4337V31.9975L22.6391 28.9613V31.6279L17.4414 34.651V37.2148L22.6391 34.1785V36.8101L17.4414 39.8332V42.397L22.6391 39.3608V41.9595L21.4753 42.6311L13.7688 47.1111L13.7797 47.1221L15.9869 48.3996L22.6393 44.5124V47.133L18.238 49.6968L20.4561 50.9743L22.6393 49.6968V52.3961L45.2297 39.3369L45.2625 13.4435V13.31L45.1039 13.4275ZM9.88086 13.34L22.682 5.89155L35.5508 13.3619L28.3604 17.5051L22.7273 20.7426L9.88086 13.34ZM45.0932 39.2549L22.8183 52.1237V26.4426L45.1287 13.5957L45.0932 39.2549Z" fill="#EA4A35"/>
<path d="M4.66296 29.0417L4.65203 26.4648L0.261719 29.0198L0.272656 31.5945L4.66296 29.0417Z" fill="#EA4A35"/>
<path d="M4.66374 31.6846L0.273438 34.2374V36.8143L4.66374 34.2615V31.6846Z" fill="#EA4A35"/>
<path d="M4.9775 36.6807L0.375 39.356L2.60408 40.6444L7.20658 37.9669L4.9775 36.6807Z" fill="#EA4A35"/>
<path d="M9.47969 39.2773L4.875 41.9548L7.10408 43.2433L11.6957 40.5658L9.47969 39.2773Z" fill="#EA4A35"/>
<path d="M13.9462 41.8652L9.34375 44.5427L11.5619 45.8312L16.1644 43.1427L13.9462 41.8652Z" fill="#EA4A35"/>
</svg>
