<svg width="45" height="52" viewBox="0 0 45 52" fill="none" xmlns="http://www.w3.org/2000/svg">
<path d="M24.8062 1.37436L22.4984 0.0859375L0.367188 12.9547L2.63999 14.1535L24.7712 1.40698L24.8062 1.37436Z" fill="#EA4A35"/>
<path d="M29.2503 3.97339L26.9315 2.66309L4.83578 15.5212H4.80078L5.15953 15.6983L7.08672 16.7177L29.2179 3.97306L29.2503 3.97339Z" fill="#EA4A35"/>
<path d="M33.6644 6.54763L33.1941 6.29169L31.3238 5.2373L9.24766 18.0622L9.21484 18.0951L10.5011 18.8016L11.4986 19.3266L33.6298 6.54743L33.6644 6.54763Z" fill="#EA4A35"/>
<path d="M38.11 9.12497L37.6397 8.8559L35.7694 7.80371L13.717 20.638L13.6602 20.673L15.2745 21.5458L15.9461 21.8936L38.0773 9.12513L38.11 9.12497Z" fill="#EA4A35"/>
<path d="M42.5793 11.6669L40.2715 10.3457L40.2387 10.3785L18.1406 23.2147L18.3987 23.3612L20.4156 24.4462L42.5244 11.6889L42.5793 11.6669Z" fill="#EA4A35"/>
<path d="M22.5547 25.7564V51.2821L44.6859 38.5029L44.7078 13.0117L22.5547 25.7564Z" fill="#EA4A35"/>
</svg>
