<svg width="93" height="107" viewBox="0 0 93 107" fill="none" xmlns="http://www.w3.org/2000/svg">
<path d="M56.0809 5.3532L52.4141 3.25098V20.6808L56.0809 22.8092V5.3532Z" fill="#EA4A35"/>
<path d="M63.4681 9.65041L59.7969 7.52637V24.9786L63.4681 27.0852V9.65041Z" fill="#EA4A35"/>
<path d="M70.784 13.9245L67.1172 11.8223V29.2521L70.784 31.3587V13.9245Z" fill="#EA4A35"/>
<path d="M8.03906 30.7519L11.7059 32.8585V20.3936L8.03906 22.4958V30.7519Z" fill="#EA4A35"/>
<path d="M4.36864 28.6267V24.667L0.898438 26.6556L4.36864 28.6267Z" fill="#EA4A35"/>
<path d="M92.8679 26.7031L89.2185 24.5965V28.8272L85.5473 30.9294V22.4943L81.9023 20.3921V32.9884L78.231 35.095V18.1985L74.4943 16.0264V33.4823L77.7853 35.4053V70.7181L77.6061 70.8274L74.4943 69.0398V72.6411L70.7793 74.7434V66.8021L67.1125 64.63V76.8711L63.4631 79.0389V62.4576L59.7918 60.2898V81.1461L56.0769 83.2483V58.118L52.41 55.9458V85.3502L48.7388 87.5441V53.7772L46.9469 52.5885L47.0168 17.5237L48.7388 18.577V1.14717L46.8158 0.0283203L45.2686 0.898049V18.3978L41.558 20.5V3.0702L37.8868 5.17243V22.606L34.2156 24.73V7.34402L30.5706 9.44625V26.8323L26.8338 28.9389V11.5743L23.1844 13.7421V31.0619L19.5131 33.234V15.8434L15.418 18.2603V34.9554L15.9774 35.2701L16.1129 70.8234L19.5132 72.8163V68.8566L23.1844 66.6845V74.9884L26.8338 77.1124V64.5123L30.5706 62.2746V79.215L34.2156 81.3871V60.1066L37.8868 57.9344V83.489L41.558 85.6174V55.7404L45.2686 53.5726V87.7852L46.9469 88.7729V88.703V106.268L92.9335 79.7084L92.999 26.6982L92.8679 26.7031Z" fill="#EA4A35"/>
</svg>
