<svg width="9.6" height="8" viewBox="0 0 9.6 8" fill="none" xmlns="http://www.w3.org/2000/svg">
<path fill-rule="evenodd" clip-rule="evenodd" d="M0.167501 0.184136C0.397177 -0.0547276 0.777003 -0.0621751 1.01587 0.167501L4.61587 3.5675C4.73351 3.68062 4.8 3.83679 4.8 4C4.8 4.16321 4.73351 4.31938 4.61587 4.4325L1.01587 7.8325C0.777003 8.06218 0.397178 8.05473 0.167502 7.81587C-0.0621745 7.577 -0.054727 7.19718 0.184136 6.9675L3.33434 4L0.184136 1.0325C-0.0547276 0.802825 -0.0621752 0.422999 0.167501 0.184136ZM4.9675 0.184136C5.19718 -0.0547275 5.577 -0.0621752 5.81587 0.167501L9.41587 3.5675C9.53351 3.68062 9.6 3.83679 9.6 4C9.6 4.16321 9.53351 4.31938 9.41587 4.4325L5.81587 7.8325C5.577 8.06218 5.19718 8.05473 4.9675 7.81587C4.73783 7.577 4.74527 7.19718 4.98414 6.9675L8.13434 4L4.98414 1.0325C4.74527 0.802824 4.73783 0.422999 4.9675 0.184136Z" fill="currentColor"/>
</svg>
