<svg width="9.6" height="8" viewBox="0 0 9.6 8" fill="none" xmlns="http://www.w3.org/2000/svg">
<path d="M0.184136 6.9675C-0.0547272 7.19718 -0.0621748 7.577 0.167501 7.81587C0.397177 8.05473 0.777003 8.06218 1.01587 7.8325L4.61587 4.4325C4.73351 4.31938 4.8 4.16321 4.8 4C4.8 3.83679 4.73351 3.68062 4.61587 3.5675L1.01587 0.167501C0.777003 -0.0621752 0.397177 -0.0547274 0.167501 0.184135C-0.0621751 0.422999 -0.0547276 0.802824 0.184136 1.0325L3.33434 4L0.184136 6.9675Z" fill="currentColor"/>
<path d="M4.98414 6.9675C4.74527 7.19718 4.73783 7.577 4.9675 7.81587C5.19718 8.05473 5.577 8.06218 5.81587 7.8325L9.41587 4.4325C9.53351 4.31938 9.6 4.16321 9.6 4C9.6 3.83679 9.53351 3.68062 9.41587 3.5675L5.81587 0.167501C5.577 -0.0621752 5.19718 -0.0547274 4.9675 0.184135C4.73783 0.422999 4.74527 0.802824 4.98414 1.0325L8.13434 4L4.98414 6.9675Z" fill="currentColor"/>
</svg>
