<svg width="96" height="96" viewBox="0 0 96 96" fill="none" xmlns="http://www.w3.org/2000/svg">
<path d="M84.5538 39.3231L84.3692 59.8154L58.5231 74.9539L58.7077 54.2769L84.5538 39.3231Z" fill="white"/>
<path d="M58.7077 47.4462L58.5231 74.9539L37.1077 62.5846L37.2923 35.0769L58.7077 47.4462Z" fill="white"/>
<path d="M77.7231 35.2615L84.5538 39.3231L58.7077 54.2769L37.2923 41.9077L63.1385 26.9539L70.7077 31.2" fill="white"/>
<path d="M44.4923 41.9077L63.1385 31.2L77.1692 39.3231L58.7077 50.0308L44.4923 41.9077Z" fill="white"/>
<path d="M60.923 20.3077L60.7384 73.6615L28.6154 92.3077L28.8 38.9538L60.923 20.3077Z" fill="white"/>
<path d="M7.20001 51.1385L7.38463 26.5846L28.8 38.9539L28.6154 92.3077L7.20001 79.9385V64.9846M51.8769 61.8462V78.8308L37.8462 86.9538L37.6615 69.9692L51.8769 61.8462Z" fill="white"/>
<path d="M19.3846 45.4154V53.9077L26.0308 57.7846V49.2923L19.3846 45.4154Z" fill="white"/>
<path d="M26.0308 58.1538H25.8461L19.2 54.2769C19.0154 54.2769 19.0154 54.0923 19.0154 53.9077V45.4154C19.0154 45.2308 19.0154 45.0461 19.2 45.0461H19.7538L26.4 48.9231C26.5846 48.9231 26.5846 49.1077 26.5846 49.2923V57.7846C26.5846 57.9692 26.5846 58.1538 26.4 58.1538H26.0308ZM19.9385 53.5385L25.6615 56.8615V49.4769L19.9385 46.1538V53.5385Z" fill="#EA4A35"/>
<path d="M9.96924 39.8769V48.3692L16.6154 52.2462V43.7538L9.96924 39.8769Z" fill="white"/>
<path d="M16.6154 52.6154H16.4307L9.78459 48.7385C9.59998 48.7385 9.59998 48.5538 9.59998 48.3692V39.8769C9.59998 39.6923 9.59998 39.5077 9.78459 39.5077H10.3384L16.9846 43.3846C17.1692 43.3846 17.1692 43.5692 17.1692 43.7538V52.2462C17.1692 52.4308 17.1692 52.6154 16.9846 52.6154H16.6154ZM10.3384 48L16.0615 51.3231V43.9385L10.3384 40.6154V48Z" fill="#EA4A35"/>
<path d="M19.3846 57.7846V66.0923L26.0308 69.9692V61.4769L19.3846 57.7846Z" fill="white"/>
<path d="M26.0308 70.3385H25.8461L19.2 66.4615C19.0154 66.4615 19.0154 66.2769 19.0154 66.0923V57.6C19.0154 57.4154 19.0154 57.2308 19.2 57.2308H19.7538L26.4 61.1077C26.5846 61.1077 26.5846 61.2923 26.5846 61.4769V69.9692C26.5846 70.1539 26.5846 70.3385 26.4 70.3385H26.0308ZM19.9385 65.9077L25.6615 69.2308V61.8462L19.9385 58.5231V65.9077Z" fill="#EA4A35"/>
<path d="M9.96924 52.2462V60.5538L16.6154 64.4308V55.9385L9.96924 52.2462Z" fill="white"/>
<path d="M16.6154 64.9846H16.4307L9.78459 61.1077C9.59998 61.1077 9.59998 60.9231 9.59998 60.7385V52.2462C9.59998 52.0615 9.59998 51.8769 9.78459 51.8769H10.3384L16.9846 55.7538C17.1692 55.7538 17.1692 55.9385 17.1692 56.1231V64.6154C17.1692 64.8 17.1692 64.9846 16.9846 64.9846H16.6154ZM10.3384 60.3692L16.0615 63.6923V56.3077L10.3384 52.9846V60.3692Z" fill="#EA4A35"/>
<path d="M19.3846 69.9692V78.4615L26.0308 82.1539V73.8462L19.3846 69.9692Z" fill="white"/>
<path d="M26.0308 82.7077H25.8461L19.2 78.8308C19.0154 78.8308 19.0154 78.6462 19.0154 78.4615V69.9692C19.0154 69.7846 19.0154 69.6 19.2 69.6H19.7538L26.4 73.4769C26.5846 73.4769 26.5846 73.6615 26.5846 73.8462V82.3385C26.5846 82.5231 26.5846 82.7077 26.4 82.7077H26.0308ZM19.9385 78.0923L25.6615 81.4154V74.0308L19.9385 70.7077V78.0923Z" fill="#EA4A35"/>
<path d="M9.96924 64.4308V72.9231L16.6154 76.8V68.3077L9.96924 64.4308Z" fill="white"/>
<path d="M16.6154 77.1692H16.4307L9.78459 73.2923C9.59998 73.2923 9.59998 73.1077 9.59998 72.9231V64.4308C9.59998 64.2461 9.59998 64.0615 9.78459 64.0615H10.3384L16.9846 67.9384C17.1692 67.9384 17.1692 68.1231 17.1692 68.3077V76.8C17.1692 76.9846 17.1692 77.1692 16.9846 77.1692H16.6154ZM10.3384 72.5538L16.0615 75.8769V68.4923L10.3384 65.1692V72.5538Z" fill="#EA4A35"/>
<path d="M38.5846 43.3846V51.8769L31.9385 55.7538V47.2615L38.5846 43.3846Z" fill="white"/>
<path d="M31.9384 56.1231H31.7538C31.5692 56.1231 31.5692 55.9385 31.5692 55.7538V47.2615C31.5692 47.0769 31.5692 46.8923 31.7538 46.8923L38.4 43.0154H38.9538C39.1384 43.0154 39.1384 43.2 39.1384 43.3846V51.8769C39.1384 52.0615 39.1384 52.2462 38.9538 52.2462L32.3077 56.1231H31.9384ZM32.4923 47.4462V54.8308L38.2154 51.5077V44.1231L32.4923 47.4462Z" fill="#EA4A35"/>
<path d="M48.1846 37.8462V46.3385L41.5385 50.2154V41.7231L48.1846 37.8462Z" fill="white"/>
<path d="M41.5385 50.5846H41.3539C41.1693 50.5846 41.1693 50.4 41.1693 50.2154V41.7231C41.1693 41.5385 41.1693 41.3539 41.3539 41.3539L48 37.4769H48.5539C48.7385 37.4769 48.7385 37.6615 48.7385 37.8462V46.3385C48.7385 46.5231 48.7385 46.7077 48.5539 46.7077L41.9077 50.5846H41.5385ZM41.9077 41.9077V49.2923L47.6308 45.9692V38.5846L41.9077 41.9077Z" fill="#EA4A35"/>
<path d="M57.6 32.3077V40.8L50.9539 44.6769V36.1846L57.6 32.3077Z" fill="white"/>
<path d="M50.9538 45.0461H50.7692C50.5846 45.0461 50.5846 44.8615 50.5846 44.6769V36.1846C50.5846 36 50.5846 35.8154 50.7692 35.8154L57.4154 31.9384H57.9692C58.1538 31.9384 58.1538 32.1231 58.1538 32.3077V40.8C58.1538 40.9846 58.1538 41.1692 57.9692 41.1692L51.3231 45.0461H50.9538ZM51.5077 36.5538V43.9384L57.2307 40.6154V33.2308L51.5077 36.5538Z" fill="#EA4A35"/>
<path d="M38.5846 56.1231V64.4308L31.9385 68.3077V60L38.5846 56.1231Z" fill="white"/>
<path d="M31.9384 68.8615H31.7538C31.5692 68.8615 31.5692 68.6769 31.5692 68.4923V60C31.5692 59.8154 31.5692 59.6308 31.7538 59.6308L38.4 55.7538H38.9538C39.1384 55.7538 39.1384 55.9385 39.1384 56.1231V64.6154C39.1384 64.8 39.1384 64.9846 38.9538 64.9846L32.3077 68.8615H31.9384ZM32.4923 60.1846V67.5692L38.2154 64.2462V56.8615L32.4923 60.1846Z" fill="#EA4A35"/>
<path d="M48.1846 50.5846V59.0769L41.5385 62.7692V54.4615L48.1846 50.5846Z" fill="white"/>
<path d="M41.5385 63.3231H41.3539C41.1693 63.3231 41.1693 63.1385 41.1693 62.9538V54.4615C41.1693 54.2769 41.1693 54.0923 41.3539 54.0923L48 50.2154H48.5539C48.7385 50.2154 48.7385 50.4 48.7385 50.5846V59.0769C48.7385 59.2615 48.7385 59.4462 48.5539 59.4462L41.9077 63.3231H41.5385ZM41.9077 54.6462V62.0308L47.6308 58.7077V51.3231L41.9077 54.6462Z" fill="#EA4A35"/>
<path d="M57.6 45.0461V53.5385L50.9539 57.4154V48.9231L57.6 45.0461Z" fill="white"/>
<path d="M50.9538 57.7846H50.7692C50.5846 57.7846 50.5846 57.6 50.5846 57.4154V48.9231C50.5846 48.7384 50.5846 48.5538 50.7692 48.5538L57.4154 44.6769H57.9692C58.1538 44.6769 58.1538 44.8615 58.1538 45.0461V53.5384C58.1538 53.7231 58.1538 53.9077 57.9692 53.9077L51.3231 57.7846H50.9538ZM51.5077 49.1077V56.4923L57.2307 53.1692V45.7846L51.5077 49.1077Z" fill="#EA4A35"/>
<path d="M64.2461 17.5385V24L28.0615 44.8615V38.5846L64.2461 17.5385Z" fill="white"/>
<path d="M28.0615 38.5846V44.8615L4.06152 31.0154V24.5538L28.0615 38.5846Z" fill="white"/>
<path d="M23.4461 13.4769L40.2461 3.69232L64.2461 17.5385L28.0615 38.5846L4.06152 24.5539L14.4 18.6462" fill="white"/>
<path d="M11.6307 24.5539L40.2461 7.93848L56.6769 17.5385L28.0615 34.1539L11.6307 24.5539Z" fill="white"/>
<path d="M56.6769 17.5385L53.1692 19.5692L40.0615 12L15.1384 26.5846L11.6307 24.5539L40.0615 7.93848L56.6769 17.5385Z" fill="white"/>
<path d="M48.1846 72.9231L49.4769 72.1846L48.1846 72.9231Z" fill="white"/>
<path d="M85.1077 39.3231C85.1077 39.1385 85.1077 39.1385 85.1077 39.3231V39.1385L78.2769 35.2616C78.0923 35.0769 77.7231 35.2616 77.7231 35.4462C77.5385 35.6308 77.7231 36 77.9077 36L84 39.5077L83.0769 40.0616L61.6616 52.4308V49.2923L77.7231 39.8769C77.9077 39.8769 77.9077 39.6923 77.9077 39.5077C77.9077 39.3231 77.9077 39.1385 77.7231 39.1385L63.6923 31.0154H63.1385L61.6616 31.9385V28.8L63.3231 27.8769L70.7077 32.1231C70.8923 32.3077 71.2616 32.1231 71.2616 31.9385C71.4462 31.7539 71.2616 31.3846 71.0769 31.3846C61.2923 25.8462 64.2462 26.5846 61.4769 27.8769V26.5846L64.4308 24.7385C64.6154 24.7385 64.6154 24.5539 64.6154 24.3692V17.9077C64.6154 17.7231 64.4308 17.5385 64.4308 17.5385L40.4308 3.69232H39.8769L23.0769 13.4769C22.8923 13.6616 22.7077 13.8462 22.8923 14.0308C23.0769 14.2154 23.2616 14.4 23.4462 14.2154L39.8769 4.6154L62.9539 17.9077L27.8769 38.4L4.98463 24.7385L14.5846 19.2C14.7692 19.0154 14.9539 18.6462 14.7692 18.4616C14.5846 18.2769 14.4 18.0923 14.2154 18.2769L3.87694 24.1846C3.69232 24.3692 3.69232 24.5539 3.69232 24.7385V31.2C3.69232 31.2 3.69232 31.3846 3.87694 31.3846L6.83078 33.2308V51.3231C6.83078 51.5077 7.0154 51.8769 7.38463 51.8769C7.75386 51.8769 7.93848 51.6923 7.93848 51.3231V33.7846L28.0616 45.4154H28.4308L28.2462 91.5692L7.75386 79.7539V64.9846C7.75386 64.8 7.56925 64.4308 7.20001 64.4308C7.0154 64.4308 6.64617 64.6154 6.64617 64.9846V79.9385C6.64617 80.1231 6.64617 80.3077 6.83078 80.3077L28.2462 92.6769H28.6154C33.9692 89.5385 79.0154 63.3231 84.3692 60.1846C84.5539 60.1846 84.5539 60 84.5539 59.8154L85.1077 39.3231ZM63.1385 31.7539L76.2462 39.3231L61.2923 48V32.6769L63.1385 31.7539ZM63.6923 18.4616V23.8154C57.4154 27.3231 38.2154 38.5846 28.6154 44.3077V38.7692C27.5077 39.3231 43.2 30.2769 63.6923 18.4616ZM4.6154 30.8308V25.4769C9.96924 28.6154 22.3385 35.6308 27.6923 38.7692V44.1231C25.2923 42.8308 36.1846 49.1077 4.6154 30.8308ZM38.2154 70.1539L51.5077 62.5846V78.4616C51.3231 78.6462 37.4769 86.5846 38.4 86.2154L38.2154 70.1539ZM60.3692 73.2923L52.4308 77.9077V61.6616C52.4308 61.4769 52.4308 61.2923 52.2462 61.2923H51.6923L37.6616 69.4154C37.4769 69.4154 37.4769 69.6 37.4769 69.7846V86.5846L29.1692 91.3846L29.3539 44.6769L60.5539 26.5846L60.3692 73.2923ZM84 59.6308L61.2923 72.7385V53.1692L84 39.8769V59.6308Z" fill="#353B50"/>
<path d="M11.2615 24.1846C11.0769 24.3692 10.8923 24.7385 11.2615 24.9231C31.7538 36.7385 27.1384 34.1539 27.8769 34.5231H28.2461C31.2 32.8616 17.7231 40.6154 56.8615 17.9077C57.0461 17.9077 57.0461 17.7231 57.0461 17.5385C57.0461 17.3539 57.0461 17.1692 56.8615 17.1692L40.2461 7.56925H39.8769C36.9231 9.23078 50.5846 1.47694 11.2615 24.1846ZM28.0615 33.6L15.8769 26.5846L40.0615 12.5539L52.2461 19.5692L28.0615 33.6ZM40.0615 8.49232L55.7538 17.5385L53.1692 19.0154L40.2461 11.6308H39.6923L15.1384 26.2154L12.5538 24.7385L40.0615 8.49232ZM48.1846 73.2923H48.3692L49.4769 72.5539C49.6615 72.3692 49.8461 72.1846 49.6615 72C49.4769 71.8154 49.2923 71.6308 49.1077 71.8154L48 72.5539C47.8154 72.7385 47.6307 72.9231 47.8154 73.1077C48 73.2923 48 73.2923 48.1846 73.2923Z" fill="#353B50"/>
<path d="M71.4461 52.6154V61.1077L64.8 64.9846V56.4923L71.4461 52.6154Z" fill="white"/>
<path d="M64.8 65.3539H64.6154C64.4308 65.3539 64.4308 65.1692 64.4308 64.9846V56.4923C64.4308 56.3077 64.4308 56.1231 64.6154 56.1231L71.2615 52.2462H71.8154C72 52.2462 72 52.4308 72 52.6154V61.1077C72 61.2923 72 61.4769 71.8154 61.4769L65.1692 65.3539H64.8ZM65.3539 56.8615V64.2462L71.0769 60.9231V53.5385L65.3539 56.8615Z" fill="#EA4A35"/>
<path d="M81.0462 47.2615V55.5692L74.4 59.4462V50.9538L81.0462 47.2615Z" fill="white"/>
<path d="M74.4 60H74.2154C74.0308 60 74.0308 59.8154 74.0308 59.6308V51.1385C74.0308 50.9538 74.0308 50.7692 74.2154 50.7692L80.8615 46.8923H81.4154C81.6 46.8923 81.6 47.0769 81.6 47.2615V55.7538C81.6 55.9385 81.6 56.1231 81.4154 56.1231L74.7692 60C74.5846 59.8154 74.4 60 74.4 60ZM74.7692 51.3231V58.7077L80.4923 55.3846V48L74.7692 51.3231Z" fill="#EA4A35"/>
<path d="M68.8615 21.4154C74.5846 18.0923 79.2 20.8616 79.2 27.3231C79.2 28.0616 78.6461 28.9846 78.0923 29.3539C77.5384 29.7231 76.9846 29.3539 76.9846 28.6154C76.9846 26.0308 76.0615 24.3692 74.5846 23.4462C73.1077 22.7077 71.2615 22.7077 69.0461 24C68.4923 24.3692 67.9384 24 67.9384 23.2616C67.7538 22.7077 68.3077 21.7846 68.8615 21.4154Z" fill="white"/>
<path d="M85.1077 19.2C85.4769 20.4923 85.6616 21.9692 85.6616 23.6308C85.6616 24.3692 85.1077 25.2923 84.5539 25.6615C84 26.0308 83.4462 25.6615 83.4462 24.9231C83.4462 20.4923 81.7846 17.1692 79.2 15.6923C76.6154 14.2154 73.1077 14.4 69.0462 16.8C68.4923 17.1692 67.9385 16.8 67.9385 16.0615C67.9385 15.3231 68.4923 14.4 69.0462 14.0308C75.5077 10.3385 81.0462 11.2615 83.8154 15.8769" fill="white"/>
<path d="M68.8615 6.83075C81.6 -0.553861 91.7538 5.35383 91.9384 19.9384C91.9384 20.6769 91.3846 21.6 90.8307 21.9692C90.2769 22.3384 89.723 21.9692 89.723 21.2308C89.723 14.7692 87.323 10.1538 83.6307 7.93845C79.9384 5.72306 74.7692 6.09229 69.0461 9.41537C68.4923 9.7846 67.9384 9.41537 67.9384 8.67691C67.7538 8.12306 68.3077 7.19999 68.8615 6.83075Z" fill="white"/>
<path d="M40.0615 12.5538C39.8769 12.5538 39.5077 12.3692 39.5077 12V7.93846C39.5077 7.75384 39.6923 7.38461 40.0615 7.38461C40.4308 7.38461 40.6154 7.75384 40.6154 7.93846V12C40.6154 12.3692 40.4308 12.5538 40.0615 12.5538Z" fill="#353B50"/>
</svg>
