<svg width="81" height="81" viewBox="0 0 81 81" fill="none" xmlns="http://www.w3.org/2000/svg">
<path d="M20.0625 59.218V42.7049C20.0625 40.7919 21.2277 38.5658 22.6625 37.731L63.2103 14.3223C64.6451 13.4962 65.8103 14.3745 65.8103 16.2875V41.618C65.8103 43.531 64.6451 45.7571 63.2103 46.5919L22.6625 70.0006C21.2277 70.8266 20.0625 69.9484 20.0625 68.0353V64.5745" stroke="#414042" stroke-linecap="round" stroke-linejoin="round"/>
<path d="M53.0547 13.6879L57.5764 11.0792C58.2286 10.7053 58.8199 10.6792 59.2808 10.9401L64.959 14.2184" stroke="#414042" stroke-linecap="round" stroke-linejoin="round"/>
<path d="M20.9079 70.1049L15.4123 66.931C14.8123 66.6441 14.4297 65.8788 14.4297 64.7832V39.4528C14.4297 37.5397 15.5949 35.3136 17.0297 34.4788L48.3166 16.418" stroke="#414042" stroke-linecap="round" stroke-linejoin="round"/>
<path d="M42.5938 26.2363V58.4972" stroke="#414042" stroke-linecap="round" stroke-linejoin="round"/>
<path d="M33.6364 38.2621C33.6364 39.7142 32.6103 41.4794 31.3495 42.2012C30.0886 42.9229 29.0625 42.349 29.0625 40.8968C29.0625 39.4447 30.0886 37.6794 31.3495 36.9577C32.6103 36.236 33.6364 36.8099 33.6364 38.2621Z" fill="#FFB8B6"/>
<path d="M37.8542 48.3308C37.8542 44.209 34.9412 42.5482 31.3412 44.6264C27.7412 46.7047 24.8281 51.7308 24.8281 55.8525L37.8542 48.3308Z" fill="#FFB8B6"/>
<path d="M33.6364 38.2621C33.6364 39.7142 32.6103 41.4794 31.3495 42.2012C30.0886 42.9229 29.0625 42.349 29.0625 40.8968C29.0625 39.4447 30.0886 37.6794 31.3495 36.9577C32.6103 36.236 33.6364 36.8099 33.6364 38.2621Z" stroke="#EF4136" stroke-linecap="round" stroke-linejoin="round"/>
<path d="M37.8542 48.3308C37.8542 44.209 34.9412 42.5482 31.3412 44.6264C27.7412 46.7047 24.8281 51.7308 24.8281 55.8525L37.8542 48.3308Z" stroke="#EF4136" stroke-linecap="round" stroke-linejoin="round"/>
<path d="M23.4609 60.7489L39.2262 51.6445" stroke="#EF4136" stroke-linecap="round" stroke-linejoin="round"/>
<path d="M24.8359 63.5921L37.8533 56.0703" stroke="#EF4136" stroke-linecap="round" stroke-linejoin="round"/>
<path d="M62.4266 30.9136C62.4266 36.3571 58.5744 42.9919 53.8266 45.731C49.0787 48.4702 45.2266 46.2789 45.2266 40.8354C45.2266 35.3919 49.0787 28.7571 53.8266 26.018C58.5744 23.2789 62.4266 25.4702 62.4266 30.9136Z" stroke="#414042" stroke-linecap="round" stroke-linejoin="round"/>
<path d="M51.8984 31.5921C52.5071 30.9313 53.1767 30.3747 53.8897 29.966C56.6376 28.3834 58.855 29.6443 58.855 32.7921V33.5226C58.855 34.4008 58.7941 35.3139 58.681 36.253" stroke="#EF4136" stroke-linecap="round" stroke-linejoin="round"/>
<path d="M48.7969 41.6279C48.8838 40.8192 48.9273 40.0279 48.9273 39.2627V38.5322C48.9273 36.9757 49.4664 35.254 50.3534 33.7148" stroke="#EF4136" stroke-linecap="round" stroke-linejoin="round"/>
<path d="M56.7522 32.4785C56.9435 32.835 57.0478 33.2959 57.0478 33.8437V34.209C57.0478 35.8003 56.8652 37.4959 56.5 39.235" stroke="#EF4136" stroke-linecap="round" stroke-linejoin="round"/>
<path d="M50.3828 42.574C50.6176 41.1914 50.7393 39.8523 50.7393 38.5653V37.4784C50.7393 35.4784 52.148 33.0523 53.8959 32.0436C54.5828 31.6436 55.2176 31.5305 55.7393 31.661" stroke="#EF4136" stroke-linecap="round" stroke-linejoin="round"/>
<path d="M52.5078 39.3137C52.5426 38.8267 52.5513 38.3571 52.5513 37.8876V36.4354C52.5513 35.5919 53.1513 34.5571 53.8904 34.1311C54.6296 33.705 55.2296 34.0441 55.2296 34.8963C55.2296 36.9571 54.9165 39.1832 54.3078 41.4789" stroke="#EF4136" stroke-linecap="round" stroke-linejoin="round"/>
<path d="M52.0625 42.6013C52.1582 42.1057 52.2451 41.61 52.3147 41.123" stroke="#EF4136" stroke-linecap="round" stroke-linejoin="round"/>
<path d="M53.8821 35.6523V35.9915C53.8821 36.5567 53.856 37.1393 53.8125 37.7306" stroke="#EF4136" stroke-linecap="round" stroke-linejoin="round"/>
</svg>
